<?xml version="1.0" encoding="utf-8"?>
<!-- Generator: Adobe Illustrator 22.1.0, SVG Export Plug-In . SVG Version: 6.00 Build 0)  -->
<svg version="1.1" id="Layer_1" xmlns="http://www.w3.org/2000/svg" xmlns:xlink="http://www.w3.org/1999/xlink" x="0px" y="0px"
	 viewBox="0 0 157 45" style="enable-background:new 0 0 157 45;" xml:space="preserve">
<style type="text/css">
	.st0{fill:#FFFFFF;}
</style>
<g>
	<path class="st0" d="M13.2,34.8c0,2.5-1,5.9-4.1,6c-1.5-0.1-2.5-0.8-2.5-2.4C6.5,35.4,10.9,34.8,13.2,34.8L13.2,34.8z M17.6,43.6
		V29.4c0.1-4.6-3-6.2-7.2-6.2c-4.1,0-7.6,1.8-7.6,6.3h4.5c0-2,1.1-3.1,3.1-3.1c2.3,0,2.8,1.7,2.8,3.6v2C8.6,32.2,2.1,32.8,2,38.8
		C2.1,42.2,4.8,44,7.9,44c2.2,0,4.2-0.8,5.2-2.7h0.1v2.3H17.6L17.6,43.6z"/>
	<path class="st0" d="M31.3,30.5c0-2-0.6-4-3-4c-2.9,0-3.8,3.1-3.8,5.5c0.1,5,2.9,8.8,8.2,8.9c1.1-0.1,2.2-0.2,3.3-0.5v2.8
		c-1.8,0.6-3.8,1-5.8,1c-7.1,0-10.6-4.4-10.6-11.3c0-5.8,3.1-9.6,9.1-9.6c4.8,0,7.6,2.4,7.6,7.3H31.3L31.3,30.5z"/>
	<path class="st0" d="M49.1,30.5c0-2-0.6-4-3-4c-2.9,0-3.8,3.1-3.8,5.5c0,5,2.9,8.8,8.2,8.9c1.1-0.1,2.3-0.2,3.4-0.5v2.8
		c-1.8,0.6-3.8,1-5.8,1c-7.1,0-10.6-4.4-10.6-11.3c0-5.8,3.1-9.6,9.1-9.6c4.8,0,7.5,2.4,7.5,7.3H49.1L49.1,30.5z"/>
	<path class="st0" d="M67.3,29.6H60c0.3-2,1.8-3.4,3.8-3.4C66,26.2,67.3,27.5,67.3,29.6L67.3,29.6z M71.7,32.5v-1.1
		c0-4.9-2.5-8.1-7.6-8.1c-5.9,0-8.5,3.7-8.5,9.4c0.1,6.6,3,11.5,10.1,11.5c1.9,0,3.8-0.3,5.5-0.8V40c-1.1,0.4-2.5,0.7-3.8,0.8
		c-4.5-0.1-7.5-4.1-7.5-8.3H71.7L71.7,32.5z"/>
	<path class="st0" d="M85.4,43.6V32.2c0-1,0.1-3.5-0.7-4.3c-0.3-0.3-0.9-0.4-1.3-0.4c-3.4,0-4.7,4.7-4.7,7.5v8.6H74V23.7h4.6v3.8
		h0.1c1.1-2.5,3.1-4.2,5.9-4.2c3.8,0,5.4,3.1,5.4,6.6v13.8H85.4L85.4,43.6z"/>
	<path class="st0" d="M99.7,26.9v9.4c0,2.3,0.3,4.4,3.1,4.5c0.8-0.1,1.5-0.2,2.2-0.4v3.3c-1.3,0.2-2.5,0.3-3.8,0.3
		c-4,0-6.1-1.3-6.1-5.5V26.9h-3.9v-3.2h3.9v-4.7l4.6-1.8v6.6h5.9v3.2H99.7L99.7,26.9z"/>
	<path class="st0" d="M119,43.6v-3.8h-0.1c-1,2.5-3.1,4.2-5.9,4.2c-3.8,0-5.3-3.2-5.3-6.6V23.7h4.6v11.4c0,1-0.1,3.5,0.7,4.3
		c0.3,0.3,0.9,0.3,1.3,0.4c3.3-0.1,4.6-4.8,4.6-7.4v-8.7h4.6v19.9H119L119,43.6z"/>
	<path class="st0" d="M131.2,34.9v8.7h-4.6V23.7h4.6v3.7h0.1c1.6-2.7,3.1-4.1,6.4-4.1v4.8C133,28.1,131.2,30.2,131.2,34.9
		L131.2,34.9z"/>
	<path class="st0" d="M150.3,29.6h-7.3c0.3-2,1.8-3.4,3.8-3.4C149,26.2,150.4,27.5,150.3,29.6L150.3,29.6z M154.7,32.5v-1.1
		c0-4.9-2.5-8.1-7.5-8.1c-5.9,0-8.5,3.7-8.5,9.4c0,6.6,3,11.5,10,11.5c1.9,0,3.8-0.3,5.5-0.8V40c-1.1,0.4-2.5,0.7-3.8,0.8
		c-4.5-0.1-7.5-4.1-7.5-8.3H154.7L154.7,32.5z"/>
	<path class="st0" d="M91.2,0.4v3.2c0,0,9.3,3.6,10.6,4.1c-1.3,0.5-10.6,4.1-10.6,4.1v3.2l14.5-5.9v-3L91.2,0.4L91.2,0.4z"/>
</g>
</svg>
