<?xml version="1.0" encoding="utf-8"?>
<!-- Generator: Adobe Illustrator 22.1.0, SVG Export Plug-In . SVG Version: 6.00 Build 0)  -->
<svg version="1.1" id="Layer_1" xmlns="http://www.w3.org/2000/svg" xmlns:xlink="http://www.w3.org/1999/xlink" x="0px" y="0px"
	 viewBox="0 0 161 177" enable-background="new 0 0 161 177" xml:space="preserve">
<g>
	<path fill-rule="evenodd" clip-rule="evenodd" fill="#FFFFFF" d="M66.458,48.876c0.126,0.127,28.178,64.112,28.151,64.058
		c-6.141,0-12.253,0-18.384,0c0-0.198-8.708-20.862-8.617-20.968c-6.625,0-13.205,0-19.82,0
		C47.966,92.018,66.736,48.661,66.458,48.876L66.458,48.876z"/>
	<path fill-rule="evenodd" clip-rule="evenodd" fill="#FFFFFF" d="M6.71,9.582c0.143,0,43.078,0,43.087,0
		C49.923,9.555,6.997,112.925,6.854,112.791C6.854,112.647,6.755,9.509,6.71,9.582L6.71,9.582z"/>
	<path fill-rule="evenodd" clip-rule="evenodd" fill="#FFFFFF" d="M82.598,9.582h44.554c0,0.26-0.031,103.407-0.031,103.263
		C127.149,113.177,82.598,9.582,82.598,9.582L82.598,9.582z"/>
	<path fill-rule="evenodd" clip-rule="evenodd" fill="#FFFFFF" d="M24.208,129.099l9.573,40.963h-6.975l-1.641-7.665h-8.661
		l-1.595,7.665H7.935l9.572-40.963H24.208L24.208,129.099L24.208,129.099z M23.843,155.433l-3.009-15.332l-3.008,15.332H23.843
		L23.843,155.433z"/>
	<path fill-rule="evenodd" clip-rule="evenodd" fill="#FFFFFF" d="M49.464,170.062l-0.183-3.57h-0.228
		c-0.958,2.809-3.008,4.682-5.607,4.682c-6.154,0-8.752-7.197-8.752-16.093c0-7.608,1.915-15.859,8.843-15.859
		c2.416,0,3.555,0.878,5.288,3.16v-13.284h6.154v40.963H49.464L49.464,170.062L49.464,170.062z M45.088,145.25
		c-1.687,0-4.011,1.639-4.011,9.949c0,3.862,0.501,10.065,4.011,10.065c3.373,0,4.011-5.559,4.011-10.065
		C49.099,146.889,46.729,145.25,45.088,145.25L45.088,145.25z"/>
	<path fill-rule="evenodd" clip-rule="evenodd" fill="#FFFFFF" d="M59.314,155.14c0-9.188,3.191-15.917,10.439-15.917
		c7.202,0,10.439,6.729,10.439,15.917c0,9.305-3.282,16.034-10.439,16.034C62.551,171.174,59.314,164.445,59.314,155.14
		L59.314,155.14L59.314,155.14z M73.81,155.14c0-8.076-1.687-9.948-4.057-9.948c-1.869,0-4.057,1.405-4.057,9.948
		c0,8.719,2.188,10.066,4.057,10.066C72.397,165.206,73.81,162.748,73.81,155.14L73.81,155.14z"/>
	<path fill-rule="evenodd" clip-rule="evenodd" fill="#FFFFFF" d="M89.943,170.062h-5.516v-40.963h6.2v13.635
		c1.276-2.926,3.692-3.511,5.242-3.511c6.518,0,8.889,6.847,8.889,15.859c0,8.954-2.325,16.093-8.843,16.093
		c-2.69,0-4.285-1.346-5.607-4.682h-0.182L89.943,170.062L89.943,170.062L89.943,170.062z M94.364,165.206
		c3.373,0,4.012-5.56,4.012-10.066c0-8.31-2.37-9.948-4.012-9.948c-1.686,0-4.011,1.638-4.011,9.948
		C90.353,159.003,90.854,165.206,94.364,165.206L94.364,165.206z"/>
	<path fill-rule="evenodd" clip-rule="evenodd" fill="#FFFFFF" d="M128.101,161.46c-1.55,9.012-6.564,9.714-9.937,9.714
		c-3.783,0-10.256-1.405-10.256-16.034c0-10.182,4.194-15.917,10.712-15.917c4.103,0,9.892,2.282,9.892,16.503v1.638h-14.222
		c0,7.022,2.416,7.842,4.148,7.842c1.413,0,2.871-0.41,3.465-3.745H128.101L128.101,161.46L128.101,161.46z M122.13,152.39
		c-0.182-6.027-1.642-7.198-3.692-7.198c-3.51,0-4.103,4.974-4.148,7.198H122.13L122.13,152.39z"/>
	<path fill-rule="evenodd" clip-rule="evenodd" fill="#FFFFFF" d="M130.29,11.987V9.582h10.51v2.405h-3.891v10.219h-2.728V11.987
		H130.29L130.29,11.987L130.29,11.987z M144.182,12.46v9.746h-2.727V9.582h3.601l3.564,9.934l3.527-9.934h3.564v12.624h-2.728V12.46
		l-3.455,9.746h-1.927L144.182,12.46L144.182,12.46z"/>
</g>
</svg>
