<?xml version="1.0" encoding="utf-8"?>
<!-- Generator: Adobe Illustrator 22.1.0, SVG Export Plug-In . SVG Version: 6.00 Build 0)  -->
<svg version="1.1" id="Layer_1" xmlns:v="http://vecta.io"
	 xmlns="http://www.w3.org/2000/svg" xmlns:xlink="http://www.w3.org/1999/xlink" x="0px" y="0px" viewBox="0 0 300 300"
	 style="enable-background:new 0 0 300 300;" xml:space="preserve">
<style type="text/css">
	.st0{fill:url(#SVGID_1_);}
	.st1{fill:#FFFFFF;}
</style>
<symbol  id="_x35_e0b1e20e24f4e6f88658a2490386a7d.sym">
</symbol>
<g>
	<g id="j3ikiu68wa" transform="translate(0 0)">
		<g id="j3ikiicrvt" transform="translate(0 0)">
			
				<linearGradient id="SVGID_1_" gradientUnits="userSpaceOnUse" x1="50.2976" y1="200.3542" x2="50.2976" y2="199.3542" gradientTransform="matrix(247.0588 0 0 -282.3529 -12276.4707 56579.4141)">
				<stop  offset="0" style="stop-color:#F58536"/>
				<stop  offset="1" style="stop-color:#D16929"/>
			</linearGradient>
			<path class="st0" d="M26.5,79.4L150,8.8l123.5,70.6v141.2L150,291.2L26.5,220.6V79.4z"/>
		</g>
		<g id="j3ikiicyvu" transform="translate(9.7434 26.5403)">
			<path class="st1" d="M211.7,76v30.1l-73.8,32.8l-73.8-32.8V76h-13v110.4h173.3V76H211.7z M211.7,173.6H64.5v-52.9l73.8,32.8
				l73.8-32.8v52.9H211.7z"/>
		</g>
		<g id="j3ikiid8vv" transform="translate(9.8378 13.1754)">
			<path class="st1" d="M137.8,42.1L51.4,81V98h13v-8.4l73.4-33.1l73.8,33.1V98h13V81L137.8,42.1z"/>
		</g>
		<g id="j3ikiidkvw" transform="translate(17.2162 28.7204)">
			<path class="st1" d="M83,115.9V94.9h94.8v21.1l13.4-6V81.5H70v28.4L83,115.9z"/>
		</g>
	</g>
</g>
<use xlink:href="#_x35_e0b1e20e24f4e6f88658a2490386a7d.sym"  width="-32766" height="-32766" id="XMLID_1_" x="16383" y="16383" transform="matrix(1.0625 0 0 1.0625 176.4706 158.8235)" style="overflow:visible;"/>
</svg>
