<?xml version="1.0" encoding="utf-8"?>
<!-- Generator: Adobe Illustrator 22.1.0, SVG Export Plug-In . SVG Version: 6.00 Build 0)  -->
<svg version="1.1" id="Layer_1" xmlns="http://www.w3.org/2000/svg" xmlns:xlink="http://www.w3.org/1999/xlink" x="0px" y="0px"
	 viewBox="0 0 354 194" enable-background="new 0 0 354 194" xml:space="preserve">
<path fill="#FFFFFF" d="M123,179.8c0.833-0.2,1.467-0.567,1.9-1.1c0.433-0.533,0.65-1.217,0.65-2.05c0-1.1-0.417-1.95-1.25-2.55
	c-0.767-0.533-2.033-0.8-3.8-0.8h-5.1v12.9h3.35v-5.05h0.5c0.667,0,1.167,0.1,1.5,0.3c0.3,0.267,0.55,0.667,0.75,1.2l1.1,3.55h3.6
	l-1.55-4.3C124.25,180.767,123.7,180.067,123,179.8 M119.95,178.85h-1.2v-3.3h0.85c0.867,0,1.533,0.133,2,0.4
	c0.4,0.3,0.6,0.733,0.6,1.3c0,0.533-0.183,0.933-0.55,1.2C121.283,178.717,120.717,178.85,119.95,178.85 M98.75,175.7v-2.4H89.8
	v12.9H99v-2.5h-5.75v-2.95h5.2v-2.45h-5.2v-2.6H98.75 M63.95,173.3v2.55h3.2v10.35h3.4v-10.35h3.2v-2.55H63.95 M195.8,186.2v-12.9
	h-3.45v12.9H195.8 M163.8,186.2h3.4l0.95-2.75h4.95l0.95,2.75h3.65l-4.9-12.9h-4.1L163.8,186.2 M172.3,181H169l1.7-4.85L172.3,181
	 M140.5,175.85h3.2v10.35h3.4v-10.35h3.2v-2.55h-9.8V175.85 M37.85,176.95c0.167,0.533,0.333,0.933,0.5,1.2l3.9,8.05h4.25v-12.9
	h-3.1l0.1,8.75l0.2,1.75c-0.3-1-0.483-1.567-0.55-1.7L39,173.3h-4.3v12.9h3.1l-0.35-10.65L37.85,176.95 M18.05,175.7v-2.4H9.1v12.9
	h9.15v-2.5h-5.7v-2.95h5.2v-2.45h-5.2v-2.6H18.05 M280.5,175.7v-2.4h-9v12.9h9.2v-2.5h-5.75v-2.95h5.2v-2.45h-5.2v-2.6H280.5
	 M245.4,173.3h-5v12.9h2.9l-0.15-11.35l3.2,11.35h2.95l3.3-11.35l-0.15,11.35h3.05v-12.9h-4.9l-2.25,7.65l-0.2,1.05
	c-0.1,0.8-0.15,1.233-0.15,1.3l-0.35-2.25L245.4,173.3 M224.35,173.3h-3.1l0.05,8.75l0.25,1.75l-1-2.8l-3.75-7.7h-4.3v12.9h3.1
	l-0.35-10.65l0.45,1.4c0.167,0.533,0.333,0.933,0.5,1.2l3.85,8.05h4.3V173.3 M325.7,175.85h3.2v10.35h3.4v-10.35h3.2v-2.55h-9.8
	V175.85 M308.3,173.3h-3.1l0.1,8.75l0.25,1.75l-1-2.8l-3.75-7.7h-4.3v12.9h3.1v-6.8c0-0.733-0.033-1.3-0.1-1.7l-0.25-2.15l0.4,1.4
	l4.4,9.25h4.25V173.3z"/>
<path fill="#FFFFFF" d="M336.5,10.95c-0.3,0.767-0.45,1.55-0.45,2.35c0,0.8,0.15,1.55,0.45,2.25c0.3,0.733,0.733,1.383,1.3,1.95
	c0.6,0.6,1.25,1.05,1.95,1.35c0.767,0.3,1.533,0.45,2.3,0.45c0.8,0,1.567-0.15,2.3-0.45s1.4-0.75,2-1.35c0.567-0.567,1-1.2,1.3-1.9
	s0.45-1.467,0.45-2.3c0-0.8-0.15-1.583-0.45-2.35c-0.3-0.733-0.733-1.383-1.3-1.95c-0.533-0.533-1.183-0.967-1.95-1.3
	c-0.733-0.3-1.517-0.45-2.35-0.45c-0.833,0-1.6,0.15-2.3,0.45c-0.733,0.3-1.367,0.733-1.9,1.3
	C337.283,9.533,336.833,10.183,336.5,10.95 M337.25,13.3c0-0.6,0.133-1.217,0.4-1.85c0.233-0.533,0.583-1.067,1.05-1.6
	c0.467-0.467,0.967-0.8,1.5-1c0.567-0.233,1.183-0.35,1.85-0.35c0.667,0,1.283,0.117,1.85,0.35c0.6,0.267,1.117,0.617,1.55,1.05
	c0.467,0.467,0.817,0.983,1.05,1.55s0.35,1.183,0.35,1.85c0,0.7-0.117,1.3-0.35,1.8c-0.267,0.633-0.617,1.15-1.05,1.55
	c-0.467,0.467-0.983,0.817-1.55,1.05c-0.567,0.233-1.183,0.35-1.85,0.35c-0.7,0-1.3-0.117-1.8-0.35
	c-0.533-0.233-1.067-0.583-1.6-1.05c-0.467-0.467-0.8-0.983-1-1.55C337.383,14.467,337.25,13.867,337.25,13.3 M339.45,9.9v6.5h2.05
	v-2.5h0.2l1.15,2.5h2.25l-1.45-2.85c0.433-0.133,0.767-0.35,1-0.65c0.233-0.333,0.35-0.7,0.35-1.1c0-0.6-0.25-1.083-0.75-1.45
	c-0.5-0.3-1.217-0.45-2.15-0.45H339.45 M341.5,11.15h0.3c0.4,0,0.667,0.067,0.8,0.2c0.167,0.1,0.25,0.283,0.25,0.55
	c0,0.267-0.067,0.467-0.2,0.6c-0.167,0.133-0.4,0.2-0.7,0.2h-0.45V11.15 M224.9,10c-0.467-0.3-0.95-0.45-1.45-0.45
	c-1.567,0.133-2.617,0.717-3.15,1.75c-0.233,0.533-0.267,1.433-0.1,2.7c0.2,1.233,0.167,2.117-0.1,2.65c-0.3,0.7-1,1.367-2.1,2
	c-1.133,0.667-1.85,1.333-2.15,2c-0.233,0.467-0.267,1.333-0.1,2.6c0.167,1.3,0.167,2.183,0,2.65c-0.267,0.8-0.717,1.717-1.35,2.75
	c-0.9,1.5-1.417,2.383-1.55,2.65c-0.2,0.4-0.467,1.083-0.8,2.05c-0.333,0.933-0.617,1.617-0.85,2.05
	c-0.033,0.067-0.35,0.533-0.95,1.4c-0.367,0.533-0.583,1.017-0.65,1.45c-0.067,0.367,0.017,0.95,0.25,1.75
	c0.2,0.733,0.233,1.317,0.1,1.75c-0.133,0.5-0.583,1.133-1.35,1.9c-0.933,0.9-1.65,2.283-2.15,4.15c-0.267,1-0.417,2.55-0.45,4.65
	c-0.033,2.167-0.167,3.717-0.4,4.65c-0.1,0.433-0.533,0.883-1.3,1.35c-0.8,0.5-1.25,0.95-1.35,1.35c-0.2,0.6-0.217,1.533-0.05,2.8
	c0.2,1.267,0.217,2.183,0.05,2.75s-0.65,1.367-1.45,2.4c-0.8,1-1.283,1.783-1.45,2.35c-0.733,2.667-0.817,5.6-0.25,8.8
	c0.067,0.3,0.4,0.517,1,0.65c0.633,0.133,0.967,0.367,1,0.7c0.067,0.267-0.217,0.45-0.85,0.55c-0.7,0.133-1.083,0.317-1.15,0.55
	c-0.2,0.633-0.233,1.6-0.1,2.9c0.1,1.333,0.067,2.3-0.1,2.9c-0.133,0.467-0.433,0.9-0.9,1.3c-0.4,0.333-0.65,0.767-0.75,1.3
	c-0.167,0.767-0.067,2.2,0.3,4.3c0.033,0.8-0.017,1.8-0.15,3c-0.2,1.367-0.3,2.35-0.3,2.95c0,0.1,0.1,0.65,0.3,1.65
	c0.133,0.733,0.1,1.25-0.1,1.55c-0.267,0.433-0.933,0.883-2,1.35c-1.033,0.433-1.7,0.883-2,1.35c-0.267,0.433-0.35,1.233-0.25,2.4
	c0.1,1.233,0.033,2.067-0.2,2.5c-0.267,0.533-1,1.133-2.2,1.8c-1,0.567-1.533,1.217-1.6,1.95c-0.1,1.333-0.033,2.467,0.2,3.4
	c0.333,1.233,0.95,1.867,1.85,1.9c0.733,0.033,1.583-0.167,2.55-0.6c0.533-0.233,1.333-0.633,2.4-1.2
	c3.233-1.6,5.683-2.583,7.35-2.95c0.9-0.2,2.133-0.2,3.7,0c1.833,0.2,3.083,0.283,3.75,0.25c1.067,0,1.833-0.133,2.3-0.4
	c0.6-0.333,1.017-0.667,1.25-1c0.267-0.333,0.483-0.85,0.65-1.55c0.2-0.767-0.283-1.533-1.45-2.3c-1.467-0.967-2.317-1.7-2.55-2.2
	c-0.333-0.7-0.383-1.667-0.15-2.9c0.233-1.5,0.317-2.5,0.25-3c0-0.233-0.15-0.55-0.45-0.95c-0.267-0.4-0.4-0.717-0.4-0.95
	c0-0.367,0.15-0.75,0.45-1.15c0.3-0.4,0.583-0.533,0.85-0.4c3.6,1.767,5.883,2.9,6.85,3.4c2.667,1.433,4.733,2.75,6.2,3.95
	c0.833,0.667,1.4,1.3,1.7,1.9c0.333,0.633,0.483,1.467,0.45,2.5c0,1.5-0.317,3.017-0.95,4.55c-0.267,0.667-0.7,1.783-1.3,3.35
	c-0.567,1.4-1.117,2.45-1.65,3.15c-1.533,2.133-2.383,3.333-2.55,3.6c-0.8,1.367-1.25,2.717-1.35,4.05
	c-0.1,1.2,0.683,2.45,2.35,3.75c2.067,1.6,3.283,2.75,3.65,3.45c0.3,0.6,0.417,1.65,0.35,3.15c-0.067,1.7-0.033,2.8,0.1,3.3
	c0.233,0.967,0.783,2.517,1.65,4.65c0.7,1.8,1.15,3.367,1.35,4.7c0.167,1.067,0.183,2.467,0.05,4.2c-0.133,1.767-0.133,3.167,0,4.2
	c0.033,0.3,0.383,0.433,1.05,0.4c0.567-0.033,1.067-0.15,1.5-0.35c0.333-0.133,0.667-0.267,1-0.4c0.2-0.133,0.367-0.417,0.5-0.85
	c0.2-0.633,0.267-1.567,0.2-2.8c-0.1-1.3-0.083-2.233,0.05-2.8c0.067-0.233,0.283-0.533,0.65-0.9c0.367-0.333,0.583-0.633,0.65-0.9
	c0.133-0.433,0.167-1.133,0.1-2.1c-0.1-0.933-0.083-1.633,0.05-2.1c0.133-0.6,0.717-2.067,1.75-4.4c0.533-1.067,0.9-1.833,1.1-2.3
	c0.367-0.833,0.567-1.65,0.6-2.45c0.033-0.467-0.033-1.483-0.2-3.05c-0.1-1.133-0.033-2.05,0.2-2.75c0.1-0.267,0.45-0.633,1.05-1.1
	c0.633-0.467,1-0.833,1.1-1.1c0.233-0.467,0.417-1.117,0.55-1.95c0.133-0.9,0.25-1.583,0.35-2.05c0.233-1,0.567-2.05,1-3.15
	c0.533-1.267,0.95-2.317,1.25-3.15c0.067-0.167,0.283-0.433,0.65-0.8c0.3-0.333,0.45-0.617,0.45-0.85
	c0.233-4.533,0.317-10.55,0.25-18.05c-0.167-5.3-0.283-9.283-0.35-11.95c0-0.367-0.167-1.1-0.5-2.2c-0.333-1.2-0.533-2.033-0.6-2.5
	c-0.4-3.2-0.617-5.617-0.65-7.25c0-0.3,0.05-1.65,0.15-4.05c0.067-1.6,0-2.933-0.2-4c-0.1-0.567-0.5-1.4-1.2-2.5
	c-0.7-1.133-1.117-1.967-1.25-2.5c-0.1-0.433-0.017-1.133,0.25-2.1c0.267-0.967,0.333-1.683,0.2-2.15
	c-0.067-0.233-0.3-0.45-0.7-0.65c-0.367-0.2-0.6-0.433-0.7-0.7c-0.967-2.633-1.55-4.383-1.75-5.25
	c-0.467-3.467-0.917-6.017-1.35-7.65c-0.3-1-0.8-2.367-1.5-4.1c-0.767-1.933-1.283-3.3-1.55-4.1c-0.3-0.867-0.6-1.983-0.9-3.35
	l-0.75-3.4c-0.1-0.467-0.133-1.4-0.1-2.8c0.067-1.267-0.017-2.183-0.25-2.75c-0.4-1.033-1.167-2.333-2.3-3.9
	c-1.167-1.633-1.95-2.95-2.35-3.95c-0.267-0.6-0.417-1.517-0.45-2.75c-0.033-1.3-0.15-2.233-0.35-2.8
	C225.733,10.667,225.4,10.3,224.9,10 M228.6,65.65c0.133,0.7,0.2,1.817,0.2,3.35c0,1.6,0.05,2.733,0.15,3.4
	c0.033,0.167,0.233,0.3,0.6,0.4c0.4,0.067,0.6,0.183,0.6,0.35c0.167,4.133,0.233,7.683,0.2,10.65c0,3.633-0.083,6.767-0.25,9.4
	c-0.033,0.433-0.467,0.683-1.3,0.75c-0.8,0.067-1.383-0.033-1.75-0.3c-0.767-0.667-1.333-1.15-1.7-1.45
	c-0.667-0.533-1.35-0.883-2.05-1.05c-0.233-0.067-0.45-0.3-0.65-0.7c-0.233-0.467-0.45-0.733-0.65-0.8
	c-1.167-0.4-2.783-0.6-4.85-0.6c-1.6,0.233-2.733,0.317-3.4,0.25c-0.067-0.033-0.083-0.117-0.05-0.25
	c0.033-0.233,0.05-0.367,0.05-0.4c-0.067-2.6-0.083-4.533-0.05-5.8c0-2.3,0.05-4.017,0.15-5.15c0.033-0.4,0.233-0.917,0.6-1.55
	c0.4-0.667,0.617-1.183,0.65-1.55c0.067-0.567-0.033-1.55-0.3-2.95c-0.233-1.3-0.267-2.267-0.1-2.9
	c0.067-0.267,0.45-0.383,1.15-0.35c0.733,0.033,1.167-0.05,1.3-0.25c0.1-0.133,0.4-0.917,0.9-2.35c0.1-0.2,0.267-0.467,0.5-0.8
	c0.233-0.3,0.35-0.483,0.35-0.55c0-2.067,0.067-3.633,0.2-4.7c0.2-1.467,0.383-2.2,0.55-2.2c0.033,0,0.133,0.2,0.3,0.6
	c0.2,0.5,0.417,0.9,0.65,1.2c0.267,0.333,0.55,0.8,0.85,1.4c0.333,0.7,0.583,1.183,0.75,1.45c0.633,0.867,1.1,1.367,1.4,1.5
	c0.267,0.1,0.683,0.133,1.25,0.1c0.567-0.033,0.983,0,1.25,0.1c0.2,0.1,0.417,0.333,0.65,0.7c0.233,0.433,0.433,0.7,0.6,0.8
	c0.1,0.067,0.333,0.083,0.7,0.05C228.383,65.417,228.567,65.483,228.6,65.65 M87.9,19.7c-0.233-0.633-0.583-1.2-1.05-1.7
	c-0.6-0.533-1.083-0.983-1.45-1.35c-1.133-1.533-2.033-2.533-2.7-3c-0.267-0.167-0.75-0.217-1.45-0.15c-0.733,0.1-1.217,0.1-1.45,0
	c-0.367-0.167-0.767-0.6-1.2-1.3c-0.433-0.633-0.867-1-1.3-1.1c-1-0.2-2.433-0.183-4.3,0.05c-1.967,0.267-3.4,0.333-4.3,0.2
	c-0.233-0.033-0.45-0.283-0.65-0.75c-0.2-0.5-0.4-0.8-0.6-0.9c-0.933-0.533-1.733-0.533-2.4,0c-0.433,0.333-0.767,0.833-1,1.5
	c-0.2,0.667-0.183,1.233,0.05,1.7c0.367,0.6,0.9,1.183,1.6,1.75c0.4,0.333,0.983,0.8,1.75,1.4c0.3,0.267,0.817,0.833,1.55,1.7
	c0.633,0.767,1.2,1.367,1.7,1.8c0.167,0.133,0.55,0.233,1.15,0.3c0.567,0.033,0.917,0.15,1.05,0.35c0.233,0.3,0.417,0.7,0.55,1.2
	c0.133,0.6,0.25,1.017,0.35,1.25c0.067,0.133,0.3,0.383,0.7,0.75c0.333,0.333,0.533,0.583,0.6,0.75c0.4,1.767,0.4,3.417,0,4.95
	c-0.1,0.333-0.35,0.717-0.75,1.15c-0.433,0.467-0.7,0.833-0.8,1.1c-0.4,0.9-0.483,1.567-0.25,2c0.1,0.233,0.367,0.467,0.8,0.7
	c0.4,0.2,0.633,0.433,0.7,0.7c0.233,0.967,0.333,2.2,0.3,3.7c-0.033,2.333-0.05,3.567-0.05,3.7c0,0.533-0.55,1.067-1.65,1.6
	c-1.1,0.533-1.667,1.05-1.7,1.55c-0.033,1.333,0.05,3.767,0.25,7.3c0.033,1.033,0.3,1.683,0.8,1.95c0.5,0.233,0.75,0.367,0.75,0.4
	c0.167,2.133,0.2,5.283,0.1,9.45c-0.133,4.167-0.117,7.317,0.05,9.45c0.033,0.2,0.25,0.383,0.65,0.55
	c0.467,0.2,0.733,0.383,0.8,0.55c0.433,0.933,0.467,2.133,0.1,3.6c-0.067,0.233-0.333,0.45-0.8,0.65c-0.4,0.2-0.617,0.433-0.65,0.7
	c-0.167,1.433-0.117,3.65,0.15,6.65c0.233,2.9,0.25,5.1,0.05,6.6c-0.033,0.267-0.3,0.45-0.8,0.55c-0.533,0.133-0.85,0.317-0.95,0.55
	c-0.233,0.433-0.3,0.867-0.2,1.3c0.033,0.267,0.117,0.733,0.25,1.4c0,0.233-0.017,0.767-0.05,1.6
	c-0.067,0.767-0.083,1.283-0.05,1.55c0.233,1.367,0.233,2.35,0,2.95c-0.033,0.133-0.267,0.283-0.7,0.45
	c-0.4,0.133-0.617,0.283-0.65,0.45c-0.133,1.8-0.167,4.467-0.1,8c0,0.833-0.017,2.117-0.05,3.85c-0.033,1.533,0.05,2.817,0.25,3.85
	c0.067,0.5,0.5,0.933,1.3,1.3c0.967,0.433,1.55,0.817,1.75,1.15c0.433,0.633,0.433,1.317,0,2.05c-0.1,0.2-0.417,0.383-0.95,0.55
	c-0.5,0.133-0.783,0.317-0.85,0.55c-0.133,0.533-0.133,1.233,0,2.1c0.133,0.9,0.15,1.6,0.05,2.1c-0.067,0.167-0.333,0.417-0.8,0.75
	c-0.4,0.267-0.633,0.7-0.7,1.3c-0.233,2.1-0.2,4.533,0.1,7.3c0.133,1.067,0.333,1.583,0.6,1.55c0.533-0.033,0.867,0.033,1,0.2
	c0.333,0.433,0.333,0.95,0,1.55c-0.1,0.2-0.383,0.383-0.85,0.55c-0.433,0.167-0.683,0.367-0.75,0.6c-0.133,0.5-0.15,1.567-0.05,3.2
	c0.1,1.3-0.067,2.283-0.5,2.95c-0.667,1.033-2.033,2.083-4.1,3.15c-2.133,1.1-3.533,2.117-4.2,3.05
	c-0.267,0.333-0.167,0.833,0.3,1.5c0.467,0.667,0.933,1.067,1.4,1.2c0.3,0.1,0.8,0.067,1.5-0.1c0.8-0.2,1.3-0.3,1.5-0.3
	c0.3,0,1.7,0.083,4.2,0.25c1.7,0.133,3.05,0.017,4.05-0.35c1.167-0.4,2.3-1.3,3.4-2.7c1.167-1.467,2.267-2.45,3.3-2.95
	c0.833-0.367,1.983-0.55,3.45-0.55c1.333,0.033,2.5,0.2,3.5,0.5c0.2,0.067,0.7,0.3,1.5,0.7c0.567,0.3,1.267,0.483,2.1,0.55
	c3,0.167,7.783,0.183,14.35,0.05c6.167-0.133,10.967-0.083,14.4,0.15c0.333,0.033,0.667,0.367,1,1c0.367,0.633,0.7,0.967,1,1
	c1.433,0.2,3.517,0.217,6.25,0.05c2.833-0.167,4.917-0.167,6.25,0c0.567,0.067,1.383,0.383,2.45,0.95c1.167,0.633,1.967,1,2.4,1.1
	c0.3,0.067,0.833,0,1.6-0.2c0.667-0.167,1.183-0.183,1.55-0.05c0.267,0.1,0.55,0.517,0.85,1.25c0.267,0.633,0.583,0.967,0.95,1
	c1.833,0.067,4.2,0.067,7.1,0c3.4-0.067,5.667-0.1,6.8-0.1c1.1,0,1.683-0.217,1.75-0.65c0.067-0.3-0.15-0.917-0.65-1.85
	c-0.1-0.167-0.433-0.617-1-1.35c-0.433-0.533-0.683-1.017-0.75-1.45c-0.267-1.333-0.167-4.467,0.3-9.4c0.3-3.7-0.067-5.567-1.1-5.6
	c-2-0.233-5.067-0.333-9.2-0.3c-4.8,0.1-8.283,0.15-10.45,0.15c-4.5-0.1-7.85-0.15-10.05-0.15c-3.867-0.033-7.2,0.133-10,0.5
	c-0.567,0.1-1.25,0.467-2.05,1.1c-0.833,0.667-1.483,1.067-1.95,1.2c-2.4,0.633-5.133,0.667-8.2,0.1
	c-0.467-0.067-1.383-0.383-2.75-0.95c-1.1-0.433-2.033-0.617-2.8-0.55c-0.567,0.067-1.233,0.517-2,1.35c-0.8,0.9-1.467,1.417-2,1.55
	c-3.4,0.867-6.517,0.917-9.35,0.15c-0.3-0.1-0.383-0.483-0.25-1.15c0.133-0.8,0.15-1.317,0.05-1.55c-0.1-0.167-0.4-0.267-0.9-0.3
	c-0.467-0.067-0.7-0.2-0.7-0.4c0.033-0.333,0.333-0.733,0.9-1.2c0.567-0.5,0.867-0.917,0.9-1.25c0.167-0.9,0.167-2.25,0-4.05
	c-0.133-1.833-0.133-3.183,0-4.05c0.033-0.167,0.267-0.317,0.7-0.45c0.433-0.1,0.65-0.25,0.65-0.45c0.067-0.6-0.017-1.5-0.25-2.7
	c-0.233-1.2-0.3-2.1-0.2-2.7c0.067-0.2,0.317-0.383,0.75-0.55c0.467-0.2,0.75-0.383,0.85-0.55c0.4-0.767,0.467-1.65,0.2-2.65
	c-0.067-0.233-0.233-0.4-0.5-0.5c-0.333-0.133-0.55-0.3-0.65-0.5c-0.167-0.3-0.2-0.717-0.1-1.25c0.067-0.467,0.217-0.867,0.45-1.2
	c0.133-0.167,0.617-0.567,1.45-1.2c0.7-0.5,1.033-0.95,1-1.35c-0.133-1.233-0.217-2.117-0.25-2.65c-0.1-0.9-0.117-1.8-0.05-2.7
	c0.033-0.267-0.217-0.65-0.75-1.15c-0.567-0.533-0.867-0.933-0.9-1.2c-0.067-0.533-0.1-1.217-0.1-2.05c0-1.233,0-1.933,0-2.1
	c-0.067-0.667-0.1-1.167-0.1-1.5c-0.033-0.567,0.067-1.05,0.3-1.45c0.667-1.233,1.017-2.383,1.05-3.45c0.3-5.333,0.5-9.333,0.6-12
	c0.133-4.633,0.017-8.65-0.35-12.05c-0.033-0.467-0.45-1.017-1.25-1.65s-1.233-1.2-1.3-1.7c-0.7-7.067-0.767-15.533-0.2-25.4
	c0-0.233,0.217-0.383,0.65-0.45c0.5-0.1,0.767-0.25,0.8-0.45c0.433-1.933,0.35-3.767-0.25-5.5c-0.1-0.267-0.367-0.45-0.8-0.55
	c-0.467-0.133-0.75-0.3-0.85-0.5c-0.6-1.033-0.75-2.067-0.45-3.1c0.067-0.2,0.3-0.35,0.7-0.45c0.433-0.1,0.65-0.25,0.65-0.45
	c0.067-0.7,0.067-1.583,0-2.65c-0.067-1.433-0.1-2.317-0.1-2.65c0.067-1.333,0.1-2.317,0.1-2.95C88.35,21.517,88.2,20.533,87.9,19.7
	 M211.55,13.05c-0.067-1-1-1.567-2.8-1.7c-3.2-0.067-7.15-0.083-11.85-0.05c-5.267,0.1-9.217,0.15-11.85,0.15L170.4,11.5
	c-1.4,0-2.183,0.05-2.35,0.15c-0.4,0.167-0.617,0.8-0.65,1.9c-0.033,1.3,0.05,4.717,0.25,10.25c0.167,4.3,0.117,7.8-0.15,10.5
	c0,0.233-0.25,0.417-0.75,0.55c-0.533,0.133-0.817,0.3-0.85,0.5c-0.133,0.467-0.117,1.083,0.05,1.85c0.233,1,0.35,1.617,0.35,1.85
	c0,0.233-0.05,1.017-0.15,2.35c-0.067,0.967-0.017,1.75,0.15,2.35c0.2,0.7,0.75,1.05,1.65,1.05c0.333,0,0.633-0.117,0.9-0.35
	c0.133-0.133,0.367-0.367,0.7-0.7c0.233-0.2,0.983-0.583,2.25-1.15c0.967-0.467,1.567-0.967,1.8-1.5c0.5-1.2,0.817-3,0.95-5.4
	c0.133-2.567,0.383-4.4,0.75-5.5c0.4-1.467,0.717-2.5,0.95-3.1c0.4-1,1.017-1.817,1.85-2.45c0.667-0.5,1.517-0.8,2.55-0.9
	c0.667-0.1,1.667-0.117,3-0.05c0.3,0.133,0.617,0.533,0.95,1.2c0.3,0.667,0.617,1.05,0.95,1.15c0.533,0.2,1.65,0.1,3.35-0.3
	c1.433-0.367,2.383-0.25,2.85,0.35c-0.067,0.267-0.183,1.283-0.35,3.05c-0.167,1.433-0.4,2.55-0.7,3.35
	c-0.3,0.767-0.883,1.733-1.75,2.9c-1,1.333-1.65,2.267-1.95,2.8c-1.133,2.2-1.9,3.733-2.3,4.6c-0.7,1.567-1.267,3.167-1.7,4.8
	c-0.167,0.633-0.25,1.75-0.25,3.35c0.033,1.6-0.05,2.7-0.25,3.3c-0.2,0.633-0.767,1.45-1.7,2.45c-1,1-1.6,1.817-1.8,2.45
	c-0.167,0.533-0.167,1.383,0,2.55c0.2,1.167,0.2,2.033,0,2.6c-0.133,0.367-0.5,0.75-1.1,1.15c-0.6,0.4-0.933,0.817-1,1.25
	c-0.067,0.4,0.083,0.85,0.45,1.35c0.5,0.733,0.783,1.183,0.85,1.35c0.2,0.633,0.133,1.45-0.2,2.45c-0.3,0.867-0.683,1.583-1.15,2.15
	c-0.5,0.633-0.917,1.35-1.25,2.15c-1.4,3.533-2.35,5.983-2.85,7.35c-1.133,3.167-1.817,5.667-2.05,7.5
	c-0.633,5.1-0.533,10.767,0.3,17c0.067,0.5,0.35,1.183,0.85,2.05s0.783,1.55,0.85,2.05c0.367,1.933,0.367,4.383,0,7.35
	c0,0.2-0.1,0.45-0.3,0.75c-0.2,0.267-0.317,0.5-0.35,0.7c-0.1,0.7-0.117,1.833-0.05,3.4c0.067,1.467,0.017,2.583-0.15,3.35
	c-0.067,0.167-0.3,0.167-0.7,0c-0.467-0.133-0.717-0.133-0.75,0c-0.133,0.467-0.1,1.233,0.1,2.3c0.167,1.033,0.133,1.783-0.1,2.25
	c-0.167,0.367-0.55,0.65-1.15,0.85c-0.7,0.267-1.15,0.533-1.35,0.8c-0.267,0.267-0.417,0.633-0.45,1.1
	c-0.067,0.433,0,0.817,0.2,1.15c0.1,0.167,0.25,0.2,0.45,0.1c0.2-0.067,0.333-0.017,0.4,0.15c0.3,0.733,0.1,1.617-0.6,2.65
	c-0.1,0.167-0.4,0.25-0.9,0.25c-0.467,0-0.717,0.117-0.75,0.35c-0.2,2.567-0.3,3.883-0.3,3.95c-0.067,1.633,0.05,3.183,0.35,4.65
	c0.633,1.067,2.333,1.267,5.1,0.6c0.367-0.1,0.933-0.367,1.7-0.8c0.667-0.4,1.217-0.633,1.65-0.7c1.067-0.167,2.867-0.233,5.4-0.2
	c2.4,0,4.2-0.117,5.4-0.35c0.667-0.133,1.333-0.517,2-1.15c0.7-0.667,1.35-1.067,1.95-1.2c0.867-0.2,1.867-0.267,3-0.2
	c1.2,0.067,2.167,0.25,2.9,0.55c0.2,0.067,0.35,0.333,0.45,0.8c0.067,0.4,0.2,0.6,0.4,0.6c0.567,0,3.45-0.067,8.65-0.2
	c3.433-0.1,6.317-0.1,8.65,0c0.833-0.1,1.317-0.717,1.45-1.85c0.4-3.433,0.4-7.617,0-12.55c-0.033-0.267-0.167-0.6-0.4-1
	c-0.3-0.467-0.483-0.817-0.55-1.05c-0.333-1.267-0.333-2.283,0-3.05c0.067-0.167,0.3-0.233,0.7-0.2c0.4,0,0.65-0.067,0.75-0.2
	c0.2-0.3,0.267-0.683,0.2-1.15c-0.033-0.2-0.15-0.617-0.35-1.25c-0.1-0.633-0.2-1.1-0.3-1.4c-0.167-0.533-0.433-0.85-0.8-0.95
	c-0.8-0.2-1.883-0.217-3.25-0.05c-1.467,0.167-2.55,0.183-3.25,0.05c-0.233-0.033-0.483-0.317-0.75-0.85
	c-0.233-0.467-0.467-0.65-0.7-0.55c-0.367,0.133-0.733,0.533-1.1,1.2c-0.367,0.767-0.683,1.25-0.95,1.45c-0.7,0.567-1.7,1.167-3,1.8
	c-1.467,0.667-2.533,1.167-3.2,1.5c-0.133,0.067-1.85,0.8-5.15,2.2c-2.033,0.867-3.65,1.767-4.85,2.7
	c-0.333,0.233-0.45,0.883-0.35,1.95c0.067,0.967-0.1,1.55-0.5,1.75c-1.7,0.8-4.433,0.933-8.2,0.4c-0.667-0.767-0.617-1.9,0.15-3.4
	c1-2,1.533-3.3,1.6-3.9c0.267-0.733,0.95-2.067,2.05-4c0.933-1.7,1.533-3.083,1.8-4.15c0.267-1.033,0.35-2.617,0.25-4.75
	c-0.1-2.267-0.067-3.867,0.1-4.8c0.133-0.767,0.617-1.867,1.45-3.3c0.833-1.4,1.317-2.5,1.45-3.3c0.267-1.633,0.25-4.3-0.05-8
	c-0.267-3.5-0.2-6.167,0.2-8c0.133-0.667,0.7-1.4,1.7-2.2c1.1-0.867,1.767-1.567,2-2.1c0.2-0.5,0.217-1.25,0.05-2.25
	c-0.167-1.033-0.183-1.783-0.05-2.25c0.1-0.333,0.4-0.75,0.9-1.25c0.533-0.5,0.85-0.917,0.95-1.25c0.3-0.833,0.617-1.983,0.95-3.45
	c0.433-1.8,0.733-2.967,0.9-3.5c0.1-0.267,0.367-0.7,0.8-1.3c0.4-0.533,0.617-0.983,0.65-1.35c0.133-1.433,0.117-3.767-0.05-7
	c-0.167-3-0.15-5.317,0.05-6.95c0.1-0.6,0.4-1.367,0.9-2.3c0.567-1,0.917-1.75,1.05-2.25c0.233-0.933,0.417-2.483,0.55-4.65
	c0.067-2,0.283-3.517,0.65-4.55c0.1-0.3,0.517-0.517,1.25-0.65s1.15-0.333,1.25-0.6c0.233-0.567,0.267-1.483,0.1-2.75
	c-0.133-1.267-0.1-2.2,0.1-2.8c0.167-0.4,0.717-0.833,1.65-1.3c0.967-0.5,1.517-0.95,1.65-1.35c0.267-0.667,0.383-1.717,0.35-3.15
	c0-1.467,0.117-2.533,0.35-3.2c0.167-0.433,0.533-0.95,1.1-1.55c0.633-0.633,1.033-1.133,1.2-1.5c0.833-1.433,1.417-2.533,1.75-3.3
	C211.35,15.2,211.617,14.05,211.55,13.05 M286.1,7.15c-0.367,0.2-0.4,0.517-0.1,0.95c0.833,1.267,2.033,2.467,3.6,3.6
	c0.767,0.6,2.05,1.717,3.85,3.35c0.467,0.367,1.1,0.833,1.9,1.4c0.633,0.533,1.05,1.15,1.25,1.85c0.3,1,0.433,2.233,0.4,3.7
	c0,0.367-0.083,1.683-0.25,3.95c0,0.1-0.133,0.367-0.4,0.8c-0.267,0.4-0.4,0.667-0.4,0.8c-0.067,2.133,0.033,4.7,0.3,7.7
	c0.033,0.233-0.2,0.467-0.7,0.7c-0.467,0.233-0.717,0.467-0.75,0.7c-0.133,1.7-0.183,3.717-0.15,6.05
	c0.033,1.333,0.083,3.367,0.15,6.1c0.033,2.6,0.033,6.667,0,12.2c0.033,0.2,0.133,0.5,0.3,0.9c0.2,0.333,0.3,0.617,0.3,0.85
	c0,1.2,0.067,2.75,0.2,4.65c0,0.6-0.017,1.517-0.05,2.75c-0.033,1.167-0.017,2.15,0.05,2.95c0.033,0.233,0.167,0.483,0.4,0.75
	c0.2,0.3,0.317,0.55,0.35,0.75c0.067,1.1,0.083,2.933,0.05,5.5c-0.067,2.367-0.033,4.183,0.1,5.45c0.033,0.2,0.267,0.483,0.7,0.85
	c0.467,0.4,0.717,0.683,0.75,0.85c0.133,0.767,0.167,2.15,0.1,4.15c-0.033,1.8,0.083,3.167,0.35,4.1c0.167,0.6,0.5,1.35,1,2.25
	c0.3,0.5,0.75,1.267,1.35,2.3c0.333,0.633,0.8,1.467,1.4,2.5c0.433,0.867,0.667,1.683,0.7,2.45c0.1,1.367,0.033,2.717-0.2,4.05
	c-0.3,1.8-0.467,3.15-0.5,4.05c-0.033,1.167-0.283,3.333-0.75,6.5c-0.433,2.767-0.617,4.967-0.55,6.6
	c0.033,0.7,0.317,1.567,0.85,2.6c0.333,0.6,0.8,1.417,1.4,2.45c0.133,0.267,0.3,0.833,0.5,1.7c0.233,0.9,0.45,1.55,0.65,1.95
	c0.167,0.3,0.483,0.617,0.95,0.95c0.333,0.233,0.45,0.5,0.35,0.8c-0.3,0.733-0.867,1.267-1.7,1.6c-0.2,0.1-0.95,0.35-2.25,0.75
	c-0.767,0.267-1.167,0.55-1.2,0.85c-0.133,0.533-0.05,1.083,0.25,1.65c0.167,0.333,0.467,0.9,0.9,1.7c0.6,1.4,0.783,2.833,0.55,4.3
	c-0.067,0.433-0.233,0.967-0.5,1.6c-0.3,0.7-0.467,1.133-0.5,1.3c-0.167,0.8-0.45,1.517-0.85,2.15c-0.267,0.367-0.7,0.85-1.3,1.45
	c-0.467,0.367-0.783,0.633-0.95,0.8c-0.3,0.333-0.383,0.75-0.25,1.25c0.133,0.4,0.4,0.6,0.8,0.6c0.233,0,0.683-0.033,1.35-0.1
	c1,0.033,2.733-0.183,5.2-0.65c0.267-0.067,0.483-0.217,0.65-0.45c0.167-0.3,0.367-0.5,0.6-0.6c1.2-0.5,2.317-0.5,3.35,0
	c0.433,0.2,0.783,0.517,1.05,0.95c0.2,0.167,0.467,0.25,0.8,0.25c0.3,0,0.567-0.083,0.8-0.25c0.2-0.133,0.35-0.3,0.45-0.5
	c0.067-0.133,0.25-0.283,0.55-0.45c0.5-0.267,1.233-0.45,2.2-0.55c1.167-0.133,1.917-0.25,2.25-0.35c0.8-0.2,1.933-0.467,3.4-0.8
	c1.233-0.333,2.267-0.783,3.1-1.35c1.1-0.7,2.117-1.583,3.05-2.65c1-1.133,1.717-2.25,2.15-3.35c0.567-1.5,1-3.4,1.3-5.7
	c0.1-0.733,0.267-2.55,0.5-5.45c0.033-0.2,0.2-0.5,0.5-0.9c0.333-0.433,0.5-0.75,0.5-0.95c0.1-1,0.15-2.717,0.15-5.15
	c0-2.2,0.083-3.9,0.25-5.1c0.067-0.4,0.3-0.917,0.7-1.55c0.433-0.633,0.667-1.167,0.7-1.6c0.2-1.5,0.267-3.217,0.2-5.15
	c-0.1-2.233-0.183-3.95-0.25-5.15c-0.267-5.233-0.333-9.933-0.2-14.1c0.1-0.433,0.233-1.867,0.4-4.3c0.167-1.8,0.45-3.183,0.85-4.15
	c0.133-0.333,0.467-0.7,1-1.1c0.6-0.4,0.983-0.733,1.15-1c1-1.7,1.533-3.05,1.6-4.05c0.067-0.867,0-2.317-0.2-4.35
	c-0.167-1.867-0.183-3.317-0.05-4.35c0.1-0.567,0.433-1.25,1-2.05c0.567-0.8,0.883-1.483,0.95-2.05
	c0.567-4.733,0.55-9.833-0.05-15.3c-0.033-0.433-0.3-1.1-0.8-2c-0.5-0.9-0.783-1.583-0.85-2.05c-0.167-1.333-0.217-3.533-0.15-6.6
	c0.033-2.867-0.083-5.067-0.35-6.6c-0.1-0.6-0.417-1.333-0.95-2.2c-0.6-1-0.967-1.717-1.1-2.15c-0.167-0.4-0.45-1.4-0.85-3
	c-0.3-1.267-0.667-2.233-1.1-2.9c-0.3-0.5-0.867-1.067-1.7-1.7c-1.1-0.833-1.733-1.333-1.9-1.5c-1.5-1.5-2.583-2.317-3.25-2.45
	c-1.167-0.033-2.5-0.2-4-0.5c-0.333-0.067-0.733-0.317-1.2-0.75c-0.533-0.433-0.933-0.7-1.2-0.8l-5.6-1.55
	c-0.4-0.1-0.933-0.05-1.6,0.15c-0.667,0.2-1.217,0.25-1.65,0.15l-5.35-1.55c-0.533-0.233-1.1-0.667-1.7-1.3
	c-0.667-0.7-1.217-1.167-1.65-1.4c-0.667-0.367-1.65-0.883-2.95-1.55c-1.5-0.767-2.467-1.217-2.9-1.35
	c-0.4-0.133-0.917-0.167-1.55-0.1c-0.667,0.067-1.2,0.017-1.6-0.15c-0.133-0.033-0.45-0.25-0.95-0.65c-0.467-0.3-0.8-0.467-1-0.5
	c-1.733-0.267-3.367-0.383-4.9-0.35C286.9,6.983,286.367,7.05,286.1,7.15 M308.35,44c-0.033-1.633,0.25-2.533,0.85-2.7
	c0.433-0.1,1.617-0.083,3.55,0.05c1.267-0.067,2.083-0.083,2.45-0.05c0.567,0.067,1.317,0.35,2.25,0.85s1.667,1.033,2.2,1.6
	c0.333,0.367,0.85,1.117,1.55,2.25l1.95,1.9c1.2,1.133,2.233,2.617,3.1,4.45c0.567,1.2,1.2,2.9,1.9,5.1
	c0.067,1.233,0.167,3.517,0.3,6.85c0,2.967-0.4,5.167-1.2,6.6c-0.767,1.433-1.233,2.883-1.4,4.35c-0.167,1.533-0.533,2.717-1.1,3.55
	c-0.833,1.267-1.367,2.2-1.6,2.8c-0.133,0.4-0.233,1.65-0.3,3.75l-0.3,20.65c-0.033,2.033-0.267,3.833-0.7,5.4
	c-0.3,1.133-0.95,2.85-1.95,5.15c-0.6,1.1-1,1.967-1.2,2.6c-0.267,0.833-0.4,1.767-0.4,2.8c0,1.2-0.133,2.267-0.4,3.2
	c-0.167,0.567-0.55,1.567-1.15,3l-1.9,4.35c-0.733,1.7-1.383,2.4-1.95,2.1c-0.533-0.2-0.8-1.183-0.8-2.95l0.4-52.05
	c-0.067-1.1-0.133-1.783-0.2-2.05c-0.133-0.5-0.5-1.067-1.1-1.7c-0.033-1.267-0.183-2.45-0.45-3.55c-0.133-0.4-0.5-1.533-1.1-3.4
	c-0.533-0.967-0.867-1.967-1-3c-0.033-0.367-0.067-1.45-0.1-3.25L308.35,44 M123.5,13.45c-0.5,0.567-0.75,1.383-0.75,2.45
	c0.1,2.267,0.1,5.967,0,11.1c0.033,0.267,0.3,0.433,0.8,0.5c0.567,0.1,0.883,0.267,0.95,0.5c0.633,1.667,0.833,3.75,0.6,6.25
	c0,0.2-0.15,0.567-0.45,1.1c-0.267,0.533-0.4,0.917-0.4,1.15l1.05,6.2c0.1,0.3,0.317,0.7,0.65,1.2c0.333,0.533,0.533,0.933,0.6,1.2
	c0.033,0.2,0,0.867-0.1,2c-0.1,0.8,0.05,1.217,0.45,1.25c0.133,0,0.467,0.033,1,0.1c0.567,0.033,0.983,0,1.25-0.1
	c0.3-0.1,0.367-0.467,0.2-1.1c-0.2-0.767-0.267-1.267-0.2-1.5c0.067-0.2,0.317-0.4,0.75-0.6c0.4-0.2,0.617-0.417,0.65-0.65
	c0.2-1.1,0.233-2.85,0.1-5.25s-0.117-4.15,0.05-5.25c0.167-1.2,0.7-2.067,1.6-2.6c0.233-0.167,0.7-0.15,1.4,0.05
	c0.633,0.2,1.05,0.183,1.25-0.05c0.267-0.367,0.367-0.883,0.3-1.55c-0.033-0.767,0.017-1.317,0.15-1.65
	c0.667-1.667,1.667-3.083,3-4.25c1-0.867,1.617-1.383,1.85-1.55c0.733-0.533,1.45-0.833,2.15-0.9c1.3-0.133,3.233-0.2,5.8-0.2
	c3.233,0.033,5.483,0.017,6.75-0.05c0.3-0.033,0.5,0.333,0.6,1.1c0.067,0.733,0.15,1.933,0.25,3.6c0.067,1.433-0.017,2.45-0.25,3.05
	c-0.633,1.6-2.167,3.8-4.6,6.6c-2.067,2.333-3.283,3.75-3.65,4.25c-0.433,0.667-0.5,1.683-0.2,3.05c0.3,1.567,0.367,2.65,0.2,3.25
	c-0.267,0.9-0.8,1.95-1.6,3.15c-0.3,0.467-1,1.433-2.1,2.9c-0.367,0.467-1,1.083-1.9,1.85c-0.867,0.7-1.483,1.3-1.85,1.8
	c-0.933,1.333-1.883,3.267-2.85,5.8c-0.6,1.633-1.067,3.45-1.4,5.45c-0.067,0.367-0.05,1.117,0.05,2.25
	c0.067,0.933-0.017,1.65-0.25,2.15c-0.167,0.367-0.517,0.667-1.05,0.9c-0.633,0.233-1.05,0.467-1.25,0.7
	c-0.8,0.967-1.467,2.317-2,4.05c-0.167,0.567-0.367,1.3-0.6,2.2c-0.233,0.733-0.517,1.417-0.85,2.05c-0.3,0.567-0.933,1.433-1.9,2.6
	c-0.967,1.133-1.6,2-1.9,2.6c-0.367,0.8-0.683,1.85-0.95,3.15c-0.133,0.767-0.333,1.867-0.6,3.3l-1.25,6.05
	c-0.7,3.267-1.033,5.817-1,7.65c0,0.3,0.15,0.65,0.45,1.05c0.467,0.567,0.717,0.883,0.75,0.95c0.1,0.2,0.3,0.5,0.6,0.9
	c0.2,0.367,0.267,0.683,0.2,0.95c-0.1,0.267-0.45,0.567-1.05,0.9c-0.6,0.3-0.917,0.6-0.95,0.9c-0.167,0.933,0.083,1.733,0.75,2.4
	c0.2,0.167,0.6,0.317,1.2,0.45c0.533,0.133,0.883,0.317,1.05,0.55c0.433,0.733,0.433,1.617,0,2.65c-0.1,0.2-0.383,0.4-0.85,0.6
	c-0.4,0.167-0.633,0.367-0.7,0.6c-0.2,1-0.283,2.317-0.25,3.95c0.067,1.667,0.017,2.967-0.15,3.9c-0.033,0.233-0.333,0.483-0.9,0.75
	c-0.533,0.233-0.767,0.467-0.7,0.7c0.133,0.9,0.233,1.45,0.3,1.65c0.2,0.6,0.5,0.933,0.9,1c0.9,0.1,2.517,0.033,4.85-0.2
	c2.233-0.233,3.85-0.25,4.85-0.05c0.4,0.067,0.767,0.467,1.1,1.2c0.4,0.767,0.767,1.233,1.1,1.4h3.2c0.3-0.167,0.533-0.567,0.7-1.2
	c0.2-0.667,0.433-1.067,0.7-1.2c1.133-0.7,2.283-0.833,3.45-0.4c0.2,0.067,0.267,0.383,0.2,0.95c-0.067,0.533,0,0.817,0.2,0.85
	c1.5-0.067,3.9-0.05,7.2,0.05c3,0.1,5.35,0.083,7.05-0.05c0.333-0.067,0.483-0.367,0.45-0.9c-0.033-0.6,0.067-1,0.3-1.2
	c0.267-0.167,0.9-0.2,1.9-0.1c0.833,0.067,1.283-0.1,1.35-0.5c0.267-1.967,0.317-4.867,0.15-8.7c-0.2-4.067-0.217-6.983-0.05-8.75
	c0.067-0.633,0.417-1.4,1.05-2.3c0.7-1,1.1-1.783,1.2-2.35c0.033-0.167,0.2-0.35,0.5-0.55c0.267-0.2,0.4-0.4,0.4-0.6
	c0.233-2.433,0.117-4.583-0.35-6.45c-0.333-0.333-0.9-0.567-1.7-0.7s-1.367-0.117-1.7,0.05c-0.3,0.2-0.433,0.733-0.4,1.6
	c0,0.933-0.067,1.517-0.2,1.75c-0.1,0.133-0.333,0.133-0.7,0c-0.4-0.1-0.633-0.1-0.7,0c-0.1,0.167-0.117,0.417-0.05,0.75
	c0.033,0.167,0.1,0.433,0.2,0.8c0.1,0.333,0.05,0.567-0.15,0.7c-0.433,0.2-1.2,0.167-2.3-0.1c-1.033-0.233-1.75-0.2-2.15,0.1
	c-0.4,0.3-0.567,0.9-0.5,1.8c0.1,0.9-0.017,1.533-0.35,1.9c-0.5,0.567-1.567,1.317-3.2,2.25c-1.633,0.9-2.717,1.65-3.25,2.25
	c-0.567,0.633-1.183,1.667-1.85,3.1c-0.567,1.3-1.233,2.267-2,2.9c-0.633,0.533-1.667,1-3.1,1.4c-2,0.533-3.15,0.867-3.45,1
	c-0.7,0.3-1.667,0.9-2.9,1.8c-1.133,0.833-2.133,1.367-3,1.6c-0.333,0.1-0.683-0.083-1.05-0.55c-0.333-0.467-0.45-0.883-0.35-1.25
	c0.7-2.3,1.717-5.267,3.05-8.9c1.7-4.767,2.75-7.717,3.15-8.85c1.233-4.1,2.3-7.4,3.2-9.9c2.033-5.533,3.883-9.55,5.55-12.05
	c0.167-0.2,0.567-0.35,1.2-0.45c0.6-0.1,0.95-0.283,1.05-0.55c0.2-0.667,0.2-1.667,0-3c-0.167-1.4-0.167-2.417,0-3.05
	c0.333-1.233,1.383-2.45,3.15-3.65c0.233-0.133,0.717-0.2,1.45-0.2c0.6,0.033,0.967-0.133,1.1-0.5c0.333-0.8,0.483-1.917,0.45-3.35
	c-0.033-1.633,0.033-2.783,0.2-3.45c0.133-0.567,0.433-1.217,0.9-1.95c0.667-1,1.067-1.65,1.2-1.95c0.267-0.567,0.55-1.467,0.85-2.7
	c0.267-1.133,0.583-2.033,0.95-2.7c0.067-0.1,0.6-0.967,1.6-2.6c0.733-1.133,1.183-2.033,1.35-2.7c0.267-0.867,0.383-1.8,0.35-2.8
	c-0.033-1.5-0.033-2.467,0-2.9c0.033-0.2,0.2-0.467,0.5-0.8c0.333-0.3,0.5-0.567,0.5-0.8c0.267-6.667,0.417-10.45,0.45-11.35
	c0.1-4.333,0.05-8.133-0.15-11.4c0-0.2-0.25-0.4-0.75-0.6c-0.467-0.2-0.7-0.4-0.7-0.6c0.233-2.9,0.3-5.05,0.2-6.45
	c0.033-0.267,0.05-0.433,0.05-0.5c-0.033-0.167-0.133-0.25-0.3-0.25c-3.7-0.167-9.983-0.183-18.85-0.05
	c-0.867,0-3.45-0.033-7.75-0.1c-3.167-0.067-5.75-0.033-7.75,0.1C124.617,12.767,123.933,13.017,123.5,13.45 M63.4,32.05
	c-0.433-4.033-0.667-6.217-0.7-6.55c-0.133-1.567-0.6-3.017-1.4-4.35c-0.533-0.933-1.5-2.133-2.9-3.6
	c-0.567-0.6-1.533-1.05-2.9-1.35c-1.733-0.433-2.8-0.75-3.2-0.95s-0.95-0.833-1.65-1.9c-0.633-0.967-1.217-1.483-1.75-1.55
	c-3.967-0.4-8.75-0.5-14.35-0.3c-6.4,0.333-11.183,0.567-14.35,0.7c-0.467,0.033-1,0.183-1.6,0.45c-0.733,0.3-1.267,0.483-1.6,0.55
	c-0.533,0.1-1.9,0.083-4.1-0.05c-1.867-0.1-3.183,0.033-3.95,0.4c-0.633,0.3-1.133,1-1.5,2.1c-0.367,1.1-0.4,1.967-0.1,2.6
	c0.6,1.333,1.683,2.667,3.25,4c0.9,0.733,2.267,1.85,4.1,3.35c0.133,0.133,0.5,0.15,1.1,0.05c0.567-0.067,0.9,0,1,0.2
	c0.433,0.9,0.433,1.95,0,3.15c-0.067,0.267-0.367,0.567-0.9,0.9c-0.5,0.3-0.767,0.583-0.8,0.85c0.1,3.933,0.1,8.583,0,13.95
	c-0.033,3.1-0.133,7.733-0.3,13.9c-0.033,1.467,0.183,2.3,0.65,2.5c0.7,0.3,1.133,0.65,1.3,1.05c0.433,1.033,0.433,2.317,0,3.85
	c-0.667,2.133-1,3.233-1,3.3c-0.167,0.767-0.217,1.95-0.15,3.55c0.033,0.8,0.033,2.267,0,4.4c0.067,1.8,0.3,2.933,0.7,3.4
	c0.3,0.467,0.4,1.083,0.3,1.85c-0.067,0.4-0.15,0.95-0.25,1.65c0,1.067-0.067,1.833-0.2,2.3c-0.1,0.233-0.383,0.75-0.85,1.55
	c0,0.933-0.083,5.717-0.25,14.35c-0.1,8.767-0.017,14.533,0.25,17.3c0.567,2.1,0.8,5.917,0.7,11.45
	c-0.1,5.267-0.45,10.433-1.05,15.5c-0.4,0.767-0.683,1.95-0.85,3.55c-0.133,1.467-0.367,2.4-0.7,2.8
	c-0.533,0.633-1.367,1.217-2.5,1.75c-0.167,0.1-0.633,0.2-1.4,0.3c-0.633,0.133-1.05,0.267-1.25,0.4c-0.5,0.4-0.583,0.85-0.25,1.35
	c0.367,0.533,1.15,0.917,2.35,1.15c1.633,0.333,4.167,0.433,7.6,0.3c3.867-0.167,6.217-0.217,7.05-0.15
	c1.167,0.1,1.917,0.2,2.25,0.3c0.3-0.367,0.95-0.967,1.95-1.8c0.233-0.233,0.583-0.35,1.05-0.35c0.4,0,0.733,0.117,1,0.35
	c0.233,0.2,0.483,0.583,0.75,1.15c0.2,0.4,0.517,0.633,0.95,0.7c0.567,0.067,1.067-0.083,1.5-0.45c0.667-0.567,1.167-0.917,1.5-1.05
	c0.367-0.133,1.283-0.217,2.75-0.25c1.2-0.033,2.033-0.25,2.5-0.65c0.367-0.033,1.117-0.6,2.25-1.7c1.567-1.5,2.833-2.617,3.8-3.35
	c2.733-2.033,5.467-3.483,8.2-4.35c0.633-0.733,1.1-2.2,1.4-4.4c0.433-2.867,0.75-4.633,0.95-5.3c0.367-1.067,1.25-2.717,2.65-4.95
	c1.267-2,2.05-3.667,2.35-5c0.3-1.3,0.35-3.167,0.15-5.6c-0.2-2.733-0.25-4.617-0.15-5.65c0.067-0.433,0.417-1.017,1.05-1.75
	c0.633-0.7,0.967-1.283,1-1.75c-0.067-4.933-0.117-8.667-0.15-11.2c0-5.5-0.067-9-0.2-10.5c-0.067-0.5-0.55-1.017-1.45-1.55
	c-0.9-0.533-1.4-1.067-1.5-1.6c-0.267-1.567-0.2-4.033,0.2-7.4c0.4-3.267,0.433-5.733,0.1-7.4c-0.133-0.633-0.783-1.267-1.95-1.9
	c-1.233-0.7-1.933-1.35-2.1-1.95c-0.167-0.633-0.05-1.65,0.35-3.05c0.367-1.3,0.35-2.267-0.05-2.9c-0.333-0.6-1.567-0.983-3.7-1.15
	c-1.833-0.167-2.65-0.617-2.45-1.35c0.233-0.8,0.8-1.75,1.7-2.85c1.4-1.667,2.15-2.583,2.25-2.75c2.667-3.9,4.6-7.017,5.8-9.35
	c1.333-2.6,2.017-5.1,2.05-7.5C63.783,36.5,63.667,34.583,63.4,32.05 M46.2,81.55c-0.3,1.133-0.183,2.4,0.35,3.8
	c0.567,1.467,0.733,2.733,0.5,3.8c-0.2,0.867-0.5,1.95-0.9,3.25c-0.267,1-0.367,1.817-0.3,2.45c0.1,0.933,0.617,1.967,1.55,3.1
	c0.6,0.7,0.917,1.067,0.95,1.1c0.1,0.267,0.017,0.7-0.25,1.3c-0.267,0.7-0.65,1.567-1.15,2.6c-0.333,0.8-0.517,1.45-0.55,1.95
	c-0.033,0.6,0.117,1.317,0.45,2.15c0.533,1.367,0.9,2.367,1.1,3c0.3,1.167,0.45,2.2,0.45,3.1c-0.033,0.9-0.2,1.933-0.5,3.1
	l-2.05,8.3l-0.4,6.3c-0.1,1.467-0.333,2.5-0.7,3.1c-0.2,0.333-0.933,1.15-2.2,2.45c-0.733,0.767-1.833,1.75-3.3,2.95
	c-1.633,1.3-2.717,2.217-3.25,2.75c-0.7,0.267-1.683,0.55-2.95,0.85c-1.267,0.3-2.267,0.583-3,0.85l2.35-4.55l-0.65-15.1l2-2.8
	V106.1c0-0.767-0.05-1.917-0.15-3.45c-0.1-1.533-0.15-2.683-0.15-3.45c-1.067-0.867-1.5-1.533-1.3-2c0.7-0.7,1.367-1.433,2-2.2
	c0-0.767,0.083-1.817,0.25-3.15c0.167-1.333,0.25-2.367,0.25-3.1L34,83.1l1-2.8c0-0.933,0.067-2.25,0.2-3.95
	c0.1-1.7,0.15-3.017,0.15-3.95c0-1.4,0.033-2.317,0.1-2.75c0.067-0.5,0.217-0.717,0.45-0.65c0.3,0.133,1.3,1.117,3,2.95l3.7,3.6
	c0.767,0.733,1.767,1.567,3,2.5C46.367,78.883,46.567,80.05,46.2,81.55 M46.05,29.5c1.267-0.133,1.9,0.15,1.9,0.85
	c0,0.567-0.35,1.183-1.05,1.85c-0.533,0.5-0.733,1.017-0.6,1.55c0.067,0.3,0.333,0.717,0.8,1.25c0.367,0.4,0.533,1.017,0.5,1.85
	c-0.033,0.8-0.233,1.383-0.6,1.75c-0.267,0.3-0.317,1.067-0.15,2.3c0.1,0.7,0.317,1.933,0.65,3.7c0.133,1.133,0.05,1.95-0.25,2.45
	c-0.133,0.267-0.3,0.417-0.5,0.45c-0.7,0.2-1.75,0.4-3.15,0.6c-0.933,0.133-2.183,1.667-3.75,4.6c-0.7,1.4-1.233,2.183-1.6,2.35
	c-0.2,0.067-0.55,0.1-1.05,0.1c-0.733-0.033-1.383-0.067-1.95-0.1L35,39.35c0.167-5.867,0.233-9.35,0.2-10.45
	c-0.033-0.7,0.25-1.183,0.85-1.45c0.067-0.033,0.733-0.167,2-0.4c0.533,0.033,1.517,0.067,2.95,0.1c1.2,0.067,1.867,0.283,2,0.65
	c0.267,0.7,0.467,1.117,0.6,1.25C44.033,29.483,44.85,29.633,46.05,29.5 M116.4,13.9l-1.3-0.5c-4.667,0.067-8.067,0.067-10.2,0
	c-0.967,0-2.3-0.067-4-0.2c-1.7-0.1-3-0.167-3.9-0.2l-3.65,0.2c-1.333,0.4-2.05,0.967-2.15,1.7c-0.067,0.6,0.25,1.167,0.95,1.7
	c0.467,0.3,1.133,0.733,2,1.3c0.733,0.4,1.45,0.6,2.15,0.6c2.133,0.067,3.517,0.933,4.15,2.6l0.5,23.2c0.033,3.8,0.133,9.5,0.3,17.1
	l0.4,37.15c-0.233,1.667-0.533,2.7-0.9,3.1c-0.2,0.233-0.317,1.233-0.35,3c0,0.9,0.017,1.767,0.05,2.6c0.9,0.767,1.333,1.3,1.3,1.6
	c0,0.133-0.383,0.817-1.15,2.05l-0.35,14.9l-1.35,2.7l-2.5,1.75c-1.667,1.4-2.5,2.617-2.5,3.65l0.55,1.4
	c0.533,0.833,1.167,1.017,1.9,0.55c0.133-0.1,0.817-0.733,2.05-1.9c0.7-0.667,1.4-1,2.1-1c0.567,0,2.333-0.167,5.3-0.5
	c2.867-0.233,4.65-0.067,5.35,0.5c0.7,0.533,1.267,0.733,1.7,0.6c0.233-0.1,0.583-0.25,1.05-0.45c0.567,0,1.7,0.15,3.4,0.45
	c1.033-0.1,1.533-0.783,1.5-2.05c-0.033-1.233-0.483-2.133-1.35-2.7c-0.767-0.6-2.05-1.383-3.85-2.35c-1.8-1-3.083-1.8-3.85-2.4
	l-0.7-5.2l1.9-2.7v-8.7l-1.05-2.35l-0.35-6.55l-0.85-1.15v-2.5c0.2-0.3,0.6-0.717,1.2-1.25c0.567-0.567,0.95-0.983,1.15-1.25
	c0.067-0.533,0-1.267-0.2-2.2c-0.2-0.9-0.283-1.633-0.25-2.2c-0.133-0.7-0.267-1.8-0.4-3.3c-0.167-1.533-0.317-2.65-0.45-3.35v-7.5
	c1.267-0.4,2-1.067,2.2-2c0.067-0.367,0.017-0.933-0.15-1.7c-0.4-1.633-0.617-2.533-0.65-2.7c-0.233-16.367-0.433-28.55-0.6-36.55
	c0.133-0.2,0.583-0.783,1.35-1.75c0.433-0.6,0.667-1.1,0.7-1.5c0-0.367-0.2-0.767-0.6-1.2c-0.167-0.2-0.633-0.633-1.4-1.3v-2.5
	l1.15-1.9c0.9-1.3,1.667-1.95,2.3-1.95c0.733,0,1.367-0.233,1.9-0.7c0.467-0.467,0.7-1,0.7-1.6
	C117.25,15.3,117.167,14.433,116.4,13.9 M276.95,14.5c-0.767-0.367-1.767-0.55-3-0.55c-1.433,0.033-2.467-0.05-3.1-0.25
	c-0.733-0.2-1.95-0.683-3.65-1.45c-1.5-0.667-2.733-1.1-3.7-1.3c-0.667-0.133-1.7-0.133-3.1,0c-1.4,0.133-2.45,0.117-3.15-0.05
	c-0.433-0.1-0.9-0.433-1.4-1c-0.5-0.533-0.967-0.833-1.4-0.9c-0.333-0.067-0.783,0.117-1.35,0.55c-0.633,0.433-1.083,0.65-1.35,0.65
	c-1.933,0.167-4.867,0.167-8.8,0c-3.667-0.167-6.6-0.117-8.8,0.15c-0.467,0.067-0.667,0.3-0.6,0.7c0.033,0.367,0.267,0.7,0.7,1
	c0.433,0.3,1.117,0.483,2.05,0.55c1.067,0.1,1.783,0.233,2.15,0.4c2.1,0.9,4.017,2.3,5.75,4.2c0.567,0.633,1.133,1.45,1.7,2.45
	c0.333,0.6,0.867,1.633,1.6,3.1c0.2,0.4,0.65,0.367,1.35-0.1c0.967-0.6,1.55-0.917,1.75-0.95c0.8-0.1,1.4-0.117,1.8-0.05
	c0.567,0.1,1.05,0.4,1.45,0.9c0.333,0.433,0.25,0.983-0.25,1.65c-0.233,0.3-0.75,0.8-1.55,1.5c-1.4,1.3-2.983,2.533-4.75,3.7
	c-0.9,0.533-1.6,0.95-2.1,1.25c-0.933,0.567-1.567,1.15-1.9,1.75c-0.767,1.4-0.9,3.167-0.4,5.3c0.267,1.233,0.767,3.1,1.5,5.6
	l0.85,4.1c0.367,1.7,0.633,3.8,0.8,6.3c0.2,3.167,0.367,5.267,0.5,6.3c0.067,0.467,0.3,1.167,0.7,2.1c0.4,0.9,0.633,1.6,0.7,2.1
	c0.067,0.533,0.083,1.333,0.05,2.4c-0.033,0.933,0,1.717,0.1,2.35c0.067,0.467,0.367,1.2,0.9,2.2c1.033,3.867,1.617,7.367,1.75,10.5
	c0.1,3.2,0.117,8.567,0.05,16.1c-0.067,6.833,0,12.183,0.2,16.05c0.033,0.367,0.3,0.767,0.8,1.2c0.533,0.467,0.833,0.85,0.9,1.15
	c0.133,0.633,0.05,1.417-0.25,2.35c-0.167,0.533-0.467,1.3-0.9,2.3c-0.433,1.233-1.5,3.9-3.2,8c-1.233,2.967-2.083,5.417-2.55,7.35
	c-0.233,0.967-0.033,1.783,0.6,2.45c0.3,0.333,1.117,0.933,2.45,1.8c2.1,1.4,4.2,2.95,6.3,4.65c1.6,1.333,3.15,3.3,4.65,5.9
	c1,1.733,2.233,4.3,3.7,7.7c0.433-0.467,0.667-1.983,0.7-4.55c0.033-3.233,0.15-5.317,0.35-6.25c0.033-0.233,0.217-0.583,0.55-1.05
	c0.3-0.433,0.467-0.783,0.5-1.05c0.3-3.233,0.3-6.017,0-8.35c-0.067-0.367-0.283-0.833-0.65-1.4c-0.433-0.633-0.683-1.1-0.75-1.4
	c-0.167-0.667-0.167-1.483,0-2.45c0.067-0.267,0.25-0.717,0.55-1.35c0.3-0.567,0.467-1.033,0.5-1.4c0.3-3.6,0.3-6.5,0-8.7
	c-0.067-0.333-0.4-0.8-1-1.4c-0.533-0.533-0.783-1-0.75-1.4c0.033-0.3,0.383-0.583,1.05-0.85c0.667-0.3,1.017-0.6,1.05-0.9
	c0.067-1.033-0.033-2.317-0.3-3.85l-0.75-3.8c-0.767-7.767-1.35-13.583-1.75-17.45c-0.033-0.2-0.217-1.25-0.55-3.15
	c-0.233-1.267-0.283-2.3-0.15-3.1c1.9-4.967,2.95-7.65,3.15-8.05c0.2-0.267,0.483-0.217,0.85,0.15c0.033,0.033,0.317,0.433,0.85,1.2
	c1.333,1.667,2.233,2.85,2.7,3.55c0.933,1.5,1.517,2.833,1.75,4c0.2,1.133,0.1,2.733-0.3,4.8c-0.467,2.133-0.633,3.733-0.5,4.8
	c0.033,0.333,0.333,0.633,0.9,0.9c0.6,0.267,0.95,0.55,1.05,0.85c1.767,4.733,3.05,9.25,3.85,13.55c0.7,4.033,1.167,9.383,1.4,16.05
	c0.067,2.833-0.167,5.15-0.7,6.95c-0.333,1.1-0.983,2.583-1.95,4.45c-1,1.933-1.667,3.4-2,4.4c-0.567,1.767-0.767,2.867-0.6,3.3
	c0.167,0.6,1.05,0.9,2.65,0.9c1.9,0,3.233,0.183,4,0.55c1,0.5,2.117,1.517,3.35,3.05c1.333,1.667,2.417,2.75,3.25,3.25
	c0.967,0.633,1.667,1.05,2.1,1.25c1.767,1,2.967,1.25,3.6,0.75c0.467-0.367,0.917-1.483,1.35-3.35c0.4-1.733,0.783-3.85,1.15-6.35
	c0.5-3.8,0.783-5.883,0.85-6.25c0.133-0.9,0.217-2,0.25-3.3c0.033-1.467,0.067-2.583,0.1-3.35c0.233-4.733,0.3-7.867,0.2-9.4
	c-0.033-1.067-0.083-1.8-0.15-2.2c-0.133-0.8-0.417-1.45-0.85-1.95c-0.233-0.267-0.817-0.417-1.75-0.45
	c-0.833-0.033-1.3-0.233-1.4-0.6c-0.133-0.533,0.1-1.233,0.7-2.1c0.7-0.967,1.05-1.667,1.05-2.1c-0.733-4.9-1.133-8.817-1.2-11.75
	c-0.033-1.867-0.283-2.917-0.75-3.15c-1.2-0.633-1.833-0.983-1.9-1.05c-0.767-0.9-1.233-2.083-1.4-3.55
	c-0.1-1.233-0.15-3.45-0.15-6.65c0.033-2.867-0.067-5.067-0.3-6.6c-0.3-1.967-1.117-3.717-2.45-5.25
	c-0.133-0.167-0.417-0.217-0.85-0.15c-0.4,0.067-0.65,0-0.75-0.2c-0.167-0.333-0.067-0.8,0.3-1.4c0.333-0.567,0.383-1.017,0.15-1.35
	c-0.6-1-1.6-2.033-3-3.1c-0.6-0.467-1.817-1.3-3.65-2.5c-0.2-0.133-0.617-0.117-1.25,0.05c-0.567,0.167-0.95,0.15-1.15-0.05
	c-0.3-0.267-0.45-0.75-0.45-1.45c0-0.7,0.15-1.183,0.45-1.45c1.833-0.267,3.433-0.85,4.8-1.75c0.967-0.667,2.05-1.667,3.25-3
	c1.2-1.367,2.25-2.983,3.15-4.85c0.6-1.3,1.317-3.133,2.15-5.5c0.233-0.667,0.283-1.6,0.15-2.8c-0.133-1.467-0.183-2.433-0.15-2.9
	c0.067-0.567,0.467-2.233,1.2-5c0.5-1.967,0.633-3.617,0.4-4.95c-0.733-4.1-2.783-8.633-6.15-13.6
	C281.783,17.633,279.617,15.767,276.95,14.5 M261.1,27.6c0-1.3,0.117-2.05,0.35-2.25c0.267-0.2,1.1-0.15,2.5,0.15
	c0.8,0.167,1.483,0.5,2.05,1c0.567,0.433,1.2,1.15,1.9,2.15c0.5,0.733,1.8,2.1,3.9,4.1c2.6,2.833,3.9,5.033,3.9,6.6
	c0,0.8-0.1,2.1-0.3,3.9c-0.233,2-0.467,3.117-0.7,3.35c-0.5,0.467-0.767,1.167-0.8,2.1c-0.033,1.733-0.05,2.617-0.05,2.65
	c-0.1,0.6-0.383,1.283-0.85,2.05c-0.667,1.133-1.033,1.767-1.1,1.9c-0.067,0.133-0.217,0.767-0.45,1.9c-0.2,1-0.517,1.733-0.95,2.2
	c-2.2,2.267-4.05,3.4-5.55,3.4c-1.667,0-2.7-0.183-3.1-0.55c-0.367-0.3-0.6-1.1-0.7-2.4c-0.067-0.733-0.05-2.15,0.05-4.25
	c0.133-2.533,0.2-4.05,0.2-4.55c-0.167-4.1-0.25-7.133-0.25-9.1c0.133-3.467,0.2-6.117,0.2-7.95
	C261.183,31.1,261.1,28.967,261.1,27.6z"/>
</svg>
