<?xml version="1.0" encoding="iso-8859-1"?>
<!-- Generator: Adobe Illustrator 16.0.0, SVG Export Plug-In . SVG Version: 6.00 Build 0)  -->
<!DOCTYPE svg PUBLIC "-//W3C//DTD SVG 1.1//EN" "http://www.w3.org/Graphics/SVG/1.1/DTD/svg11.dtd">
<svg version="1.1" id="Layer_1" xmlns="http://www.w3.org/2000/svg" xmlns:xlink="http://www.w3.org/1999/xlink" x="0px" y="0px"
	 width="64.006px" height="63.983px" viewBox="0 0 64.006 63.983" style="enable-background:new 0 0 64.006 63.983;"
	 xml:space="preserve">
<g id="Bar_72_">
	<g>
		<path style="fill:#CCCCCC;" d="M60.307,0.003C60.303,0.003,60.3,0,60.296,0H3.711C3.707,0,3.703,0.003,3.699,0.003
			C1.655,0.009,0,1.612,0,3.593v6.39v50.292c0,2.048,1.661,3.709,3.711,3.709h56.585c2.049,0,3.71-1.661,3.71-3.709V9.982v-6.39
			C64.006,1.612,62.351,0.009,60.307,0.003z"/>
	</g>
</g>
<g id="Container_71_">
	<g>
		<path style="fill:#FFFFFF;" d="M58.006,11.993h-52h-2v4v11.999v30.001c0,1.104,0.896,2,2,2h52c1.104,0,2-0.896,2-2V27.992V13.993
			v-2H58.006z"/>
	</g>
</g>
<g id="Content">
	<g>
		<path style="fill-rule:evenodd;clip-rule:evenodd;fill:#48A0DC;" d="M52.006,17.993h-40c-1.104,0-2,0.895-2,2.001v5.998
			c0,1.105,0.896,2.001,2,2.001h40c1.104,0,2-0.896,2-2.001v-5.998C54.006,18.888,53.11,17.993,52.006,17.993z M16.006,31.992h-4
			c-1.104,0-2,0.896-2,2.001v8c0,1.104,0.896,2.001,2,2.001h4c1.104,0,2-0.896,2-2.001v-8C18.006,32.889,17.11,31.992,16.006,31.992
			z M52.006,31.992h-28c-1.104,0-2,0.896-2,2.001s0.896,2,2,2h28c1.104,0,2-0.896,2-2S53.11,31.992,52.006,31.992z M52.006,39.993
			h-28c-1.104,0-2,0.896-2,2s0.896,2.001,2,2.001h28c1.104,0,2-0.896,2-2.001S53.11,39.993,52.006,39.993z M52.006,47.993h-8
			c-1.104,0-2,0.896-2,2c0,1.105,0.896,2.001,2,2.001h8c1.104,0,2-0.896,2-2.001C54.006,48.889,53.11,47.993,52.006,47.993z"/>
	</g>
</g>
<g id="Btns_68_">
	<g>
		<path style="fill-rule:evenodd;clip-rule:evenodd;fill:#FFFFFF;" d="M46.006,3.993c-1.104,0-2,0.896-2,2.002
			c0,1.104,0.896,1.999,2,1.999s2-0.896,2-1.999C48.006,4.889,47.11,3.993,46.006,3.993z M52.006,3.993c-1.104,0-2,0.896-2,2.002
			c0,1.104,0.896,1.999,2,1.999s2-0.896,2-1.999C54.006,4.889,53.11,3.993,52.006,3.993z M58.006,3.993c-1.104,0-2,0.896-2,2.002
			c0,1.104,0.896,1.999,2,1.999s2-0.896,2-1.999C60.006,4.889,59.11,3.993,58.006,3.993z"/>
	</g>
</g>
<g id="Rounded_Rectangle_2">
	<g>
		<path style="fill:#FFFFFF;" d="M46.006,3.995h-40c-1.104,0-2,0.896-2,2s0.896,2,2,2h40c1.104,0,2-0.896,2-2
			S47.11,3.995,46.006,3.995z"/>
	</g>
</g>
<g>
</g>
<g>
</g>
<g>
</g>
<g>
</g>
<g>
</g>
<g>
</g>
<g>
</g>
<g>
</g>
<g>
</g>
<g>
</g>
<g>
</g>
<g>
</g>
<g>
</g>
<g>
</g>
<g>
</g>
</svg>
