<?xml version="1.0" encoding="iso-8859-1"?>
<!-- Generator: Adobe Illustrator 16.0.0, SVG Export Plug-In . SVG Version: 6.00 Build 0)  -->
<!DOCTYPE svg PUBLIC "-//W3C//DTD SVG 1.1//EN" "http://www.w3.org/Graphics/SVG/1.1/DTD/svg11.dtd">
<svg version="1.1" id="Layer_1" xmlns="http://www.w3.org/2000/svg" xmlns:xlink="http://www.w3.org/1999/xlink" x="0px" y="0px"
	 width="64.006px" height="63.983px" viewBox="0 0 64.006 63.983" style="enable-background:new 0 0 64.006 63.983;"
	 xml:space="preserve">
<g id="Bar_60_">
	<g>
		<path style="fill:#CCCCCC;" d="M60.307,0.001C60.303,0.001,60.3,0,60.296,0H3.71C3.706,0,3.703,0.001,3.699,0.001
			C1.655,0.008,0,1.612,0,3.594v6.389v50.291c0,2.048,1.661,3.71,3.71,3.71h56.586c2.049,0,3.71-1.662,3.71-3.71V9.982V3.594
			C64.006,1.612,62.351,0.008,60.307,0.001z"/>
	</g>
</g>
<g id="Container_59_">
	<g>
		<path style="fill:#FFFFFF;" d="M58.006,11.993h-52h-2v1.999v12.001v31.999c0,1.105,0.896,2.001,2,2.001h52
			c1.104,0,2-0.896,2-2.001V25.993V13.992v-1.999H58.006z"/>
	</g>
</g>
<g id="Voice">
	<g>
		<path style="fill-rule:evenodd;clip-rule:evenodd;fill:#9B7CAB;" d="M32.006,39.993c3.313,0,6-2.687,6-6v-5.999
			c0-3.315-2.687-6-6-6s-6,2.685-6,6v5.999C26.006,37.307,28.692,39.993,32.006,39.993z M30.006,27.994c0-1.105,0.896-2.001,2-2.001
			s2,0.896,2,2.001v5.999c0,1.105-0.896,2.001-2,2.001s-2-0.896-2-2.001V27.994z M40.006,33.993c0,4.419-3.582,8-8,8s-8-3.581-8-8
			h-4c0,5.944,4.327,10.867,10,11.821v2.179c0,1.105,0.896,2,2,2s2-0.895,2-2v-2.179c5.673-0.954,10-5.877,10-11.821H40.006z"/>
	</g>
</g>
<g id="Btns_56_">
	<g>
		<path style="fill-rule:evenodd;clip-rule:evenodd;fill:#FFFFFF;" d="M46.006,3.994c-0.003,0-0.006,0.001-0.01,0.001H6.006
			c-1.104,0-2,0.896-2,2s0.896,2,2,2h40c1.104,0,2-0.896,2-2C48.006,4.89,47.11,3.994,46.006,3.994z M52.006,3.994
			c-1.104,0-2,0.896-2,2.001c0,1.104,0.896,1.999,2,1.999s2-0.896,2-1.999C54.006,4.89,53.11,3.994,52.006,3.994z M58.006,3.994
			c-1.104,0-2,0.896-2,2.001c0,1.104,0.896,1.999,2,1.999s2-0.896,2-1.999C60.006,4.89,59.11,3.994,58.006,3.994z"/>
	</g>
</g>
<g>
</g>
<g>
</g>
<g>
</g>
<g>
</g>
<g>
</g>
<g>
</g>
<g>
</g>
<g>
</g>
<g>
</g>
<g>
</g>
<g>
</g>
<g>
</g>
<g>
</g>
<g>
</g>
<g>
</g>
</svg>
