<?xml version="1.0" encoding="iso-8859-1"?>
<!-- Generator: Adobe Illustrator 16.0.0, SVG Export Plug-In . SVG Version: 6.00 Build 0)  -->
<!DOCTYPE svg PUBLIC "-//W3C//DTD SVG 1.1//EN" "http://www.w3.org/Graphics/SVG/1.1/DTD/svg11.dtd">
<svg version="1.1" id="Layer_1" xmlns="http://www.w3.org/2000/svg" xmlns:xlink="http://www.w3.org/1999/xlink" x="0px" y="0px"
	 width="64.007px" height="63.983px" viewBox="0 0 64.007 63.983" style="enable-background:new 0 0 64.007 63.983;"
	 xml:space="preserve">
<g id="Bar_38_">
	<g>
		<path style="fill:#CCCCCC;" d="M60.307,0.002C60.303,0.002,60.3,0,60.296,0H3.71C3.706,0,3.703,0.002,3.699,0.002
			C1.655,0.009,0,1.613,0,3.594v6.39v50.291c0,2.048,1.661,3.709,3.71,3.709h56.586c2.05,0,3.711-1.661,3.711-3.709V9.983v-6.39
			C64.007,1.613,62.351,0.009,60.307,0.002z"/>
	</g>
</g>
<g id="Container_37_">
	<g>
		<path style="fill:#FFFFFF;" d="M58.006,11.994h-52h-2v2v12v31.999c0,1.104,0.896,2.001,2,2.001h52c1.104,0,2-0.896,2-2.001V25.994
			v-12v-2H58.006z"/>
	</g>
</g>
<g id="Synchronise">
	<g>
		<path style="fill-rule:evenodd;clip-rule:evenodd;fill:#88C057;" d="M44.006,37.994h-8c-1.104,0-2,0.896-2,2c0,1.104,0.896,2,2,2
			h3.984c-1.822,2.427-4.716,4.001-7.984,4.001c-4.839,0-8.873-3.437-9.799-8.001h-4.042c0.972,6.782,6.789,12,13.841,12
			c3.931,0,7.467-1.629,10-4.242v2.242c0,1.104,0.896,2,2,2s2-0.896,2-2v-8C46.006,38.891,45.11,37.994,44.006,37.994z
			 M20.006,33.994h8c1.104,0,2-0.896,2-2c0-1.104-0.896-2-2-2h-3.984c1.823-2.426,4.716-4,7.984-4c4.837,0,8.872,3.436,9.799,8
			h4.042c-0.974-6.782-6.79-12-13.841-12c-3.931,0-7.467,1.629-10,4.242v-2.242c0-1.104-0.896-2-2-2s-2,0.896-2,2v8
			C18.006,33.099,18.901,33.994,20.006,33.994z"/>
	</g>
</g>
<g id="Btns_34_">
	<g>
		<path style="fill-rule:evenodd;clip-rule:evenodd;fill:#FFFFFF;" d="M46.006,3.995c-0.003,0-0.007,0.001-0.01,0.001H6.006
			c-1.104,0-2,0.896-2,2s0.896,2,2,2h40c1.104,0,2-0.896,2-2C48.006,4.891,47.11,3.995,46.006,3.995z M52.006,3.995
			c-1.104,0-2,0.896-2,2.001c0,1.104,0.896,1.999,2,1.999s2-0.896,2-1.999C54.006,4.891,53.11,3.995,52.006,3.995z M58.006,3.995
			c-1.104,0-2,0.896-2,2.001c0,1.104,0.896,1.999,2,1.999s2-0.896,2-1.999C60.006,4.891,59.11,3.995,58.006,3.995z"/>
	</g>
</g>
<g>
</g>
<g>
</g>
<g>
</g>
<g>
</g>
<g>
</g>
<g>
</g>
<g>
</g>
<g>
</g>
<g>
</g>
<g>
</g>
<g>
</g>
<g>
</g>
<g>
</g>
<g>
</g>
<g>
</g>
</svg>
