<?xml version="1.0" encoding="iso-8859-1"?>
<!-- Generator: Adobe Illustrator 16.0.0, SVG Export Plug-In . SVG Version: 6.00 Build 0)  -->
<!DOCTYPE svg PUBLIC "-//W3C//DTD SVG 1.1//EN" "http://www.w3.org/Graphics/SVG/1.1/DTD/svg11.dtd">
<svg version="1.1" id="Layer_1" xmlns="http://www.w3.org/2000/svg" xmlns:xlink="http://www.w3.org/1999/xlink" x="0px" y="0px"
	 width="64.006px" height="63.984px" viewBox="0 0 64.006 63.984" style="enable-background:new 0 0 64.006 63.984;"
	 xml:space="preserve">
<g id="Bar_74_">
	<g>
		<path style="fill:#CCCCCC;" d="M60.307,0.003C60.303,0.003,60.3,0,60.296,0H3.71C3.706,0,3.703,0.003,3.699,0.003
			C1.655,0.009,0,1.613,0,3.594v6.39v50.291c0,2.048,1.661,3.71,3.71,3.71h56.586c2.05,0,3.71-1.662,3.71-3.71V9.983v-6.39
			C64.006,1.613,62.351,0.009,60.307,0.003z"/>
	</g>
</g>
<g id="Container_73_">
	<g>
		<path style="fill:#FFFFFF;" d="M58.006,11.993h-52h-2v2v12.001v31.999c0,1.105,0.896,2.001,2,2.001h52c1.104,0,2-0.896,2-2.001
			V25.994V13.993v-2H58.006z"/>
	</g>
</g>
<g id="Grid_1_">
	<g>
		<path style="fill-rule:evenodd;clip-rule:evenodd;fill:#48A0DC;" d="M20.006,21.993h-8c-1.104,0-2,0.896-2,2v7.999
			c0,1.106,0.896,2.002,2,2.002h8c1.104,0,2-0.896,2-2.002v-7.999C22.006,22.889,21.11,21.993,20.006,21.993z M20.006,31.992h-8
			v-7.999h8V31.992z M36.006,21.993h-8c-1.104,0-2,0.896-2,2v7.999c0,1.106,0.896,2.002,2,2.002h8c1.104,0,2-0.896,2-2.002v-7.999
			C38.006,22.889,37.11,21.993,36.006,21.993z M52.006,21.993h-8c-1.104,0-2,0.896-2,2v7.999c0,1.106,0.896,2.002,2,2.002h8
			c1.104,0,2-0.896,2-2.002v-7.999C54.006,22.889,53.11,21.993,52.006,21.993z M52.006,31.992h-8v-7.999h8V31.992z M20.006,37.993
			h-8c-1.104,0-2,0.896-2,2v8c0,1.105,0.896,2.001,2,2.001h8c1.104,0,2-0.896,2-2.001v-8C22.006,38.89,21.11,37.993,20.006,37.993z
			 M36.006,37.993h-8c-1.104,0-2,0.896-2,2v8c0,1.105,0.896,2.001,2,2.001h8c1.104,0,2-0.896,2-2.001v-8
			C38.006,38.89,37.11,37.993,36.006,37.993z M36.006,47.993h-8v-8h8V47.993z M52.006,37.993h-8c-1.104,0-2,0.896-2,2v8
			c0,1.105,0.896,2.001,2,2.001h8c1.104,0,2-0.896,2-2.001v-8C54.006,38.89,53.11,37.993,52.006,37.993z"/>
	</g>
</g>
<g id="Btns_70_">
	<g>
		<path style="fill-rule:evenodd;clip-rule:evenodd;fill:#FFFFFF;" d="M46.006,3.993c-0.007,0-0.013,0.002-0.02,0.002H6.006
			c-1.104,0-2,0.896-2,2s0.896,2,2,2h40c1.104,0,2-0.896,2-2C48.006,4.889,47.11,3.993,46.006,3.993z M52.006,3.993
			c-1.104,0-2,0.896-2,2.002c0,1.104,0.896,1.999,2,1.999s2-0.896,2-1.999C54.006,4.889,53.11,3.993,52.006,3.993z M58.006,3.993
			c-1.104,0-2,0.896-2,2.002c0,1.104,0.896,1.999,2,1.999s2-0.896,2-1.999C60.006,4.889,59.11,3.993,58.006,3.993z"/>
	</g>
</g>
<g>
</g>
<g>
</g>
<g>
</g>
<g>
</g>
<g>
</g>
<g>
</g>
<g>
</g>
<g>
</g>
<g>
</g>
<g>
</g>
<g>
</g>
<g>
</g>
<g>
</g>
<g>
</g>
<g>
</g>
</svg>
