<?xml version="1.0" encoding="utf-8"?>
<!-- Generator: Adobe Illustrator 22.1.0, SVG Export Plug-In . SVG Version: 6.00 Build 0)  -->
<svg version="1.1" id="Layer_1" xmlns="http://www.w3.org/2000/svg" xmlns:xlink="http://www.w3.org/1999/xlink" x="0px" y="0px"
	 viewBox="0 0 15 15" style="enable-background:new 0 0 15 15;" xml:space="preserve">
<style type="text/css">
	.st0{fill:#00A6ED;}
	.st1{fill:#FFFFFF;}
</style>
<g>
	<path class="st0" d="M2.9,6.1c-1.9,2-1.6,5.6,0.5,7.4c1.2,1,2.9,1.4,4.5,1.2s3.1-1,4.3-2c0.6-0.5,1.1-1,1.5-1.7
		c1.3-2.1,1.1-5-0.3-7c-1.7-2.6-4.9-4-7.9-3.3S0.3,4.2,0.4,7.3s2.9,5.8,5.9,5.8"/>
</g>
<g>
	<path class="st1" d="M7.1,9.5c0.1-0.1,0.1-0.3,0.2-0.3C8.1,7.6,9.1,6,10,4.4c0.1-0.1,0.1-0.2,0.2-0.3C10.3,4,10.5,3.9,10.8,4
		C11,4.2,11,4.4,11,4.6c0,0.1-0.1,0.1-0.1,0.2c-1.1,1.9-2.1,3.7-3.2,5.6c-0.2,0.3-0.5,0.4-0.8,0.1C6.2,9.9,5.5,9.3,4.8,8.6
		C4.6,8.3,4.6,8.1,4.7,7.9c0.2-0.2,0.4-0.3,0.7,0c0.4,0.4,0.9,0.8,1.4,1.3C6.9,9.3,7,9.3,7.1,9.5z"/>
	<path class="st1" d="M7.2,11.2c-0.2,0-0.5-0.1-0.7-0.3C5.8,10.3,5.1,9.7,4.4,9C4.2,8.7,4.1,8.4,4.1,8.2c0-0.3,0.1-0.5,0.3-0.7
		C4.6,7.4,4.8,7.2,5,7.2s0.5,0,0.8,0.3C6,7.7,6.2,7.9,6.5,8.1C6.6,8.3,6.8,8.5,7,8.6c0.4-0.7,0.8-1.4,1.2-2.1C8.6,5.7,9.1,5,9.5,4.2
		l0.1-0.1C9.7,4,9.7,3.9,9.8,3.8c0.5-0.5,0.9-0.4,1.2-0.2c0.4,0.3,0.6,0.7,0.5,1.1c0,0.2-0.1,0.3-0.2,0.4c-0.5,0.9-1,1.8-1.6,2.7
		c-0.5,0.9-1.1,1.9-1.6,2.8c-0.2,0.3-0.4,0.5-0.7,0.5C7.3,11.2,7.3,11.2,7.2,11.2z"/>
</g>
</svg>
