<?xml version="1.0" encoding="utf-8"?>
<!-- Generator: Adobe Illustrator 22.1.0, SVG Export Plug-In . SVG Version: 6.00 Build 0)  -->
<svg version="1.1" id="Layer_1" xmlns="http://www.w3.org/2000/svg" xmlns:xlink="http://www.w3.org/1999/xlink" x="0px" y="0px"
	 viewBox="0 0 205 183" style="enable-background:new 0 0 205 183;" xml:space="preserve">
<style type="text/css">
	.st0{fill-rule:evenodd;clip-rule:evenodd;fill:#FFFFFF;}
	.st1{fill-rule:evenodd;clip-rule:evenodd;fill:#CCCCCC;}
	.st2{fill-rule:evenodd;clip-rule:evenodd;fill:#FFB400;}
	.st3{fill-rule:evenodd;clip-rule:evenodd;fill:#00A6ED;}
	.st4{fill-rule:evenodd;clip-rule:evenodd;fill:#5BB702;}
	.st5{fill:#5BB702;}
	.st6{fill:#FFFFFF;}
</style>
<g>
	<g>
		<rect x="6.8" y="18" class="st0" width="91.4" height="91.4"/>
		<g>
			<g id="Days_3_">
				<g>
					<path class="st1" d="M95.9,45.5v57.9c0,1.7-1.4,3-3,3H13.6c-1.7,0-3-1.4-3-3V45.5H4.5v61c0,3.4,2.7,6.1,6.1,6.1h85.3
						c3.4,0,6.1-2.7,6.1-6.1v-61H95.9z M25.8,82c-1.7,0-3,1.4-3,3c0,1.7,1.4,3,3,3h6.1v6.1c0,1.7,1.4,3,3,3s3-1.4,3-3v-6.1h12.2v6.1
						c0,1.7,1.4,3,3,3c1.7,0,3-1.4,3-3v-6.1h12.2v6.1c0,1.7,1.4,3,3,3c1.7,0,3-1.4,3-3v-6.1h6.1c1.7,0,3-1.4,3-3c0-1.7-1.4-3-3-3
						h-6.1V69.9h6.1c1.7,0,3-1.4,3-3c0-1.7-1.4-3.1-3-3.1h-6.1v-6.1c0-1.7-1.4-3-3-3c-1.7,0-3,1.4-3,3v6.1H56.3v-6.1
						c0-1.7-1.4-3-3-3c-1.7,0-3,1.4-3,3v6.1H38v-6.1c0-1.7-1.4-3-3-3s-3,1.4-3,3v6.1h-6.1c-1.7,0-3,1.4-3,3.1c0,1.7,1.4,3,3,3h6.1
						V82H25.8z M56.3,69.9h12.2V82H56.3V69.9z M38,69.9h12.2V82H38V69.9z"/>
				</g>
			</g>
			<g id="Header_3_">
				<g>
					<path class="st2" d="M95.9,15H10.6c-3.4,0-6.1,2.7-6.1,6.1v24.4H102V21.1C102,17.7,99.3,15,95.9,15z M41.1,33.3
						c-1.7,0-3-1.4-3-3c0-1.7,1.4-3,3-3s3,1.4,3,3C44.1,31.9,42.8,33.3,41.1,33.3z M65.5,33.3c-1.7,0-3-1.4-3-3c0-1.7,1.4-3,3-3
						c1.7,0,3,1.4,3,3C68.5,31.9,67.1,33.3,65.5,33.3z"/>
				</g>
			</g>
		</g>
	</g>
	<g>
		<rect x="46.4" y="42.4" class="st0" width="91.4" height="91.4"/>
		<g>
			<g id="Days_11_">
				<g>
					<path class="st1" d="M135.6,69.9v57.9c0,1.7-1.4,3-3,3H53.3c-1.7,0-3-1.4-3-3V69.9h-6.1v61c0,3.4,2.7,6.1,6.1,6.1h85.3
						c3.4,0,6.1-2.7,6.1-6.1v-61H135.6z M65.5,106.4c-1.7,0-3,1.4-3,3c0,1.7,1.4,3,3,3h6.1v6.1c0,1.7,1.4,3,3,3s3-1.4,3-3v-6.1h12.2
						v6.1c0,1.7,1.4,3,3,3c1.7,0,3-1.4,3-3v-6.1h12.2v6.1c0,1.7,1.4,3,3,3s3-1.4,3-3v-6.1h6.1c1.7,0,3-1.4,3-3c0-1.7-1.4-3-3-3h-6.1
						V94.2h6.1c1.7,0,3-1.4,3-3c0-1.7-1.4-3.1-3-3.1h-6.1V82c0-1.7-1.4-3-3-3s-3,1.4-3,3v6.1H95.9V82c0-1.7-1.4-3-3-3
						c-1.7,0-3,1.4-3,3v6.1H77.6V82c0-1.7-1.4-3-3-3s-3,1.4-3,3v6.1h-6.1c-1.7,0-3,1.4-3,3.1c0,1.7,1.4,3,3,3h6.1v12.2H65.5z
						 M95.9,94.2h12.2v12.2H95.9V94.2z M77.6,94.2h12.2v12.2H77.6V94.2z"/>
				</g>
			</g>
			<g id="Header_11_">
				<g>
					<path class="st3" d="M135.6,39.4H50.2c-3.4,0-6.1,2.7-6.1,6.1v24.4h97.5V45.5C141.6,42.1,138.9,39.4,135.6,39.4z M80.7,57.7
						c-1.7,0-3-1.4-3-3c0-1.7,1.4-3,3-3c1.7,0,3,1.4,3,3C83.7,56.3,82.4,57.7,80.7,57.7z M105.1,57.7c-1.7,0-3-1.4-3-3
						c0-1.7,1.4-3,3-3s3,1.4,3,3C108.1,56.3,106.8,57.7,105.1,57.7z"/>
				</g>
			</g>
		</g>
	</g>
	<g>
		<rect x="86" y="66.8" class="st0" width="91.4" height="91.4"/>
		<g>
			<g id="Days_13_">
				<g>
					<path class="st1" d="M175.2,94.2v57.9c0,1.7-1.4,3-3,3H92.9c-1.7,0-3-1.4-3-3V94.2h-6.1v61c0,3.4,2.7,6.1,6.1,6.1h85.3
						c3.4,0,6.1-2.7,6.1-6.1v-61H175.2z M105.1,130.8c-1.7,0-3,1.4-3,3c0,1.7,1.4,3,3,3h6.1v6.1c0,1.7,1.4,3,3,3c1.7,0,3-1.4,3-3
						v-6.1h12.2v6.1c0,1.7,1.4,3,3,3s3-1.4,3-3v-6.1h12.2v6.1c0,1.7,1.4,3,3,3s3-1.4,3-3v-6.1h6.1c1.7,0,3-1.4,3-3c0-1.7-1.4-3-3-3
						h-6.1v-12.2h6.1c1.7,0,3-1.4,3-3c0-1.7-1.4-3.1-3-3.1h-6.1v-6.1c0-1.7-1.4-3-3-3s-3,1.4-3,3v6.1h-12.2v-6.1c0-1.7-1.4-3-3-3
						s-3,1.4-3,3v6.1h-12.2v-6.1c0-1.7-1.4-3-3-3c-1.7,0-3,1.4-3,3v6.1h-6.1c-1.7,0-3,1.4-3,3.1c0,1.7,1.4,3,3,3h6.1v12.2H105.1z
						 M135.6,118.6h12.2v12.2h-12.2V118.6z M117.3,118.6h12.2v12.2h-12.2V118.6z"/>
				</g>
			</g>
			<g id="Header_13_">
				<g>
					<path class="st4" d="M175.2,63.8H89.8c-3.4,0-6.1,2.7-6.1,6.1v24.4h97.5V69.9C181.3,66.5,178.5,63.8,175.2,63.8z M120.3,82
						c-1.7,0-3-1.4-3-3c0-1.7,1.4-3,3-3c1.7,0,3,1.4,3,3C123.4,80.7,122,82,120.3,82z M144.7,82c-1.7,0-3-1.4-3-3c0-1.7,1.4-3,3-3
						s3,1.4,3,3C147.7,80.7,146.4,82,144.7,82z"/>
				</g>
			</g>
		</g>
	</g>
</g>
<g>
	<circle class="st0" cx="177.3" cy="150.6" r="24.4"/>
	<g id="Elipse_2_">
		<g>
			
				<ellipse transform="matrix(0.9732 -0.2298 0.2298 0.9732 -29.8618 44.7687)" class="st5" cx="177.3" cy="150.6" rx="18.3" ry="18.3"/>
		</g>
	</g>
	<g id="Plus_3_">
		<g>
			<path class="st6" d="M183.4,147.6h-3v-3c0-1.7-1.4-3-3-3c-1.7,0-3,1.4-3,3v3h-3c-1.7,0-3,1.4-3,3c0,1.7,1.4,3,3,3h3v3
				c0,1.7,1.4,3,3,3c1.7,0,3-1.4,3-3v-3h3c1.7,0,3-1.4,3-3C186.5,148.9,185.1,147.6,183.4,147.6z"/>
		</g>
	</g>
</g>
</svg>
