<?xml version="1.0" encoding="utf-8"?>
<!-- Generator: Adobe Illustrator 22.1.0, SVG Export Plug-In . SVG Version: 6.00 Build 0)  -->
<svg version="1.1" id="Layer_1" xmlns="http://www.w3.org/2000/svg" xmlns:xlink="http://www.w3.org/1999/xlink" x="0px" y="0px"
	 viewBox="0 0 523.6 420" style="enable-background:new 0 0 523.6 420;" xml:space="preserve">
<style type="text/css">
	.st0{fill:#FFFFFF;}
	.st1{fill:#F6511D;}
	.st2{fill:#161303;}
	.st3{opacity:0.3;fill:url(#SVGID_1_);enable-background:new    ;}
	.st4{fill:#FFC950;}
	.st5{fill:#F1D2C4;}
	.st6{fill:#FF4949;}
	.st7{fill:#FFBA0A;}
	.st8{fill:#2708A0;}
	.st9{fill:#F0EDF3;}
	.st10{fill:#E7E6E8;}
	.st11{fill:#7DB52B;}
	.st12{fill:#FF4F2C;}
	.st13{fill:#F94110;}
	.st14{enable-background:new    ;}
	.st15{fill:url(#SVGID_2_);}
	.st16{fill:#D6D6D6;}
	.st17{fill-rule:evenodd;clip-rule:evenodd;fill:#E7E6E8;}
</style>
<g>
	<polygon class="st0" points="1192.7,268.7 1193.3,272.8 1188.8,278.2 1184,275.8 1184,273.8 1183.1,269.4 	"/>
	<path class="st0" d="M1239.6,267.3l0.8,4l-4.8,4.6c0,0-3.7-1.7-4.1-1.9c-0.3-0.1-2.6-6.4-2.6-6.4L1239.6,267.3z"/>
	<path class="st1" d="M1240.9,80c-2.3,49.5-7.6,63.1-11.2,99.2c-1.9,19.4,3.2,45.9,10.5,87.9c0.6,3.6-13.2,4.3-14.5,0.9
		c-11.3-31.4-25.8-72.4-29-88.3c-4.1-20.2-4.6-60.2-4.6-60.2l9.7-45.2L1240.9,80z"/>
	<path class="st1" d="M1185.2,67.6c-17.6,46.3-18.6,81.7-19.5,101.2c-1.4,27.9,7.4,51.4,15.3,100.4c0.5,3.1,12.5,2.3,12.4-0.8
		c-1.7-45.1-4.7-93,1.2-111.2c5-15.5,16.6-37.5,16.6-37.5l12.1-41.6L1185.2,67.6z"/>
	<path class="st2" d="M1185.4,282.9c5-1.3,9.4-2.2,8.6-6.3c-0.2-1.2-0.8-4-0.8-4c-2,1.7-8.9,2.5-9.3,1.1c0,0-24.4,9.7-25,12.2
		c0,0.1,0.1,0.9,0.1,1.1C1159.8,289.4,1180.4,284.2,1185.4,282.9z"/>
	<path class="st2" d="M1231.4,285.6c1.8-0.7,10.6-5.7,9.9-9.8c-0.2-1.2-0.9-5-0.9-5c-1.2,3-8.4,3.3-8.7,3.2c0,0-12,8.3-12.5,10.9
		c0,0.1,0.1,0.9,0.1,1.1C1219.9,288.4,1226.6,287.7,1231.4,285.6z"/>
</g>
<linearGradient id="SVGID_1_" gradientUnits="userSpaceOnUse" x1="344.2367" y1="382.8563" x2="344.2367" y2="764.4004" gradientTransform="matrix(1 0 0 -1 -83.6577 774)">
	<stop  offset="0" style="stop-color:#FFFFFF;stop-opacity:0"/>
	<stop  offset="2.168840e-02" style="stop-color:#F6FCFE;stop-opacity:2.168840e-02"/>
	<stop  offset="0.1827" style="stop-color:#B6E5FA;stop-opacity:0.1827"/>
	<stop  offset="0.3416" style="stop-color:#7ED2F6;stop-opacity:0.3416"/>
	<stop  offset="0.4944" style="stop-color:#51C2F3;stop-opacity:0.4944"/>
	<stop  offset="0.64" style="stop-color:#2EB6F0;stop-opacity:0.64"/>
	<stop  offset="0.7764" style="stop-color:#15ADEE;stop-opacity:0.7764"/>
	<stop  offset="0.9001" style="stop-color:#05A8ED;stop-opacity:0.9001"/>
	<stop  offset="1" style="stop-color:#00A6ED"/>
</linearGradient>
<path class="st3" d="M35,298.7C-4.7,201.6,93,11,155.4,9.6c72.7-1.6,28.4,135.5,174.3,138.6c89.2,2,173.2,114.6,165.2,159.2
	C479.5,392.7,95.3,446.2,35,298.7z"/>
<g>
	<g>
		<path class="st4" d="M176,179.1c0,0,45.4-4.5,61.4-6.1c7.7-0.8,19.2,20.3-0.2,26.1c-13.5,4.1-48.1-1.8-57.4-3.6
			c-1.9-0.3-14.6-9.5-19.2-12.1l5.1-8.1L176,179.1z"/>
		<path class="st5" d="M121.7,155.9l9.8,4.3c0,0-0.6-2.5-0.6-4.1s1.7-2.3,1.9-0.3c0.2,2.1,3,6.3,3,6.3l30,13.3l-5.1,8.1
			c-9.9-6.5-23.4-16.5-26.5-17.5C117.4,160.9,121.7,155.9,121.7,155.9z"/>
		<polygon class="st6" points="174.1,178.4 167.9,188.1 159.3,182.5 164.4,174.5 		"/>
	</g>
	<path class="st0" d="M260.7,276.7c-7.3,0-14.7,0-22,0c-5.7,0-11.3,0-17,0c2.8-24.1,5.7-48.2,8.5-72.4c0,0,3.5-28.7,3.2-28.9
		c-0.6-0.6,6.5-2.6,6.9-5.8c0-0.2,0.1-1,0.3-1c0.5-0.1,0.7,3.3,3,5c0.3,0.2,1.1,0.8,3,1c5.1,0.6,12.4-2.3,14.1-2.9l-1.8,9.4
		C259.5,213,260.1,244.8,260.7,276.7z"/>
	<path class="st7" d="M240.8,173.5c-2.4,4.8-4.3,31-3.8,39.6s0.8,30.1-0.5,44.9c-0.6,7.9-14.5,49.9-14.5,49.9s-10.8-4.2-11.2-11.4
		c-0.6-8.8,18.6-35.9,13.2-86c-1.5-13.2,3.5-32.7,6.1-37.7s5.3-7.5,5.3-7.5l4.6,0.6L240.8,173.5z"/>
	<path class="st6" d="M244.9,167.2c-4.1,6.8-4.8,8.8-4.8,8.8s-2.8-1.3-5.3-1c0,0,4.8-10.2,8.9-12
		C247.9,161.2,244.9,167.2,244.9,167.2z"/>
	<path class="st5" d="M260.8,164.7c-14.3-4.2,7.9-22.8-8.4-27.8s-20.9,19.4-18.8,23.9c2,4.4,8.1,0.5,9,4.8c0.1,0.6,0.1,5.4,0.3,6
		c0.5,3.7,1.6,4.8,5.3,4.9l0,0c3,0.1,6-0.5,8.8-1.8l4-1.8L260.8,164.7z"/>
	<path class="st2" d="M237.9,142.2c2.2-1.2,4.9-1.7,5.4-0.3c0.5,1.3,3.3-0.6,5.3,1s-0.1,9.4,1.2,9.8c1.5,0.4,3.6-0.9,3.8,1.6
		c0.3,2.5-3.8,3.9-3.8,3.9s1,5.4,4.9,3.8c3.9-1.6,6.8-4,8.4-8.5c1.7-4.6,1.9-12.8-5.4-16.9c-7.4-4.1-12.9-2.3-16.6-1
		C237.7,136.7,237.9,142.2,237.9,142.2z"/>
	<g>
		<polygon class="st0" points="252.2,376.6 256,384.4 260.9,377.3 259.8,373.1 255.9,371.2 		"/>
		<polygon class="st0" points="202.9,392.2 209.7,388.6 210,384.2 201.1,382.3 		"/>
		<path class="st8" d="M251.4,286.7c-6.4,19.8-20.4,11.8-23.3,20.5c-4.9,14.1,24.8,70.6,24.8,70.6c4.1-4.9,5.5-5.3,7-4.7
			c0,0-2.2-56.7-0.2-63c2.3-7.1,37.9-1.1,38.5-6.2c1.3-10.1-1.5-18.6-1.5-18.6c-8-7.5-15.9-15.1-23.9-22.6
			C265.7,270.7,258.5,278.7,251.4,286.7z"/>
		<path class="st2" d="M261.3,376.6c-1.7-1.4-4.5,2.1-10.8,7.3c-4.7,3.9-14,7.1-12.6,8.6c1.6,1.6,24-3.1,25.4-9.8
			C263.6,381.9,262.2,377.3,261.3,376.6z"/>
		<path class="st8" d="M286.2,273.4c-49.7-5.3-90.9,3.1-100.6,25.8c-2.7,6.2-4.1,12.5-2.1,23.8c2.4,13,17.6,63,17.6,63
			c3.7-1,6-1,8.9-1c0,0-2.8-51.5,1.8-66.7c4.5-14.9,34.6-12.1,52.4-12.7c4.9-3.4,13.2-10.1,18.4-21.4
			C284.4,280.2,285.5,276.6,286.2,273.4z"/>
		<path class="st2" d="M186.1,401.3c19.8-4.7,26.9-6.4,27.8-6.6c0.9-0.3-0.7-5.2-2.7-7.6c0,0-6.2,3.1-10.7,5.4s-13.4,5.5-15,6.1
			C183.8,399,184.7,401.6,186.1,401.3z"/>
	</g>
	<path class="st7" d="M253,179.4c0,0,8.4,123,5,137.4c0,0,40.6-9.7,43.1-20.6c8.9-38.2-6.7-107-21.8-117.9
		c-13.6-9.9-16.8-11.7-16.8-11.7l-3.1,11.7L253,179.4z"/>
	<path class="st6" d="M265.2,166.8c-1.1,5.7-1.5,7.9-6.6,14.1c0,0-4.7-1.7-5.7-1.5c0,0,3-3.5,6-9c1.9-3.4,1.9-5.7,1.9-5.7
		L265.2,166.8z"/>
	<g>
		<path class="st4" d="M277.5,253.5c0,0-13.9-43.5-18.7-58.8c-2.4-7.4,15.9-23,25.6-5.2c6.8,12.4,8.2,47.5,8.3,56.9
			c0.1,1.9-6.2,16.3-7.9,21.3l-8.9-3.3L277.5,253.5z"/>
		<path class="st5" d="M266,311.4l2.2-10.5c0,0-2.3,1.1-3.9,1.4s-2.7-1.2-0.7-1.8c2-0.6,5.5-4.2,5.5-4.2l6.8-32.1l8.9,3.3
			c-4.3,11-11.3,26.3-11.6,29.5C271.8,314.5,266,311.4,266,311.4z"/>
		<polygon class="st4" points="277.2,255.5 287.9,259.5 284.3,269.1 275.3,265.8 		"/>
	</g>
</g>
<g>
	<path class="st9" d="M178.6,403.8h-46.1c-9.2,0-16.7-7.5-16.7-16.7V257.7h79.4v129.5C195.2,396.4,187.8,403.8,178.6,403.8z
		 M117.8,259.7v127.5c0,8.1,6.6,14.7,14.7,14.7h46.1c8.1,0,14.7-6.6,14.7-14.7V259.7H117.8z"/>
	<path class="st9" d="M436.5,403.8h-46.1c-9.2,0-16.7-7.5-16.7-16.7V257.7h79.4v129.5C453.2,396.4,445.7,403.8,436.5,403.8z
		 M375.7,259.7v127.5c0,8.1,6.6,14.7,14.7,14.7h46.1c8.1,0,14.7-6.6,14.7-14.7V259.7H375.7z"/>
	<rect x="398.3" y="252.9" class="st10" width="65.8" height="11.5"/>
	<rect x="103.9" y="252.9" class="st9" width="294.4" height="11.5"/>
</g>
<g>
	<polygon class="st0" points="326.5,385.6 330.4,393.6 335.4,386.3 334.3,382 330.3,380 	"/>
	<polygon class="st0" points="275.8,401.6 282.8,397.9 283.1,393.4 274,391.4 	"/>
	<path class="st11" d="M325.6,293.2c-6.6,20.4-20.9,12.2-24,21.1c-5,14.5,25.5,72.6,25.5,72.6c4.2-5.1,5.6-5.4,7.2-4.9
		c0,0-2.3-58.3-0.2-64.8c2.4-7.3,38.9-1.1,39.6-6.4c1.3-10.4-1.5-19.1-1.5-19.1l-31.8-29.3L325.6,293.2z"/>
	<path class="st2" d="M335.7,385.8c-2-1-4.1,3.1-9.3,9.6c-3.9,4.9-12.6,10.2-10.8,11.3c2,1.3,23.5-8.2,23.5-15.2
		C339.1,390.7,336.8,386.3,335.7,385.8z"/>
	<path class="st11" d="M310.6,274.5c-36.6,7-60.6,23.8-54.8,55.9c2.4,13.4,18.1,64.7,18.1,64.7c3.8-1.1,6.2-1.1,9.2-1.1
		c0,0-2.9-53,1.8-68.6c4.6-15.3,35.5-12.5,53.9-13c0,0,15.8-20.6,14.3-37.2C351.7,258.7,310.6,274.5,310.6,274.5z"/>
	<path class="st5" d="M295.4,178.9c0.3,7.7,4.3,20.6,11.1,20.1c7.2-0.6,6,3.4,6,3.4s15.1-2.1,12.8-5.8c-2.8-4.4-4.7-6.8-5.4-9.8
		c-1.6-7.3-3.8-13.3-9.2-14.7C303.1,170,295.2,174,295.4,178.9z"/>
	<path class="st0" d="M314.7,199.6l-3.6,2.9c0,0,8.8-0.8,13.6-2.8c2.8-1.1,3.7-2,4-3c0,0-6-0.7-8.2,0.9
		C318.4,199.1,314.7,199.6,314.7,199.6z"/>
	<path class="st2" d="M294.2,173.9c-2.2,3.6,0.8,9.6,7.7,14c0,0,1.9-4.3,5.6-1.6c4.5,3.3,1.3,5.1,2,5.5c6.8,3.5,4.3,4.1,6.1,3.7
		c2.9-0.7,7.2-2.8,7.5-5.2c0.2-2.4-2.4-5-2.9-10c-0.5-5.1-2.7-11.1-7.9-12.5C307.1,166.5,297,169.3,294.2,173.9z"/>
	<path class="st2" d="M254.3,406c21,0.1,28.4,0.2,29.4,0.1c0.9,0,0.6-5.3-0.8-8.3c0,0-6.9,1.6-12,2.8c-5.1,1.2-14.7,2.3-16.5,2.4
		C252.6,403.2,252.8,406,254.3,406z"/>
	<path class="st5" d="M242.7,255.2c-4.8-3.9-4.8-2.9-6.3-1.8c-1,0.8-2.7-0.9-0.6-4c2.8-4.2,8.7-2.1,9.6-1.3c0.9,0.9,2.9,5.1,2.9,5.1
		L242.7,255.2z"/>
	<path class="st8" d="M358.8,245.1c-7.3-22.5-5.7-27-13.4-41.3c-7.8-14.4-32.2-2.9-32.2-2.9s-1.4,1.4-2,1.6
		c-21.2,8.3-26.7,26.5-34.8,35.4c-4.7,5.1-16.9,8.3-26.1,8.9c-6.5,0.4-8.7,3-7.6,7.9c0,0,20,0,27.5,0c10.9,0,31.6-12.8,31.6-12.8
		s5.6,33.1,2.4,58.8c0,0,6.8-2.7,19.9-4.5c10.3-1.5,25.5-2.7,25.5-2.7l-1.9-21.1l7.7,20.4c0,0,9.6-1.2,16.8-1.3
		C372.3,291.7,366,267.4,358.8,245.1z"/>
</g>
<g>
	<path class="st9" d="M399.1,408.9h-12c-4.8,0-9.3-2.3-12.2-6.2l-61.5-84.3l27.4-2.1l61.7,85.7c0.9,1.3,1.1,3,0.3,4.5
		C402.2,408,400.7,408.9,399.1,408.9z M317.2,320.1l59.3,81.4c2.4,3.4,6.4,5.4,10.6,5.4h12c0.9,0,1.6-0.5,2.1-1.3
		c0.4-0.8,0.3-1.7-0.2-2.4l-61-84.8L317.2,320.1z"/>
	<path class="st9" d="M323.5,408.9h-12c-1.6,0-3.1-0.9-3.8-2.3c-0.7-1.4-0.6-3.2,0.3-4.5l61.7-85.7l27.4,2.1l-61.4,84.2
		C332.9,406.5,328.3,408.9,323.5,408.9z M370.7,318.4l-61,84.8c-0.5,0.7-0.6,1.6-0.2,2.4s1.2,1.3,2.1,1.3h12c4.2,0,8.1-2,10.6-5.4
		l59.3-81.4L370.7,318.4z"/>
	<rect x="371.4" y="313.5" class="st10" width="28.6" height="11.5"/>
	<rect x="309.4" y="313.5" class="st9" width="62" height="11.5"/>
</g>
<g>
	<path class="st7" d="M413.5,230.2c-0.3-0.8-0.8-1.7-0.8-1.7s-6.3-11.2-8.4-14.5c-1-1.6-1.3-3.9-2-6c-0.7-2.3-1.8-4.3-2.1-4.7
		c-0.5-0.7-0.2,3.2,0.7,9.9c0.9,6.7,6.5,9.2,11.3,15.4l0.6,1.7l3,15.1h0.8C416.5,245.4,413.7,231.1,413.5,230.2z"/>
	<path class="st11" d="M397.6,185.7c0,0,7.1,6.8,9.8,7.8c2.7,0.9,6.3,13.9,6,17.2s3.9,37,3.9,37l-0.7,0.2c0,0-4.4-34.8-4.4-36.9
		s-0.6-2.4-1.5-2.9s-4.9-9.1-6.2-10.5s-6-8.3-6-8.3L397.6,185.7z"/>
	<path class="st11" d="M421.5,244.4c0,0,2.4-46.3,2-50.4c-0.4-4.2,0.9-6,0.7-7.5s0.6-15.9,0.4-18.5c-0.2-2.6-6.5-16.7-7.3-19
		s-2-1.1-2.2,0.1c-0.2,1.3,2,9.1,3,15.7c0.7,4.6-0.2,17.2,1.8,22.8c0.6,1.6,2.2,4.3,2.4,6.6s-1.9,50.1-1.9,50.1L421.5,244.4z"/>
	<path class="st7" d="M431.3,188.1c0,0-6.1,7.8-8.6,9c-2.5,1.3-4.3,14.6-3.5,17.8c0.8,3.3-1.1,30.1-1.1,30.1l0.7,0.1
		c0,0,1.9-28,1.6-30c-0.3-2,0.3-2.4,1.1-3s3.5-9.7,4.7-11.3c1.1-1.6,4.8-9.1,4.8-9.1L431.3,188.1z"/>
	<polygon class="st1" points="429.2,252.8 413.1,252.8 411.3,235.6 431.3,235.6 	"/>
</g>
<g>
	<path class="st10" d="M118.7,411.1h-12c-4.8,0-9.3-2.3-12.2-6.2L33,320.6l27.4-2.1l61.7,85.7c0.9,1.3,1.1,3,0.3,4.5
		C121.8,410.2,120.3,411.1,118.7,411.1z M36.8,322.4l59.3,81.4c2.4,3.4,6.4,5.4,10.6,5.4h12c0.9,0,1.6-0.5,2.1-1.3
		c0.4-0.8,0.3-1.7-0.2-2.4l-61-84.8L36.8,322.4z"/>
	<path class="st10" d="M43.1,411.1h-12c-1.6,0-3.1-0.9-3.8-2.3s-0.6-3.2,0.3-4.5l61.7-85.7l27.4,2.1L55.2,405
		C52.5,408.8,47.9,411.1,43.1,411.1z M90.3,320.7l-61,84.8c-0.5,0.7-0.6,1.6-0.2,2.4c0.4,0.8,1.2,1.3,2.1,1.3h12
		c4.2,0,8.1-2,10.6-5.4l59.3-81.4L90.3,320.7z"/>
	<rect x="91" y="315.8" class="st10" width="28.6" height="11.5"/>
	<rect x="29" y="315.8" class="st10" width="62" height="11.5"/>
</g>
<g>
	<path class="st5" d="M100.2,238.4c0,0,49.2,16,84.4,15.2c0,0,3.8-0.8,7.9,1.4c1.9,1,6.8,1.1,4-1.3c-2.8-2.5-0.3-2.7,2.5-2.7
		c2.5,0,5.6,0.1,5.6,0.1s0.3-3.4-8.2-3.5c-8.6-0.1-9.1,0.8-12.2,0.2c-2.4-0.5-37.5-9.3-37.5-9.3l-42.2-14.3
		C104.3,224.4,97.4,232.5,100.2,238.4z"/>
	<path class="st0" d="M110.2,226.3c-3.8-1.7-7.8-3.7-12-6c-4.7-2.7-9-5.4-12.7-8c2,1.9,4.4,4.6,6.6,8.2c4,6.8,5.1,13.3,5.4,17.1
		l6,1.7C101.5,238.1,105.6,224.7,110.2,226.3z"/>
	<path class="st5" d="M158.1,368.8l1.1,5.3c0,0,0.5,3.3,0.1,4.6c-0.4,1.3,0.2,1.9,0.2,1.9l9.6,3.8l0.7-4c0,0-3.3-2.4-3.7-3.5
		c-0.3-1.1-0.5-4-0.5-4l-0.5-6.5L158.1,368.8z"/>
	<path class="st7" d="M168.7,389.3c-5.2-0.2-10.8-2.2-10.1-6.3c0.3-1.5,0.8-4.5,0.8-4.5c2.6,3.2,10.1,2.7,10.4,2
		c0,0,20.4,3.9,20.8,6.2c0,0.1,0,0.9,0,1C189.9,390,173.3,389.4,168.7,389.3z"/>
	<path class="st5" d="M161.9,396.7c0,0,4.4,6.4,4.6,7.7c0.2,1.3,1.1,2,1.1,2l10.7,1.3c0,0-3.6-5.2-7.6-11.3c-1-1.4-3.3-6-3.3-6
		L161.9,396.7z"/>
	<path class="st7" d="M177.7,412.4c-4.9,0.8-9.2,0.6-10.1-3.3c-0.3-1.2-1.1-4.7-1.1-4.7c2.2,2.1,9.1,0.9,8.9-0.6
		c0,0,22.8-0.4,24.2,1.7c0.1,0.1,0.4,0.9,0.4,1C200.3,408.8,182.6,411.5,177.7,412.4z"/>
	<path class="st12" d="M83,278.4c32.6-5.4,82-6.4,89.2,11c4.8,11.5-5.1,84.6-5.1,84.6s-6.3,2-8.7,0.3c-2.1-5.3,3.1-71-7-72.2
		c-19.8-2.2-59.4,10-59.4,10L83,278.4z"/>
	<path class="st13" d="M53.1,309c10,17.8,62.3,27.7,67.4,34.1c8.4,10.4,41.4,53.6,41.4,53.6c2.1,1.4,8.1-1.1,7.1-3
		c0,0-31.5-64.9-35.6-69.1c-6.9-7.1-29.9-28.6-43.9-35.7c-4.6-2.4-18.2-9.9-18.2-9.9S36.8,279.8,53.1,309z"/>
	<path class="st8" d="M68.2,307.8c0,4.2-0.2,5.1-0.8,5.6c-2.5,1.9-10-3.7-12-5.4c-16.1-13.7-12.8-60.7,11.3-91.3
		c4.2-5.3,13.6-17.3,20.6-15.2c7.8,2.4,10.4,21.7,14.6,52.1c0.2,1.3,0.3,5.1,1.6,9.9c2.7,10,3.6,13.5,4.1,16.8
		c2.2,14.8-18.5,36.2-30.1,32.5c-1.9-0.6-6.7-2.9-9.7-14.7C68.1,300.5,68.2,303.8,68.2,307.8z"/>
	<path class="st5" d="M103,177.5c1.1,0.2,1.7,2.1,2.3,4.5c2.6,10.1,3.8,15.2,0.9,18.2c-0.9,0.9-1.9,1.4-2.1,1.5
		c-3.2,1.5-4.7-0.2-8.5,1.1c-3.8,1.3-2.6,4.7-4.9,8.2c-1.6,2.4-7.3-3.7-7.5-8.3c0-3-0.8-5.5,0.3-7.6c0.7-1.2,1.6-1,3.8-2.9
		c1-0.9,1.7-1.6,3.3-3.3c4.2-4.7,5.2-6,6.3-6.9c0.3-0.2,0.2-0.1,0.8-0.6C101.7,178.3,102.2,177.4,103,177.5z"/>
	<path class="st7" d="M99.1,173.9c10.3,1.4,5.8,7.7,3,9.5c-4,2.5-7.4,7.9-7.4,7.9c-7.4-1.7-4.9,5.8-2.7,5.7
		c3.2-0.1-7.9,4.1-4.6,13.5c1.6,4.5,0.9,6.6-0.5,7.8c-2.4,2-7-2.8-14.1-2.1c-1,0.1-5.1,0.6-8.1,3.3c-7.3,6.8,0.9,19.8-7.2,29.3
		c-2.6,3.1-3.8,2-5.2,4.6c-4.4,8.3,7.5,18.6,3,26.6c-0.3,0.5-2.4,3.7-5.8,4.5c-1,0.2-2.2,0-3.8-0.9c-11-6.6-13.6-24.8-4.9-35.5
		c7.3-9.1,5.4-15,1.8-28.7C39,205.8,65.7,201,69.5,193.4C81.2,170.1,84.9,171.9,99.1,173.9z"/>
	<path class="st5" d="M77,262.5c16.1,19.4,21.9,28.9,45.1,26.5c23.2-2.4,32.1-9.3,38.4-6.2c6.2,3.2,3-1,2.2-1.6
		c-0.7-0.7-6.1-5-9.4-5.7c0,0-3-1.1-7.6,1.1c-2.8,1.2-31.2,9.4-39.6-0.9c-5.9-7.1-16.3-22.9-16.3-22.9l-11,0.1L77,262.5z"/>
	<path class="st0" d="M72.3,222.3c7.6,6.8,17.4,30.4,17.4,30.4S77,255.6,77,262.5c0,0-10.9-10.6-12.9-18.4
		C62.1,236.5,68,218.5,72.3,222.3z"/>
</g>
<g>
	<g id="Bulb" class="st14">
		<g>
			
				<radialGradient id="SVGID_2_" cx="332.0185" cy="76.9163" r="38.3459" gradientTransform="matrix(0.9535 0.3015 -0.3015 0.9535 44.165 -79.8104)" gradientUnits="userSpaceOnUse">
				<stop  offset="0" style="stop-color:#FFFFFF;stop-opacity:0"/>
				<stop  offset="1" style="stop-color:#FFBA0A"/>
			</radialGradient>
			<path class="st15" d="M349.6,55.5c-19.3-6.1-39.7,4.1-45.7,22.8c-8.4,26.5,9.7,35.7,5.7,48.4l31.8,10c4-12.7,24.1-9.9,32.4-36.3
				C379.7,81.7,368.9,61.6,349.6,55.5z"/>
		</g>
	</g>
	<g id="Spark">
		<g>
			<path class="st7" d="M349.1,90.3c-3.5-1.1-7.3,0.8-8.4,4.3l-6.4-2c1.1-3.5-0.8-7.3-4.3-8.4c-3.5-1.1-7.3,0.8-8.4,4.3
				s0.8,7.3,4.3,8.4l0,0l-10,31.8l6.4,2l10-31.8l6.4,2l-10,31.8l6.4,2l10-31.8l0,0c3.5,1.1,7.3-0.8,8.4-4.3S352.6,91.4,349.1,90.3z"
				/>
		</g>
	</g>
	<g id="Head">
		<g>
			<path class="st16" d="M323.5,138.1c-5.3-1.7-10.9,1.2-12.5,6.5c-1.7,5.3,1.3,10.9,6.5,12.5c5.3,1.7,10.9-1.2,12.5-6.5
				C331.7,145.4,328.7,139.8,323.5,138.1z"/>
		</g>
	</g>
	<g id="Body_2_">
		<g>
			<path class="st17" d="M331,147.5l-19.1-6c-1.8-0.6-3.6,0.4-4.2,2.2c-0.6,1.8,0.4,3.6,2.2,4.2l19.1,6c1.8,0.6,3.6-0.4,4.2-2.2
				C333.7,149.9,332.8,148,331,147.5z M309.6,126.7l-1,3.2c-0.6,1.8,0.4,3.6,2.2,4.2c-1.8-0.6-3.6,0.4-4.2,2.2
				c-0.6,1.8,0.4,3.6,2.2,4.2l25.4,8c1.8,0.6,3.6-0.4,4.2-2.2c0.6-1.8-0.4-3.6-2.2-4.2c1.8,0.6,3.6-0.4,4.2-2.2l1-3.2L309.6,126.7z"
				/>
		</g>
	</g>
</g>
</svg>
