<?xml version="1.0" encoding="utf-8"?>
<!-- Generator: Adobe Illustrator 22.1.0, SVG Export Plug-In . SVG Version: 6.00 Build 0)  -->
<svg version="1.1" id="_x2014_ÎÓÈ_x5F_1" xmlns="http://www.w3.org/2000/svg" xmlns:xlink="http://www.w3.org/1999/xlink"
	 x="0px" y="0px" viewBox="0 0 574 454" style="enable-background:new 0 0 574 454;" xml:space="preserve">
<style type="text/css">
	.st0{opacity:0.3;fill:url(#SVGID_1_);enable-background:new    ;}
	.st1{fill:#FFFFFF;}
	.st2{fill:#F0EDF3;}
	.st3{fill:#CDCCCE;}
	.st4{fill:#E7E6E8;}
	.st5{fill:#D25D60;}
	.st6{fill:#E5A866;}
	.st7{fill:#9FC768;}
	.st8{clip-path:url(#SVGID_3_);}
	.st9{fill:url(#SVGID_4_);}
	.st10{fill:#F1D2C4;}
	.st11{fill:#F6511D;}
	.st12{fill:#FFBA0A;}
	.st13{fill:#FF4949;}
	.st14{fill:#161303;}
	.st15{fill:#FFC950;}
	.st16{fill:#FBD2C4;}
	.st17{fill:#2708A0;}
	.st18{fill:#00A6ED;}
</style>
<linearGradient id="SVGID_1_" gradientUnits="userSpaceOnUse" x1="318.9692" y1="55.3091" x2="318.9692" y2="-329.6117" gradientTransform="matrix(1 0 0 1 -30.6739 354)">
	<stop  offset="0" style="stop-color:#FFFFFF;stop-opacity:0"/>
	<stop  offset="2.168840e-02" style="stop-color:#F6FCFE;stop-opacity:2.168840e-02"/>
	<stop  offset="0.1827" style="stop-color:#B6E5FA;stop-opacity:0.1827"/>
	<stop  offset="0.3416" style="stop-color:#7ED2F6;stop-opacity:0.3416"/>
	<stop  offset="0.4944" style="stop-color:#51C2F3;stop-opacity:0.4944"/>
	<stop  offset="0.64" style="stop-color:#2EB6F0;stop-opacity:0.64"/>
	<stop  offset="0.7764" style="stop-color:#15ADEE;stop-opacity:0.7764"/>
	<stop  offset="0.9001" style="stop-color:#05A8ED;stop-opacity:0.9001"/>
	<stop  offset="1" style="stop-color:#00A6ED"/>
</linearGradient>
<path class="st0" d="M37.3,316.1c-44.2-98,64.5-290.4,134-291.7c80.9-1.6,31.6,136.7,193.9,139.9c99.3,2,192.7,115.6,183.8,160.6
	C532,410.9,104.4,464.8,37.3,316.1z"/>
<g>
	<g>
		<rect x="315.2" y="239.6" class="st1" width="61.1" height="28.5"/>
	</g>
	<rect x="315.2" y="239.6" class="st2" width="61.1" height="28.5"/>
	<g>
		<polygon class="st3" points="315.2,248.5 376.3,248.5 376.3,241.7 372.9,238.7 318.6,238.7 315.2,241.7 		"/>
	</g>
	<g>
		<rect x="306.6" y="264.1" class="st4" width="78.3" height="5.7"/>
	</g>
	<g>
		<path class="st4" d="M227,226.9v9.9c0,3.3,2.7,5.9,5.9,5.9h225.7c3.3,0,5.9-2.7,5.9-5.9v-9.9H227z"/>
	</g>
	<g>
		<path class="st2" d="M458.6,95.2H232.9c-3.3,0-5.9,2.7-5.9,5.9v126h237.5v-126C464.5,97.8,461.8,95.2,458.6,95.2z"/>
	</g>
	<g>
		<polygon class="st2" points="235.9,148.6 235.9,103.9 455.6,103.9 455.6,131.4 		"/>
	</g>
	<g>
		<rect x="235.9" y="103.9" class="st2" width="219.8" height="5.6"/>
	</g>
	<g>
		<path class="st5" d="M241.3,106.7c0,0.8-0.7,1.5-1.5,1.5s-1.5-0.7-1.5-1.5s0.7-1.5,1.5-1.5S241.3,105.9,241.3,106.7z"/>
	</g>
	<g>
		<path class="st6" d="M246.6,106.7c0,0.8-0.7,1.5-1.5,1.5s-1.5-0.7-1.5-1.5s0.7-1.5,1.5-1.5S246.6,105.9,246.6,106.7z"/>
	</g>
	<g>
		<path class="st7" d="M252,106.7c0,0.8-0.7,1.5-1.5,1.5s-1.5-0.7-1.5-1.5s0.7-1.5,1.5-1.5C251.4,105.2,252,105.9,252,106.7z"/>
	</g>
	<rect x="236.3" y="115.2" class="st1" width="219.1" height="103.6"/>
	<g>
		<g>
			<defs>
				<rect id="SVGID_2_" x="236.3" y="115.2" width="219.1" height="103.6"/>
			</defs>
			<clipPath id="SVGID_3_">
				<use xlink:href="#SVGID_2_"  style="overflow:visible;"/>
			</clipPath>
			<g class="st8">
				
					<linearGradient id="SVGID_4_" gradientUnits="userSpaceOnUse" x1="826.323" y1="-106.8289" x2="826.323" y2="-237.3928" gradientTransform="matrix(-0.9988 4.948876e-02 4.948876e-02 0.9988 1142.5416 332.9003)">
					<stop  offset="0" style="stop-color:#FFFFFF;stop-opacity:0"/>
					<stop  offset="2.168840e-02" style="stop-color:#F6FCFE;stop-opacity:2.168840e-02"/>
					<stop  offset="1" style="stop-color:#7DB52B"/>
				</linearGradient>
				<path class="st9" d="M159.5,230.9c-5.9-21.8,29.6-71.8,59.5-68.7c0.3,0,0.6,0.1,0.9,0.1c42.7,5.6,52.9,64.2,78.8,63.7
					c30.9-0.5,33.6-48.8,55-50.3c50.6-3.5,33.2-43.5,58.5-44.3c20.4-0.6,55.4,53.9,46.1,84.1C437.7,282.4,173.2,281.4,159.5,230.9z"
					/>
				<g>
					<g>
						<polygon class="st1" points="325.4,448.5 325.7,452.5 321,457.7 316.3,455 316.4,452.9 315.8,448.5 						"/>
						<path class="st1" d="M372.4,450l0.5,4l-5.1,4.2c0,0-3.6-2-3.9-2.2c-0.3-0.1-2.2-6.5-2.2-6.5L372.4,450z"/>
						<path class="st10" d="M312.5,245.5l-9.3,17.6c0,0-9.4,5.9-6.7,12.5c2.7,6.5,9.1,7.5,10.9,6.4c1.8-1,11.7-36,11.7-36
							L312.5,245.5z"/>
						<path class="st11" d="M385.5,263.1c-5.5,49.2-11.6,62.5-17.5,98.3c-3.1,19.3,0.3,46,4.9,88.4c0.4,3.6-13.5,3.4-14.5,0
							c-9.3-32-21.1-73.9-23.3-90c-2.8-20.4-0.7-60.3-0.7-60.3l12.5-44.5L385.5,263.1z"/>
						<path class="st11" d="M330.7,247.3c-20.5,45.1-23.7,80.3-25.9,99.7c-3.2,27.8,4.1,51.7,8.9,101.2c0.3,3.1,12.3,3.1,12.4,0
							c1.1-45.1,1.2-93.1,8.3-110.9c6-15.1,19-36.4,19-36.4l14.7-40.7L330.7,247.3z"/>
						<polygon class="st12" points="330.6,183.9 313.7,237.5 304.2,255.9 318.8,257.1 349.1,208.2 361,171.2 						"/>
						<path class="st1" d="M356.4,274.4c-22.1,0-26.2-7.8-26.2-7.8l0.4-58.5c0,0,5.3-28.4,5.1-28.6c-0.2-0.2,7.7-8,7.5-4.6
							s-0.4,6.9,5.5,7.5s14.5-4.9,14.5-4.9l-2.4,9.2L356.4,274.4z"/>
						<polygon class="st13" points="304.2,255.9 308.6,247.3 323.4,249.6 318.8,257.1 						"/>
						<path class="st12" d="M343.1,178.1c-2.7,4.7-6.2,30.7-6.3,39.3c-0.1,8.6-1.1,30.1-3.3,44.8c-1.1,7.9-17.6,48.9-17.6,48.9
							s-10.5-4.9-10.5-12.1c0-8.8,20.8-34.6,18.7-85c-0.6-13.3,5.6-32.4,8.5-37.2s5.8-7.2,5.8-7.2l4.6,0.9L343.1,178.1z"/>
						<path class="st12" d="M355,184.8c0,0,0.5,123.2-3.7,137.4c0,0,41.1-7,44.4-17.8c11.3-37.5,0.1-107.2-14.2-119.1
							c-13-10.8-16.1-12.7-16.1-12.7l-3.8,11.5L355,184.8z"/>
						<path class="st13" d="M347.6,172c-4.6,6.5-5.4,8.5-5.4,8.5s-2.7-1.5-5.2-1.3c0,0,5.4-9.8,9.6-11.4
							C351,166.2,347.6,172,347.6,172z"/>
						<path class="st10" d="M363.7,170.6c-14-5.1,9.3-22.3-6.6-28.3c-16-6-22.1,18-20.3,22.7c1.8,4.6,8.1,1,8.7,5.4
							c0.1,0.6-0.2,5.4-0.1,6c0.3,3.7,1.2,4.9,5,5.2l0,0c3,0.3,6-0.1,8.9-1.2l4.1-1.6L363.7,170.6z"/>
						<path class="st13" d="M367.9,173c-1.5,5.6-2,7.8-7.5,13.7c0,0-4.6-2-5.6-1.9c0,0,3.2-3.3,6.5-8.6c2.1-3.3,2.3-5.6,2.3-5.6
							L367.9,173z"/>
						<path class="st13" d="M386.4,273.8l1.1,5.2c0,0-6.6,4.2-25.7,8v-5.7C361.7,281.4,379.6,277.8,386.4,273.8z"/>
						<polygon class="st13" points="316.8,268.2 319.9,274.4 314.5,277 312.8,271.3 						"/>
						<path class="st14" d="M342.2,146.6c2.3-1,5-1.3,5.4,0s3.3-0.4,5.2,1.3c1.9,1.8-0.7,9.3,0.6,9.8c1.5,0.5,3.6-0.6,3.7,1.9
							s-4,3.6-4,3.6s0.6,5.5,4.7,4.1c4-1.3,7-3.5,8.9-8c2-4.5,2.7-12.6-4.4-17.2c-7.2-4.6-12.7-3.1-16.5-2.1
							C342.4,141.1,342.2,146.6,342.2,146.6z"/>
						<path class="st10" d="M296.2,274.7c0.5,5.1,0.5,6.1,2,5.8c1.5-0.3,1.2-9.8,1.2-9.8L296.2,274.7z"/>
						<path class="st14" d="M317.2,462.1c5.1-0.9,9.5-1.6,9-5.7c-0.1-1.2-0.5-4-0.5-4c-2.1,1.6-9,2-9.3,0.5c0,0-25,8.1-25.7,10.6
							c0,0.1,0,0.9,0,1.1C291.3,467,312.2,463.1,317.2,462.1z"/>
						<path class="st14" d="M362.9,467.7c1.9-0.6,11-5,10.5-9.1c-0.1-1.2-0.6-5.1-0.6-5.1c-1.3,2.9-8.6,2.8-8.9,2.6
							c0,0-12.5,7.6-13.2,10.1c0,0.1,0,0.9,0,1.1C351.3,469.8,358.1,469.5,362.9,467.7z"/>
					</g>
					<g>
						<path class="st15" d="M352.5,264.4c0,0,5.6-45.3,7.6-61.3c1-7.7,24-14.2,25.4,5.9c1,14.1-12.4,46.5-16.2,55.2
							c-0.7,1.8-12.5,12.2-16.1,16.1l-6.7-6.7L352.5,264.4z"/>
						<path class="st10" d="M317.9,312.2l6.4-8.6c0,0-2.6,0.1-4.1-0.3s-1.9-2.2,0.1-1.9c2.1,0.3,6.8-1.5,6.8-1.5l19.6-26.3l6.7,6.7
							c-8.5,8.2-21.3,19.2-22.9,22C321.9,317.4,317.9,312.2,317.9,312.2z"/>
						<polygon class="st13" points="351.4,266.1 359.5,274.2 352.2,281.4 345.5,274.6 						"/>
					</g>
				</g>
			</g>
		</g>
	</g>
</g>
<g>
	<path class="st2" d="M380.2,404.2V274.7h79.4v129.4c0,9.2-7.5,16.7-16.7,16.7h-46.1C387.6,420.8,380.2,413.4,380.2,404.2z
		 M382.1,276.7v127.5c0,8.1,6.6,14.7,14.7,14.7h46.1c8.1,0,14.7-6.6,14.7-14.7V276.7H382.1z"/>
	<path class="st2" d="M122.3,404.2V274.7h79.4v129.4c0,9.2-7.5,16.7-16.7,16.7h-46.1C129.7,420.8,122.2,413.4,122.3,404.2z
		 M124.2,276.7v127.5c0,8.1,6.6,14.7,14.7,14.7H185c8.1,0,14.7-6.6,14.7-14.7V276.7H124.2z"/>
	<rect x="111.3" y="269.9" class="st4" width="65.8" height="11.5"/>
	<rect x="177.1" y="269.9" class="st2" width="294.4" height="11.5"/>
</g>
<g>
	<g>
		<path class="st16" d="M166.1,226.2c0,0,42.1,30,75.9,39.7c0,0,3.9,0.3,7.1,3.7c1.5,1.6,6.2,3.1,4.2-0.1s0.4-2.7,3.1-1.8
			c2.3,0.8,5.3,1.8,5.3,1.8s1.3-3.1-6.8-5.7s-8.9-1.9-11.7-3.5c-2.1-1.1-33-20-33-20L174.3,214C174.3,214,165.2,219.8,166.1,226.2z"
			/>
		<path class="st17" d="M202.7,233.8c0,0-7.7-4-8-11.5c-0.3-7.5-1.7-15.9-1.7-15.9s-5.2,27.8-5.8,34.5l5.1,3.4
			C190.8,242.5,198.8,230.9,202.7,233.8z"/>
	</g>
	<g>
		<g>
			<path class="st17" d="M309.7,253.1l-15.5-0.3l-12-11.1l-8.8,5.3c0,0,15,21.8,18.4,21.8c3.5,0,20.5-9.6,20.7-12.2L309.7,253.1z"/>
			<polygon class="st1" points="256.1,394 252.1,396 251,400.3 256,407.6 259.9,399.6 			"/>
			<path class="st10" d="M323.7,251.9c-0.3,1.2,0.3,2.6,0.6,3.2c0.6,1.2,0.8,1.4,1.4,1.1c1.1-0.6,1.3-4.3-0.2-6.7
				C325.5,249.5,324.1,250.5,323.7,251.9z"/>
			<polygon class="st1" points="312.4,405.4 303.3,407.4 303.6,411.9 310.6,415.6 			"/>
			<path class="st18" d="M246,276.4l-31.8,29.3c-3.9,11-2.5,16-0.3,18.4c6.2,6.8,22-2.9,38.4,7.1c2.1,1.3,3.3,2,4.6,3.4
				c5.8,6.1,8.5,10.2-4.8,61.4l0,0c1.6-0.5,3-0.2,7.2,4.9c0,0,30.5-58.1,25.5-72.6c-3.1-8.9-17.4-0.7-24-21.1L246,276.4z"/>
			<path class="st10" d="M312.1,253.4c1.5-1.4,2.2-3.2,5.6-4.7c2.3-1,4.2-2.4,6-1c3.7,2.7,1.6,3,0.4,4.9l-1.1-0.1
				c0,0-3.5,1.6-0.6,1.1c1.3-0.3,1.7-0.2,1.8,0.8c0.2,1.4-6,2.3-11.7,3.8C312.5,258.2,310.7,254.7,312.1,253.4z"/>
			<path class="st17" d="M308.1,255.5l4.2-2.4c2.3-0.5,4.7,4.1,2.4,4.8c-2,0.6-3.6,0.9-4.5,1.2L308.1,255.5z"/>
			<path class="st14" d="M247.3,405.5c0,7,21.5,16.5,23.5,15.2c1.8-1.1-6.9-6.4-10.8-11.3c-5.2-6.5-7.3-10.6-9.3-9.6
				C249.6,400.3,247.3,404.7,247.3,405.5z"/>
			<path class="st18" d="M233.3,289.2c-1.5,16.6,14.3,37.2,14.3,37.2c18.4,0.5,49.3-2.3,53.9,13c4.7,15.6,1.8,68.6,1.8,68.6
				c3,0,5.4,0,9.2,1.1c0,0,15.7-51.3,18.1-64.7c5.8-32.1-18.2-48.9-54.8-55.9C275.8,288.5,234.7,272.7,233.3,289.2z"/>
			<path class="st10" d="M275.7,186.1c-5.4,1.4-7.6,7.4-9.2,14.7c-0.8,3.6-3.1,6.9-5.4,9.8c-0.8,1-1.4,1.7-1.3,2.5
				c0.4,2.4,7.8,3.1,14.1,3.3c0,0-1.2-4,6-3.4c6.8,0.5,10.8-12.4,11.1-20.1C291.2,188,283.3,184,275.7,186.1z"/>
			<path class="st12" d="M274.1,181.8c-5.2,1.4-7.4,7.4-7.9,12.5c-0.5,5-3.1,7.6-2.9,10c0.3,2.4,4.6,4.5,7.5,5.2
				c1.8,0.4-0.7-0.2,6.1-3.7c0.7-0.4-2.5-2.2,2-5.5c3.7-2.7,5.6,1.6,5.6,1.6c6.9-4.4,9.9-10.4,7.7-14
				C289.4,183.3,279.3,180.5,274.1,181.8z"/>
			<path class="st10" d="M321.9,253.6c0,0,3.2-0.9,3.6,0c0.4,1-1.6,1.8-4.1,2.4L321.9,253.6z"/>
			<path class="st14" d="M332,417c-1.8-0.1-11.4-1.2-16.5-2.4c-5.1-1.2-12-2.8-12-2.8c-1.4,3-1.7,8.3-0.8,8.3c1,0.1,8.4,0,29.4-0.1
				C333.6,420,333.8,417.2,332,417z"/>
			<path class="st10" d="M338.1,267.2c0,0,2-4.2,2.9-5.1c0.9-0.8,6.8-2.9,9.6,1.3c2.1,3.1,0.4,4.8-0.6,4c-1.5-1.1-1.5-2.1-6.3,1.8
				L338.1,267.2z"/>
			<path class="st17" d="M214.2,305.5c7.2,0.1,16.8,1.3,16.8,1.3l7.7-20.4l-1.9,21.1c0,0,15.2,1.2,25.5,2.7
				c13.1,1.8,19.9,4.5,19.9,4.5c-3.2-25.7,2.4-58.8,2.4-58.8s20.7,12.8,31.6,12.8c7.5,0,27.5,0,27.5,0c1.1-4.9-1.1-7.5-7.6-7.9
				c-9.2-0.6-21.4-3.8-26.1-8.9c-13.9-15.1-14.4-25.9-34.8-35.4c-11.2-5.3-27-6.2-34.2,1.3c-2.2,2.3-2.6,4.8-4.4,9.4
				c-3.1,8.3-3.6,15.1-9,31.9C220.4,281.4,214.1,305.7,214.2,305.5z"/>
		</g>
		<path d="M293.5,213c0.3,0,0.5,0.1,0.7,0.4c0.7,1,2,1.4,3.1,1c1-0.4,1.8-1.6,1.7-2.6c-0.1-1.3-1-2.2-2.2-2.5
			c-1.2-0.2-2.3,0.3-2.9,1.4c-0.2,0.3-0.4,0.4-0.7,0.4c-2.8-0.1-5.2-1.2-7.3-2.8l0,0l0,0c-0.8-0.7-1.6-1.4-2.4-2.2
			c-0.3-0.3-0.3-0.5-0.1-0.8c1.3-2.2,1.2-4.4-0.1-6.6c-1-1.7-2.6-2.7-4.6-2.9c-0.2,0-0.3-0.1-0.5-0.1c-0.3,0-0.4-0.1-0.4-0.4
			c-0.5-2.6-1.1-5.2-1.6-7.7c0-0.2-0.1-0.5-0.2-0.7l0,0c-0.3-1.5-0.6-2.9-0.9-4.4v-0.1c-0.1-0.4-0.2-0.8-0.2-1.2
			c0-0.2-0.1-0.4-0.3-0.4c-1.2,0.4-2.2,1-3.2,1.6c0.3,1.3,0.6,2.7,0.9,4l0,0c0.1,0.3,0.1,0.5,0.2,0.8c0.4,1.9,0.8,3.9,1.2,5.8
			c0.2,1.1,0.4,2.2,0.7,3.3c0.1,0.3,0,0.5-0.3,0.7c-3.6,2.9-3.2,8.3,0.9,10.6c0.9,0.5,1.9,0.8,2.8,0.8c1.5,0,2.7-0.4,3.8-1.1
			c0.3-0.2,0.4-0.1,0.6,0.1c0.1,0.2,0.3,0.3,0.4,0.4l0,0c0.1,0.1,0.3,0.3,0.4,0.4l0,0c0.1,0.1,0.3,0.3,0.4,0.4l0,0
			c0.1,0.1,0.3,0.3,0.5,0.4l0,0l0,0c1.8,1.6,3.9,2.9,6.3,3.5C291.4,212.8,292.4,213,293.5,213z"/>
	</g>
	<g>
		<path class="st2" d="M183.6,418.5c-0.8-1.5-0.6-3.2,0.3-4.5l61.7-85.7l27.4,2.1l-61.5,84.3c-2.9,3.9-7.4,6.2-12.2,6.2h-12
			C185.7,420.9,184.2,420,183.6,418.5z M246.4,330.4l-61,84.8c-0.5,0.7-0.6,1.6-0.2,2.4c0.5,0.8,1.2,1.3,2.1,1.3h12
			c4.2,0,8.2-2,10.6-5.4l59.3-81.4L246.4,330.4z"/>
		<path class="st2" d="M250.7,414.7l-61.4-84.2l27.4-2.1l61.7,85.7c0.9,1.3,1,3.1,0.3,4.5s-2.2,2.3-3.8,2.3h-12
			C258.1,420.9,253.5,418.5,250.7,414.7z M192.9,332.1l59.3,81.4c2.5,3.4,6.4,5.4,10.6,5.4h12c0.9,0,1.7-0.5,2.1-1.3
			s0.3-1.7-0.2-2.4l-61-84.8L192.9,332.1z"/>
		<rect x="186.4" y="325.5" class="st4" width="28.6" height="11.5"/>
		<rect x="215" y="325.5" class="st2" width="62" height="11.5"/>
	</g>
	<g>
		<path class="st16" d="M183.2,409.9l0.5,2.3c0,0,0.3,3.3,0.1,4.5c-0.4,1.2,0.2,1.9,0.2,1.9l9.5,3.9l0.9-3.9c0,0-3.3-2.4-3.5-3.6
			s-0.4-4-0.4-4l-0.3-6.5L183.2,409.9z"/>
		<path class="st14" d="M193.8,426.6c-5.2,0.4-10.9-1-10.7-5c0-1.5,0.6-4.4,0.6-4.4c2.9,2.8,10.1,1.2,10.3,0.5
			c0,0,20.7,1.4,21.4,3.6c0,0.1,0.1,0.9,0,1C214.9,424.7,198.4,426.2,193.8,426.6z"/>
		<path class="st16" d="M131.8,405.6c0,0-1.1,2.8-2.4,5.1c-0.6,1.2-2.3,4.1-2.3,4.1l5.4,10.5c0,0,2-6,4.5-12.9
			c0.6-1.6,2.8-6.1,2.8-6.1L131.8,405.6z"/>
		<path class="st14" d="M134.7,426.3c-4.9-1-9.8-2.9-9.3-6.9c0.2-1.2,1.8-4.7,1.8-4.7c1.6,1.2,4.2,3.1,8,3.2c0,0,21.9,7.5,22.5,9.8
			c0.1,0.1,0,0.9,0,1.1C157,431.2,139.6,427.4,134.7,426.3z"/>
		<path class="st17" d="M180.6,263.8c18.7,35.2,22.5,68,18.4,86.4c-2.7,12.2-8.8,57.7-8.8,57.7s-4.4,1.7-6.8,2
			c-0.6-9.3-3.1-69.1-6.3-78.8c-10.4-32.4-18.4-58.2-18.4-58.2L180.6,263.8z"/>
		<path class="st17" d="M138.4,266.3c-8.4,18.7,14.8,66.5,12.8,74.3c-3.4,12.9-19.9,66.1-19.9,66.1l7.1,2.7c0,0,34.5-63.8,35.4-69.6
			c1.6-9.8,5.1-41,2.6-56.5c-0.9-5.2-2.8-20.6-2.8-20.6S152.3,235.7,138.4,266.3z"/>
		<path class="st12" d="M148.4,297.6c-3.2,0.1-19.4,0.2-24.8-9.5c-1.8-3.1-2.2-6.9,3.1-24.4c4.6-15,8.3-26.9,17-42.9
			c8.7-16.1,14.7-21.8,16.3-23.4c5.3-5,15.7-14.9,23.7-11.8c7,2.7,8.6,14.2,9.2,19.3c1.8,13.6-2.8,28.7-4.7,34.7
			c-0.2,0.7-0.7,2.1-1.1,4.1c-1.2,5.9-0.8,10.8-0.1,16c1.8,13.7,3.2,12.4,2.5,14.9c-2.7,9.4-17.8,14.5-36.3,20.7c0,0,0,0,0,0
			l-6.7-18.5L148.4,297.6z"/>
		<path class="st16" d="M207.2,169.6c2.2,17.6,0,19.2-3.4,20.5c-3.3,1.3-4.7-0.6-8.6,0.3c-4,0.9-3,4.4-5.7,7.7c-1.8,2.2-7-4.4-6.6-9
			c0.4-4.5-1.1-8.3,5.1-9.9c6.2-1.8,5.1-5.5,11.3-9.9C205.5,165,207.2,169.6,207.2,169.6z"/>
		<g>
			<path class="st16" d="M147.8,241.2c-0.7,25.2,0.2,36.3,17.1,52.4c17,16.1,18.2,19,20.8,25.5c2.6,6.5,11.6-1.3,9.7-4.2
				c-0.5-0.8-4.1-3.5-6.2-6.2c0,0-3-3.7-8.6-9.7c-2-2.2-21.1-24.7-20.8-29.8c0.7-9.2,3.7-26.8,3.7-26.8l-8.3-7.1L147.8,241.2z"/>
			<path class="st17" d="M170.7,207.9c1.3,10.1-7,34.2-7,34.2s-11.5-6.1-16-1.1c0,0-1.2-15.2,2.4-22.2
				C153.7,211.8,169.9,202.2,170.7,207.9z"/>
		</g>
		<path class="st11" d="M203.2,161.7c10.1,2.9,4.7,8.5,1.6,9.8c-4.2,1.9-8.5,6.7-8.5,6.7c-7.1-2.7-5.6,5-3.6,5.2
			c3.1,0.4-8.4,2.9-6.5,12.7c0.7,3.7,0,6.2-1.6,7.7c-2.2,2-5.4-1.2-12-1.6c-1.2-0.1-7.8-0.5-12.4,2.8c-4.4,3.1-3.5,7.1-6.6,14.9
			c-4.6,11.4-9.4,10.2-16.1,23.4c-4.8,9.4-5.2,15.6-7.5,15.5c-2.3-0.1-4.7-6.4-4.5-12.2c0.3-6.9,4.2-12.4,9.5-19.8
			c4-5.5,4.7-5,5.7-7.8c2-5.2,1.2-11,0.1-20.4c-1.7-14.1,25.5-15.1,30.4-22.1C186.1,155.4,189.6,157.8,203.2,161.7z"/>
		<path d="M209.1,188.5c0.3-0.1,0.6,0,0.8,0.2c0.9,0.9,2.1,1.1,3.3,0.4c0.9-0.6,1.5-1.8,1.2-2.8c-0.3-1.2-1.3-2-2.5-2.1
			c-1.2,0-2.2,0.7-2.6,1.9c-0.1,0.4-0.3,0.5-0.6,0.5c-2.8,0.4-5.3-0.4-7.7-1.6l0,0l0,0c-1-0.5-1.8-1.1-2.7-1.8
			c-0.3-0.2-0.3-0.4-0.2-0.8c0.9-2.4,0.5-4.6-1.2-6.5c-1.4-1.5-3-2.2-5-2.2c-0.1,0-0.4,0-0.4,0c-0.2,0-0.4-0.1-0.5-0.3
			c-1-2.4-1.9-4.9-2.8-7.4c-0.1-0.2-0.2-0.5-0.3-0.7l0,0c-0.6-1.4-1.1-2.8-1.6-4.1l-0.1-0.1c-0.1-0.4-0.3-0.7-0.4-1.1
			c-0.1-0.2-0.2-0.3-0.3-0.4c-1,0.6-2,1.3-2.9,2.2c0.5,1.3,1,2.5,1.6,3.8l0,0c0.2,0.3,0.2,0.5,0.3,0.7c0.8,1.9,1.5,3.7,2.2,5.5
			c0.4,1.1,0.8,2.1,1.2,3.1c0.2,0.3,0.1,0.5-0.1,0.8c-3.1,3.4-1.8,8.7,2.6,10.3c1,0.3,2,0.4,3,0.3c1.5-0.3,2.6-0.8,3.6-1.8
			c0.2-0.2,0.3-0.2,0.7,0c0.2,0.1,0.4,0.2,0.5,0.4l0,0c0.2,0.1,0.4,0.2,0.5,0.4l0,0c0.2,0.1,0.4,0.2,0.6,0.4l0,0
			c0.2,0.1,0.4,0.2,0.5,0.3l0,0l0,0c2.1,1.3,4.3,2.2,6.9,2.5C207,188.7,208,188.7,209.1,188.5z"/>
	</g>
</g>
</svg>
