<?xml version="1.0" encoding="utf-8"?>
<!-- Generator: Adobe Illustrator 22.1.0, SVG Export Plug-In . SVG Version: 6.00 Build 0)  -->
<svg version="1.1" id="Layer_1" xmlns="http://www.w3.org/2000/svg" xmlns:xlink="http://www.w3.org/1999/xlink" x="0px" y="0px"
	 viewBox="0 0 569 440" style="enable-background:new 0 0 569 440;" xml:space="preserve">
<style type="text/css">
	.st0{opacity:0.2;fill:url(#SVGID_1_);enable-background:new    ;}
	.st1{fill:#E2AE5A;}
	.st2{fill:#FFFFFF;}
	.st3{fill:#F0EDF3;}
	.st4{fill:#CDCCCE;}
	.st5{fill:#E7E6E8;}
	.st6{fill:#D25D60;}
	.st7{fill:#E5A866;}
	.st8{fill:#9FC768;}
	.st9{opacity:0.6;clip-path:url(#SVGID_3_);}
	.st10{fill:url(#SVGID_4_);}
	.st11{clip-path:url(#SVGID_3_);}
	.st12{opacity:0.3;fill:url(#SVGID_5_);enable-background:new    ;}
	.st13{clip-path:url(#SVGID_7_);}
	.st14{fill:#FFBA0A;}
	.st15{fill:#FF4949;}
	.st16{fill:#F1D2C4;}
	.st17{fill:#161303;}
	.st18{fill:#2708A0;}
	.st19{fill:#FFC950;}
	.st20{fill:#F94110;}
	.st21{fill:#465FE9;}
	.st22{fill:#2233A3;}
	.st23{fill:#000C59;}
	.st24{fill:#FDD4C6;}
	.st25{fill:#FF3D2B;}
	.st26{fill:#FBD2C4;}
	.st27{opacity:0.3;fill:url(#SVGID_8_);enable-background:new    ;}
	.st28{clip-path:url(#SVGID_10_);}
	.st29{fill:#5BB702;}
	.st30{fill:#FFB400;}
	.st31{fill:#F6511D;}
	.st32{fill:#100B00;}
	.st33{fill:#2C15B7;}
</style>
<linearGradient id="SVGID_1_" gradientUnits="userSpaceOnUse" x1="279.6644" y1="449.3894" x2="279.6644" y2="865.1658" gradientTransform="matrix(1 0 0 -1 0 878)">
	<stop  offset="0" style="stop-color:#FFFFFF;stop-opacity:0"/>
	<stop  offset="2.168840e-02" style="stop-color:#F6FCFE;stop-opacity:2.168840e-02"/>
	<stop  offset="0.1827" style="stop-color:#B6E5FA;stop-opacity:0.1827"/>
	<stop  offset="0.3416" style="stop-color:#7ED2F6;stop-opacity:0.3416"/>
	<stop  offset="0.4944" style="stop-color:#51C2F3;stop-opacity:0.4944"/>
	<stop  offset="0.64" style="stop-color:#2EB6F0;stop-opacity:0.64"/>
	<stop  offset="0.7764" style="stop-color:#15ADEE;stop-opacity:0.7764"/>
	<stop  offset="0.9001" style="stop-color:#05A8ED;stop-opacity:0.9001"/>
	<stop  offset="1" style="stop-color:#00A6ED"/>
</linearGradient>
<path class="st0" d="M27.7,327.9C-16.7,222.1,92.4,14.4,162.2,12.8c81.3-1.7,31.8,147.6,194.6,151.1
	c99.6,2.2,193.4,124.9,184.5,173.5C524.2,430.3,95.1,488.6,27.7,327.9z"/>
<g>
	<path class="st1" d="M205,51.3L205,51.3C205,51.3,205,51.2,205,51.3L205,51.3z"/>
</g>
<g>
	<g>
		<rect x="254.9" y="338.6" class="st2" width="110" height="51.3"/>
	</g>
	<rect x="254.9" y="338.6" class="st3" width="110" height="51.3"/>
	<g>
		<polygon class="st4" points="254.9,354.7 364.8,354.7 364.8,342.4 358.7,337 261,337 254.9,342.4 		"/>
	</g>
	<g>
		<rect x="239.4" y="382.7" class="st5" width="140.9" height="10.3"/>
	</g>
	<g>
		<path class="st5" d="M96.1,315.8v17.8c0,5.9,4.9,10.6,10.6,10.6H513c5.9,0,10.6-4.9,10.6-10.6v-17.8H96.1z"/>
	</g>
	<g>
		<path class="st3" d="M513,78.7H106.7c-5.9,0-10.6,4.9-10.6,10.6v226.8h427.5V89.3C523.6,83.4,518.7,78.7,513,78.7z"/>
	</g>
	<g>
		<polygon class="st3" points="112.1,174.8 112.1,94.4 507.6,94.4 507.6,143.9 		"/>
	</g>
	<g>
		<rect x="112.1" y="94.4" class="st3" width="395.6" height="10.1"/>
	</g>
	<g>
		<path class="st6" d="M121.9,99.4c0,1.4-1.3,2.7-2.7,2.7s-2.7-1.3-2.7-2.7c0-1.4,1.3-2.7,2.7-2.7S121.9,98,121.9,99.4z"/>
	</g>
	<g>
		<path class="st7" d="M131.4,99.4c0,1.4-1.3,2.7-2.7,2.7c-1.4,0-2.7-1.3-2.7-2.7c0-1.4,1.3-2.7,2.7-2.7
			C130.1,96.7,131.4,98,131.4,99.4z"/>
	</g>
	<g>
		<path class="st8" d="M141.1,99.4c0,1.4-1.3,2.7-2.7,2.7c-1.4,0-2.7-1.3-2.7-2.7c0-1.4,1.3-2.7,2.7-2.7
			C140,96.7,141.1,98,141.1,99.4z"/>
	</g>
	<rect x="112.9" y="114.7" class="st2" width="394.4" height="186.5"/>
	<g>
		<g>
			<defs>
				<rect id="SVGID_2_" x="112.9" y="114.7" width="394.4" height="186.5"/>
			</defs>
			<clipPath id="SVGID_3_">
				<use xlink:href="#SVGID_2_"  style="overflow:visible;"/>
			</clipPath>
			<g class="st9">
				
					<linearGradient id="SVGID_4_" gradientUnits="userSpaceOnUse" x1="7950.4258" y1="-372.2822" x2="7950.4258" y2="-577.1604" gradientTransform="matrix(0.9988 4.948876e-02 -4.948876e-02 0.9988 -7670.7764 333.8826)">
					<stop  offset="0" style="stop-color:#FFFFFF;stop-opacity:0"/>
					<stop  offset="2.168840e-02" style="stop-color:#F6FCFE;stop-opacity:2.168840e-02"/>
					<stop  offset="1" style="stop-color:#7DB52B"/>
				</linearGradient>
				<path class="st10" d="M58.9,274.5c-14.6-47.4,40.3-132.9,72.3-132c39.7,1.3,12.4,64,91.8,69.5c33.6,2.4,37.8,78.1,86.3,78.9
					c40.6,0.8,56.6-91.2,123.7-100c0.5,0,0.9-0.2,1.4-0.2c46.9-4.9,102.6,73.6,93.4,107.8C506.2,378,91.2,379.5,58.9,274.5z"/>
			</g>
			<g class="st11">
				<linearGradient id="SVGID_5_" gradientUnits="userSpaceOnUse" x1="287.1171" y1="211.8251" x2="449.395" y2="211.8251">
					<stop  offset="0" style="stop-color:#FFFFFF;stop-opacity:0"/>
					<stop  offset="2.168840e-02" style="stop-color:#F6FCFE;stop-opacity:2.168840e-02"/>
					<stop  offset="0.1827" style="stop-color:#B6E5FA;stop-opacity:0.1827"/>
					<stop  offset="0.3416" style="stop-color:#7ED2F6;stop-opacity:0.3416"/>
					<stop  offset="0.4944" style="stop-color:#51C2F3;stop-opacity:0.4944"/>
					<stop  offset="0.64" style="stop-color:#2EB6F0;stop-opacity:0.64"/>
					<stop  offset="0.7764" style="stop-color:#15ADEE;stop-opacity:0.7764"/>
					<stop  offset="0.9001" style="stop-color:#05A8ED;stop-opacity:0.9001"/>
					<stop  offset="1" style="stop-color:#00A6ED"/>
				</linearGradient>
				<circle class="st12" cx="368.3" cy="211.8" r="81.1"/>
				<g>
					<defs>
						<circle id="SVGID_6_" cx="368.3" cy="211.8" r="81.1"/>
					</defs>
					<clipPath id="SVGID_7_">
						<use xlink:href="#SVGID_6_"  style="overflow:visible;"/>
					</clipPath>
					<g class="st13">
						<path class="st2" d="M389.6,318.9c-6.5,0-13.1,0-19.6,0c-5.1,0-10.1,0-15.1,0c2.5-21.4,5.1-42.9,7.6-64.4
							c0,0,3.1-25.5,2.8-25.7c-0.5-0.5,5.8-2.3,6.1-5.2c0-0.2,0.1-0.9,0.3-0.9c0.4-0.1,0.6,2.9,2.7,4.4c0.3,0.2,1,0.7,2.7,0.9
							c4.5,0.5,11-2,12.5-2.6l-1.6,8.4C388.5,262.2,389,290.5,389.6,318.9z"/>
						<path class="st14" d="M371.9,227.1c-2.1,4.3-3.8,27.6-3.4,35.2c0.4,7.7,0.7,26.8-0.4,39.9c-0.5,7-12.9,44.4-12.9,44.4
							s-9.6-3.7-10-10.1c-0.5-7.8,16.5-31.9,11.7-76.5c-1.3-11.7,3.1-29.1,5.4-33.5c2.3-4.4,4.7-6.7,4.7-6.7l4.1,0.5L371.9,227.1z"
							/>
						<path class="st15" d="M375.5,221.5c-3.6,6.1-4.3,7.8-4.3,7.8s-2.5-1.2-4.7-0.9c0,0,4.3-9.1,7.9-10.7
							C378.2,216.1,375.5,221.5,375.5,221.5z"/>
						<path class="st16" d="M389.7,219.2c-12.7-3.7,7-20.3-7.5-24.7c-14.5-4.4-18.6,17.3-16.7,21.3c1.8,3.9,7.2,0.4,8,4.3
							c0.1,0.5,0.1,4.8,0.3,5.3c0.4,3.3,1.4,4.3,4.7,4.4l0,0c2.7,0.1,5.3-0.4,7.8-1.6l3.6-1.6L389.7,219.2z"/>
						<path class="st17" d="M369.3,199.2c2-1.1,4.4-1.5,4.8-0.3c0.4,1.2,2.9-0.5,4.7,0.9c1.8,1.4-0.1,8.4,1.1,8.7
							c1.3,0.4,3.2-0.8,3.4,1.4c0.3,2.2-3.4,3.5-3.4,3.5s0.9,4.8,4.4,3.4c3.5-1.4,6.1-3.6,7.5-7.6c1.5-4.1,1.7-11.4-4.8-15
							c-6.6-3.6-11.5-2-14.8-0.9C369.1,194.3,369.3,199.2,369.3,199.2z"/>
						<g>
							<polygon class="st2" points="382,407.8 385.4,414.7 389.8,408.4 388.8,404.7 385.3,403 							"/>
							<polygon class="st2" points="338.1,421.7 344.2,418.4 344.5,414.5 336.5,412.8 							"/>
							<path class="st18" d="M381.3,327.8c-5.7,17.6-18.2,10.5-20.7,18.2c-4.4,12.5,22.1,62.8,22.1,62.8c3.6-4.4,4.9-4.7,6.2-4.2
								c0,0-2-50.4-0.2-56.1c2-6.3,33.7-1,34.3-5.5c1.2-9-1.3-16.5-1.3-16.5c-7.1-6.7-14.1-13.4-21.3-20.1
								C394,313.5,387.6,320.7,381.3,327.8z"/>
							<path class="st17" d="M390.1,407.8c-1.5-1.2-4,1.9-9.6,6.5c-4.2,3.5-12.5,6.3-11.2,7.7c1.4,1.4,21.4-2.8,22.6-8.7
								C392.2,412.5,390.9,408.4,390.1,407.8z"/>
							<path class="st18" d="M412.3,316c-44.2-4.7-80.9,2.8-89.5,23c-2.4,5.5-3.6,11.1-1.9,21.2c2.1,11.6,15.7,56.1,15.7,56.1
								c3.3-0.9,5.3-0.9,7.9-0.9c0,0-2.5-45.8,1.6-59.3c4-13.3,30.8-10.8,46.6-11.3c4.4-3,11.7-9,16.4-19
								C410.7,322,411.6,318.8,412.3,316z"/>
							<path class="st17" d="M323.2,429.7c17.6-4.2,23.9-5.7,24.7-5.9c0.8-0.3-0.6-4.6-2.4-6.8c0,0-5.5,2.8-9.5,4.8
								c-4,2-11.9,4.9-13.3,5.4C321.2,427.7,322,430,323.2,429.7z"/>
						</g>
						<path class="st14" d="M382.7,232.3c0,0,7.5,109.4,4.4,122.3c0,0,36.1-8.6,38.3-18.3c7.9-34-6-95.2-19.4-104.9
							c-12.1-8.8-14.9-10.4-14.9-10.4l-2.8,10.4L382.7,232.3z"/>
						<path class="st15" d="M393.6,221.1c-1,5.1-1.3,7-5.9,12.5c0,0-4.2-1.5-5.1-1.3c0,0,2.7-3.1,5.3-8c1.7-3,1.7-5.1,1.7-5.1
							L393.6,221.1z"/>
						<g>
							<path class="st19" d="M404.5,298.2c0,0-12.4-38.7-16.6-52.3c-2.1-6.6,14.1-20.5,22.8-4.6c6.1,11,7.3,42.3,7.4,50.6
								c0.1,1.7-5.5,14.5-7,19l-7.9-2.9L404.5,298.2z"/>
							<path class="st16" d="M394.3,349.8l2-9.3c0,0-2,1-3.5,1.2c-1.4,0.3-2.4-1.1-0.6-1.6c1.8-0.5,4.9-3.7,4.9-3.7l6.1-28.6
								l7.9,2.9c-3.8,9.8-10.1,23.4-10.3,26.2C399.4,352.5,394.3,349.8,394.3,349.8z"/>
							<polygon class="st19" points="404.3,300 413.8,303.6 410.6,312.1 402.6,309.2 							"/>
						</g>
					</g>
					<g class="st13">
						<path class="st16" d="M339.2,383.1l-1.2,5.7c0,0-0.5,2.5-0.9,3.5c-0.4,1-3.6,2.7-3.6,2.7l0.2,3.6l8.9-2.2c0,0,0.6-0.5,0.4-1.7
							s0.6-4,0.6-4l1.6-4.5L339.2,383.1z"/>
						<path class="st14" d="M314.3,398.9c0-0.1,0.1-0.8,0.1-0.9c0.6-2,19-3,19-3c0.2,0.6,6.8,2,9.4-0.5c0,0,0.1,2.8,0.2,4.1
							c0.2,3.6-5,4.8-9.6,4.4C329.4,402.4,314.7,401,314.3,398.9z"/>
						<path class="st16" d="M332.9,416.9c0,0-2.1,4-3,5.2c-3.7,5.3-7,9.9-7,9.9l9.5-1c0,0,0.8-0.6,1-1.8c0.3-1.2,4.3-6.8,4.3-6.8
							L332.9,416.9z"/>
						<path class="st14" d="M303.7,430.4c0-0.1,0.3-0.8,0.4-0.9c1.2-1.8,21.5-1,21.5-1c-0.2,1.3,6,2.6,7.9,0.7c0,0-0.8,3.1-1.1,4.2
							c-0.9,3.5-4.7,3.6-9.1,2.8C319,435.3,303.3,432.5,303.7,430.4z"/>
						<path class="st20" d="M322.4,317.8c0,0-33.5-15.5-51.2-15.8c-9.1-0.2-12.2,58.4-14.7,62.8c-2.3,1.2-7.7-1.2-7.7-1.2
							s-0.2-65.6,5.4-75.2c8.5-14.5,51.9-7.8,80,0.8L322.4,317.8z"/>
						<path class="st20" d="M332.8,293.5c0,0-12.2,6.4-16.4,8.5c-12.6,6.1-33.5,24.7-39.8,30.9c-3.7,3.6-33.1,60.8-33.1,60.8
							c-1,1.7,4.4,4.1,6.2,2.8c0,0,30.3-37.7,37.9-46.8c4.7-5.5,51.4-13.3,60.7-28.9C363.5,295,332.8,293.5,332.8,293.5z"/>
						<path class="st18" d="M345.1,309.5l-10.9,13.7c0,0-27.2-27-22.1-34.1c4.4-6.1,6.5-14.9,8.2-22.9c3.3-15.7,3.1-30.4,3.6-31.5
							c3.9-10.1,18.5-23.2,32.7,0.8c15.2,25.6,20.2,41.6,8.8,68.5c-13.7,32.3-27.8,22.5-27.8,22.5L345.1,309.5z"/>
						<path class="st16" d="M316.4,215.4c5.8,3.4,5.1,6.9,10.7,8c5.6,1.2,4.5,4.5,5.2,8.5c0.5,4-3.6,10.2-5.3,8.4
							c-2.6-2.8-2-6-5.5-6.5c-3.6-0.6-4.6,1.2-7.7,0.3c-3-0.9-5.1-2.2-4.3-18C309.5,216.2,310.7,212,316.4,215.4z"/>
						<path class="st20" d="M341.8,220.3c4.8,5.9,28.9,5,28.4,17.6s-1.1,18.2,7,24.6c9.6,7.7,10.8,23.9,2.5,31.8
							c-5.4,5-7.3-4.4-10.7-0.3c0,0,3.4-14,1.2-26.6c-1.3-7.7-7.7-22-11.9-28.2c-4.2-6.2-10.8-0.9-16.2,3.8
							c-6,5.2-13.5,4.3-12.5-4.5c1.1-8.8-9.3-10.3-6.6-10.9c1.9-0.4,2.7-7.3-3.5-4.4c0,0-4-4-7.9-5.4c-2.8-1-7.9-5.6,0.8-8.8
							C324.4,204.5,327.2,202.2,341.8,220.3z"/>
						<path class="st16" d="M341.6,264.7l-9.7-1.4c0,0-11,12.6-17.1,18.2c-8.6,8-32.7-2.5-35.1-3.9c-3.8-2.5-6.6-1.9-6.6-1.9
							c-3,0.2-8.3,3.4-9,3.9c-0.7,0.4-4.1,3.7,1.8,1.7c5.9-2,12.9,5.1,33.1,10s26.4-2.8,42.9-18.1L341.6,264.7z"/>
						<path class="st2" d="M355.5,258.5c-2.7,6.6-13.5,14.7-13.5,14.7c0.8-6.1-10.1-10.1-10.1-10.1s11.5-19.7,19-24.7
							C355.1,235.5,358.2,252,355.5,258.5z"/>
					</g>
					<g class="st13">
						<g>
							<polygon class="st2" points="378.9,429.4 380,432.2 380.3,434.2 386.9,430.7 386.6,429.6 385.6,427.4 378.5,420.7 							"/>
							<polygon class="st2" points="408.2,389.3 425.4,343.6 408.3,380.8 402.5,385.1 401.6,388.1 406.5,393.7 							"/>
							<path class="st21" d="M406,308.2c-7.6,16.4,11.7,23.6,8.2,30.6c-5.6,11.6-11.7,46.3-11.7,46.3c1.4-1.5,6.1,1.2,5.7,4.2
								c0,0,26.1-48.1,28.5-53.3c2.8-5.9,9.9-8.5,9.7-12.9c-0.4-8.2-1.2-11.3-1.2-11.3l-23.6-27.7L406,308.2z"/>
							<path class="st22" d="M401.7,387.5c1.8-0.6,4.8,2,6.7,8.8c1.9,6.8,10.9,19,5.6,21.5c-1.8,0.8-16.9-23.7-15.7-25.9
								c0.1-0.1,0.2-0.3,0.2-0.4C399.7,389.5,400.7,387.9,401.7,387.5z"/>
							<path class="st23" d="M413.9,417.8c-1.9,1.7-15.2-20.6-15.7-22.1c-0.4-1.6-0.8-2.8,0-3.8c0.9-1,3.6-0.2,5.2,2.8
								C404.3,396,417.6,414.6,413.9,417.8z"/>
							<path class="st21" d="M395.4,291.1c-18.9,27.8-34.5,55.7-32.9,83.1c0.6,11.5,16.5,55.3,16.5,55.3c0.8-3.3,6.1-3.5,6.7-2
								c0,0-9.9-49.3-4.4-61.8c5.4-12.4,28-33.6,34.8-40.3c0,0,14.4-15.2,14.9-29.2C431.3,282.1,395.4,291.1,395.4,291.1z"/>
							<path class="st22" d="M438.5,271.5c-2.8-14.5-3-20.1-4.6-27.3c-0.8-3.6-0.7-6.1-2.3-8.5c-5.4-7.8-19.8-6.7-26.6-5.7
								c-0.4,0.2-1.1,0.6-1.9,1.2c-13.4,9.2-16.3,30.3-16.3,30.3l0,0c0,0-4.2,40.8-6.7,51.2c0,0,11.7-4.5,22.9-6
								c8.6-1.2,21.1,0.8,21.1,0.8l2.3-14.1l1.2,14.8c0,0,12,1.1,17.4,3.6C445,311.7,442.3,290.8,438.5,271.5z"/>
							<path class="st24" d="M410.9,204.4c-4.4,4.6-10.6,15.5-6.3,19.3c4.5,4,0.6,7.4,0.6,7.4s5.9-0.9,10.3-1.4
								c4-0.5,2.7-4.5,4.1-6.7c3.5-5.2,6.7-9.2,4.4-13.3C420.8,203.9,413.7,201.5,410.9,204.4z"/>
							<path class="st2" d="M406.4,229l-3.3,2c0,0,7.4,0.2,11.7-1c2.4-0.6,3.3-1.3,3.6-2c0,0-5-1.2-6.9-0.1
								C409.5,229,406.4,229,406.4,229z"/>
							<path class="st25" d="M413.3,200.8c-3.5,0.8-5.4,6.1-4,12.8c0,0,3.7-1.4,4.3,2.5c0.6,4.6-2.4,3.7-2.1,4.4
								c1.9,6.1,0,5,1.3,5.9c2.1,1.3,6,2.8,7.5,1.5c1.6-1.2,1.6-4.4,4.4-7.6c2.8-3.3,5.2-8.1,2.9-12.1
								C425.2,204.2,417.6,199.8,413.3,200.8z"/>
							<path class="st22" d="M381.5,437.8c3.7-2,7.5-1.6,7.5-1.6c-0.3-3.5-2.4-6.6-2.4-6.6c-0.1-1.2-5,0.7-6.6,2.6
								c-3,3.5-11.7,8.9-12.3,13.6c-0.1,0.6,0.2,2,0.3,1.9C370.2,444.1,374.9,441.4,381.5,437.8z"/>
							<path class="st23" d="M368,447.6c0,1.2,11.1-5.9,15.2-6.8c4.1-0.9,6.1-3.9,5.8-4.6c-0.3-0.7-2.7-0.5-5.1,0.4s-9.7,5-11.1,6.1
								C371.4,443.8,368.1,446.8,368,447.6z"/>
						</g>
						<g>
							<path class="st26" d="M407.8,272.7c-7.1,17.9-11.1,25.4-27.9,31.5c-16.7,6.1-18.6,7.8-22.3,11.6c-3.9,3.7-7.8-4.4-5.5-6
								c0.6-0.4,3.9-1.2,6.2-2.5c0,0,3.2-1.7,8.9-4.2c2.1-0.9,22.3-10.9,23.5-14.5c2.3-6.7,5.5-19.9,5.5-19.9l8.1-2.5L407.8,272.7z"
								/>
							<path class="st18" d="M401.9,242.5c-4.3,0.9-5.6,15.4-6,18.4c-0.1,0.9-0.6,4.5-1.4,11.8c-0.3,2.3-0.4,3.6-1,5.1
								c-1.4,3.8-4.1,6-5.7,7.7c-6,6.1-12.6,10.7-17.7,13.9c0.8-0.2,2.4-0.3,3.9,0.5c2.4,1.3,3.8,4.7,3,8.4
								c3.1-0.8,7.5-2.4,12.3-5.3c15.5-9.4,28.5-29.5,23.7-46.5C410.8,248.8,405.1,241.8,401.9,242.5z"/>
						</g>
					</g>
				</g>
			</g>
			<g class="st11">
				<linearGradient id="SVGID_8_" gradientUnits="userSpaceOnUse" x1="173.0591" y1="229.646" x2="301.3803" y2="229.646">
					<stop  offset="0" style="stop-color:#FFFFFF;stop-opacity:0"/>
					<stop  offset="2.168840e-02" style="stop-color:#F6FCFE;stop-opacity:2.168840e-02"/>
					<stop  offset="0.1827" style="stop-color:#B6E5FA;stop-opacity:0.1827"/>
					<stop  offset="0.3416" style="stop-color:#7ED2F6;stop-opacity:0.3416"/>
					<stop  offset="0.4944" style="stop-color:#51C2F3;stop-opacity:0.4944"/>
					<stop  offset="0.64" style="stop-color:#2EB6F0;stop-opacity:0.64"/>
					<stop  offset="0.7764" style="stop-color:#15ADEE;stop-opacity:0.7764"/>
					<stop  offset="0.9001" style="stop-color:#05A8ED;stop-opacity:0.9001"/>
					<stop  offset="1" style="stop-color:#00A6ED"/>
				</linearGradient>
				<circle class="st27" cx="237.2" cy="229.6" r="64.2"/>
				<g>
					<defs>
						<circle id="SVGID_9_" cx="237.2" cy="229.6" r="64.2"/>
					</defs>
					<clipPath id="SVGID_10_">
						<use xlink:href="#SVGID_9_"  style="overflow:visible;"/>
					</clipPath>
					<g class="st28">
						<g>
							<g>
								<g>
									<path class="st26" d="M223.1,290.8c-0.3-1.7-4.3-9.3-6.9-14.9l4.5-2l4.5,16.4c0,0,2,1.8,3,2c1,0.3,0.5,1-0.3,0.9
										s-2-0.6-2-0.6l1.4,5.3C227.4,297.9,224.5,299.7,223.1,290.8z"/>
									<polygon class="st14" points="221.1,274.6 216.6,276.7 214.4,271.8 219.9,269.4 									"/>
								</g>
								<g>
									<polygon class="st2" points="216.8,380.4 216.4,382.6 216.4,383.7 213.9,384.9 211.6,382.1 211.9,380 									"/>
									<path class="st2" d="M193.1,379.4c0,0-1.2,3.3-1.3,3.3c-0.2,0.1-2.1,1-2.1,1l-2.5-2.4l0.4-2.1L193.1,379.4z"/>
									<path class="st29" d="M207.2,279.5l5,23.4c0,0-0.3,20.7-2.4,31.1c-1.7,8.2-9.2,29.4-15,45.7c-0.7,1.7-7.8,1.4-7.5-0.5
										c3.7-21.7,6.4-35.4,5.4-45.5c-1.9-18.7-4.6-25.7-5.8-51.3L207.2,279.5z"/>
									<path class="st29" d="M196,281.4l6.3,21.5c0,0,6,11.4,8.6,19.4c3.1,9.4,1.5,34.2,0.6,57.5c-0.1,1.6,6.2,2,6.4,0.4
										c4.1-25.4,8.7-37.5,7.9-51.9c-0.5-10.1-1-28.4-10.1-52.4L196,281.4z"/>
									<path class="st2" d="M202.3,243.8l-0.9-4.9c0,0,4.2,3.1,7.3,3c3.1-0.1,3.1-1.9,3.1-3.7c0-1.8,3.8,2.5,3.7,2.6
										s1.7,15,1.7,15l-1.7,30.2c0,0-2.4,3.9-13.8,3.2L202.3,243.8z"/>
									<path class="st18" d="M212,235.9l2.4-0.3c0,0,1.4,1.3,2.7,3.9c1.3,2.5,3.9,12.7,3.2,19.5c-2.8,25.9,7.1,39.9,6.8,44.5
										c-0.3,3.7-5.8,5.9-5.8,5.9s-7.1-21.7-7.5-25.8c-0.6-7.7-0.5-18.8-0.3-23.2c0.2-4.4-0.7-18-2-20.5L212,235.9z"/>
									<path class="st18" d="M201.9,242.3l-1.6-6.1c0,0-1.7,0.9-8.7,6.1c-7.8,5.7-15.8,41.3-11.3,61c1.3,5.7,22.3,10.7,22.3,10.7
										c-1.7-7.5,2.6-71.1,2.6-71.1L201.9,242.3z"/>
									<path class="st30" d="M210.2,234.4c2.1,0.9,4.6,6.2,4.6,6.2c-1.3-0.2-2.7,0.5-2.7,0.5s-0.4-1-2.5-4.6
										C209.5,236.6,207.9,233.5,210.2,234.4z"/>
									<path class="st16" d="M201.2,239.5l2.1,0.9c1.4,0.7,3,1,4.6,0.9l0,0c1.9-0.1,2.4-0.6,2.7-2.5c0.1-0.3,0.1-2.8,0.2-3.1
										c0.5-2.2,3.6-0.2,4.7-2.5c1.1-2.3-1.3-15-9.7-12.4c-8.4,2.6,3.1,12.2-4.3,14.4L201.2,239.5z"/>
									<path class="st30" d="M201.3,235.3c0,0,0.1,1.2,1,2.9c1.6,2.8,3.1,4.7,3.1,4.7c-0.5-0.1-2.9,0.8-2.9,0.8
										c-2.6-3.2-2.8-4.4-3.4-7.3L201.3,235.3z"/>
									<path class="st31" d="M211.5,220.2c-1.9-0.7-4.8-1.6-8.6,0.5c-3.8,2.1-3.7,6.4-2.8,8.7c0.8,2.4,2.3,3.6,4.3,4.4
										c2,0.8,2.5-2,2.5-2s-2.1-0.7-2-2c0.2-1.3,1.2-0.6,2-0.8c0.7-0.2-0.4-4.2,0.6-5.1c1-0.8,2.5,0.2,2.7-0.5
										c0.3-0.7,1.7-0.4,2.8,0.2C213.1,223.6,213.2,220.8,211.5,220.2z"/>
									<path class="st32" d="M229.3,389.5c0-0.1,0.1-0.5,0.1-0.6c-0.3-1.3-12.9-6.3-12.9-6.3c-0.2,0.7-3.8,0.3-4.8-0.6
										c0,0-0.3,1.4-0.4,2.1c-0.4,2.1,1.9,2.6,4.4,3.3C218.2,388.1,228.8,390.7,229.3,389.5z"/>
									<path class="st32" d="M198.2,388.9c0-0.1,0.1-0.5,0.1-0.6c-0.3-1.3-6.5-5.6-6.5-5.6c-0.2,0.1-3.9-0.1-4.5-1.7
										c0,0-0.4,2-0.5,2.6c-0.4,2.1,4.1,4.7,5.1,5.1C194.3,389.8,197.8,390.2,198.2,388.9z"/>
								</g>
								<g>
									<path class="st33" d="M192.9,287.8l-4.7,1.7c-0.8-2.6-4-10.1-4-11.1c0.1-4.9,1-23,4.6-29.4c5.1-9.1,14.5-1,13.2,2.8
										c-2.6,7.9-10,30.4-10,30.4L192.9,287.8z"/>
									<path class="st26" d="M194,304.8c-0.2-1.7-3.7-9.6-5.8-15.3l4.7-1.7l3.4,16.6c0,0,1.8,1.9,2.8,2.2c1,0.3,0.5,1.1-0.4,0.9
										c-0.8-0.2-2-0.8-2-0.8l1.1,5.4C197.7,312.2,194.7,313.8,194,304.8z"/>
									<polygon class="st14" points="193.1,288.6 188.5,290.2 186.6,285.3 192.3,283.2 									"/>
								</g>
							</g>
						</g>
						<g>
							<g>
								<g>
									<path class="st19" d="M251.4,289.7l-3,3.5c-1.9-1.8-7.9-6.4-8.3-7.2c-2.1-4-9.7-19.2-9.6-26c0-9.7,11.3-7.4,12.1-3.7
										c1.5,7.6,5.7,29.2,5.7,29.2L251.4,289.7z"/>
									<path class="st26" d="M260.1,303c-0.9-1.3-7.4-6.2-11.7-9.8l3-3.5l10.3,12c0,0,2.4,0.7,3.3,0.5c1-0.2,0.9,0.7,0.2,0.9
										c-0.7,0.2-2,0.3-2,0.3l3.4,3.9C266.6,307.3,264.8,310,260.1,303z"/>
									<polygon class="st19" points="252,290.2 249,293.7 245.2,290.5 248.9,286.3 									"/>
								</g>
								<g>
									<polygon class="st2" points="243.4,386.9 242.9,389 242.9,390 240.6,391.2 238.5,388.6 238.7,386.6 									"/>
									<path class="st2" d="M221.2,386c0,0-1.1,3.1-1.2,3.1c-0.2,0.1-2,0.9-2,0.9l-2.3-2.2l0.4-1.9L221.2,386z"/>
									<path class="st18" d="M234.3,292.8c0.6,7.3,1.1,14.6,1.7,21.9c0.1,10.8-0.4,20.4-1,28.5c-1.9,23.6-3.4,39.9-12.2,43.1
										c-0.4,0.1-4.6,1.6-7-0.5c-5.4-4.7,7-20.4,5.1-42.4c-0.2-2.2-0.8-7-1.4-11.6c-1.4-10.6-2.4-12.9-2.6-18.2
										c-0.2-3.8-0.1-9.5,1.6-16.5C223.8,295.6,229,294.2,234.3,292.8z"/>
									<path class="st18" d="M223.9,294.6l5.8,20.1l0,0c0,0,6.2,14.8,8.3,26.4c4.5,24-6.8,40.9,0.3,45.4c1.8,1.1,4.3,1.1,6,0.4
										c3.7-1.5,6.2-6.7,6.2-47.8c-0.1-15-0.4-19.6-1.3-25.1c-1.7-10.2-4.5-18.6-6.9-24.4L223.9,294.6z"/>
									<path class="st2" d="M229.7,259.5l-0.9-4.5c0,0,4,2.9,6.8,2.8c2.8-0.1,2.8-1.8,2.9-3.4c0-1.7,3.6,2.3,3.5,2.4
										c-0.1,0.1,1.6,13.9,1.6,13.9l-1.6,28.1c0,0-2.2,3.6-12.9,2.9L229.7,259.5z"/>
									<path class="st14" d="M238.8,252.2l2.2-0.3c0,0,1.3,1.2,2.6,3.6c1.2,2.4,3.7,11.8,2.9,18.2c-1.1,10.2-0.4,15.4,0.4,19.7
										c1.3,7.2,2,14.5,3.5,21.7c0.2,0.8,0.7,3.3-0.4,4.1c-1,0.7-2.8-0.3-3.3-0.5c-4.2-2.2-5.7-10.7-6.4-22.1
										c-0.5-9.8-0.7-13-0.2-21.7c0.2-4.1-0.7-16.8-1.9-19.1L238.8,252.2z"/>
									<path class="st14" d="M229.5,258.1l-1.5-5.6c-4.2,1.8-6.7,4-8.1,5.6c-10.7,11.8-0.1,27.5-4.5,47.2c-0.4,1.7-1.7,7,1,11.4
										c0.4,0.6,2.2,3.6,4.7,3.6c3.7,0,6.4-6.7,7.2-8.8c3.6-9,2-16.9,2.5-22.4c0.9-10.7,1.6-20.9,1.8-30.5L229.5,258.1z"/>
									<path class="st32" d="M255,395.4c0-0.1,0.1-0.5,0.1-0.6c-0.3-1.2-12.1-5.9-12.1-5.9c-0.2,0.7-3.5,0.3-4.5-0.5
										c0,0-0.3,1.3-0.4,1.9c-0.4,2,1.8,2.4,4.2,3C244.7,394,254.6,396.6,255,395.4z"/>
									<path class="st32" d="M225.9,394.9c0-0.1,0.1-0.5,0.1-0.6c-0.2-1.2-6.1-5.2-6.1-5.2c-0.2,0.1-3.7-0.1-4.2-1.5
										c0,0-0.4,1.8-0.5,2.4c-0.4,2,3.9,4.3,4.8,4.7C222.4,395.8,225.6,396.1,225.9,394.9z"/>
								</g>
								<g>
									<path class="st19" d="M216.2,300.7l-4.6,0.8c-0.4-2.5-2.1-9.9-1.9-10.8c0.9-4.4,4.6-21,8.8-26.3c6.1-7.6,13.5,1.4,11.7,4.7
										c-3.6,6.9-13.9,26.3-13.9,26.3L216.2,300.7z"/>
									<path class="st26" d="M214.6,316.5c0.2-1.6-1.9-9.4-2.9-15l4.6-0.8l0.5,15.8c0,0,1.4,2,2.3,2.5c0.9,0.5,0.3,1.1-0.5,0.8
										c-0.7-0.3-1.7-1-1.7-1l0.2,5.2C216.9,323.9,213.8,324.9,214.6,316.5z"/>
									<polygon class="st18" points="216.4,301.5 211.8,302.3 210.9,297.4 216.4,296.4 									"/>
								</g>
							</g>
							<g>
								<path class="st26" d="M244.8,239.8c2.9,9.1,1.9,10.2,0.3,11.2s-2.5,0.1-4.6,1c-2,0.9-1.1,2.7-2.2,4.7
									c-0.8,1.4-4.1-1.7-4.4-4.1s-1.4-4.2,1.7-5.8c3.1-1.6,2.2-3.5,5-6.4C243.4,237.5,244.8,239.8,244.8,239.8z"/>
								<path class="st32" d="M241.9,236c5.6,0.5,3.3,4,1.8,5.1c-2.1,1.4-3.8,4.4-3.8,4.4c-4-0.7-2.5,3.2-1.3,3.2
									c1.7-0.1-4.1,2.4-2.2,7.4c0.8,1.9,0.6,3.3-0.1,4.2c-1.2,1.6-4.9-1.1-6.5,0.4c-1.2,1.1-0.7,3.8-0.4,5.4
									c0.5,2.2,1.1,2.4,1,3.6c-0.1,2.4-2.5,3-4.1,5.7c-1.8,3,0.3,4-1,9.8c-0.9,4.1-2.1,3.1-4.5,9.2c-0.3,0.7-0.7,2-1.7,2.2
									c-1.6,0.4-3.4-1.8-3.6-2.1c-4.2-5,0.7-11.3-3.3-17c-1.9-2.7-3.8-2.3-4.5-4.7c-0.6-2.1,0-4.8,4.8-10.9
									c7.3-9.3,10.7-7.6,13.9-14.8C232.2,234.4,234.3,235.3,241.9,236z"/>
							</g>
						</g>
						<g>
							<g>
								<g>
									<path class="st19" d="M252,283.2c-0.2-6.9-0.2-25.1,6.2-32.3c1-1.1,3.3-3.7,5.3-3.1c1.2,0.3,2.4,1.7,3,5.4
										c1.2,7.2-4.3,24.5-5.9,29.2c-0.3,1-5.9,6.8-7.5,9l-3.8-3.2L252,283.2z"/>
									<path class="st16" d="M236.3,309.3l2.9-4.7c0,0-1.3,0.2-2.1,0.1c-0.8-0.1-1.1-1.1,0-1c1.1,0.1,3.4-1.1,3.4-1.1l8.9-14.5
										l3.8,3.2c-4,4.6-10.1,10.9-10.8,12.4C238.7,311.9,236.3,309.3,236.3,309.3z"/>
									<polygon class="st19" points="251.5,284.1 256.1,287.9 252.6,291.9 248.9,288.8 									"/>
								</g>
								<g>
									<polygon class="st2" points="262.7,387.7 263,389.8 260.8,392.6 258.3,391.4 258.2,390.3 257.8,388 									"/>
									<path class="st2" d="M287,387l0.4,2.1l-2.5,2.4c0,0-1.9-0.9-2.1-1c-0.2-0.1-1.3-3.3-1.3-3.3L287,387z"/>
									<path class="st31" d="M287.7,290c-1.2,25.6-3.9,32.6-5.8,51.3c-1,10,1.7,23.7,5.4,45.5c0.3,1.9-6.8,2.2-7.5,0.5
										c-5.8-16.2-13.3-37.5-15-45.7c-2.1-10.5-2.4-31.1-2.4-31.1l5-23.4L287.7,290z"/>
									<path class="st31" d="M258.8,283.6c-9.1,24-9.6,42.3-10.1,52.4c-0.7,14.4,3.8,26.6,7.9,51.9c0.3,1.6,6.5,1.2,6.4-0.4
										c-0.9-23.3-2.4-48.1,0.6-57.5c2.6-8,8.6-19.4,8.6-19.4l6.3-21.5L258.8,283.6z"/>
									<path class="st2" d="M273,296.8c-11.4,0.7-13.8-3.2-13.8-3.2l-1.7-30.2c0,0,1.8-14.9,1.7-15c0.6-0.9,1.8-2.5,3.6-3
										c0.9-0.3,1.2-0.1,1.3,0c0.5,0.5-0.1,1.6,0.4,2.4c0.4,0.6,1.3,0.7,1.9,0.8c2.8,0.3,5.9-1.4,7-2.1l-0.9,4.9L273,296.8z"/>
									<path class="st14" d="M263,247.5c-1.2,2.5-2.2,16-2,20.5c0.2,4.4,0.4,15.6-0.3,23.2c-0.3,4.1-7.5,25.8-7.5,25.8
										s-5.6-2.2-5.8-5.9c-0.3-4.6,9.6-18.6,6.8-44.5c-1-8.9-0.9-14.9,3.2-19.5c1.7-1.9,3.7-3,5.1-3.6L263,247.5z"/>
									<path class="st14" d="M269.3,250.6c0,0,4.3,63.6,2.6,71.1c0,0,21-5,22.3-10.7c4.6-19.8-3.5-55.4-11.3-61
										c-7-5.1-8.7-6.1-8.7-6.1l-1.6,6.1L269.3,250.6z"/>
									<path class="st15" d="M265.1,244.3c-2.1,3.5-2.5,4.6-2.5,4.6s-1.4-0.7-2.7-0.5c0,0,2.5-5.3,4.6-6.2
										C266.7,241.2,265.1,244.3,265.1,244.3z"/>
									<path class="st16" d="M273.3,243c-7.4-2.2,4.1-11.8-4.3-14.4c-8.4-2.6-10.8,10-9.7,12.4c1,2.3,4.2,0.3,4.7,2.5
										c0.1,0.3,0.1,2.8,0.2,3.1c0.3,1.9,0.8,2.5,2.7,2.5l0,0c1.6,0.1,3.1-0.3,4.6-0.9l2.1-0.9L273.3,243z"/>
									<path class="st15" d="M275.6,244.1c-0.6,2.9-0.8,4.1-3.4,7.3c0,0-2.4-0.9-2.9-0.8c0,0,1.6-1.8,3.1-4.7c1-1.8,1-2.9,1-2.9
										L275.6,244.1z"/>
									<path class="st17" d="M261.5,231.3c1.1-0.6,2.5-0.9,2.8-0.2c0.3,0.7,1.7-0.3,2.7,0.5c1,0.8-0.1,4.9,0.6,5.1
										c0.8,0.2,1.9-0.5,2,0.8c0.2,1.3-2,2-2,2s0.5,2.8,2.5,2c2-0.8,3.5-2.1,4.3-4.4c0.9-2.4,1-6.6-2.8-8.7
										c-3.8-2.1-6.7-1.2-8.6-0.5C261.4,228.5,261.5,231.3,261.5,231.3z"/>
									<path class="st17" d="M258.9,395c2.6-0.7,4.9-1.1,4.4-3.3c-0.1-0.6-0.4-2.1-0.4-2.1c-1,0.9-4.6,1.3-4.8,0.6
										c0,0-12.6,5-12.9,6.3c0,0.1,0.1,0.5,0.1,0.6C245.8,398.4,256.4,395.7,258.9,395z"/>
									<path class="st17" d="M282.7,396.4c0.9-0.4,5.5-2.9,5.1-5.1c-0.1-0.6-0.5-2.6-0.5-2.6c-0.6,1.6-4.3,1.7-4.5,1.7
										c0,0-6.2,4.3-6.5,5.6c0,0.1,0.1,0.5,0.1,0.6C276.8,397.9,280.3,397.5,282.7,396.4z"/>
								</g>
								<g>
									<path class="st19" d="M273.9,291.2c0,0-1.2-23.6-1.6-31.9c-0.2-4,11-9.4,13.5,0.8c1.8,7.1-2.2,24.8-3.4,29.5
										c-0.2,1-5.3,7.3-6.8,9.6l-4-2.8L273.9,291.2z"/>
									<path class="st16" d="M260.5,318.7l2.5-4.9c0,0-1.3,0.3-2.1,0.2c-0.8-0.1-1.2-0.9-0.1-1c1.1-0.1,3.4-1.4,3.4-1.4l7.7-15.2
										l4,2.8c-3.6,4.9-9.2,11.7-9.7,13.2C263,321,260.5,318.7,260.5,318.7z"/>
									<polygon class="st15" points="273.5,292.2 278.3,295.6 275.2,299.9 271.2,297.1 									"/>
								</g>
							</g>
						</g>
					</g>
				</g>
			</g>
		</g>
	</g>
</g>
</svg>
