<?xml version="1.0" encoding="utf-8"?>
<!-- Generator: Adobe Illustrator 22.1.0, SVG Export Plug-In . SVG Version: 6.00 Build 0)  -->
<svg version="1.1" id="Layer_1" xmlns="http://www.w3.org/2000/svg" xmlns:xlink="http://www.w3.org/1999/xlink" x="0px" y="0px"
	 viewBox="0 0 618 440" style="enable-background:new 0 0 618 440;" xml:space="preserve">
<style type="text/css">
	.st0{opacity:0.3;fill:url(#SVGID_1_);enable-background:new    ;}
	.st1{fill:#FFFFFF;}
	.st2{fill:#F0EDF3;}
	.st3{fill:#CDCCCE;}
	.st4{fill:#E7E6E8;}
	.st5{fill:#D25D60;}
	.st6{fill:#E5A866;}
	.st7{fill:#9FC768;}
	.st8{opacity:0.3;clip-path:url(#SVGID_3_);}
	.st9{fill:url(#SVGID_4_);}
	.st10{fill:#5BB702;}
	.st11{fill:#161303;}
	.st12{clip-path:url(#SVGID_6_);}
	.st13{fill:#FBD2C4;}
	.st14{fill:#FFBA0A;}
	.st15{fill:#2708A0;}
	.st16{fill:#FFB400;}
	.st17{fill:#F1D2C4;}
	.st18{fill:#F6511D;}
	.st19{fill:#100B00;}
	.st20{fill:#2C15B7;}
</style>
<linearGradient id="SVGID_1_" gradientUnits="userSpaceOnUse" x1="329.0701" y1="81.3369" x2="329.0701" y2="-349.3369" gradientTransform="matrix(1 0 0 1 -30.6739 354)">
	<stop  offset="0" style="stop-color:#FFFFFF;stop-opacity:0"/>
	<stop  offset="2.168840e-02" style="stop-color:#F6FCFE;stop-opacity:2.168840e-02"/>
	<stop  offset="0.1827" style="stop-color:#B6E5FA;stop-opacity:0.1827"/>
	<stop  offset="0.3416" style="stop-color:#7ED2F6;stop-opacity:0.3416"/>
	<stop  offset="0.4944" style="stop-color:#51C2F3;stop-opacity:0.4944"/>
	<stop  offset="0.64" style="stop-color:#2EB6F0;stop-opacity:0.64"/>
	<stop  offset="0.7764" style="stop-color:#15ADEE;stop-opacity:0.7764"/>
	<stop  offset="0.9001" style="stop-color:#05A8ED;stop-opacity:0.9001"/>
	<stop  offset="1" style="stop-color:#00A6ED"/>
</linearGradient>
<path class="st0" d="M17.5,331.1C-31.9,221.4,89.7,6.1,167.5,4.7c90.5-1.8,35.4,152.9,216.9,156.5
	c111.1,2.2,215.6,129.3,205.6,179.7C571,437.1,92.6,497.4,17.5,331.1z"/>
<g>
	<g>
		<rect x="234.5" y="354.2" class="st1" width="105.4" height="49.2"/>
	</g>
	<rect x="234.5" y="354.2" class="st2" width="105.4" height="49.2"/>
	<g>
		<polygon class="st3" points="234.5,369.5 339.9,369.5 339.9,357.8 334,352.6 240.3,352.6 234.5,357.8 		"/>
	</g>
	<g>
		<rect x="219.6" y="396.5" class="st4" width="135" height="9.8"/>
	</g>
	<g>
		<path class="st4" d="M82.4,332.3v17.1c0,5.7,4.7,10.2,10.2,10.2h389.3c5.7,0,10.2-4.7,10.2-10.2v-17.1H82.4z"/>
	</g>
	<g>
		<path class="st2" d="M481.8,105.2H92.5c-5.7,0-10.2,4.7-10.2,10.2v217.3H492V115.3C492,109.6,487.3,105.2,481.8,105.2z"/>
	</g>
	<g>
		<polygon class="st2" points="97.7,197.3 97.7,120.2 476.6,120.2 476.6,167.6 		"/>
	</g>
	<g>
		<rect x="97.7" y="120.2" class="st2" width="379.1" height="9.7"/>
	</g>
	<g>
		<path class="st5" d="M107,125c0,1.4-1.2,2.6-2.6,2.6s-2.6-1.2-2.6-2.6s1.2-2.6,2.6-2.6S107,123.6,107,125z"/>
	</g>
	<g>
		<path class="st6" d="M116.2,125c0,1.4-1.2,2.6-2.6,2.6c-1.4,0-2.6-1.2-2.6-2.6s1.2-2.6,2.6-2.6C115,122.4,116.2,123.6,116.2,125z"
			/>
	</g>
	<g>
		<path class="st7" d="M125.5,125c0,1.4-1.2,2.6-2.6,2.6s-2.6-1.2-2.6-2.6s1.2-2.6,2.6-2.6C124.4,122.4,125.5,123.6,125.5,125z"/>
	</g>
	<rect x="98.4" y="139.7" class="st1" width="377.9" height="178.7"/>
	<g>
		<g>
			<defs>
				<rect id="SVGID_2_" x="98.4" y="139.7" width="377.9" height="178.7"/>
			</defs>
			<clipPath id="SVGID_3_">
				<use xlink:href="#SVGID_2_"  style="overflow:visible;"/>
			</clipPath>
			<g class="st8">
				
					<linearGradient id="SVGID_4_" gradientUnits="userSpaceOnUse" x1="6744.2031" y1="-226.6473" x2="6744.2031" y2="-422.7228" gradientTransform="matrix(0.9988 4.948876e-02 -4.948876e-02 0.9988 -6493.063 332.9909)">
					<stop  offset="0" style="stop-color:#FFFFFF;stop-opacity:0"/>
					<stop  offset="2.168840e-02" style="stop-color:#F6FCFE;stop-opacity:2.168840e-02"/>
					<stop  offset="1" style="stop-color:#7DB52B"/>
				</linearGradient>
				<path class="st9" d="M26.8,362.8c-14.4-45.4,39.9-127.3,71.6-126.4c39.3,1.2,12.3,61.3,90.9,66.6c33.2,2.3,37.4,74.9,85.4,75.6
					c40.2,0.8,56.1-87.4,122.4-95.8c0.5,0,0.9-0.2,1.4-0.2C445,278,500.1,353.2,491,385.9C469.7,461.9,58.8,463.4,26.8,362.8z"/>
			</g>
		</g>
	</g>
</g>
<g>
	<g>
		<path class="st2" d="M362.9,172.5h-6.1v-9.9c0-1.9-1.5-3.4-3.4-3.4c-1.9,0-3.4,1.5-3.4,3.4v9.9h-19.8v-9.9c0-1.9-1.5-3.4-3.4-3.4
			s-3.4,1.5-3.4,3.4v9.9h-19.8v-9.9c0-1.9-1.5-3.4-3.4-3.4c-1.9,0-3.4,1.5-3.4,3.4v9.9h-6.1c-7.1,0-12.9,5.8-12.9,12.9v61
			c0,7.1,5.8,12.9,12.9,12.9h72.4c7.1,0,12.9-5.8,12.9-12.9v-61C375.9,178.4,370,172.5,362.9,172.5z M369,246.5
			c0,3.3-2.7,6.1-6.1,6.1h-72.4c-3.3,0-6.1-2.7-6.1-6.1v-61c0-3.3,2.7-6.1,6.1-6.1h6.1v4.7c0,1.9,1.5,3.4,3.4,3.4
			c1.9,0,3.4-1.5,3.4-3.4v-4.7h19.8v4.7c0,1.9,1.5,3.4,3.4,3.4s3.4-1.5,3.4-3.4v-4.7H350v4.7c0,1.9,1.5,3.4,3.4,3.4s3.4-1.5,3.4-3.4
			v-4.7h6.1c3.3,0,6.1,2.7,6.1,6.1C369,185.5,369,246.5,369,246.5z"/>
		<path class="st10" d="M308.7,235.5H296c-1.9,0-3.4,1.5-3.4,3.4c0,1.9,1.5,3.4,3.4,3.4h12.7c1.9,0,3.4-1.5,3.4-3.4
			C312.1,237,310.6,235.5,308.7,235.5z"/>
		<path class="st2" d="M308.7,219.4H296c-1.9,0-3.4,1.5-3.4,3.4c0,1.9,1.5,3.4,3.4,3.4h12.7c1.9,0,3.4-1.5,3.4-3.4
			C312.1,221,310.6,219.4,308.7,219.4z"/>
		<path class="st2" d="M333.1,203.4h-12.8c-1.9,0-3.4,1.5-3.4,3.4c0,1.9,1.5,3.4,3.4,3.4H333c1.9,0,3.4-1.5,3.4-3.4
			C336.5,205,335,203.4,333.1,203.4z"/>
		<path class="st2" d="M333.1,235.5h-12.8c-1.9,0-3.4,1.5-3.4,3.4c0,1.9,1.5,3.4,3.4,3.4H333c1.9,0,3.4-1.5,3.4-3.4
			C336.5,237,335,235.5,333.1,235.5z"/>
		<path class="st2" d="M333.1,219.4h-12.8c-1.9,0-3.4,1.5-3.4,3.4c0,1.9,1.5,3.4,3.4,3.4H333c1.9,0,3.4-1.5,3.4-3.4
			C336.5,221,335,219.4,333.1,219.4z"/>
		<path class="st2" d="M357.5,203.4h-12.7c-1.9,0-3.4,1.5-3.4,3.4c0,1.9,1.5,3.4,3.4,3.4h12.7c1.9,0,3.4-1.5,3.4-3.4
			C360.9,205,359.4,203.4,357.5,203.4z"/>
		<path class="st2" d="M357.5,235.5h-12.7c-1.9,0-3.4,1.5-3.4,3.4c0,1.9,1.5,3.4,3.4,3.4h12.7c1.9,0,3.4-1.5,3.4-3.4
			C360.9,237,359.4,235.5,357.5,235.5z"/>
		<path class="st2" d="M357.5,219.4h-12.7c-1.9,0-3.4,1.5-3.4,3.4c0,1.9,1.5,3.4,3.4,3.4h12.7c1.9,0,3.4-1.5,3.4-3.4
			C360.9,221,359.4,219.4,357.5,219.4z"/>
	</g>
	<g transform="translate(-30 -320)">
		<polygon class="st11" points="357.3,580.8 332.3,558.9 332.3,592.1 341.4,585.5 347.9,600 352.9,597.8 346.4,583.3 		"/>
	</g>
</g>
<g>
	<g>
		<g>
			<path class="st2" d="M258,176.4l-63-0.2c-1.1,0-2-0.9-2-2l0,0c0-1.1,0.9-2,2-2l63,0.2c1.1,0,2,0.9,2,2l0,0
				C260,175.5,259.1,176.4,258,176.4z"/>
			<path class="st2" d="M237.8,186.3l-42.8-0.1c-1.1,0-2-0.9-2-2l0,0c0-1.1,0.9-2,2-2l42.8,0.1c1.1,0,2,0.9,2,2l0,0
				C239.8,185.4,238.9,186.3,237.8,186.3z"/>
			<path class="st2" d="M207.9,196.2l-13,0c-1.1,0-2-0.9-2-2l0,0c0-1.1,0.9-2,2-2l13,0c1.1,0,2,0.9,2,2l0,0
				C209.9,195.3,209,196.2,207.9,196.2z"/>
			<path class="st2" d="M243.4,206.3l-48.5-0.1c-1.1,0-2-0.9-2-2v0c0-1.1,0.9-2,2-2l48.5,0.1c1.1,0,2,0.9,2,2v0
				C245.4,205.4,244.5,206.3,243.4,206.3z"/>
		</g>
		<g>
			<path class="st2" d="M257.9,216.4l-63-0.2c-1.1,0-2-0.9-2-2v0c0-1.1,0.9-2,2-2l63,0.2c1.1,0,2,0.9,2,2l0,0
				C259.9,215.5,259,216.4,257.9,216.4z"/>
			<path class="st2" d="M237.7,226.3l-42.8-0.1c-1.1,0-2-0.9-2-2l0,0c0-1.1,0.9-2,2-2l42.8,0.1c1.1,0,2,0.9,2,2l0,0
				C239.7,225.4,238.8,226.3,237.7,226.3z"/>
			<path class="st2" d="M207.8,236.2l-13,0c-1.1,0-2-0.9-2-2l0,0c0-1.1,0.9-2,2-2l13,0c1.1,0,2,0.9,2,2l0,0
				C209.8,235.3,208.9,236.2,207.8,236.2z"/>
			<path class="st2" d="M243.3,246.3l-48.5-0.1c-1.1,0-2-0.9-2-2l0,0c0-1.1,0.9-2,2-2l48.5,0.1c1.1,0,2,0.9,2,2l0,0
				C245.3,245.4,244.4,246.3,243.3,246.3z"/>
		</g>
	</g>
	<g>
		<g>
			<path class="st2" d="M258,256.4l-63-0.2c-1.1,0-2-0.9-2-2l0,0c0-1.1,0.9-2,2-2l63,0.2c1.1,0,2,0.9,2,2l0,0
				C260,255.5,259.1,256.4,258,256.4z"/>
			<path class="st2" d="M237.8,266.3l-42.8-0.1c-1.1,0-2-0.9-2-2l0,0c0-1.1,0.9-2,2-2l42.8,0.1c1.1,0,2,0.9,2,2v0
				C239.8,265.4,238.9,266.3,237.8,266.3z"/>
			<path class="st2" d="M207.9,276.2l-13,0c-1.1,0-2-0.9-2-2l0,0c0-1.1,0.9-2,2-2l13,0c1.1,0,2,0.9,2,2l0,0
				C209.9,275.3,209,276.2,207.9,276.2z"/>
			<path class="st2" d="M243.4,286.3l-48.5-0.1c-1.1,0-2-0.9-2-2l0,0c0-1.1,0.9-2,2-2l48.5,0.1c1.1,0,2,0.9,2,2l0,0
				C245.4,285.4,244.5,286.3,243.4,286.3z"/>
		</g>
	</g>
</g>
<g>
	<path class="st2" d="M177.2,233.2h-54.5c-2.2,0-4-1.8-4-4v-54.5c0-2.2,1.8-4,4-4h54.5c2.2,0,4,1.8,4,4v54.5
		C181.2,231.4,179.4,233.2,177.2,233.2z"/>
	<g>
		<defs>
			<path id="SVGID_5_" d="M177.2,233.2h-54.5c-2.2,0-4-1.8-4-4v-54.5c0-2.2,1.8-4,4-4h54.5c2.2,0,4,1.8,4,4v54.5
				C181.2,231.4,179.4,233.2,177.2,233.2z"/>
		</defs>
		<clipPath id="SVGID_6_">
			<use xlink:href="#SVGID_5_"  style="overflow:visible;"/>
		</clipPath>
		<g class="st12">
			<g>
				<g>
					<path class="st13" d="M174.8,300.8c-0.4-2.8-7.3-15.6-11.6-25l7.6-3.3l7.6,27.5c0,0,3.3,3,5,3.4c1.7,0.4,0.9,1.7-0.5,1.6
						s-3.4-1-3.4-1l2.4,9C182,312.8,177.2,315.9,174.8,300.8z"/>
					<polygon class="st14" points="171.5,273.7 164,277.1 160.2,268.9 169.4,264.9 					"/>
				</g>
				<g>
					<polygon class="st1" points="164.3,451.3 163.5,455.1 163.5,456.8 159.3,458.9 155.4,454.2 156,450.7 					"/>
					<path class="st1" d="M124.4,449.7c0,0-2,5.5-2.3,5.6c-0.3,0.2-3.6,1.7-3.6,1.7l-4.2-4l0.7-3.5L124.4,449.7z"/>
					<path class="st10" d="M148.1,281.8l8.4,39.3c0,0-0.4,34.8-4,52.3c-2.8,13.8-15.4,49.5-25.2,76.7c-1.1,2.9-13.1,2.3-12.6-0.8
						c6.3-36.5,10.8-59.5,9.1-76.4c-3.1-31.4-7.7-43.2-9.7-86.2L148.1,281.8z"/>
					<path class="st10" d="M129.4,285l10.5,36.2c0,0,10.1,19.1,14.4,32.6c5.1,15.8,2.5,57.4,1,96.6c-0.1,2.7,10.3,3.4,10.8,0.7
						c6.9-42.6,14.6-63,13.3-87.3c-0.8-16.9-1.7-47.7-16.9-88L129.4,285z"/>
					<path class="st1" d="M139.8,221.8l-1.6-8.2c0,0,7.1,5.2,12.3,5c5.1-0.1,5.1-3.2,5.2-6.2c0-3,6.4,4.2,6.3,4.3
						c-0.2,0.2,2.8,25.1,2.8,25.1l-2.9,50.8c0,0-4,6.5-23.2,5.3L139.8,221.8z"/>
					<path class="st15" d="M156.1,208.7l4-0.5c0,0,2.3,2.3,4.6,6.5c2.3,4.3,6.6,21.3,5.3,32.8c-4.7,43.5,12,67.1,11.5,74.7
						c-0.4,6.3-9.7,9.9-9.7,9.9s-12-36.5-12.6-43.4c-1-12.9-0.8-31.5-0.4-39c0.3-7.5-1.2-30.2-3.3-34.4L156.1,208.7z"/>
					<path class="st15" d="M139.3,219.4l-2.7-10.2c0,0-2.8,1.6-14.6,10.2c-13,9.6-26.6,69.4-18.9,102.5c2.2,9.6,37.5,17.9,37.5,17.9
						c-2.9-12.5,4.3-119.4,4.3-119.4L139.3,219.4z"/>
					<path class="st16" d="M153.1,206.1c3.6,1.6,7.7,10.4,7.7,10.4c-2.2-0.3-4.6,0.9-4.6,0.9s-0.6-1.7-4.2-7.6
						C152,209.8,149.4,204.5,153.1,206.1z"/>
					<path class="st17" d="M138,214.7l3.5,1.6c2.4,1.1,5,1.7,7.6,1.6l0,0c3.2-0.1,4.1-1,4.6-4.3c0.1-0.5,0.1-4.7,0.3-5.2
						c0.8-3.7,6.1-0.3,7.8-4.2c1.8-3.9-2.2-25.1-16.3-20.8c-14.2,4.3,5.1,20.5-7.3,24.2L138,214.7z"/>
					<path class="st16" d="M138.1,207.6c0,0,0.1,2,1.7,5c2.6,4.8,5.2,7.8,5.2,7.8c-0.9-0.2-5,1.3-5,1.3c-4.4-5.4-4.8-7.4-5.7-12.3
						L138.1,207.6z"/>
					<path class="st18" d="M155.3,182.2c-3.2-1.1-8-2.7-14.4,0.9c-6.3,3.6-6.2,10.7-4.7,14.7c1.4,4,3.8,6,7.3,7.4
						c3.4,1.4,4.3-3.3,4.3-3.3s-3.6-1.2-3.3-3.4c0.3-2.2,2.1-1,3.3-1.4c1.2-0.3-0.6-7,1-8.5c1.7-1.4,4.2,0.3,4.6-0.9
						c0.4-1.1,2.8-0.7,4.7,0.3C158,188,158.2,183.2,155.3,182.2z"/>
					<path class="st19" d="M185.2,466.7c0-0.2,0.1-0.9,0.1-1c-0.5-2.2-21.7-10.6-21.7-10.6c-0.3,1.2-6.3,0.5-8.1-1
						c0,0-0.5,2.4-0.7,3.5c-0.7,3.6,3.1,4.3,7.5,5.5C166.6,464.2,184.5,468.7,185.2,466.7z"/>
					<path class="st19" d="M133,465.7c0-0.2,0.1-0.9,0.1-1c-0.4-2.2-10.9-9.5-10.9-9.5c-0.3,0.2-6.6-0.2-7.6-2.8
						c0,0-0.7,3.3-0.8,4.3c-0.7,3.6,7,7.8,8.6,8.5C126.5,467.2,132.3,467.8,133,465.7z"/>
				</g>
				<g>
					<path class="st20" d="M124.1,295.8l-7.8,2.8c-1.4-4.3-6.8-16.9-6.7-18.6c0.2-8.2,1.7-38.7,7.7-49.4c8.6-15.3,24.3-1.7,22.2,4.8
						c-4.3,13.3-16.8,51-16.8,51L124.1,295.8z"/>
					<path class="st13" d="M126,324.3c-0.3-2.8-6.2-16.2-9.8-25.7l7.8-2.8l5.6,27.9c0,0,3,3.2,4.8,3.7c1.7,0.5,0.8,1.8-0.6,1.6
						c-1.3-0.3-3.3-1.3-3.3-1.3l1.8,9.1C132.2,336.8,127.2,339.5,126,324.3z"/>
					<polygon class="st14" points="124.5,297.1 116.7,299.9 113.5,291.5 123,288.1 					"/>
				</g>
			</g>
		</g>
	</g>
</g>
<g>
	<g>
		<path class="st2" d="M537.9,424.1H398.7c-4.4,0-8-3.6-8-8V182.3c0-4.4,3.6-8,8-8h139.2c4.4,0,8,3.6,8,8v233.9
			C545.9,420.5,542.3,424.1,537.9,424.1z"/>
		<g>
			<path class="st5" d="M415.4,195.2c0,1.4-1.2,2.6-2.6,2.6s-2.6-1.2-2.6-2.6c0-1.4,1.2-2.6,2.6-2.6S415.4,193.8,415.4,195.2z"/>
		</g>
		<g>
			<path class="st6" d="M424.5,195.2c0,1.4-1.2,2.6-2.6,2.6s-2.6-1.2-2.6-2.6c0-1.4,1.2-2.6,2.6-2.6S424.5,193.8,424.5,195.2z"/>
		</g>
		<g>
			<path class="st7" d="M433.8,195.2c0,1.4-1.2,2.6-2.6,2.6s-2.6-1.2-2.6-2.6c0-1.4,1.2-2.6,2.6-2.6
				C432.8,192.6,433.8,193.8,433.8,195.2z"/>
		</g>
		<rect x="406.7" y="209.9" class="st1" width="123.1" height="198.2"/>
	</g>
	<g>
		<g>
			<g>
				<path class="st2" d="M489.7,254.3l-63-0.2c-1.1,0-2-0.9-2-2v0c0-1.1,0.9-2,2-2l63,0.2c1.1,0,2,0.9,2,2l0,0
					C491.7,253.4,490.8,254.3,489.7,254.3z"/>
				<path class="st3" d="M489.7,234.3l-63-0.2c-1.1,0-2-0.9-2-2v0c0-1.1,0.9-2,2-2l63,0.2c1.1,0,2,0.9,2,2l0,0
					C491.7,233.4,490.8,234.3,489.7,234.3z"/>
				<path class="st2" d="M469.5,264.3l-42.8-0.1c-1.1,0-2-0.9-2-2l0,0c0-1.1,0.9-2,2-2l42.8,0.1c1.1,0,2,0.9,2,2l0,0
					C471.5,263.4,470.6,264.3,469.5,264.3z"/>
				<path class="st2" d="M439.6,274.2l-13,0c-1.1,0-2-0.9-2-2l0,0c0-1.1,0.9-2,2-2l13,0c1.1,0,2,0.9,2,2v0
					C441.6,273.3,440.7,274.2,439.6,274.2z"/>
				<path class="st2" d="M475.1,284.3l-48.5-0.1c-1.1,0-2-0.9-2-2l0,0c0-1.1,0.9-2,2-2l48.5,0.1c1.1,0,2,0.9,2,2l0,0
					C477.1,283.4,476.2,284.3,475.1,284.3z"/>
			</g>
			<g>
				<path class="st2" d="M489.6,294.3l-63-0.2c-1.1,0-2-0.9-2-2l0,0c0-1.1,0.9-2,2-2l63,0.2c1.1,0,2,0.9,2,2l0,0
					C491.6,293.4,490.7,294.3,489.6,294.3z"/>
				<path class="st2" d="M469.4,304.3l-42.8-0.1c-1.1,0-2-0.9-2-2l0,0c0-1.1,0.9-2,2-2l42.8,0.1c1.1,0,2,0.9,2,2v0
					C471.4,303.4,470.5,304.3,469.4,304.3z"/>
				<path class="st2" d="M439.5,314.2l-13,0c-1.1,0-2-0.9-2-2l0,0c0-1.1,0.9-2,2-2l13,0c1.1,0,2,0.9,2,2l0,0
					C441.5,313.3,440.6,314.2,439.5,314.2z"/>
				<path class="st2" d="M475,324.3l-48.5-0.1c-1.1,0-2-0.9-2-2l0,0c0-1.1,0.9-2,2-2l48.5,0.1c1.1,0,2,0.9,2,2l0,0
					C477,323.4,476.1,324.3,475,324.3z"/>
			</g>
		</g>
		<g>
			<g>
				<path class="st2" d="M489.7,334.3l-63-0.2c-1.1,0-2-0.9-2-2l0,0c0-1.1,0.9-2,2-2l63,0.2c1.1,0,2,0.9,2,2l0,0
					C491.7,333.4,490.8,334.3,489.7,334.3z"/>
				<path class="st2" d="M469.5,344.3l-42.8-0.1c-1.1,0-2-0.9-2-2l0,0c0-1.1,0.9-2,2-2l42.8,0.1c1.1,0,2,0.9,2,2l0,0
					C471.5,343.4,470.6,344.3,469.5,344.3z"/>
			</g>
		</g>
	</g>
	<path class="st10" d="M456.7,367.2h-26.5c-3.2,0-5.8-2.6-5.8-5.8l0,0c0-3.2,2.6-5.8,5.8-5.8h26.5c3.2,0,5.8,2.6,5.8,5.8l0,0
		C462.5,364.6,459.9,367.2,456.7,367.2z"/>
	<g transform="translate(-30 -320)">
		<polygon class="st11" points="504,702 479,680.1 479,713.3 488.1,706.7 494.6,721.2 499.6,719 493.1,704.5 		"/>
	</g>
</g>
</svg>
