<?xml version="1.0" encoding="utf-8"?>
<!-- Generator: Adobe Illustrator 22.1.0, SVG Export Plug-In . SVG Version: 6.00 Build 0)  -->
<svg version="1.1" id="Layer_1" xmlns="http://www.w3.org/2000/svg" xmlns:xlink="http://www.w3.org/1999/xlink" x="0px" y="0px"
	 viewBox="0 0 569 440" style="enable-background:new 0 0 569 440;" xml:space="preserve">
<style type="text/css">
	.st0{opacity:0.2;fill:url(#SVGID_1_);enable-background:new    ;}
	.st1{fill:#E2AE5A;}
	.st2{fill:#FFFFFF;}
	.st3{fill:#F0EDF3;}
	.st4{fill:#CDCCCE;}
	.st5{fill:#E7E6E8;}
	.st6{fill:#D25D60;}
	.st7{fill:#E5A866;}
	.st8{fill:#9FC768;}
	.st9{opacity:0.6;clip-path:url(#SVGID_3_);}
	.st10{fill:url(#SVGID_4_);}
	.st11{clip-path:url(#SVGID_3_);}
	.st12{opacity:0.3;fill:url(#SVGID_5_);enable-background:new    ;}
	.st13{clip-path:url(#SVGID_7_);}
	.st14{fill:#FFBA0A;}
	.st15{fill:#FF4949;}
	.st16{fill:#F1D2C4;}
	.st17{fill:#161303;}
	.st18{fill:#2708A0;}
	.st19{fill:#FFC950;}
	.st20{fill:#F94110;}
	.st21{fill:#FDD4C6;}
	.st22{fill:#6FC911;}
	.st23{fill:#5BB702;}
	.st24{fill:#FFAF94;}
	.st25{fill:#F6511D;}
</style>
<linearGradient id="SVGID_1_" gradientUnits="userSpaceOnUse" x1="279.6367" y1="-349.3892" x2="279.6367" y2="-765.2144" gradientTransform="matrix(1 0 0 1 0 778)">
	<stop  offset="0" style="stop-color:#FFFFFF;stop-opacity:0"/>
	<stop  offset="2.168840e-02" style="stop-color:#F6FCFE;stop-opacity:2.168840e-02"/>
	<stop  offset="0.1827" style="stop-color:#B6E5FA;stop-opacity:0.1827"/>
	<stop  offset="0.3416" style="stop-color:#7ED2F6;stop-opacity:0.3416"/>
	<stop  offset="0.4944" style="stop-color:#51C2F3;stop-opacity:0.4944"/>
	<stop  offset="0.64" style="stop-color:#2EB6F0;stop-opacity:0.64"/>
	<stop  offset="0.7764" style="stop-color:#15ADEE;stop-opacity:0.7764"/>
	<stop  offset="0.9001" style="stop-color:#05A8ED;stop-opacity:0.9001"/>
	<stop  offset="1" style="stop-color:#00A6ED"/>
</linearGradient>
<path class="st0" d="M27.7,327.9C-16.7,222.1,92.4,14.4,162.2,12.8c81.3-1.7,31.8,147.6,194.6,151.1
	c99.6,2.2,193.4,124.9,184.5,173.5C524.2,430.3,95.1,488.6,27.7,327.9z"/>
<g>
	<path class="st1" d="M205,51.3L205,51.3C205,51.3,205,51.2,205,51.3L205,51.3z"/>
</g>
<g>
	<g>
		<g>
			<rect x="258.1" y="325.8" class="st2" width="105.4" height="49.2"/>
		</g>
		<rect x="258.1" y="325.8" class="st3" width="105.4" height="49.2"/>
		<g>
			<polygon class="st4" points="258.1,341.1 363.5,341.1 363.5,329.4 357.6,324.2 264,324.2 258.1,329.4 			"/>
		</g>
		<g>
			<rect x="243.3" y="368" class="st5" width="135" height="9.8"/>
		</g>
		<g>
			<path class="st5" d="M106,303.9v17.1c0,5.7,4.7,10.2,10.2,10.2h389.3c5.7,0,10.2-4.7,10.2-10.2v-17.1H106z"/>
		</g>
		<g>
			<path class="st3" d="M505.4,76.7H116.2c-5.7,0-10.2,4.7-10.2,10.2v217.3h409.6V86.9C515.6,81.2,510.9,76.7,505.4,76.7z"/>
		</g>
		<g>
			<polygon class="st3" points="121.3,168.8 121.3,91.7 500.3,91.7 500.3,139.2 			"/>
		</g>
		<g>
			<rect x="121.3" y="91.7" class="st3" width="379.1" height="9.7"/>
		</g>
		<g>
			<path class="st6" d="M130.7,96.6c0,1.4-1.2,2.6-2.6,2.6c-1.4,0-2.6-1.2-2.6-2.6s1.2-2.6,2.6-2.6C129.5,94,130.7,95.2,130.7,96.6z
				"/>
		</g>
		<g>
			<path class="st7" d="M139.8,96.6c0,1.4-1.2,2.6-2.6,2.6c-1.4,0-2.6-1.2-2.6-2.6s1.2-2.6,2.6-2.6C138.6,94,139.8,95.2,139.8,96.6z
				"/>
		</g>
		<g>
			<path class="st8" d="M149.1,96.6c0,1.4-1.2,2.6-2.6,2.6c-1.4,0-2.6-1.2-2.6-2.6s1.2-2.6,2.6-2.6C148.1,94,149.1,95.2,149.1,96.6z
				"/>
		</g>
		<rect x="122" y="111.2" class="st2" width="377.9" height="178.7"/>
		<g>
			<g>
				<defs>
					<rect id="SVGID_2_" x="122" y="111.2" width="377.9" height="178.7"/>
				</defs>
				<clipPath id="SVGID_3_">
					<use xlink:href="#SVGID_2_"  style="overflow:visible;"/>
				</clipPath>
				<g class="st9">
					
						<linearGradient id="SVGID_4_" gradientUnits="userSpaceOnUse" x1="921.4583" y1="-26.6783" x2="921.4583" y2="-222.7538" gradientTransform="matrix(-0.9988 4.948876e-02 4.948876e-02 0.9988 1207.3785 332.9909)">
						<stop  offset="0" style="stop-color:#FFFFFF;stop-opacity:0"/>
						<stop  offset="2.168840e-02" style="stop-color:#F6FCFE;stop-opacity:2.168840e-02"/>
						<stop  offset="1" style="stop-color:#7DB52B"/>
					</linearGradient>
					<path class="st10" d="M49,297.5c-9.2-32.8,46-108,92.4-103.3c0.5,0,0.9,0.2,1.4,0.2c66.3,8.4,82.2,96.5,122.4,95.8
						c48-0.8,52.2-73.4,85.4-75.6c78.6-5.3,51.6-65.4,90.9-66.6c31.7-0.9,86.1,81,71.6,126.4C481.2,374.9,70.3,373.4,49,297.5z"/>
				</g>
				<g class="st11">
					<linearGradient id="SVGID_5_" gradientUnits="userSpaceOnUse" x1="289.0121" y1="204.2561" x2="444.5" y2="204.2561">
						<stop  offset="0" style="stop-color:#FFFFFF;stop-opacity:0"/>
						<stop  offset="2.168840e-02" style="stop-color:#F6FCFE;stop-opacity:2.168840e-02"/>
						<stop  offset="0.1827" style="stop-color:#B6E5FA;stop-opacity:0.1827"/>
						<stop  offset="0.3416" style="stop-color:#7ED2F6;stop-opacity:0.3416"/>
						<stop  offset="0.4944" style="stop-color:#51C2F3;stop-opacity:0.4944"/>
						<stop  offset="0.64" style="stop-color:#2EB6F0;stop-opacity:0.64"/>
						<stop  offset="0.7764" style="stop-color:#15ADEE;stop-opacity:0.7764"/>
						<stop  offset="0.9001" style="stop-color:#05A8ED;stop-opacity:0.9001"/>
						<stop  offset="1" style="stop-color:#00A6ED"/>
					</linearGradient>
					<circle class="st12" cx="366.8" cy="204.3" r="77.7"/>
					<g>
						<defs>
							<circle id="SVGID_6_" cx="366.8" cy="204.3" r="77.7"/>
						</defs>
						<clipPath id="SVGID_7_">
							<use xlink:href="#SVGID_6_"  style="overflow:visible;"/>
						</clipPath>
						<g class="st13">
							<path class="st2" d="M387.2,306.8c-6.2,0-12.5,0-18.8,0c-4.9,0-9.6,0-14.5,0c2.4-20.5,4.9-41.1,7.2-61.7c0,0,3-24.5,2.7-24.6
								c-0.5-0.5,5.5-2.2,5.9-4.9c0-0.2,0.1-0.9,0.3-0.9c0.4-0.1,0.6,2.8,2.6,4.3c0.3,0.2,0.9,0.7,2.6,0.9c4.3,0.5,10.6-2,12-2.5
								l-1.5,8C386.2,252.5,386.7,279.6,387.2,306.8z"/>
							<path class="st14" d="M370.2,218.9c-2,4.1-3.7,26.4-3.2,33.8c0.4,7.3,0.7,25.7-0.4,38.3c-0.5,6.7-12.4,42.5-12.4,42.5
								s-9.2-3.6-9.5-9.7c-0.5-7.5,15.9-30.6,11.3-73.3c-1.3-11.3,3-27.9,5.2-32.1c2.2-4.3,4.5-6.4,4.5-6.4l3.9,0.5L370.2,218.9z"/>
							<path class="st15" d="M373.7,213.5c-3.5,5.8-4.1,7.5-4.1,7.5s-2.4-1.1-4.5-0.9c0,0,4.1-8.7,7.6-10.2
								C376.3,208.4,373.7,213.5,373.7,213.5z"/>
							<path class="st16" d="M387.3,211.4c-12.2-3.6,6.7-19.4-7.2-23.7c-13.9-4.3-17.8,16.5-16,20.4c1.7,3.8,6.9,0.4,7.7,4.1
								c0.1,0.5,0.1,4.6,0.3,5.1c0.4,3.2,1.4,4.1,4.5,4.2l0,0c2.6,0.1,5.1-0.4,7.5-1.5l3.4-1.5L387.3,211.4z"/>
							<path class="st17" d="M367.7,192.2c1.9-1,4.2-1.4,4.6-0.3c0.4,1.1,2.8-0.5,4.5,0.9c1.7,1.4-0.1,8,1,8.4
								c1.3,0.3,3.1-0.8,3.2,1.4c0.3,2.1-3.2,3.3-3.2,3.3s0.9,4.6,4.2,3.2c3.3-1.4,5.8-3.4,7.2-7.2c1.4-3.9,1.6-10.9-4.6-14.4
								c-6.3-3.5-11-2-14.2-0.9C367.6,187.5,367.7,192.2,367.7,192.2z"/>
							<g>
								<polygon class="st2" points="379.9,392 383.2,398.7 387.4,392.6 386.4,389 383.1,387.4 								"/>
								<polygon class="st2" points="337.9,405.3 343.7,402.2 344,398.5 336.4,396.9 								"/>
								<path class="st18" d="M379.3,315.4c-5.5,16.9-17.4,10.1-19.9,17.5c-4.2,12,21.1,60.2,21.1,60.2c3.5-4.2,4.7-4.5,6-4
									c0,0-1.9-48.3-0.2-53.7c2-6.1,32.3-0.9,32.8-5.3c1.1-8.6-1.3-15.9-1.3-15.9c-6.8-6.4-13.6-12.9-20.4-19.3
									C391.4,301.7,385.3,308.5,379.3,315.4z"/>
								<path class="st17" d="M387.7,392c-1.4-1.2-3.8,1.8-9.2,6.2c-4,3.3-11.9,6.1-10.7,7.3c1.4,1.4,20.5-2.6,21.7-8.4
									C389.7,396.5,388.5,392.6,387.7,392z"/>
								<path class="st18" d="M408.9,304c-42.4-4.5-77.5,2.6-85.8,22c-2.3,5.3-3.5,10.7-1.8,20.3c2,11.1,15,53.7,15,53.7
									c3.2-0.9,5.1-0.9,7.6-0.9c0,0-2.4-43.9,1.5-56.9c3.8-12.7,29.5-10.3,44.7-10.8c4.2-2.9,11.3-8.6,15.7-18.2
									C407.4,309.8,408.3,306.8,408.9,304z"/>
								<path class="st17" d="M323.6,413.1c16.9-4,22.9-5.5,23.7-5.6c0.8-0.3-0.6-4.4-2.3-6.5c0,0-5.3,2.6-9.1,4.6
									c-3.8,2-11.4,4.7-12.8,5.2C321.6,411.1,322.4,413.3,323.6,413.1z"/>
							</g>
							<path class="st14" d="M380.6,223.9c0,0,7.2,104.9,4.3,117.1c0,0,34.6-8.3,36.7-17.6c7.6-32.6-5.7-91.2-18.6-100.5
								c-11.6-8.4-14.3-10-14.3-10l-2.6,10L380.6,223.9z"/>
							<path class="st15" d="M391,213.1c-0.9,4.9-1.3,6.7-5.6,12c0,0-4-1.4-4.9-1.3c0,0,2.6-3,5.1-7.7c1.6-2.9,1.6-4.9,1.6-4.9
								L391,213.1z"/>
							<g>
								<path class="st19" d="M401.5,287.1c0,0-11.8-37.1-15.9-50.1c-2-6.3,13.6-19.6,21.8-4.4c5.8,10.6,7,40.5,7.1,48.5
									c0.1,1.6-5.3,13.9-6.7,18.2l-7.6-2.8L401.5,287.1z"/>
								<path class="st16" d="M391.7,336.4l1.9-9c0,0-2,0.9-3.3,1.2c-1.4,0.3-2.3-1-0.6-1.5c1.7-0.5,4.7-3.6,4.7-3.6l5.8-27.4
									l7.6,2.8c-3.7,9.4-9.6,22.4-9.9,25.1C396.6,339.1,391.7,336.4,391.7,336.4z"/>
								<polygon class="st19" points="401.2,288.8 410.4,292.2 407.3,300.4 399.6,297.5 								"/>
							</g>
						</g>
						<g class="st13">
							<path class="st16" d="M339,368.3l-1.2,5.5c0,0-0.5,2.4-0.9,3.3c-0.4,0.9-3.5,2.6-3.5,2.6l0.2,3.5l8.5-2.1
								c0,0,0.6-0.5,0.4-1.6c-0.2-1.1,0.6-3.8,0.6-3.8l1.5-4.3L339,368.3z"/>
							<path class="st14" d="M315.1,383.5c0-0.1,0.1-0.8,0.1-0.9c0.6-1.9,18.2-2.9,18.2-2.9c0.2,0.6,6.5,1.9,9-0.5
								c0,0,0.1,2.6,0.2,3.9c0.2,3.5-4.8,4.6-9.2,4.2C329.5,386.9,315.4,385.5,315.1,383.5z"/>
							<path class="st16" d="M332.9,400.7c0,0-2,3.8-2.9,5c-3.6,5.1-6.7,9.5-6.7,9.5l9.1-0.9c0,0,0.8-0.6,0.9-1.7
								c0.3-1.1,4.1-6.5,4.1-6.5L332.9,400.7z"/>
							<path class="st14" d="M304.9,413.7c0-0.1,0.3-0.8,0.3-0.9c1.2-1.7,20.6-0.9,20.6-0.9c-0.2,1.3,5.7,2.5,7.6,0.7c0,0-0.8,3-1,4
								c-0.9,3.3-4.5,3.4-8.7,2.6C319.5,418.4,304.5,415.7,304.9,413.7z"/>
							<path class="st20" d="M322.8,305.8c0,0-32.1-14.8-49.1-15.2c-8.7-0.2-11.7,55.9-14.1,60.2c-2.2,1.2-7.3-1.2-7.3-1.2
								s-0.2-62.8,5.2-72c8.1-13.9,49.7-7.5,76.6,0.8L322.8,305.8z"/>
							<path class="st20" d="M332.8,282.5c0,0-11.7,6.1-15.7,8.1c-12.1,5.8-32.1,23.7-38.1,29.6c-3.6,3.5-31.7,58.2-31.7,58.2
								c-0.9,1.6,4.2,3.9,6,2.7c0,0,29-36.1,36.3-44.8c4.5-5.3,49.3-12.7,58.1-27.7C362.2,283.9,332.8,282.5,332.8,282.5z"/>
							<path class="st18" d="M344.6,297.8L334.1,311c0,0-26.1-25.9-21.1-32.7c4.2-5.8,6.2-14.3,7.8-21.9c3.2-15.1,3-29.2,3.4-30.2
								c3.8-9.6,17.7-22.3,31.4,0.8c14.6,24.6,19.4,39.9,8.4,65.6c-13.1,30.9-26.7,21.6-26.7,21.6L344.6,297.8z"/>
							<path class="st16" d="M317.1,207.7c5.5,3.2,4.9,6.6,10.2,7.7c5.4,1.1,4.3,4.3,4.9,8.2c0.5,3.8-3.4,9.8-5.1,8
								c-2.5-2.6-1.9-5.7-5.3-6.2c-3.4-0.6-4.4,1.1-7.3,0.3c-2.9-0.9-4.9-2.1-4.1-17.2C310.5,208.4,311.6,204.4,317.1,207.7z"/>
							<path class="st20" d="M341.4,212.3c4.6,5.6,27.7,4.8,27.2,16.9c-0.5,12.1-1,17.4,6.7,23.6c9.2,7.3,10.3,22.9,2.4,30.4
								c-5.2,4.8-7-4.2-10.2-0.3c0,0,3.2-13.4,1.1-25.5c-1.3-7.4-7.4-21.1-11.4-27s-10.3-0.9-15.5,3.7c-5.7,5-13,4.1-11.9-4.3
								c1-8.4-9-9.9-6.3-10.4c1.8-0.3,2.6-7-3.3-4.3c0,0-3.8-3.8-7.6-5.2c-2.6-0.9-7.6-5.4,0.8-8.4
								C324.7,197.2,327.4,195,341.4,212.3z"/>
							<path class="st16" d="M341.2,254.9l-9.3-1.4c0,0-10.6,12.1-16.4,17.5c-8.3,7.7-31.4-2.4-33.6-3.8c-3.7-2.4-6.3-1.8-6.3-1.8
								c-2.9,0.2-7.9,3.2-8.6,3.8c-0.7,0.4-3.9,3.6,1.7,1.6c5.6-2,12.4,4.9,31.7,9.5c19.4,4.7,25.3-2.7,41.1-17.3L341.2,254.9z"/>
							<path class="st2" d="M354.5,249c-2.6,6.3-13,14.1-13,14.1c0.8-5.8-9.6-9.7-9.6-9.7s11-18.8,18.2-23.7
								C354.2,226.9,357.1,242.8,354.5,249z"/>
						</g>
						<g class="st13">
							<g>
								<path class="st21" d="M397.3,338.5c-3.2,2.5-4.7,4-4.7,4.6s1.4,1,3.5-0.5s0,6-1.6,7.2c-1.7,1.2-2.2,4.3,1.8,1.8
									c4-2.5,8.4-7.7,8.1-12.1c-0.3-4.5,14.9-38.8,17.5-52.3c1.2-6.1,6.2-26,8.3-37.2c2.1-10.8-6.2-15.2-16.6-18.9
									c-0.6-0.2-1-0.3-1.4-0.4c-3.4-0.6-0.9,41.4-2.3,55.1C408.5,299.2,397.3,338.5,397.3,338.5z"/>
								<path class="st22" d="M431.1,244.5c0.7,3.1-0.3,7.6-2.3,16.4c-0.8,3.6-1.6,6.6-2.2,8.6c-3.3-6.4-16.5-3-16.5-3
									s-2.4-26.8,1.3-36.7c0.1-0.2,0.3-0.7,0.7-1C415.5,226.4,428.9,234.2,431.1,244.5z"/>
							</g>
							<g>
								<path class="st21" d="M407.5,455c1,1.7,2,3.4,3,5.1c-0.9,1.7-1.7,3.3-2.6,5l-4.8-0.7l-0.7-1.9l-2.4-3.8L407.5,455z"/>
								<polygon class="st21" points="439.6,456.5 440.6,460.5 437.1,466.3 432.4,464.5 432.2,462.5 430.9,458.2 								"/>
								<path class="st18" d="M391.6,415.1c0,0,15.8,38.4,16,39.7c0.3,1.3-0.3,2.3-0.3,2.3l-6.4,3.7l-1.9-3.5l-23.4-38.3
									L391.6,415.1z"/>
								<path class="st14" d="M404.9,471.5c4.6-1.9,9.2-4.6,7.9-8.4c-0.4-1.1-2.7-4.3-2.7-4.3c-0.7,3-7.3,5.6-7.9,4.2
									c0,0-19.5,11.8-19.7,14.2c0,0.1,0.1,0.9,0.2,1.1C383.9,480.4,400.3,473.4,404.9,471.5z"/>
								<path class="st18" d="M437.7,327.1c-3.2,20.2-44.5,42-48.3,57.1c-3.2,12.9,2.2,30.9,2.2,30.9c0.2,1.7-14.9,6-16,3.9
									c0,0-14.8-28.7-14.8-41.9c0-20.1,25.1-45,35.8-56.5c3.6-3.9,13.7-15.6,13.7-15.6S443,294,437.7,327.1z"/>
								<path class="st18" d="M433.1,416.1c0,0,6.2,38.5,6.4,39.8c0.3,1.3-0.3,2.3-0.3,2.3c-0.5,0.4-2.4,1.7-5,1.4
									c-1.6-0.2-2.7-0.8-3.3-1.2c-4.3-12.7-8.5-25.4-12.8-38.2L433.1,416.1z"/>
								<path class="st14" d="M431,473.6c1.8-0.6,10.6-4.8,10.1-8.8c-0.1-1.2-0.6-4.9-0.6-4.9c-1.3,2.8-8.3,2.7-8.6,2.5
									c0,0-8.9,7.2-9.5,9.5c0,0.1,0,0.9,0,1.1C423,475.4,426.3,475.2,431,473.6z"/>
								<path class="st18" d="M463,322.9c-3.2,20.2-23.6,50.3-27.3,65.3c-3.2,12.9-2.5,27.8-2.5,27.8c0.2,1.7-13.9,6.3-15,4.1
									c0,0-11.1-25.9-11.1-39.1c0-20.1,14.5-45.2,25.1-56.8c3.6-3.9,12.3-19.4,12.3-19.4S468.3,289.8,463,322.9z"/>
								<path class="st23" d="M410.3,304.9c12.8-17.8,2.3-45.3-0.4-71.6c-2.1-19.7,35.1-30,51.2,3.2c16.1,33.2,1.9,86.4,1.9,86.4
									l-46.2-2.8L410.3,304.9z"/>
								<path class="st21" d="M418.6,211.4c5.1,3.1,0,6.6,0,6.6s-0.4,8.2,12.4,5c5.8-1.4,7.3-6.4,4.1-7.7c-3.3-1.3-4.7-10.2-10.3-18
									c-5.6-7.8-16.4-13.3-18.2,1.3C404.6,213.3,414.9,209.1,418.6,211.4z"/>
								<path class="st24" d="M409.8,192.2c-10-0.8-13.5,0.8-3.5,3c10,2.2,12.5,6.8,14.7,5.9c2.2-0.8,4.9-0.7,4.5,2.2
									c-0.4,2.9-2.3,2.4-2.3,2.4s0.2,3.2,3.5,3.6c3.3,0.4,4.2,0,4.2,0s1.2-5.9-1.4-11.2C427.1,192.9,420.1,193,409.8,192.2z"/>
								<path class="st25" d="M407.5,192c6.7,4,7.1,4.2,13.3,6.9c8,3.5,9.5,0.9,9.5,0.9s-0.5-7.2-5.4-9.8
									C414,184.2,407.5,192,407.5,192z"/>
								<path class="st25" d="M413.3,195.4c0,0-11.6-2.8-13.7-3.8c-2.9-1.3-3.5-1.4-7-3.7c-1-0.6,2.6-1.8,5.1-0.6
									c4.7,2.3,11.2,3.8,11.2,3.8L413.3,195.4z"/>
							</g>
							<path class="st22" d="M417.1,289.2c-0.5-0.4-0.8-0.8-1-1c0,0-1.8,11.6-6.3,17c-0.1,3.9,0.8,6.9,1.9,9.1
								c6,12.2,26.4,17.1,50.7,12.3c1.2-4.4,2.2-9.2,3.2-14.1c1.6-7.9,3.1-17.5,3-24.2c-7.5,3.1-14,4.6-18.6,5.3
								C440.8,295.2,426.1,297.6,417.1,289.2z"/>
							<path class="st21" d="M424.6,341.5c-3.2,2.5-4.7,4-4.7,4.6s1.4,1,3.5-0.5s0,6-1.6,7.2c-1.7,1.2-2.2,4.3,1.8,1.8
								c4-2.5,8.4-7.7,8.1-12.1c-0.3-4.5,14.9-38.8,17.5-52.3c1.2-6.1,6.2-26,8.3-37.2c2.1-10.8-6.2-15.2-16.6-18.9
								c-0.6-0.2-1-0.3-1.4-0.4c-3.4-0.6-0.9,41.4-2.3,55.1C435.8,302.2,424.6,341.5,424.6,341.5z"/>
							<path class="st22" d="M458.4,247.5c0.7,3.1-0.3,7.6-2.3,16.4c-0.8,3.6-1.6,6.6-2.2,8.6c-3.3-6.4-16.5-3-16.5-3
								s-2.4-26.8,1.3-36.7c0.1-0.2,0.3-0.7,0.7-1C442.8,229.4,456.2,237.2,458.4,247.5z"/>
						</g>
					</g>
				</g>
			</g>
		</g>
	</g>
	<g>
		<path class="st3" d="M276.6,135.1h-6.1v-9.9c0-1.9-1.5-3.4-3.4-3.4s-3.4,1.5-3.4,3.4v9.9h-19.8v-9.9c0-1.9-1.5-3.4-3.4-3.4
			s-3.4,1.5-3.4,3.4v9.9h-19.8v-9.9c0-1.9-1.5-3.4-3.4-3.4c-1.9,0-3.4,1.5-3.4,3.4v9.9h-6.1c-7.1,0-12.9,5.8-12.9,12.9v61
			c0,7.1,5.8,12.9,12.9,12.9h72.4c7.1,0,12.9-5.8,12.9-12.9v-61C289.5,140.9,283.7,135.1,276.6,135.1z M282.6,209.1
			c0,3.3-2.7,6.1-6.1,6.1h-72.4c-3.3,0-6.1-2.7-6.1-6.1v-61c0-3.3,2.7-6.1,6.1-6.1h6.1v4.7c0,1.9,1.5,3.4,3.4,3.4
			c1.9,0,3.4-1.5,3.4-3.4V142h19.8v4.7c0,1.9,1.5,3.4,3.4,3.4s3.4-1.5,3.4-3.4V142h19.8v4.7c0,1.9,1.5,3.4,3.4,3.4
			c1.9,0,3.4-1.5,3.4-3.4V142h6.1c3.3,0,6.1,2.7,6.1,6.1C282.6,148.1,282.6,209.1,282.6,209.1z"/>
		<path class="st23" d="M222.3,198h-12.7c-1.9,0-3.4,1.5-3.4,3.4c0,1.9,1.5,3.4,3.4,3.4h12.7c1.9,0,3.4-1.5,3.4-3.4
			C225.8,199.6,224.2,198,222.3,198z"/>
		<path class="st3" d="M222.3,182h-12.7c-1.9,0-3.4,1.5-3.4,3.4c0,1.9,1.5,3.4,3.4,3.4h12.7c1.9,0,3.4-1.5,3.4-3.4
			C225.8,183.5,224.2,182,222.3,182z"/>
		<path class="st3" d="M246.8,166h-12.8c-1.9,0-3.4,1.5-3.4,3.4c0,1.9,1.5,3.4,3.4,3.4h12.7c1.9,0,3.4-1.5,3.4-3.4
			C250.1,167.5,248.7,166,246.8,166z"/>
		<path class="st3" d="M246.8,198h-12.8c-1.9,0-3.4,1.5-3.4,3.4c0,1.9,1.5,3.4,3.4,3.4h12.7c1.9,0,3.4-1.5,3.4-3.4
			C250.1,199.6,248.7,198,246.8,198z"/>
		<path class="st3" d="M246.8,182h-12.8c-1.9,0-3.4,1.5-3.4,3.4c0,1.9,1.5,3.4,3.4,3.4h12.7c1.9,0,3.4-1.5,3.4-3.4
			C250.1,183.5,248.7,182,246.8,182z"/>
		<path class="st3" d="M271.1,166h-12.7c-1.9,0-3.4,1.5-3.4,3.4c0,1.9,1.5,3.4,3.4,3.4h12.7c1.9,0,3.4-1.5,3.4-3.4
			C274.5,167.5,273,166,271.1,166z"/>
		<path class="st3" d="M271.1,198h-12.7c-1.9,0-3.4,1.5-3.4,3.4c0,1.9,1.5,3.4,3.4,3.4h12.7c1.9,0,3.4-1.5,3.4-3.4
			C274.5,199.6,273,198,271.1,198z"/>
		<path class="st3" d="M271.1,182h-12.7c-1.9,0-3.4,1.5-3.4,3.4c0,1.9,1.5,3.4,3.4,3.4h12.7c1.9,0,3.4-1.5,3.4-3.4
			C274.5,183.5,273,182,271.1,182z"/>
	</g>
	<g transform="translate(-30 -320)">
		<polygon class="st17" points="271,543.4 246,521.5 246,554.7 255.1,548.1 261.5,562.6 266.5,560.3 260.1,545.8 		"/>
	</g>
</g>
</svg>
