<?xml version="1.0" encoding="utf-8"?>
<!-- Generator: Adobe Illustrator 22.1.0, SVG Export Plug-In . SVG Version: 6.00 Build 0)  -->
<svg version="1.1" id="Layer_1" xmlns="http://www.w3.org/2000/svg" xmlns:xlink="http://www.w3.org/1999/xlink" x="0px" y="0px"
	 viewBox="0 0 891 676" style="enable-background:new 0 0 891 676;" xml:space="preserve">
<style type="text/css">
	.st0{opacity:0.3;fill:url(#SVGID_1_);enable-background:new    ;}
	.st1{fill:#E7E6E8;}
	.st2{fill:#F0EDF3;}
	.st3{fill:#FFFFFF;}
	.st4{fill:#B2B2B2;}
	.st5{fill:#5BB702;}
	.st6{fill:#00A6ED;}
	.st7{fill:#2C15B7;}
	.st8{fill:#FBD2C4;}
	.st9{fill:#FFBA0A;}
	.st10{fill:#2708A0;}
	.st11{fill:#FFB400;}
	.st12{fill:#F1D2C4;}
	.st13{fill:#F6511D;}
	.st14{fill:#100B00;}
	.st15{fill:#161303;}
	.st16{fill:#FDD4C6;}
	.st17{fill:#6FC911;}
	.st18{fill:#FFAF94;}
</style>
<linearGradient id="SVGID_1_" gradientUnits="userSpaceOnUse" x1="444.6812" y1="168.5567" x2="444.6812" y2="610.0087" gradientTransform="matrix(1 0 0 -1 0 808)">
	<stop  offset="0" style="stop-color:#FFFFFF;stop-opacity:0"/>
	<stop  offset="2.168840e-02" style="stop-color:#F6FCFE;stop-opacity:2.168840e-02"/>
	<stop  offset="0.1827" style="stop-color:#B6E5FA;stop-opacity:0.1827"/>
	<stop  offset="0.3416" style="stop-color:#7ED2F6;stop-opacity:0.3416"/>
	<stop  offset="0.4944" style="stop-color:#51C2F3;stop-opacity:0.4944"/>
	<stop  offset="0.64" style="stop-color:#2EB6F0;stop-opacity:0.64"/>
	<stop  offset="0.7764" style="stop-color:#15ADEE;stop-opacity:0.7764"/>
	<stop  offset="0.9001" style="stop-color:#05A8ED;stop-opacity:0.9001"/>
	<stop  offset="1" style="stop-color:#00A6ED"/>
</linearGradient>
<path class="st0" d="M32.9,483.5C3.1,385.1,92.2,199.2,148.6,198c69.9-1.5,27.3,133.8,167.5,136.9c59.2,1.3,73.4,160.5,158.7,157.2
	c71.5-2.7,91.5-197.9,208.7-223.4c6.7-1.5,46.6-10.1,86.5,13.4c41.3,24.4,106.6,133.6,89.6,203.3C812.2,679.2,99.2,702.7,32.9,483.5
	z"/>
<g>
	<g id="Ground_1_">
		<g>
			<path class="st1" d="M591.4,498.6H132c-8.5,0-15.3,6.9-15.3,15.3c0,8.5,6.9,15.3,15.3,15.3h459.3c8.5,0,15.3-6.9,15.3-15.3
				C606.7,505.5,599.8,498.6,591.4,498.6z"/>
		</g>
	</g>
	<g id="Building_3_">
		<g>
			<path class="st2" d="M560.7,161.8h-245c-8.5,0-15.3,6.9-15.3,15.3v321.5h275.6V177.1C576.1,168.6,569.2,161.8,560.7,161.8z"/>
		</g>
	</g>
	<g id="Windows_4_">
		<g>
			<path class="st3" d="M422.9,192.4V223h122.5v-30.6H422.9z M422.9,284.3h122.5v-30.6H422.9V284.3z M422.9,345.5h122.5v-30.6H422.9
				V345.5z M422.9,406.8h122.5v-30.6H422.9V406.8z M422.9,468h122.5v-30.6H422.9V468z"/>
		</g>
	</g>
	<g id="Building_2_">
		<g>
			<path class="st2" d="M407.6,39.3h-245c-8.5,0-15.3,6.9-15.3,15.3v444h275.6v-444C422.9,46.1,416.1,39.3,407.6,39.3z"/>
		</g>
	</g>
	<g id="Windows_2_">
		<g>
			<path class="st3" d="M178,161.8h214.4v-30.6H178V161.8z M178,345.5h214.4v-30.6H178V345.5z M178,284.3h214.4v-30.6H178V284.3z
				 M178,223h214.4v-30.6H178V223z M178,406.8h214.4v-30.6H178V406.8z M178,468h214.4v-30.6H178V468z M178,69.9v30.6h214.4V69.9H178
				z"/>
		</g>
	</g>
</g>
<g>
	<rect x="413.8" y="259.3" class="st3" width="279.8" height="240.1"/>
	<path class="st4" d="M395.8,268.5h10.5v236.9c0,4.4,3.6,8,8,8h84.6L461.9,578c-2.2,3.8-0.9,8.7,3,10.9c1.2,0.7,2.6,1.1,4,1.1
		c2.8,0,5.5-1.4,6.9-4l16.9-29.6c0.2,0,0.3,0,0.5,0l55.2-10.8v18c0,4.4,3.6,8,8,8c4.4,0,8-3.6,8-8v-18l51.8,10.8
		c0.5,0.1,1.1,0.2,1.6,0.2c0.7,0,1.4-0.2,2.1-0.4l17,29.8c1.5,2.6,4.2,4,6.9,4c1.3,0,2.7-0.3,4-1.1c3.8-2.2,5.2-7.1,3-10.9
		l-36.9-64.6h54.1c21.2,0,38.4-17.2,38.4-38.4V268.5h11c4.4,0,8-3.6,8-8c0-4.4-3.6-8-8-8H395.8c-4.4,0-8,3.6-8,8
		C387.8,264.9,391.4,268.5,395.8,268.5z M503,538.1l14.1-24.7h31.1v15.9L503,538.1z M609.9,538.8l-45.6-9.5v-15.8h31.1L609.9,538.8z
		 M690.3,475c0,12.4-10.1,22.5-22.5,22.5H556.3c0,0,0,0,0,0c0,0,0,0,0,0h-134v-229h268.1V475z"/>
	<path class="st5" d="M544.4,424.6c0,23.7,19.2,42.9,42.9,42.9c21.8,0,39.9-16.4,42.5-37.5l5.3,0.7c3.3,0,6-2.7,6-6
		c0-29.7-24.1-53.8-53.8-53.8c-3.3,0-6,2.7-6,6l0.7,5.3C560.8,384.7,544.4,402.8,544.4,424.6z M587.3,455.4
		c-17,0-30.8-13.8-30.8-30.8c0-14.9,10.7-27.4,24.8-30.2v30.2c0,3.3,2.7,6,6,6h30.2C614.7,444.8,602.2,455.4,587.3,455.4z
		 M628.6,418.6h-4.5h-30.8v-30.8c0,0,0,0,0,0v-4.4C611.5,385.9,626,400.4,628.6,418.6z"/>
	<path class="st4" d="M525.7,430h-60.4c-4.4,0-8,3.6-8,8c0,4.4,3.6,8,8,8h60.4c4.4,0,8-3.6,8-8C533.7,433.6,530.1,430,525.7,430z"/>
	<path class="st4" d="M525.7,398h-38.8c-4.4,0-8,3.6-8,8s3.6,8,8,8h38.8c4.4,0,8-3.6,8-8C533.7,401.6,530.1,398,525.7,398z"/>
	<path class="st6" d="M449.7,330.3l16.7,35.5c1.3,2.7,4,4.5,7.1,4.6c0.1,0,0.1,0,0.2,0c3,0,5.7-1.7,7.1-4.3l20.4-39.3l15.6,15.6
		c2.9,2.9,7.6,3.1,10.7,0.5l41.7-34.9v21c0,4.4,3.6,8,8,8c4.4,0,8-3.6,8-8v-38.3c0-4.4-3.6-8-8-8H539c-4.4,0-8,3.6-8,8s3.6,8,8,8
		h16.5l-32.6,27.3l-18.2-18.1c-1.8-1.8-4.4-2.6-6.9-2.2c-2.5,0.4-4.7,2-5.8,4.2l-18,34.7l-9.9-20.9c-1.9-4-6.6-5.7-10.6-3.8
		C449.6,321.6,447.9,326.3,449.7,330.3z"/>
</g>
<g>
	<g>
		<g>
			<path class="st7" d="M294,333.5l7.8,5.5c-3.2,4.2-11.4,17.6-13.1,18.6c-7.8,5.3-37.5,24-51.6,25.4c-20.1,2-17.7-21.8-10.2-24
				c15.4-4.7,59.1-18,59.1-18L294,333.5z"/>
			<path class="st8" d="M319.6,312.8c-2.4,2.1-11.1,16.5-17.7,26.3l-7.8-5.5l22.5-23.8c0,0,1-5,0.3-7s1.2-1.9,1.9-0.5
				c0.6,1.4,1,4,1,4l7.4-7.8C327.2,298.6,333.1,301.6,319.6,312.8z"/>
			<polygon class="st9" points="295,332.2 302.8,337.7 297,346.2 287.5,339.5 			"/>
		</g>
		<g>
			<polygon class="st3" points="253.1,636.8 252.5,641.2 252.6,643.2 248,645.9 243.2,640.8 243.5,636.7 			"/>
			<path class="st3" d="M207.2,637.7c0,0-1.9,6.4-2.2,6.5c-0.3,0.2-4,2.1-4,2.1l-5.1-4.3l0.6-4L207.2,637.7z"/>
			<path class="st9" d="M222.9,443.2l12.4,44.5c0,0,1.9,40-1,60.4C232,564.2,220,606,210.5,638c-1.1,3.4-14.9,3.6-14.5,0
				c4.7-42.4,8.3-69.1,5.3-88.4c-5.7-35.8-11.8-49.1-17.1-98.4L222.9,443.2z"/>
			<path class="st9" d="M201.7,448.2l14.5,40.8c0,0,12.9,21.3,18.8,36.5c7,17.8,6.8,65.8,7.8,110.9c0.1,3.1,12.1,3.2,12.4,0.1
				c5-49.4,12.5-73.4,9.3-101.1c-2.1-19.4-5.1-54.7-25.5-99.9L201.7,448.2z"/>
			<path class="st3" d="M209.4,374.9l-2.4-9.3c0,0,8.5,5.5,14.5,4.9c5.9-0.4,5.7-4,5.6-7.4c-0.2-3.4,7.7,4.4,7.5,4.6
				c-0.2,0.2,4.9,28.7,4.9,28.7l0.2,58.5c0,0-4.1,7.8-26.3,7.7L209.4,374.9z"/>
			<path class="st10" d="M227.2,358.7l4.6-0.9c0,0,2.8,2.4,5.7,7.2c2.9,4.7,9,24,8.3,37.3c-2.4,50.3,18.3,76.2,18.3,85.1
				c-0.1,7.2-10.5,12-10.5,12s-16.3-41.1-17.4-49c-2.1-14.7-3-36.2-3.2-44.8c-0.1-8.6-3.5-34.7-6.1-39.3L227.2,358.7z"/>
			<path class="st10" d="M208.6,372.2l-3.8-11.5c0,0-3.1,2-16.1,12.7c-14.3,11.9-25.8,81.5-14.8,119c3.1,10.8,44.2,18,44.2,18
				c-4.1-14.2-3.1-137.5-3.1-137.5L208.6,372.2z"/>
			<path class="st11" d="M223.6,355.9c4.2,1.6,9.6,11.5,9.6,11.5c-2.5-0.2-5.2,1.3-5.2,1.3s-0.8-2-5.3-8.5
				C222.6,360.2,219.2,354.4,223.6,355.9z"/>
			<path class="st12" d="M206.8,366.9l4.1,1.6c2.9,1.1,5.9,1.6,8.9,1.3l0,0c3.7-0.3,4.6-1.5,5-5.2c0.1-0.6-0.2-5.4-0.1-6
				c0.6-4.3,7-0.8,8.7-5.3c1.8-4.6-4.2-28.7-20.2-22.7s7.3,23.2-6.7,28.2L206.8,366.9z"/>
			<path class="st11" d="M206.5,358.7c0,0,0.2,2.3,2.2,5.6c3.3,5.3,6.5,8.6,6.5,8.6c-1-0.1-5.6,1.8-5.6,1.8c-5.5-5.9-6-8.2-7.4-13.7
				L206.5,358.7z"/>
			<path class="st13" d="M224.4,328.3c-3.8-1.1-9.4-2.6-16.5,2c-7,4.5-6.4,12.7-4.4,17.2c1.9,4.5,4.8,6.6,8.9,8
				c4,1.4,4.7-4.1,4.7-4.1s-4.2-1.2-4-3.7c0.2-2.5,2.3-1.3,3.7-1.8c1.4-0.5-1.2-8,0.6-9.9c1.9-1.7,4.8,0,5.2-1.3s3.1-1,5.4,0
				C228,334.8,227.9,329.3,224.4,328.3z"/>
			<path class="st14" d="M278.1,653c0-0.2,0-1,0-1.1c-0.7-2.5-25.7-10.7-25.7-10.7c-0.3,1.4-7.3,1-9.3-0.5c0,0-0.4,2.8-0.6,4
				c-0.6,4.1,3.9,4.8,9,5.8C256.7,651.4,277.5,655.4,278.1,653z"/>
			<path class="st14" d="M218.2,655.5c0-0.2,0-1,0-1.1c-0.6-2.5-13.1-10.1-13.1-10.1c-0.3,0.2-7.6,0.3-8.9-2.7c0,0-0.6,3.8-0.6,5
				c-0.6,4.1,8.5,8.5,10.5,9.2C210.8,657.6,217.5,657.9,218.2,655.5z"/>
		</g>
		<g>
			<path class="st7" d="M196.3,460.9l-8.8,3.7c-1.9-4.9-8.9-19-9-20.9c-0.4-9.4-0.6-44.5,5.5-57.2c8.8-18.2,27.8-3.6,25.8,4
				c-4.1,15.6-15.8,59.7-15.8,59.7L196.3,460.9z"/>
			<path class="st8" d="M200.5,493.5c-0.5-3.2-8.2-18.1-13-28.9l8.8-3.7l8.4,31.7c0,0,3.7,3.5,5.7,4c2,0.5,1,2-0.6,1.8
				c-1.5-0.2-3.9-1.3-3.9-1.3l2.7,10.4C208.5,507.5,202.9,510.9,200.5,493.5z"/>
			<polygon class="st9" points="196.9,462.4 188.1,466.1 184,456.8 194.6,452.2 			"/>
		</g>
	</g>
</g>
<g>
	<path class="st15" d="M702.1,643.9c-0.2,2.4-7.5,7.8-9.6,8.7c-2.1,0.9-1.4,4.2-0.4,4.3s3.2,0.2,9.4,0c6.2-0.3,11.1-2.4,12.7-5.5
		c1.6-3-0.6-6.5-0.7-7.5C713.5,643.9,702.2,641.5,702.1,643.9z"/>
	<path class="st15" d="M658.5,644.5c-0.2,2.4-16,8.8-19.2,9.7s-2.2,2.6-0.7,2.7s4.7,0.2,14,0c9.3-0.3,16.6-2.4,19-5.5
		c2.4-3-0.8-6.5-1-7.5C670.6,643.9,658.8,642.1,658.5,644.5z"/>
	<path class="st13" d="M685.6,492.1c0,0-5.9,49.4-4,70.6c1.9,21.2,19,81.2,19,81.2h14.3c0,0-9.3-62.1-7.7-87.1
		c1.6-25,12.9-77.6,12.9-77.6L685.6,492.1z"/>
	<path class="st13" d="M664.6,485.4c0,0-12.4,53.9-10.5,75.1s3.4,83.3,3.4,83.3h14.3c0,0,7.8-37.7,9.4-62.7
		c1.6-25,17-101.9,17-101.9L664.6,485.4z"/>
	<path class="st9" d="M707.3,286.1h7c0,0,12.4,37.8,14.5,56.1c2.4,21.3-10.2,54.7-8.8,75.1c1.4,20.5,3.7,74.7,3.7,74.7
		c-15.4,11.2-23.4,0.9-38.6,6.4c-18.5,6.7-25.1-0.8-25.1-0.8l-3.5-56.2c0,0-7.8,13.4-27,8.5c-19.2-4.9-25.4-65.7-25.4-65.7h8.7
		c0,0,8.2,37.8,16.9,41.7c8.7,4,16.7-32.6,26.2-35.2s28-11.7,33.8-15.5c5.8-3.7,12.2-12.5,14.4-31.6c2.8-24.3,3.2-57.4,3.2-57.4
		V286.1z"/>
	<path class="st12" d="M707.3,277.8v-9.7c0,0,6.2,2.7,7.4,5.1c1.2,2.4-0.6,13-0.6,13h-6.8c0,0-1.8-2.2-2-4.9c-0.2-2.7-3.6-7.4-2-8.1
		C704.9,272.5,707.3,277.8,707.3,277.8L707.3,277.8z"/>
	<path class="st12" d="M603.9,384.2c0,0-1.1-5.3-1.8-9.9c-1-6.1,5.4-4,7.5-0.6s3.3,6.5,3.3,6.5h5.4c-1,2.7-5.3,2.4-5.7,4H603.9z"/>
	<path class="st10" d="M654.8,391c0,0,4.4,6.3,7.7,21.3c3.3,15-6.3,29.1-6.3,29.1s1.2,27.7-0.2,36.2c-3.2,19,37.7,13.1,46.4,13.1
		c14.2,0,22-10.1,21.8-21.9c-0.2-15.9-4-45.7-4.4-51.4c-0.4-5.6-13.3-34.5-26.8-44.9L654.8,391z"/>
	<path class="st9" d="M682.6,376.6c-2.3,0.2-5.4-4.2-5.4-4.2l-10,4.7c0,0,0.7,1.6,0.9,4.6s-8.3,6.9-8.3,6.9s-0.8,1.8,8.9,1.4
		c9.7-0.4,19.6-6.3,19.5-15.2C688.2,374.8,684.8,376.6,682.6,376.6z"/>
	<path class="st12" d="M677.1,372.4c0,0,0.1-8,0.4-13.6c0.4-5.5-10.8-12.1-14.7-11.7c-3.9,0.5-8,12.7-7.7,21.1c0.2,5.6,8,6.7,12,9
		L677.1,372.4z"/>
	<path class="st13" d="M698.5,380.1c-3.9-8.1-7.6-3.2-11.2-9.6c-3.6-6.4,4.7-8.3-3.3-20.3c-8-12.1-12.5-9-16.3-9.6
		c-3.8-0.5-5.1,3-5.1,3c-5,0.3-4.8,5.1-5.6,8.3c-0.8,3.2,4.5,8.5,4.5,8.5s2.3,1,3.1,3.4s-1.8,4-1.8,4c0.7,6.9,5.5,8.9,8.3,17
		c2.7,8,0.7,12-2.2,21.2c-2.9,9.2-3.5,14.9,4.1,19.5c7.7,4.6,10.5-9.5,20-8.3s19.5-5.6,11.2-15.7
		C698.2,394.2,702.6,388.2,698.5,380.1z"/>
</g>
<g>
	<path class="st16" d="M364.9,394.1c0,0,16.9,14.8,24,16.3c5.2,1.1,15.4-18.7,15.1-21.5c-0.3-2.8-1.4-5-1.5-8.4
		c-0.1-3.4,3-5.6,3-5.6s0.6,3.9,0.8,5.2c0.2,1.3,0.8,2.6,2.4,1.6s5.4-3.9,5.8-2.9c0.7,1.9-2.6,2.7-3.2,7.8c-0.2,2.1-1.8,3.5-1.8,3.5
		s-4.2,31.1-15.5,34.1c-11.4,2.9-31.8-12.1-31.8-12.1L364.9,394.1z"/>
	<path class="st17" d="M355.4,391.2c0.4-0.2,0.9-0.3,1.8-0.3c6-0.1,10.4,4.7,16.5,9.6c2.4,1.9,6,4.6,10.8,7.6c0,0-8.9,8.5-5.6,14.1
		c-1.8-0.5-4.5-1.3-7.6-2.4c-7.7-2.7-11.6-4.1-13.7-6.1C351,407.3,351.1,393.5,355.4,391.2z"/>
	<g>
		<path class="st16" d="M376,627l-2.4,3.8l-0.7,1.9l-4.8,0.7c-0.9-1.7-1.7-3.3-2.6-5c1-1.7,2-3.4,3-5.1L376,627z"/>
		<polygon class="st16" points="345.1,626.4 343.7,630.7 343.5,632.7 338.8,634.5 335.3,628.7 336.3,624.7 		"/>
		<path class="st10" d="M384.3,583.3c0,0-15.8,38.4-16,39.7c-0.3,1.3,0.3,2.3,0.3,2.3l6.4,3.7l1.9-3.5l23.4-38.3L384.3,583.3z"/>
		<path class="st9" d="M371,639.7c-4.6-1.9-9.2-4.6-7.9-8.4c0.4-1.1,2.7-4.3,2.7-4.3c0.7,3,7.3,5.6,7.9,4.2c0,0,19.5,11.8,19.7,14.2
			c0,0.1-0.1,0.9-0.2,1.1C392.1,648.6,375.6,641.6,371,639.7z"/>
		<path class="st10" d="M338.2,495.3c3.2,20.2,44.5,42,48.3,57.1c3.2,12.9-2.2,30.9-2.2,30.9c-0.2,1.7,14.9,6,16,3.9
			c0,0,14.8-28.7,14.8-41.9c0-20.1-25.1-45-35.8-56.5c-3.6-3.9-13.7-15.6-13.7-15.6S333,462.2,338.2,495.3z"/>
		<path class="st10" d="M342.8,584.3c0,0-6.2,38.5-6.4,39.8c-0.3,1.3,0.3,2.3,0.3,2.3c0.5,0.4,2.4,1.7,5,1.4
			c1.6-0.2,2.7-0.8,3.3-1.2c4.3-12.7,8.5-25.4,12.8-38.2L342.8,584.3z"/>
		<path class="st9" d="M344.9,641.8c-1.8-0.6-10.6-4.8-10.1-8.8c0.1-1.2,0.6-4.9,0.6-4.9c1.3,2.8,8.3,2.7,8.6,2.5
			c0,0,8.9,7.2,9.5,9.5c0,0.1,0,0.9,0,1.1C352.9,643.6,349.6,643.5,344.9,641.8z"/>
		<path class="st10" d="M313,491.2c3.2,20.2,23.6,50.3,27.3,65.3c3.2,12.9,2.5,27.8,2.5,27.8c-0.2,1.7,13.9,6.3,15,4.1
			c0,0,11.1-25.9,11.1-39.1c0-20.1-14.5-45.2-25.1-56.8c-3.6-3.9-12.3-19.4-12.3-19.4S307.7,458.1,313,491.2z"/>
		<path class="st5" d="M365.7,473.2c-12.8-17.8-2.3-45.3,0.4-71.6c2.1-19.7-35.1-30-51.2,3.2c-16.1,33.2-1.9,86.4-1.9,86.4l46.2-2.8
			L365.7,473.2z"/>
		<path class="st16" d="M357.3,379.7c-5.1,3.1,0,6.6,0,6.6s0.4,8.2-12.4,5c-5.8-1.4-7.3-6.4-4.1-7.7c3.3-1.3,4.7-10.2,10.3-18
			c5.6-7.8,16.4-13.3,18.2,1.3C371.3,381.5,361.1,377.4,357.3,379.7z"/>
		<path class="st18" d="M366.2,360.4c10-0.8,13.5,0.8,3.5,3c-10,2.2-12.5,6.8-14.7,5.9c-2.2-0.8-4.9-0.7-4.5,2.2
			c0.4,2.9,2.3,2.4,2.3,2.4s-0.2,3.2-3.5,3.6c-3.3,0.4-4.2,0-4.2,0s-1.2-5.9,1.4-11.2S355.9,361.3,366.2,360.4z"/>
		<path class="st13" d="M368.4,360.2c-6.7,4-7.1,4.2-13.3,6.9c-8,3.5-9.5,0.9-9.5,0.9s0.5-7.2,5.4-9.8
			C361.9,352.4,368.4,360.2,368.4,360.2z"/>
		<path class="st13" d="M362.7,363.6c0,0,11.6-2.8,13.7-3.8c2.9-1.3,3.5-1.4,7-3.7c1-0.6-2.6-1.8-5.1-0.6
			c-4.7,2.3-11.2,3.8-11.2,3.8L362.7,363.6z"/>
	</g>
	<path class="st17" d="M358.8,457.5c0.5-0.4,0.8-0.8,1-1c0,0,1.8,11.6,6.3,17c0.1,3.9-0.8,6.9-1.9,9.1c-6,12.2-26.4,17.1-50.7,12.3
		c-1.2-4.4-2.2-9.2-3.2-14.1c-1.6-7.9-3.1-17.5-3-24.2c7.5,3.1,14,4.6,18.6,5.3C335.1,463.4,349.9,465.8,358.8,457.5z"/>
	<path class="st16" d="M403.5,484.5c4,0.3,6.1,0.7,6.5,1.2c0.4,0.5-0.6,1.6-3.2,1.5c-2.6-0.1,3.3,5,5.4,5.1c2.1,0.1,4.2,2.4-0.5,2.5
		s-11.2-1.7-13.5-5.5c-2.3-3.8-34-23.9-43.7-33.7c-4.4-4.4-19.6-18.2-27.7-26.2c-7.8-7.8-3.3-16.1,3.2-24.9c0.4-0.5,0.7-0.8,0.9-1.1
		c2.5-2.4,23.8,33.9,32.6,44.4C372.3,458.1,403.5,484.5,403.5,484.5z"/>
	<path class="st17" d="M330,401.7c0.6,0,1,0.3,1.2,0.4c8.6,6.2,21.6,29.7,21.6,29.7s-12.8,4.6-12,11.7c-1.6-1.3-3.9-3.3-6.6-5.9
		c-6.6-6.2-9.9-9.3-11.1-12.3C319.1,415.6,325.9,401.6,330,401.7z"/>
</g>
</svg>
