<?xml version="1.0" encoding="utf-8"?>
<!-- Generator: Adobe Illustrator 22.1.0, SVG Export Plug-In . SVG Version: 6.00 Build 0)  -->
<svg version="1.1" id="Layer_1" xmlns="http://www.w3.org/2000/svg" xmlns:xlink="http://www.w3.org/1999/xlink" x="0px" y="0px"
	 viewBox="0 0 100 100" style="enable-background:new 0 0 100 100;" xml:space="preserve">
<style type="text/css">
	.st0{fill:#0071BB;}
</style>
<g>
	<path class="st0" d="M0.9,12.7v74.4l54.9,9.5V78.4v-6.9V52.5v-4.1V28.3v-6.9V3.2L0.9,12.7z M37.8,69.2l-20.8-2v-39l20-2.1V34
		l-12.2,0.9v9l11.4-0.3v7.8l-11.4-0.1v9.3l13,0.7V69.2z"/>
	<path class="st0" d="M94,21.4H61v6.9h1.4c0.3,0,0.6,0.1,0.9,0.4l4.9,4.9c0.3,0.3,0.3,0.9,0,1.2l-1.8,1.8c-0.3,0.3-0.9,0.3-1.2,0
		L63,34.4c0,0-0.1-0.1-0.2-0.1H61v13.3c3.4,3.1,6.3,5.3,5.4,6.3c-0.6,0.6-2.8-0.4-5.4-2v13.5h0.8C68,60.8,73,52.5,74.5,53.9
		c1.8,1.7-10.1,17.3-11.6,17.5H61v6.9h33c2.7,0,4.9-2.2,4.9-4.9V26.3C98.9,23.6,96.7,21.4,94,21.4z M92,65.4v4.8
		c0,0.7-0.5,1.2-1.2,1.2H86h-2h-5.5c-0.3,0-0.6-0.1-0.9-0.4l-4.9-4.9c-0.3-0.3-0.3-0.9,0-1.2l1.8-1.8c0.3-0.3,0.9-0.3,1.2,0l2.2,2.2
		c0,0,0.1,0.1,0.2,0.1H86v-6.9c-4.6-6.1-12.9-11.1-11.5-12.6C76.2,44.1,91.8,56,92,57.4V65.4z M92,34.4v2v5.5c0,0.3-0.1,0.6-0.4,0.9
		l-4.9,4.9c-0.3,0.3-0.9,0.3-1.2,0l-1.8-1.8c-0.3-0.3-0.3-0.9,0-1.2l2.2-2.2c0,0,0.1-0.1,0.1-0.2v-7.9h-6.9
		c-6.1,4.6-11.1,12.9-12.6,11.5C64.7,44.2,76.5,28.5,78,28.3h8h4.8c0.7,0,1.2,0.5,1.2,1.2V34.4z"/>
</g>
</svg>
