<?xml version="1.0" encoding="utf-8"?>
<!-- Generator: Adobe Illustrator 22.1.0, SVG Export Plug-In . SVG Version: 6.00 Build 0)  -->
<svg version="1.1" id="Layer_1" xmlns="http://www.w3.org/2000/svg" xmlns:xlink="http://www.w3.org/1999/xlink" x="0px" y="0px"
	 viewBox="0 0 200 200" style="enable-background:new 0 0 200 200;" xml:space="preserve">
<style type="text/css">
	.st0{clip-path:url(#SVGID_2_);fill:url(#SVGID_3_);}
	.st1{fill:#132E78;}
	.st2{clip-path:url(#SVGID_5_);}
	.st3{clip-path:url(#SVGID_7_);}
	.st4{clip-path:url(#SVGID_9_);}
	.st5{clip-path:url(#SVGID_13_);}
	.st6{clip-path:url(#SVGID_15_);}
	.st7{clip-path:url(#SVGID_17_);}
	.st8{clip-path:url(#SVGID_21_);}
	.st9{clip-path:url(#SVGID_23_);}
	.st10{clip-path:url(#SVGID_25_);}
</style>
<g>
	<g>
		<defs>
			<path id="SVGID_1_" d="M102.1,195.6h-1.3c-12.8-0.1-25.1-2.7-36.3-7.5c-11.4-4.8-21.7-11.8-30.3-20.5c-8.8-8.9-16-19.5-20.8-31.3
				c-4.5-11.1-7.1-23.4-7.1-36.1c0-2.9,0.1-5.8,0.4-8.6c1-11.1,3.9-21.7,8.3-31.4c4.7-10.3,11.2-19.6,19.1-27.5
				C42.9,24,53.1,17,64.5,12.2c11.3-4.8,23.8-7.5,36.9-7.5c4,0,8,0.3,11.8,0.7C125.7,7,137.5,11,148,17c7.6,4.3,14.5,9.6,20.6,15.7
				c7.9,7.9,14.4,17.2,19.1,27.5c4.5,9.7,7.3,20.3,8.3,31.4c0.2,2.7,0.4,5.4,0.4,8.2v0.9c-0.1,12.6-2.6,24.7-7.1,35.7
				c-4.8,11.8-11.9,22.4-20.8,31.3c-6.1,6.1-13,11.4-20.6,15.7c-10.5,5.9-22.2,9.9-34.7,11.5C109.6,195.3,105.9,195.5,102.1,195.6"
				/>
		</defs>
		<clipPath id="SVGID_2_">
			<use xlink:href="#SVGID_1_"  style="overflow:visible;"/>
		</clipPath>
		<radialGradient id="SVGID_3_" cx="101.5" cy="100.5" r="94.5" gradientUnits="userSpaceOnUse">
			<stop  offset="0" style="stop-color:#FFFFFF"/>
			<stop  offset="0.4812" style="stop-color:#FDFDFD"/>
			<stop  offset="0.6546" style="stop-color:#F6F6F6"/>
			<stop  offset="0.7781" style="stop-color:#EBEBEB"/>
			<stop  offset="0.878" style="stop-color:#DADADA"/>
			<stop  offset="0.9626" style="stop-color:#C4C4C4"/>
			<stop  offset="1" style="stop-color:#B8B8B8"/>
		</radialGradient>
		<circle class="st0" cx="101.5" cy="100.5" r="94.5"/>
	</g>
	<g>
		<path class="st1" d="M181.3,61.5c-10.1-11.1-32.8-22.4-61.8-22.6c-40.7-0.3-84.1,18.7-70.7,49.9c2.5,5.8,36.9-4.3,34.9-14.5
			C82.8,70,78,61.6,81.3,58.2c6.1-6.4,26.6-3.7,44.8-3.2c18.2,0.5,33.7-0.4,40.4,6.3c4.4,4.4-0.6,11.2-0.3,14.5
			c0.9,9.8,18.7,15.5,21.5,15.5C193,91.3,190.6,71.9,181.3,61.5"/>
	</g>
	<g>
		<defs>
			<path id="SVGID_4_" d="M181.3,61.5c-10.1-11.1-32.8-22.4-61.8-22.6c-40.7-0.3-84.1,18.7-70.7,49.9c2.5,5.8,36.9-4.3,34.9-14.5
				C82.8,70,78,61.6,81.3,58.2c6.1-6.4,26.6-3.7,44.8-3.2c18.2,0.5,33.7-0.4,40.4,6.3c4.4,4.4-0.6,11.2-0.3,14.5
				c0.9,9.8,18.7,15.5,21.5,15.5C193,91.3,190.6,71.9,181.3,61.5"/>
		</defs>
		<clipPath id="SVGID_5_">
			<use xlink:href="#SVGID_4_"  style="overflow:visible;"/>
		</clipPath>
		<g class="st2">
			<defs>
				<rect id="SVGID_6_" x="6.4" y="2.7" width="1267.4" height="192.9"/>
			</defs>
			<clipPath id="SVGID_7_">
				<use xlink:href="#SVGID_6_"  style="overflow:visible;"/>
			</clipPath>
			<g class="st3">
				<g>
					<defs>
						<rect id="SVGID_8_" x="6.4" y="2.7" width="1267.4" height="192.9"/>
					</defs>
					<clipPath id="SVGID_9_">
						<use xlink:href="#SVGID_8_"  style="overflow:visible;"/>
					</clipPath>
					<g class="st4">
						<defs>
							<rect id="SVGID_10_" x="6.4" y="2.7" width="1267.4" height="192.9"/>
						</defs>
						<clipPath id="SVGID_11_">
							<use xlink:href="#SVGID_10_"  style="overflow:visible;"/>
						</clipPath>
						<g style="clip-path:url(#SVGID_11_);">
							
								<image style="overflow:visible;" width="5282" height="804" xlink:href="9CEB76ED61AE97C3.jpg"  transform="matrix(0.24 0 0 0.24 6.24 2.64)">
							</image>
						</g>
					</g>
				</g>
			</g>
		</g>
	</g>
	<g>
		<path class="st1" d="M164.1,84.3c-8.2-9-4.6-18-6.1-19.3c-1.5-1.3-10-3.3-11.5-2.5c-1.5,0.8-1.2,5-2.8,5.9
			c-3.1,1.8-5.5,0.1-14.4-0.2c-9.8-0.4-15.8,1.3-19-0.7c-3.2-2-1.8-4.6-4-5.8C103,60,93.9,62.6,93.2,63c-2.2,1.2,1.2,9.7-3.2,16.8
			c-6.1,10-18,10.2-25,20.3c-6.9,10.2,0.8,38.9,3.2,47.3c1.5,5.4,41.3,4.7,60.1,3.7c17.7-0.9,41.7-6,43.6-9.5
			c6.9-12.5,12.3-35.7,8-42.6C175.1,91.7,171,91.9,164.1,84.3 M124.7,146.4c-17.7,0-30.6-12.8-30.6-29.8c0-17,14.4-31.6,32.1-31.6
			c17.7,0,31.1,13,31.1,30C157.3,132,142.4,146.4,124.7,146.4z"/>
	</g>
	<g>
		<defs>
			<path id="SVGID_12_" d="M164.1,84.3c-8.2-9-4.6-18-6.1-19.3c-1.5-1.3-10-3.3-11.5-2.5c-1.5,0.8-1.2,5-2.8,5.9
				c-3.1,1.8-5.5,0.1-14.4-0.2c-9.8-0.4-15.8,1.3-19-0.7c-3.2-2-1.8-4.6-4-5.8C103,60,93.9,62.6,93.2,63c-2.2,1.2,1.2,9.7-3.2,16.8
				c-6.1,10-18,10.2-25,20.3c-6.9,10.2,0.8,38.9,3.2,47.3c1.5,5.4,41.3,4.7,60.1,3.7c17.7-0.9,41.7-6,43.6-9.5
				c6.9-12.5,12.3-35.7,8-42.6C175.1,91.7,171,91.9,164.1,84.3 M124.7,146.4c-17.7,0-30.6-12.8-30.6-29.8c0-17,14.4-31.6,32.1-31.6
				c17.7,0,31.1,13,31.1,30C157.3,132,142.4,146.4,124.7,146.4z"/>
		</defs>
		<clipPath id="SVGID_13_">
			<use xlink:href="#SVGID_12_"  style="overflow:visible;"/>
		</clipPath>
		<g class="st5">
			<defs>
				<rect id="SVGID_14_" x="6.4" y="2.7" width="1267.4" height="192.9"/>
			</defs>
			<clipPath id="SVGID_15_">
				<use xlink:href="#SVGID_14_"  style="overflow:visible;"/>
			</clipPath>
			<g class="st6">
				<g>
					<defs>
						<rect id="SVGID_16_" x="6.4" y="2.7" width="1267.4" height="192.9"/>
					</defs>
					<clipPath id="SVGID_17_">
						<use xlink:href="#SVGID_16_"  style="overflow:visible;"/>
					</clipPath>
					<g class="st7">
						<defs>
							<rect id="SVGID_18_" x="6.4" y="2.7" width="1267.4" height="192.9"/>
						</defs>
						<clipPath id="SVGID_19_">
							<use xlink:href="#SVGID_18_"  style="overflow:visible;"/>
						</clipPath>
						<g style="clip-path:url(#SVGID_19_);">
							
								<image style="overflow:visible;" width="5282" height="804" xlink:href="9CEB76ED61AE97C6.jpg"  transform="matrix(0.24 0 0 0.24 6.24 2.64)">
							</image>
						</g>
					</g>
				</g>
			</g>
		</g>
	</g>
	<g>
		<path class="st1" d="M126.7,102.2c-8.6,0-15.6,7.2-15.6,15.5c0,8.4,6.3,14.7,14.9,14.7c8.6,0,15.9-7.1,15.9-15.5
			C141.9,108.6,135.3,102.2,126.7,102.2"/>
	</g>
	<g>
		<defs>
			<path id="SVGID_20_" d="M126.7,102.2c-8.6,0-15.6,7.2-15.6,15.5c0,8.4,6.3,14.7,14.9,14.7c8.6,0,15.9-7.1,15.9-15.5
				C141.9,108.6,135.3,102.2,126.7,102.2"/>
		</defs>
		<clipPath id="SVGID_21_">
			<use xlink:href="#SVGID_20_"  style="overflow:visible;"/>
		</clipPath>
		<g class="st8">
			<defs>
				<rect id="SVGID_22_" x="6.4" y="2.7" width="1267.4" height="192.9"/>
			</defs>
			<clipPath id="SVGID_23_">
				<use xlink:href="#SVGID_22_"  style="overflow:visible;"/>
			</clipPath>
			<g class="st9">
				<g>
					<defs>
						<rect id="SVGID_24_" x="6.4" y="2.7" width="1267.4" height="192.9"/>
					</defs>
					<clipPath id="SVGID_25_">
						<use xlink:href="#SVGID_24_"  style="overflow:visible;"/>
					</clipPath>
					<g class="st10">
						<defs>
							<rect id="SVGID_26_" x="6.4" y="2.7" width="1267.4" height="192.9"/>
						</defs>
						<clipPath id="SVGID_27_">
							<use xlink:href="#SVGID_26_"  style="overflow:visible;"/>
						</clipPath>
						<g style="clip-path:url(#SVGID_27_);">
							
								<image style="overflow:visible;" width="5282" height="804" xlink:href="9CEB76ED61AE97C5.jpg"  transform="matrix(0.24 0 0 0.24 6.24 2.64)">
							</image>
						</g>
					</g>
				</g>
			</g>
		</g>
	</g>
</g>
</svg>
