<?xml version="1.0" encoding="utf-8"?>
<!-- Generator: Adobe Illustrator 22.1.0, SVG Export Plug-In . SVG Version: 6.00 Build 0)  -->
<svg version="1.1" id="Layer_1" xmlns="http://www.w3.org/2000/svg" xmlns:xlink="http://www.w3.org/1999/xlink" x="0px" y="0px"
	 viewBox="0 0 591 416.8" style="enable-background:new 0 0 591 416.8;" xml:space="preserve">
<style type="text/css">
	.st0{opacity:0.1;fill:url(#SVGID_1_);enable-background:new    ;}
	.st1{fill:#A8B3B4;}
	.st2{fill:#F3EFF5;}
	.st3{fill:#FFFFFF;}
	.st4{fill:#6F7E81;}
	.st5{fill:#454955;}
	.st6{fill:#FF2C2C;}
	.st7{fill:#5BB702;stroke:#5BB702;stroke-miterlimit:10;}
	.st8{fill:#FFC950;}
	.st9{fill:#5BB702;stroke:#5BB702;stroke-width:2;stroke-miterlimit:10;}
	.st10{fill:#F6511D;}
	.st11{fill:#FFBA0A;}
	.st12{fill:#FF4949;}
	.st13{fill:#F1D2C4;}
	.st14{fill:#161303;}
	.st15{fill:#FDD4C6;}
	.st16{fill:#6FC911;}
	.st17{fill:#5BB702;}
	.st18{fill:#FFAF94;}
	.st19{fill:#2708A0;}
</style>
<linearGradient id="SVGID_1_" gradientUnits="userSpaceOnUse" x1="322.5189" y1="44.2822" x2="322.5189" y2="-340.6386" gradientTransform="matrix(1 0 0 1 -30.6739 354)">
	<stop  offset="0" style="stop-color:#FFFFFF;stop-opacity:0"/>
	<stop  offset="2.168840e-02" style="stop-color:#F6FCFE;stop-opacity:2.168840e-02"/>
	<stop  offset="0.1827" style="stop-color:#B6E5FA;stop-opacity:0.1827"/>
	<stop  offset="0.3416" style="stop-color:#7ED2F6;stop-opacity:0.3416"/>
	<stop  offset="0.4944" style="stop-color:#51C2F3;stop-opacity:0.4944"/>
	<stop  offset="0.64" style="stop-color:#2EB6F0;stop-opacity:0.64"/>
	<stop  offset="0.7764" style="stop-color:#15ADEE;stop-opacity:0.7764"/>
	<stop  offset="0.9001" style="stop-color:#05A8ED;stop-opacity:0.9001"/>
	<stop  offset="1" style="stop-color:#00A6ED"/>
</linearGradient>
<path class="st0" d="M40.8,305.1c-44.2-98,64.5-290.4,134-291.7c80.9-1.6,31.6,136.7,193.9,139.9c99.3,2,192.7,115.6,183.8,160.6
	C535.5,399.9,107.9,453.8,40.8,305.1z"/>
<g>
	<g>
		<path class="st1" d="M319,178.9c0,0-2.4-47.1-3.1-63.7c-0.4-8,21.9-18.7,26.9,1.5c3.5,14.2-4.4,49.5-6.7,59
			c-0.4,1.9-10.5,14.6-13.4,19.2l-8-5.7L319,178.9z"/>
		<path class="st2" d="M292.5,233.6l5-9.9c0,0-2.6,0.5-4.2,0.5c-1.7,0-2.4-1.9-0.2-2s6.7-2.7,6.7-2.7l15.2-30.2l8,5.7
			c-7.2,9.8-18.2,23.3-19.4,26.4C297.4,238.3,292.4,233.6,292.5,233.6z"/>
		<polygon class="st1" points="318.3,180.8 328,187.6 321.8,196.2 313.8,190.6 		"/>
	</g>
	<g>
		<polygon class="st3" points="330.5,383.5 331.1,387.8 326.5,393.4 321.6,390.9 321.5,388.9 320.6,384.4 		"/>
		<path class="st3" d="M378.9,381.7l0.9,4.1l-4.9,4.8c0,0-3.9-1.7-4.2-1.9c-0.3-0.1-2.7-6.6-2.7-6.6L378.9,381.7z"/>
		<path class="st1" d="M378.4,188.5c-1.9,51.1-7.3,65.2-10.6,102.4c-1.8,20,3.8,47.3,11.7,90.6c0.7,3.7-13.6,4.5-15,1.1
			c-11.9-32.3-27.3-74.4-30.7-90.8c-4.4-20.8-5.3-62.1-5.3-62.1L338,183L378.4,188.5z"/>
		<path class="st1" d="M320.9,176.2c-17.7,47.9-18.4,84.5-19.2,104.6c-1.3,28.8,8.1,53,16.7,103.4c0.5,3.2,12.9,2.3,12.8-0.9
			c-2.2-46.5-5.7-95.9,0.2-114.7c5-16,16.8-38.8,16.8-38.8l12.1-43L320.9,176.2z"/>
		<path class="st3" d="M349.3,202.2c-22.8,1.7-27.6-6-27.6-6l-3.9-60.2c0,0,3.2-29.6,3-29.8c-0.2-0.2,7.3-8.7,7.4-5.2
			c0.1,3.5,0.2,7.2,6.3,7.3c6.2,0.2,14.6-6.1,14.6-6.1l-1.8,9.7L349.3,202.2z"/>
		<path class="st4" d="M328.6,104.2c-2.4,5-4,32-3.6,40.9s1,31-0.1,46.3c-0.6,8.2-14.5,51.6-14.5,51.6s-11.1-4.2-11.7-11.7
			c-0.7-9.1,18.9-37.2,12.8-88.8c-1.7-13.6,3.3-33.9,5.9-38.9s5.4-7.8,5.4-7.8l4.8,0.6L328.6,104.2z"/>
		<path class="st4" d="M341.2,110c0,0,9.7,126.8,6.4,141.7c0,0,41.8-10.3,44.3-21.7c8.7-39.4-8-110.2-23.6-121.4
			c-14.1-10.1-17.4-11.9-17.4-11.9l-3.1,12.1L341.2,110z"/>
		<path class="st5" d="M332.5,97.5c-4.2,7.1-4.9,9.1-4.9,9.1s-2.9-1.3-5.5-1c0,0,4.9-10.6,9.1-12.5
			C335.7,91.3,332.5,97.5,332.5,97.5z"/>
		<path class="st2" d="M349,94.8c-14.8-4.2,7.9-23.6-8.9-28.6c-16.9-5-21.4,20.2-19.2,24.8c2.1,4.5,8.4,0.4,9.3,4.9
			c0.2,0.6,0.3,5.6,0.4,6.2c0.7,3.8,1.7,4.9,5.5,5l0,0c3.1,0.1,6.2-0.6,9.1-1.9l4.1-1.9L349,94.8z"/>
		<path class="st5" d="M353.6,96.9c-1.1,5.8-1.5,8.2-6.7,14.6c0,0-4.9-1.7-5.9-1.5c0,0,3.1-3.6,6.1-9.3c1.8-3.5,1.9-5.9,1.9-5.9
			L353.6,96.9z"/>
		<path class="st5" d="M325.2,71.7c2.3-1.2,5-1.7,5.6-0.4c0.5,1.3,3.4-0.6,5.5,1c2,1.7-0.1,9.7,1.3,10.1c1.4,0.4,3.6-1,3.9,1.6
			c0.3,2.6-3.9,4.1-3.9,4.1s1.1,5.6,5.1,3.9c4.1-1.7,7-4.1,8.6-8.8c1.7-4.8,1.8-13.2-5.7-17.4c-7.7-4.2-13.3-2.3-17.1-0.9
			C324.9,66.1,325.2,71.8,325.2,71.7z"/>
		<path class="st5" d="M323.2,398.4c5.1-1.4,9.7-2.4,8.8-6.6c-0.2-1.2-0.9-4.1-0.9-4.1c-2,1.8-9.2,2.7-9.6,1.2
			c0,0-25.1,10.2-25.7,12.8c0,0.1,0.1,0.9,0.1,1.1C296.8,405.2,317.9,399.6,323.2,398.4z"/>
		<path class="st5" d="M370.3,400.6c2-0.8,11-6,10.1-10.2c-0.1-1.2-1-5.1-1-5.1c-1.1,3.1-8.6,3.6-8.9,3.4c0,0-12.3,8.8-12.8,11.4
			c0,0.1,0.1,0.9,0.1,1.1C358.7,403.6,365.6,402.8,370.3,400.6z"/>
	</g>
	<g>
		<path class="st1" d="M368.2,188.2c0,0-15.2-44.6-20.5-60.4c-2.6-7.6,15.9-24,26.3-5.9c7.2,12.6,9.4,48.8,9.7,58.5
			c0.1,2-6.1,17-7.7,22.1l-9.3-3.2L368.2,188.2z"/>
		<polygon class="st1" points="367.8,190.3 379.1,194.2 375.5,204.1 366.2,200.9 		"/>
		<g>
			<path class="st6" d="M363.4,286.7c-1,6.4-7.1,10.9-13.5,9.8c-6.4-1-10.8-7.1-9.8-13.5c1-6.4,7.1-10.8,13.5-9.8
				C360,274.2,364.4,280.2,363.4,286.7z M357.7,283.5l-11.1-1.8c-1.8-0.3-2.3,4.2-0.7,4.5l11.1,1.8
				C358.6,288.2,359.5,283.8,357.7,283.5z M357.9,240.1c-5.9-0.9-12.2,2.2-15.7,7c-7,9.8,1.4,13.5,4.9,10.1c1.2-1.2,1.1-1.9,1.8-3.5
				c2.5-5.8,11-6.4,14-0.3c2.1,4.2,1,10.2-4.1,11.8c-5.2,1.6-11.9,0.9-17,2c-2.6,0.6-4.9,2.7-5.3,5.4l-3.4,21.3
				c-0.5,3,2.2,6.6,5.2,7.1l21.2,3.3c3,0.5,6.6-2.2,7.1-5.2l6.4-40.4C374.5,249.3,367,241.5,357.9,240.1z"/>
		</g>
		<path class="st2" d="M357.3,248.1l2.1-10.9c0,0-2.4,1.3-3.9,1.6c-1.6,0.3-2.8-1.2-0.7-1.9s5.6-4.5,5.6-4.5l6.4-33.2l9.3,3.2
			c-4.2,11.4-11.1,27.3-11.4,30.6C363.4,251.3,357.4,248.1,357.3,248.1z"/>
	</g>
</g>
<g>
	<g>
		<path class="st2" d="M165.4,210.4l7.2-8c0,0-2.6-0.2-4.1-0.6c-1.6-0.5-1.8-2.4,0.3-1.9c2.1,0.5,6.9-0.9,6.9-0.9l21.9-24.4l6,7.4
			c-9.2,7.4-23,17.2-24.8,19.8C168.7,216.1,165.3,210.4,165.4,210.4z"/>
		<g>
			<path class="st7" d="M187.4,242.9c1.3,6.2-2.8,12.2-9,13.5c-6.2,1.3-12.2-2.8-13.5-9c-1.3-6.2,2.8-12.2,9-13.5
				C180.1,232.7,186.2,236.7,187.4,242.9z M166.7,202.5c-5.7,1.1-10.4,6.1-11.9,11.6c-3.1,11.3,5.8,11.8,7.9,7.6
				c0.7-1.5,0.3-2.1,0.4-3.8c0.3-6.1,7.9-9.5,12.7-5c3.3,3.1,4.3,9,0.3,12.1c-4.2,3.2-10.5,4.8-14.8,7.6c-2.2,1.4-3.6,4.1-3,6.7
				l4.1,20.5c0.6,2.9,4.2,5.3,7.1,4.7l20.4-4.1c2.9-0.6,5.3-4.2,4.7-7.1l-7.8-38.9C184.9,205.3,175.5,200.7,166.7,202.5z"/>
		</g>
		<path class="st8" d="M204.8,165.6c0,0,9.8-44.6,13.3-60.3c1.6-7.6,25.2-11.9,24.8,8.3c-0.3,14.1-16.7,45.2-21.3,53.4
			c-0.9,1.7-13.6,11-17.4,14.5l-6-7.4L204.8,165.6z"/>
		<polygon class="st8" points="203.6,167.1 210.9,176 203,182.5 197,175.2 		"/>
		<path class="st9" d="M175.1,248.6c0.1-0.2,0.2-0.4,0.3-0.5c1.4-2.5,2.9-5,4.3-7.5c0.1-0.1,0.2-0.3,0.3-0.4c0.3-0.3,0.6-0.4,1-0.2
			c0.3,0.2,0.4,0.6,0.3,0.9c0,0.1-0.1,0.2-0.2,0.3c-1.7,3-3.4,5.9-5.1,8.9c-0.3,0.5-0.8,0.6-1.2,0.2c-1.1-1-2.2-2-3.3-3.1
			c-0.4-0.4-0.4-0.8-0.1-1.1c0.3-0.3,0.7-0.4,1.1,0c0.7,0.7,1.5,1.3,2.2,2C174.7,248.3,174.9,248.4,175.1,248.6z"/>
	</g>
	<g>
		<polygon class="st3" points="228.4,374 229,378.1 224.6,383.5 219.8,381.1 219.7,379.1 218.8,374.7 		"/>
		<path class="st3" d="M275.4,372.6l0.8,4l-4.8,4.6c0,0-3.7-1.7-4.1-1.9c-0.3-0.1-2.6-6.4-2.6-6.4L275.4,372.6z"/>
		<path class="st10" d="M276.6,185.3c-2.3,49.5-7.6,63.1-11.2,99.2c-1.9,19.4,3.2,45.9,10.5,87.9c0.6,3.6-13.2,4.3-14.5,0.9
			c-11.3-31.4-25.8-72.4-29-88.3c-4.1-20.2-4.6-60.2-4.6-60.2l9.7-45.2L276.6,185.3z"/>
		<path class="st10" d="M220.9,172.9c-17.6,46.3-18.6,81.7-19.5,101.2c-1.4,27.9,7.4,51.4,15.3,100.4c0.5,3.1,12.5,2.3,12.4-0.8
			c-1.7-45.1-4.7-93,1.2-111.2c5-15.5,16.6-37.5,16.6-37.5l12.1-41.6L220.9,172.9z"/>
		<path class="st3" d="M248.3,198.4c-22,1.4-26.7-6.1-26.7-6.1l-3.3-58.4c0,0,3.5-28.7,3.2-28.9c-0.2-0.2,7.1-8.5,7.2-5
			c0,3.4,0,7,6,7.1c5.9,0.2,14.2-5.8,14.2-5.8l-1.8,9.4L248.3,198.4z"/>
		<path class="st11" d="M228.9,103.1c-2.4,4.8-4.3,31-3.8,39.6c0.4,8.6,0.8,30.1-0.5,44.9c-0.6,7.9-14.5,49.9-14.5,49.9
			s-10.8-4.2-11.2-11.4c-0.6-8.8,18.6-35.9,13.2-86c-1.5-13.2,3.5-32.7,6.1-37.7c2.6-4.9,5.3-7.5,5.3-7.5l4.6,0.6L228.9,103.1z"/>
		<path class="st11" d="M241.1,109c0,0,8.4,123,5,137.4c0,0,40.6-9.7,43.1-20.6c8.9-38.2-6.7-107-21.8-117.9
			c-13.6-9.9-16.8-11.7-16.8-11.7l-3.1,11.7L241.1,109z"/>
		<path class="st12" d="M233,96.8c-4.1,6.8-4.8,8.8-4.8,8.8s-2.8-1.3-5.3-1c0,0,4.8-10.2,8.9-12C236,90.8,233,96.8,233,96.8z"/>
		<path class="st13" d="M248.9,94.3c-14.3-4.2,7.9-22.8-8.4-27.8s-20.9,19.4-18.8,23.9c2,4.4,8.1,0.5,9,4.8c0.1,0.6,0.1,5.4,0.3,6
			c0.5,3.7,1.6,4.8,5.3,4.9l0,0c3,0.1,6-0.5,8.8-1.8l4-1.8L248.9,94.3z"/>
		<path class="st12" d="M253.3,96.4c-1.1,5.7-1.5,7.9-6.6,14.1c0,0-4.7-1.7-5.7-1.5c0,0,3-3.5,6-9c1.9-3.4,1.9-5.7,1.9-5.7
			L253.3,96.4z"/>
		<path class="st14" d="M226,71.8c2.2-1.2,4.9-1.7,5.4-0.3c0.5,1.3,3.3-0.6,5.3,1s-0.1,9.4,1.2,9.8c1.5,0.4,3.6-0.9,3.8,1.6
			c0.3,2.5-3.8,3.9-3.8,3.9s1,5.4,4.9,3.8s6.8-4,8.4-8.5c1.7-4.6,1.9-12.8-5.4-16.9c-7.4-4.1-12.9-2.3-16.6-1
			C225.8,66.3,226,71.8,226,71.8z"/>
		<path class="st14" d="M221.1,388.2c5-1.3,9.4-2.2,8.6-6.3c-0.2-1.2-0.8-4-0.8-4c-2,1.7-8.9,2.5-9.3,1.1c0,0-24.4,9.7-25,12.2
			c0,0.1,0.1,0.9,0.1,1.1C195.6,394.7,216.1,389.5,221.1,388.2z"/>
		<path class="st14" d="M267.1,390.9c1.8-0.7,10.6-5.7,9.9-9.8c-0.2-1.2-0.9-5-0.9-5c-1.2,3-8.4,3.3-8.7,3.2c0,0-12,8.3-12.5,10.9
			c0,0.1,0.1,0.9,0.1,1.1C255.7,393.7,262.4,393,267.1,390.9z"/>
	</g>
	<g>
		<path class="st8" d="M266.6,185c0,0-14.3-43.3-19.3-58.7c-2.4-7.4,15.7-23.1,25.5-5.5c6.9,12.3,8.7,47.4,8.9,56.8
			c0.1,1.9-6.1,16.3-7.7,21.4l-9-3.2L266.6,185z"/>
		<path class="st13" d="M255.7,243l2.1-10.5c0,0-2.3,1.2-3.8,1.5s-2.7-1.2-0.7-1.8s5.5-4.3,5.5-4.3l6.5-32.1l9,3.2
			c-4.2,11.1-11,26.4-11.3,29.6C261.6,246.1,255.7,243,255.7,243z"/>
		<polygon class="st12" points="266.4,187 277.2,190.9 273.6,200.5 264.7,197.3 		"/>
	</g>
</g>
<g>
	<g>
		<path class="st15" d="M128.2,215.9c3.2,2.5,4.7,4,4.7,4.6c0,0.6-1.4,1-3.5-0.5c-2.1-1.5,0,6,1.6,7.2c1.7,1.2,2.2,4.3-1.8,1.8
			c-4-2.5-8.4-7.7-8.1-12.1c0.3-4.5-14.9-38.8-17.5-52.3c-1.2-6.1-6.2-26-8.3-37.2c-2.1-10.8,6.2-15.2,16.6-18.9
			c0.6-0.2,1-0.3,1.4-0.4c3.4-0.6,0.9,41.4,2.3,55.1C117.1,176.6,128.2,215.9,128.2,215.9z"/>
		<path class="st16" d="M113.4,106.2c0.5,0.3,0.7,0.8,0.7,1c3.7,9.9,1.3,36.7,1.3,36.7s-13.2-3.4-16.5,3c-0.6-2-1.4-5-2.2-8.6
			c-2-8.8-3-13.3-2.3-16.4C96.6,111.6,110,103.8,113.4,106.2z"/>
	</g>
	<g>
		<path class="st17" d="M115.2,182.3c-12.8-17.8-2.3-45.3,0.4-71.6c2.1-19.7-35.1-30-51.2,3.2c-16.1,33.2-1.9,86.4-1.9,86.4
			l46.2-2.8L115.2,182.3z"/>
		<path class="st15" d="M106.9,88.8c-5.1,3.1,0,6.6,0,6.6s0.4,8.2-12.4,5c-5.8-1.4-7.3-6.4-4.1-7.7c3.3-1.3,4.7-10.2,10.3-18
			c5.6-7.8,16.4-13.3,18.2,1.3C120.9,90.7,110.7,86.5,106.9,88.8z"/>
		<path class="st18" d="M115.7,69.6c10-0.8,13.5,0.8,3.5,3c-10,2.2-12.5,6.8-14.7,5.9c-2.2-0.8-4.9-0.7-4.5,2.2
			c0.4,2.9,2.3,2.4,2.3,2.4s-0.2,3.2-3.5,3.6c-3.3,0.4-4.2,0-4.2,0s-1.2-5.9,1.4-11.2S105.4,70.4,115.7,69.6z"/>
		<path class="st10" d="M118,69.4c-6.7,4-7.1,4.2-13.3,6.9c-8,3.5-9.5,0.9-9.5,0.9s0.5-7.2,5.4-9.8C111.5,61.6,118,69.4,118,69.4z"
			/>
		<path class="st10" d="M112.2,72.7c0,0,11.6-2.8,13.7-3.8c2.9-1.3,3.5-1.4,7-3.7c1-0.6-2.6-1.8-5.1-0.6c-4.7,2.3-11.2,3.8-11.2,3.8
			L112.2,72.7z"/>
		<polygon class="st3" points="124,368.5 123.3,372.6 123.3,374.5 118.9,376.9 114.6,372 115,368.2 		"/>
		<path class="st3" d="M81.2,368.6c0,0-1.9,5.9-2.2,6.1c-0.4,0.2-3.7,1.9-3.7,1.9l-4.6-4.1l0.6-3.8L81.2,368.6z"/>
		<path class="st19" d="M99.2,187.7l10.7,41.7c0,0,1.1,37.2-2,56.2c-2.4,14.9-14.3,53.6-23.6,83.2c-1.1,3.2-13.9,3.1-13.5-0.3
			c5.2-39.3,8.9-64.2,6.4-82.2C72.5,252.9,67,240.5,63,194.5L99.2,187.7z"/>
		<path class="st19" d="M79.3,192.1l12.8,38.2c0,0,11.6,20,16.9,34.2c6.2,16.7,5.2,61.4,5.4,103.4c0,2.9,11.2,3.2,11.6,0.3
			c5.5-45.9,12.8-68.1,10.4-94c-1.6-18.1-3.9-51-22-93.4L79.3,192.1z"/>
		<path class="st14" d="M147.1,383.9c0-0.2,0.1-0.9,0.1-1c-0.7-2.3-23.7-10.4-23.7-10.4c-0.3,1.3-6.8,0.8-8.7-0.7
			c0,0-0.5,2.6-0.6,3.8c-0.6,3.8,3.5,4.5,8.2,5.5C127.1,382.1,146.3,386.2,147.1,383.9z"/>
		<path class="st14" d="M91,385.3c0-0.2,0.1-0.9,0.1-1c-0.6-2.4-12-9.7-12-9.7c-0.3,0.1-7,0.1-8.2-2.6c0,0-0.5,3.6-0.6,4.7
			c-0.5,3.8,7.9,8.2,9.6,8.7C84.1,387.2,90.4,387.6,91,385.3z"/>
	</g>
	<path class="st16" d="M108.4,166.6c0.5-0.4,0.8-0.8,1-1c0,0,1.8,11.6,6.3,17c0.1,3.9-0.8,6.9-1.9,9.1c-6,12.2-26.4,17.1-50.7,12.3
		c-1.2-4.4-2.2-9.2-3.2-14.1c-1.6-7.9-3.1-17.5-3-24.2c7.5,3.1,14,4.6,18.6,5.3C84.7,172.5,99.4,175,108.4,166.6z"/>
	<path class="st15" d="M75.2,213.7c2.4,3.2,3.4,5.1,3.3,5.7c-0.1,0.6-1.6,0.6-3.2-1.4c-1.6-2-1.6,5.7-0.3,7.4c1.3,1.6,1,4.8-2.2,1.3
		c-3.2-3.5-6-9.6-4.6-13.8c1.4-4.2-4.1-41.3-3-55.1c0.5-6.2,1-26.7,1.8-38.1c0.8-10.9,10.1-13,21-13.8c0.6,0,1.1-0.1,1.4,0
		c3.4,0.3-10.1,40.1-12.3,53.7C74.8,172.9,75.2,213.7,75.2,213.7z"/>
	<path class="st16" d="M90,104c0.4,0.5,0.4,1,0.5,1.2c0.9,10.6-8.4,35.7-8.4,35.7s-11.8-6.7-16.7-1.5c0-2.1,0-5.1,0.1-8.9
		c0.4-9,0.6-13.6,2.1-16.4C72.3,104.8,87.3,100.8,90,104z"/>
</g>
</svg>
