<?xml version="1.0" encoding="utf-8"?>
<!-- Generator: Adobe Illustrator 22.1.0, SVG Export Plug-In . SVG Version: 6.00 Build 0)  -->
<svg version="1.1" id="Layer_1" xmlns="http://www.w3.org/2000/svg" xmlns:xlink="http://www.w3.org/1999/xlink" x="0px" y="0px"
	 viewBox="0 0 32 32" style="enable-background:new 0 0 32 32;" xml:space="preserve">
<style type="text/css">
	.st0{fill:#FFFFFF;}
	.st1{fill:#5BB702;}
</style>
<g>
	<path class="st0" d="M26.2,4.5L26.9,5l0.6,0.6l0.5,0.7l0.4,0.8c0.1,0.3,0.2,0.5,0.3,0.8l0.2,0.9l1.7,18.9c0,0.4-0.1,0.7-0.1,0.9
		c0,0.2-0.1,0.5-0.3,0.9c-0.1,0.3-0.3,0.5-0.5,0.8c-0.2,0.2-0.3,0.5-0.6,0.7c-0.2,0.2-0.4,0.3-0.7,0.5c-0.3,0.2-0.5,0.3-0.8,0.3
		c-0.2,0.1-0.5,0.1-0.9,0.1L7.2,32c-0.4,0-0.8,0-1.2-0.1c-0.4-0.1-0.7-0.2-1.1-0.3c-0.3-0.1-0.7-0.3-1-0.6c-0.3-0.2-0.6-0.5-0.9-0.8
		c-0.3-0.4-0.6-0.7-0.7-1c-0.2-0.3-0.4-0.7-0.5-1.1c-0.1-0.3-0.2-0.7-0.3-1.2c-0.1-0.4-0.1-0.8-0.1-1.2L2,3.8l0-0.1V3.5l0-0.1
		c0-0.3,0.1-0.6,0.2-0.8c0.1-0.3,0.2-0.5,0.3-0.7c0.1-0.2,0.3-0.4,0.5-0.6c0.2-0.2,0.4-0.4,0.6-0.6c0.3-0.2,0.6-0.3,0.8-0.4
		c0.3-0.1,0.6-0.2,0.9-0.2C5.7,0,6,0,6.4,0c0.5,0,0.8,0.1,1,0.1l17.2,3.7C25,3.9,25.2,4,25.5,4.1C25.7,4.2,25.9,4.3,26.2,4.5z"/>
	<path class="st1" d="M18.3,15.1h2.4c0.4,0,0.5,0.2,0.5,0.5L21,16.2c0.7-0.5,1.4-0.9,2.2-1.1c0.5-0.1,1.2-0.2,1.9-0.2
		c0.3,0,0.4,0.2,0.4,0.4v0.1l-0.4,2c-0.1,0.4-0.3,0.5-0.6,0.5c-1.3,0-2.6,0.3-3.9,1l-1.3,7.2c-0.1,0.2-0.1,0.3-0.2,0.4
		c-0.1,0.1-0.3,0.2-0.5,0.2h-2.5c-0.4,0-0.5-0.2-0.4-0.6l1.6-9.2h0l0.2-1.3C17.8,15.2,18,15.1,18.3,15.1z M13.9,12.1
		c-0.4,0.3-0.7,1-0.8,1.9l-0.5,2.9h2.7c0.4,0,0.5,0.2,0.4,0.6l-0.3,2c-0.1,0.3-0.3,0.5-0.7,0.5h-2.6l-1.1,6.2c0,0.1,0,0.1,0,0.1
		c0,0.1-0.1,0.1-0.1,0.2c0,0-0.1,0-0.1,0.1c-0.1,0.1-0.2,0.2-0.4,0.2c0,0,0,0-0.1,0H7.7c-0.3,0-0.4-0.1-0.4-0.4v-0.1L8,22h0l1.4-8
		c0.4-2.2,1.2-3.7,2.4-4.5c1-0.7,2.7-1.1,4.8-1.1c1.8,0,3.5,0.1,5.1,0.4c0.2,0.1,0.4,0.1,0.4,0.2c0.1,0.1,0.1,0.2,0,0.4l-0.3,1.7
		c-0.1,0.4-0.3,0.5-0.6,0.5h-5.5C14.9,11.6,14.3,11.8,13.9,12.1z"/>
</g>
</svg>
