<?xml version="1.0" encoding="utf-8"?>
<!-- Generator: Adobe Illustrator 22.1.0, SVG Export Plug-In . SVG Version: 6.00 Build 0)  -->
<svg version="1.1" id="Layer_1" xmlns="http://www.w3.org/2000/svg" xmlns:xlink="http://www.w3.org/1999/xlink" x="0px" y="0px"
	 viewBox="0 0 521 407" style="enable-background:new 0 0 521 407;" xml:space="preserve">
<style type="text/css">
	.st0{opacity:0.3;fill:url(#SVGID_1_);enable-background:new    ;}
	.st1{fill:#FBD2C4;}
	.st2{fill:#FFBA0A;}
	.st3{fill:#FFFFFF;}
	.st4{fill:#5BB702;}
	.st5{fill:#2708A0;}
	.st6{fill:#FFB400;}
	.st7{fill:#F1D2C4;}
	.st8{fill:#F6511D;}
	.st9{fill:#100B00;}
	.st10{fill:#2C15B7;}
	.st11{fill:#FFC950;}
	.st12{fill:#FF4949;}
	.st13{fill:#161303;}
	.st14{fill:#F0EDF3;}
	.st15{fill:#E7E6E8;}
	.st16{fill:#00A6ED;}
	.st17{fill:#FF4F2C;}
	.st18{fill:#F94110;}
</style>
<linearGradient id="SVGID_1_" gradientUnits="userSpaceOnUse" x1="258.0751" y1="380.1493" x2="258.0751" y2="766" gradientTransform="matrix(1 0 0 -1 0 780.0317)">
	<stop  offset="0" style="stop-color:#FFFFFF;stop-opacity:0"/>
	<stop  offset="2.168840e-02" style="stop-color:#F6FCFE;stop-opacity:2.168840e-02"/>
	<stop  offset="0.1827" style="stop-color:#B6E5FA;stop-opacity:0.1827"/>
	<stop  offset="0.3416" style="stop-color:#7ED2F6;stop-opacity:0.3416"/>
	<stop  offset="0.4944" style="stop-color:#51C2F3;stop-opacity:0.4944"/>
	<stop  offset="0.64" style="stop-color:#2EB6F0;stop-opacity:0.64"/>
	<stop  offset="0.7764" style="stop-color:#15ADEE;stop-opacity:0.7764"/>
	<stop  offset="0.9001" style="stop-color:#05A8ED;stop-opacity:0.9001"/>
	<stop  offset="1" style="stop-color:#00A6ED"/>
</linearGradient>
<path class="st0" d="M18.9,306.4C-23.2,208.2,80.4,15.4,146.6,14c77.1-1.6,30.1,137,184.7,140.2c94.6,2,183.6,115.9,175.1,161
	C490.2,401.4,82.9,455.5,18.9,306.4z"/>
<g>
	<g>
		<g>
			<path class="st1" d="M306.4,183.3c-0.5-3.2-8.4-18-13.3-28.8l8.7-3.8l8.7,31.6c0,0,3.8,3.4,5.8,3.9s1,2-0.6,1.8s-3.9-1.2-3.9-1.2
				l2.8,10.3C314.7,197.1,309.1,200.6,306.4,183.3z"/>
			<polygon class="st2" points="302.6,152.1 293.9,156 289.6,146.6 300.2,142 			"/>
		</g>
		<g>
			<polygon class="st3" points="294.3,356.4 293.4,360.8 293.4,362.8 288.6,365.2 284.1,359.8 284.7,355.7 			"/>
			<path class="st3" d="M248.4,354.6c0,0-2.3,6.3-2.6,6.4c-0.3,0.2-4.1,1.9-4.1,1.9l-4.8-4.6l0.8-4L248.4,354.6z"/>
			<path class="st4" d="M275.6,161.4l9.7,45.2c0,0-0.5,40-4.6,60.2c-3.2,15.9-17.7,56.9-29,88.3c-1.3,3.3-15.1,2.7-14.5-0.9
				c7.2-42,12.4-68.5,10.5-87.9c-3.6-36.1-8.9-49.7-11.2-99.2L275.6,161.4z"/>
			<path class="st4" d="M254.1,165.1l12.1,41.6c0,0,11.6,22,16.6,37.5c5.9,18.2,2.9,66.1,1.2,111.2c-0.1,3.1,11.9,3.9,12.4,0.8
				c7.9-49,16.8-72.5,15.3-100.4c-0.9-19.5-1.9-54.9-19.5-101.2L254.1,165.1z"/>
			<path class="st3" d="M266.1,92.4l-1.8-9.4c0,0,8.2,6,14.2,5.8c5.9-0.1,5.9-3.7,6-7.1c0-3.4,7.4,4.8,7.2,5
				c-0.2,0.2,3.2,28.9,3.2,28.9l-3.3,58.4c0,0-4.6,7.5-26.7,6.1L266.1,92.4z"/>
			<path class="st5" d="M284.9,77.3l4.6-0.6c0,0,2.7,2.6,5.3,7.5c2.6,4.9,7.6,24.5,6.1,37.7c-5.4,50.1,13.8,77.2,13.2,86
				c-0.5,7.2-11.2,11.4-11.2,11.4s-13.8-42-14.5-49.9c-1.2-14.8-0.9-36.3-0.5-44.9s-1.4-34.8-3.8-39.6L284.9,77.3z"/>
			<path class="st5" d="M265.5,89.6l-3.1-11.7c0,0-3.2,1.8-16.8,11.7c-15,11-30.6,79.8-21.8,117.9c2.5,11,43.1,20.6,43.1,20.6
				c-3.3-14.4,5-137.4,5-137.4L265.5,89.6z"/>
			<path class="st6" d="M281.4,74.3c4.1,1.8,8.9,12,8.9,12c-2.5-0.3-5.3,1-5.3,1s-0.7-2-4.8-8.8C280.2,78.5,277.1,72.5,281.4,74.3z"
				/>
			<path class="st7" d="M264,84.2l4,1.8c2.8,1.3,5.8,1.9,8.8,1.8l0,0c3.7-0.1,4.7-1.2,5.3-4.9c0.1-0.6,0.1-5.4,0.3-6
				c0.9-4.3,7-0.4,9-4.8c2.1-4.5-2.5-28.9-18.8-23.9s5.9,23.6-8.4,27.8L264,84.2z"/>
			<path class="st6" d="M264.2,76c0,0,0.1,2.3,1.9,5.7c3,5.5,6,9,6,9c-1-0.2-5.7,1.5-5.7,1.5c-5.1-6.2-5.5-8.5-6.6-14.1L264.2,76z"
				/>
			<path class="st8" d="M283.9,46.8c-3.7-1.3-9.2-3.1-16.6,1c-7.3,4.1-7.1,12.3-5.4,16.9c1.6,4.6,4.4,6.9,8.4,8.5
				c3.9,1.6,4.9-3.8,4.9-3.8s-4.1-1.4-3.8-3.9c0.3-2.5,2.4-1.2,3.8-1.6s-0.7-8.1,1.2-9.8c2-1.6,4.8,0.3,5.3-1s3.2-0.8,5.4,0.3
				C287.1,53.5,287.3,48,283.9,46.8z"/>
			<path class="st9" d="M318.3,374.1c0-0.2,0.1-1,0.1-1.1c-0.6-2.5-25-12.2-25-12.2c-0.4,1.4-7.3,0.6-9.3-1.1c0,0-0.6,2.8-0.8,4
				c-0.8,4.1,3.6,5,8.6,6.3C297,371.2,317.5,376.4,318.3,374.1z"/>
			<path class="st9" d="M258.3,373c0-0.2,0.1-1,0.1-1.1c-0.5-2.5-12.5-10.9-12.5-10.9c-0.3,0.2-7.6-0.2-8.7-3.2c0,0-0.8,3.8-0.9,5
				c-0.8,4.1,8,9,9.9,9.8C250.8,374.7,257.5,375.4,258.3,373z"/>
		</g>
		<g>
			<path class="st10" d="M248,177.5l-9,3.2c-1.6-5-7.8-19.5-7.7-21.4c0.2-9.4,2-44.5,8.9-56.8c9.9-17.6,28-1.9,25.5,5.5
				c-5,15.3-19.3,58.7-19.3,58.7L248,177.5z"/>
			<path class="st1" d="M250.2,210.3c-0.3-3.2-7.1-18.6-11.3-29.6l9-3.2l6.5,32.1c0,0,3.5,3.7,5.5,4.3s0.9,2.1-0.7,1.8
				c-1.5-0.3-3.8-1.5-3.8-1.5l2.1,10.5C257.4,224.7,251.6,227.8,250.2,210.3z"/>
			<polygon class="st2" points="248.5,179 239.5,182.2 235.9,172.6 246.8,168.7 			"/>
		</g>
	</g>
</g>
<g>
	<g>
		<g>
			<path class="st11" d="M121.8,156.9c0,0-2.5-45.6-3.3-61.7c-0.4-7.7,21.1-18.2,26.1,1.4c3.5,13.7-4,48-6.3,57.2
				c-0.4,1.9-10.1,14.1-12.9,18.7l-7.8-5.5L121.8,156.9z"/>
			<path class="st7" d="M96.1,210l4.8-9.6c0,0-2.5,0.5-4.1,0.5c-1.5-0.1-2.2-1.9-0.2-1.9c2.1,0,6.4-2.7,6.4-2.7l14.6-29.4l7.8,5.5
				c-6.9,9.6-17.5,22.7-18.7,25.7C101,214.5,96.1,210,96.1,210z"/>
			<polygon class="st12" points="121,158.7 130.5,165.3 124.5,173.7 116.7,168.3 			"/>
		</g>
		<g>
			<polygon class="st3" points="128.6,362 129.2,366.1 124.8,371.5 120,369.1 119.9,367.1 119,362.7 			"/>
			<path class="st3" d="M175.6,360.6l0.8,4l-4.8,4.6c0,0-3.7-1.7-4.1-1.9c-0.3-0.1-2.6-6.4-2.6-6.4L175.6,360.6z"/>
			<path class="st5" d="M176.8,173.3c-2.3,49.5-7.6,63.1-11.2,99.2c-1.9,19.4,3.2,45.9,10.5,87.9c0.6,3.6-13.2,4.3-14.5,0.9
				c-11.3-31.4-25.8-72.4-29-88.3c-4.1-20.2-4.6-60.2-4.6-60.2l9.7-45.2L176.8,173.3z"/>
			<path class="st5" d="M121.1,160.9c-17.6,46.3-18.6,81.7-19.5,101.2c-1.4,27.9,7.4,51.4,15.3,100.4c0.5,3.1,12.5,2.3,12.4-0.8
				c-1.7-45.1-4.7-93,1.2-111.2c5-15.5,16.6-37.5,16.6-37.5l12.1-41.6L121.1,160.9z"/>
			<path class="st3" d="M148.5,186.4c-22,1.4-26.7-6.1-26.7-6.1l-3.3-58.4c0,0,3.5-28.7,3.2-28.9c-0.2-0.2,7.1-8.5,7.2-5
				c0,3.4,0,7,6,7.1c5.9,0.2,14.2-5.8,14.2-5.8l-1.8,9.4L148.5,186.4z"/>
			<path class="st2" d="M129.1,91.1c-2.4,4.8-4.3,31-3.8,39.6c0.4,8.6,0.8,30.1-0.5,44.9c-0.6,7.9-14.5,49.9-14.5,49.9
				s-10.8-4.2-11.2-11.4c-0.6-8.8,18.6-35.9,13.2-86c-1.5-13.2,3.5-32.7,6.1-37.7c2.6-4.9,5.3-7.5,5.3-7.5l4.6,0.6L129.1,91.1z"/>
			<path class="st2" d="M141.3,97c0,0,8.4,123,5,137.4c0,0,40.6-9.7,43.1-20.6c8.9-38.2-6.7-107-21.8-117.9
				C154,86,150.8,84.2,150.8,84.2l-3.1,11.7L141.3,97z"/>
			<path class="st12" d="M133.2,84.8c-4.1,6.8-4.8,8.8-4.8,8.8s-2.8-1.3-5.3-1c0,0,4.8-10.2,8.9-12
				C136.2,78.8,133.2,84.8,133.2,84.8z"/>
			<path class="st7" d="M149.1,82.3c-14.3-4.2,7.9-22.8-8.4-27.8s-20.9,19.4-18.8,23.9c2,4.4,8.1,0.5,9,4.8c0.1,0.6,0.1,5.4,0.3,6
				c0.5,3.7,1.6,4.8,5.3,4.9l0,0c3,0.1,6-0.5,8.8-1.8l4-1.8L149.1,82.3z"/>
			<path class="st12" d="M153.5,84.4c-1.1,5.7-1.5,7.9-6.6,14.1c0,0-4.7-1.7-5.7-1.5c0,0,3-3.5,6-9c1.9-3.4,1.9-5.7,1.9-5.7
				L153.5,84.4z"/>
			<path class="st13" d="M126.2,59.8c2.2-1.2,4.9-1.7,5.4-0.3c0.5,1.3,3.3-0.6,5.3,1s-0.1,9.4,1.2,9.8c1.5,0.4,3.6-0.9,3.8,1.6
				c0.3,2.5-3.8,3.9-3.8,3.9s1,5.4,4.9,3.8s6.8-4,8.4-8.5c1.7-4.6,1.9-12.8-5.4-16.9c-7.4-4.1-12.9-2.3-16.6-1
				C126,54.3,126.2,59.8,126.2,59.8z"/>
			<path class="st13" d="M121.3,376.2c5-1.3,9.4-2.2,8.6-6.3c-0.2-1.2-0.8-4-0.8-4c-2,1.7-8.9,2.5-9.3,1.1c0,0-24.4,9.7-25,12.2
				c0,0.1,0.1,0.9,0.1,1.1C95.8,382.7,116.3,377.5,121.3,376.2z"/>
			<path class="st13" d="M167.3,378.9c1.8-0.7,10.6-5.7,9.9-9.8c-0.2-1.2-0.9-5-0.9-5c-1.2,3-8.4,3.3-8.7,3.2c0,0-12,8.3-12.5,10.9
				c0,0.1,0.1,0.9,0.1,1.1C155.9,381.7,162.6,381,167.3,378.9z"/>
		</g>
		<g>
			<path class="st11" d="M150.2,175.6c0,0-2.3-45.6-3-61.7c-0.4-7.7,21.2-18.1,26.1,1.5c3.4,13.7-4.2,48-6.5,57.1
				c-0.4,1.9-10.2,14.1-13.1,18.6l-7.8-5.5L150.2,175.6z"/>
			<path class="st7" d="M124.3,228.6l4.8-9.5c0,0-2.5,0.5-4.1,0.4s-2.3-1.8-0.2-1.9c2.1-0.1,6.5-2.7,6.5-2.7l14.8-29.3l7.8,5.5
				c-7,9.5-17.7,22.6-18.8,25.6C129.1,233.1,124.3,228.6,124.3,228.6z"/>
			<polygon class="st12" points="149.4,177.4 158.8,184 152.8,192.4 145,186.9 			"/>
		</g>
	</g>
	<path class="st8" d="M124.5,79.3c2.5,0.4,4.9,0.1,7.2-0.6l0,0l0,0c0.2-0.1,0.4-0.1,0.6-0.2l0,0c0.2-0.1,0.4-0.1,0.6-0.2l0,0
		c0.2-0.1,0.4-0.1,0.6-0.2l0,0c0.2-0.1,0.4-0.2,0.6-0.2c0.3-0.1,0.4-0.1,0.6,0.2c0.7,1.1,1.7,2,3,2.6c0.8,0.3,1.8,0.5,2.9,0.4
		c4.6-0.4,7.3-5.2,5.1-9.3c-0.1-0.3-0.1-0.5,0-0.7c0.7-0.9,1.3-1.8,2-2.7c1.2-1.6,2.3-3.2,3.5-4.8c0.2-0.2,0.3-0.4,0.5-0.7l0,0
		c0.8-1.1,1.6-2.2,2.5-3.3c-0.6-1-1.4-2-2.3-2.8c-0.2,0-0.3,0.1-0.4,0.3c-0.2,0.3-0.5,0.6-0.7,1c0,0,0,0.1-0.1,0.1
		c-0.9,1.2-1.8,2.4-2.6,3.6l0,0c-0.1,0.2-0.3,0.4-0.4,0.6c-1.6,2.1-3.1,4.3-4.7,6.4c-0.1,0.2-0.3,0.3-0.5,0.2
		c-0.2-0.1-0.3-0.1-0.5-0.1c-1.9-0.6-3.7-0.3-5.4,0.8c-2.1,1.4-3,3.5-2.8,6c0,0.4-0.1,0.6-0.4,0.7c-1,0.4-2,0.8-3,1l0,0l0,0
		c-2.7,0.6-5.3,0.7-7.9-0.4c-0.3-0.1-0.5-0.3-0.5-0.7c0-1.2-0.9-2.2-2-2.4c-1.2-0.3-2.3,0.3-3,1.4c-0.5,0.9-0.3,2.3,0.5,3.1
		c0.9,0.9,2.2,1.1,3.2,0.4c0.3-0.2,0.5-0.2,0.8,0C122.5,78.8,123.5,79.1,124.5,79.3z"/>
</g>
<g>
	<path class="st14" d="M150.6,382.8c-0.8-1.5-0.6-3.2,0.3-4.5l61.7-85.7l27.4,2.1L178.5,379c-2.9,3.9-7.4,6.2-12.2,6.2h-12
		C152.7,385.2,151.2,384.3,150.6,382.8z M213.4,294.7l-61,84.8c-0.5,0.7-0.6,1.6-0.2,2.4c0.5,0.8,1.2,1.3,2.1,1.3h12
		c4.2,0,8.2-2,10.6-5.4l59.3-81.4L213.4,294.7z"/>
	<path class="st14" d="M217.7,379l-61.4-84.2l27.4-2.1l61.7,85.7c0.9,1.3,1,3.1,0.3,4.5s-2.2,2.3-3.8,2.3h-12
		C225.1,385.2,220.5,382.8,217.7,379z M159.9,296.4l59.3,81.4c2.5,3.4,6.4,5.4,10.6,5.4h12c0.9,0,1.7-0.5,2.1-1.3s0.3-1.7-0.2-2.4
		l-61-84.8L159.9,296.4z"/>
	<rect x="153.4" y="289.8" class="st15" width="28.6" height="11.5"/>
	<rect x="182" y="289.8" class="st14" width="62" height="11.5"/>
</g>
<g>
	<g>
		<g>
			<path class="st1" d="M206.5,195.6c0,0,8,51.1,24.7,82.1c0,0,2.5,3,2.3,7.6c-0.1,2.2,2.1,6.6,3,3c0.9-3.6,2.2-1.6,3.5,0.9
				c1.1,2.2,2.4,5,2.4,5s3.1-1.2-0.7-8.9c-3.8-7.7-4.9-7.7-5.7-10.8c-0.6-2.3-8.7-37.6-8.7-37.6l-6.3-44
				C221,192.9,210.5,190.5,206.5,195.6z"/>
			<path class="st3" d="M226.6,227c0.2-3.7,0.4-8.5,0.2-14.1c-0.3-10.4-0.7-19.4-4.7-20.8c-1.1-0.4-2.3-0.1-3.4,0.5
				c-2.7,9.4-5.3,18.9-8,28.3l1.1,6.1C212.1,224.6,226,222.2,226.6,227z"/>
		</g>
		<g>
			<path class="st1" d="M262.3,371.7c0,0,1.1,2.9,1.7,5.3c0.4,1.3,1.1,4.5,1.1,4.5l11.1,4.1c0,0-2.6-5.8-5.4-12.5
				c-0.7-1.6-2-6.4-2-6.4L262.3,371.7z"/>
			<path class="st13" d="M278.4,385c-4.3,2.6-9.2,4.5-11.5,1.2c-0.6-1-1.9-4.6-1.9-4.6c2-0.2,5.2-0.6,8-3c0,0,21.2-9.3,23.2-8
				c0.1,0,0.6,0.7,0.8,0.8C298.1,373.5,282.7,382.5,278.4,385z"/>
			<path class="st5" d="M172.8,264.8c6.5,19.4,55.9,38.8,59.8,46c6.2,11.8,30.2,62.1,30.2,62.1l7.1-2.8c0,0-17.9-70.3-21.1-75.1
				c-5.5-8.3-24-33.6-36.3-43.3c-4.2-3.3-16-13.2-16-13.2S162.3,232.9,172.8,264.8z"/>
			<path class="st7" d="M185.2,367.4l-2,5c0,0-1.4,3-2.4,3.9c-1,0.8-0.9,1.8-0.9,1.8l5.9,8.5l2.8-3c0,0-1.5-3.8-1.1-5
				c0.4-1.1,1.8-3.6,1.8-3.6l3.2-5.7L185.2,367.4z"/>
			<path class="st13" d="M182.7,390.3c-4.2-3-7.8-7.8-4.9-10.8c1.1-1.1,3.2-3.3,3.2-3.3c0.4,4.1,7,7.8,7.6,7.4
				c0,0,14.8,14.5,13.9,16.6c-0.1,0.1-0.5,0.7-0.6,0.8C200,402.6,186.5,393,182.7,390.3z"/>
			<path class="st5" d="M175.4,249c4.1-0.7,9.9-1.2,16.6,0c26.6,4.9,50.1,34.3,48.8,59.9c-1.4,28.2-50.9,67.7-50.9,67.7l0,0
				c0,0-6.4-1.8-7.4-4.6c1.2-5.6,41.8-57.5,34-64.1c-14.3-12-47.9-7.3-55.1-24.4C157.1,273.7,165.7,260.2,175.4,249z"/>
			<path class="st16" d="M188.1,281.4c-3.2,0.3-19.3,1.5-25.4-7.8c-2-3-2.6-6.8,1.5-24.5c3.5-15.2,6.4-27.4,14.1-44
				c7.6-16.6,13.2-22.8,14.7-24.5c4.9-5.3,14.7-16,22.9-13.4c7.2,2.2,9.5,13.5,10.5,18.6c2.7,13.4-0.9,28.8-2.3,34.9
				c-0.1,0.5-0.3,1.3-0.5,2.4c0,0-0.2,0.8-0.3,1.7c-2.3,16.6,0.5,28.5,0.5,28.5c2.1,8.8,4.3,8.6,3.4,11.2
				c-2.1,5.6-11.9,4.9-34.2,14.1c0,0,0,0,0,0l-8-18L188.1,281.4z"/>
			<path class="st1" d="M238.1,149.7c3.4,17.4,1.3,19.2-2,20.7c-3.2,1.5-4.7-0.3-8.6,0.9c-3.9,1.2-2.7,4.6-5.1,8.1
				c-1.7,2.3-7.2-3.9-7.2-8.5c0.1-4.5-1.7-8.2,4.4-10.2c6-2.2,4.7-5.9,10.6-10.6C236.2,145.2,238.1,149.7,238.1,149.7z"/>
			<path class="st8" d="M233.7,142c10.2,2.2,5.3,8.1,2.3,9.7c-4.1,2.2-8,7.3-8,7.3c-7.3-2.2-5.3,5.4-3.2,5.4
				c3.1,0.2-8.1,3.5-5.6,13.1c1.2,4.5,0.4,6.7-1.1,7.8c-2.5,1.8-6.3-3.5-12.8-3.2c-4.6,0.2-8.3,3.4-11.4,6c-2.7,2.2-4.4,4.3-4.9,5
				c-4.7,6-3.5,9-7.3,12.1c-3.1,2.6-7.7,4.2-9.2,2.8c-0.7-0.6-0.8-2-0.4-2.9c0.7-1.3,2.3-1.2,3.2-1.7c3.3-1.9,0.2-12.6-1.3-20.4
				c-2.6-14,24.4-16.7,28.8-24.1C216.1,136.9,219.8,139,233.7,142z"/>
			<g>
				<path class="st1" d="M191.6,224.4c0.9,25.2,2.5,36.2,20.4,51.2c18,14.9,19.4,17.8,22.4,24.2c3,6.3,11.5-2,9.4-4.9
					c-0.6-0.8-4.3-3.2-6.6-5.8c0,0-3.3-3.5-9.2-9.2c-2.2-2.1-22.6-23.3-22.6-28.4c0.1-9.2,2-27,2-27l-8.8-6.6L191.6,224.4z"/>
				<path class="st3" d="M212.4,189.7c1.9,10-4.8,34.6-4.8,34.6s-11.9-5.4-16,0c0,0-2.1-15.1,1-22.3
					C195.6,194.7,211.2,184,212.4,189.7z"/>
			</g>
		</g>
	</g>
</g>
<g>
	<path class="st15" d="M357.4,393.9c-0.8-1.5-0.6-3.2,0.3-4.5l61.7-85.7l27.4,2.1l-61.5,84.3c-2.9,3.9-7.4,6.2-12.2,6.2h-12
		C359.5,396.3,358,395.4,357.4,393.9z M420.2,305.9l-61,84.8c-0.5,0.7-0.6,1.6-0.2,2.4c0.5,0.8,1.2,1.3,2.1,1.3h12
		c4.2,0,8.2-2,10.6-5.4l59.3-81.4L420.2,305.9z"/>
	<path class="st15" d="M424.6,390.2l-61.5-84.3l27.4-2.1l61.7,85.7c0.9,1.3,1,3.1,0.3,4.5c-0.7,1.4-2.2,2.3-3.8,2.3h-12
		C431.9,396.3,427.3,394,424.6,390.2z M366.7,307.6L426,389c2.5,3.4,6.4,5.4,10.6,5.4h12c0.9,0,1.7-0.5,2.1-1.3s0.3-1.7-0.2-2.4
		l-61-84.8L366.7,307.6z"/>
	<rect x="360.2" y="301" class="st15" width="28.6" height="11.5"/>
	<rect x="388.8" y="301" class="st15" width="62" height="11.5"/>
</g>
<g>
	<path class="st7" d="M373.6,225.4l-24.3,37.4c0,0-22.2,28.6-23.7,30.5c-2,2.4-3,2-9.7,7.4c-6.6,5.3-4.3,7.8-4.3,7.8s2.4-2,4.3-3.5
		c2.2-1.8,4.2-3.1,3.6,0.6c-0.6,3.6,3.1,0.5,4-1.4c1.8-4.3,5.3-6,5.3-6c28.2-21.1,56.9-64.2,56.9-64.2
		C384.2,227.6,373.7,225.5,373.6,225.4z"/>
	<path class="st3" d="M383.7,236.7l3.6-5c-2.1-3.2-5.3-9-6.3-16.8c-0.5-4.1-0.3-7.7,0.1-10.5c-1.3,4.4-3,9.1-5,14.1
		c-1.8,4.4-3.8,8.5-5.7,12.1C372.9,226.6,384.4,234.5,383.7,236.7z"/>
	<path class="st7" d="M314.5,351.5L314,358c0,0-0.2,2.9-0.5,4c-0.4,1.2-3.7,3.5-3.7,3.5l0.7,4l9.6-3.8c0,0,0.6-0.7,0.2-1.9
		c-0.4-1.3,0.1-4.6,0.1-4.6l1.1-5.3L314.5,351.5z"/>
	<path class="st2" d="M289.1,372.9c0-0.1,0-0.9,0-1c0.4-2.3,20.8-6.2,20.8-6.2c0.3,0.7,7.8,1.2,10.4-2c0,0,0.5,3.1,0.8,4.5
		c0.7,4-4.8,6.1-10.1,6.3C306.4,374.6,289.8,375.2,289.1,372.9z"/>
	<path class="st7" d="M312.4,375.7c0,0-2.3,4.6-3.3,6c-4.1,6.1-7.6,11.3-7.6,11.3l10.7-1.3c0,0,0.9-0.7,1.1-2
		c0.3-1.3,4.6-7.7,4.6-7.7L312.4,375.7z"/>
	<path class="st2" d="M279.8,391.6c0-0.1,0.3-0.9,0.4-1c1.4-2,24.2-1.7,24.2-1.7c-0.2,1.5,6.8,2.7,8.9,0.6c0,0-0.8,3.5-1.1,4.7
		c-0.9,3.9-5.2,4.1-10.1,3.3C297.1,396.7,279.5,394,279.8,391.6z"/>
	<path class="st17" d="M387.8,297.2c0,0-39.7-12.3-59.4-10c-10.1,1.2-4.9,66.8-7,72.2c-2.4,1.7-8.7-0.3-8.7-0.3s-9.9-73-5.1-84.6
		c7.3-17.4,56.6-16.4,89.2-11L387.8,297.2z"/>
	<path class="st18" d="M408.4,264c0,0-13.5,7.5-18.2,9.9c-14,7.1-37,28.7-43.9,35.7c-4.1,4.2-35.6,69.1-35.6,69.1
		c-1.1,1.9,5,4.5,7.1,3c0,0,33-43.2,41.4-53.6c5.2-6.3,57.4-16.2,67.4-34.1C443,265,408.4,264,408.4,264z"/>
	<path class="st5" d="M411.9,283.3c-3,11.9-7.8,14.1-9.7,14.7c-11.6,3.7-32.3-17.7-30.1-32.5c0.5-3.2,1.4-6.8,4.1-16.8
		c1.3-4.8,1.4-8.6,1.6-9.9c4.2-30.5,6.8-49.8,14.6-52.1c7-2.1,16.4,9.8,20.6,15.2c24.2,30.7,27.4,77.7,11.3,91.3
		c-2,1.7-9.5,7.3-12,5.4c-0.6-0.5-0.8-1.4-0.8-5.6C411.5,289,411.7,285.7,411.9,283.3z"/>
	<path class="st7" d="M382.1,166.7c0.6,0.5,0.5,0.4,0.8,0.6c1.1,0.9,2,2.2,6.3,6.9c1.6,1.8,2.2,2.5,3.3,3.3c2.2,1.8,3.2,1.6,3.8,2.9
		c1.1,2.1,0.3,4.6,0.3,7.6c-0.2,4.5-5.8,10.7-7.5,8.3c-2.3-3.5-1.1-7-4.9-8.2c-3.8-1.4-5.3,0.4-8.5-1.1c-0.1-0.1-1.2-0.6-2.1-1.5
		c-2.9-3-1.7-8.2,0.9-18.2c0.6-2.3,1.2-4.3,2.3-4.5C377.5,162.6,378.1,163.5,382.1,166.7z"/>
	<path class="st2" d="M410.2,178.6c3.9,7.6,30.6,12.4,26.9,26.1c-3.6,13.7-5.5,19.7,1.8,28.7c8.7,10.7,6.1,28.9-4.9,35.5
		c-1.6,0.9-2.8,1.1-3.8,0.9c-3.4-0.8-5.5-4-5.8-4.5c-4.5-8.1,7.4-18.4,3-26.6c-1.4-2.6-2.5-1.5-5.2-4.6c-8.2-9.5,0.1-22.5-7.2-29.3
		c-3-2.8-7.1-3.2-8.1-3.3c-7.1-0.8-11.7,4-14.1,2.1c-1.4-1.2-2.1-3.3-0.5-7.8c3.3-9.4-7.8-13.6-4.6-13.5c2.1,0.1,4.7-7.4-2.7-5.7
		c0,0-3.4-5.4-7.4-7.9c-2.8-1.7-7.4-8.1,3-9.5C394.8,157.1,398.5,155.3,410.2,178.6z"/>
	<path class="st7" d="M401.1,238.2l-11-0.1c0,0-10.4,15.7-16.3,22.9c-8.4,10.2-36.8,2.1-39.6,0.9c-4.6-2.2-7.6-1.1-7.6-1.1
		c-3.3,0.6-8.7,5-9.4,5.7c-0.7,0.6-4,4.8,2.2,1.6s15.1,3.7,38.4,6.2c23.2,2.4,29-7.1,45.1-26.5L401.1,238.2z"/>
	<path class="st3" d="M415.6,229.3c-2,7.7-12.9,18.4-12.9,18.4c0-6.9-12.7-9.8-12.7-9.8s9.9-23.6,17.4-30.4
		C411.8,203.7,417.6,221.7,415.6,229.3z"/>
	<path d="M377.8,188.4c2.5-0.4,4.6-1.5,6.6-2.9l0,0l0,0c0.2-0.2,0.3-0.3,0.5-0.4l0,0c0.2-0.1,0.3-0.3,0.5-0.4l0,0
		c0.2-0.1,0.3-0.3,0.5-0.4l0,0c0.2-0.1,0.3-0.3,0.5-0.4c0.2-0.2,0.3-0.2,0.6,0c1,0.9,2.2,1.4,3.7,1.5c0.9,0.1,1.9-0.1,2.9-0.5
		c4.2-1.9,5.2-7.3,1.8-10.5c-0.2-0.2-0.3-0.4-0.2-0.7c0.4-1.1,0.7-2.1,1-3.2c0.6-1.9,1.2-3.8,1.8-5.7c0-0.3,0.1-0.5,0.2-0.8l0,0
		c0.4-1.3,0.8-2.6,1.2-3.9c-1-0.7-2-1.4-3.1-1.9c-0.1,0.1-0.2,0.2-0.3,0.4c-0.1,0.3-0.2,0.7-0.3,1.1v0.1c-0.4,1.4-0.9,2.9-1.3,4.3
		l0,0c-0.1,0.2-0.1,0.5-0.2,0.7c-0.8,2.6-1.5,5.1-2.3,7.6c-0.1,0.2-0.2,0.3-0.5,0.3c-0.2,0-0.3,0-0.5,0c-2,0.1-3.6,0.9-4.8,2.5
		c-1.5,2.1-1.8,4.3-0.7,6.6c0.1,0.4,0.1,0.6-0.2,0.8c-0.8,0.7-1.6,1.4-2.5,2l0,0l0,0c-2.3,1.5-4.8,2.4-7.6,2.2
		c-0.4,0-0.6-0.1-0.7-0.5c-0.4-1.1-1.5-1.7-2.7-1.6c-1.3,0.2-2.2,1-2.4,2.3c-0.2,1,0.5,2.2,1.5,2.7c1.1,0.5,2.4,0.3,3.2-0.7
		c0.2-0.2,0.5-0.3,0.8-0.3C375.9,188.8,377,188.7,377.8,188.4z"/>
</g>
</svg>
