<?xml version="1.0" encoding="utf-8"?>
<!-- Generator: Adobe Illustrator 22.1.0, SVG Export Plug-In . SVG Version: 6.00 Build 0)  -->
<svg version="1.1" id="Layer_1" xmlns="http://www.w3.org/2000/svg" xmlns:xlink="http://www.w3.org/1999/xlink" x="0px" y="0px"
	 viewBox="0 0 396 316" style="enable-background:new 0 0 396 316;" xml:space="preserve">
<style type="text/css">
	.st0{opacity:0.3;fill:url(#SVGID_1_);enable-background:new    ;}
	.st1{clip-path:url(#SVGID_3_);}
	.st2{fill:#FBD2C4;}
	.st3{fill:#FFBA0A;}
	.st4{fill:#FFFFFF;}
	.st5{fill:#5BB702;}
	.st6{fill:#2708A0;}
	.st7{fill:#FFB400;}
	.st8{fill:#F1D2C4;}
	.st9{fill:#F6511D;}
	.st10{fill:#100B00;}
	.st11{fill:#2C15B7;}
	.st12{fill:#FFC950;}
	.st13{fill:#FF4949;}
	.st14{fill:#161303;}
	.st15{opacity:0.3;fill:url(#SVGID_4_);enable-background:new    ;}
	.st16{clip-path:url(#SVGID_6_);}
	.st17{fill:#F94110;}
	.st18{fill:#465FE9;}
	.st19{fill:#2233A3;}
	.st20{fill:#000C59;}
	.st21{fill:#FDD4C6;}
	.st22{fill:#FF3D2B;}
</style>
<g>
	<linearGradient id="SVGID_1_" gradientUnits="userSpaceOnUse" x1="21.3813" y1="179.4301" x2="269.3813" y2="179.4301">
		<stop  offset="0" style="stop-color:#FFFFFF;stop-opacity:0"/>
		<stop  offset="2.168840e-02" style="stop-color:#F6FCFE;stop-opacity:2.168840e-02"/>
		<stop  offset="0.1827" style="stop-color:#B6E5FA;stop-opacity:0.1827"/>
		<stop  offset="0.3416" style="stop-color:#7ED2F6;stop-opacity:0.3416"/>
		<stop  offset="0.4944" style="stop-color:#51C2F3;stop-opacity:0.4944"/>
		<stop  offset="0.64" style="stop-color:#2EB6F0;stop-opacity:0.64"/>
		<stop  offset="0.7764" style="stop-color:#15ADEE;stop-opacity:0.7764"/>
		<stop  offset="0.9001" style="stop-color:#05A8ED;stop-opacity:0.9001"/>
		<stop  offset="1" style="stop-color:#00A6ED"/>
	</linearGradient>
	<circle class="st0" cx="145.4" cy="179.4" r="124"/>
	<g>
		<defs>
			<circle id="SVGID_2_" cx="145.4" cy="179.4" r="124"/>
		</defs>
		<clipPath id="SVGID_3_">
			<use xlink:href="#SVGID_2_"  style="overflow:visible;"/>
		</clipPath>
		<g class="st1">
			<g>
				<g>
					<g>
						<path class="st2" d="M103.4,318.7c-0.6-3.9-10.3-22.1-16.3-35.3l10.7-4.7l10.7,38.7c0,0,4.7,4.2,7.1,4.8
							c2.5,0.6,1.2,2.5-0.7,2.2c-2-0.2-4.8-1.5-4.8-1.5l3.4,12.6C113.5,335.6,106.7,339.9,103.4,318.7z"/>
						<polygon class="st3" points="98.7,280.4 88,285.2 82.8,273.7 95.8,268.1 						"/>
					</g>
					<g>
						<polygon class="st4" points="88.5,531 87.4,536.4 87.4,538.8 81.5,541.8 76,535.1 76.8,530.1 						"/>
						<path class="st4" d="M32.2,528.8c0,0-2.8,7.7-3.2,7.8c-0.4,0.2-5,2.3-5,2.3l-5.9-5.6l1-4.9L32.2,528.8z"/>
						<path class="st5" d="M65.6,291.8l11.9,55.4c0,0-0.6,49-5.6,73.8c-3.9,19.5-21.7,69.8-35.6,108.3c-1.6,4-18.5,3.3-17.8-1.1
							c8.8-51.5,15.2-84,12.9-107.8c-4.4-44.3-10.9-60.9-13.7-121.6L65.6,291.8z"/>
						<path class="st5" d="M39.2,296.4l14.8,51c0,0,14.2,27,20.4,46c7.2,22.3,3.6,81.1,1.5,136.4c-0.1,3.8,14.6,4.8,15.2,1
							c9.7-60.1,20.6-88.9,18.8-123.1c-1.1-23.9-2.3-67.3-23.9-124.1L39.2,296.4z"/>
						<path class="st4" d="M53.9,207.2l-2.2-11.5c0,0,10.1,7.4,17.4,7.1c7.2-0.1,7.2-4.5,7.4-8.7c0-4.2,9.1,5.9,8.8,6.1
							c-0.2,0.2,3.9,35.4,3.9,35.4l-4,71.6c0,0-5.6,9.2-32.7,7.5L53.9,207.2z"/>
						<path class="st6" d="M77,188.7l5.6-0.7c0,0,3.3,3.2,6.5,9.2c3.2,6,9.3,30,7.5,46.2c-6.6,61.4,16.9,94.7,16.2,105.5
							c-0.6,8.8-13.7,14-13.7,14s-16.9-51.5-17.8-61.2c-1.5-18.1-1.1-44.5-0.6-55.1c0.5-10.5-1.7-42.7-4.7-48.6L77,188.7z"/>
						<path class="st6" d="M53.2,203.8l-3.8-14.3c0,0-3.9,2.2-20.6,14.3C10.4,217.3-8.7,301.7,2.1,348.4
							c3.1,13.5,52.9,25.3,52.9,25.3c-4-17.7,6.1-168.5,6.1-168.5L53.2,203.8z"/>
						<path class="st7" d="M72.7,185c5,2.2,10.9,14.7,10.9,14.7c-3.1-0.4-6.5,1.2-6.5,1.2s-0.9-2.5-5.9-10.8
							C71.2,190.2,67.4,182.8,72.7,185z"/>
						<path class="st8" d="M51.4,197.2l4.9,2.2c3.4,1.6,7.1,2.3,10.8,2.2l0,0c4.5-0.1,5.8-1.5,6.5-6c0.1-0.7,0.1-6.6,0.4-7.4
							c1.1-5.3,8.6-0.5,11-5.9c2.6-5.5-3.1-35.4-23.1-29.3s7.2,28.9-10.3,34.1L51.4,197.2z"/>
						<path class="st7" d="M51.6,187.1c0,0,0.1,2.8,2.3,7c3.7,6.7,7.4,11,7.4,11c-1.2-0.2-7,1.8-7,1.8c-6.3-7.6-6.7-10.4-8.1-17.3
							L51.6,187.1z"/>
						<path class="st9" d="M75.8,151.3c-4.5-1.6-11.3-3.8-20.4,1.2c-9,5-8.7,15.1-6.6,20.7c2,5.6,5.4,8.5,10.3,10.4
							c4.8,2,6-4.7,6-4.7s-5-1.7-4.7-4.8c0.4-3.1,2.9-1.5,4.7-2c1.7-0.5-0.9-9.9,1.5-12c2.5-2,5.9,0.4,6.5-1.2
							c0.6-1.6,3.9-1,6.6,0.4C79.7,159.5,79.9,152.8,75.8,151.3z"/>
						<path class="st10" d="M118,552.7c0-0.2,0.1-1.2,0.1-1.3c-0.7-3.1-30.7-15-30.7-15c-0.5,1.7-9,0.7-11.4-1.3c0,0-0.7,3.4-1,4.9
							c-1,5,4.4,6.1,10.5,7.7C91.7,549.2,117,555.5,118,552.7z"/>
						<path class="st10" d="M44.4,551.3c0-0.2,0.1-1.2,0.1-1.3c-0.6-3.1-15.3-13.4-15.3-13.4c-0.4,0.2-9.3-0.2-10.7-3.9
							c0,0-1,4.7-1.1,6.1c-1,5,9.8,11,12.1,12C35.2,553.4,43.4,554.3,44.4,551.3z"/>
					</g>
					<g>
						<path class="st11" d="M31.8,311.6l-11,3.9c-2-6.1-9.6-23.9-9.4-26.2c0.2-11.5,2.5-54.6,10.9-69.7c12.1-21.6,34.3-2.3,31.3,6.7
							c-6.1,18.8-23.7,72-23.7,72L31.8,311.6z"/>
						<path class="st2" d="M34.5,351.8c-0.4-3.9-8.7-22.8-13.9-36.3l11-3.9l8,39.4c0,0,4.3,4.5,6.7,5.3c2.5,0.7,1.1,2.6-0.9,2.2
							c-1.8-0.4-4.7-1.8-4.7-1.8l2.6,12.9C43.3,369.5,36.2,373.3,34.5,351.8z"/>
						<polygon class="st3" points="32.4,313.4 21.3,317.3 16.9,305.6 30.3,300.8 						"/>
					</g>
				</g>
			</g>
			<g>
				<g>
					<g>
						<path class="st12" d="M170.5,301.3l-7.1,8.2c-4.4-4.2-18.6-15.1-19.6-17c-5-9.6-22.9-45.5-22.8-61.7
							c0-23.1,26.9-17.5,28.6-8.8c3.6,18,13.6,69.3,13.6,69.3L170.5,301.3z"/>
						<path class="st2" d="M191.1,332.7c-2.1-3.1-17.5-14.6-27.8-23.3l7.1-8.2l24.4,28.4c0,0,5.6,1.7,7.8,1.2
							c2.3-0.5,2.1,1.6,0.4,2.2c-1.7,0.5-4.7,0.6-4.7,0.6l8,9.3C206.3,343,202.3,349.4,191.1,332.7z"/>
						<polygon class="st3" points="171.9,302.4 164.8,310.7 155.8,303.1 164.4,293.1 						"/>
					</g>
					<g>
						<polygon class="st4" points="151.4,531.6 150.3,536.7 150.3,539 144.8,541.8 139.8,535.6 140.4,530.9 						"/>
						<path class="st4" d="M98.9,529.5c0,0-2.6,7.2-2.9,7.2c-0.4,0.2-4.7,2.2-4.7,2.2l-5.5-5.3l0.9-4.5L98.9,529.5z"/>
						<path class="st6" d="M130,308.6c1.3,17.3,2.7,34.6,4,51.9c0.1,25.6-1,48.3-2.5,67.4c-4.4,56-8,94.7-28.9,102.1
							c-0.9,0.2-10.9,3.8-16.6-1.1c-12.9-11,16.6-48.4,12-100.6c-0.5-5.3-1.8-16.6-3.3-27.5c-3.4-25-5.6-30.7-6.3-43
							c-0.5-9.1-0.2-22.4,3.8-39.1C104.9,315.3,117.4,312,130,308.6z"/>
						<path class="st6" d="M105.3,312.9l13.9,47.6l0,0c0,0,14.6,35.1,19.7,62.5c10.7,56.8-16.1,97,0.6,107.5
							c4.3,2.7,10.2,2.6,14.2,0.9c8.7-3.6,14.7-15.9,14.6-113.3c-0.1-35.4-0.9-46.5-3.1-59.5c-4-24.3-10.7-44-16.3-57.8L105.3,312.9
							z"/>
						<path class="st4" d="M119,229.7l-2.1-10.7c0,0,9.4,6.9,16.2,6.6c6.7-0.1,6.7-4.2,6.9-8.1c0-3.9,8.5,5.5,8.2,5.8
							c-0.2,0.2,3.7,33,3.7,33l-3.8,66.7c0,0-5.3,8.6-30.5,7L119,229.7z"/>
						<path class="st3" d="M140.6,212.4l5.3-0.7c0,0,3.2,2.9,6.1,8.6c2.9,5.6,8.7,28,7,43c-2.7,24.3-0.9,36.5,1,46.7
							c3.1,17.2,4.7,34.5,8.3,51.5c0.5,2,1.7,7.8-0.9,9.7c-2.3,1.7-6.6-0.6-7.7-1.1c-9.9-5.3-13.6-25.3-15.1-52.5
							c-1.2-23.2-1.6-30.9-0.5-51.4c0.5-9.8-1.6-39.7-4.4-45.2L140.6,212.4z"/>
						<path class="st3" d="M118.4,226.4l-3.6-13.4c-9.9,4.2-15.8,9.6-19.3,13.4c-25.4,28.1-0.2,65.2-10.7,112
							c-0.9,3.9-3.9,16.6,2.5,27c0.9,1.5,5.2,8.6,11,8.6c8.7,0,15.2-15.9,17.2-20.8c8.6-21.2,4.8-40.1,5.9-53
							c2.2-25.3,3.7-49.4,4.3-72.3L118.4,226.4z"/>
						<path class="st10" d="M178.9,551.9c0-0.2,0.1-1.2,0.1-1.3c-0.6-2.9-28.6-14-28.6-14c-0.5,1.6-8.3,0.6-10.7-1.2
							c0,0-0.7,3.2-0.9,4.5c-0.9,4.7,4.2,5.8,9.9,7.1C154.5,548.6,178,554.6,178.9,551.9z"/>
						<path class="st10" d="M110.1,550.6c0-0.2,0.1-1.2,0.1-1.3c-0.5-2.9-14.3-12.4-14.3-12.4c-0.4,0.2-8.7-0.2-9.9-3.6
							c0,0-0.9,4.3-1.1,5.8c-0.9,4.7,9.2,10.3,11.3,11.2C101.6,552.6,109.2,553.5,110.1,550.6z"/>
					</g>
					<g>
						<path class="st12" d="M87,327.3l-10.8,2c-0.9-6-5-23.4-4.5-25.5c2.1-10.5,10.8-49.8,21-62.3c14.5-18,31.9,3.3,27.7,11.2
							c-8.6,16.3-33,62.4-33,62.4L87,327.3z"/>
						<path class="st2" d="M83.2,364.7c0.4-3.7-4.4-22.3-7-35.6l10.8-2l1.1,37.5c0,0,3.3,4.8,5.4,5.9c2.1,1.1,0.6,2.6-1.1,1.8
							c-1.7-0.6-4-2.5-4-2.5l0.4,12.3C88.6,382.4,81.4,384.7,83.2,364.7z"/>
						<polygon class="st6" points="87.4,329.2 76.6,331 74.4,319.5 87.4,317.2 						"/>
					</g>
				</g>
				<g>
					<path class="st2" d="M154.8,183c6.9,21.6,4.5,24.2,0.6,26.6c-3.9,2.5-6,0.2-10.8,2.5c-4.8,2.1-2.7,6.4-5.3,11
						c-1.8,3.3-9.8-3.9-10.4-9.7c-0.6-5.8-3.3-10.1,4-13.7c7.4-3.7,5.2-8.2,11.9-15.1C151.5,177.6,154.8,183,154.8,183z"/>
					<path class="st10" d="M148,173.9c13.2,1.2,7.8,9.6,4.3,12c-4.9,3.4-9,10.4-9,10.4c-9.6-1.7-5.9,7.6-3.2,7.5
						c4-0.2-9.8,5.6-5.2,17.5c1.8,4.4,1.5,7.8-0.1,10.1c-2.8,3.8-11.6-2.7-15.5,0.9c-2.8,2.7-1.6,9-0.9,12.9
						c1.1,5.3,2.6,5.6,2.5,8.6c-0.1,5.8-6,7.1-9.8,13.5c-4.3,7.1,0.6,9.6-2.5,23.3c-2.1,9.7-5,7.4-10.7,21.7c-0.7,1.7-1.7,4.7-4,5.3
						c-3.7,1-8-4.2-8.6-4.9c-9.9-11.9,1.7-26.9-7.7-40.3c-4.5-6.4-9-5.4-10.7-11.2c-1.5-4.9,0-11.3,11.4-25.8
						c17.3-22.1,25.4-18,33-35.1C124.9,170.1,129.8,172.3,148,173.9z"/>
				</g>
			</g>
			<g>
				<g>
					<g>
						<path class="st12" d="M167.9,291.8c-0.4-16.3-0.5-59.6,14.7-76.6c2.3-2.5,7.8-8.7,12.6-7.4c2.9,0.8,5.7,4.1,7.1,12.8
							c2.7,17.1-10.2,58.2-13.9,69.2c-0.7,2.3-13.9,16.2-17.8,21.4l-8.9-7.6L167.9,291.8z"/>
						<path class="st8" d="M130.7,353.8l6.9-11.2c0,0-3.2,0.4-5,0.1c-1.9-0.2-2.5-2.5-0.1-2.3c2.6,0.2,8.2-2.6,8.2-2.6l21.1-34.3
							l8.9,7.6c-9.5,10.9-23.9,25.8-25.6,29.3C136.2,359.9,130.7,353.8,130.7,353.8z"/>
						<polygon class="st3" points="166.7,294 177.6,303 169.3,312.6 160.4,305.1 						"/>
					</g>
					<g>
						<polygon class="st4" points="193.3,539.5 194,544.5 188.6,551.1 182.7,548.2 182.6,545.7 181.5,540.3 						"/>
						<path class="st4" d="M250.9,537.8l1,4.9l-5.9,5.6c0,0-4.5-2.1-5-2.3c-0.4-0.1-3.2-7.8-3.2-7.8L250.9,537.8z"/>
						<path class="st9" d="M252.4,308.1c-2.8,60.7-9.3,77.4-13.7,121.6c-2.3,23.8,3.9,56.3,12.9,107.8c0.7,4.4-16.2,5.3-17.8,1.1
							c-13.9-38.5-31.6-88.8-35.6-108.3c-5-24.8-5.6-73.8-5.6-73.8l11.9-55.4L252.4,308.1z"/>
						<path class="st9" d="M184.1,292.9c-21.6,56.8-22.8,100.2-23.9,124.1c-1.7,34.2,9.1,63,18.8,123.1c0.6,3.8,15.3,2.8,15.2-1
							c-2.1-55.3-5.8-114,1.5-136.4c6.1-19,20.4-46,20.4-46l14.8-51L184.1,292.9z"/>
						<path class="st4" d="M217.7,324.2c-27,1.7-32.7-7.5-32.7-7.5l-4-71.6c0,0,4.3-35.2,3.9-35.4c1.5-2.2,4.3-5.8,8.5-7.1
							c2.1-0.6,2.8-0.1,3,0c1.3,1.1-0.3,3.7,1,5.6c1,1.5,3.1,1.7,4.5,1.9c6.6,0.7,14-3.4,16.6-5l-2.2,11.5L217.7,324.2z"/>
						<path class="st3" d="M193.9,207.3c-2.9,5.9-5.3,38-4.7,48.6c0.5,10.5,1,36.9-0.6,55.1c-0.7,9.7-17.8,61.2-17.8,61.2
							s-13.2-5.2-13.7-14c-0.7-10.8,22.8-44,16.2-105.5c-2.3-21-2.1-35.4,7.5-46.2c4.1-4.6,8.8-7.1,12.1-8.5L193.9,207.3z"/>
						<path class="st3" d="M208.8,214.5c0,0,10.3,150.8,6.1,168.5c0,0,49.8-11.9,52.9-25.3c10.9-46.8-8.2-131.2-26.7-144.6
							c-16.7-12.1-20.6-14.3-20.6-14.3l-3.8,14.3L208.8,214.5z"/>
						<path class="st13" d="M198.9,199.6c-5,8.3-5.9,10.8-5.9,10.8s-3.4-1.6-6.5-1.2c0,0,5.9-12.5,10.9-14.7
							C202.6,192.2,198.9,199.6,198.9,199.6z"/>
						<path class="st8" d="M218.4,196.5c-17.5-5.2,9.7-28-10.3-34.1s-25.6,23.8-23.1,29.3c2.5,5.4,9.9,0.6,11,5.9
							c0.1,0.7,0.1,6.6,0.4,7.4c0.6,4.5,2,5.9,6.5,6l0,0c3.7,0.1,7.4-0.6,10.8-2.2l4.9-2.2L218.4,196.5z"/>
						<path class="st13" d="M223.8,199.1c-1.3,7-1.8,9.7-8.1,17.3c0,0-5.8-2.1-7-1.8c0,0,3.7-4.3,7.4-11c2.3-4.2,2.3-7,2.3-7
							L223.8,199.1z"/>
						<path class="st14" d="M190.3,168.9c2.7-1.5,6-2.1,6.6-0.4c0.6,1.6,4-0.7,6.5,1.2c2.5,2-0.1,11.5,1.5,12c1.8,0.5,4.4-1.1,4.7,2
							c0.4,3.1-4.7,4.8-4.7,4.8s1.2,6.6,6,4.7s8.3-4.9,10.3-10.4c2.1-5.6,2.3-15.7-6.6-20.7c-9.1-5-15.8-2.8-20.4-1.2
							C190.1,162.2,190.3,168.9,190.3,168.9z"/>
						<path class="st14" d="M184.3,556.9c6.1-1.6,11.5-2.7,10.5-7.7c-0.2-1.5-1-4.9-1-4.9c-2.5,2.1-10.9,3.1-11.4,1.3
							c0,0-29.9,11.9-30.7,15c0,0.1,0.1,1.1,0.1,1.3C153,564.9,178.2,558.5,184.3,556.9z"/>
						<path class="st14" d="M240.7,560.2c2.2-0.9,13-7,12.1-12c-0.2-1.5-1.1-6.1-1.1-6.1c-1.5,3.7-10.3,4-10.7,3.9
							c0,0-14.7,10.2-15.3,13.4c0,0.1,0.1,1.1,0.1,1.3C226.7,563.6,234.9,562.8,240.7,560.2z"/>
					</g>
					<g>
						<path class="st12" d="M219.7,310.9c0,0-2.8-55.9-3.7-75.7c-0.5-9.4,26-22.2,32,1.8c4.2,16.8-5.2,58.9-8,70
							c-0.5,2.3-12.5,17.3-16.1,22.8l-9.6-6.7L219.7,310.9z"/>
						<path class="st8" d="M188,375.9l5.9-11.6c0,0-3.1,0.6-5,0.5c-2-0.1-2.8-2.2-0.2-2.3c2.6-0.1,8-3.3,8-3.3l18.1-35.9l9.6,6.7
							c-8.6,11.6-21.7,27.7-23.1,31.4C193.9,381.4,188,375.9,188,375.9z"/>
						<polygon class="st13" points="218.8,313.1 230.3,321.2 222.9,331.5 213.4,324.8 						"/>
					</g>
				</g>
			</g>
		</g>
	</g>
</g>
<g>
	<linearGradient id="SVGID_4_" gradientUnits="userSpaceOnUse" x1="198.952" y1="103.4192" x2="381.3396" y2="103.4192">
		<stop  offset="0" style="stop-color:#FFFFFF;stop-opacity:0"/>
		<stop  offset="2.168840e-02" style="stop-color:#F6FCFE;stop-opacity:2.168840e-02"/>
		<stop  offset="0.1827" style="stop-color:#B6E5FA;stop-opacity:0.1827"/>
		<stop  offset="0.3416" style="stop-color:#7ED2F6;stop-opacity:0.3416"/>
		<stop  offset="0.4944" style="stop-color:#51C2F3;stop-opacity:0.4944"/>
		<stop  offset="0.64" style="stop-color:#2EB6F0;stop-opacity:0.64"/>
		<stop  offset="0.7764" style="stop-color:#15ADEE;stop-opacity:0.7764"/>
		<stop  offset="0.9001" style="stop-color:#05A8ED;stop-opacity:0.9001"/>
		<stop  offset="1" style="stop-color:#00A6ED"/>
	</linearGradient>
	<circle class="st15" cx="290.1" cy="103.4" r="91.2"/>
	<g>
		<defs>
			<circle id="SVGID_5_" cx="290.1" cy="103.4" r="91.2"/>
		</defs>
		<clipPath id="SVGID_6_">
			<use xlink:href="#SVGID_5_"  style="overflow:visible;"/>
		</clipPath>
		<g class="st16">
			<path class="st4" d="M314.1,223.7c-7.3,0-14.7,0-22,0c-5.7,0-11.3,0-17,0c2.8-24.1,5.7-48.2,8.5-72.4c0,0,3.5-28.7,3.2-28.9
				c-0.6-0.6,6.5-2.6,6.9-5.8c0-0.2,0.1-1,0.3-1c0.5-0.1,0.7,3.3,3,5c0.3,0.2,1.1,0.8,3,1c5.1,0.6,12.4-2.3,14.1-2.9l-1.8,9.4
				C312.9,160,313.5,191.8,314.1,223.7z"/>
			<path class="st3" d="M294.2,120.5c-2.4,4.8-4.3,31-3.8,39.6s0.8,30.1-0.5,44.9c-0.6,7.9-14.5,49.9-14.5,49.9s-10.8-4.2-11.2-11.4
				c-0.6-8.8,18.6-35.9,13.2-86c-1.5-13.2,3.5-32.7,6.1-37.7s5.3-7.5,5.3-7.5l4.6,0.6L294.2,120.5z"/>
			<path class="st13" d="M298.3,114.2c-4.1,6.8-4.8,8.8-4.8,8.8s-2.8-1.3-5.3-1c0,0,4.8-10.2,8.9-12
				C301.3,108.2,298.3,114.2,298.3,114.2z"/>
			<path class="st8" d="M314.2,111.7c-14.3-4.2,7.9-22.8-8.4-27.8s-20.9,19.4-18.8,23.9c2,4.4,8.1,0.5,9,4.8c0.1,0.6,0.1,5.4,0.3,6
				c0.5,3.7,1.6,4.8,5.3,4.9l0,0c3,0.1,6-0.5,8.8-1.8l4-1.8L314.2,111.7z"/>
			<path class="st14" d="M291.3,89.2c2.2-1.2,4.9-1.7,5.4-0.3c0.5,1.3,3.3-0.6,5.3,1s-0.1,9.4,1.2,9.8c1.5,0.4,3.6-0.9,3.8,1.6
				c0.3,2.5-3.8,3.9-3.8,3.9s1,5.4,4.9,3.8c3.9-1.6,6.8-4,8.4-8.5c1.7-4.6,1.9-12.8-5.4-16.9c-7.4-4.1-12.9-2.3-16.6-1
				C291.1,83.7,291.3,89.2,291.3,89.2z"/>
			<g>
				<polygon class="st4" points="305.6,323.6 309.4,331.4 314.3,324.3 313.2,320.1 309.3,318.2 				"/>
				<polygon class="st4" points="256.3,339.2 263.1,335.6 263.4,331.2 254.5,329.3 				"/>
				<path class="st6" d="M304.8,233.7c-6.4,19.8-20.4,11.8-23.3,20.5c-4.9,14.1,24.8,70.6,24.8,70.6c4.1-4.9,5.5-5.3,7-4.7
					c0,0-2.2-56.7-0.2-63c2.3-7.1,37.9-1.1,38.5-6.2c1.3-10.1-1.5-18.6-1.5-18.6c-8-7.5-15.9-15.1-23.9-22.6
					C319.1,217.7,311.9,225.7,304.8,233.7z"/>
				<path class="st14" d="M314.7,323.6c-1.7-1.4-4.5,2.1-10.8,7.3c-4.7,3.9-14,7.1-12.6,8.6c1.6,1.6,24-3.1,25.4-9.8
					C317,328.9,315.6,324.3,314.7,323.6z"/>
				<path class="st6" d="M339.6,220.4c-49.7-5.3-90.9,3.1-100.6,25.8c-2.7,6.2-4.1,12.5-2.1,23.8c2.4,13,17.6,63,17.6,63
					c3.7-1,6-1,8.9-1c0,0-2.8-51.5,1.8-66.7c4.5-14.9,34.6-12.1,52.4-12.7c4.9-3.4,13.2-10.1,18.4-21.4
					C337.8,227.2,338.9,223.6,339.6,220.4z"/>
				<path class="st14" d="M239.5,348.3c19.8-4.7,26.9-6.4,27.8-6.6c0.9-0.3-0.7-5.2-2.7-7.6c0,0-6.2,3.1-10.7,5.4s-13.4,5.5-15,6.1
					C237.2,346,238.1,348.6,239.5,348.3z"/>
			</g>
			<path class="st3" d="M306.4,126.4c0,0,8.4,123,5,137.4c0,0,40.6-9.7,43.1-20.6c8.9-38.2-6.7-107-21.8-117.9
				c-13.6-9.9-16.8-11.7-16.8-11.7l-3.1,11.7L306.4,126.4z"/>
			<path class="st13" d="M318.6,113.8c-1.1,5.7-1.5,7.9-6.6,14.1c0,0-4.7-1.7-5.7-1.5c0,0,3-3.5,6-9c1.9-3.4,1.9-5.7,1.9-5.7
				L318.6,113.8z"/>
			<g>
				<path class="st12" d="M330.9,200.5c0,0-13.9-43.5-18.7-58.8c-2.4-7.4,15.9-23,25.6-5.2c6.8,12.4,8.2,47.5,8.3,56.9
					c0.1,1.9-6.2,16.3-7.9,21.3l-8.9-3.3L330.9,200.5z"/>
				<path class="st8" d="M319.4,258.4l2.2-10.5c0,0-2.3,1.1-3.9,1.4s-2.7-1.2-0.7-1.8c2-0.6,5.5-4.2,5.5-4.2l6.8-32.1l8.9,3.3
					c-4.3,11-11.3,26.3-11.6,29.5C325.2,261.5,319.4,258.4,319.4,258.4z"/>
				<polygon class="st12" points="330.6,202.5 341.3,206.5 337.7,216.1 328.7,212.8 				"/>
			</g>
		</g>
		<g class="st16">
			<path class="st8" d="M257.5,295.9l-1.4,6.4c0,0-0.6,2.8-1,3.9c-0.5,1.1-4.1,3-4.1,3l0.2,4.1l10-2.5c0,0,0.7-0.6,0.5-1.9
				c-0.2-1.3,0.7-4.5,0.7-4.5l1.8-5.1L257.5,295.9z"/>
			<path class="st3" d="M229.5,313.7c0-0.1,0.1-0.9,0.1-1c0.7-2.2,21.4-3.4,21.4-3.4c0.2,0.7,7.6,2.2,10.6-0.6c0,0,0.1,3.1,0.2,4.6
				c0.2,4.1-5.6,5.4-10.8,4.9C246.4,317.7,229.9,316.1,229.5,313.7z"/>
			<path class="st8" d="M250.4,333.9c0,0-2.4,4.5-3.4,5.9c-4.2,6-7.9,11.1-7.9,11.1l10.7-1.1c0,0,0.9-0.7,1.1-2
				c0.3-1.3,4.8-7.6,4.8-7.6L250.4,333.9z"/>
			<path class="st3" d="M217.5,349.1c0-0.1,0.3-0.9,0.4-1c1.4-2,24.2-1.1,24.2-1.1c-0.2,1.5,6.7,2.9,8.9,0.8c0,0-0.9,3.5-1.2,4.7
				c-1,3.9-5.3,4-10.2,3.1C234.7,354.6,217.1,351.5,217.5,349.1z"/>
			<path class="st17" d="M238.6,222.5c0,0-37.7-17.4-57.6-17.8c-10.2-0.2-13.7,65.6-16.5,70.6c-2.6,1.4-8.6-1.4-8.6-1.4
				s-0.2-73.7,6.1-84.5c9.5-16.3,58.3-8.8,89.9,0.9L238.6,222.5z"/>
			<path class="st17" d="M250.3,195.2c0,0-13.7,7.2-18.4,9.5c-14.2,6.8-37.6,27.8-44.7,34.7c-4.2,4.1-37.2,68.3-37.2,68.3
				c-1.1,1.9,4.9,4.6,7,3.2c0,0,34-42.4,42.6-52.6c5.3-6.2,57.8-14.9,68.2-32.5C284.8,196.9,250.3,195.2,250.3,195.2z"/>
			<path class="st6" d="M264.1,213.2l-12.3,15.4c0,0-30.6-30.4-24.8-38.3c4.9-6.8,7.3-16.8,9.2-25.7c3.7-17.7,3.5-34.2,4-35.4
				c4.4-11.3,20.8-26.1,36.8,0.9c17.1,28.8,22.7,46.8,9.9,77c-15.4,36.3-31.3,25.3-31.3,25.3L264.1,213.2z"/>
			<path class="st8" d="M231.9,107.5c6.5,3.8,5.7,7.7,12,9c6.3,1.3,5.1,5.1,5.8,9.6c0.6,4.5-4,11.5-6,9.4c-2.9-3.1-2.2-6.7-6.2-7.3
				c-4-0.7-5.2,1.3-8.6,0.3c-3.4-1-5.7-2.5-4.8-20.2C224.1,108.3,225.4,103.6,231.9,107.5z"/>
			<path class="st17" d="M260.4,112.9c5.4,6.6,32.5,5.6,31.9,19.8s-1.2,20.4,7.9,27.7c10.8,8.6,12.1,26.9,2.8,35.7
				c-6.1,5.6-8.2-4.9-12-0.3c0,0,3.8-15.7,1.3-29.9c-1.5-8.7-8.7-24.7-13.4-31.7c-4.7-7-12.1-1-18.2,4.3c-6.7,5.9-15.2,4.8-14-5.1
				c1.2-9.9-10.5-11.6-7.4-12.2c2.1-0.4,3-8.2-3.9-5c0,0-4.5-4.5-8.9-6.1c-3.1-1.1-8.9-6.3,0.9-9.9C240.8,95.2,244,92.6,260.4,112.9
				z"/>
			<path class="st8" d="M260.2,162.8l-10.9-1.6c0,0-12.4,14.2-19.2,20.5c-9.7,9-36.8-2.8-39.4-4.4c-4.3-2.8-7.4-2.1-7.4-2.1
				c-3.4,0.2-9.3,3.8-10.1,4.4c-0.8,0.5-4.6,4.2,2,1.9s14.5,5.7,37.2,11.2s29.7-3.2,48.2-20.3L260.2,162.8z"/>
			<path class="st4" d="M275.8,155.9c-3,7.4-15.2,16.5-15.2,16.5c0.9-6.8-11.3-11.4-11.3-11.4s12.9-22.1,21.3-27.8
				C275.4,130,278.8,148.6,275.8,155.9z"/>
		</g>
		<g class="st16">
			<g>
				<polygon class="st4" points="302.1,348 303.3,351.1 303.6,353.4 311,349.5 310.7,348.2 309.6,345.7 301.6,338.2 				"/>
				<polygon class="st4" points="335,302.9 354.3,251.5 335.1,293.4 328.6,298.2 327.6,301.6 333.1,307.9 				"/>
				<path class="st18" d="M332.5,211.8c-8.5,18.4,13.1,26.5,9.2,34.4c-6.3,13-13.2,52-13.2,52c1.6-1.7,6.9,1.4,6.4,4.7
					c0,0,29.3-54.1,32-59.9c3.1-6.6,11.1-9.5,10.9-14.5c-0.4-9.2-1.4-12.7-1.4-12.7l-26.5-31.1L332.5,211.8z"/>
				<path class="st19" d="M327.7,300.9c2-0.7,5.4,2.3,7.5,9.9c2.1,7.6,12.3,21.4,6.3,24.2c-2,0.9-19-26.6-17.6-29.1
					c0.1-0.1,0.2-0.3,0.2-0.4C325.4,303.1,326.6,301.3,327.7,300.9z"/>
				<path class="st20" d="M341.4,335c-2.1,1.9-17.1-23.1-17.6-24.8c-0.5-1.8-0.9-3.2,0-4.3c1-1.1,4-0.2,5.9,3.1
					C330.6,310.5,345.6,331.3,341.4,335z"/>
				<path class="st18" d="M320.6,192.5c-21.2,31.3-38.8,62.6-37,93.4c0.7,12.9,18.5,62.1,18.5,62.1c0.9-3.7,6.9-3.9,7.5-2.3
					c0,0-11.1-55.4-4.9-69.5c6.1-13.9,31.5-37.8,39.1-45.3c0,0,16.2-17.1,16.7-32.8C360.9,182.4,320.6,192.5,320.6,192.5z"/>
				<path class="st19" d="M369.1,170.5c-3.2-16.3-3.4-22.6-5.2-30.7c-0.9-4.1-0.8-6.9-2.6-9.6c-6.1-8.8-22.2-7.5-29.9-6.4
					c-0.4,0.2-1.2,0.7-2.1,1.3c-15.1,10.3-18.3,34-18.3,34l0,0c0,0-4.7,45.8-7.5,57.6c0,0,13.1-5.1,25.7-6.7
					c9.7-1.3,23.7,0.9,23.7,0.9l2.6-15.8l1.3,16.6c0,0,13.5,1.2,19.6,4.1C376.4,215.7,373.3,192.2,369.1,170.5z"/>
				<path class="st21" d="M338,95.1c-5,5.2-11.9,17.4-7.1,21.7c5.1,4.5,0.7,8.3,0.7,8.3s6.6-1,11.6-1.6c4.5-0.6,3-5.1,4.6-7.5
					c3.9-5.9,7.5-10.3,4.9-15C349.1,94.5,341.2,91.8,338,95.1z"/>
				<path class="st4" d="M333,122.8l-3.7,2.3c0,0,8.3,0.2,13.1-1.1c2.7-0.7,3.7-1.5,4.1-2.3c0,0-5.6-1.3-7.8-0.1
					C336.5,122.7,333,122.8,333,122.8z"/>
				<path class="st22" d="M340.7,91c-3.9,0.9-6.1,6.8-4.5,14.4c0,0,4.2-1.6,4.8,2.8c0.7,5.2-2.7,4.2-2.4,4.9c2.1,6.9,0,5.6,1.5,6.6
					c2.4,1.5,6.7,3.1,8.4,1.7c1.8-1.4,1.8-4.9,4.9-8.5c3.1-3.7,5.8-9.1,3.3-13.6C354.1,94.9,345.6,89.9,340.7,91z"/>
				<path class="st19" d="M305,357.4c4.2-2.3,8.4-1.8,8.4-1.8c-0.3-3.9-2.7-7.4-2.7-7.4c-0.1-1.4-5.6,0.8-7.4,2.9
					c-3.4,3.9-13.2,10-13.8,15.3c-0.1,0.7,0.2,2.2,0.3,2.1C292.3,364.5,297.6,361.5,305,357.4z"/>
				<path class="st20" d="M289.8,368.4c0,1.3,12.5-6.6,17.1-7.6s6.8-4.4,6.5-5.2s-3-0.6-5.7,0.4s-10.9,5.6-12.5,6.9
					C293.6,364.2,289.9,367.5,289.8,368.4z"/>
			</g>
			<g>
				<path class="st2" d="M334.6,171.8c-8,20.1-12.4,28.5-31.3,35.4c-18.8,6.8-20.8,8.8-25.1,13c-4.3,4.2-8.8-4.9-6.2-6.7
					c0.7-0.5,4.4-1.4,7-2.8c0,0,3.6-1.9,10-4.7c2.4-1.1,25-12.2,26.4-16.3c2.6-7.5,6.2-22.4,6.2-22.4l9.1-2.8L334.6,171.8z"/>
				<path class="st6" d="M328,137.9c-4.9,1-6.3,17.3-6.7,20.7c-0.1,1-0.6,5.1-1.6,13.3c-0.4,2.6-0.5,4-1.1,5.7
					c-1.6,4.3-4.6,6.7-6.5,8.7c-6.7,6.8-14.2,12.1-19.9,15.6c0.9-0.2,2.7-0.3,4.4,0.5c2.8,1.5,4.2,5.3,3.4,9.4
					c3.5-0.9,8.5-2.7,13.8-6c17.4-10.5,32-33.2,26.7-52.3C337.9,144.9,331.6,137.1,328,137.9z"/>
			</g>
		</g>
	</g>
</g>
</svg>
