<?xml version="1.0" encoding="utf-8"?>
<!-- Generator: Adobe Illustrator 22.1.0, SVG Export Plug-In . SVG Version: 6.00 Build 0)  -->
<svg version="1.1" id="Layer_1" xmlns="http://www.w3.org/2000/svg" xmlns:xlink="http://www.w3.org/1999/xlink" x="0px" y="0px"
	 viewBox="0 0 47 45" style="enable-background:new 0 0 47 45;" xml:space="preserve">
<style type="text/css">
	.st0{fill:none;}
	.st1{fill:#FFFFFF;}
</style>
<rect x="-60" y="-8.8" class="st0" width="163" height="61.5"/>
<g>
	<g>
		<path class="st1" d="M23.4,1.1c0.6,0,1.3-0.1,1.9,0c2.8,0.2,5.6,1,8.1,2.3c3.2,1.7,6,4.2,8,7.2c2.1,3.1,3.3,6.7,3.6,10.4
			c0,1-0.1,2,0,2.9c-0.2,2.8-0.9,5.6-2.2,8.1c-1.4,2.9-3.5,5.5-6.1,7.5c-3.2,2.5-7.1,4.1-11.2,4.5c-0.6,0-1.2,0.2-1.9,0.1
			c-0.4,0-0.8,0.1-1.2-0.1c1.5-4.3,3-8.5,4.6-12.8c1.7,0,3.3,0,5,0c1.1,0,2.1-0.7,2.5-1.7c1.4-4,2.8-7.9,4.2-11.9
			c0.2-0.6,0.3-1.3,0.2-1.9c-0.2-0.8-1-1.4-1.8-1.6C36.4,13.9,35.7,14,35,14c-2.1,0-4.3,0-6.4,0c0,0.1-0.1,0.2-0.1,0.3
			C25,24,21.6,33.7,18.1,43.4c-3.6-0.9-6.9-2.8-9.5-5.3C5.4,35,3.2,30.9,2.3,26.6c-0.3-1.3-0.3-2.6-0.4-4c0.1-2.8,0.5-5.5,1.5-8.1
			C6,8.1,11.8,3,18.7,1.6c-3.5,9.7-6.9,19.4-10.4,29c0.2,0.1,0.5,0,0.7,0c1.3,0,2.5,0,3.8,0c0.2,0,0.2-0.2,0.2-0.4
			c1.5-4.3,3.1-8.6,4.6-12.9c0.1-0.3,0.2-0.5,0.3-0.8c0.8,0,1.6,0,2.4,0c-1.7,4.7-3.3,9.4-5,14c0.2,0.1,0.4,0,0.6,0.1
			c1.3,0,2.7,0,4,0c1.5-4.3,3-8.5,4.5-12.7c0.3-0.9,0.4-1.9-0.2-2.7c-0.4-0.7-1.3-1-2.1-1.1c-1.1,0-2.2,0-3.3,0
			C20.3,9.7,21.9,5.4,23.4,1.1z"/>
	</g>
	<path class="st1" d="M32.2,16.6c0.1-0.1,0.4-0.1,0.5-0.1c0.6,0,1.2,0,1.8,0c-1.4,4.1-2.9,8.2-4.4,12.3c-0.8,0.1-1.6,0-2.4,0
		C29.3,24.7,30.8,20.6,32.2,16.6z"/>
</g>
</svg>
