<?xml version="1.0" encoding="utf-8"?>
<!-- Generator: Adobe Illustrator 22.1.0, SVG Export Plug-In . SVG Version: 6.00 Build 0)  -->
<svg version="1.1" id="Layer_1" xmlns="http://www.w3.org/2000/svg" xmlns:xlink="http://www.w3.org/1999/xlink" x="0px" y="0px"
	 viewBox="0 0 304 79" style="enable-background:new 0 0 304 79;" xml:space="preserve">
<style type="text/css">
	.st0{fill:#100B00;}
	.st1{fill:#5BB702;}
</style>
<g transform="matrix( 1, 0, 0, 1, 0,0) ">
	<g>
		<g id="Layer0_0_FILL">
			<path class="st0" d="M269.8,28.1c-0.2,0.2-0.3,0.6-0.2,1.1l3,26.6c0.2,2,0.8,3.3,1.6,4.1c0.6,0.5,1.4,0.8,2.5,0.8h0.6l-0.8,1.8
				c-0.7,1.5-1.4,2.5-2.1,3s-1.6,0.7-3,0.7c-2.4,0-4.6-0.1-6.5-0.4c-0.5,0-0.9,0-1,0.2c-0.2,0.1-0.3,0.4-0.4,0.9l-0.6,3.8
				c-0.1,0.5,0.3,0.8,1.1,0.9c1.6,0.5,3.6,0.8,6,0.8c3.8,0,6.6-0.7,8.6-2.1c1.7-1.2,3.3-3.6,4.8-6.9L299,29.2
				c0.2-0.4,0.2-0.7,0.1-0.9c-0.1-0.3-0.4-0.4-0.8-0.4h-6.1c-0.6,0-1,0.3-1.4,1l-10.6,25h-0.4c-0.3,0-0.5-0.1-0.6-0.2
				c-0.1-0.2-0.1-0.5-0.1-1.1L277.3,29c0-0.4-0.1-0.7-0.2-0.8c-0.2-0.2-0.5-0.3-1-0.2h-5.4C270.3,27.9,269.9,28,269.8,28.1
				 M256.1,27.5c-3.4,0-6.1,0.6-8.2,1.8c-2.7,1.5-4.1,3.8-4.1,7c0,1.9,0.4,3.5,1.1,4.8c0.7,1.2,1.9,2.4,3.6,3.6l6.1,4.2
				c1.3,0.9,1.9,1.8,1.9,2.8c0,1.3-0.5,2.1-1.4,2.6c-0.7,0.4-1.9,0.6-3.6,0.6c-1,0-2.4-0.1-4.2-0.2c-2.1-0.1-3.7-0.3-5-0.4
				c-0.8-0.1-1.3,0.2-1.4,0.9l-0.6,3.5c-0.1,0.7,0.2,1.1,0.9,1.3c2.9,0.8,6.4,1.2,10.4,1.2c3.7,0,6.7-0.8,9-2.5
				c2.6-1.8,3.9-4.5,3.9-7.9c0-1.4-0.3-2.6-0.9-3.7c-0.7-1.3-1.8-2.5-3.4-3.6l-6.8-4.6c-0.7-0.5-1.2-1-1.4-1.4
				c-0.2-0.3-0.3-0.8-0.3-1.3c0-1,0.5-1.6,1.5-2c0.7-0.3,1.7-0.4,3-0.4c2.5,0,5.5,0.2,9.1,0.7c0.7,0.1,1.2-0.2,1.4-1.1l0.6-3.3
				c0.1-0.5,0.1-0.8-0.1-0.9c-0.1-0.1-0.3-0.3-0.7-0.4C263.2,27.9,259.8,27.5,256.1,27.5 M221.7,27.9h-5.4c-0.8,0-1.3,0.4-1.4,1.2
				L211.6,48c-0.3,1.3-0.4,2.8-0.4,4.3c0,3,0.9,5.3,2.6,6.8c1.6,1.3,3.6,2,6.1,2c2.8,0,5.9-1,9.2-2.9l-0.1,1.2v0.2c0,0.7,0.3,1,1,1
				h5c0.3,0,0.6-0.1,0.9-0.4c0.3-0.2,0.4-0.5,0.4-0.8l5.4-30.3c0.1-0.8-0.2-1.3-1-1.2h-5.4c-0.7,0-1.2,0.4-1.3,1.2l-4,23.3
				c-2.8,1.4-5.3,2.1-7.5,2.1c-1.4,0-2.3-0.2-2.8-0.6c-0.5-0.4-0.8-1.2-0.8-2.4c0-0.8,0.1-1.9,0.4-3.4l3.3-18.9
				C222.8,28.3,222.5,27.9,221.7,27.9 M185.5,17.6c-1,0.2-1.7,0.5-2.2,0.9c-0.5,0.5-0.8,1.2-1,2.2l-6.4,36.5l-0.1,0.9
				c0,0.7,0.2,1.2,0.6,1.5c0.3,0.3,0.9,0.5,1.8,0.7c2.2,0.4,5.5,0.7,10,0.7c6.5,0,11.4-1.1,14.7-3.4c3.6-2.5,5.4-6.4,5.4-11.8
				c0-1.5-0.4-2.9-1.1-4.2c-0.7-1.4-1.8-2.4-3.2-3c2.6-1,4.5-2.5,5.8-4.6c1.1-1.8,1.6-3.9,1.6-6.3c0-3.7-1.4-6.4-4.1-8.2
				c-2.6-1.7-6.6-2.6-12-2.6C191.1,17.1,187.9,17.2,185.5,17.6 M194,23.8c3.3,0,5.7,0.3,7.1,1c1.4,0.7,2,1.8,2,3.4
				c0,5-2.7,7.5-8.1,7.5h-7.3l2.1-11.8L194,23.8 M186.6,41.6h7.4c4.1,0,6.1,1.6,6.1,4.8c0,3-0.9,5.1-2.7,6.3
				c-1.7,1.1-4.5,1.7-8.3,1.7l-4.8-0.1L186.6,41.6 M171.6,30.9c-2-2.3-4.9-3.4-8.6-3.4c-4.6,0-8.3,1.1-10.9,3.4
				c-2.8,2.4-4.7,6.2-5.6,11.5l-0.6,3.6c-0.2,1-0.2,2.2-0.2,3.5c0,4,1.3,7,3.8,9.1c2.1,1.7,4.6,2.6,7.6,2.6c4.1,0,8-0.3,11.6-1
				c0.5-0.1,0.9-0.2,1.1-0.5c0.2-0.2,0.3-0.5,0.4-1l0.7-3.9c0.1-0.6-0.2-0.9-1.1-0.9c-5.4,0.4-9,0.7-10.7,0.7c-4,0-5.9-1.8-5.9-5.2
				c0.1-1,0.2-1.8,0.3-2.4h18.9c0.8,0,1.2-0.5,1.4-1.4l0.5-2.8c0.2-1.1,0.3-2.2,0.3-3.3C174.4,35.8,173.5,33,171.6,30.9 M161.9,34.1
				c1.6,0,2.8,0.4,3.7,1.3c0.9,0.9,1.3,2.1,1.3,3.9c0,0.5-0.1,1.2-0.2,2.2h-12.3C155.2,36.6,157.7,34.1,161.9,34.1 M141.2,30.9
				c-2-2.3-4.9-3.4-8.6-3.4c-4.6,0-8.2,1.1-10.9,3.4c-2.8,2.4-4.7,6.2-5.6,11.5l-0.6,3.6c-0.2,1-0.3,2.1-0.3,3.5c0,4,1.2,7,3.8,9.1
				c2.1,1.7,4.6,2.6,7.7,2.6c4.1,0,8-0.3,11.6-1c0.5-0.1,0.9-0.2,1.1-0.5c0.2-0.2,0.3-0.5,0.3-1l0.7-3.9c0.1-0.6-0.2-0.9-1.1-0.9
				c-5.4,0.4-9,0.7-10.7,0.7c-4,0-6-1.8-6-5.2c0.1-1,0.2-1.8,0.3-2.4h18.9c0.8,0,1.2-0.5,1.4-1.4l0.5-2.8c0.2-1.2,0.2-2.3,0.2-3.3
				C144,35.8,143.1,33,141.2,30.9 M131.5,34.1c1.6,0,2.8,0.4,3.7,1.3c0.9,0.9,1.3,2.1,1.3,3.9c0,0.2-0.1,1-0.2,2.2H124
				C124.8,36.6,127.3,34.1,131.5,34.1 M108.8,29.1c0.2-0.8-0.2-1.2-1-1.2h-5c-0.8,0-1.2,0.4-1.4,1.2l-5.3,30.3
				c-0.1,0.8,0.2,1.2,0.9,1.2h5.3c0.8,0,1.3-0.4,1.4-1.2l4.1-23.3c2.8-1.4,5.6-2.1,8.4-2.1c0.7,0,1.2-0.4,1.3-1.1l0.8-4.2v-0.2
				c0-0.6-0.3-0.9-0.9-0.9c-1.6,0-2.9,0.2-4.1,0.4c-1.7,0.4-3.2,1.2-4.7,2.4L108.8,29.1 M82.2,25.1c0.8-0.7,2-1.1,3.7-1.1h11.9
				c0.8,0,1.3-0.4,1.4-1.1l0.7-3.7c0.1-0.4,0.1-0.7-0.1-0.8c-0.1-0.2-0.4-0.3-0.9-0.4c-3.1-0.6-6.8-0.8-10.9-0.8
				c-4.7,0-8.1,0.8-10.4,2.2c-2.6,1.8-4.3,5-5.1,9.6l-5.3,30.5v0.2c0,0.6,0.3,0.9,0.9,0.9h5.7c0.3,0,0.6-0.1,0.9-0.4
				c0.3-0.2,0.4-0.5,0.5-0.8l3.1-17.8H94c0.8,0,1.2-0.4,1.4-1.1l0.8-4.2c0.2-0.8-0.1-1.2-1-1.2H79.4l1.1-6.2
				C80.8,27.1,81.4,25.8,82.2,25.1z"/>
			<path class="st1" d="M6.4,8.3L5.8,9.5c-0.2,0.4-0.3,0.8-0.4,1.4v0.2v0.2l-0.1,0.2L4,49.6c0,0.7,0,1.4,0.2,2.1
				c0.1,0.9,0.3,1.6,0.5,2.1c0.3,0.8,0.6,1.5,0.9,1.9c0.4,0.7,0.8,1.2,1.3,1.7s1,1,1.7,1.4c0.6,0.5,1.2,0.8,1.8,1
				c0.6,0.3,1.2,0.5,1.9,0.6c0.5,0.1,1.2,0.2,2.1,0.2l34-0.2c0.6,0,1.1-0.1,1.5-0.2c0.4-0.1,0.9-0.2,1.4-0.5c0.6-0.3,1-0.6,1.2-0.9
				c0.3-0.3,0.6-0.7,1-1.2c0.3-0.3,0.5-0.8,0.8-1.3l0.5-1.5l0.2-1.7l-3-32.8l-0.8-2.9L50.5,16l-0.9-1.3l-1.1-1.1l-1.2-0.9L46,12.2
				l-1.3-0.4L14.8,5.3L13,5.1c-0.6,0-1.2,0-1.7,0.1c-0.5,0-1,0.2-1.6,0.4L8.3,6.3C7.8,6.7,7.5,7,7.2,7.2C6.9,7.6,6.6,7.9,6.4,8.3
				 M40.2,20.6c0.1,0.2,0.1,0.4,0,0.7l-0.5,3c-0.1,0.6-0.5,0.9-1.1,0.9h-9.7c-1.3,0-2.3,0.3-3,0.9s-1.2,1.7-1.4,3.2l-0.9,5.1h4.7
				c0.6,0,0.9,0.3,0.8,1l-0.6,3.4c-0.1,0.6-0.5,0.9-1.2,0.9h-4.6l-1.9,10.8v0.2L20.6,51l-0.1,0.1c-0.1,0.2-0.4,0.3-0.8,0.3H15
				c-0.5,0-0.8-0.2-0.8-0.7v-0.2l3.7-21.1c0.6-3.8,2-6.4,4.2-7.9c1.8-1.2,4.6-1.8,8.4-1.8c3.3,0,6.2,0.2,8.8,0.7
				C39.8,20.3,40,20.4,40.2,20.6 M33.6,31.2h4.1c0.6,0,0.9,0.3,0.8,0.9l-0.2,1c1.2-0.9,2.5-1.6,3.8-1.9c0.9-0.2,2-0.4,3.3-0.4
				c0.5,0,0.8,0.2,0.8,0.8v0.2l-0.7,3.4c-0.1,0.6-0.5,0.9-1.1,0.9c-2.2,0-4.5,0.6-6.8,1.8l-2.2,12.5l-0.3,0.7
				c-0.2,0.2-0.5,0.2-0.8,0.2H30c-0.7,0-0.9-0.3-0.7-0.9l2.8-16h0.1l0.3-2.2C32.7,31.5,33,31.2,33.6,31.2z"/>
		</g>
	</g>
</g>
</svg>
