<?xml version="1.0" encoding="utf-8"?>
<!-- Generator: Adobe Illustrator 22.1.0, SVG Export Plug-In . SVG Version: 6.00 Build 0)  -->
<svg version="1.1" id="Layer_1" xmlns="http://www.w3.org/2000/svg" xmlns:xlink="http://www.w3.org/1999/xlink" x="0px" y="0px"
	 viewBox="0 0 580 420" style="enable-background:new 0 0 580 420;" xml:space="preserve">
<style type="text/css">
	.st0{fill:#FFFFFF;}
	.st1{fill:#F6511D;}
	.st2{fill:#161303;}
	.st3{opacity:0.3;fill:url(#SVGID_1_);enable-background:new    ;}
	.st4{fill:#F0EDF3;}
	.st5{fill:#CDCCCE;}
	.st6{fill:#E7E6E8;}
	.st7{fill:#D25D60;}
	.st8{fill:#E5A866;}
	.st9{fill:#9FC768;}
	.st10{fill:#5BB702;}
	.st11{clip-path:url(#SVGID_3_);}
	.st12{fill:#FBD2C4;}
	.st13{fill:#FFBA0A;}
	.st14{fill:#2708A0;}
	.st15{fill:#FFB400;}
	.st16{fill:#F1D2C4;}
	.st17{fill:#100B00;}
	.st18{fill:#2C15B7;}
</style>
<g>
	<polygon class="st0" points="1192.7,268.7 1193.3,272.8 1188.8,278.2 1184,275.8 1184,273.8 1183.1,269.4 	"/>
	<path class="st0" d="M1239.6,267.3l0.8,4l-4.8,4.6c0,0-3.7-1.7-4.1-1.9c-0.3-0.1-2.6-6.4-2.6-6.4L1239.6,267.3z"/>
	<path class="st1" d="M1240.9,80c-2.3,49.5-7.6,63.1-11.2,99.2c-1.9,19.4,3.2,45.9,10.5,87.9c0.6,3.6-13.2,4.3-14.5,0.9
		c-11.3-31.4-25.8-72.4-29-88.3c-4.1-20.2-4.6-60.2-4.6-60.2l9.7-45.2L1240.9,80z"/>
	<path class="st1" d="M1185.2,67.6c-17.6,46.3-18.6,81.7-19.5,101.2c-1.4,27.9,7.4,51.4,15.3,100.4c0.5,3.1,12.5,2.3,12.4-0.8
		c-1.7-45.1-4.7-93,1.2-111.2c5-15.5,16.6-37.5,16.6-37.5l12.1-41.6L1185.2,67.6z"/>
	<path class="st2" d="M1185.4,282.9c5-1.3,9.4-2.2,8.6-6.3c-0.2-1.2-0.8-4-0.8-4c-2,1.7-8.9,2.5-9.3,1.1c0,0-24.4,9.7-25,12.2
		c0,0.1,0.1,0.9,0.1,1.1C1159.8,289.4,1180.4,284.2,1185.4,282.9z"/>
	<path class="st2" d="M1231.4,285.6c1.8-0.7,10.6-5.7,9.9-9.8c-0.2-1.2-0.9-5-0.9-5c-1.2,3-8.4,3.3-8.7,3.2c0,0-12,8.3-12.5,10.9
		c0,0.1,0.1,0.9,0.1,1.1C1219.9,288.4,1226.6,287.7,1231.4,285.6z"/>
</g>
<linearGradient id="SVGID_1_" gradientUnits="userSpaceOnUse" x1="282.65" y1="-3933.863" x2="282.65" y2="-4319.7139" gradientTransform="matrix(1 0 0 1 0 4344)">
	<stop  offset="0" style="stop-color:#FFFFFF;stop-opacity:0"/>
	<stop  offset="2.168840e-02" style="stop-color:#F6FCFE;stop-opacity:2.168840e-02"/>
	<stop  offset="0.1827" style="stop-color:#B6E5FA;stop-opacity:0.1827"/>
	<stop  offset="0.3416" style="stop-color:#7ED2F6;stop-opacity:0.3416"/>
	<stop  offset="0.4944" style="stop-color:#51C2F3;stop-opacity:0.4944"/>
	<stop  offset="0.64" style="stop-color:#2EB6F0;stop-opacity:0.64"/>
	<stop  offset="0.7764" style="stop-color:#15ADEE;stop-opacity:0.7764"/>
	<stop  offset="0.9001" style="stop-color:#05A8ED;stop-opacity:0.9001"/>
	<stop  offset="1" style="stop-color:#00A6ED"/>
</linearGradient>
<path class="st3" d="M16.9,316.7c-46.8-98.2,68.3-291,141.9-292.4c85.7-1.6,33.5,137,205.3,140.2c105.1,2,204,115.9,194.6,161
	C540.6,411.7,88,465.8,16.9,316.7z"/>
<g>
	<g>
		<rect x="258.4" y="340.1" class="st0" width="106.9" height="49.9"/>
	</g>
	<rect x="258.4" y="340.1" class="st4" width="106.9" height="49.9"/>
	<g>
		<polygon class="st5" points="258.4,355.7 365.3,355.7 365.3,343.8 359.4,338.6 264.3,338.6 258.4,343.8 		"/>
	</g>
	<g>
		<rect x="243.3" y="383" class="st6" width="137.1" height="10"/>
	</g>
	<g>
		<path class="st6" d="M104,317.9v17.3c0,5.8,4.7,10.3,10.3,10.3h395.1c5.8,0,10.3-4.7,10.3-10.3v-17.3H104z"/>
	</g>
	<g>
		<path class="st4" d="M509.4,87.4H114.3c-5.8,0-10.3,4.7-10.3,10.3v220.5h415.7V97.7C519.7,91.9,515,87.4,509.4,87.4z"/>
	</g>
	<g>
		<polygon class="st4" points="119.6,180.9 119.6,102.6 504.1,102.6 504.1,150.7 		"/>
	</g>
	<g>
		<rect x="119.6" y="102.6" class="st4" width="384.7" height="9.8"/>
	</g>
	<g>
		<path class="st7" d="M129,107.5c0,1.4-1.2,2.6-2.6,2.6s-2.6-1.2-2.6-2.6s1.2-2.6,2.6-2.6S129,106.1,129,107.5z"/>
	</g>
	<g>
		<path class="st8" d="M138.3,107.5c0,1.4-1.2,2.6-2.6,2.6c-1.4,0-2.6-1.2-2.6-2.6s1.2-2.6,2.6-2.6
			C137.1,104.9,138.3,106.1,138.3,107.5z"/>
	</g>
	<g>
		<path class="st9" d="M147.8,107.5c0,1.4-1.2,2.6-2.6,2.6c-1.4,0-2.6-1.2-2.6-2.6s1.2-2.6,2.6-2.6
			C146.7,104.9,147.8,106.1,147.8,107.5z"/>
	</g>
	<rect x="120.3" y="122.4" class="st0" width="383.5" height="181.3"/>
	<rect x="120.3" y="122.4" class="st0" width="383.5" height="181.3"/>
	<rect x="206.7" y="198.4" class="st0" width="42.7" height="31.9"/>
	<g>
	</g>
	<g>
		<path class="st10" d="M267.7,234.2h-18.2c-2.7,0-4.9,2.1-4.9,4.9c0,2.7,2.1,4.9,4.9,4.9h18.2c2.7,0,4.9-2.1,4.9-4.9
			C272.6,236.4,270.4,234.2,267.7,234.2z"/>
		<path class="st4" d="M267.7,211.2h-18.2c-2.7,0-4.9,2.1-4.9,4.9c0,2.7,2.1,4.9,4.9,4.9h18.2c2.7,0,4.9-2.1,4.9-4.9
			C272.6,213.5,270.4,211.2,267.7,211.2z"/>
		<path class="st4" d="M302.6,188.3h-18.3c-2.7,0-4.9,2.1-4.9,4.9c0,2.7,2.1,4.9,4.9,4.9h18.2c2.7,0,4.9-2.1,4.9-4.9
			C307.3,190.4,305.3,188.3,302.6,188.3z"/>
		<path class="st4" d="M267.6,188.3h-18.3c-2.7,0-4.9,2.1-4.9,4.9c0,2.7,2.1,4.9,4.9,4.9h18.2c2.7,0,4.9-2.1,4.9-4.9
			C272.3,190.4,270.3,188.3,267.6,188.3z"/>
		<path class="st4" d="M302.6,234.2h-18.3c-2.7,0-4.9,2.1-4.9,4.9c0,2.7,2.1,4.9,4.9,4.9h18.2c2.7,0,4.9-2.1,4.9-4.9
			C307.5,236.4,305.3,234.2,302.6,234.2z"/>
		<path class="st4" d="M302.6,211.2h-18.3c-2.7,0-4.9,2.1-4.9,4.9c0,2.7,2.1,4.9,4.9,4.9h18.2c2.7,0,4.9-2.1,4.9-4.9
			C307.5,213.5,305.3,211.2,302.6,211.2z"/>
		<path class="st10" d="M337.5,188.3h-18.2c-2.7,0-4.9,2.1-4.9,4.9c0,2.7,2.1,4.9,4.9,4.9h18.2c2.7,0,4.9-2.1,4.9-4.9
			C342.4,190.4,340.2,188.3,337.5,188.3z"/>
		<path class="st4" d="M337.5,234.2h-18.2c-2.7,0-4.9,2.1-4.9,4.9c0,2.7,2.1,4.9,4.9,4.9h18.2c2.7,0,4.9-2.1,4.9-4.9
			C342.4,236.4,340.2,234.2,337.5,234.2z"/>
		<path class="st4" d="M337.5,211.2h-18.2c-2.7,0-4.9,2.1-4.9,4.9c0,2.7,2.1,4.9,4.9,4.9h18.2c2.7,0,4.9-2.1,4.9-4.9
			C342.4,213.5,340.2,211.2,337.5,211.2z"/>
		<path class="st4" d="M267.7,165.2h-18.2c-2.7,0-4.9,2.1-4.9,4.9c0,2.7,2.1,4.9,4.9,4.9h18.2c2.7,0,4.9-2.1,4.9-4.9
			C272.6,167.5,270.4,165.2,267.7,165.2z"/>
		<path class="st4" d="M302.6,142.3h-18.3c-2.7,0-4.9,2.1-4.9,4.9c0,2.7,2.1,4.9,4.9,4.9h18.2c2.7,0,4.9-2.1,4.9-4.9
			C307.3,144.4,305.3,142.3,302.6,142.3z"/>
		<path class="st4" d="M267.6,142.3h-18.3c-2.7,0-4.9,2.1-4.9,4.9c0,2.7,2.1,4.9,4.9,4.9h18.2c2.7,0,4.9-2.1,4.9-4.9
			C272.3,144.4,270.3,142.3,267.6,142.3z"/>
		<path class="st4" d="M302.6,165.2h-18.3c-2.7,0-4.9,2.1-4.9,4.9c0,2.7,2.1,4.9,4.9,4.9h18.2c2.7,0,4.9-2.1,4.9-4.9
			C307.5,167.5,305.3,165.2,302.6,165.2z"/>
		<path class="st10" d="M337.5,142.3h-18.2c-2.7,0-4.9,2.1-4.9,4.9c0,2.7,2.1,4.9,4.9,4.9h18.2c2.7,0,4.9-2.1,4.9-4.9
			C342.4,144.4,340.2,142.3,337.5,142.3z"/>
		<path class="st10" d="M337.5,165.2h-18.2c-2.7,0-4.9,2.1-4.9,4.9c0,2.7,2.1,4.9,4.9,4.9h18.2c2.7,0,4.9-2.1,4.9-4.9
			C342.4,167.5,340.2,165.2,337.5,165.2z"/>
		<path class="st10" d="M373.7,234.2h-18.2c-2.7,0-4.9,2.1-4.9,4.9c0,2.7,2.1,4.9,4.9,4.9h18.2c2.7,0,4.9-2.1,4.9-4.9
			C378.6,236.4,376.4,234.2,373.7,234.2z"/>
		<path class="st4" d="M373.7,211.2h-18.2c-2.7,0-4.9,2.1-4.9,4.9c0,2.7,2.1,4.9,4.9,4.9h18.2c2.7,0,4.9-2.1,4.9-4.9
			C378.6,213.5,376.4,211.2,373.7,211.2z"/>
		<path class="st10" d="M408.6,188.3h-18.3c-2.7,0-4.9,2.1-4.9,4.9c0,2.7,2.1,4.9,4.9,4.9h18.2c2.7,0,4.9-2.1,4.9-4.9
			C413.3,190.4,411.3,188.3,408.6,188.3z"/>
		<path class="st4" d="M373.6,188.3h-18.3c-2.7,0-4.9,2.1-4.9,4.9c0,2.7,2.1,4.9,4.9,4.9h18.2c2.7,0,4.9-2.1,4.9-4.9
			C378.3,190.4,376.3,188.3,373.6,188.3z"/>
		<path class="st4" d="M408.6,234.2h-18.3c-2.7,0-4.9,2.1-4.9,4.9c0,2.7,2.1,4.9,4.9,4.9h18.2c2.7,0,4.9-2.1,4.9-4.9
			C413.5,236.4,411.3,234.2,408.6,234.2z"/>
		<path class="st4" d="M408.6,211.2h-18.3c-2.7,0-4.9,2.1-4.9,4.9c0,2.7,2.1,4.9,4.9,4.9h18.2c2.7,0,4.9-2.1,4.9-4.9
			C413.5,213.5,411.3,211.2,408.6,211.2z"/>
		<path class="st4" d="M443.5,188.3h-18.2c-2.7,0-4.9,2.1-4.9,4.9c0,2.7,2.1,4.9,4.9,4.9h18.2c2.7,0,4.9-2.1,4.9-4.9
			C448.4,190.4,446.2,188.3,443.5,188.3z"/>
		<path class="st4" d="M443.5,234.2h-18.2c-2.7,0-4.9,2.1-4.9,4.9c0,2.7,2.1,4.9,4.9,4.9h18.2c2.7,0,4.9-2.1,4.9-4.9
			C448.4,236.4,446.2,234.2,443.5,234.2z"/>
		<path class="st4" d="M443.5,211.2h-18.2c-2.7,0-4.9,2.1-4.9,4.9c0,2.7,2.1,4.9,4.9,4.9h18.2c2.7,0,4.9-2.1,4.9-4.9
			C448.4,213.5,446.2,211.2,443.5,211.2z"/>
		<path class="st4" d="M373.7,165.2h-18.2c-2.7,0-4.9,2.1-4.9,4.9c0,2.7,2.1,4.9,4.9,4.9h18.2c2.7,0,4.9-2.1,4.9-4.9
			C378.6,167.5,376.4,165.2,373.7,165.2z"/>
		<path class="st4" d="M408.6,142.3h-18.3c-2.7,0-4.9,2.1-4.9,4.9c0,2.7,2.1,4.9,4.9,4.9h18.2c2.7,0,4.9-2.1,4.9-4.9
			C413.3,144.4,411.3,142.3,408.6,142.3z"/>
		<path class="st4" d="M373.6,142.3h-18.3c-2.7,0-4.9,2.1-4.9,4.9c0,2.7,2.1,4.9,4.9,4.9h18.2c2.7,0,4.9-2.1,4.9-4.9
			C378.3,144.4,376.3,142.3,373.6,142.3z"/>
		<path class="st10" d="M408.6,165.2h-18.3c-2.7,0-4.9,2.1-4.9,4.9c0,2.7,2.1,4.9,4.9,4.9h18.2c2.7,0,4.9-2.1,4.9-4.9
			C413.5,167.5,411.3,165.2,408.6,165.2z"/>
		<path class="st4" d="M443.5,142.3h-18.2c-2.7,0-4.9,2.1-4.9,4.9c0,2.7,2.1,4.9,4.9,4.9h18.2c2.7,0,4.9-2.1,4.9-4.9
			C448.4,144.4,446.2,142.3,443.5,142.3z"/>
		<path class="st4" d="M443.5,165.2h-18.2c-2.7,0-4.9,2.1-4.9,4.9c0,2.7,2.1,4.9,4.9,4.9h18.2c2.7,0,4.9-2.1,4.9-4.9
			C448.4,167.5,446.2,165.2,443.5,165.2z"/>
		<path class="st4" d="M478.5,188.3h-18.2c-2.7,0-4.9,2.1-4.9,4.9c0,2.7,2.1,4.9,4.9,4.9h18.2c2.7,0,4.9-2.1,4.9-4.9
			C483.4,190.4,481.2,188.3,478.5,188.3z"/>
		<path class="st4" d="M478.5,234.2h-18.2c-2.7,0-4.9,2.1-4.9,4.9c0,2.7,2.1,4.9,4.9,4.9h18.2c2.7,0,4.9-2.1,4.9-4.9
			C483.4,236.4,481.2,234.2,478.5,234.2z"/>
		<path class="st4" d="M478.5,211.2h-18.2c-2.7,0-4.9,2.1-4.9,4.9c0,2.7,2.1,4.9,4.9,4.9h18.2c2.7,0,4.9-2.1,4.9-4.9
			C483.4,213.5,481.2,211.2,478.5,211.2z"/>
		<path class="st4" d="M478.5,142.3h-18.2c-2.7,0-4.9,2.1-4.9,4.9c0,2.7,2.1,4.9,4.9,4.9h18.2c2.7,0,4.9-2.1,4.9-4.9
			C483.4,144.4,481.2,142.3,478.5,142.3z"/>
		<path class="st4" d="M478.5,165.2h-18.2c-2.7,0-4.9,2.1-4.9,4.9c0,2.7,2.1,4.9,4.9,4.9h18.2c2.7,0,4.9-2.1,4.9-4.9
			C483.4,167.5,481.2,165.2,478.5,165.2z"/>
		<g transform="translate(-30 -320)">
			<polygon class="st2" points="320.2,587.1 284.4,555.8 284.4,603.3 297.5,593.9 306.8,614.6 313.9,611.5 304.6,590.7 			"/>
		</g>
	</g>
	<g>
		<circle class="st4" cx="173.6" cy="174.4" r="32"/>
		<g>
			<defs>
				<circle id="SVGID_2_" cx="173.6" cy="174.4" r="32"/>
			</defs>
			<clipPath id="SVGID_3_">
				<use xlink:href="#SVGID_2_"  style="overflow:visible;"/>
			</clipPath>
			<g class="st11">
				<g>
					<g>
						<path class="st12" d="M195.6,263.9c-0.4-2.6-6.7-14.4-10.7-23l7-3l7,25.3c0,0,3,2.8,4.6,3.1c1.6,0.4,0.8,1.6-0.5,1.5
							c-1.3-0.2-3.1-0.9-3.1-0.9l2.2,8.3C202.3,274.9,197.8,277.8,195.6,263.9z"/>
						<polygon class="st13" points="192.6,239 185.7,242.1 182.2,234.5 190.7,231 						"/>
					</g>
					<g>
						<polygon class="st0" points="186,402.4 185.2,405.9 185.2,407.4 181.4,409.4 177.8,405.1 178.3,401.8 						"/>
						<path class="st0" d="M149.3,400.9c0,0-1.8,5.1-2.1,5.2c-0.3,0.2-3.3,1.6-3.3,1.6L140,404l0.6-3.2L149.3,400.9z"/>
						<path class="st10" d="M171.1,246.4l7.7,36.2c0,0-0.4,32-3.7,48.1c-2.6,12.7-14.2,45.6-23.2,70.6c-1,2.7-12.1,2.1-11.6-0.7
							c5.8-33.6,9.9-54.8,8.4-70.3c-2.9-28.9-7.1-39.8-8.9-79.3L171.1,246.4z"/>
						<path class="st10" d="M153.9,249.4l9.7,33.3c0,0,9.3,17.6,13.3,30c4.7,14.5,2.3,52.8,0.9,88.9c-0.1,2.5,9.5,3.1,9.9,0.6
							c6.3-39.2,13.4-58,12.2-80.3c-0.7-15.6-1.6-43.9-15.6-81L153.9,249.4z"/>
						<path class="st0" d="M163.4,191.2l-1.5-7.5c0,0,6.5,4.8,11.3,4.6c4.7-0.1,4.7-2.9,4.8-5.7c0-2.8,5.9,3.9,5.8,4
							c-0.1,0.1,2.6,23.1,2.6,23.1l-2.7,46.7c0,0-3.7,6-21.3,4.9L163.4,191.2z"/>
						<path class="st14" d="M178.4,179.1l3.7-0.5c0,0,2.1,2.1,4.2,6c2.1,4,6.1,19.6,4.9,30.2c-4.3,40,11,61.7,10.6,68.7
							c-0.4,5.8-8.9,9.1-8.9,9.1s-11-33.6-11.6-39.9c-0.9-11.9-0.7-29-0.4-35.9s-1.1-27.8-3-31.7L178.4,179.1z"/>
						<path class="st14" d="M163,189l-2.5-9.4c0,0-2.6,1.5-13.4,9.4c-12,8.8-24.5,63.9-17.4,94.3c2,8.8,34.5,16.5,34.5,16.5
							c-2.7-11.5,4-109.9,4-109.9L163,189z"/>
						<path class="st15" d="M175.7,176.8c3.3,1.5,7.1,9.6,7.1,9.6c-2-0.3-4.2,0.8-4.2,0.8s-0.6-1.6-3.9-7
							C174.7,180.2,172.3,175.3,175.7,176.8z"/>
						<path class="st16" d="M161.8,184.7l3.2,1.5c2.2,1,4.6,1.6,7,1.5l0,0c2.9-0.1,3.8-0.9,4.2-4c0.1-0.5,0.1-4.3,0.3-4.8
							c0.7-3.4,5.6-0.3,7.2-3.9c1.7-3.6-2-23.1-15-19.1c-13.1,4,4.7,18.9-6.7,22.3L161.8,184.7z"/>
						<path class="st15" d="M161.9,178.1c0,0,0.1,1.8,1.6,4.6c2.4,4.4,4.8,7.2,4.8,7.2c-0.8-0.2-4.6,1.2-4.6,1.2
							c-4-5-4.4-6.8-5.2-11.3L161.9,178.1z"/>
						<path class="st1" d="M177.7,154.8c-2.9-1-7.4-2.5-13.3,0.8c-5.8,3.3-5.7,9.8-4.3,13.5c1.3,3.7,3.5,5.5,6.7,6.8
							c3.1,1.3,4-3,4-3s-3.3-1.1-3-3.1c0.3-2,1.9-0.9,3-1.3s-0.6-6.4,0.9-7.8c1.6-1.3,3.9,0.3,4.2-0.8c0.4-1,2.6-0.6,4.3,0.3
							C180.2,160.1,180.4,155.8,177.7,154.8z"/>
						<path class="st17" d="M205.2,416.6c0-0.2,0.1-0.8,0.1-0.9c-0.5-2-20-9.8-20-9.8c-0.3,1.1-5.8,0.5-7.5-0.9c0,0-0.5,2.2-0.6,3.2
							c-0.6,3.3,2.9,4,6.9,5.1S204.6,418.4,205.2,416.6z"/>
						<path class="st17" d="M157.2,415.6c0-0.2,0.1-0.8,0.1-0.9c-0.4-2-10-8.7-10-8.7c-0.3,0.2-6.1-0.2-7-2.6c0,0-0.6,3-0.7,4
							c-0.6,3.3,6.4,7.2,7.9,7.8C151.2,417,156.5,417.6,157.2,415.6z"/>
					</g>
					<g>
						<path class="st18" d="M149,259.3l-7.2,2.6c-1.3-4-6.3-15.6-6.2-17.1c0.2-7.5,1.6-35.6,7.1-45.5c7.9-14.1,22.4-1.6,20.4,4.4
							c-4,12.2-15.5,46.9-15.5,46.9L149,259.3z"/>
						<path class="st12" d="M150.7,285.5c-0.3-2.6-5.7-14.9-9-23.6l7.2-2.6L154,285c0,0,2.8,2.9,4.4,3.4c1.7,0.5,0.7,1.7-0.6,1.5
							c-1.2-0.3-3-1.2-3-1.2l1.7,8.4C156.4,297,151.8,299.5,150.7,285.5z"/>
						<polygon class="st13" points="149.3,260.5 142.2,263.1 139.2,255.3 148,252.3 						"/>
					</g>
				</g>
			</g>
		</g>
	</g>
	<path class="st10" d="M201.3,249.7H146c-3.3,0-6-2.7-6-6v0c0-3.3,2.7-6,6-6h55.4c3.3,0,6,2.7,6,6v0
		C207.3,247,204.6,249.7,201.3,249.7z"/>
	<path class="st4" d="M201.3,231.7H146c-3.3,0-6-2.7-6-6v0c0-3.3,2.7-6,6-6h55.4c3.3,0,6,2.7,6,6v0
		C207.3,229,204.6,231.7,201.3,231.7z"/>
	<path class="st4" d="M201.3,267.7H146c-3.3,0-6-2.7-6-6v0c0-3.3,2.7-6,6-6h55.4c3.3,0,6,2.7,6,6v0
		C207.3,265,204.6,267.7,201.3,267.7z"/>
	<path class="st4" d="M201.3,285.7H146c-3.3,0-6-2.7-6-6v0c0-3.3,2.7-6,6-6h55.4c3.3,0,6,2.7,6,6v0
		C207.3,283,204.6,285.7,201.3,285.7z"/>
</g>
</svg>
