<?xml version="1.0" encoding="utf-8"?>
<!-- Generator: Adobe Illustrator 22.1.0, SVG Export Plug-In . SVG Version: 6.00 Build 0)  -->
<svg version="1.1" id="Layer_1" xmlns="http://www.w3.org/2000/svg" xmlns:xlink="http://www.w3.org/1999/xlink" x="0px" y="0px"
	 viewBox="0 0 580 420" style="enable-background:new 0 0 580 420;" xml:space="preserve">
<style type="text/css">
	.st0{fill:#FFFFFF;}
	.st1{fill:#F6511D;}
	.st2{fill:#161303;}
	.st3{opacity:0.3;fill:url(#SVGID_1_);enable-background:new    ;}
	.st4{fill:#F0EDF3;}
	.st5{fill:#CDCCCE;}
	.st6{fill:#E7E6E8;}
	.st7{fill:#D25D60;}
	.st8{fill:#E5A866;}
	.st9{fill:#9FC768;}
	.st10{clip-path:url(#SVGID_3_);}
	.st11{fill:#FBD2C4;}
	.st12{fill:#FFBA0A;}
	.st13{fill:#5BB702;}
	.st14{fill:#2708A0;}
	.st15{fill:#FFB400;}
	.st16{fill:#F1D2C4;}
	.st17{fill:#100B00;}
	.st18{fill:#2C15B7;}
</style>
<g>
	<polygon class="st0" points="1192.7,268.7 1193.3,272.8 1188.8,278.2 1184,275.8 1184,273.8 1183.1,269.4 	"/>
	<path class="st0" d="M1239.6,267.3l0.8,4l-4.8,4.6c0,0-3.7-1.7-4.1-1.9c-0.3-0.1-2.6-6.4-2.6-6.4L1239.6,267.3z"/>
	<path class="st1" d="M1240.9,80c-2.3,49.5-7.6,63.1-11.2,99.2c-1.9,19.4,3.2,45.9,10.5,87.9c0.6,3.6-13.2,4.3-14.5,0.9
		c-11.3-31.4-25.8-72.4-29-88.3c-4.1-20.2-4.6-60.2-4.6-60.2l9.7-45.2L1240.9,80z"/>
	<path class="st1" d="M1185.2,67.6c-17.6,46.3-18.6,81.7-19.5,101.2c-1.4,27.9,7.4,51.4,15.3,100.4c0.5,3.1,12.5,2.3,12.4-0.8
		c-1.7-45.1-4.7-93,1.2-111.2c5-15.5,16.6-37.5,16.6-37.5l12.1-41.6L1185.2,67.6z"/>
	<path class="st2" d="M1185.4,282.9c5-1.3,9.4-2.2,8.6-6.3c-0.2-1.2-0.8-4-0.8-4c-2,1.7-8.9,2.5-9.3,1.1c0,0-24.4,9.7-25,12.2
		c0,0.1,0.1,0.9,0.1,1.1C1159.8,289.4,1180.4,284.2,1185.4,282.9z"/>
	<path class="st2" d="M1231.4,285.6c1.8-0.7,10.6-5.7,9.9-9.8c-0.2-1.2-0.9-5-0.9-5c-1.2,3-8.4,3.3-8.7,3.2c0,0-12,8.3-12.5,10.9
		c0,0.1,0.1,0.9,0.1,1.1C1219.9,288.4,1226.6,287.7,1231.4,285.6z"/>
</g>
<g>
	
		<linearGradient id="SVGID_1_" gradientUnits="userSpaceOnUse" x1="294.65" y1="-3935.863" x2="294.65" y2="-4321.7139" gradientTransform="matrix(1 0 0 1 0 4344)">
		<stop  offset="0" style="stop-color:#FFFFFF;stop-opacity:0"/>
		<stop  offset="2.168840e-02" style="stop-color:#F6FCFE;stop-opacity:2.168840e-02"/>
		<stop  offset="0.1827" style="stop-color:#B6E5FA;stop-opacity:0.1827"/>
		<stop  offset="0.3416" style="stop-color:#7ED2F6;stop-opacity:0.3416"/>
		<stop  offset="0.4944" style="stop-color:#51C2F3;stop-opacity:0.4944"/>
		<stop  offset="0.64" style="stop-color:#2EB6F0;stop-opacity:0.64"/>
		<stop  offset="0.7764" style="stop-color:#15ADEE;stop-opacity:0.7764"/>
		<stop  offset="0.9001" style="stop-color:#05A8ED;stop-opacity:0.9001"/>
		<stop  offset="1" style="stop-color:#00A6ED"/>
	</linearGradient>
	<path class="st3" d="M28.9,314.7c-46.8-98.2,68.3-291,141.9-292.4c85.7-1.6,33.5,137,205.3,140.2c105.1,2,204,115.9,194.6,161
		C552.6,409.7,100,463.8,28.9,314.7z"/>
	<g>
		<g>
			<rect x="270.4" y="338.1" class="st0" width="106.9" height="49.9"/>
		</g>
		<rect x="270.4" y="338.1" class="st4" width="106.9" height="49.9"/>
		<g>
			<polygon class="st5" points="270.4,353.7 377.3,353.7 377.3,341.8 371.4,336.6 276.3,336.6 270.4,341.8 			"/>
		</g>
		<g>
			<rect x="255.3" y="381" class="st6" width="137.1" height="10"/>
		</g>
		<g>
			<path class="st6" d="M116,315.9v17.3c0,5.8,4.7,10.3,10.3,10.3h395.1c5.8,0,10.3-4.7,10.3-10.3v-17.3H116z"/>
		</g>
		<g>
			<path class="st4" d="M521.4,85.4H126.3c-5.8,0-10.3,4.7-10.3,10.3v220.5h415.7V95.7C531.7,89.9,527,85.4,521.4,85.4z"/>
		</g>
		<g>
			<polygon class="st4" points="131.6,178.9 131.6,100.6 516.1,100.6 516.1,148.7 			"/>
		</g>
		<g>
			<rect x="131.6" y="100.6" class="st4" width="384.7" height="9.8"/>
		</g>
		<g>
			<path class="st7" d="M141,105.5c0,1.4-1.2,2.6-2.6,2.6c-1.4,0-2.6-1.2-2.6-2.6s1.2-2.6,2.6-2.6C139.8,102.9,141,104.1,141,105.5z
				"/>
		</g>
		<g>
			<path class="st8" d="M150.3,105.5c0,1.4-1.2,2.6-2.6,2.6c-1.4,0-2.6-1.2-2.6-2.6s1.2-2.6,2.6-2.6
				C149.1,102.9,150.3,104.1,150.3,105.5z"/>
		</g>
		<g>
			<path class="st9" d="M159.8,105.5c0,1.4-1.2,2.6-2.6,2.6c-1.4,0-2.6-1.2-2.6-2.6s1.2-2.6,2.6-2.6
				C158.7,102.9,159.8,104.1,159.8,105.5z"/>
		</g>
		<rect x="132.3" y="120.4" class="st0" width="383.5" height="181.3"/>
		<rect x="132.3" y="120.4" class="st0" width="383.5" height="181.3"/>
		<rect x="218.7" y="196.4" class="st0" width="42.7" height="31.9"/>
		<g>
		</g>
		<g>
			<circle class="st4" cx="185.6" cy="172.4" r="32"/>
			<g>
				<defs>
					<circle id="SVGID_2_" cx="185.6" cy="172.4" r="32"/>
				</defs>
				<clipPath id="SVGID_3_">
					<use xlink:href="#SVGID_2_"  style="overflow:visible;"/>
				</clipPath>
				<g class="st10">
					<g>
						<g>
							<path class="st11" d="M207.6,261.9c-0.4-2.6-6.7-14.4-10.7-23l7-3l7,25.3c0,0,3,2.8,4.6,3.1c1.6,0.4,0.8,1.6-0.5,1.5
								c-1.3-0.2-3.1-0.9-3.1-0.9l2.2,8.3C214.3,272.9,209.8,275.8,207.6,261.9z"/>
							<polygon class="st12" points="204.6,237 197.7,240.1 194.2,232.5 202.7,229 							"/>
						</g>
						<g>
							<polygon class="st0" points="198,400.4 197.2,403.9 197.2,405.4 193.4,407.4 189.8,403.1 190.3,399.8 							"/>
							<path class="st0" d="M161.3,398.9c0,0-1.8,5.1-2.1,5.2c-0.3,0.2-3.3,1.6-3.3,1.6L152,402l0.6-3.2L161.3,398.9z"/>
							<path class="st13" d="M183.1,244.4l7.7,36.2c0,0-0.4,32-3.7,48.1c-2.6,12.7-14.2,45.6-23.2,70.6c-1,2.7-12.1,2.1-11.6-0.7
								c5.8-33.6,9.9-54.8,8.4-70.3c-2.9-28.9-7.1-39.8-8.9-79.3L183.1,244.4z"/>
							<path class="st13" d="M165.9,247.4l9.7,33.3c0,0,9.3,17.6,13.3,30c4.7,14.5,2.3,52.8,0.9,88.9c-0.1,2.5,9.5,3.1,9.9,0.6
								c6.3-39.2,13.4-58,12.2-80.3c-0.7-15.6-1.6-43.9-15.6-81L165.9,247.4z"/>
							<path class="st0" d="M175.4,189.2l-1.5-7.5c0,0,6.5,4.8,11.3,4.6c4.7-0.1,4.7-2.9,4.8-5.7c0-2.8,5.9,3.9,5.8,4
								c-0.1,0.1,2.6,23.1,2.6,23.1l-2.7,46.7c0,0-3.7,6-21.3,4.9L175.4,189.2z"/>
							<path class="st14" d="M190.4,177.1l3.7-0.5c0,0,2.1,2.1,4.2,6c2.1,4,6.1,19.6,4.9,30.2c-4.3,40,11,61.7,10.6,68.7
								c-0.4,5.8-8.9,9.1-8.9,9.1s-11-33.6-11.6-39.9c-0.9-11.9-0.7-29-0.4-35.9s-1.1-27.8-3-31.7L190.4,177.1z"/>
							<path class="st14" d="M175,187l-2.5-9.4c0,0-2.6,1.5-13.4,9.4c-12,8.8-24.5,63.9-17.4,94.3c2,8.8,34.5,16.5,34.5,16.5
								c-2.7-11.5,4-109.9,4-109.9L175,187z"/>
							<path class="st15" d="M187.7,174.8c3.3,1.5,7.1,9.6,7.1,9.6c-2-0.3-4.2,0.8-4.2,0.8s-0.6-1.6-3.9-7
								C186.7,178.2,184.3,173.3,187.7,174.8z"/>
							<path class="st16" d="M173.8,182.7l3.2,1.5c2.2,1,4.6,1.6,7,1.5l0,0c2.9-0.1,3.8-0.9,4.2-4c0.1-0.5,0.1-4.3,0.3-4.8
								c0.7-3.4,5.6-0.3,7.2-3.9c1.7-3.6-2-23.1-15-19.1c-13.1,4,4.7,18.9-6.7,22.3L173.8,182.7z"/>
							<path class="st15" d="M173.9,176.1c0,0,0.1,1.8,1.6,4.6c2.4,4.4,4.8,7.2,4.8,7.2c-0.8-0.2-4.6,1.2-4.6,1.2
								c-4-5-4.4-6.8-5.2-11.3L173.9,176.1z"/>
							<path class="st1" d="M189.7,152.8c-2.9-1-7.4-2.5-13.3,0.8c-5.8,3.3-5.7,9.8-4.3,13.5c1.3,3.7,3.5,5.5,6.7,6.8
								c3.1,1.3,4-3,4-3s-3.3-1.1-3-3.1c0.3-2,1.9-0.9,3-1.3s-0.6-6.4,0.9-7.8c1.6-1.3,3.9,0.3,4.2-0.8c0.4-1,2.6-0.6,4.3,0.3
								C192.2,158.1,192.4,153.8,189.7,152.8z"/>
							<path class="st17" d="M217.2,414.6c0-0.2,0.1-0.8,0.1-0.9c-0.5-2-20-9.8-20-9.8c-0.3,1.1-5.8,0.5-7.5-0.9
								c0,0-0.5,2.2-0.6,3.2c-0.6,3.3,2.9,4,6.9,5.1S216.6,416.4,217.2,414.6z"/>
							<path class="st17" d="M169.2,413.6c0-0.2,0.1-0.8,0.1-0.9c-0.4-2-10-8.7-10-8.7c-0.3,0.2-6.1-0.2-7-2.6c0,0-0.6,3-0.7,4
								c-0.6,3.3,6.4,7.2,7.9,7.8C163.2,415,168.5,415.6,169.2,413.6z"/>
						</g>
						<g>
							<path class="st18" d="M161,257.3l-7.2,2.6c-1.3-4-6.3-15.6-6.2-17.1c0.2-7.5,1.6-35.6,7.1-45.5c7.9-14.1,22.4-1.6,20.4,4.4
								c-4,12.2-15.5,46.9-15.5,46.9L161,257.3z"/>
							<path class="st11" d="M162.7,283.5c-0.3-2.6-5.7-14.9-9-23.6l7.2-2.6L166,283c0,0,2.8,2.9,4.4,3.4c1.7,0.5,0.7,1.7-0.6,1.5
								c-1.2-0.3-3-1.2-3-1.2l1.7,8.4C168.4,295,163.8,297.5,162.7,283.5z"/>
							<polygon class="st12" points="161.3,258.5 154.2,261.1 151.2,253.3 160,250.3 							"/>
						</g>
					</g>
				</g>
			</g>
		</g>
		<path class="st4" d="M213.3,247.7H158c-3.3,0-6-2.7-6-6v0c0-3.3,2.7-6,6-6h55.4c3.3,0,6,2.7,6,6v0
			C219.3,245,216.6,247.7,213.3,247.7z"/>
		<path class="st4" d="M213.3,229.7H158c-3.3,0-6-2.7-6-6v0c0-3.3,2.7-6,6-6h55.4c3.3,0,6,2.7,6,6v0
			C219.3,227,216.6,229.7,213.3,229.7z"/>
		<path class="st13" d="M213.3,265.7H158c-3.3,0-6-2.7-6-6v0c0-3.3,2.7-6,6-6h55.4c3.3,0,6,2.7,6,6v0
			C219.3,263,216.6,265.7,213.3,265.7z"/>
		<path class="st4" d="M213.3,283.7H158c-3.3,0-6-2.7-6-6v0c0-3.3,2.7-6,6-6h55.4c3.3,0,6,2.7,6,6v0
			C219.3,281,216.6,283.7,213.3,283.7z"/>
		<g>
			<g>
				<g>
					<path class="st4" d="M449.4,153.7l-186.3-0.6c-3.3,0-5.9-2.7-5.9-5.9l0,0c0-3.3,2.7-5.9,5.9-5.9l186.3,0.6
						c3.3,0,5.9,2.7,5.9,5.9l0,0C455.3,151,452.7,153.7,449.4,153.7z"/>
					<path class="st4" d="M389.7,183l-126.6-0.3c-3.3,0-5.9-2.7-5.9-5.9l0,0c0-3.3,2.7-5.9,5.9-5.9l126.6,0.3c3.3,0,5.9,2.7,5.9,5.9
						l0,0C395.6,180.3,392.9,183,389.7,183z"/>
					<path class="st4" d="M301.3,212.3h-38.4c-3.3,0-5.9-2.7-5.9-5.9l0,0c0-3.3,2.7-5.9,5.9-5.9h38.4c3.3,0,5.9,2.7,5.9,5.9l0,0
						C307.2,209.6,304.5,212.3,301.3,212.3z"/>
					<path class="st4" d="M406.2,242.1l-143.4-0.3c-3.3,0-5.9-2.7-5.9-5.9l0,0c0-3.3,2.7-5.9,5.9-5.9l143.4,0.3
						c3.3,0,5.9,2.7,5.9,5.9l0,0C412.1,239.5,409.5,242.1,406.2,242.1z"/>
				</g>
			</g>
		</g>
	</g>
</g>
</svg>
