<?xml version="1.0" encoding="utf-8"?>
<!-- Generator: Adobe Illustrator 22.1.0, SVG Export Plug-In . SVG Version: 6.00 Build 0)  -->
<svg version="1.1" id="Layer_1" xmlns="http://www.w3.org/2000/svg" xmlns:xlink="http://www.w3.org/1999/xlink" x="0px" y="0px"
	 viewBox="0 0 580 420" style="enable-background:new 0 0 580 420;" xml:space="preserve">
<style type="text/css">
	.st0{fill:#FFFFFF;}
	.st1{fill:#F6511D;}
	.st2{fill:#161303;}
	.st3{opacity:0.3;fill:url(#SVGID_1_);enable-background:new    ;}
	.st4{fill:#F0EDF3;}
	.st5{fill:#CDCCCE;}
	.st6{fill:#E7E6E8;}
	.st7{fill:#D25D60;}
	.st8{fill:#E5A866;}
	.st9{fill:#9FC768;}
	.st10{clip-path:url(#SVGID_3_);}
	.st11{fill:#FBD2C4;}
	.st12{fill:#FFBA0A;}
	.st13{fill:#5BB702;}
	.st14{fill:#2708A0;}
	.st15{fill:#FFB400;}
	.st16{fill:#F1D2C4;}
	.st17{fill:#100B00;}
	.st18{fill:#2C15B7;}
	.st19{clip-path:url(#SVGID_5_);}
	.st20{fill:#00A6ED;}
	.st21{clip-path:url(#SVGID_7_);}
	.st22{fill:#FDD4C6;}
	.st23{fill:#6FC911;}
	.st24{fill:#FFAF94;}
	.st25{clip-path:url(#SVGID_9_);}
	.st26{fill:#FF4F2C;}
	.st27{fill:#F94110;}
	.st28{clip-path:url(#SVGID_11_);}
	.st29{fill:#F3EFF5;}
	.st30{fill:#FFC950;}
	.st31{fill:#FF4949;}
	.st32{fill:#FF2C2C;}
	.st33{fill:#5BB702;stroke:#5BB702;stroke-miterlimit:10;}
	.st34{fill:#5BB702;stroke:#5BB702;stroke-width:2;stroke-miterlimit:10;}
	.st35{clip-path:url(#SVGID_13_);}
	.st36{clip-path:url(#SVGID_15_);}
</style>
<g>
	<polygon class="st0" points="1192.7,268.7 1193.3,272.8 1188.8,278.2 1184,275.8 1184,273.8 1183.1,269.4 	"/>
	<path class="st0" d="M1239.6,267.3l0.8,4l-4.8,4.6c0,0-3.7-1.7-4.1-1.9c-0.3-0.1-2.6-6.4-2.6-6.4L1239.6,267.3z"/>
	<path class="st1" d="M1240.9,80c-2.3,49.5-7.6,63.1-11.2,99.2c-1.9,19.4,3.2,45.9,10.5,87.9c0.6,3.6-13.2,4.3-14.5,0.9
		c-11.3-31.4-25.8-72.4-29-88.3c-4.1-20.2-4.6-60.2-4.6-60.2l9.7-45.2L1240.9,80z"/>
	<path class="st1" d="M1185.2,67.6c-17.6,46.3-18.6,81.7-19.5,101.2c-1.4,27.9,7.4,51.4,15.3,100.4c0.5,3.1,12.5,2.3,12.4-0.8
		c-1.7-45.1-4.7-93,1.2-111.2c5-15.5,16.6-37.5,16.6-37.5l12.1-41.6L1185.2,67.6z"/>
	<path class="st2" d="M1185.4,282.9c5-1.3,9.4-2.2,8.6-6.3c-0.2-1.2-0.8-4-0.8-4c-2,1.7-8.9,2.5-9.3,1.1c0,0-24.4,9.7-25,12.2
		c0,0.1,0.1,0.9,0.1,1.1C1159.8,289.4,1180.4,284.2,1185.4,282.9z"/>
	<path class="st2" d="M1231.4,285.6c1.8-0.7,10.6-5.7,9.9-9.8c-0.2-1.2-0.9-5-0.9-5c-1.2,3-8.4,3.3-8.7,3.2c0,0-12,8.3-12.5,10.9
		c0,0.1,0.1,0.9,0.1,1.1C1219.9,288.4,1226.6,287.7,1231.4,285.6z"/>
</g>
<g>
	
		<linearGradient id="SVGID_1_" gradientUnits="userSpaceOnUse" x1="-3192.4421" y1="-3936.4626" x2="-3192.4421" y2="-4322.3135" gradientTransform="matrix(-1 0 0 1 -2902.8845 4344)">
		<stop  offset="0" style="stop-color:#FFFFFF;stop-opacity:0"/>
		<stop  offset="2.168840e-02" style="stop-color:#F6FCFE;stop-opacity:2.168840e-02"/>
		<stop  offset="0.1827" style="stop-color:#B6E5FA;stop-opacity:0.1827"/>
		<stop  offset="0.3416" style="stop-color:#7ED2F6;stop-opacity:0.3416"/>
		<stop  offset="0.4944" style="stop-color:#51C2F3;stop-opacity:0.4944"/>
		<stop  offset="0.64" style="stop-color:#2EB6F0;stop-opacity:0.64"/>
		<stop  offset="0.7764" style="stop-color:#15ADEE;stop-opacity:0.7764"/>
		<stop  offset="0.9001" style="stop-color:#05A8ED;stop-opacity:0.9001"/>
		<stop  offset="1" style="stop-color:#00A6ED"/>
	</linearGradient>
	<path class="st3" d="M13.5,322.9c-9.4-45.1,89.5-159,194.6-161c171.8-3.2,119.6-141.8,205.3-140.2
		c73.6,1.4,188.7,194.2,141.9,292.4C484.2,463.2,31.6,409.1,13.5,322.9z"/>
	<g>
		<g>
			<rect x="265.3" y="337.5" class="st0" width="106.9" height="49.9"/>
		</g>
		<rect x="265.3" y="337.5" class="st4" width="106.9" height="49.9"/>
		<g>
			<polygon class="st5" points="265.3,353.1 372.2,353.1 372.2,341.2 366.3,336 271.2,336 265.3,341.2 			"/>
		</g>
		<g>
			<rect x="250.2" y="380.4" class="st6" width="137.1" height="10"/>
		</g>
		<g>
			<path class="st6" d="M110.9,315.3v17.3c0,5.8,4.7,10.3,10.3,10.3h395.1c5.8,0,10.3-4.7,10.3-10.3v-17.3H110.9z"/>
		</g>
		<g>
			<path class="st4" d="M516.3,84.8H121.2c-5.8,0-10.3,4.7-10.3,10.3v220.5h415.7V95.1C526.6,89.3,521.9,84.8,516.3,84.8z"/>
		</g>
		<g>
			<polygon class="st4" points="126.5,178.3 126.5,100 511,100 511,148.1 			"/>
		</g>
		<g>
			<rect x="126.5" y="100" class="st4" width="384.7" height="9.8"/>
		</g>
		<g>
			<path class="st7" d="M135.9,104.9c0,1.4-1.2,2.6-2.6,2.6c-1.4,0-2.6-1.2-2.6-2.6s1.2-2.6,2.6-2.6
				C134.7,102.3,135.9,103.5,135.9,104.9z"/>
		</g>
		<g>
			<path class="st8" d="M145.2,104.9c0,1.4-1.2,2.6-2.6,2.6c-1.4,0-2.6-1.2-2.6-2.6s1.2-2.6,2.6-2.6
				C144,102.3,145.2,103.5,145.2,104.9z"/>
		</g>
		<g>
			<path class="st9" d="M154.7,104.9c0,1.4-1.2,2.6-2.6,2.6c-1.4,0-2.6-1.2-2.6-2.6s1.2-2.6,2.6-2.6
				C153.6,102.3,154.7,103.5,154.7,104.9z"/>
		</g>
		<rect x="127.2" y="119.8" class="st0" width="383.5" height="181.3"/>
		<rect x="127.2" y="119.8" class="st0" width="383.5" height="181.3"/>
		<rect x="213.7" y="195.8" class="st0" width="42.7" height="31.9"/>
		<g>
		</g>
		<g>
			<circle class="st4" cx="180.6" cy="171.8" r="32"/>
			<g>
				<defs>
					<circle id="SVGID_2_" cx="180.6" cy="171.8" r="32"/>
				</defs>
				<clipPath id="SVGID_3_">
					<use xlink:href="#SVGID_2_"  style="overflow:visible;"/>
				</clipPath>
				<g class="st10">
					<g>
						<g>
							<path class="st11" d="M202.5,261.3c-0.4-2.6-6.7-14.4-10.7-23l7-3l7,25.3c0,0,3,2.8,4.6,3.1c1.6,0.4,0.8,1.6-0.5,1.5
								c-1.3-0.2-3.1-0.9-3.1-0.9l2.2,8.3C209.2,272.3,204.7,275.2,202.5,261.3z"/>
							<polygon class="st12" points="199.5,236.4 192.6,239.5 189.1,231.9 197.6,228.4 							"/>
						</g>
						<g>
							<polygon class="st0" points="192.9,399.8 192.1,403.3 192.1,404.9 188.3,406.8 184.7,402.5 185.2,399.2 							"/>
							<path class="st0" d="M156.2,398.3c0,0-1.8,5.1-2.1,5.2c-0.3,0.2-3.3,1.6-3.3,1.6l-3.9-3.7l0.6-3.2L156.2,398.3z"/>
							<path class="st13" d="M178,243.8l7.7,36.2c0,0-0.4,32-3.7,48.1c-2.6,12.7-14.2,45.6-23.2,70.6c-1,2.7-12.1,2.1-11.6-0.7
								c5.8-33.6,9.9-54.8,8.4-70.3c-2.9-28.9-7.1-39.8-8.9-79.3L178,243.8z"/>
							<path class="st13" d="M160.8,246.8l9.7,33.3c0,0,9.3,17.6,13.3,30c4.7,14.5,2.3,52.8,0.9,88.9c-0.1,2.5,9.5,3.1,9.9,0.6
								c6.3-39.2,13.4-58,12.2-80.3c-0.7-15.6-1.6-43.9-15.6-81L160.8,246.8z"/>
							<path class="st0" d="M170.3,188.6l-1.5-7.5c0,0,6.5,4.8,11.3,4.6c4.7-0.1,4.7-2.9,4.8-5.7c0-2.8,5.9,3.9,5.8,4
								c-0.1,0.1,2.6,23.1,2.6,23.1l-2.7,46.7c0,0-3.7,6-21.3,4.9L170.3,188.6z"/>
							<path class="st14" d="M185.3,176.5l3.7-0.5c0,0,2.1,2.1,4.2,6c2.1,4,6.1,19.6,4.9,30.2c-4.3,40,11,61.7,10.6,68.7
								c-0.4,5.8-8.9,9.1-8.9,9.1s-11-33.6-11.6-39.9c-0.9-11.9-0.7-29-0.4-35.9s-1.1-27.8-3-31.7L185.3,176.5z"/>
							<path class="st14" d="M169.9,186.4l-2.5-9.4c0,0-2.6,1.5-13.4,9.4c-12,8.8-24.5,63.9-17.4,94.3c2,8.8,34.5,16.5,34.5,16.5
								c-2.7-11.5,4-109.9,4-109.9L169.9,186.4z"/>
							<path class="st15" d="M182.6,174.2c3.3,1.5,7.1,9.6,7.1,9.6c-2-0.3-4.2,0.8-4.2,0.8s-0.6-1.6-3.9-7
								C181.6,177.6,179.2,172.7,182.6,174.2z"/>
							<path class="st16" d="M168.7,182.1l3.2,1.5c2.2,1,4.6,1.6,7,1.5l0,0c2.9-0.1,3.8-0.9,4.2-4c0.1-0.5,0.1-4.3,0.3-4.8
								c0.7-3.4,5.6-0.3,7.2-3.9c1.7-3.6-2-23.1-15-19.1c-13.1,4,4.7,18.9-6.7,22.3L168.7,182.1z"/>
							<path class="st15" d="M168.8,175.5c0,0,0.1,1.8,1.6,4.6c2.4,4.4,4.8,7.2,4.8,7.2c-0.8-0.2-4.6,1.2-4.6,1.2
								c-4-5-4.4-6.8-5.2-11.3L168.8,175.5z"/>
							<path class="st1" d="M184.6,152.2c-2.9-1-7.4-2.5-13.3,0.8c-5.8,3.3-5.7,9.8-4.3,13.5c1.3,3.7,3.5,5.5,6.7,6.8
								c3.1,1.3,4-3,4-3s-3.3-1.1-3-3.1c0.3-2,1.9-0.9,3-1.3c1.1-0.4-0.6-6.4,0.9-7.8c1.6-1.3,3.9,0.3,4.2-0.8
								c0.4-1,2.6-0.6,4.3,0.3C187.1,157.5,187.3,153.2,184.6,152.2z"/>
							<path class="st17" d="M212.1,414c0-0.2,0.1-0.8,0.1-0.9c-0.5-2-20-9.8-20-9.8c-0.3,1.1-5.8,0.5-7.5-0.9c0,0-0.5,2.2-0.6,3.2
								c-0.6,3.3,2.9,4,6.9,5.1S211.5,415.8,212.1,414z"/>
							<path class="st17" d="M164.1,413c0-0.2,0.1-0.8,0.1-0.9c-0.4-2-10-8.7-10-8.7c-0.3,0.2-6.1-0.2-7-2.6c0,0-0.6,3-0.7,4
								c-0.6,3.3,6.4,7.2,7.9,7.8C158.1,414.4,163.4,415,164.1,413z"/>
						</g>
						<g>
							<path class="st18" d="M155.9,256.7l-7.2,2.6c-1.3-4-6.3-15.6-6.2-17.1c0.2-7.5,1.6-35.6,7.1-45.5c7.9-14.1,22.4-1.6,20.4,4.4
								c-4,12.2-15.5,46.9-15.5,46.9L155.9,256.7z"/>
							<path class="st11" d="M157.6,282.9c-0.3-2.6-5.7-14.9-9-23.6l7.2-2.6l5.2,25.7c0,0,2.8,2.9,4.4,3.4c1.7,0.5,0.7,1.7-0.6,1.5
								c-1.2-0.3-3-1.2-3-1.2l1.7,8.4C163.3,294.4,158.7,296.9,157.6,282.9z"/>
							<polygon class="st12" points="156.3,257.9 149.1,260.5 146.1,252.7 154.9,249.7 							"/>
						</g>
					</g>
				</g>
			</g>
		</g>
		<path class="st4" d="M208.2,247.1h-55.4c-3.3,0-6-2.7-6-6v0c0-3.3,2.7-6,6-6h55.4c3.3,0,6,2.7,6,6v0
			C214.2,244.4,211.5,247.1,208.2,247.1z"/>
		<path class="st13" d="M208.2,229.1h-55.4c-3.3,0-6-2.7-6-6v0c0-3.3,2.7-6,6-6h55.4c3.3,0,6,2.7,6,6v0
			C214.2,226.4,211.5,229.1,208.2,229.1z"/>
		<path class="st4" d="M208.2,265.1h-55.4c-3.3,0-6-2.7-6-6v0c0-3.3,2.7-6,6-6h55.4c3.3,0,6,2.7,6,6v0
			C214.2,262.4,211.5,265.1,208.2,265.1z"/>
		<path class="st4" d="M208.2,283.1h-55.4c-3.3,0-6-2.7-6-6v0c0-3.3,2.7-6,6-6h55.4c3.3,0,6,2.7,6,6v0
			C214.2,280.4,211.5,283.1,208.2,283.1z"/>
		<g>
			<circle class="st4" cx="289.6" cy="204.6" r="18.7"/>
			<g>
				<defs>
					<circle id="SVGID_4_" cx="289.6" cy="204.6" r="18.7"/>
				</defs>
				<clipPath id="SVGID_5_">
					<use xlink:href="#SVGID_4_"  style="overflow:visible;"/>
				</clipPath>
				<g class="st19">
					<g>
						<path class="st6" d="M303.3,293.2h-4.9c-1.9,0-3.8-0.9-5-2.5l-25-34.2l11.1-0.9l25,34.8c0.4,0.5,0.4,1.2,0.1,1.8
							C304.6,292.8,304,293.2,303.3,293.2z M270.1,257.2l24.1,33c1,1.4,2.6,2.2,4.3,2.2h4.9c0.4,0,0.6-0.2,0.9-0.5
							c0.2-0.3,0.1-0.7-0.1-1l-24.8-34.4L270.1,257.2z"/>
						<path class="st6" d="M272.6,293.2h-4.9c-0.6,0-1.3-0.4-1.5-0.9c-0.3-0.6-0.2-1.3,0.1-1.8l25-34.8l11.1,0.9l-25,34.2
							C276.5,292.2,274.6,293.2,272.6,293.2z M291.8,256.5L267,290.9c-0.2,0.3-0.2,0.6-0.1,1c0.2,0.3,0.5,0.5,0.9,0.5h4.9
							c1.7,0,3.3-0.8,4.3-2.2l24.1-33L291.8,256.5z"/>
						<rect x="292.1" y="254.5" class="st6" width="11.6" height="4.7"/>
						<rect x="266.9" y="254.5" class="st6" width="25.2" height="4.7"/>
					</g>
					<g>
						<g>
							<path class="st16" d="M296.1,225.2c0,0,19.5,7.8,33.8,8.3c0,0,1.6-0.2,3.2,0.8c0.7,0.5,2.7,0.6,1.7-0.4
								c-1.1-1.1-0.1-1.1,1.1-1c1,0.1,2.3,0.2,2.3,0.2s0.2-1.4-3.2-1.6c-3.5-0.2-3.7,0.1-5-0.2c-1-0.3-15-4.7-15-4.7l-16.8-6.9
								C298.2,219.6,295.2,222.7,296.1,225.2z"/>
							<path class="st0" d="M300.5,220.5c-1.5-0.8-3.1-1.7-4.7-2.7c-1.9-1.2-3.5-2.4-5-3.6c0.8,0.9,1.7,2,2.4,3.5
								c1.5,2.8,1.7,5.5,1.8,7.1l2.4,0.9C296.7,225.1,298.7,219.7,300.5,220.5z"/>
						</g>
						<path class="st16" d="M319.3,276l0.4,2.2c0,0,0.2,1.3,0,1.9c-0.2,0.5,0.1,0.8,0.1,0.8l3.9,1.5l0.3-1.6c0,0-1.3-1-1.5-1.4
							c-0.1-0.4-0.2-1.6-0.2-1.6l-0.2-2.6L319.3,276z"/>
						<path class="st12" d="M323.6,284.3c-2.1-0.1-4.4-0.9-4.1-2.6c0.1-0.6,0.3-1.8,0.3-1.8c1.1,1.3,4.1,1.1,4.2,0.8
							c0,0,8.3,1.6,8.4,2.5c0,0,0,0.4,0,0.4C332.2,284.6,325.5,284.4,323.6,284.3z"/>
						<path class="st16" d="M320.9,287.3c0,0,1.8,2.6,1.9,3.1c0.1,0.5,0.4,0.8,0.4,0.8l4.3,0.5c0,0-1.5-2.1-3.1-4.6
							c-0.4-0.6-1.3-2.4-1.3-2.4L320.9,287.3z"/>
						<path class="st12" d="M327.3,293.7c-2,0.3-3.7,0.2-4.1-1.3c-0.1-0.5-0.4-1.9-0.4-1.9c0.9,0.9,3.7,0.4,3.6-0.2
							c0,0,9.3-0.2,9.8,0.7c0,0,0.2,0.4,0.2,0.4C336.5,292.2,329.3,293.3,327.3,293.7z"/>
						<path class="st14" d="M288.8,239.3c13.2-2.2,33.3-2.6,36.2,4.5c1.9,4.7-2.1,34.3-2.1,34.3s-2.6,0.8-3.5,0.1
							c-0.9-2.2,1.3-28.8-2.8-29.3c-8-0.9-24.1,4.1-24.1,4.1L288.8,239.3z"/>
						<path class="st14" d="M276.7,251.7c4.1,7.2,25.3,11.2,27.4,13.8c3.4,4.2,16.8,21.8,16.8,21.8c0.9,0.6,3.3-0.4,2.9-1.2
							c0,0-12.8-26.3-14.5-28.1c-2.8-2.9-12.1-11.6-17.8-14.5c-1.9-1-7.4-4-7.4-4S270.1,239.8,276.7,251.7z"/>
						<path class="st20" d="M282.8,251.2c0,1.7-0.1,2.1-0.3,2.3c-1,0.8-4.1-1.5-4.9-2.2c-6.5-5.6-5.2-24.6,4.6-37.1
							c1.7-2.2,5.5-7,8.4-6.2c3.2,1,4.2,8.8,5.9,21.1c0.1,0.5,0.1,2.1,0.6,4c1.1,4.1,1.5,5.5,1.7,6.8c0.9,6-7.5,14.7-12.2,13.2
							c-0.8-0.2-2.7-1.2-3.9-6C282.8,248.3,282.8,249.6,282.8,251.2z"/>
						<path class="st16" d="M297,198.3c0.4,0.1,0.7,0.9,0.9,1.8c1.1,4.1,1.5,6.2,0.4,7.4c-0.4,0.4-0.8,0.6-0.9,0.6
							c-1.3,0.6-1.9-0.1-3.5,0.4c-1.5,0.5-1.1,1.9-2,3.3c-0.6,1-3-1.5-3-3.4c0-1.2-0.3-2.2,0.1-3.1c0.3-0.5,0.6-0.4,1.5-1.2
							c0.4-0.4,0.7-0.6,1.3-1.3c1.7-1.9,2.1-2.4,2.6-2.8c0.1-0.1,0.1,0,0.3-0.2C296.4,198.7,296.6,198.3,297,198.3z"/>
						<path class="st2" d="M295.4,196.9c4.2,0.6,2.4,3.1,1.2,3.9c-1.6,1-3,3.2-3,3.2c-3-0.7-2,2.4-1.1,2.3c1.3,0-3.2,1.7-1.9,5.5
							c0.6,1.8,0.4,2.7-0.2,3.2c-1,0.8-2.8-1.1-5.7-0.9c-0.4,0-2.1,0.2-3.3,1.3c-3,2.8,0.4,8-2.9,11.9c-1.1,1.3-1.5,0.8-2.1,1.9
							c-1.8,3.4,3,7.6,1.2,10.8c-0.1,0.2-1,1.5-2.4,1.8c-0.4,0.1-0.9,0-1.5-0.4c-4.5-2.7-5.5-10.1-2-14.4c3-3.7,2.2-6.1,0.7-11.7
							c-1.5-5.6,9.4-7.5,10.9-10.6C288.1,195.3,289.6,196.1,295.4,196.9z"/>
						<path class="st16" d="M286.4,232.8c6.5,7.9,8.9,11.7,18.3,10.8s13-3.8,15.6-2.5c2.6,1.3,1.2-0.4,0.9-0.6
							c-0.3-0.3-2.5-2-3.8-2.3c0,0-1.2-0.4-3.1,0.4c-1.1,0.5-12.7,3.8-16.1-0.3c-2.4-2.9-6.6-9.3-6.6-9.3l-4.5,0L286.4,232.8z"/>
						<path class="st0" d="M284.5,216.5c3.1,2.8,7.1,12.3,7.1,12.3s-5.2,1.2-5.2,4c0,0-4.4-4.3-5.2-7.5
							C280.4,222.3,282.7,215,284.5,216.5z"/>
					</g>
				</g>
			</g>
		</g>
		<g>
			<circle class="st4" cx="339.6" cy="204.6" r="18.7"/>
			<g>
				<defs>
					<circle id="SVGID_6_" cx="339.6" cy="204.6" r="18.7"/>
				</defs>
				<clipPath id="SVGID_7_">
					<use xlink:href="#SVGID_6_"  style="overflow:visible;"/>
				</clipPath>
				<g class="st21">
					<g>
						<path class="st22" d="M335,235.5c0.6-5.6-0.5-22.9,0.9-22.6c0.2,0,0.3,0.1,0.6,0.2c4.3,1.5,7.7,3.3,6.8,7.8
							c-0.9,4.6-2.9,12.8-3.4,15.3c-1.1,5.5-7.3,19.6-7.2,21.5c0.1,1.8-1.7,3.9-3.3,5s-1.4-0.2-0.7-0.7c0.7-0.5,1.5-3.6,0.7-3
							c-0.9,0.6-1.4,0.5-1.4,0.2c0-0.2,0.6-0.9,1.9-1.9C329.8,257.1,334.4,241,335,235.5z"/>
						<path class="st23" d="M343.7,218.5c0.3,1.3-0.1,3.1-0.9,6.7c-0.3,1.5-0.7,2.7-0.9,3.5c-1.4-2.6-6.8-1.2-6.8-1.2
							s-1-11,0.5-15.1c0-0.1,0.1-0.3,0.3-0.4C337.2,211.1,342.8,214.3,343.7,218.5z"/>
					</g>
					<g>
						<path class="st13" d="M337.8,249.6l19,1.1c0,0,5.8-21.8-0.8-35.5c-6.6-13.6-21.9-9.4-21-1.3c1.1,10.8,5.4,22.1,0.2,29.4
							L337.8,249.6z"/>
						<path class="st22" d="M333.6,199.7c0.7-6,5.2-3.7,7.5-0.5c2.3,3.2,2.9,6.9,4.2,7.4c1.3,0.5,0.7,2.6-1.7,3.2
							c-5.3,1.3-5.1-2.1-5.1-2.1s2.1-1.4,0-2.7C337,204,332.8,205.7,333.6,199.7z"/>
						<path class="st24" d="M343,199.5c1.1,2.2,0.6,4.6,0.6,4.6s-0.4,0.2-1.7,0c-1.4-0.2-1.4-1.5-1.4-1.5s0.8,0.2,0.9-1
							c0.2-1.2-0.9-1.2-1.8-0.9c-0.9,0.4-1.9-1.5-6-2.4c-4.1-0.9-2.7-1.6,1.4-1.2C339.1,197.4,342,197.3,343,199.5z"/>
						<path class="st1" d="M341.1,196.1c2,1.1,2.2,4,2.2,4s-0.6,1.1-3.9-0.4c-2.5-1.1-2.7-1.2-5.5-2.8
							C334,197,336.7,193.8,341.1,196.1z"/>
						<path class="st1" d="M334.5,196.6c0,0-2.7-0.6-4.6-1.6c-1-0.5-2.5,0-2.1,0.2c1.4,0.9,1.7,1,2.9,1.5c0.9,0.4,5.6,1.6,5.6,1.6
							L334.5,196.6z"/>
						<polygon class="st0" points="335.2,319.6 335.3,321.2 333.6,323.2 331.8,322.2 331.8,321.4 331.5,319.8 						"/>
						<path class="st0" d="M353.1,319.8l0.2,1.6l-1.9,1.7c0,0-1.4-0.7-1.5-0.8c-0.1-0.1-0.9-2.5-0.9-2.5L353.1,319.8z"/>
						<path class="st14" d="M356.6,248.4c-1.6,18.8-3.9,24-5.8,37.7c-1,7.4,0.5,17.6,2.6,33.8c0.2,1.4-5.1,1.4-5.5,0.1
							c-3.8-12.2-8.7-28-9.7-34.2c-1.3-7.8-0.8-23.1-0.8-23.1l4.4-17.1L356.6,248.4z"/>
						<path class="st14" d="M335.5,242.7c-7.4,17.4-8.4,30.9-9,38.3c-1,10.6,2,19.7,4.3,38.6c0.2,1.2,4.8,1.1,4.8-0.1
							c0.1-17.2-0.3-35.6,2.2-42.5c2.2-5.8,6.9-14,6.9-14l5.3-15.7L335.5,242.7z"/>
						<path class="st2" d="M332.2,325c1.9-0.4,3.6-0.7,3.4-2.3c0-0.5-0.2-1.6-0.2-1.6c-0.8,0.6-3.4,0.8-3.6,0.3c0,0-9.4,3.3-9.7,4.3
							c0,0,0,0.3,0,0.4C322.3,327,330.3,325.4,332.2,325z"/>
						<path class="st2" d="M349.6,326.7c0.7-0.2,4.1-2,3.9-3.6c0-0.5-0.2-1.9-0.2-1.9c-0.5,1.1-3.2,1.1-3.4,1.1c0,0-4.7,3-4.9,4
							c0,0,0,0.3,0,0.4C345.3,327.6,347.9,327.4,349.6,326.7z"/>
					</g>
					<path class="st23" d="M351.4,238.7c1.9-0.3,4.6-0.9,7.6-2.2c0,2.8-0.6,6.7-1.2,9.9c-0.4,2-0.8,4-1.3,5.8c-10,2-18.4,0-20.8-5.1
						c-0.5-0.9-0.8-2.1-0.8-3.7c1.8-2.2,2.6-7,2.6-7c0.1,0.1,0.2,0.2,0.4,0.4C341.6,240.3,347.7,239.3,351.4,238.7z"/>
					<path class="st22" d="M350.8,234c-0.9-5.6-6.4-21.9-5.1-22c0.1,0,0.3,0,0.6,0c4.5,0.3,8.3,1.2,8.6,5.7
						c0.3,4.7,0.5,13.1,0.7,15.6c0.5,5.7-1.8,20.9-1.2,22.6c0.6,1.7-0.6,4.2-1.9,5.7c-1.3,1.4-1.4,0.1-0.9-0.5
						c0.5-0.7,0.5-3.9-0.1-3c-0.7,0.8-1.3,0.8-1.3,0.6c0-0.2,0.4-1,1.4-2.3C351.6,256.2,351.7,239.5,350.8,234z"/>
					<path class="st23" d="M354.7,215.3c0.6,1.1,0.7,3,0.9,6.7c0,1.6,0,2.8,0,3.7c-2-2.1-6.9,0.6-6.9,0.6s-3.8-10.3-3.4-14.7
						c0-0.1,0-0.3,0.2-0.5C346.6,209.9,352.8,211.5,354.7,215.3z"/>
				</g>
			</g>
		</g>
		<g>
			<circle class="st4" cx="389.6" cy="204.6" r="18.7"/>
			<g>
				<defs>
					<circle id="SVGID_8_" cx="389.6" cy="204.6" r="18.7"/>
				</defs>
				<clipPath id="SVGID_9_">
					<use xlink:href="#SVGID_8_"  style="overflow:visible;"/>
				</clipPath>
				<g class="st25">
					<path class="st16" d="M390.2,223.3l-12.1,22.3c0,0-11.3,17.3-12.1,18.4c-1,1.5-1.6,1.3-5.2,4.7c-3.5,3.3-2.1,4.6-2.1,4.6
						s1.3-1.2,2.3-2.2c1.1-1.1,2.3-1.9,2.1,0.2s1.8,0.2,2.2-1c0.8-2.5,2.7-3.6,2.7-3.6c15-13.3,29.5-39,29.5-39
						C396.3,224.1,390.2,223.3,390.2,223.3z"/>
					<path class="st0" d="M396.5,229.3l1.8-3c-1.4-1.7-3.4-4.9-4.3-9.3c-0.5-2.3-0.5-4.4-0.5-6c-0.6,2.6-1.3,5.3-2.2,8.3
						c-0.9,2.6-1.8,5-2.7,7.2C389.8,224,396.8,228,396.5,229.3z"/>
					<path class="st16" d="M362.3,297.6v3.8c0,0,0,1.7-0.1,2.3c-0.2,0.7-1.9,2.2-1.9,2.2l0.6,2.3l5.3-2.6c0,0,0.3-0.4,0.1-1.1
						c-0.3-0.7-0.2-2.6-0.2-2.6l0.4-3.1L362.3,297.6z"/>
					<path class="st12" d="M348.9,310.8c0-0.1-0.1-0.5-0.1-0.6c0.1-1.3,11.5-4.4,11.5-4.4c0.2,0.3,4.5,0.3,5.8-1.6
						c0,0,0.4,1.7,0.7,2.6c0.6,2.3-2.4,3.7-5.4,4C358.7,311,349.4,312.1,348.9,310.8z"/>
					<path class="st16" d="M362.9,319.6c0,0-0.8,2.8-1.2,3.7c-1.6,3.8-3.1,7.1-3.1,7.1l5.8-1.9c0,0,0.4-0.5,0.4-1.3
						c0-0.7,1.8-4.8,1.8-4.8L362.9,319.6z"/>
					<path class="st12" d="M346.4,332c0-0.1,0.1-0.5,0.1-0.6c0.5-1.3,13.3-3.5,13.3-3.5c0.1,0.9,4.1,0.8,5.1-0.6
						c0,0-0.1,2.1-0.1,2.7c-0.1,2.3-2.4,2.8-5.3,3C356.6,333,346.5,333.3,346.4,332z"/>
					<path class="st26" d="M401.5,263.4c0,0-23.1-5.2-34.2-3c-5.7,1.1,0.2,38.2-0.7,41.3c-1.3,1.1-5,0.2-5,0.2s-8.9-41-6.7-47.8
						c3.4-10.2,31.4-11.9,50.2-10.3L401.5,263.4z"/>
					<path class="st27" d="M404.7,246.8c0,0-6.8,5.6-9.1,7.5c-7.1,5.5-17.6,20-20.7,24.7c-1.8,2.8-12.5,42.5-12.5,42.5
						c-0.4,1.2,3.3,2,4.3,1c0,0,13.8-27.7,17.4-34.4c2.2-4.1,30.4-15.2,34.1-26.3C424.1,243.7,404.7,246.8,404.7,246.8z"/>
					<path class="st14" d="M414.6,255.2l-5,10c0,0-20.7-13.3-18.4-18.3c1.9-4.4,2.1-10.3,2.1-15.4c-0.1-10.3-2.2-19.5-2-20.2
						c1.1-6.8,8.5-17,20.6-3.9c13,14,18.2,23.4,14.8,41.7c-4.2,22-14.4,17.8-14.4,17.8L414.6,255.2z"/>
					<path class="st16" d="M384,200.2c4.1,1.3,4.1,3.6,7.7,3.6c3.6-0.1,3.5,2.2,4.4,4.7c0.9,2.4-0.9,6.9-2.2,6
						c-2-1.4-2.1-3.5-4.3-3.3c-2.3,0.1-2.7,1.4-4.7,1.2c-2-0.2-3.5-0.7-5.1-10.7C379.8,201.6,379.9,198.8,384,200.2z"/>
					<path class="st12" d="M400.5,199.8c3.8,3,18.8-0.8,20.1,7.2c1.4,8,1.8,11.5,7.7,14.5c7.1,3.5,10,13.6,5.8,19.5
						c-2.7,3.9-5.1-1.8-6.7,1.3c0,0,0.2-9.2-2.8-16.8c-1.9-4.7-7.8-12.7-11.3-16.1s-6.8,0.9-9.6,4.6c-3,4.1-7.9,4.5-8.4-1.1
						c-0.5-5.6-7.2-5.2-5.6-5.9c1.1-0.5,0.7-4.9-2.8-2.3c0,0-3-2-5.7-2.3c-1.9-0.2-5.7-2.4-0.7-5.6
						C387.5,192.3,388.9,190.5,400.5,199.8z"/>
					<path class="st16" d="M406.4,227.6l-6.3,0.4c0,0-5.2,9.4-8.3,13.7c-4.3,6.2-20.9,2.8-22.4,2.3c-2.7-1-4.4-0.3-4.4-0.3
						c-1.9,0.5-4.7,3.2-5.1,3.6c-0.4,0.4-2.1,2.9,1.4,0.8c3.4-2.1,8.8,1.4,22,1.8c13.3,0.3,16.2-5.4,24.4-17.1L406.4,227.6z"/>
					<path class="st0" d="M414.2,221.9c-0.8,4.5-6.5,11-6.5,11c-0.3-3.9-7.6-5-7.6-5s4.6-13.8,8.5-18.1
						C410.9,207.5,415,217.5,414.2,221.9z"/>
				</g>
			</g>
		</g>
		<g>
			<circle class="st4" cx="439.6" cy="204.6" r="18.7"/>
			<g>
				<defs>
					<circle id="SVGID_10_" cx="439.6" cy="204.6" r="18.7"/>
				</defs>
				<clipPath id="SVGID_11_">
					<use xlink:href="#SVGID_10_"  style="overflow:visible;"/>
				</clipPath>
				<g class="st28">
					<g>
						<g>
							<path class="st29" d="M396.7,284.3l4.6-5.1c0,0-1.7-0.1-2.6-0.4c-1-0.3-1.1-1.5,0.2-1.2c1.3,0.3,4.4-0.6,4.4-0.6l14-15.6
								l3.8,4.7c-5.9,4.7-14.7,11-15.8,12.6C398.8,287.9,396.6,284.3,396.7,284.3z"/>
							<path class="st30" d="M421.8,255.7c0,0,6.3-28.5,8.5-38.5c1-4.9,16.1-7.6,15.8,5.3c-0.2,9-10.7,28.8-13.6,34.1
								c-0.6,1.1-8.7,7-11.1,9.3l-3.8-4.7L421.8,255.7z"/>
							<polygon class="st30" points="421.1,256.7 425.8,262.3 420.7,266.4 416.8,261.8 							"/>
						</g>
						<g>
							<polygon class="st0" points="437,388.6 437.3,391.3 434.5,394.7 431.5,393.2 431.4,391.9 430.8,389.1 							"/>
							<path class="st0" d="M466.9,387.8l0.5,2.6l-3.1,2.9c0,0-2.4-1.1-2.6-1.2c-0.2-0.1-1.7-4.1-1.7-4.1L466.9,387.8z"/>
							<path class="st1" d="M467.7,268.2c-1.5,31.6-4.9,40.3-7.1,63.3c-1.2,12.4,2,29.3,6.7,56.1c0.4,2.3-8.4,2.7-9.3,0.6
								c-7.2-20-16.5-46.2-18.5-56.4c-2.6-12.9-2.9-38.4-2.9-38.4l6.2-28.8L467.7,268.2z"/>
							<path class="st1" d="M432.2,260.3c-11.2,29.5-11.9,52.1-12.4,64.6c-0.9,17.8,4.7,32.8,9.8,64.1c0.3,2,8,1.5,7.9-0.5
								c-1.1-28.8-3-59.4,0.8-71c3.2-9.9,10.6-23.9,10.6-23.9l7.7-26.5L432.2,260.3z"/>
							<path class="st0" d="M449.7,276.6c-14,0.9-17-3.9-17-3.9l-2.1-37.3c0,0,2.2-18.3,2-18.4c-0.1-0.1,4.5-5.4,4.6-3.2
								c0,2.2,0,4.5,3.8,4.5c3.8,0.1,9.1-3.7,9.1-3.7l-1.1,6L449.7,276.6z"/>
							<path class="st12" d="M437.3,215.8c-1.5,3.1-2.7,19.8-2.4,25.3c0.3,5.5,0.5,19.2-0.3,28.7c-0.4,5-9.3,31.8-9.3,31.8
								s-6.9-2.7-7.1-7.3c-0.4-5.6,11.9-22.9,8.4-54.9c-1-8.4,2.2-20.9,3.9-24.1c1.7-3.1,3.4-4.8,3.4-4.8l2.9,0.4L437.3,215.8z"/>
							<path class="st12" d="M445.1,219.5c0,0,5.4,78.5,3.2,87.7c0,0,25.9-6.2,27.5-13.1c5.7-24.4-4.3-68.3-13.9-75.2
								c-8.7-6.3-10.7-7.5-10.7-7.5l-2,7.5L445.1,219.5z"/>
							<path class="st31" d="M439.9,211.7c-2.6,4.3-3.1,5.6-3.1,5.6s-1.8-0.8-3.4-0.6c0,0,3.1-6.5,5.7-7.7
								C441.8,207.9,439.9,211.7,439.9,211.7z"/>
							<path class="st16" d="M450,210.1c-9.1-2.7,5-14.6-5.4-17.7c-10.4-3.2-13.3,12.4-12,15.3c1.3,2.8,5.2,0.3,5.7,3.1
								c0.1,0.4,0.1,3.4,0.2,3.8c0.3,2.4,1,3.1,3.4,3.1l0,0c1.9,0.1,3.8-0.3,5.6-1.1l2.6-1.1L450,210.1z"/>
							<path class="st31" d="M452.8,211.5c-0.7,3.6-1,5-4.2,9c0,0-3-1.1-3.6-1c0,0,1.9-2.2,3.8-5.7c1.2-2.2,1.2-3.6,1.2-3.6
								L452.8,211.5z"/>
							<path class="st2" d="M435.4,195.8c1.4-0.8,3.1-1.1,3.4-0.2c0.3,0.8,2.1-0.4,3.4,0.6c1.3,1-0.1,6,0.8,6.3c1,0.3,2.3-0.6,2.4,1
								c0.2,1.6-2.4,2.5-2.4,2.5s0.6,3.4,3.1,2.4c2.5-1,4.3-2.6,5.4-5.4c1.1-2.9,1.2-8.2-3.4-10.8c-4.7-2.6-8.2-1.5-10.6-0.6
								C435.3,192.3,435.4,195.8,435.4,195.8z"/>
							<path class="st2" d="M432.3,397.7c3.2-0.8,6-1.4,5.5-4c-0.1-0.8-0.5-2.6-0.5-2.6c-1.3,1.1-5.7,1.6-5.9,0.7
								c0,0-15.6,6.2-16,7.8c0,0.1,0.1,0.6,0.1,0.7C416,401.9,429.1,398.5,432.3,397.7z"/>
							<path class="st2" d="M461.6,399.4c1.1-0.4,6.8-3.6,6.3-6.3c-0.1-0.8-0.6-3.2-0.6-3.2c-0.8,1.9-5.4,2.1-5.6,2c0,0-7.7,5.3-8,7
								c0,0.1,0.1,0.6,0.1,0.7C454.4,401.2,458.7,400.8,461.6,399.4z"/>
						</g>
						<g>
							<path class="st30" d="M461.3,268c0,0-9.1-27.6-12.3-37.5c-1.5-4.7,10-14.7,16.3-3.5c4.4,7.8,5.6,30.2,5.7,36.2
								c0.1,1.2-3.9,10.4-4.9,13.7l-5.7-2L461.3,268z"/>
							<path class="st16" d="M454.4,305l1.3-6.7c0,0-1.5,0.8-2.4,1c-1,0.2-1.7-0.8-0.4-1.1c1.3-0.4,3.5-2.7,3.5-2.7l4.1-20.5l5.7,2
								c-2.7,7.1-7,16.8-7.2,18.9C458.1,307,454.4,305,454.4,305z"/>
							<polygon class="st31" points="461.2,269.3 468.1,271.8 465.8,277.9 460.1,275.9 							"/>
						</g>
					</g>
					<g>
						<circle class="st0" cx="410.1" cy="306.9" r="8.6"/>
						<g>
							<path class="st32" d="M417,304.6c1.4,4-0.6,8.3-4.6,9.6c-4,1.4-8.2-0.7-9.6-4.6c-1.4-4,0.7-8.2,4.6-9.6
								C411.3,298.6,415.6,300.6,417,304.6z M412.8,304.5l-6.8,2.4c-1.1,0.4,0,3.1,1,2.7l6.8-2.4
								C414.7,306.9,413.9,304.2,412.8,304.5z M399.7,280.2c-3.6,1.3-6.2,4.9-6.7,8.7c-1,7.6,4.9,7.1,5.8,4.1c0.3-1,0-1.4-0.1-2.5
								c-0.3-4,4.3-6.9,7.8-4.4c2.4,1.7,3.6,5.4,1.3,7.8c-2.4,2.5-6.4,4.1-8.9,6.3c-1.3,1.1-1.9,3-1.3,4.7l4.6,13
								c0.6,1.9,3.3,3.1,5.1,2.4l12.9-4.6c1.9-0.6,3.1-3.3,2.4-5.1l-8.7-24.6C411.7,280.2,405.3,278.2,399.7,280.2z"/>
						</g>
						<circle class="st0" cx="392.5" cy="304.9" r="8.6"/>
						<g>
							<g>
								<path class="st33" d="M399.1,308c-1.7,3.7-6.1,5.2-9.8,3.4c-3.7-1.7-5.2-6.1-3.4-9.8c1.7-3.7,6.1-5.2,9.8-3.4
									C399.2,300,400.8,304.3,399.1,308z M404,279.5c-3.3-1.7-7.7-0.9-10.5,1.3c-5.9,4.5-1.6,8.2,1.1,6.9c1-0.5,1-1,1.7-1.8
									c2.6-3,7.7-1.9,8.4,2.3c0.5,2.8-1.2,6.2-4.5,6.3c-3.4,0.1-7.2-1.6-10.5-1.8c-1.7-0.2-3.4,0.7-4.1,2.2l-5.8,12
									c-0.8,1.7,0.1,4.3,1.8,5.1l12,5.7c1.7,0.8,4.3-0.1,5.1-1.8l11-22.8C412.2,287.8,409.1,281.9,404,279.5z"/>
							</g>
							<path class="st34" d="M391.3,305.1c0.1-0.1,0.3-0.1,0.3-0.1c1.7-0.7,3.4-1.4,5-2.2c0.1,0,0.3-0.1,0.3-0.1
								c0.3-0.1,0.4,0,0.6,0.3c0.1,0.2,0,0.4-0.2,0.6c0,0.1-0.1,0.1-0.2,0.1c-2,0.8-4,1.7-6,2.6c-0.4,0.1-0.6,0-0.7-0.4
								c-0.2-1-0.4-1.9-0.5-2.9c-0.1-0.3,0.1-0.5,0.4-0.6c0.3,0,0.5,0.1,0.6,0.4c0.1,0.6,0.3,1.2,0.4,1.9
								C391.3,304.8,391.3,304.9,391.3,305.1z"/>
						</g>
					</g>
				</g>
			</g>
		</g>
		<g>
			<circle class="st4" cx="289.6" cy="254.6" r="18.7"/>
			<g>
				<defs>
					<circle id="SVGID_12_" cx="289.6" cy="254.6" r="18.7"/>
				</defs>
				<clipPath id="SVGID_13_">
					<use xlink:href="#SVGID_12_"  style="overflow:visible;"/>
				</clipPath>
				<g class="st35">
					<g>
						<g>
							<path class="st11" d="M302.4,307c-0.2-1.5-3.9-8.4-6.2-13.5l4.1-1.8l4.1,14.8c0,0,1.8,1.6,2.7,1.8s0.5,0.9-0.3,0.9
								c-0.8-0.1-1.8-0.5-1.8-0.5l1.3,4.8C306.3,313.5,303.7,315.1,302.4,307z"/>
							<polygon class="st12" points="300.7,292.4 296.6,294.2 294.6,289.8 299.5,287.7 							"/>
						</g>
						<g>
							<polygon class="st0" points="296.8,388.1 296.3,390.1 296.3,391 294.1,392.2 292,389.6 292.3,387.7 							"/>
							<path class="st0" d="M275.3,387.2c0,0-1.1,3-1.2,3c-0.2,0.1-1.9,0.9-1.9,0.9l-2.3-2.2l0.4-1.9L275.3,387.2z"/>
							<path class="st13" d="M288,296.8l4.5,21.2c0,0-0.2,18.7-2.2,28.2c-1.5,7.4-8.3,26.7-13.6,41.3c-0.6,1.6-7.1,1.2-6.8-0.4
								c3.4-19.7,5.8-32,4.9-41.1c-1.7-16.9-4.1-23.3-5.2-46.4L288,296.8z"/>
							<path class="st13" d="M278,298.5l5.7,19.5c0,0,5.4,10.3,7.8,17.6c2.7,8.5,1.3,30.9,0.5,52c-0.1,1.5,5.5,1.8,5.8,0.4
								c3.7-22.9,7.9-33.9,7.2-47c-0.4-9.1-0.9-25.7-9.1-47.4L278,298.5z"/>
							<path class="st0" d="M283.6,264.5l-0.9-4.4c0,0,3.8,2.8,6.6,2.7c2.7-0.1,2.7-1.7,2.8-3.3c0-1.6,3.4,2.3,3.4,2.3
								c-0.1,0.1,1.5,13.5,1.5,13.5l-1.6,27.4c0,0-2.2,3.5-12.5,2.9L283.6,264.5z"/>
							<path class="st20" d="M292.4,257.4l2.2-0.3c0,0,1.2,1.2,2.5,3.5c1.2,2.3,3.6,11.5,2.9,17.7c-2.5,23.4,6.5,36.1,6.2,40.2
								c-0.2,3.4-5.2,5.3-5.2,5.3s-6.5-19.7-6.8-23.4c-0.5-6.9-0.4-17-0.2-21s-0.6-16.3-1.8-18.5L292.4,257.4z"/>
							<path class="st20" d="M283.3,263.2l-1.5-5.5c0,0-1.5,0.9-7.9,5.5c-7,5.2-14.3,37.4-10.2,55.2c1.2,5.2,20.2,9.6,20.2,9.6
								c-1.6-6.7,2.3-64.3,2.3-64.3L283.3,263.2z"/>
							<path class="st15" d="M290.7,256c1.9,0.9,4.1,5.6,4.1,5.6c-1.2-0.2-2.5,0.5-2.5,0.5s-0.3-0.9-2.3-4.1
								C290.1,258,288.7,255.1,290.7,256z"/>
							<path class="st16" d="M282.6,260.6l1.9,0.9c1.3,0.6,2.7,0.9,4.1,0.9l0,0c1.7-0.1,2.2-0.5,2.5-2.3c0.1-0.3,0.1-2.5,0.2-2.8
								c0.4-2,3.3-0.2,4.2-2.3c1-2.1-1.2-13.5-8.8-11.2c-7.6,2.3,2.7,11-3.9,13L282.6,260.6z"/>
							<path class="st15" d="M282.7,256.8c0,0,0.1,1.1,0.9,2.7c1.4,2.6,2.8,4.2,2.8,4.2c-0.5-0.1-2.7,0.7-2.7,0.7
								c-2.4-2.9-2.6-4-3.1-6.6L282.7,256.8z"/>
							<path class="st12" d="M291.9,243.1c-1.7-0.6-4.3-1.5-7.8,0.5c-3.4,1.9-3.3,5.8-2.5,7.9c0.8,2.2,2,3.2,3.9,4
								c1.8,0.8,2.3-1.8,2.3-1.8s-1.9-0.6-1.8-1.8c0.2-1.2,1.1-0.5,1.8-0.8s-0.3-3.8,0.5-4.6c0.9-0.8,2.3,0.2,2.5-0.5
								c0.2-0.6,1.5-0.4,2.5,0.2C293.4,246.3,293.5,243.7,291.9,243.1z"/>
							<path class="st17" d="M308,396.4c0-0.1,0.1-0.5,0.1-0.5c-0.3-1.2-11.7-5.7-11.7-5.7c-0.2,0.6-3.4,0.3-4.4-0.5
								c0,0-0.3,1.3-0.4,1.9c-0.4,1.9,1.7,2.3,4,3C298.1,395.1,307.7,397.4,308,396.4z"/>
							<path class="st17" d="M279.9,395.8c0-0.1,0.1-0.5,0.1-0.5c-0.2-1.2-5.9-5.1-5.9-5.1c-0.2,0.1-3.6-0.1-4.1-1.5
								c0,0-0.4,1.8-0.4,2.3c-0.4,1.9,3.8,4.2,4.6,4.6C276.4,396.6,279.5,396.9,279.9,395.8z"/>
						</g>
						<g>
							<path class="st20" d="M275.1,304.3l-4.2,1.5c-0.8-2.3-3.7-9.1-3.6-10c0.1-4.4,0.9-20.8,4.1-26.6c4.6-8.2,13.1-0.9,12,2.6
								c-2.3,7.2-9,27.5-9,27.5L275.1,304.3z"/>
							<path class="st11" d="M276.1,319.7c-0.2-1.5-3.3-8.7-5.3-13.8l4.2-1.5l3,15c0,0,1.6,1.7,2.6,2c1,0.3,0.4,1-0.3,0.9
								c-0.7-0.2-1.8-0.7-1.8-0.7l1,4.9C279.5,326.4,276.8,327.9,276.1,319.7z"/>
							<polygon class="st12" points="275.3,305 271.1,306.5 269.4,302 274.5,300.2 							"/>
						</g>
					</g>
				</g>
			</g>
		</g>
		<g>
			<circle class="st4" cx="339.6" cy="254.6" r="18.7"/>
			<g>
				<defs>
					<circle id="SVGID_14_" cx="339.6" cy="254.6" r="18.7"/>
				</defs>
				<clipPath id="SVGID_15_">
					<use xlink:href="#SVGID_14_"  style="overflow:visible;"/>
				</clipPath>
				<g class="st36">
					<g>
						<path class="st11" d="M329.2,268.5c0,0,15.2,23.6,30.4,35.4c0,0,1.9,0.9,2.8,3.3c0.4,1.1,2.5,2.8,2.2,0.8s0.8-1.3,1.9-0.3
							c1,0.9,2.3,2,2.3,2s1.3-1.3-2.3-4.3s-4.1-2.8-5.2-4.1c-0.8-1-12.6-16.8-12.6-16.8l-12.9-20.5C335.8,264,330.1,265,329.2,268.5
							z"/>
						<path class="st14" d="M346.2,279.7c-1.5-2-3-4.2-4.6-6.8c-1.7-3-3-5.8-4.1-8.3c-0.1,3-0.2,6.2-0.3,9.3
							c-0.1,2.1-0.2,4.2-0.3,6.3l1.9,2.8C338.4,281.7,344.8,277.4,346.2,279.7z"/>
					</g>
					<path class="st11" d="M380.8,363.2l0.7,1c0,0,0.9,1.6,1,2.2c0.1,0.7,0.5,0.9,0.5,0.9l5.6-0.1l-0.4-2.2c0,0-2.2-0.5-2.6-1
						s-1.1-1.9-1.1-1.9l-1.6-3.2L380.8,363.2z"/>
					<path class="st12" d="M389.8,369.2c-2.4,1.4-5.7,2-6.4-0.1c-0.3-0.8-0.7-2.3-0.7-2.3c2.1,0.8,5.3-1.6,5.3-2
						c0,0,10.6-3.9,11.4-2.9c0.1,0.1,0.3,0.4,0.3,0.5C399.9,363.6,391.9,368,389.8,369.2z"/>
					<path class="st11" d="M364.6,370.3c0,0,0.4,1.6,0.7,3c0.1,0.7,0.3,2.5,0.3,2.5l5.8,2.8c0,0-1-3.3-2.2-7.1
						c-0.3-0.9-0.8-3.6-0.8-3.6L364.6,370.3z"/>
					<path class="st12" d="M372.5,378.4c-2.5,1.1-5.3,1.9-6.3,0c-0.3-0.6-0.7-2.6-0.7-2.6c1.1,0.1,2.9,0,4.5-1.2c0,0,12-3.8,13.1-3
						c0.1,0.1,0.3,0.4,0.3,0.5C383.8,373.4,375,377.3,372.5,378.4z"/>
					<path class="st14" d="M347.2,291.2c17.1,13.4,26.2,28.8,28.3,38.9c1.4,6.7,8.4,30.6,8.4,30.6s-1.9,1.9-3,2.5
						c-2.4-4.5-16.9-33.7-20.6-37.8c-12.4-13.8-22-24.9-22-24.9L347.2,291.2z"/>
					<path class="st14" d="M322.3,307.2c2.3,10.9,28,24.3,29.7,28.4c2.7,6.7,12.7,35.3,12.7,35.3l4-1.1c0,0-5.6-39.1-7.1-41.9
						c-2.5-4.8-11.1-19.6-17.2-25.5c-2.1-2-7.9-8.1-7.9-8.1S318.4,289.4,322.3,307.2z"/>
					<path class="st20" d="M333.4,314.8c0,0-8.7,6-17-13.8c-7-16.4-3.9-26.2,5.4-41.9c8.8-14.6,17.6-6.6,20-0.4
						c0.2,0.7,0.2,9.6,2.2,19.2c1,4.8,2.3,10.3,5,14c3.1,4.3-13.5,20.8-13.5,20.8l-6.6-8.4L333.4,314.8z"/>
					<path class="st11" d="M350.6,247.3c0.5,9.6-0.8,10.5-2.7,11c-1.9,0.5-2.5-0.5-4.7-0.2c-2.2,0.3-1.8,2.3-3.4,4
						c-1.1,1.1-3.6-2.7-3.2-5.1c0.4-2.4-0.3-4.5,3.2-5.2c3.4-0.7,3-2.8,6.5-4.9C349.9,244.7,350.6,247.3,350.6,247.3z"/>
					<path class="st1" d="M348.8,242.9c5.3,2,2.2,4.8,0.4,5.4c-2.4,0.9-4.8,3.3-4.8,3.3c-3.8-1.7-3.3,2.5-2.1,2.7
						c1.7,0.3-4.7,1.3-4,6.6c0.7,5.4-4,6-7.6,2.8c-3.3-2.9-7.3-6.2-9.9-2.3s-6.5,12.5-7.3,17.2c-1.4,7.7,0.7,16.2,0.7,16.2
						c-2.1-2.5-3.2,3.2-6.5,0.2c-5.1-4.8-4.3-14.8,1.5-19.4c5-3.9,4.6-7.3,4.3-15.1c-0.3-7.7,14.4-7.1,17.4-10.8
						C339.7,238.7,341.5,240.2,348.8,242.9z"/>
					<g>
						<path class="st11" d="M320.2,286.7c4,13.1,6.3,18.7,17.9,24.1c11.5,5.4,12.7,6.7,15.2,9.6c2.5,2.9,5.8-2.6,4.3-3.9
							c-0.4-0.3-2.7-1.1-4.3-2.1c0,0-2.2-1.4-6.1-3.5c-1.5-0.8-15.1-9.1-15.8-11.8c-1.3-4.9-2.7-14.5-2.7-14.5l-5.6-2.3L320.2,286.7
							z"/>
						<path class="st14" d="M326.3,265.6c2.4,5,2.3,18.9,2.3,18.9s-7-1.2-8.4,2.2c0,0-3.2-7.7-2.6-11.9
							C318.2,270.5,324.9,262.7,326.3,265.6z"/>
					</g>
				</g>
			</g>
		</g>
		<path class="st4" d="M446.3,167H282.8c-6.6,0-12-5.4-12-12v-3.2c0-6.6,5.4-12,12-12h163.4c6.6,0,12,5.4,12,12v3.2
			C458.3,161.6,452.9,167,446.3,167z"/>
	</g>
	<g transform="translate(-30 -320)">
		<polygon class="st2" points="446.8,569 411.1,537.7 411.1,585.2 424.1,575.7 433.4,596.5 440.6,593.3 431.2,572.6 		"/>
	</g>
</g>
</svg>
