<?xml version="1.0" encoding="utf-8"?>
<!-- Generator: Adobe Illustrator 22.1.0, SVG Export Plug-In . SVG Version: 6.00 Build 0)  -->
<svg version="1.1" id="Layer_1" xmlns="http://www.w3.org/2000/svg" xmlns:xlink="http://www.w3.org/1999/xlink" x="0px" y="0px"
	 viewBox="0 0 157 45" style="enable-background:new 0 0 157 45;" xml:space="preserve">
<style type="text/css">
	.st0{fill:#FFFFFF;}
</style>
<g transform="matrix( 1, 0, 0, 1, 0,0) ">
	<g>
		<g id="Layer0_0_FILL">
			<path class="st0" d="M1.8,29.2v15.6h15.6V29.2L1.8,29.2z"/>
			<path class="st0" d="M34.5,44.8V29.2l-15.6,0l0,15.6H34.5z"/>
			<path class="st0" d="M129,23.9c-0.7,0.1-1.4,0.3-2,0.5c-0.7,0.3-1.2,0.6-1.7,1.1c-0.6,0.5-1.1,1.2-1.5,2
				c-0.4,0.7-0.6,1.5-0.7,2.4c-0.2,1.9-0.1,3.5,0.5,4.9c0.3,0.8,0.8,1.4,1.4,2c0.6,0.6,1.3,1,2,1.3c1.4,0.5,3,0.7,4.7,0.4
				c0.8-0.1,1.6-0.4,2.3-0.8c0.7-0.4,1.3-1,1.8-1.6c0.5-0.6,0.9-1.4,1.2-2.3c0.2-0.8,0.4-1.6,0.4-2.5c0-1.3-0.1-2.4-0.5-3.4
				c-0.3-0.7-0.6-1.3-1.1-1.9c-0.5-0.6-1.1-1-1.8-1.4C132.6,23.9,131,23.7,129,23.9 M127.5,27.8c0.3-0.4,0.7-0.6,1.1-0.8
				c0.4-0.2,0.9-0.3,1.4-0.3c0.5,0,1,0,1.4,0.1c0.5,0.1,0.9,0.4,1.3,0.7c0.6,0.5,1,1.3,1.2,2.2c0.2,1,0.2,2,0,3
				c-0.1,0.9-0.4,1.5-0.9,2.1c-0.2,0.3-0.5,0.5-0.9,0.7c-0.3,0.2-0.7,0.3-1.1,0.4c-0.9,0.1-1.7,0-2.4-0.3c-0.4-0.2-0.8-0.4-1.1-0.8
				c-0.3-0.3-0.5-0.7-0.7-1.1c-0.4-0.9-0.5-1.9-0.4-3.1C126.5,29.4,126.9,28.5,127.5,27.8 M72.1,24.2c-0.6,0-1.7,0-3.4,0l0,14.1h3.3
				C72,32,72.1,27.3,72.1,24.2 M94.4,23.9c-0.6,0-1.1,0.2-1.5,0.5c-0.7,0.4-1.3,1.2-1.7,2.2l0-2.4c-1.5,0-2.6,0-3.3,0l0,14.1h3.3
				v-6.7c0-1.2,0.1-2.1,0.5-2.9c0.2-0.4,0.5-0.8,0.8-1.1c0.4-0.3,0.8-0.5,1.3-0.6c0.4,0,0.8,0,1.2,0.1c0.4,0.1,0.8,0.2,1.1,0.5
				l0-3.4C95.5,24,94.9,23.9,94.4,23.9 M112.8,26c-0.3,0.5-0.5,1-0.6,1.6c-0.1,0.6,0,1.1,0.1,1.7c0.1,0.4,0.2,0.7,0.5,1.1
				c0.2,0.3,0.5,0.6,0.8,0.9c0.4,0.3,0.8,0.6,1.4,0.8c0.3,0.2,0.8,0.4,1.5,0.7c0.4,0.2,0.6,0.3,0.8,0.4c0.3,0.2,0.5,0.4,0.7,0.6
				c0.2,0.3,0.3,0.7,0.2,1.1c-0.1,0.4-0.3,0.7-0.6,0.9c-0.6,0.3-1.4,0.4-2.3,0.2c-1.1-0.2-2.1-0.6-3.1-1.3c0,0.7,0,1.8,0,3.3
				c1,0.4,2.1,0.7,3.4,0.8c0.9,0,1.7,0,2.5-0.3c0.9-0.2,1.6-0.6,2.2-1.2c0.6-0.6,1-1.3,1.2-2.2c0.2-0.9,0-1.7-0.3-2.5
				c-0.3-0.7-1-1.3-1.9-1.8c-0.3-0.2-0.8-0.4-1.6-0.7c-0.7-0.3-1.2-0.5-1.5-0.8c-0.3-0.2-0.5-0.4-0.5-0.8c-0.1-0.3-0.1-0.6,0.1-1
				c0.1-0.3,0.4-0.5,0.7-0.7c0.3-0.1,0.6-0.2,0.9-0.2c0.6,0,1.2,0.1,1.9,0.2c0.6,0.2,1.2,0.4,1.7,0.8v-3.1c-0.8-0.3-1.5-0.5-2.3-0.6
				c-0.8-0.1-1.6-0.1-2.4,0.1c-0.7,0.1-1.3,0.4-1.9,0.7C113.6,25,113.2,25.5,112.8,26 M108.7,25.7c-0.5-0.5-1.1-0.9-1.7-1.2
				c-1.3-0.6-3-0.8-4.8-0.6c-0.9,0.1-1.7,0.4-2.4,0.8c-0.8,0.4-1.5,1-2,1.6c-0.5,0.6-0.8,1.3-1.1,2c-0.2,0.7-0.4,1.5-0.4,2.3
				c-0.1,1,0,1.9,0.2,2.7c0.2,1,0.6,1.8,1.1,2.5c0.4,0.6,1,1.2,1.7,1.6c0.7,0.4,1.4,0.7,2.2,0.9c1.3,0.3,2.6,0.3,3.9,0
				c0.8-0.2,1.5-0.4,2.2-0.8c0.7-0.4,1.3-0.9,1.7-1.5c0.4-0.6,0.8-1.2,1-1.9c0.2-0.7,0.4-1.4,0.4-2.2c0.1-1.7-0.1-3.2-0.7-4.4
				C109.7,26.8,109.3,26.2,108.7,25.7 M101,27.5c0.3-0.3,0.6-0.5,1-0.6c0.4-0.1,0.8-0.2,1.2-0.2c0.5,0,1,0,1.5,0.2
				c0.5,0.2,1,0.4,1.3,0.8c0.7,0.7,1.1,1.6,1.2,2.9c0,0.7,0,1.3,0,1.8c-0.1,0.6-0.2,1.2-0.4,1.7c-0.2,0.4-0.4,0.7-0.7,1
				c-0.3,0.3-0.6,0.5-1,0.6c-0.4,0.2-0.9,0.3-1.4,0.3c-0.5,0-0.9,0-1.4-0.2c-0.5-0.1-0.9-0.3-1.2-0.6c-0.4-0.3-0.7-0.7-0.9-1.1
				c-0.5-0.9-0.6-2.1-0.5-3.5c0.1-0.6,0.2-1.1,0.4-1.6C100.3,28.3,100.6,27.8,101,27.5 M79.4,24.2c-0.8,0.2-1.5,0.6-2.1,1
				c-0.7,0.5-1.2,1-1.6,1.6c-0.5,0.7-0.9,1.6-1.1,2.5c-0.2,0.9-0.3,1.8-0.2,2.7c0,0.9,0.2,1.7,0.6,2.6c0.4,0.8,0.8,1.6,1.5,2.2
				c0.6,0.6,1.2,1,2,1.3c0.7,0.3,1.5,0.5,2.4,0.5c1.8,0.1,3.4-0.2,4.6-1c0-1.4,0-2.4,0-3c-1,0.7-2,1.1-3,1.2c-0.6,0-1.1,0-1.7-0.2
				c-0.6-0.2-1.1-0.4-1.5-0.8c-0.4-0.3-0.7-0.8-0.9-1.3c-0.2-0.5-0.4-1-0.4-1.5c-0.1-0.7-0.1-1.4,0.1-2c0.1-0.7,0.4-1.3,0.8-1.9
				c0.3-0.4,0.7-0.8,1.2-1.1c0.5-0.3,1-0.4,1.6-0.5c0.7-0.1,1.3,0,2,0.2c0.6,0.2,1.2,0.5,1.8,1c0-1.4,0-2.5,0-3.2
				c-0.3-0.2-0.6-0.3-1-0.4c-0.8-0.2-1.7-0.4-2.5-0.4C81,23.8,80.2,23.9,79.4,24.2 M65.6,18.6c-0.1,0-0.9,0-2.4,0
				c-0.9,0-1.7,0-2.4,0c-1.3,3.2-3.3,8.1-5.9,14.5c-0.2-0.4-0.4-0.9-0.6-1.4c-0.3-0.9-0.5-1.3-0.6-1.5l-4.6-11.6h-4.9v19.6l3.2,0
				v-8.8c0-0.3,0-1.3,0-3.2c0-1.3,0-2.3,0-3.2c0.1,0.1,0.1,0.2,0.2,0.3c0.4,0.9,1.4,3.4,3,7.4c1.2,3,2.2,5.5,3,7.4
				c0.2,0,0.6,0,1.2,0c0.5,0,0.9,0,1.2,0c0.7-1.8,1.7-4.3,2.9-7.4c1.4-3.6,2.4-6,2.9-7.4c0-0.1,0.1-0.2,0.2-0.3c0,0.3,0,0.5,0,0.7
				c0,1.1,0,3.5,0,7.2c0,3,0,5.4,0,7.2c0.3,0,1.4,0,3.4,0V18.6 M71.1,18.3c-0.3-0.1-0.7-0.1-1-0.1c-0.5,0.1-0.9,0.3-1.2,0.6
				c-0.3,0.4-0.5,0.8-0.5,1.3c0,0.4,0.1,0.9,0.4,1.2c0.3,0.4,0.7,0.6,1.1,0.7c0.4,0.1,0.9,0.1,1.3-0.1c0.4-0.2,0.8-0.5,1-0.8
				c0.2-0.3,0.3-0.7,0.2-1.1c0-0.4-0.2-0.8-0.5-1.1C71.8,18.6,71.5,18.4,71.1,18.3 M155.1,26.9v-2.7c-1.5,0-2.6,0-3.3,0
				c0-0.5,0-1.2,0-2.1c0-1.1,0-1.8,0-2.1c-0.7,0.2-1.3,0.4-1.7,0.5c-0.7,0.2-1.2,0.4-1.7,0.5c0,0.4,0,0.9,0,1.6c0,0.9,0,1.4,0,1.6
				h-4.9c0,0,0-0.5,0-1.3c0-0.5,0-0.9,0.1-1.3c0.1-0.4,0.2-0.7,0.4-0.9c0.2-0.3,0.5-0.5,0.8-0.6c0.7-0.3,1.5-0.2,2.5,0.2
				c0-1.3,0-2.2,0-2.9c-0.9-0.2-1.7-0.3-2.5-0.2c-0.9,0.1-1.7,0.4-2.4,0.8c-0.5,0.3-0.8,0.7-1.2,1.1c-0.3,0.4-0.6,0.9-0.7,1.5
				c-0.1,0.5-0.2,1.1-0.2,1.8c0,0.4,0,1,0,1.8c-1.1,0-1.9,0-2.3,0c0,0.8,0,1.7,0,2.7c0.3,0,0.7,0,1.2,0c0.5,0,0.9,0,1.2,0v11.4h3.4
				V26.9h4.9c0,1.6,0,4,0,7.2c0,1.4,0.3,2.5,0.9,3.2c0.3,0.4,0.7,0.7,1.2,0.9c0.4,0.2,0.9,0.3,1.5,0.3c1.1,0.1,2.2-0.1,3.1-0.5v-2.8
				c-0.4,0.3-0.8,0.4-1.3,0.5c-0.5,0.1-0.9,0-1.3-0.2c-0.4-0.2-0.6-0.7-0.7-1.3c0-0.3-0.1-0.8-0.1-1.3c0-0.6,0-1,0-1.3l0-4.7
				c0.4,0,0.9,0,1.7,0C154,26.9,154.6,26.9,155.1,26.9z"/>
			<path class="st0" d="M34.5,27.6V12.1H19l0,15.6H34.5z"/>
			<path class="st0" d="M17.4,27.6V12.1H1.8v15.6H17.4z"/>
		</g>
	</g>
</g>
</svg>
