<?xml version="1.0" encoding="utf-8"?>
<!-- Generator: Adobe Illustrator 22.1.0, SVG Export Plug-In . SVG Version: 6.00 Build 0)  -->
<svg version="1.1" id="Layer_1" xmlns="http://www.w3.org/2000/svg" xmlns:xlink="http://www.w3.org/1999/xlink" x="0px" y="0px"
	 viewBox="0 0 183.5 41.17" enable-background="new 0 0 183.5 41.17" xml:space="preserve">
<g>
	<polygon fill-rule="evenodd" clip-rule="evenodd" fill="#FFFFFF" points="42.799,9.137 42.799,1.715 50.685,1.715 50.685,9.137 
		42.799,9.137 	"/>
	<polygon fill-rule="evenodd" clip-rule="evenodd" fill="#FFFFFF" points="55.633,38.825 55.633,13.467 63.467,13.467 
		63.467,38.825 55.633,38.825 	"/>
	<polygon fill-rule="evenodd" clip-rule="evenodd" fill="#FFFFFF" points="4.504,1.715 12.338,1.715 12.338,38.825 4.504,38.825 
		4.504,1.715 	"/>
	<polygon fill-rule="evenodd" clip-rule="evenodd" fill="#FFFFFF" points="30.069,38.825 30.069,1.715 37.902,1.715 37.902,38.825 
		30.069,38.825 	"/>
	<polygon fill-rule="evenodd" clip-rule="evenodd" fill="#FFFFFF" points="17.286,27.074 17.286,1.715 25.12,1.715 25.12,27.074 
		17.286,27.074 	"/>
	<polygon fill-rule="evenodd" clip-rule="evenodd" fill="#FFFFFF" points="55.581,9.137 55.581,1.715 76.249,1.715 76.249,9.137 
		55.581,9.137 	"/>
	<path fill-rule="evenodd" clip-rule="evenodd" fill="#FFFFFF" d="M101.596,1.599v8.935h-2.139l0.14-6.365l0.025-0.899l-0.076,0.317
		c-0.114,0.505-0.127,0.569-0.228,0.949l-1.683,5.999h-1.924l-1.62-5.746l-0.393-1.595c0.039,0.709,0.039,0.86,0.076,1.708
		l0.114,5.632h-2.165V1.599h3.265l1.367,5.012l0.317,1.43c0.127-0.62,0.139-0.684,0.241-1.101l1.43-5.34H101.596L101.596,1.599z"/>
	<path fill-rule="evenodd" clip-rule="evenodd" fill="#FFFFFF" d="M103.305,5.8c0.037-0.456,0.101-1,0.696-1.469
		c0.607-0.48,1.392-0.582,2.164-0.582c0.81,0,2.771,0.19,2.771,1.898v3.847c0,0.709,0.038,0.81,0.19,1.038h-1.911V9.926
		c-0.494,0.367-1.05,0.785-2.025,0.785c-1.518,0-2.164-1.088-2.164-2.011c0-1.063,0.848-1.671,1.392-1.898
		c0.532-0.228,1.785-0.456,2.608-0.608V5.838c-0.026-0.304-0.051-0.81-0.746-0.81c-0.861,0-0.975,0.531-1.026,0.772H103.305
		L103.305,5.8z M105.772,7.787c-0.329,0.127-0.836,0.317-0.836,0.823c0,0.317,0.279,0.671,0.734,0.671
		c0.241,0,0.469-0.089,0.671-0.215c0.645-0.406,0.67-1.013,0.683-1.696L105.772,7.787L105.772,7.787z"/>
	<path fill-rule="evenodd" clip-rule="evenodd" fill="#FFFFFF" d="M111.049,8.306c0.532,0.519,1.189,0.912,1.924,0.912
		c0.468,0,1.177-0.152,1.177-0.646c0-0.228-0.14-0.317-0.253-0.379c-0.291-0.152-0.747-0.19-1.126-0.253
		c-0.292-0.051-0.595-0.114-0.887-0.202c-0.404-0.114-0.809-0.278-1.101-0.569c-0.29-0.291-0.494-0.747-0.494-1.24
		c0-1.088,0.937-2.214,2.784-2.214c1.558,0,2.494,0.67,2.95,0.987l-1.202,1.113c-0.621-0.481-1.203-0.658-1.659-0.658
		c-0.759,0-0.936,0.304-0.936,0.493c0,0.38,0.418,0.456,1.049,0.569c1.33,0.24,2.873,0.594,2.873,2.165
		c0,1.556-1.569,2.315-3.126,2.315c-1.835,0-2.784-0.886-3.201-1.278L111.049,8.306L111.049,8.306z"/>
	<path fill-rule="evenodd" clip-rule="evenodd" fill="#FFFFFF" d="M117.643,8.306c0.531,0.519,1.19,0.912,1.923,0.912
		c0.469,0,1.177-0.152,1.177-0.646c0-0.228-0.139-0.317-0.253-0.379c-0.291-0.152-0.747-0.19-1.127-0.253
		c-0.291-0.051-0.594-0.114-0.886-0.202c-0.405-0.114-0.81-0.278-1.101-0.569c-0.291-0.291-0.494-0.747-0.494-1.24
		c0-1.088,0.936-2.214,2.784-2.214c1.557,0,2.493,0.67,2.949,0.987l-1.203,1.113c-0.62-0.481-1.203-0.658-1.658-0.658
		c-0.759,0-0.936,0.304-0.936,0.493c0,0.38,0.417,0.456,1.049,0.569c1.329,0.24,2.873,0.594,2.873,2.165
		c0,1.556-1.568,2.315-3.126,2.315c-1.836,0-2.784-0.886-3.202-1.278L117.643,8.306L117.643,8.306z"/>
	<path fill-rule="evenodd" clip-rule="evenodd" fill="#FFFFFF" d="M123.869,5.8c0.038-0.456,0.101-1,0.696-1.469
		c0.606-0.48,1.392-0.582,2.164-0.582c0.81,0,2.771,0.19,2.771,1.898v3.847c0,0.709,0.038,0.81,0.19,1.038h-1.911V9.926
		c-0.494,0.367-1.051,0.785-2.025,0.785c-1.518,0-2.164-1.088-2.164-2.011c0-1.063,0.848-1.671,1.393-1.898
		c0.53-0.228,1.784-0.456,2.606-0.608V5.838c-0.025-0.304-0.05-0.81-0.747-0.81c-0.86,0-0.975,0.531-1.025,0.772H123.869
		L123.869,5.8z M126.338,7.787c-0.33,0.127-0.836,0.317-0.836,0.823c0,0.317,0.278,0.671,0.734,0.671
		c0.241,0,0.469-0.089,0.671-0.215c0.645-0.406,0.67-1.013,0.683-1.696L126.338,7.787L126.338,7.787z"/>
	<path fill-rule="evenodd" clip-rule="evenodd" fill="#FFFFFF" d="M137.044,8.977c-0.241,0.38-0.506,0.798-1.038,1.177
		c-0.506,0.355-1.152,0.595-1.898,0.595c-1.266,0-3.279-0.759-3.279-3.455c0-1.924,1.113-3.544,3.316-3.544
		c0.734,0,1.987,0.203,2.822,1.582l-1.443,0.823c-0.114-0.241-0.24-0.469-0.557-0.696c-0.19-0.127-0.43-0.228-0.734-0.228
		c-1.05,0-1.404,1.202-1.404,2c0,0.873,0.43,1.974,1.468,1.974c0.101,0,0.582,0,0.988-0.456c0.164-0.19,0.227-0.342,0.291-0.531
		L137.044,8.977L137.044,8.977z"/>
	<path fill-rule="evenodd" clip-rule="evenodd" fill="#FFFFFF" d="M139.3,1.586v3.038c0.278-0.279,0.848-0.874,1.898-0.874
		c0.48,0,1.012,0.139,1.404,0.469c0.583,0.494,0.684,1.113,0.684,1.974v4.341h-1.936V7.078c0-0.531-0.013-0.784-0.09-1.012
		c-0.189-0.595-0.708-0.659-0.911-0.659c-0.341,0-0.633,0.165-0.797,0.38C139.3,6.129,139.3,6.674,139.3,7.243v3.291h-1.95V1.586
		H139.3L139.3,1.586z"/>
	<path fill-rule="evenodd" clip-rule="evenodd" fill="#FFFFFF" d="M148.943,3.927h1.949v6.606h-1.949V9.9
		c-0.19,0.215-0.305,0.342-0.659,0.52c-0.392,0.202-0.822,0.303-1.253,0.303c-0.43,0-1.228-0.063-1.684-0.696
		c-0.34-0.481-0.404-0.874-0.404-1.949V3.927h1.961v4.1c0,0.291,0,0.582,0.152,0.785c0.113,0.152,0.379,0.329,0.771,0.329
		c0.114,0,0.38,0,0.671-0.164c0.418-0.253,0.431-0.582,0.443-0.937V3.927L148.943,3.927z"/>
	<path fill-rule="evenodd" clip-rule="evenodd" fill="#FFFFFF" d="M152.98,8.306c0.532,0.519,1.19,0.912,1.924,0.912
		c0.468,0,1.177-0.152,1.177-0.646c0-0.228-0.139-0.317-0.254-0.379c-0.29-0.152-0.746-0.19-1.126-0.253
		c-0.291-0.051-0.595-0.114-0.886-0.202c-0.405-0.114-0.809-0.278-1.1-0.569c-0.291-0.291-0.494-0.747-0.494-1.24
		c0-1.088,0.936-2.214,2.784-2.214c1.557,0,2.494,0.67,2.95,0.987l-1.203,1.113c-0.621-0.481-1.203-0.658-1.659-0.658
		c-0.759,0-0.936,0.304-0.936,0.493c0,0.38,0.418,0.456,1.05,0.569c1.329,0.24,2.873,0.594,2.873,2.165
		c0,1.556-1.57,2.315-3.126,2.315c-1.835,0-2.785-0.886-3.202-1.278L152.98,8.306L152.98,8.306z"/>
	<path fill-rule="evenodd" clip-rule="evenodd" fill="#FFFFFF" d="M165.407,8.85c-0.228,0.342-0.456,0.671-0.797,0.988
		c-0.569,0.531-1.43,0.936-2.494,0.936c-1.961,0-3.341-1.253-3.341-3.417c0-1.594,0.785-3.644,3.392-3.644
		c0.392,0,1.532,0.038,2.378,0.95c0.861,0.923,0.912,2.214,0.937,2.961h-4.72c-0.014,0.823,0.455,1.645,1.506,1.645
		c1.064,0,1.43-0.696,1.671-1.164L165.407,8.85L165.407,8.85z M163.471,6.408c-0.039-0.278-0.088-0.645-0.367-0.937
		c-0.24-0.24-0.607-0.367-0.95-0.367c-0.468,0-0.797,0.228-0.986,0.43c-0.265,0.291-0.329,0.595-0.392,0.873H163.471L163.471,6.408z
		"/>
	<path fill-rule="evenodd" clip-rule="evenodd" fill="#FFFFFF" d="M166.85,2.016h1.936v2.064h1.278v1.189h-1.291v2.974
		c-0.014,0.405-0.014,0.747,0.506,0.747l0.696-0.025v1.518c-0.417,0.064-0.67,0.102-1.025,0.102c-0.672,0-1.405-0.038-1.822-0.645
		c-0.267-0.392-0.279-0.861-0.279-1.493V5.257h-0.962v-1.19h0.962V2.016L166.85,2.016z"/>
	<path fill-rule="evenodd" clip-rule="evenodd" fill="#FFFFFF" d="M170.571,2.016h1.937v2.064h1.278v1.189h-1.291v2.974
		C172.482,8.648,172.482,8.99,173,8.99l0.696-0.025v1.518c-0.417,0.064-0.671,0.102-1.026,0.102c-0.67,0-1.405-0.038-1.822-0.645
		c-0.266-0.392-0.278-0.861-0.278-1.493V5.257h-0.962v-1.19h0.962V2.016L170.571,2.016z"/>
	<path fill-rule="evenodd" clip-rule="evenodd" fill="#FFFFFF" d="M175.152,8.306c0.531,0.519,1.19,0.912,1.923,0.912
		c0.469,0,1.178-0.152,1.178-0.646c0-0.228-0.139-0.317-0.254-0.379c-0.291-0.152-0.746-0.19-1.126-0.253
		c-0.292-0.051-0.596-0.114-0.886-0.202c-0.404-0.114-0.81-0.278-1.101-0.569c-0.291-0.291-0.493-0.747-0.493-1.24
		c0-1.088,0.936-2.214,2.783-2.214c1.558,0,2.494,0.67,2.95,0.987l-1.203,1.113c-0.62-0.481-1.202-0.658-1.658-0.658
		c-0.759,0-0.936,0.304-0.936,0.493c0,0.38,0.417,0.456,1.049,0.569c1.33,0.24,2.873,0.594,2.873,2.165
		c0,1.556-1.568,2.315-3.126,2.315c-1.835,0-2.784-0.886-3.202-1.278L175.152,8.306L175.152,8.306z"/>
	<polygon fill-rule="evenodd" clip-rule="evenodd" fill="#FFFFFF" points="94.029,15.665 94.029,24.6 91.802,24.6 91.802,15.665 
		94.029,15.665 	"/>
	<path fill-rule="evenodd" clip-rule="evenodd" fill="#FFFFFF" d="M97.762,18.589c0.19-0.203,0.317-0.355,0.658-0.519
		c0.304-0.127,0.734-0.24,1.202-0.24c0.393,0,0.835,0.076,1.178,0.266c0.695,0.367,0.873,0.962,0.873,1.987V24.6h-1.936v-3.721
		c0-0.595-0.012-0.81-0.088-0.987c-0.152-0.355-0.493-0.506-0.873-0.506c-1.025,0-1.025,0.823-1.025,1.646V24.6h-1.949v-6.593h1.961
		V18.589L97.762,18.589z"/>
	<path fill-rule="evenodd" clip-rule="evenodd" fill="#FFFFFF" d="M103.76,22.372c0.532,0.519,1.19,0.911,1.924,0.911
		c0.468,0,1.177-0.152,1.177-0.645c0-0.228-0.139-0.317-0.253-0.38c-0.291-0.152-0.747-0.19-1.126-0.253
		c-0.291-0.051-0.595-0.114-0.886-0.202c-0.405-0.115-0.81-0.278-1.101-0.57c-0.291-0.291-0.494-0.746-0.494-1.24
		c0-1.088,0.937-2.214,2.784-2.214c1.557,0,2.494,0.67,2.949,0.987l-1.202,1.114c-0.62-0.481-1.203-0.658-1.658-0.658
		c-0.759,0-0.936,0.304-0.936,0.494c0,0.38,0.418,0.455,1.05,0.569c1.329,0.241,2.873,0.595,2.873,2.165
		c0,1.556-1.569,2.316-3.126,2.316c-1.835,0-2.784-0.886-3.202-1.278L103.76,22.372L103.76,22.372z"/>
	<path fill-rule="evenodd" clip-rule="evenodd" fill="#FFFFFF" d="M110.253,16.082h1.936v2.063h1.278v1.189h-1.291v2.975
		c-0.012,0.405-0.012,0.746,0.506,0.746l0.696-0.026v1.519c-0.418,0.063-0.672,0.101-1.025,0.101c-0.671,0-1.405-0.038-1.823-0.645
		c-0.266-0.392-0.278-0.861-0.278-1.493v-3.189h-0.962v-1.19h0.962V16.082L110.253,16.082z"/>
	<path fill-rule="evenodd" clip-rule="evenodd" fill="#FFFFFF" d="M114.518,15.653h1.924v1.506h-1.924V15.653L114.518,15.653z
		 M114.518,17.98h1.924V24.6h-1.924V17.98L114.518,17.98z"/>
	<path fill-rule="evenodd" clip-rule="evenodd" fill="#FFFFFF" d="M118.428,16.082h1.936v2.063h1.278v1.189h-1.291v2.975
		c-0.012,0.405-0.012,0.746,0.506,0.746l0.697-0.026v1.519c-0.418,0.063-0.671,0.101-1.025,0.101c-0.671,0-1.405-0.038-1.823-0.645
		c-0.265-0.392-0.279-0.861-0.279-1.493v-3.189h-0.961v-1.19h0.961V16.082L118.428,16.082z"/>
	<path fill-rule="evenodd" clip-rule="evenodd" fill="#FFFFFF" d="M126.616,17.993h1.949V24.6h-1.949v-0.632
		c-0.19,0.215-0.304,0.342-0.658,0.519c-0.391,0.203-0.822,0.303-1.252,0.303c-0.431,0-1.228-0.063-1.684-0.696
		c-0.341-0.481-0.405-0.874-0.405-1.949v-4.151h1.962v4.101c0,0.291,0,0.582,0.151,0.785c0.114,0.151,0.38,0.329,0.772,0.329
		c0.114,0,0.38,0,0.671-0.165c0.417-0.253,0.431-0.582,0.443-0.937V17.993L126.616,17.993z"/>
	<path fill-rule="evenodd" clip-rule="evenodd" fill="#FFFFFF" d="M130.552,16.082h1.936v2.063h1.278v1.189h-1.291v2.975
		c-0.013,0.405-0.013,0.746,0.506,0.746l0.696-0.026v1.519c-0.418,0.063-0.67,0.101-1.025,0.101c-0.67,0-1.405-0.038-1.822-0.645
		c-0.266-0.392-0.279-0.861-0.279-1.493v-3.189h-0.962v-1.19h0.962V16.082L130.552,16.082z"/>
	<path fill-rule="evenodd" clip-rule="evenodd" fill="#FFFFFF" d="M140.968,22.917c-0.228,0.342-0.456,0.67-0.797,0.987
		c-0.569,0.531-1.43,0.937-2.493,0.937c-1.962,0-3.341-1.253-3.341-3.417c0-1.594,0.785-3.644,3.392-3.644
		c0.393,0,1.531,0.038,2.379,0.949c0.861,0.924,0.911,2.216,0.936,2.961h-4.72c-0.012,0.823,0.456,1.646,1.506,1.646
		c1.063,0,1.43-0.696,1.671-1.164L140.968,22.917L140.968,22.917z M139.032,20.474c-0.038-0.278-0.089-0.646-0.367-0.937
		c-0.241-0.24-0.608-0.367-0.95-0.367c-0.469,0-0.797,0.228-0.987,0.43c-0.266,0.291-0.329,0.596-0.393,0.874H139.032
		L139.032,20.474z"/>
	<path fill-rule="evenodd" clip-rule="evenodd" fill="#FFFFFF" d="M152.244,21.284c0,1.67-0.962,3.505-3.543,3.505
		c-1.86,0-3.556-1.063-3.556-3.505c0-2.025,1.278-3.632,3.809-3.493C151.649,17.943,152.244,20.081,152.244,21.284L152.244,21.284z
		 M147.435,19.98c-0.241,0.38-0.329,0.835-0.329,1.291c0,1.05,0.507,1.974,1.595,1.974c1.051,0,1.57-0.848,1.57-1.886
		c0-0.734-0.177-1.304-0.545-1.658c-0.405-0.38-0.86-0.392-1.138-0.368C148.029,19.373,147.7,19.562,147.435,19.98L147.435,19.98z"
		/>
	<path fill-rule="evenodd" clip-rule="evenodd" fill="#FFFFFF" d="M153.826,17.335c0-0.329,0.025-0.772,0.278-1.127
		c0.24-0.329,0.785-0.671,1.696-0.671c0.392,0,0.785,0.063,1.164,0.115v1.455h-0.469c-0.734,0-0.772,0.152-0.759,1.038h1.304v1.189
		h-1.292V24.6h-1.936v-5.265h-1.038v-1.189h1.051V17.335L153.826,17.335z"/>
	<polygon fill-rule="evenodd" clip-rule="evenodd" fill="#FFFFFF" points="89.354,29.856 96.238,29.856 96.238,31.628 
		93.922,31.628 93.922,38.803 91.682,38.803 91.682,31.628 89.354,31.628 89.354,29.856 	"/>
	<path fill-rule="evenodd" clip-rule="evenodd" fill="#FFFFFF" d="M102.379,37.12c-0.228,0.342-0.456,0.67-0.797,0.987
		c-0.57,0.531-1.43,0.937-2.493,0.937c-1.962,0-3.341-1.254-3.341-3.417c0-1.595,0.785-3.645,3.391-3.645
		c0.393,0,1.532,0.038,2.38,0.95c0.861,0.923,0.911,2.214,0.937,2.96h-4.721c-0.012,0.824,0.456,1.645,1.507,1.645
		c1.063,0,1.43-0.695,1.67-1.163L102.379,37.12L102.379,37.12z M100.443,34.678c-0.038-0.279-0.089-0.646-0.367-0.936
		c-0.241-0.242-0.607-0.368-0.95-0.368c-0.467,0-0.797,0.228-0.987,0.43c-0.265,0.292-0.328,0.595-0.392,0.874H100.443
		L100.443,34.678z"/>
	<path fill-rule="evenodd" clip-rule="evenodd" fill="#FFFFFF" d="M109.352,37.246c-0.241,0.38-0.506,0.798-1.038,1.177
		c-0.506,0.354-1.152,0.595-1.898,0.595c-1.266,0-3.278-0.759-3.278-3.455c0-1.924,1.113-3.544,3.316-3.544
		c0.734,0,1.987,0.202,2.822,1.582l-1.443,0.823c-0.114-0.241-0.241-0.469-0.557-0.696c-0.19-0.127-0.431-0.228-0.734-0.228
		c-1.051,0-1.405,1.203-1.405,2c0,0.874,0.43,1.974,1.468,1.974c0.102,0,0.582,0,0.987-0.455c0.164-0.19,0.228-0.342,0.291-0.533
		L109.352,37.246L109.352,37.246z"/>
	<path fill-rule="evenodd" clip-rule="evenodd" fill="#FFFFFF" d="M111.608,29.856v3.037c0.278-0.278,0.848-0.873,1.898-0.873
		c0.481,0,1.013,0.14,1.405,0.469c0.583,0.494,0.684,1.113,0.684,1.974v4.341h-1.937v-3.455c0-0.532-0.012-0.785-0.088-1.012
		c-0.189-0.594-0.709-0.659-0.911-0.659c-0.341,0-0.632,0.165-0.797,0.38c-0.253,0.341-0.253,0.886-0.253,1.455v3.29h-1.95v-8.947
		H111.608L111.608,29.856z"/>
	<path fill-rule="evenodd" clip-rule="evenodd" fill="#FFFFFF" d="M119.29,32.792c0.19-0.203,0.316-0.354,0.658-0.519
		c0.304-0.126,0.734-0.241,1.203-0.241c0.392,0,0.835,0.076,1.177,0.266c0.696,0.368,0.873,0.962,0.873,1.987v4.518h-1.936v-3.721
		c0-0.595-0.013-0.81-0.089-0.986c-0.152-0.354-0.493-0.506-0.873-0.506c-1.026,0-1.026,0.822-1.026,1.645v3.568h-1.949V32.21h1.962
		V32.792L119.29,32.792z"/>
	<path fill-rule="evenodd" clip-rule="evenodd" fill="#FFFFFF" d="M131.59,35.488c0,1.67-0.961,3.505-3.542,3.505
		c-1.861,0-3.557-1.063-3.557-3.505c0-2.025,1.278-3.632,3.809-3.493C130.995,32.146,131.59,34.285,131.59,35.488L131.59,35.488z
		 M126.782,34.184c-0.241,0.38-0.329,0.835-0.329,1.291c0,1.051,0.506,1.974,1.595,1.974c1.049,0,1.568-0.848,1.568-1.886
		c0-0.734-0.177-1.304-0.544-1.658c-0.405-0.379-0.86-0.392-1.139-0.367C127.376,33.577,127.048,33.766,126.782,34.184
		L126.782,34.184z"/>
	<polygon fill-rule="evenodd" clip-rule="evenodd" fill="#FFFFFF" points="134.805,29.868 134.805,38.803 132.856,38.803 
		132.856,29.868 134.805,29.868 	"/>
	<path fill-rule="evenodd" clip-rule="evenodd" fill="#FFFFFF" d="M143.196,35.488c0,1.67-0.962,3.505-3.543,3.505
		c-1.861,0-3.557-1.063-3.557-3.505c0-2.025,1.278-3.632,3.809-3.493C142.601,32.146,143.196,34.285,143.196,35.488L143.196,35.488z
		 M138.387,34.184c-0.241,0.38-0.33,0.835-0.33,1.291c0,1.051,0.507,1.974,1.595,1.974c1.05,0,1.569-0.848,1.569-1.886
		c0-0.734-0.177-1.304-0.545-1.658c-0.405-0.379-0.86-0.392-1.139-0.367C138.981,33.577,138.653,33.766,138.387,34.184
		L138.387,34.184z"/>
	<path fill-rule="evenodd" clip-rule="evenodd" fill="#FFFFFF" d="M148.474,37.93c-0.38,0.253-0.848,0.557-1.747,0.557
		c-0.544,0-1.076-0.14-1.506-0.431c-0.886-0.568-1.228-1.594-1.228-2.733c0-1.33,0.621-3.24,2.81-3.24
		c1.012,0,1.48,0.443,1.772,0.721v-0.62h1.822v6.352c-0.025,0.722-0.051,1.569-1.013,2.126c-0.671,0.405-1.658,0.506-2.252,0.506
		c-1.317,0-2.178-0.455-2.531-0.823c-0.519-0.519-0.507-1.189-0.507-1.544h2.012c0.026,0.291,0.051,0.709,0.57,0.949
		c0.127,0.064,0.316,0.126,0.62,0.126c1.177,0,1.177-0.695,1.177-1.24V37.93L148.474,37.93z M146.005,35.31
		c0,0.557,0.038,1.709,1.241,1.709c0.987,0,1.214-0.772,1.214-1.709c0-0.316-0.024-0.974-0.24-1.29
		c-0.151-0.24-0.506-0.507-1.063-0.482C146.233,33.577,146.005,34.374,146.005,35.31L146.005,35.31z"/>
	<path fill-rule="evenodd" clip-rule="evenodd" fill="#FFFFFF" d="M157.573,32.197l-2.33,7.137c-0.151,0.431-0.29,0.836-0.62,1.203
		c-0.455,0.494-0.898,0.519-1.404,0.531h-1.405v-1.544h0.683c0.317-0.012,0.81-0.012,0.81-0.48c0-0.165-0.05-0.33-0.088-0.468
		l-1.974-6.379h2.075l1.088,4.733l1.089-4.733H157.573L157.573,32.197z"/>
	<polygon fill-rule="evenodd" clip-rule="evenodd" fill="#FFFFFF" points="42.866,38.788 42.866,13.43 50.7,13.43 50.7,38.788 
		42.866,38.788 	"/>
</g>
</svg>
