<?xml version="1.0" encoding="utf-8"?>
<!-- Generator: Adobe Illustrator 22.1.0, SVG Export Plug-In . SVG Version: 6.00 Build 0)  -->
<svg version="1.1" id="Layer_1" xmlns="http://www.w3.org/2000/svg" xmlns:xlink="http://www.w3.org/1999/xlink" x="0px" y="0px"
	 viewBox="0 0 15 15" style="enable-background:new 0 0 15 15;" xml:space="preserve">
<style type="text/css">
	.st0{fill:#E7E7E7;}
	.st1{fill:#FFFFFF;}
</style>
<g>
	<path class="st0" d="M2.9,6C1,8,1.3,11.6,3.4,13.4c1.2,1,2.9,1.4,4.5,1.2c1.6-0.2,3.1-1,4.3-2c0.6-0.5,1.1-1,1.5-1.7
		c1.3-2.1,1.1-5-0.3-7c-1.7-2.6-4.9-4-7.9-3.3S0.2,4.2,0.4,7.2S3.2,13,6.3,13"/>
</g>
<path class="st1" d="M5.6,4.9C5.4,4.9,5.2,5,5.1,5.1c-0.3,0.3-0.3,0.7,0,1l1.4,1.4L5.1,8.9c-0.3,0.3-0.3,0.7,0,1
	c0.1,0.1,0.3,0.2,0.5,0.2c0.2,0,0.3-0.1,0.5-0.2l1.4-1.4l1.4,1.4C9,10,9.2,10.1,9.4,10.1c0.2,0,0.3-0.1,0.5-0.2c0.3-0.3,0.3-0.7,0-1
	L8.4,7.5l1.4-1.4c0.3-0.3,0.3-0.7,0-1c-0.3-0.3-0.7-0.3-1,0L7.5,6.5L6.1,5.1C5.9,5,5.8,4.9,5.6,4.9L5.6,4.9z"/>
</svg>
