<?xml version="1.0" encoding="utf-8"?>
<!-- Generator: Adobe Illustrator 22.1.0, SVG Export Plug-In . SVG Version: 6.00 Build 0)  -->
<svg version="1.1" id="Layer_1" xmlns="http://www.w3.org/2000/svg" xmlns:xlink="http://www.w3.org/1999/xlink" x="0px" y="0px"
	 viewBox="0 0 573 418" style="enable-background:new 0 0 573 418;" xml:space="preserve">
<style type="text/css">
	.st0{opacity:0.3;fill:url(#SVGID_1_);enable-background:new    ;}
	.st1{fill:#FFFFFF;}
	.st2{fill:#F0EDF3;}
	.st3{fill:#CDCCCE;}
	.st4{fill:#E7E6E8;}
	.st5{fill:#D25D60;}
	.st6{fill:#E5A866;}
	.st7{fill:#9FC768;}
	.st8{fill:#DCFFCC;}
	.st9{fill:#FFF7E9;}
	.st10{fill:#F1D2C4;}
	.st11{fill:#FFBA0A;}
	.st12{fill:#2708A0;}
	.st13{fill:#00A6ED;}
	.st14{fill:#F6511D;}
	.st15{fill-rule:evenodd;clip-rule:evenodd;fill:#CCA352;}
	.st16{fill-rule:evenodd;clip-rule:evenodd;fill:#FFBA0A;}
</style>
<linearGradient id="SVGID_1_" gradientUnits="userSpaceOnUse" x1="290.8497" y1="38.9448" x2="290.8497" y2="-346.9059" gradientTransform="matrix(1 0 0 1 0 354)">
	<stop  offset="0" style="stop-color:#FFFFFF;stop-opacity:0"/>
	<stop  offset="2.168840e-02" style="stop-color:#F6FCFE;stop-opacity:2.168840e-02"/>
	<stop  offset="0.1827" style="stop-color:#B6E5FA;stop-opacity:0.1827"/>
	<stop  offset="0.3416" style="stop-color:#7ED2F6;stop-opacity:0.3416"/>
	<stop  offset="0.4944" style="stop-color:#51C2F3;stop-opacity:0.4944"/>
	<stop  offset="0.64" style="stop-color:#2EB6F0;stop-opacity:0.64"/>
	<stop  offset="0.7764" style="stop-color:#15ADEE;stop-opacity:0.7764"/>
	<stop  offset="0.9001" style="stop-color:#05A8ED;stop-opacity:0.9001"/>
	<stop  offset="1" style="stop-color:#00A6ED"/>
</linearGradient>
<path class="st0" d="M25.1,299.5C-21.7,201.3,93.4,8.5,167,7.1c85.7-1.6,33.5,137,205.3,140.2c105.1,2,204,115.9,194.6,161
	C548.8,394.5,96.2,448.6,25.1,299.5z"/>
<g>
	<g>
		<rect x="238.4" y="212.5" class="st1" width="61.1" height="28.5"/>
	</g>
	<rect x="238.4" y="212.5" class="st2" width="61.1" height="28.5"/>
	<g>
		<polygon class="st3" points="238.4,221.4 299.5,221.4 299.5,214.6 296.1,211.6 241.8,211.6 238.4,214.6 		"/>
	</g>
	<g>
		<rect x="229.8" y="237" class="st4" width="78.3" height="5.7"/>
	</g>
	<g>
		<path class="st4" d="M150.2,199.8v9.9c0,3.3,2.7,5.9,5.9,5.9h225.7c3.3,0,5.9-2.7,5.9-5.9v-9.9H150.2z"/>
	</g>
	<g>
		<path class="st2" d="M381.8,68.1H156.1c-3.3,0-5.9,2.7-5.9,5.9v126h237.5V74C387.7,70.7,385,68.1,381.8,68.1z"/>
	</g>
	<g>
		<polygon class="st2" points="159.1,121.5 159.1,76.8 378.8,76.8 378.8,104.3 		"/>
	</g>
	<g>
		<rect x="159.1" y="76.8" class="st2" width="219.8" height="5.6"/>
	</g>
	<g>
		<path class="st5" d="M164.5,79.6c0,0.8-0.7,1.5-1.5,1.5s-1.5-0.7-1.5-1.5s0.7-1.5,1.5-1.5S164.5,78.8,164.5,79.6z"/>
	</g>
	<g>
		<path class="st6" d="M169.8,79.6c0,0.8-0.7,1.5-1.5,1.5s-1.5-0.7-1.5-1.5s0.7-1.5,1.5-1.5S169.8,78.8,169.8,79.6z"/>
	</g>
	<g>
		<path class="st7" d="M175.2,79.6c0,0.8-0.7,1.5-1.5,1.5s-1.5-0.7-1.5-1.5s0.7-1.5,1.5-1.5C174.6,78.1,175.2,78.8,175.2,79.6z"/>
	</g>
	<rect x="159.5" y="88.1" class="st1" width="219.1" height="103.6"/>
	<rect x="183.8" y="93.4" class="st2" width="185.2" height="4.1"/>
	<g>
		<rect x="168.8" y="103.5" class="st2" width="6" height="1.4"/>
		<rect x="168.8" y="112.6" class="st2" width="6" height="1.4"/>
		<rect x="168.8" y="121.7" class="st2" width="6" height="1.4"/>
		<rect x="168.8" y="130.8" class="st2" width="6" height="1.4"/>
		<rect x="168.8" y="139.9" class="st2" width="6" height="1.4"/>
		<rect x="168.8" y="149.1" class="st2" width="6" height="1.4"/>
		<rect x="168.8" y="158.2" class="st2" width="6" height="1.4"/>
		<rect x="168.8" y="167.3" class="st2" width="6" height="1.4"/>
		<rect x="168.8" y="176.4" class="st2" width="6" height="1.4"/>
		<rect x="168.8" y="93.4" class="st2" width="6" height="4.1"/>
	</g>
	<rect x="183.8" y="114" class="st8" width="24.4" height="27.4"/>
	<rect x="232.6" y="132.2" class="st8" width="27.1" height="44.9"/>
	<rect x="234" y="103.5" class="st8" width="26.4" height="19.6"/>
	<rect x="287.3" y="122.4" class="st8" width="55.6" height="9.3"/>
	<rect x="182.5" y="158.2" class="st9" width="50.8" height="9.8"/>
	<rect x="287.3" y="131.7" class="st9" width="26.4" height="27.8"/>
	<rect x="314.5" y="140.6" class="st8" width="28.5" height="37.2"/>
	<rect x="208.9" y="131.5" class="st1" width="24.4" height="18.2"/>
	<rect x="259.7" y="158.9" class="st9" width="109.3" height="9.8"/>
	<rect x="313.8" y="159.6" class="st8" width="29.2" height="8.9"/>
	<g>
		<rect x="182.5" y="103.5" class="st2" width="1.4" height="74.3"/>
		<rect x="182.5" y="103.5" class="st2" width="186.6" height="1.4"/>
		<rect x="182.5" y="112.6" class="st2" width="186.6" height="1.4"/>
		<rect x="182.5" y="121.7" class="st2" width="186.6" height="1.4"/>
		<rect x="182.5" y="130.8" class="st2" width="186.6" height="1.4"/>
		<rect x="182.5" y="139.9" class="st2" width="186.6" height="1.4"/>
		<rect x="182.5" y="149.1" class="st2" width="186.6" height="1.4"/>
		<rect x="182.5" y="158.2" class="st2" width="186.6" height="1.4"/>
		<rect x="182.5" y="167.3" class="st2" width="186.6" height="1.4"/>
		<rect x="182.5" y="176.4" class="st2" width="186.6" height="1.4"/>
		<rect x="207.5" y="103.5" class="st2" width="1.4" height="74.3"/>
		<rect x="232.6" y="103.5" class="st2" width="1.4" height="74.3"/>
		<rect x="259.1" y="103.5" class="st2" width="1.4" height="74.3"/>
		<rect x="286" y="103.5" class="st2" width="1.4" height="74.3"/>
		<rect x="313.8" y="103.5" class="st2" width="1.4" height="74.3"/>
		<rect x="341.6" y="103.5" class="st2" width="1.4" height="74.3"/>
		<rect x="367.7" y="103.5" class="st2" width="1.4" height="74.3"/>
	</g>
</g>
<g>
	<path class="st2" d="M167.1,393.7H121c-9.2,0-16.7-7.5-16.7-16.7V247.6h79.4v129.5C183.7,386.3,176.3,393.7,167.1,393.7z
		 M106.3,249.6v127.5c0,8.1,6.6,14.7,14.7,14.7h46.1c8.1,0,14.7-6.6,14.7-14.7V249.6H106.3z"/>
	<path class="st2" d="M425,393.7h-46.1c-9.2,0-16.7-7.5-16.7-16.7V247.6h79.4v129.5C441.7,386.3,434.2,393.7,425,393.7z
		 M364.2,249.6v127.5c0,8.1,6.6,14.7,14.7,14.7H425c8.1,0,14.7-6.6,14.7-14.7V249.6H364.2z"/>
	<rect x="386.8" y="242.8" class="st4" width="65.8" height="11.5"/>
	<rect x="92.4" y="242.8" class="st2" width="294.4" height="11.5"/>
</g>
<g>
	<path class="st4" d="M239.3,404.2h-12c-4.8,0-9.3-2.3-12.2-6.2l-61.5-84.3l27.4-2.1l61.7,85.7c0.9,1.3,1.1,3,0.3,4.5
		C242.4,403.3,240.9,404.2,239.3,404.2z M157.4,315.5l59.3,81.4c2.4,3.4,6.4,5.4,10.6,5.4h12c0.9,0,1.6-0.5,2.1-1.3
		c0.4-0.8,0.3-1.7-0.2-2.4l-61-84.8L157.4,315.5z"/>
	<path class="st4" d="M163.7,404.2h-12c-1.6,0-3.1-0.9-3.8-2.3s-0.6-3.2,0.3-4.5l61.7-85.7l27.4,2.1l-61.5,84.3
		C173.1,401.9,168.5,404.2,163.7,404.2z M210.9,313.8l-61,84.8c-0.5,0.7-0.6,1.6-0.2,2.4c0.4,0.8,1.2,1.3,2.1,1.3h12
		c4.2,0,8.1-2,10.6-5.4l59.3-81.4L210.9,313.8z"/>
	<rect x="211.6" y="308.9" class="st4" width="28.6" height="11.5"/>
	<rect x="149.6" y="308.9" class="st4" width="62" height="11.5"/>
</g>
<g>
	<path class="st10" d="M220.8,231.4c0,0,49.2,16,84.4,15.2c0,0,3.8-0.8,7.9,1.4c1.9,1,6.8,1.1,4-1.3s-0.3-2.7,2.5-2.7
		c2.5,0,5.6,0.1,5.6,0.1s0.3-3.4-8.2-3.5c-8.6-0.1-9.1,0.8-12.2,0.2c-2.4-0.5-37.5-9.3-37.5-9.3l-42.2-14.3
		C224.9,217.4,218,225.6,220.8,231.4z"/>
	<path class="st1" d="M230.8,219.3c-3.8-1.7-7.8-3.7-12-6c-4.7-2.7-9-5.4-12.7-8c2,1.9,4.4,4.6,6.6,8.2c4,6.8,5.1,13.3,5.4,17.1
		l6,1.7C222.1,231.1,226.2,217.7,230.8,219.3z"/>
	<path class="st10" d="M278.7,361.8l1.1,5.3c0,0,0.5,3.3,0.1,4.6c-0.4,1.3,0.2,1.9,0.2,1.9l9.6,3.8l0.7-4c0,0-3.3-2.4-3.7-3.5
		c-0.3-1.1-0.5-4-0.5-4l-0.5-6.5L278.7,361.8z"/>
	<path class="st11" d="M289.3,382.3c-5.2-0.2-10.8-2.2-10.1-6.3c0.3-1.5,0.8-4.5,0.8-4.5c2.6,3.2,10.1,2.7,10.4,2
		c0,0,20.4,3.9,20.8,6.2c0,0.1,0,0.9,0,1C310.5,383,293.9,382.4,289.3,382.3z"/>
	<path class="st10" d="M282.5,389.7c0,0,4.4,6.4,4.6,7.7c0.2,1.3,1.1,2,1.1,2l10.7,1.3c0,0-3.6-5.2-7.6-11.3c-1-1.4-3.3-6-3.3-6
		L282.5,389.7z"/>
	<path class="st11" d="M298.3,405.4c-4.9,0.8-9.2,0.6-10.1-3.3c-0.3-1.2-1.1-4.7-1.1-4.7c2.2,2.1,9.1,0.9,8.9-0.6
		c0,0,22.8-0.4,24.2,1.7c0.1,0.1,0.4,0.9,0.4,1C320.9,401.9,303.2,404.6,298.3,405.4z"/>
	<path class="st12" d="M203.6,271.4c32.6-5.4,82-6.4,89.2,11c4.8,11.5-5.1,84.6-5.1,84.6s-6.3,2-8.7,0.3c-2.1-5.3,3.1-71-7-72.2
		c-19.8-2.2-59.4,10-59.4,10L203.6,271.4z"/>
	<path class="st12" d="M173.7,302.1c10,17.8,62.3,27.7,67.4,34.1c8.4,10.4,41.4,53.6,41.4,53.6c2.1,1.4,8.1-1.1,7.1-3
		c0,0-31.5-64.9-35.6-69.1c-6.9-7.1-29.9-28.6-43.9-35.7c-4.6-2.4-18.2-9.9-18.2-9.9S157.4,272.8,173.7,302.1z"/>
	<path class="st13" d="M188.8,300.8c0,4.2-0.2,5.1-0.8,5.6c-2.5,1.9-10-3.7-12-5.4c-16.1-13.7-12.8-60.7,11.3-91.3
		c4.2-5.3,13.6-17.3,20.6-15.2c7.8,2.4,10.4,21.7,14.6,52.1c0.2,1.3,0.3,5.1,1.6,9.9c2.7,10,3.6,13.5,4.1,16.8
		c2.2,14.8-18.5,36.2-30.1,32.5c-1.9-0.6-6.7-2.9-9.7-14.7C188.7,293.5,188.8,296.9,188.8,300.8z"/>
	<path class="st10" d="M223.6,170.5c1.1,0.2,1.7,2.1,2.3,4.5c2.6,10.1,3.8,15.2,0.9,18.2c-0.9,0.9-1.9,1.4-2.1,1.5
		c-3.2,1.5-4.7-0.2-8.5,1.1c-3.8,1.3-2.6,4.7-4.9,8.2c-1.6,2.4-7.3-3.7-7.5-8.3c0-3-0.8-5.5,0.3-7.6c0.7-1.2,1.6-1,3.8-2.9
		c1-0.9,1.7-1.6,3.3-3.3c4.2-4.7,5.2-6,6.3-6.9c0.3-0.2,0.2-0.1,0.8-0.6C222.3,171.3,222.8,170.4,223.6,170.5z"/>
	<path class="st14" d="M219.7,167c10.3,1.4,5.8,7.7,3,9.5c-4,2.5-7.4,7.9-7.4,7.9c-7.4-1.7-4.9,5.8-2.7,5.7
		c3.2-0.1-7.9,4.1-4.6,13.5c1.6,4.5,0.9,6.6-0.5,7.8c-2.4,2-7-2.8-14.1-2.1c-1,0.1-5.1,0.6-8.1,3.3c-7.3,6.8,0.9,19.8-7.2,29.3
		c-2.6,3.1-3.8,2-5.2,4.6c-4.4,8.3,7.5,18.6,3,26.6c-0.3,0.5-2.4,3.7-5.8,4.5c-1,0.2-2.2,0-3.8-0.9c-11-6.6-13.6-24.8-4.9-35.5
		c7.3-9.1,5.4-15,1.8-28.7c-3.6-13.7,23.1-18.5,26.9-26.1C201.8,163.1,205.5,164.9,219.7,167z"/>
	<path class="st10" d="M197.6,255.5c16.1,19.4,21.9,28.9,45.1,26.5c23.2-2.4,32.1-9.3,38.4-6.2c6.2,3.2,3-1,2.2-1.6
		c-0.7-0.7-6.1-5-9.4-5.7c0,0-3-1.1-7.6,1.1c-2.8,1.2-31.2,9.4-39.6-0.9c-5.9-7.1-16.3-22.9-16.3-22.9l-11,0.1L197.6,255.5z"/>
	<path class="st1" d="M192.9,215.3c7.6,6.8,17.4,30.4,17.4,30.4s-12.7,2.9-12.7,9.8c0,0-10.9-10.6-12.9-18.4
		C182.7,229.5,188.6,211.5,192.9,215.3z"/>
</g>
<g>
	<g id="Bell_2_">
		<g>
			<path class="st15" d="M364,149.4c3.7,8.4,12,14.3,21.8,14.3c9.7,0,18.1-5.9,21.8-14.3H364z"/>
		</g>
	</g>
	<g id="Bell_3_">
		<g>
			<path class="st16" d="M438.1,130.4c0,0-9.5-9.5-9.5-38c0-23.6-6.5-44-27.7-50.3c2.4-3.2,3.9-7.2,3.9-11.5c0-10.5-8.5-19-19-19
				c-10.5,0-19,8.5-19,19c0,4.3,1.5,8.3,3.9,11.5C349.5,48.4,343,68.8,343,92.4c0,28.5-9.5,38-9.5,38c-5.2,0-9.5,4.3-9.5,9.5
				c0,5.2,4.3,9.5,9.5,9.5h104.6c5.2,0,9.5-4.3,9.5-9.5C447.6,134.7,443.3,130.4,438.1,130.4z M376.3,30.6c0-5.2,4.3-9.5,9.5-9.5
				c5.2,0,9.5,4.3,9.5,9.5c0,5.2-4.3,9.5-9.5,9.5C380.5,40.1,376.3,35.9,376.3,30.6z"/>
		</g>
	</g>
</g>
</svg>
