<?xml version="1.0" encoding="utf-8"?>
<!-- Generator: Adobe Illustrator 22.1.0, SVG Export Plug-In . SVG Version: 6.00 Build 0)  -->
<svg version="1.1" id="Layer_1" xmlns="http://www.w3.org/2000/svg" xmlns:xlink="http://www.w3.org/1999/xlink" x="0px" y="0px"
	 viewBox="0 0 48 48.8" style="enable-background:new 0 0 48 48.8;" xml:space="preserve">
<style type="text/css">
	.st0{fill:#100B00;}
</style>
<g>
	<g>
		<path class="st0" d="M37,11c2.8,0,5-2.5,5-5.5S39.8,0,37,0s-5,2.5-5,5.5S34.2,11,37,11z M37,2c1.7,0,3,1.6,3,3.5S38.7,9,37,9
			s-3-1.6-3-3.5S35.3,2,37,2z"/>
		<path class="st0" d="M37,29.4c-0.6,0-1,0.4-1,1V47c0,0.6,0.4,1,1,1s1-0.4,1-1V30.4C38,29.8,37.6,29.4,37,29.4z"/>
		<path class="st0" d="M41,13h-6c-0.6,0-1,0.4-1,1s0.4,1,1,1h6c2.3,0,5,1,5,4v8.1c0,1.1-0.9,1.9-2,1.9v-9c0-0.6-0.4-1-1-1
			s-1,0.4-1,1v27c0,0.6,0.4,1,1,1s1-0.4,1-1V31c2.2,0,4-1.8,4-3.9V19C48,15.5,45.1,13,41,13z"/>
		<path class="st0" d="M11,11c2.8,0,5-2.5,5-5.5S13.8,0,11,0S6,2.5,6,5.5S8.2,11,11,11z M11,2c1.7,0,3,1.6,3,3.5S12.7,9,11,9
			S8,7.4,8,5.5S9.3,2,11,2z"/>
		<path class="st0" d="M11,29.4c-0.6,0-1,0.4-1,1V47c0,0.6,0.4,1,1,1s1-0.4,1-1V30.4C12,29.8,11.6,29.4,11,29.4z"/>
		<path class="st0" d="M7,15h6c0.6,0,1-0.4,1-1s-0.4-1-1-1H7c-4.1,0-7,2.5-7,6v8.1C0,29.2,1.8,31,4,31v16c0,0.6,0.4,1,1,1s1-0.4,1-1
			V20c0-0.6-0.4-1-1-1s-1,0.4-1,1v9c-1.1,0-2-0.9-2-1.9V19C2,16,4.7,15,7,15z"/>
		<path class="st0" d="M24,15c3.3,0,6-2.9,6-6.5S27.3,2,24,2s-6,2.9-6,6.5S20.7,15,24,15z M24,4c2.2,0,4,2,4,4.5S26.2,13,24,13
			s-4-2-4-4.5S21.8,4,24,4z"/>
		<path class="st0" d="M24,32.2c-0.6,0-1,0.4-1,1V47c0,0.6,0.4,1,1,1s1-0.4,1-1V33.2C25,32.6,24.6,32.2,24,32.2z"/>
		<path class="st0" d="M28,17.1H20c-3.9,0-7,3.1-7,6.9v8c0,2.2,1.8,4,4,4v11c0,0.6,0.4,1,1,1s1-0.4,1-1V24c0-0.6-0.4-1-1-1
			s-1,0.4-1,1v10c-1.1,0-2-0.9-2-2v-8c0-2.7,2.3-4.9,5-4.9H28c2.8,0,5,2.2,5,4.9v8c0,1.1-0.9,2-2,2V24c0-0.6-0.4-1-1-1s-1,0.4-1,1
			v23c0,0.6,0.4,1,1,1s1-0.4,1-1V36c2.2,0,4-1.8,4-4v-8C35,20.2,31.8,17.1,28,17.1z"/>
	</g>
</g>
</svg>
