<?xml version="1.0" encoding="utf-8"?>
<!-- Generator: Adobe Illustrator 22.1.0, SVG Export Plug-In . SVG Version: 6.00 Build 0)  -->
<svg version="1.1" id="Layer_1" xmlns="http://www.w3.org/2000/svg" xmlns:xlink="http://www.w3.org/1999/xlink" x="0px" y="0px"
	 viewBox="0 0 77.3 75.6" style="enable-background:new 0 0 77.3 75.6;" xml:space="preserve">
<style type="text/css">
	.st0{fill:#5BB702;}
</style>
<path class="st0" d="M38.7-0.5c9.3,0,18.5,0,27.8,0c1.6,0,3.1,0.1,4.5,0.9c3.4,1.7,5.3,4.5,5.5,8.3c0.1,1.9,0,3.8,0,5.7
	c0,16.8,0,33.6,0,50.4c0,0.9,0,1.8-0.2,2.6c-0.9,4.6-4.6,7.7-9.3,7.7c-18.9,0-37.8,0-56.7,0C5,75,1,71,1,65.7c0-18.9,0-37.8,0-56.7
	c0-5.4,4-9.4,9.5-9.4C19.9-0.5,29.3-0.5,38.7-0.5z M38.8,4.2c-9.1,0-18.2,0-27.3,0c-0.6,0-1.1,0-1.7,0c-2.2,0.2-4,2-4.2,4.2
	c-0.1,0.5,0,1.1,0,1.7c0,18.1,0,36.1,0,54.2c0,0.4,0,0.9,0,1.3c0.1,2.5,1.7,4.3,4.2,4.6c0.5,0.1,1.1,0.1,1.7,0.1
	c18.2,0,36.4,0,54.6,0c0.3,0,0.6,0,0.8,0c3-0.1,4.8-2,4.9-4.9c0-0.4,0-0.8,0-1.2c0-18,0-36,0-54.1c0-0.5,0-1,0-1.5
	c-0.2-2.6-2.1-4.4-4.7-4.5c-0.5,0-1,0-1.5,0C56.7,4.2,47.8,4.2,38.8,4.2z"/>
<path class="st0" d="M35.2,47.8c0.4-0.7,0.7-1.2,1-1.7c4.5-7.8,9-15.6,13.6-23.5c0.2-0.4,0.5-0.9,0.8-1.3c0.8-0.9,2-1.1,3-0.5
	c1,0.6,1.4,1.8,1,2.9c-0.1,0.4-0.3,0.7-0.5,1c-5.3,9.3-10.7,18.5-16,27.8c-1,1.7-2.4,2-3.9,0.7c-3.5-3.2-7-6.4-10.5-9.7
	c-1.1-1.1-1.2-2.4-0.3-3.4c0.9-1,2.3-1.1,3.5,0c2.3,2.1,4.6,4.2,6.9,6.3C34.2,46.9,34.6,47.3,35.2,47.8z"/>
</svg>
