<?xml version="1.0" encoding="utf-8"?>
<!-- Generator: Adobe Illustrator 22.1.0, SVG Export Plug-In . SVG Version: 6.00 Build 0)  -->
<svg version="1.1"
	 id="Layer_1" xmlns:cc="http://creativecommons.org/ns#" xmlns:dc="http://purl.org/dc/elements/1.1/" xmlns:inkscape="http://www.inkscape.org/namespaces/inkscape" xmlns:rdf="http://www.w3.org/1999/02/22-rdf-syntax-ns#" xmlns:sodipodi="http://sodipodi.sourceforge.net/DTD/sodipodi-0.dtd" xmlns:svg="http://www.w3.org/2000/svg"
	 xmlns="http://www.w3.org/2000/svg" xmlns:xlink="http://www.w3.org/1999/xlink" x="0px" y="0px" viewBox="0 0 60.9 38.9"
	 style="enable-background:new 0 0 60.9 38.9;" xml:space="preserve">
<style type="text/css">
	.st0{fill:#100B00;}
</style>
<g transform="translate(0,-952.36218)">
	<path class="st0" d="M60.4,971.8c0-0.5-0.3-1.1-0.6-1.4l-16-17c-0.7-0.8-2-0.9-2.8-0.1c-0.8,0.7-0.8,2.1-0.1,2.8l12.8,13.6H2.4
		c-1.1,0-2,0.9-2,2s0.9,2,2,2h51.4l-12.8,13.6c-0.7,0.8-0.7,2.1,0.1,2.8c0.8,0.8,2.1,0.7,2.8-0.1l16-17
		C60.3,972.7,60.4,972.2,60.4,971.8L60.4,971.8z"/>
</g>
</svg>
