<?xml version="1.0" encoding="utf-8"?>
<!-- Generator: Adobe Illustrator 22.1.0, SVG Export Plug-In . SVG Version: 6.00 Build 0)  -->
<svg version="1.1" id="Layer_1" xmlns="http://www.w3.org/2000/svg" xmlns:xlink="http://www.w3.org/1999/xlink" x="0px" y="0px"
	 viewBox="0 0 382.9 385.7" style="enable-background:new 0 0 382.9 385.7;" xml:space="preserve">
<style type="text/css">
	.st0{fill:#1A76BC;}
	.st1{fill:#FFFFFF;}
</style>
<polygon class="st0" points="6.6,43.5 6.6,334.9 224,377.6 224,6 "/>
<path class="st0" d="M237.5,182.9v97.7h123c0,0,18-2.5,16.5-26.1l0.1-127.7l-90.1,61C287,187.8,261.5,208.4,237.5,182.9z"/>
<path class="st0" d="M237.5,81.4h124c0,0,14.6-1,14.6,14.9L264,170.9l-26.5-16.9V81.4z"/>
<path class="st1" d="M115.8,122.7c-27.3,0-49.5,29.5-49.5,65.9c0,36.4,22.2,65.9,49.5,65.9c27.3,0,49.5-29.5,49.5-65.9
	C165.3,152.2,143.2,122.7,115.8,122.7z M115.2,227.5c-13.1,0-23.8-17.5-23.8-39.1c0-21.6,10.7-39.1,23.8-39.1
	c13.1,0,23.8,17.5,23.8,39.1C139.1,210,128.4,227.5,115.2,227.5z"/>
</svg>
