<?xml version="1.0" encoding="utf-8"?>
<!-- Generator: Adobe Illustrator 22.1.0, SVG Export Plug-In . SVG Version: 6.00 Build 0)  -->
<svg version="1.1" id="_x2014_ÎÓÈ_x5F_1" xmlns="http://www.w3.org/2000/svg" xmlns:xlink="http://www.w3.org/1999/xlink"
	 x="0px" y="0px" viewBox="0 0 574 454" style="enable-background:new 0 0 574 454;" xml:space="preserve">
<style type="text/css">
	.st0{opacity:0.3;fill:url(#SVGID_1_);enable-background:new    ;}
	.st1{fill:#FFFFFF;}
	.st2{fill:#F0EDF3;}
	.st3{fill:#CDCCCE;}
	.st4{fill:#E7E6E8;}
	.st5{fill:#D25D60;}
	.st6{fill:#E5A866;}
	.st7{fill:#9FC768;}
	.st8{fill:#DCFFCC;}
	.st9{fill:#FFF7E9;}
	.st10{fill:#737D80;}
	.st11{fill:#F1D2C4;}
	.st12{fill:#7DB52B;}
	.st13{fill:#161303;}
	.st14{fill:#2708A0;}
	.st15{fill:#FFBA0A;}
	.st16{fill:#00A6ED;}
	.st17{fill:#F6511D;}
	.st18{fill:#FF4949;}
	.st19{fill:#FFC950;}
</style>
<linearGradient id="SVGID_1_" gradientUnits="userSpaceOnUse" x1="291.7118" y1="28.685" x2="291.7118" y2="414.515" gradientTransform="matrix(1 0 0 -1 0 454)">
	<stop  offset="0" style="stop-color:#FFFFFF;stop-opacity:0"/>
	<stop  offset="2.168840e-02" style="stop-color:#F6FCFE;stop-opacity:2.168840e-02"/>
	<stop  offset="0.1827" style="stop-color:#B6E5FA;stop-opacity:0.1827"/>
	<stop  offset="0.3416" style="stop-color:#7ED2F6;stop-opacity:0.3416"/>
	<stop  offset="0.4944" style="stop-color:#51C2F3;stop-opacity:0.4944"/>
	<stop  offset="0.64" style="stop-color:#2EB6F0;stop-opacity:0.64"/>
	<stop  offset="0.7764" style="stop-color:#15ADEE;stop-opacity:0.7764"/>
	<stop  offset="0.9001" style="stop-color:#05A8ED;stop-opacity:0.9001"/>
	<stop  offset="1" style="stop-color:#00A6ED"/>
</linearGradient>
<path class="st0" d="M25.9,331.9c-46.8-98.2,68.3-291,141.9-292.4c85.7-1.6,33.5,137,205.3,140.2c105.1,2,204,115.9,194.6,161
	C549.6,426.9,97,481,25.9,331.9z"/>
<g>
	<g>
		<rect x="209.2" y="244.9" class="st1" width="61.1" height="28.5"/>
	</g>
	<rect x="209.2" y="244.9" class="st2" width="61.1" height="28.5"/>
	<g>
		<polygon class="st3" points="209.2,253.8 270.3,253.8 270.3,247 266.9,244 212.6,244 209.2,247 		"/>
	</g>
	<g>
		<rect x="200.6" y="269.4" class="st4" width="78.3" height="5.7"/>
	</g>
	<g>
		<path class="st4" d="M121,232.2v9.9c0,3.3,2.7,5.9,5.9,5.9h225.7c3.3,0,5.9-2.7,5.9-5.9v-9.9H121z"/>
	</g>
	<g>
		<path class="st2" d="M352.6,100.5H126.9c-3.3,0-5.9,2.7-5.9,5.9v126h237.5v-126C358.5,103.1,355.8,100.5,352.6,100.5z"/>
	</g>
	<g>
		<polygon class="st2" points="129.9,153.9 129.9,109.2 349.6,109.2 349.6,136.7 		"/>
	</g>
	<g>
		<rect x="129.9" y="109.2" class="st2" width="219.8" height="5.6"/>
	</g>
	<g>
		<path class="st5" d="M135.3,112c0,0.8-0.7,1.5-1.5,1.5s-1.5-0.7-1.5-1.5s0.7-1.5,1.5-1.5S135.3,111.2,135.3,112z"/>
	</g>
	<g>
		<path class="st6" d="M140.6,112c0,0.8-0.7,1.5-1.5,1.5s-1.5-0.7-1.5-1.5s0.7-1.5,1.5-1.5S140.6,111.2,140.6,112z"/>
	</g>
	<g>
		<path class="st7" d="M146,112c0,0.8-0.7,1.5-1.5,1.5s-1.5-0.7-1.5-1.5s0.7-1.5,1.5-1.5C145.4,110.5,146,111.2,146,112z"/>
	</g>
	<rect x="130.3" y="120.5" class="st1" width="219.1" height="103.6"/>
	<rect x="154.6" y="125.8" class="st2" width="185.2" height="4.1"/>
	<g>
		<rect x="139.6" y="135.9" class="st2" width="6" height="1.4"/>
		<rect x="139.6" y="145" class="st2" width="6" height="1.4"/>
		<rect x="139.6" y="154.1" class="st2" width="6" height="1.4"/>
		<rect x="139.6" y="163.2" class="st2" width="6" height="1.4"/>
		<rect x="139.6" y="172.3" class="st2" width="6" height="1.4"/>
		<rect x="139.6" y="181.5" class="st2" width="6" height="1.4"/>
		<rect x="139.6" y="190.6" class="st2" width="6" height="1.4"/>
		<rect x="139.6" y="199.7" class="st2" width="6" height="1.4"/>
		<rect x="139.6" y="208.8" class="st2" width="6" height="1.4"/>
		<rect x="139.6" y="125.8" class="st2" width="6" height="4.1"/>
	</g>
	<rect x="154.6" y="146.4" class="st8" width="24.4" height="27.4"/>
	<rect x="203.4" y="164.6" class="st8" width="27.1" height="44.9"/>
	<rect x="204.8" y="135.9" class="st8" width="26.4" height="19.6"/>
	<rect x="258.1" y="154.8" class="st8" width="55.6" height="9.3"/>
	<rect x="153.3" y="190.6" class="st9" width="50.8" height="9.8"/>
	<rect x="258.1" y="164.1" class="st9" width="26.4" height="27.8"/>
	<rect x="285.3" y="173" class="st8" width="28.5" height="37.2"/>
	<rect x="179.7" y="163.9" class="st1" width="24.4" height="18.2"/>
	<rect x="230.5" y="191.3" class="st9" width="109.3" height="9.8"/>
	<rect x="284.6" y="192" class="st8" width="29.2" height="8.9"/>
	<g>
		<rect x="153.3" y="135.9" class="st2" width="1.4" height="74.3"/>
		<rect x="153.3" y="135.9" class="st2" width="186.6" height="1.4"/>
		<rect x="153.3" y="145" class="st2" width="186.6" height="1.4"/>
		<rect x="153.3" y="154.1" class="st2" width="186.6" height="1.4"/>
		<rect x="153.3" y="163.2" class="st2" width="186.6" height="1.4"/>
		<rect x="153.3" y="172.3" class="st2" width="186.6" height="1.4"/>
		<rect x="153.3" y="181.5" class="st2" width="186.6" height="1.4"/>
		<rect x="153.3" y="190.6" class="st2" width="186.6" height="1.4"/>
		<rect x="153.3" y="199.7" class="st2" width="186.6" height="1.4"/>
		<rect x="153.3" y="208.8" class="st2" width="186.6" height="1.4"/>
		<rect x="178.3" y="135.9" class="st2" width="1.4" height="74.3"/>
		<rect x="203.4" y="135.9" class="st2" width="1.4" height="74.3"/>
		<rect x="229.9" y="135.9" class="st2" width="1.4" height="74.3"/>
		<rect x="256.8" y="135.9" class="st2" width="1.4" height="74.3"/>
		<rect x="284.6" y="135.9" class="st2" width="1.4" height="74.3"/>
		<rect x="312.4" y="135.9" class="st2" width="1.4" height="74.3"/>
		<rect x="338.5" y="135.9" class="st2" width="1.4" height="74.3"/>
	</g>
</g>
<g>
	<path class="st2" d="M167.9,426.1h-46.1c-9.2,0-16.7-7.5-16.7-16.7V280h79.4v129.5C184.5,418.7,177.1,426.1,167.9,426.1z
		 M107.1,282v127.5c0,8.1,6.6,14.7,14.7,14.7h46.1c8.1,0,14.7-6.6,14.7-14.7V282H107.1z"/>
	<path class="st2" d="M425.8,426.1h-46.1c-9.2,0-16.7-7.5-16.7-16.7V280h79.4v129.5C442.5,418.7,435,426.1,425.8,426.1z M365,282
		v127.5c0,8.1,6.6,14.7,14.7,14.7h46.1c8.1,0,14.7-6.6,14.7-14.7V282H365z"/>
	<rect x="387.6" y="275.2" class="st4" width="65.8" height="11.5"/>
	<rect x="93.2" y="275.2" class="st2" width="294.4" height="11.5"/>
</g>
<g>
	<path class="st10" d="M252.2,259.9c0.2,2.6,17.2,12.2,20.7,12.2c3.4,0,18.4-21.8,18.4-21.8l-8.8-5.3l-12,11.1l-15.5,0.3
		L252.2,259.9z"/>
	<polygon class="st1" points="304.8,402.9 308.7,410.9 313.7,403.6 312.6,399.3 308.6,397.3 	"/>
	<path class="st11" d="M239.2,252.8c-1.5,2.4-1.3,6.1-0.2,6.7c0.6,0.3,0.8,0.1,1.4-1.1c0.3-0.6,0.9-2,0.6-3.2
		C240.6,253.8,239.2,252.8,239.2,252.8z"/>
	<polygon class="st1" points="254.1,418.9 261.1,415.2 261.4,410.7 252.3,408.7 	"/>
	<path class="st12" d="M303.9,310.5c-6.6,20.4-20.9,12.2-24,21.1c-5,14.5,25.5,72.6,25.5,72.6c4.2-5.1,5.6-5.4,7.2-4.9
		c0,0-2.3-58.3-0.2-64.8c2.4-7.3,38.9-1.1,39.6-6.4c1.3-10.4-1.5-19.1-1.5-19.1l-31.8-29.3L303.9,310.5z"/>
	<path class="st11" d="M252.2,261.5c-5.7-1.5-11.9-2.4-11.7-3.8c0.1-1,0.5-1.1,1.8-0.8c2.9,0.5-0.6-1.1-0.6-1.1l-1.1,0.1
		c-1.2-1.9-3.3-2.2,0.4-4.9c1.8-1.4,3.7,0,6,1c3.4,1.5,4.1,3.3,5.6,4.7C254,258,252.2,261.5,252.2,261.5z"/>
	<path class="st1" d="M254.5,262.4c-0.9-0.3-2.5-0.6-4.5-1.2c-2.3-0.7,0.1-5.3,2.4-4.8l4.2,2.4L254.5,262.4z"/>
	<path class="st13" d="M314,403.1c-2-1-4.1,3.1-9.3,9.6c-3.9,4.9-12.6,10.2-10.8,11.3c2,1.3,23.5-8.2,23.5-15.2
		C317.4,408,315.1,403.6,314,403.1z"/>
	<path class="st12" d="M288.9,291.8c-36.6,7-60.6,23.8-54.8,55.9c2.4,13.4,18.1,64.7,18.1,64.7c3.8-1.1,6.2-1.1,9.2-1.1
		c0,0-2.9-53,1.8-68.6c4.6-15.3,35.5-12.5,53.9-13c0,0,15.8-20.6,14.3-37.2C330,276,288.9,291.8,288.9,291.8z"/>
	<path class="st11" d="M273.7,196.2c0.3,7.7,4.3,20.6,11.1,20.1c7.2-0.6,6,3.4,6,3.4s15.1-2.1,12.8-5.8c-2.8-4.4-4.7-6.8-5.4-9.8
		c-1.6-7.3-3.8-13.3-9.2-14.7C281.4,187.3,273.5,191.3,273.7,196.2z"/>
	<path class="st1" d="M293,216.9l-3.6,2.9c0,0,8.8-0.8,13.6-2.8c2.8-1.1,3.7-2,4-3c0,0-6-0.7-8.2,0.9
		C296.7,216.4,293,216.9,293,216.9z"/>
	<path class="st13" d="M272.5,191.2c-2.2,3.6,0.8,9.6,7.7,14c0,0,1.9-4.3,5.6-1.6c4.5,3.3,1.3,5.1,2,5.5c6.8,3.5,4.3,4.1,6.1,3.7
		c2.9-0.7,7.2-2.8,7.5-5.2c0.2-2.4-2.4-5-2.9-10c-0.5-5.1-2.7-11.1-7.9-12.5C285.4,183.8,275.3,186.6,272.5,191.2z"/>
	<path class="st11" d="M243.3,259.3c-2.5-0.6-4.5-1.4-4.1-2.4c0.4-0.9,3.6,0,3.6,0L243.3,259.3z"/>
	<path class="st13" d="M232.6,423.3c21,0.1,28.4,0.2,29.4,0.1c0.9,0,0.6-5.3-0.8-8.3c0,0-6.9,1.6-12,2.8c-5.1,1.2-14.7,2.3-16.5,2.4
		C230.9,420.5,231.1,423.3,232.6,423.3z"/>
	<path class="st11" d="M221,272.5c-4.8-3.9-4.8-2.9-6.3-1.8c-1,0.8-2.7-0.9-0.6-4c2.8-4.2,8.7-2.1,9.6-1.3c0.9,0.9,2.9,5.1,2.9,5.1
		L221,272.5z"/>
	<path class="st14" d="M337.1,262.4c-7.3-22.5-5.7-27-13.4-41.3c-7.8-14.4-32.2-2.9-32.2-2.9s-1.4,1.4-2,1.6
		c-21.2,8.3-26.7,26.5-34.8,35.4c-4.7,5.1-16.9,8.3-26.1,8.9c-6.5,0.4-8.7,3-7.6,7.9c0,0,20,0,27.5,0c10.9,0,31.6-12.8,31.6-12.8
		s5.6,33.1,2.4,58.8c0,0,6.8-2.7,19.9-4.5c10.3-1.5,25.5-2.7,25.5-2.7l-1.9-21.1l7.7,20.4c0,0,9.6-1.2,16.8-1.3
		C350.6,309,344.3,284.7,337.1,262.4z"/>
</g>
<g>
	<path class="st2" d="M377.4,426.2h-12c-4.8,0-9.3-2.3-12.2-6.2l-61.5-84.3l27.4-2.1l61.7,85.7c0.9,1.3,1.1,3,0.3,4.5
		C380.5,425.3,379,426.2,377.4,426.2z M295.5,337.4l59.3,81.4c2.4,3.4,6.4,5.4,10.6,5.4h12c0.9,0,1.6-0.5,2.1-1.3
		c0.4-0.8,0.3-1.7-0.2-2.4l-61-84.8L295.5,337.4z"/>
	<path class="st2" d="M301.8,426.2h-12c-1.6,0-3.1-0.9-3.8-2.3c-0.7-1.4-0.6-3.2,0.3-4.5l61.7-85.7l27.4,2.1L314,420
		C311.2,423.8,306.6,426.2,301.8,426.2z M349,335.7l-61,84.8c-0.5,0.7-0.6,1.6-0.2,2.4s1.2,1.3,2.1,1.3h12c4.2,0,8.1-2,10.6-5.4
		l59.3-81.4L349,335.7z"/>
	<rect x="349.7" y="330.8" class="st4" width="28.6" height="11.5"/>
	<rect x="287.7" y="330.8" class="st2" width="62" height="11.5"/>
</g>
<g>
	<path class="st2" d="M126.6,430.1h-12c-4.8,0-9.3-2.3-12.2-6.2l-61.5-84.3l27.4-2.1l61.7,85.7c0.9,1.3,1.1,3,0.3,4.5
		C129.7,429.2,128.2,430.1,126.6,430.1z M44.7,341.4l59.3,81.4c2.4,3.4,6.4,5.4,10.6,5.4h12c0.9,0,1.6-0.5,2.1-1.3
		c0.4-0.8,0.3-1.7-0.2-2.4l-61-84.8L44.7,341.4z"/>
	<path class="st2" d="M51,430.1H39c-1.6,0-3.1-0.9-3.8-2.3s-0.6-3.2,0.3-4.5l61.7-85.7l27.4,2.1L63.1,424
		C60.4,427.8,55.8,430.1,51,430.1z M98.2,339.7l-61,84.8c-0.5,0.7-0.6,1.6-0.2,2.4c0.4,0.8,1.2,1.3,2.1,1.3h12c4.2,0,8.1-2,10.6-5.4
		l59.3-81.4L98.2,339.7z"/>
	<rect x="98.9" y="334.8" class="st4" width="28.6" height="11.5"/>
	<rect x="36.9" y="334.8" class="st2" width="62" height="11.5"/>
</g>
<g>
	<path class="st11" d="M96.9,262.7c0,0,49.5,15.1,84.7,13.6c0,0,3.8-0.9,7.9,1.3c1.9,1,6.8,1,4-1.4s-0.4-2.7,2.4-2.7
		c2.5,0,5.6,0,5.6,0s0.2-3.4-8.3-3.3c-8.6,0.1-9.1,1-12.2,0.4c-2.4-0.5-37.7-8.6-37.7-8.6l-42.5-13.5
		C100.8,248.6,94,256.9,96.9,262.7z"/>
	<path class="st1" d="M106.7,250.4c0,0-8.6-1.4-11.3-8.4c-2.7-7-6.6-14.6-6.6-14.6s3.8,28,5.4,34.6l6,1.6
		C98.2,262.4,102.1,248.9,106.7,250.4z"/>
	<path class="st11" d="M166,373.1l1.8,5.1c0,0,0.9,3.2,0.7,4.5s0.5,1.9,0.5,1.9l10,2.5l0.2-4.1c0,0-3.6-1.9-4.1-3
		c-0.4-1.1-1-3.9-1-3.9l-1.4-6.4L166,373.1z"/>
	<path class="st15" d="M179.2,392c-5.2,0.5-11-0.8-10.8-4.9c0.1-1.5,0.2-4.6,0.2-4.6c3,2.8,10.4,1.3,10.6,0.6c0,0,20.7,1.2,21.4,3.4
		c0,0.1,0.1,0.9,0.1,1C200.3,389.9,183.8,391.5,179.2,392z"/>
	<path class="st11" d="M174.5,414c0,0,4.5,6.3,4.8,7.6c0.2,1.3,1.1,2,1.1,2l10.7,1.1c0,0-3.7-5.1-7.9-11.1c-1-1.4-3.4-5.9-3.4-5.9
		L174.5,414z"/>
	<path class="st15" d="M190.6,429.4c-4.9,0.9-9.2,0.8-10.2-3.1c-0.3-1.2-1.2-4.7-1.2-4.7c2.2,2.1,9.1,0.7,8.9-0.8
		c0,0,22.8-0.9,24.2,1.1c0.1,0.1,0.4,0.9,0.4,1C213.1,425.3,195.5,428.4,190.6,429.4z"/>
	<path class="st14" d="M79.6,293.4c31.6-9.7,80.4-17.2,89.9-0.9c6.3,10.8,6.1,84.5,6.1,84.5s-6,2.8-8.6,1.4
		c-2.8-5-6.3-70.8-16.5-70.6c-19.9,0.4-57.6,17.8-57.6,17.8L79.6,293.4z"/>
	<path class="st14" d="M63.7,328.9c10.4,17.6,62.9,26.3,68.2,32.5c8.6,10.2,42.6,52.6,42.6,52.6c2.1,1.4,8.1-1.3,7-3.2
		c0,0-33-64.2-37.2-68.3c-7.1-6.9-30.5-27.9-44.7-34.7c-4.7-2.3-18.4-9.5-18.4-9.5S46.7,300,63.7,328.9z"/>
	<path class="st16" d="M75.9,335.5c0,0-15.9,11-31.3-25.3c-12.8-30.2-7.2-48.2,9.9-77c16-27,32.4-12.2,36.8-0.9
		c0.5,1.2,0.3,17.7,4,35.4c1.9,8.9,4.3,18.9,9.2,25.7c5.8,7.9-24.8,38.3-24.8,38.3l-12.3-15.4L75.9,335.5z"/>
	<path class="st11" d="M107.4,211.4c0.9,17.7-1.4,19.2-4.8,20.2s-4.6-1-8.6-0.3c-4,0.6-3.3,4.2-6.2,7.3c-2,2.1-6.6-4.9-6-9.4
		c0.7-4.5-0.5-8.3,5.8-9.6s5.5-5.2,12-9C106.1,206.7,107.4,211.4,107.4,211.4z"/>
	<path class="st17" d="M104.1,203.3c9.8,3.6,4,8.8,0.9,9.9c-4.4,1.6-8.9,6.1-8.9,6.1c-6.9-3.2-6,4.6-3.9,5c3.1,0.6-8.6,2.3-7.4,12.2
		s-7.3,11-14,5.1c-6.1-5.3-13.5-11.3-18.2-4.3s-11.9,23-13.4,31.7c-2.5,14.2,1.3,29.9,1.3,29.9c-3.8-4.6-5.9,5.9-12,0.3
		c-9.3-8.8-8-27.1,2.8-35.7c9.1-7.3,8.5-13.5,7.9-27.7s26.5-13.2,31.9-19.8C87.5,195.7,90.7,198.3,104.1,203.3z"/>
	<path class="st11" d="M70.9,275.5c18.5,17.1,25.5,25.8,48.2,20.3s30.6-13.5,37.2-11.2c6.6,2.3,2.8-1.4,2-1.9
		c-0.8-0.6-6.7-4.2-10.1-4.4c0,0-3.1-0.7-7.4,2.1c-2.6,1.6-29.7,13.4-39.4,4.4c-6.8-6.3-19.2-20.5-19.2-20.5l-10.9,1.6L70.9,275.5z"
		/>
	<path class="st1" d="M60.9,236.3c8.4,5.7,21.3,27.8,21.3,27.8s-12.2,4.6-11.3,11.4c0,0-12.2-9.1-15.2-16.5
		C52.7,251.7,56.1,233.1,60.9,236.3z"/>
</g>
<g>
	<g>
		<polygon class="st1" points="402.7,414.3 403,418.2 398.4,423.2 393.9,420.6 394,418.6 393.4,414.3 		"/>
		<path class="st1" d="M448,415.8l0.5,3.9l-4.9,4.1c0,0-3.5-1.9-3.8-2.1c-0.3-0.1-2.1-6.3-2.1-6.3L448,415.8z"/>
		<path class="st11" d="M390.2,218.5l-9,17c0,0-9.1,5.7-6.5,12.1c2.6,6.3,8.8,7.2,10.5,6.2s11.3-34.7,11.3-34.7L390.2,218.5z"/>
		<path class="st17" d="M460.7,235.5c-5.3,47.5-11.2,60.3-16.9,94.8c-3,18.6,0.3,44.4,4.7,85.3c0.4,3.5-13,3.3-14,0
			c-9-30.9-20.4-71.3-22.5-86.8c-2.7-19.7-0.7-58.2-0.7-58.2l12.1-42.9L460.7,235.5z"/>
		<path class="st17" d="M407.8,220.2c-19.8,43.5-22.9,77.5-25,96.2c-3.1,26.8,4,49.9,8.6,97.6c0.3,3,11.9,3,12,0
			c1.1-43.5,1.2-89.8,8-107c5.8-14.6,18.3-35.1,18.3-35.1l14.2-39.3L407.8,220.2z"/>
		<polygon class="st15" points="407.7,159.1 391.4,210.8 382.2,228.5 396.3,229.7 425.5,182.5 437,146.8 		"/>
		<path class="st1" d="M432.6,246.4c-21.3,0-25.3-7.5-25.3-7.5l0.4-56.4c0,0,5.1-27.4,4.9-27.6c-0.2-0.2,7.4-7.7,7.2-4.4
			s-0.4,6.7,5.3,7.2c5.7,0.6,14-4.7,14-4.7l-2.3,8.9L432.6,246.4z"/>
		<polygon class="st18" points="382.2,228.5 386.5,220.2 400.8,222.4 396.3,229.7 		"/>
		<path class="st15" d="M419.8,153.5c-2.6,4.5-6,29.6-6.1,37.9c-0.1,8.3-1.1,29-3.2,43.2c-1.1,7.6-17,47.2-17,47.2
			s-10.1-4.7-10.1-11.7c0-8.5,20.1-33.4,18-82c-0.6-12.8,5.4-31.3,8.2-35.9s5.6-6.9,5.6-6.9l4.4,0.9L419.8,153.5z"/>
		<path class="st15" d="M431.2,159.9c0,0,0.5,118.9-3.6,132.6c0,0,39.7-6.8,42.8-17.2c10.9-36.2,0.1-103.4-13.7-114.9
			c-12.5-10.4-15.5-12.3-15.5-12.3l-3.7,11.1L431.2,159.9z"/>
		<path class="st18" d="M424.1,147.6c-4.4,6.3-5.2,8.2-5.2,8.2s-2.6-1.4-5-1.3c0,0,5.2-9.5,9.3-11
			C427.4,142,424.1,147.6,424.1,147.6z"/>
		<path class="st11" d="M439.6,146.2c-13.5-4.9,9-21.5-6.4-27.3s-21.3,17.4-19.6,21.9c1.7,4.4,7.8,1,8.4,5.2
			c0.1,0.6-0.2,5.2-0.1,5.8c0.3,3.6,1.2,4.7,4.8,5l0,0c2.9,0.3,5.8-0.1,8.6-1.2l4-1.5L439.6,146.2z"/>
		<path class="st18" d="M443.7,148.5c-1.4,5.4-1.9,7.5-7.2,13.2c0,0-4.4-1.9-5.4-1.8c0,0,3.1-3.2,6.3-8.3c2-3.2,2.2-5.4,2.2-5.4
			L443.7,148.5z"/>
		<path class="st18" d="M461.5,245.8l1.1,5c0,0-6.4,4.1-24.8,7.7V253C437.7,253.1,455,249.6,461.5,245.8z"/>
		<polygon class="st18" points="394.4,240.4 397.4,246.4 392.2,248.9 390.5,243.4 		"/>
		<path class="st13" d="M418.9,123.1c2.2-1,4.8-1.3,5.2,0c0.4,1.3,3.2-0.4,5,1.3c1.8,1.7-0.7,9,0.6,9.5c1.4,0.5,3.5-0.6,3.6,1.8
			c0.1,2.4-3.9,3.5-3.9,3.5s0.6,5.3,4.5,4s6.8-3.4,8.6-7.7c1.9-4.3,2.6-12.2-4.2-16.6c-6.9-4.4-12.3-3-15.9-2
			C419.1,117.8,418.9,123.1,418.9,123.1z"/>
		<path class="st11" d="M374.5,246.7c0.5,4.9,0.5,5.9,1.9,5.6s1.2-9.5,1.2-9.5L374.5,246.7z"/>
		<path class="st13" d="M394.8,427.5c4.9-0.9,9.2-1.5,8.7-5.5c-0.1-1.2-0.5-3.9-0.5-3.9c-2,1.5-8.7,1.9-9,0.5
			c0,0-24.1,7.8-24.8,10.2c0,0.1,0,0.9,0,1.1C369.8,432.2,389.9,428.4,394.8,427.5z"/>
		<path class="st13" d="M438.9,432.9c1.8-0.6,10.6-4.8,10.1-8.8c-0.1-1.2-0.6-4.9-0.6-4.9c-1.3,2.8-8.3,2.7-8.6,2.5
			c0,0-12.1,7.3-12.7,9.7c0,0.1,0,0.9,0,1.1C427.7,434.9,434.2,434.6,438.9,432.9z"/>
	</g>
	<path class="st19" d="M390.6,198.1c0,0,34.7-27.1,47-36.6c5.9-4.6,26.1,6.7,13.3,21.4c-8.9,10.3-40.2,23.3-48.7,26.6
		c-1.7,0.7-16.8-0.2-21.9,0v-9.2L390.6,198.1z"/>
	<path class="st11" d="M334.4,207.1l10.2-1.5c0,0-1.8-1.7-2.6-3c-0.8-1.3,0.2-2.8,1.4-1.2c1.2,1.6,5.7,3.6,5.7,3.6l31.3-4.6v9.2
		c-11.4-0.2-27.6-1.4-30.6-0.6C333.5,213.4,334.4,207.1,334.4,207.1z"/>
	<polygon class="st18" points="388.7,198.5 388.7,209.6 378.8,209.5 378.8,200.3 	"/>
</g>
</svg>
