<?xml version="1.0" encoding="utf-8"?>
<!-- Generator: Adobe Illustrator 22.1.0, SVG Export Plug-In . SVG Version: 6.00 Build 0)  -->
<svg version="1.1" id="_x2014_ÎÓÈ_x5F_1" xmlns="http://www.w3.org/2000/svg" xmlns:xlink="http://www.w3.org/1999/xlink"
	 x="0px" y="0px" viewBox="0 0 574 454" style="enable-background:new 0 0 574 454;" xml:space="preserve">
<style type="text/css">
	.st0{opacity:0.3;fill:url(#SVGID_1_);enable-background:new    ;}
	.st1{fill:#FFFFFF;}
	.st2{fill:#F0EDF3;}
	.st3{fill:#CDCCCE;}
	.st4{fill:#E7E6E8;}
	.st5{fill:#D25D60;}
	.st6{fill:#E5A866;}
	.st7{fill:#9FC768;}
	.st8{clip-path:url(#SVGID_3_);}
	.st9{fill:#FBD2C4;}
	.st10{fill:#FFBA0A;}
	.st11{fill:#5BB702;}
	.st12{fill:#2708A0;}
	.st13{fill:#FFB400;}
	.st14{fill:#F1D2C4;}
	.st15{fill:#F6511D;}
	.st16{fill:#100B00;}
	.st17{fill:#2C15B7;}
	.st18{fill:#00A6ED;}
	.st19{fill:#737D80;}
	.st20{fill:#7DB52B;}
	.st21{fill:#161303;}
	.st22{fill:#FF4949;}
	.st23{fill:#FFC950;}
</style>
<linearGradient id="SVGID_1_" gradientUnits="userSpaceOnUse" x1="290.9214" y1="68.001" x2="290.9214" y2="-317.8497" gradientTransform="matrix(1 0 0 1 0 354)">
	<stop  offset="0" style="stop-color:#FFFFFF;stop-opacity:0"/>
	<stop  offset="2.168840e-02" style="stop-color:#F6FCFE;stop-opacity:2.168840e-02"/>
	<stop  offset="0.1827" style="stop-color:#B6E5FA;stop-opacity:0.1827"/>
	<stop  offset="0.3416" style="stop-color:#7ED2F6;stop-opacity:0.3416"/>
	<stop  offset="0.4944" style="stop-color:#51C2F3;stop-opacity:0.4944"/>
	<stop  offset="0.64" style="stop-color:#2EB6F0;stop-opacity:0.64"/>
	<stop  offset="0.7764" style="stop-color:#15ADEE;stop-opacity:0.7764"/>
	<stop  offset="0.9001" style="stop-color:#05A8ED;stop-opacity:0.9001"/>
	<stop  offset="1" style="stop-color:#00A6ED"/>
</linearGradient>
<path class="st0" d="M25.1,328.6C-21.7,230.4,93.4,37.6,167,36.2c85.7-1.6,33.5,137,205.3,140.2c105.1,2,204,115.9,194.6,161
	C548.8,423.6,96.2,477.7,25.1,328.6z"/>
<g>
	<g>
		<rect x="208.4" y="241.6" class="st1" width="61.1" height="28.5"/>
	</g>
	<rect x="208.4" y="241.6" class="st2" width="61.1" height="28.5"/>
	<g>
		<polygon class="st3" points="208.4,250.5 269.5,250.5 269.5,243.7 266.1,240.7 211.8,240.7 208.4,243.7 		"/>
	</g>
	<g>
		<rect x="199.8" y="266.1" class="st4" width="78.3" height="5.7"/>
	</g>
	<g>
		<path class="st4" d="M120.2,228.9v9.9c0,3.3,2.7,5.9,5.9,5.9h225.7c3.3,0,5.9-2.7,5.9-5.9v-9.9H120.2z"/>
	</g>
	<g>
		<path class="st2" d="M351.8,97.2H126.1c-3.3,0-5.9,2.7-5.9,5.9v126h237.5v-126C357.7,99.8,355,97.2,351.8,97.2z"/>
	</g>
	<g>
		<polygon class="st2" points="129.1,150.6 129.1,105.9 348.8,105.9 348.8,133.4 		"/>
	</g>
	<g>
		<rect x="129.1" y="105.9" class="st2" width="219.8" height="5.6"/>
	</g>
	<g>
		<path class="st5" d="M134.5,108.7c0,0.8-0.7,1.5-1.5,1.5s-1.5-0.7-1.5-1.5s0.7-1.5,1.5-1.5S134.5,107.9,134.5,108.7z"/>
	</g>
	<g>
		<path class="st6" d="M139.8,108.7c0,0.8-0.7,1.5-1.5,1.5s-1.5-0.7-1.5-1.5s0.7-1.5,1.5-1.5S139.8,107.9,139.8,108.7z"/>
	</g>
	<g>
		<path class="st7" d="M145.2,108.7c0,0.8-0.7,1.5-1.5,1.5s-1.5-0.7-1.5-1.5s0.7-1.5,1.5-1.5C144.6,107.2,145.2,107.9,145.2,108.7z"
			/>
	</g>
	<rect x="129.5" y="117.2" class="st1" width="219.1" height="103.6"/>
	<rect x="129.5" y="117.2" class="st1" width="219.1" height="103.6"/>
	<rect x="178.9" y="160.6" class="st1" width="24.4" height="18.2"/>
	<path class="st2" d="M219.1,190.8h-54.5c-2.2,0-4-1.8-4-4v-54.5c0-2.2,1.8-4,4-4h54.5c2.2,0,4,1.8,4,4v54.5
		C223.1,189,221.3,190.8,219.1,190.8z"/>
	<g>
		<defs>
			<path id="SVGID_2_" d="M219.1,190.8h-54.5c-2.2,0-4-1.8-4-4v-54.5c0-2.2,1.8-4,4-4h54.5c2.2,0,4,1.8,4,4v54.5
				C223.1,189,221.3,190.8,219.1,190.8z"/>
		</defs>
		<clipPath id="SVGID_3_">
			<use xlink:href="#SVGID_2_"  style="overflow:visible;"/>
		</clipPath>
		<g class="st8">
			<g>
				<g>
					<path class="st9" d="M216.6,258.5c-0.4-2.8-7.3-15.6-11.6-25l7.6-3.3l7.6,27.5c0,0,3.3,3,5,3.4s0.9,1.7-0.5,1.6s-3.4-1-3.4-1
						l2.4,9C223.9,270.5,219,273.5,216.6,258.5z"/>
					<polygon class="st10" points="213.3,231.3 205.8,234.7 202,226.6 211.3,222.6 					"/>
				</g>
				<g>
					<polygon class="st1" points="206.1,408.9 205.3,412.7 205.3,414.5 201.2,416.6 197.3,411.9 197.8,408.3 					"/>
					<path class="st1" d="M166.2,407.3c0,0-2,5.5-2.3,5.6c-0.3,0.2-3.6,1.7-3.6,1.7l-4.2-4l0.7-3.5L166.2,407.3z"/>
					<path class="st11" d="M189.9,239.4l8.4,39.3c0,0-0.4,34.8-4,52.3c-2.8,13.8-15.4,49.5-25.2,76.7c-1.1,2.9-13.1,2.3-12.6-0.8
						c6.3-36.5,10.8-59.5,9.1-76.4c-3.1-31.4-7.7-43.2-9.7-86.2L189.9,239.4z"/>
					<path class="st11" d="M171.2,242.6l10.5,36.2c0,0,10.1,19.1,14.4,32.6c5.1,15.8,2.5,57.4,1,96.6c-0.1,2.7,10.3,3.4,10.8,0.7
						c6.9-42.6,14.6-63,13.3-87.3c-0.8-16.9-1.7-47.7-16.9-88L171.2,242.6z"/>
					<path class="st1" d="M181.6,179.5l-1.6-8.2c0,0,7.1,5.2,12.3,5c5.1-0.1,5.1-3.2,5.2-6.2c0-3,6.4,4.2,6.3,4.3
						c-0.2,0.2,2.8,25.1,2.8,25.1l-2.9,50.8c0,0-4,6.5-23.2,5.3L181.6,179.5z"/>
					<path class="st12" d="M198,166.3l4-0.5c0,0,2.3,2.3,4.6,6.5s6.6,21.3,5.3,32.8c-4.7,43.5,12,67.1,11.5,74.7
						c-0.4,6.3-9.7,9.9-9.7,9.9s-12-36.5-12.6-43.4c-1-12.9-0.8-31.5-0.4-39c0.3-7.5-1.2-30.2-3.3-34.4L198,166.3z"/>
					<path class="st12" d="M181.1,177l-2.7-10.2c0,0-2.8,1.6-14.6,10.2c-13,9.6-26.6,69.4-18.9,102.5c2.2,9.6,37.5,17.9,37.5,17.9
						c-2.9-12.5,4.3-119.4,4.3-119.4L181.1,177z"/>
					<path class="st13" d="M194.9,163.7c3.6,1.6,7.7,10.4,7.7,10.4c-2.2-0.3-4.6,0.9-4.6,0.9s-0.6-1.7-4.2-7.6
						C193.9,167.4,191.2,162.2,194.9,163.7z"/>
					<path class="st14" d="M179.8,172.3l3.5,1.6c2.4,1.1,5,1.7,7.6,1.6l0,0c3.2-0.1,4.1-1,4.6-4.3c0.1-0.5,0.1-4.7,0.3-5.2
						c0.8-3.7,6.1-0.3,7.8-4.2c1.8-3.9-2.2-25.1-16.3-20.8c-14.2,4.3,5.1,20.5-7.3,24.2L179.8,172.3z"/>
					<path class="st13" d="M180,165.2c0,0,0.1,2,1.7,5c2.6,4.8,5.2,7.8,5.2,7.8c-0.9-0.2-5,1.3-5,1.3c-4.4-5.4-4.8-7.4-5.7-12.3
						L180,165.2z"/>
					<path class="st15" d="M197.1,139.8c-3.2-1.1-8-2.7-14.4,0.9c-6.3,3.6-6.2,10.7-4.7,14.7c1.4,4,3.8,6,7.3,7.4
						c3.4,1.4,4.3-3.3,4.3-3.3s-3.6-1.2-3.3-3.4s2.1-1,3.3-1.4c1.2-0.3-0.6-7,1-8.5c1.7-1.4,4.2,0.3,4.6-0.9s2.8-0.7,4.7,0.3
						C199.9,145.7,200,140.9,197.1,139.8z"/>
					<path class="st16" d="M227,424.3c0-0.2,0.1-0.9,0.1-1c-0.5-2.2-21.7-10.6-21.7-10.6c-0.3,1.2-6.3,0.5-8.1-1
						c0,0-0.5,2.4-0.7,3.5c-0.7,3.6,3.1,4.3,7.5,5.5C208.4,421.9,226.3,426.3,227,424.3z"/>
					<path class="st16" d="M174.8,423.3c0-0.2,0.1-0.9,0.1-1c-0.4-2.2-10.9-9.5-10.9-9.5c-0.3,0.2-6.6-0.2-7.6-2.8
						c0,0-0.7,3.3-0.8,4.3c-0.7,3.6,7,7.8,8.6,8.5C168.3,424.8,174.1,425.4,174.8,423.3z"/>
				</g>
				<g>
					<path class="st17" d="M165.9,253.4l-7.8,2.8c-1.4-4.3-6.8-16.9-6.7-18.6c0.2-8.2,1.7-38.7,7.7-49.4c8.6-15.3,24.3-1.7,22.2,4.8
						c-4.3,13.3-16.8,51-16.8,51L165.9,253.4z"/>
					<path class="st9" d="M167.8,281.9c-0.3-2.8-6.2-16.2-9.8-25.7l7.8-2.8l5.6,27.9c0,0,3,3.2,4.8,3.7s0.8,1.8-0.6,1.6
						c-1.3-0.3-3.3-1.3-3.3-1.3l1.8,9.1C174.1,294.4,169,297.1,167.8,281.9z"/>
					<polygon class="st10" points="166.3,254.7 158.5,257.5 155.4,249.2 164.8,245.8 					"/>
				</g>
			</g>
		</g>
	</g>
	<g>
		<g>
			<g>
				<path class="st18" d="M245.8,179.1l-11.8-11.8c3.8-5.9,5.9-12.7,5.9-20.3c0-21.1-16.9-38.1-38.1-38.1s-38.1,16.9-38.1,38.1
					s16.9,38.1,38.1,38.1c7.6,0,14.4-2.1,20.3-5.9l11.8,11.8c3.4,3.4,8.5,3.4,11.8,0S249.2,182.5,245.8,179.1z M201.8,176.6
					c-16.5,0-29.6-13.1-29.6-29.6s13.1-29.6,29.6-29.6s29.6,13.1,29.6,29.6S218.3,176.6,201.8,176.6z"/>
			</g>
		</g>
	</g>
	<g>
		<g>
			<path class="st2" d="M316.9,134.5l-63-0.2c-1.1,0-2-0.9-2-2l0,0c0-1.1,0.9-2,2-2l63,0.2c1.1,0,2,0.9,2,2l0,0
				C318.9,133.6,318,134.5,316.9,134.5z"/>
			<path class="st2" d="M296.7,144.4l-42.8-0.1c-1.1,0-2-0.9-2-2l0,0c0-1.1,0.9-2,2-2l42.8,0.1c1.1,0,2,0.9,2,2l0,0
				C298.7,143.5,297.8,144.4,296.7,144.4z"/>
			<path class="st2" d="M266.8,154.4l-13,0c-1.1,0-2-0.9-2-2l0,0c0-1.1,0.9-2,2-2l13,0c1.1,0,2,0.9,2,2l0,0
				C268.8,153.5,267.9,154.4,266.8,154.4z"/>
			<path class="st2" d="M302.3,164.4l-48.5-0.1c-1.1,0-2-0.9-2-2l0,0c0-1.1,0.9-2,2-2l48.5,0.1c1.1,0,2,0.9,2,2l0,0
				C304.3,163.5,303.4,164.4,302.3,164.4z"/>
		</g>
		<g>
			<path class="st2" d="M316.8,174.5l-63-0.2c-1.1,0-2-0.9-2-2l0,0c0-1.1,0.9-2,2-2l63,0.2c1.1,0,2,0.9,2,2v0
				C318.8,173.6,317.9,174.5,316.8,174.5z"/>
			<path class="st2" d="M296.6,184.4l-42.8-0.1c-1.1,0-2-0.9-2-2l0,0c0-1.1,0.9-2,2-2l42.8,0.1c1.1,0,2,0.9,2,2l0,0
				C298.6,183.5,297.7,184.4,296.6,184.4z"/>
			<path class="st2" d="M266.7,194.4l-13,0c-1.1,0-2-0.9-2-2v0c0-1.1,0.9-2,2-2l13,0c1.1,0,2,0.9,2,2l0,0
				C268.7,193.5,267.8,194.4,266.7,194.4z"/>
			<path class="st2" d="M302.2,204.4l-48.5-0.1c-1.1,0-2-0.9-2-2v0c0-1.1,0.9-2,2-2l48.5,0.1c1.1,0,2,0.9,2,2v0
				C304.2,203.5,303.3,204.4,302.2,204.4z"/>
		</g>
	</g>
</g>
<g>
	<path class="st2" d="M167.1,422.8H121c-9.2,0-16.7-7.5-16.7-16.7V276.7h79.4v129.5C183.7,415.4,176.3,422.8,167.1,422.8z
		 M106.3,278.7v127.5c0,8.1,6.6,14.7,14.7,14.7h46.1c8.1,0,14.7-6.6,14.7-14.7V278.7H106.3z"/>
	<path class="st2" d="M425,422.8h-46.1c-9.2,0-16.7-7.5-16.7-16.7V276.7h79.4v129.5C441.7,415.4,434.2,422.8,425,422.8z
		 M364.2,278.7v127.5c0,8.1,6.6,14.7,14.7,14.7H425c8.1,0,14.7-6.6,14.7-14.7V278.7H364.2z"/>
	<rect x="386.8" y="271.9" class="st4" width="65.8" height="11.5"/>
	<rect x="92.4" y="271.9" class="st2" width="294.4" height="11.5"/>
</g>
<g>
	<path class="st19" d="M251.4,256.6c0.2,2.6,17.2,12.2,20.7,12.2c3.4,0,18.4-21.8,18.4-21.8l-8.8-5.3l-12,11.1l-15.5,0.3
		L251.4,256.6z"/>
	<polygon class="st1" points="304,399.6 307.9,407.6 312.9,400.3 311.8,396 307.8,394 	"/>
	<path class="st14" d="M238.4,249.5c-1.5,2.4-1.3,6.1-0.2,6.7c0.6,0.3,0.8,0.1,1.4-1.1c0.3-0.6,0.9-2,0.6-3.2
		C239.8,250.5,238.4,249.5,238.4,249.5z"/>
	<polygon class="st1" points="253.3,415.6 260.3,411.9 260.6,407.4 251.5,405.4 	"/>
	<path class="st20" d="M303.1,307.2c-6.6,20.4-20.9,12.2-24,21.1c-5,14.5,25.5,72.6,25.5,72.6c4.2-5.1,5.6-5.4,7.2-4.9
		c0,0-2.3-58.3-0.2-64.8c2.4-7.3,38.9-1.1,39.6-6.4c1.3-10.4-1.5-19.1-1.5-19.1l-31.8-29.3L303.1,307.2z"/>
	<path class="st14" d="M251.4,258.2c-5.7-1.5-11.9-2.4-11.7-3.8c0.1-1,0.5-1.1,1.8-0.8c2.9,0.5-0.6-1.1-0.6-1.1l-1.1,0.1
		c-1.2-1.9-3.3-2.2,0.4-4.9c1.8-1.4,3.7,0,6,1c3.4,1.5,4.1,3.3,5.6,4.7C253.2,254.7,251.4,258.2,251.4,258.2z"/>
	<path class="st1" d="M253.7,259.1c-0.9-0.3-2.5-0.6-4.5-1.2c-2.3-0.7,0.1-5.3,2.4-4.8l4.2,2.4L253.7,259.1z"/>
	<path class="st21" d="M313.2,399.8c-2-1-4.1,3.1-9.3,9.6c-3.9,4.9-12.6,10.2-10.8,11.3c2,1.3,23.5-8.2,23.5-15.2
		C316.6,404.7,314.3,400.3,313.2,399.8z"/>
	<path class="st20" d="M288.1,288.5c-36.6,7-60.6,23.8-54.8,55.9c2.4,13.4,18.1,64.7,18.1,64.7c3.8-1.1,6.2-1.1,9.2-1.1
		c0,0-2.9-53,1.8-68.6c4.6-15.3,35.5-12.5,53.9-13c0,0,15.8-20.6,14.3-37.2C329.2,272.7,288.1,288.5,288.1,288.5z"/>
	<path class="st14" d="M272.9,192.9c0.3,7.7,4.3,20.6,11.1,20.1c7.2-0.6,6,3.4,6,3.4s15.1-2.1,12.8-5.8c-2.8-4.4-4.7-6.8-5.4-9.8
		c-1.6-7.3-3.8-13.3-9.2-14.7C280.6,184,272.7,188,272.9,192.9z"/>
	<path class="st1" d="M292.2,213.6l-3.6,2.9c0,0,8.8-0.8,13.6-2.8c2.8-1.1,3.7-2,4-3c0,0-6-0.7-8.2,0.9
		C295.9,213.1,292.2,213.6,292.2,213.6z"/>
	<path class="st21" d="M271.7,187.9c-2.2,3.6,0.8,9.6,7.7,14c0,0,1.9-4.3,5.6-1.6c4.5,3.3,1.3,5.1,2,5.5c6.8,3.5,4.3,4.1,6.1,3.7
		c2.9-0.7,7.2-2.8,7.5-5.2c0.2-2.4-2.4-5-2.9-10c-0.5-5.1-2.7-11.1-7.9-12.5C284.6,180.5,274.5,183.3,271.7,187.9z"/>
	<path class="st14" d="M242.5,256c-2.5-0.6-4.5-1.4-4.1-2.4c0.4-0.9,3.6,0,3.6,0L242.5,256z"/>
	<path class="st21" d="M231.8,420c21,0.1,28.4,0.2,29.4,0.1c0.9,0,0.6-5.3-0.8-8.3c0,0-6.9,1.6-12,2.8c-5.1,1.2-14.7,2.3-16.5,2.4
		C230.1,417.2,230.3,420,231.8,420z"/>
	<path class="st14" d="M220.2,269.2c-4.8-3.9-4.8-2.9-6.3-1.8c-1,0.8-2.7-0.9-0.6-4c2.8-4.2,8.7-2.1,9.6-1.3
		c0.9,0.9,2.9,5.1,2.9,5.1L220.2,269.2z"/>
	<path class="st12" d="M336.3,259.1c-7.3-22.5-5.7-27-13.4-41.3c-7.8-14.4-32.2-2.9-32.2-2.9s-1.4,1.4-2,1.6
		c-21.2,8.3-26.7,26.5-34.8,35.4c-4.7,5.1-16.9,8.3-26.1,8.9c-6.5,0.4-8.7,3-7.6,7.9c0,0,20,0,27.5,0c10.9,0,31.6-12.8,31.6-12.8
		s5.6,33.1,2.4,58.8c0,0,6.8-2.7,19.9-4.5c10.3-1.5,25.5-2.7,25.5-2.7l-1.9-21.1l7.7,20.4c0,0,9.6-1.2,16.8-1.3
		C349.8,305.7,343.5,281.4,336.3,259.1z"/>
</g>
<g>
	<path class="st2" d="M376.6,422.9h-12c-4.8,0-9.3-2.3-12.2-6.2l-61.5-84.3l27.4-2.1L380,416c0.9,1.3,1.1,3,0.3,4.5
		C379.7,422,378.2,422.9,376.6,422.9z M294.7,334.1l59.3,81.4c2.4,3.4,6.4,5.4,10.6,5.4h12c0.9,0,1.6-0.5,2.1-1.3
		c0.4-0.8,0.3-1.7-0.2-2.4l-61-84.8L294.7,334.1z"/>
	<path class="st2" d="M301,422.9h-12c-1.6,0-3.1-0.9-3.8-2.3c-0.7-1.4-0.6-3.2,0.3-4.5l61.7-85.7l27.4,2.1l-61.4,84.2
		C310.4,420.5,305.8,422.9,301,422.9z M348.2,332.4l-61,84.8c-0.5,0.7-0.6,1.6-0.2,2.4s1.2,1.3,2.1,1.3h12c4.2,0,8.1-2,10.6-5.4
		l59.3-81.4L348.2,332.4z"/>
	<rect x="348.9" y="327.5" class="st4" width="28.6" height="11.5"/>
	<rect x="286.9" y="327.5" class="st2" width="62" height="11.5"/>
</g>
<g>
	<g>
		<polygon class="st1" points="401.9,411 402.2,414.9 397.6,419.9 393.1,417.3 393.2,415.3 392.6,411 		"/>
		<path class="st1" d="M447.2,412.5l0.5,3.9l-4.9,4.1c0,0-3.5-1.9-3.8-2.1c-0.3-0.1-2.1-6.3-2.1-6.3L447.2,412.5z"/>
		<path class="st14" d="M389.4,215.2l-9,17c0,0-9.1,5.7-6.5,12.1c2.6,6.3,8.8,7.2,10.5,6.2s11.3-34.7,11.3-34.7L389.4,215.2z"/>
		<path class="st15" d="M459.9,232.2c-5.3,47.5-11.2,60.3-16.9,94.8c-3,18.6,0.3,44.4,4.7,85.3c0.4,3.5-13,3.3-14,0
			c-9-30.9-20.4-71.3-22.5-86.8c-2.7-19.7-0.7-58.2-0.7-58.2l12.1-42.9L459.9,232.2z"/>
		<path class="st15" d="M407,216.9c-19.8,43.5-22.9,77.5-25,96.2c-3.1,26.8,4,49.9,8.6,97.6c0.3,3,11.9,3,12,0
			c1.1-43.5,1.2-89.8,8-107c5.8-14.6,18.3-35.1,18.3-35.1l14.2-39.3L407,216.9z"/>
		<polygon class="st10" points="406.9,155.8 390.6,207.5 381.4,225.2 395.5,226.4 424.7,179.2 436.2,143.5 		"/>
		<path class="st1" d="M431.8,243.1c-21.3,0-25.3-7.5-25.3-7.5l0.4-56.4c0,0,5.1-27.4,4.9-27.6c-0.2-0.2,7.4-7.7,7.2-4.4
			s-0.4,6.7,5.3,7.2c5.7,0.6,14-4.7,14-4.7l-2.3,8.9L431.8,243.1z"/>
		<polygon class="st22" points="381.4,225.2 385.7,216.9 400,219.1 395.5,226.4 		"/>
		<path class="st10" d="M419,150.2c-2.6,4.5-6,29.6-6.1,37.9c-0.1,8.3-1.1,29-3.2,43.2c-1.1,7.6-17,47.2-17,47.2
			s-10.1-4.7-10.1-11.7c0-8.5,20.1-33.4,18-82c-0.6-12.8,5.4-31.3,8.2-35.9s5.6-6.9,5.6-6.9l4.4,0.9L419,150.2z"/>
		<path class="st10" d="M430.4,156.6c0,0,0.5,118.9-3.6,132.6c0,0,39.7-6.8,42.8-17.2c10.9-36.2,0.1-103.4-13.7-114.9
			c-12.5-10.4-15.5-12.3-15.5-12.3l-3.7,11.1L430.4,156.6z"/>
		<path class="st22" d="M423.3,144.3c-4.4,6.3-5.2,8.2-5.2,8.2s-2.6-1.4-5-1.3c0,0,5.2-9.5,9.3-11
			C426.6,138.7,423.3,144.3,423.3,144.3z"/>
		<path class="st14" d="M438.8,142.9c-13.5-4.9,9-21.5-6.4-27.3s-21.3,17.4-19.6,21.9c1.7,4.4,7.8,1,8.4,5.2
			c0.1,0.6-0.2,5.2-0.1,5.8c0.3,3.6,1.2,4.7,4.8,5l0,0c2.9,0.3,5.8-0.1,8.6-1.2l4-1.5L438.8,142.9z"/>
		<path class="st22" d="M442.9,145.2c-1.4,5.4-1.9,7.5-7.2,13.2c0,0-4.4-1.9-5.4-1.8c0,0,3.1-3.2,6.3-8.3c2-3.2,2.2-5.4,2.2-5.4
			L442.9,145.2z"/>
		<path class="st22" d="M460.7,242.5l1.1,5c0,0-6.4,4.1-24.8,7.7v-5.5C436.9,249.8,454.2,246.3,460.7,242.5z"/>
		<polygon class="st22" points="393.6,237.1 396.6,243.1 391.4,245.6 389.7,240.1 		"/>
		<path class="st21" d="M418.1,119.8c2.2-1,4.8-1.3,5.2,0c0.4,1.3,3.2-0.4,5,1.3c1.8,1.7-0.7,9,0.6,9.5c1.4,0.5,3.5-0.6,3.6,1.8
			c0.1,2.4-3.9,3.5-3.9,3.5s0.6,5.3,4.5,4s6.8-3.4,8.6-7.7c1.9-4.3,2.6-12.2-4.2-16.6c-6.9-4.4-12.3-3-15.9-2
			C418.3,114.5,418.1,119.8,418.1,119.8z"/>
		<path class="st14" d="M373.7,243.4c0.5,4.9,0.5,5.9,1.9,5.6s1.2-9.5,1.2-9.5L373.7,243.4z"/>
		<path class="st21" d="M394,424.2c4.9-0.9,9.2-1.5,8.7-5.5c-0.1-1.2-0.5-3.9-0.5-3.9c-2,1.5-8.7,1.9-9,0.5c0,0-24.1,7.8-24.8,10.2
			c0,0.1,0,0.9,0,1.1C369,428.9,389.1,425.1,394,424.2z"/>
		<path class="st21" d="M438.1,429.6c1.8-0.6,10.6-4.8,10.1-8.8c-0.1-1.2-0.6-4.9-0.6-4.9c-1.3,2.8-8.3,2.7-8.6,2.5
			c0,0-12.1,7.3-12.7,9.7c0,0.1,0,0.9,0,1.1C426.9,431.6,433.4,431.3,438.1,429.6z"/>
	</g>
	<path class="st23" d="M389.8,194.8c0,0,34.7-27.1,47-36.6c5.9-4.6,26.1,6.7,13.3,21.4c-8.9,10.3-40.2,23.3-48.7,26.6
		c-1.7,0.7-16.8-0.2-21.9,0V197L389.8,194.8z"/>
	<path class="st14" d="M333.6,203.8l10.2-1.5c0,0-1.8-1.7-2.6-3c-0.8-1.3,0.2-2.8,1.4-1.2c1.2,1.6,5.7,3.6,5.7,3.6l31.3-4.6v9.2
		c-11.4-0.2-27.6-1.4-30.6-0.6C332.7,210.1,333.6,203.8,333.6,203.8z"/>
	<polygon class="st22" points="387.9,195.2 387.9,206.3 378,206.2 378,197 	"/>
</g>
<g>
	<path class="st4" d="M109.3,433.2h-12c-4.8,0-9.3-2.3-12.2-6.2l-61.5-84.3l27.4-2.1l61.7,85.7c0.9,1.3,1.1,3,0.3,4.5
		C112.4,432.3,110.9,433.2,109.3,433.2z M27.4,344.5l59.3,81.4c2.4,3.4,6.4,5.4,10.6,5.4h12c0.9,0,1.6-0.5,2.1-1.3
		c0.4-0.8,0.3-1.7-0.2-2.4l-61-84.8L27.4,344.5z"/>
	<path class="st4" d="M33.7,433.2h-12c-1.6,0-3.1-0.9-3.8-2.3s-0.6-3.2,0.3-4.5l61.7-85.7l27.4,2.1l-61.5,84.3
		C43.1,430.9,38.5,433.2,33.7,433.2z M80.9,342.8l-61,84.8c-0.5,0.7-0.6,1.6-0.2,2.4c0.4,0.8,1.2,1.3,2.1,1.3h12
		c4.2,0,8.1-2,10.6-5.4l59.3-81.4L80.9,342.8z"/>
	<rect x="81.6" y="337.9" class="st4" width="28.6" height="11.5"/>
	<rect x="19.6" y="337.9" class="st4" width="62" height="11.5"/>
</g>
<g>
	<path class="st14" d="M90.8,260.5c0,0,49.2,16,84.4,15.2c0,0,3.8-0.8,7.9,1.4c1.9,1,6.8,1.1,4-1.3c-2.8-2.5-0.3-2.7,2.5-2.7
		c2.5,0,5.6,0.1,5.6,0.1s0.3-3.4-8.2-3.5c-8.6-0.1-9.1,0.8-12.2,0.2c-2.4-0.5-37.5-9.3-37.5-9.3L95,246.3
		C95,246.4,88,254.6,90.8,260.5z"/>
	<path class="st1" d="M100.9,248.3c-3.8-1.7-7.8-3.7-12-6c-4.7-2.7-9-5.4-12.7-8c2,1.9,4.4,4.6,6.6,8.2c4,6.8,5.1,13.3,5.4,17.1
		l6,1.7C92.1,260.2,96.3,246.8,100.9,248.3z"/>
	<path class="st14" d="M148.8,390.9l1.1,5.3c0,0,0.5,3.3,0.1,4.6c-0.4,1.3,0.2,1.9,0.2,1.9l9.6,3.8l0.7-4c0,0-3.3-2.4-3.7-3.5
		c-0.3-1.1-0.5-4-0.5-4l-0.5-6.5L148.8,390.9z"/>
	<path class="st10" d="M159.4,411.3c-5.2-0.2-10.8-2.2-10.1-6.3c0.3-1.5,0.8-4.5,0.8-4.5c2.6,3.2,10.1,2.7,10.4,2
		c0,0,20.4,3.9,20.8,6.2c0,0.1,0,0.9,0,1C180.6,412.1,164,411.5,159.4,411.3z"/>
	<path class="st14" d="M152.6,418.7c0,0,4.4,6.4,4.6,7.7c0.2,1.3,1.1,2,1.1,2l10.7,1.3c0,0-3.6-5.2-7.6-11.3c-1-1.4-3.3-6-3.3-6
		L152.6,418.7z"/>
	<path class="st10" d="M168.4,434.5c-4.9,0.8-9.2,0.6-10.1-3.3c-0.3-1.2-1.1-4.7-1.1-4.7c2.2,2.1,9.1,0.9,8.9-0.6
		c0,0,22.8-0.4,24.2,1.7c0.1,0.1,0.4,0.9,0.4,1C190.9,430.9,173.3,433.6,168.4,434.5z"/>
	<path class="st12" d="M73.7,300.4c32.6-5.4,82-6.4,89.2,11c4.8,11.5-5.1,84.6-5.1,84.6s-6.3,2-8.7,0.3c-2.1-5.3,3.1-71-7-72.2
		c-19.8-2.2-59.4,10-59.4,10L73.7,300.4z"/>
	<path class="st12" d="M43.8,331.1c10,17.8,62.3,27.7,67.4,34.1c8.4,10.4,41.4,53.6,41.4,53.6c2.1,1.4,8.1-1.1,7.1-3
		c0,0-31.5-64.9-35.6-69.1c-6.9-7.1-29.9-28.6-43.9-35.7c-4.6-2.4-18.2-9.9-18.2-9.9S27.5,301.8,43.8,331.1z"/>
	<path class="st18" d="M58.9,329.9c0,4.2-0.2,5.1-0.8,5.6c-2.5,1.9-10-3.7-12-5.4c-16.1-13.7-12.8-60.7,11.3-91.3
		c4.2-5.3,13.6-17.3,20.6-15.2c7.8,2.4,10.4,21.7,14.6,52.1c0.2,1.3,0.3,5.1,1.6,9.9c2.7,10,3.6,13.5,4.1,16.8
		c2.2,14.8-18.5,36.2-30.1,32.5c-1.9-0.6-6.7-2.9-9.7-14.7C58.7,322.6,58.9,325.9,58.9,329.9z"/>
	<path class="st14" d="M93.7,199.6c1.1,0.2,1.7,2.1,2.3,4.5c2.6,10.1,3.8,15.2,0.9,18.2c-0.9,0.9-1.9,1.4-2.1,1.5
		c-3.2,1.5-4.7-0.2-8.5,1.1c-3.8,1.3-2.6,4.7-4.9,8.2c-1.6,2.4-7.3-3.7-7.5-8.3c0-3-0.8-5.5,0.3-7.6c0.7-1.2,1.6-1,3.8-2.9
		c1-0.9,1.7-1.6,3.3-3.3c4.2-4.7,5.2-6,6.3-6.9c0.3-0.2,0.2-0.1,0.8-0.6C92.3,200.4,92.9,199.5,93.7,199.6z"/>
	<path class="st15" d="M89.7,196c10.3,1.4,5.8,7.7,3,9.5c-4,2.5-7.4,7.9-7.4,7.9c-7.4-1.7-4.9,5.8-2.7,5.7c3.2-0.1-7.9,4.1-4.6,13.5
		c1.6,4.5,0.9,6.6-0.5,7.8c-2.4,2-7-2.8-14.1-2.1c-1,0.1-5.1,0.6-8.1,3.3c-7.3,6.8,0.9,19.8-7.2,29.3c-2.6,3.1-3.8,2-5.2,4.6
		c-4.4,8.3,7.5,18.6,3,26.6c-0.3,0.5-2.4,3.7-5.8,4.5c-1,0.2-2.2,0-3.8-0.9c-11-6.6-13.6-24.8-4.9-35.5c7.3-9.1,5.4-15,1.8-28.7
		c-3.6-13.7,23.1-18.5,26.9-26.1C71.9,192.1,75.6,194,89.7,196z"/>
	<path class="st14" d="M67.7,284.5c16.1,19.4,21.9,28.9,45.1,26.5c23.2-2.4,32.1-9.3,38.4-6.2c6.2,3.2,3-1,2.2-1.6
		c-0.7-0.7-6.1-5-9.4-5.7c0,0-3-1.1-7.6,1.1c-2.8,1.2-31.2,9.4-39.6-0.9c-5.9-7.1-16.3-22.9-16.3-22.9l-11,0.1L67.7,284.5z"/>
	<path class="st1" d="M63,244.4c7.6,6.8,17.4,30.4,17.4,30.4s-12.7,2.9-12.7,9.8c0,0-10.9-10.6-12.9-18.4
		C52.8,258.5,58.6,240.6,63,244.4z"/>
</g>
</svg>
