<?xml version="1.0" encoding="utf-8"?>
<!-- Generator: Adobe Illustrator 22.1.0, SVG Export Plug-In . SVG Version: 6.00 Build 0)  -->
<svg version="1.1" id="Layer_1" xmlns="http://www.w3.org/2000/svg" xmlns:xlink="http://www.w3.org/1999/xlink" x="0px" y="0px"
	 viewBox="0 0 569 440" style="enable-background:new 0 0 569 440;" xml:space="preserve">
<style type="text/css">
	.st0{opacity:0.2;fill:url(#SVGID_1_);enable-background:new    ;}
	.st1{fill:#E2AE5A;}
	.st2{fill:#E7E6E8;}
	.st3{fill:#CDCCCE;}
	.st4{fill:#FFFFFF;}
	.st5{fill:#F0EDF3;}
	.st6{fill:#D25D60;}
	.st7{fill:#E5A866;}
	.st8{fill:#9FC768;}
	.st9{clip-path:url(#SVGID_3_);}
	.st10{fill:url(#SVGID_4_);}
	.st11{fill:#F1F2F2;}
	.st12{fill:#E6E7E8;}
	.st13{fill:#F6511D;}
	.st14{fill:#FFBA0A;}
	.st15{fill:#00A6ED;}
</style>
<linearGradient id="SVGID_1_" gradientUnits="userSpaceOnUse" x1="279.6644" y1="449.3894" x2="279.6644" y2="865.1658" gradientTransform="matrix(1 0 0 -1 0 878)">
	<stop  offset="0" style="stop-color:#FFFFFF;stop-opacity:0"/>
	<stop  offset="2.168840e-02" style="stop-color:#F6FCFE;stop-opacity:2.168840e-02"/>
	<stop  offset="0.1827" style="stop-color:#B6E5FA;stop-opacity:0.1827"/>
	<stop  offset="0.3416" style="stop-color:#7ED2F6;stop-opacity:0.3416"/>
	<stop  offset="0.4944" style="stop-color:#51C2F3;stop-opacity:0.4944"/>
	<stop  offset="0.64" style="stop-color:#2EB6F0;stop-opacity:0.64"/>
	<stop  offset="0.7764" style="stop-color:#15ADEE;stop-opacity:0.7764"/>
	<stop  offset="0.9001" style="stop-color:#05A8ED;stop-opacity:0.9001"/>
	<stop  offset="1" style="stop-color:#00A6ED"/>
</linearGradient>
<path class="st0" d="M27.7,327.9C-16.7,222.1,92.4,14.4,162.2,12.8c81.3-1.7,31.8,147.6,194.6,151.1
	c99.6,2.2,193.4,124.9,184.5,173.5C524.2,430.3,95.1,488.6,27.7,327.9z"/>
<g>
	<path class="st1" d="M205,51.3L205,51.3C205,51.3,205,51.2,205,51.3L205,51.3z"/>
</g>
<g>
	<g>
		<rect x="438" y="242.8" class="st2" width="10.3" height="143.7"/>
	</g>
	<g>
		<rect x="124.4" y="380.2" class="st3" width="5.6" height="9.8"/>
	</g>
	<g>
		<rect x="186" y="380.2" class="st3" width="5.6" height="9.8"/>
	</g>
	<g>
		<rect x="118.7" y="244.4" class="st2" width="78.4" height="137"/>
	</g>
	<path class="st4" d="M190,263.7c0,2.1-1.7,3.7-3.7,3.7h-57c-2.1,0-3.7-1.7-3.7-3.7v-9.4c0-2.1,1.7-3.7,3.7-3.7h57
		c2.1,0,3.7,1.7,3.7,3.7V263.7z"/>
	<g>
		<path class="st2" d="M168.6,254.2c0,0.6-0.5,1.1-1.1,1.1h-17.2c-0.6,0-1.1-0.5-1.1-1.1l0,0c0-0.6,0.5-1.1,1.1-1.1h17.2
			C168.1,253.1,168.6,253.6,168.6,254.2L168.6,254.2z"/>
	</g>
	<path class="st4" d="M190,285.2c0,2.1-1.7,3.7-3.7,3.7h-57c-2.1,0-3.7-1.7-3.7-3.7v-9.4c0-2.1,1.7-3.7,3.7-3.7h57
		c2.1,0,3.7,1.7,3.7,3.7V285.2z"/>
	<g>
		<path class="st2" d="M168.6,275.7c0,0.6-0.5,1.1-1.1,1.1h-17.2c-0.6,0-1.1-0.5-1.1-1.1l0,0c0-0.6,0.5-1.1,1.1-1.1h17.2
			C168.1,274.5,168.6,275,168.6,275.7L168.6,275.7z"/>
	</g>
	<path class="st4" d="M190,372.3c0,2.1-1.7,3.7-3.7,3.7h-57c-2.1,0-3.7-1.7-3.7-3.7v-75.9c0-2.1,1.7-3.7,3.7-3.7h57
		c2.1,0,3.7,1.7,3.7,3.7V372.3z"/>
	<path class="st2" d="M168.6,296.2c0,0.6-0.5,1.1-1.1,1.1h-17.2c-0.6,0-1.1-0.5-1.1-1.1l0,0c0-0.6,0.5-1.1,1.1-1.1h17.2
		C168.1,295.1,168.6,295.6,168.6,296.2L168.6,296.2z"/>
	<g>
		<rect x="111.6" y="225.2" class="st4" width="337.7" height="13.4"/>
		<rect x="111.6" y="232.7" class="st2" width="337.7" height="5.9"/>
	</g>
	<g>
		<rect x="107.1" y="238.2" class="st3" width="347.8" height="6.8"/>
	</g>
</g>
<g>
	<g>
		<rect x="260.5" y="198.7" class="st4" width="61.1" height="28.5"/>
	</g>
	<rect x="260.5" y="198.7" class="st5" width="61.1" height="28.5"/>
	<g>
		<polygon class="st3" points="260.5,207.6 321.6,207.6 321.6,200.8 318.2,197.8 263.9,197.8 260.5,200.8 		"/>
	</g>
	<g>
		<rect x="251.9" y="223.2" class="st2" width="78.3" height="5.7"/>
	</g>
	<g>
		<path class="st2" d="M172.3,186v9.9c0,3.3,2.7,5.9,5.9,5.9h225.7c3.3,0,5.9-2.7,5.9-5.9V186H172.3z"/>
	</g>
	<g>
		<path class="st5" d="M403.9,54.3H178.2c-3.3,0-5.9,2.7-5.9,5.9v126h237.5v-126C409.8,56.9,407.1,54.3,403.9,54.3z"/>
	</g>
	<g>
		<polygon class="st5" points="181.2,107.7 181.2,63 400.9,63 400.9,90.5 		"/>
	</g>
	<g>
		<rect x="181.2" y="63" class="st5" width="219.8" height="5.6"/>
	</g>
	<g>
		<path class="st6" d="M186.6,65.8c0,0.8-0.7,1.5-1.5,1.5s-1.5-0.7-1.5-1.5s0.7-1.5,1.5-1.5S186.6,65,186.6,65.8z"/>
	</g>
	<g>
		<path class="st7" d="M191.9,65.8c0,0.8-0.7,1.5-1.5,1.5s-1.5-0.7-1.5-1.5s0.7-1.5,1.5-1.5S191.9,65,191.9,65.8z"/>
	</g>
	<g>
		<path class="st8" d="M197.3,65.8c0,0.8-0.7,1.5-1.5,1.5s-1.5-0.7-1.5-1.5s0.7-1.5,1.5-1.5C196.7,64.3,197.3,65,197.3,65.8z"/>
	</g>
	<rect x="181.6" y="74.3" class="st4" width="219.1" height="103.6"/>
	<g>
		<g>
			<defs>
				<rect id="SVGID_2_" x="181.6" y="74.3" width="219.1" height="103.6"/>
			</defs>
			<clipPath id="SVGID_3_">
				<use xlink:href="#SVGID_2_"  style="overflow:visible;"/>
			</clipPath>
			<g class="st9">
				
					<linearGradient id="SVGID_4_" gradientUnits="userSpaceOnUse" x1="835.9692" y1="-162.0919" x2="835.9692" y2="-292.6558" gradientTransform="matrix(-0.9988 4.948876e-02 4.948876e-02 0.9988 1102.8323 333.8826)">
					<stop  offset="0" style="stop-color:#FFFFFF;stop-opacity:0"/>
					<stop  offset="2.168840e-02" style="stop-color:#F6FCFE;stop-opacity:2.168840e-02"/>
					<stop  offset="1" style="stop-color:#7DB52B"/>
				</linearGradient>
				<path class="st10" d="M107.4,177.2c-5.9-21.8,29.6-71.8,59.5-68.7c0.3,0,0.6,0.1,0.9,0.1c42.7,5.6,52.9,64.2,78.8,63.7
					c30.9-0.5,33.6-48.8,55-50.3c50.6-3.5,33.2-43.5,58.5-44.3c20.4-0.6,55.4,53.9,46.1,84.1C385.6,228.7,121.1,227.7,107.4,177.2z"
					/>
			</g>
		</g>
	</g>
</g>
<g>
	<g>
		
			<rect x="391.5" y="121.1" transform="matrix(0.3993 -0.9168 0.9168 0.3993 111.8209 441.3161)" class="st3" width="2.4" height="28.5"/>
	</g>
	<g>
		
			<rect x="417.2" y="111.2" transform="matrix(0.3994 -0.9168 0.9168 0.3994 117.2239 473.8399)" class="st5" width="6.1" height="72.5"/>
	</g>
	<g>
		<polygon class="st5" points="424.7,225.3 431.5,225.7 458.5,160.8 452.8,158.4 		"/>
	</g>
	<rect x="384.5" y="220.7" class="st2" width="53.9" height="6.2"/>
	<g>
		<polygon class="st11" points="366.9,134.7 355.8,135.3 335.9,143.1 350.3,154.9 364.7,166.8 368.3,145.5 		"/>
		
			<rect x="357.1" y="121.9" transform="matrix(0.6355 -0.7721 0.7721 0.6355 34.7148 333.5496)" class="st12" width="27.1" height="16.3"/>
	</g>
	<polygon class="st13" points="366.9,134.7 355.8,135.3 335.9,143.1 350.3,154.9 364.7,166.8 368.3,145.5 	"/>
	
		<rect x="357.1" y="121.9" transform="matrix(0.6355 -0.7721 0.7721 0.6355 34.7148 333.5496)" class="st14" width="27.1" height="16.3"/>
	<g>
		<path class="st3" d="M445.5,162.7c0,5.1,4.1,9.2,9.2,9.2c5.1,0,9.2-4.1,9.2-9.2c0-5.1-4.1-9.2-9.2-9.2
			C449.6,153.5,445.5,157.6,445.5,162.7z"/>
	</g>
	<g>
		<path class="st5" d="M450.3,162.7c0,2.5,2,4.4,4.4,4.4c2.5,0,4.4-2,4.4-4.4c0-2.4-2-4.4-4.4-4.4
			C452.3,158.3,450.3,160.3,450.3,162.7z"/>
	</g>
</g>
<path class="st15" d="M314.2,292.3c0,3.8-3.1,6.9-6.9,6.9h-93.5c-3.8,0-6.9-3.1-6.9-6.9v-8.1c0-3.8,3.1-6.9,6.9-6.9h93.5
	c3.8,0,6.9,3.1,6.9,6.9V292.3z"/>
<path class="st15" d="M307.2,277.3H259v21.9h48.3c3.8,0,6.9-3.1,6.9-6.9v-8.1C314.2,280.4,311.1,277.3,307.2,277.3z"/>
<g>
	<rect x="203.9" y="293.5" class="st5" width="112" height="6.4"/>
</g>
<g>
	<path class="st15" d="M309.6,237.2c0,4.3-3.1,7.8-6.9,7.8h-87.2c-3.8,0-6.9-3.5-6.9-7.8v-75.6c0-4.3,3.1-7.8,6.9-7.8h87.2
		c3.8,0,6.9,3.5,6.9,7.8V237.2z"/>
</g>
<g>
	<rect x="254.1" y="211.2" class="st5" width="12.7" height="116.6"/>
</g>
<g>
	<path class="st2" d="M279.7,214.2c0,0.9-1.2,1.6-2.6,1.6h-33.1c-1.5,0-2.6-0.7-2.6-1.6v-15.3c0-0.9,1.2-1.6,2.6-1.6H277
		c1.5,0,2.6,0.7,2.6,1.6V214.2z"/>
</g>
<g>
	<rect x="251.2" y="315.1" class="st2" width="19.1" height="51.4"/>
</g>
<g>
	<path class="st3" d="M304.9,368.6c-0.2-2.6-2.4-4.6-5-4.6h-76.5c-2.6,0-4.8,2-5,4.6h0v5.5h5.1h76.5h5.2v-5.5H304.9z"/>
</g>
<g>
	<path class="st3" d="M227,381.4c0,4.5-3.6,8.1-8.1,8.1c-4.5,0-8.1-3.6-8.1-8.1c0-4.5,3.6-8.1,8.1-8.1
		C223.4,373.3,227,376.9,227,381.4z"/>
	<circle class="st5" cx="218.9" cy="381.4" r="4.3"/>
</g>
<g>
	<path class="st3" d="M270,381.4c0,4.5-3.6,8.1-8.1,8.1c-4.5,0-8.1-3.6-8.1-8.1c0-4.5,3.6-8.1,8.1-8.1
		C266.4,373.3,270,376.9,270,381.4z"/>
	<circle class="st5" cx="261.9" cy="381.4" r="4.3"/>
</g>
<g>
	<path class="st3" d="M313,381.4c0,4.5-3.6,8.1-8.1,8.1c-4.5,0-8.1-3.6-8.1-8.1c0-4.5,3.6-8.1,8.1-8.1
		C309.4,373.3,313,376.9,313,381.4z"/>
	<circle class="st5" cx="304.9" cy="381.4" r="4.3"/>
</g>
</svg>
