<?xml version="1.0" encoding="utf-8"?>
<!-- Generator: Adobe Illustrator 22.1.0, SVG Export Plug-In . SVG Version: 6.00 Build 0)  -->
<svg version="1.1" id="_x2014_ÎÓÈ_x5F_1" xmlns="http://www.w3.org/2000/svg" xmlns:xlink="http://www.w3.org/1999/xlink"
	 x="0px" y="0px" viewBox="0 0 893 535" style="enable-background:new 0 0 893 535;" xml:space="preserve">
<style type="text/css">
	.st0{fill:#2C15B7;}
	.st1{fill:#F1D2C4;}
	.st2{fill:#FFBA0A;}
	.st3{fill:#FFFFFF;}
	.st4{fill:#5BB702;}
	.st5{fill:#2708A0;}
	.st6{fill:#FFB400;}
	.st7{fill:#F6511D;}
	.st8{fill:#100B00;}
	.st9{fill:#FBD2C4;}
	.st10{opacity:0.1;fill:url(#SVGID_1_);enable-background:new    ;}
	.st11{fill:#FDD4C6;}
	.st12{fill:#6FC911;}
	.st13{fill:#FFAF94;}
	.st14{fill:#161303;}
	.st15{fill:#F3EFF5;}
	.st16{fill:#FFC950;}
	.st17{fill:#FF4949;}
	.st18{fill:#FF2C2C;}
	.st19{fill:#5BB702;stroke:#5BB702;stroke-miterlimit:10;}
	.st20{fill:#5BB702;stroke:#5BB702;stroke-width:2;stroke-miterlimit:10;}
	.st21{fill:#E7E6E8;}
	.st22{fill:#FF4F2C;}
	.st23{fill:#F94110;}
</style>
<g>
	<path class="st0" d="M453.9,260.8c0,0,30.5-34,41.2-46c5.2-5.7,27.8,2,17.5,19.4c-7.2,12.2-36.8,31.1-44.8,36.1
		c-1.6,1.1-17.2,2.9-22.3,4.1l-1.6-9.4L453.9,260.8z"/>
	<path class="st1" d="M398.2,280.2l10.2-3.4c0,0-2.2-1.4-3.2-2.5s-0.3-2.9,1.2-1.5c1.5,1.5,6.5,2.7,6.5,2.7L444,265l1.6,9.4
		c-11.7,1.9-28.4,3.7-31.4,5C398.5,286.9,398.2,280.2,398.2,280.2z"/>
	<polygon class="st2" points="452.1,261.5 454.2,272.9 444,274.6 442.3,265.2 	"/>
</g>
<g>
	<g>
		<g>
			<polygon class="st3" points="508.6,477.4 509.2,481.5 504.7,486.9 499.9,484.5 499.9,482.5 499,478.1 			"/>
			<path class="st3" d="M555.6,476l0.8,4l-4.8,4.6c0,0-3.8-1.7-4.1-1.9c-0.3-0.1-2.6-6.4-2.6-6.4L555.6,476z"/>
			<path class="st4" d="M556.8,288.8c-2.3,49.5-7.6,63.1-11.2,99.2c-1.9,19.4,3.3,45.9,10.5,87.9c0.6,3.6-13.2,4.2-14.5,0.9
				c-11.3-31.4-25.8-72.4-29-88.3c-4.1-20.2-4.6-60.2-4.6-60.2l9.7-45.2L556.8,288.8z"/>
			<path class="st4" d="M501.1,276.3c-17.6,46.3-18.6,81.7-19.5,101.2c-1.5,27.9,7.4,51.4,15.3,100.4c0.5,3.1,12.5,2.3,12.4-0.8
				c-1.7-45.1-4.7-93,1.2-111.2c5-15.5,16.6-37.5,16.6-37.5l12.1-41.6L501.1,276.3z"/>
			<path class="st3" d="M528.4,301.8c-22.1,1.4-26.7-6.1-26.7-6.1l-3.3-58.4c0,0,3.4-28.7,3.2-28.9c-0.2-0.2,7.2-8.4,7.2-5
				c0.1,3.4,0.1,7,6,7.1c6,0.2,14.2-5.8,14.2-5.8l-1.8,9.4L528.4,301.8z"/>
			<path class="st5" d="M509.2,206.6c-2.4,4.8-4.2,31-3.8,39.6s0.7,30.1-0.5,44.9c-0.7,7.9-14.5,49.9-14.5,49.9s-10.7-4.2-11.2-11.4
				c-0.6-8.8,18.6-35.9,13.2-86c-1.5-13.2,3.5-32.8,6.1-37.7c2.6-4.9,5.3-7.5,5.3-7.5l4.6,0.6L509.2,206.6z"/>
			<path class="st5" d="M521.4,212.4c0,0,8.3,123,5,137.4c0,0,40.6-9.6,43.1-20.6c8.8-38.1-6.8-106.9-21.8-117.9
				c-13.6-9.9-16.8-11.7-16.8-11.7l-3.1,11.7L521.4,212.4z"/>
			<path class="st6" d="M513.1,200.2c-4.1,6.8-4.8,8.8-4.8,8.8s-2.8-1.3-5.3-1c0,0,4.8-10.2,8.9-12
				C516.2,194.2,513.1,200.2,513.1,200.2z"/>
			<path class="st1" d="M529.1,197.7c-14.3-4.2,7.9-22.8-8.4-27.8c-16.3-5-20.9,19.4-18.8,23.9c2,4.4,8.1,0.5,9,4.8
				c0.2,0.6,0.2,5.4,0.3,6c0.6,3.7,1.6,4.8,5.3,4.9l0,0c3,0.1,6-0.5,8.8-1.8l4-1.8L529.1,197.7z"/>
			<path class="st6" d="M533.5,199.8c-1.1,5.6-1.5,7.9-6.6,14.1c0,0-4.7-1.7-5.7-1.5c0,0,3-3.5,6-9c1.8-3.4,1.9-5.7,1.9-5.7
				L533.5,199.8z"/>
			<path class="st7" d="M506.2,175.1c2.2-1.1,4.9-1.6,5.4-0.3c0.5,1.3,3.3-0.6,5.3,1c1.9,1.7-0.2,9.4,1.2,9.8s3.5-0.9,3.8,1.6
				s-3.8,3.9-3.8,3.9s1,5.4,4.9,3.8c4-1.6,6.8-3.9,8.4-8.5c1.7-4.6,1.9-12.8-5.4-16.9c-7.4-4.1-12.9-2.3-16.6-1
				C506,169.7,506.2,175.2,506.2,175.1z"/>
			<path class="st8" d="M501.4,491.7c5-1.3,9.4-2.2,8.6-6.3c-0.2-1.2-0.8-4-0.8-4c-2,1.7-8.9,2.5-9.3,1.1c0,0-24.4,9.7-25,12.2
				c0,0.1,0.1,0.9,0.1,1.1C475.8,498.1,496.4,493,501.4,491.7z"/>
			<path class="st8" d="M547.1,494.3c1.9-0.8,10.7-5.7,9.9-9.8c-0.1-1.2-0.9-5-0.9-5c-1.1,3-8.4,3.4-8.7,3.2c0,0-12,8.4-12.5,10.9
				c0,0.1,0.1,0.9,0.1,1.1C535.8,497.1,542.5,496.4,547.1,494.3z"/>
		</g>
		<g>
			<path class="st0" d="M546.9,288.4c0,0-14.3-43.4-19.3-58.7c-2.5-7.4,15.6-23.1,25.5-5.5c6.9,12.3,8.7,47.4,8.9,56.8
				c0.1,1.9-6.1,16.4-7.7,21.4l-9-3.2L546.9,288.4z"/>
			<path class="st9" d="M535.8,346.4l2.1-10.5c0,0-2.3,1.2-3.8,1.5c-1.6,0.3-2.7-1.2-0.7-1.8c2-0.6,5.5-4.3,5.5-4.3l6.5-32.1l9,3.2
				c-4.2,11-11,26.4-11.3,29.6C541.7,349.5,535.9,346.4,535.8,346.4z"/>
			<polygon class="st2" points="546.5,290.4 557.4,294.3 553.8,303.9 544.8,300.7 			"/>
		</g>
	</g>
</g>
<linearGradient id="SVGID_1_" gradientUnits="userSpaceOnUse" x1="482.6178" y1="437.7585" x2="482.6178" y2="926.4727" gradientTransform="matrix(1 0 0 -1 -30.6739 940)">
	<stop  offset="0" style="stop-color:#FFFFFF;stop-opacity:0"/>
	<stop  offset="2.168840e-02" style="stop-color:#F6FCFE;stop-opacity:2.168840e-02"/>
	<stop  offset="0.1827" style="stop-color:#B6E5FA;stop-opacity:0.1827"/>
	<stop  offset="0.3416" style="stop-color:#7ED2F6;stop-opacity:0.3416"/>
	<stop  offset="0.4944" style="stop-color:#51C2F3;stop-opacity:0.4944"/>
	<stop  offset="0.64" style="stop-color:#2EB6F0;stop-opacity:0.64"/>
	<stop  offset="0.7764" style="stop-color:#15ADEE;stop-opacity:0.7764"/>
	<stop  offset="0.9001" style="stop-color:#05A8ED;stop-opacity:0.9001"/>
	<stop  offset="1" style="stop-color:#00A6ED"/>
</linearGradient>
<path class="st10" d="M62.4,383.9C-6.1,259.5,162.5,15.2,270.4,13.5c125.5-2,49,173.6,300.9,177.6c154.1,2.5,299,146.8,285.2,203.9
	C830.1,504.3,166.6,572.7,62.4,383.9z"/>
<g>
	<g>
		<path class="st11" d="M599.8,268.2c1.4-13.7-1.1-55.7,2.3-55.1c0.4,0.1,0.8,0.2,1.4,0.4c10.4,3.7,18.7,8.1,16.6,18.9
			c-2.1,11.2-7.1,31.1-8.3,37.2c-2.6,13.5-17.8,47.8-17.5,52.3c0.3,4.4-4.1,9.6-8.1,12.1s-3.4-0.6-1.8-1.8s3.7-8.7,1.6-7.2
			s-3.5,1.1-3.5,0.5s1.5-2.1,4.7-4.6C587.2,320.9,598.3,281.6,599.8,268.2z"/>
		<path class="st12" d="M621,226.9c0.7,3.1-0.3,7.6-2.3,16.4c-0.8,3.6-1.6,6.6-2.2,8.6c-3.3-6.4-16.5-3-16.5-3s-2.4-26.8,1.3-36.7
			c0-0.2,0.2-0.7,0.7-1C605.3,208.9,618.8,216.6,621,226.9z"/>
	</g>
	<g>
		<path class="st4" d="M606.6,302.5l46.2,2.8c0,0,14.2-53.2-1.9-86.4c-16.1-33.2-53.3-22.9-51.2-3.2c2.7,26.3,13.2,53.8,0.4,71.6
			L606.6,302.5z"/>
		<path class="st11" d="M596.5,181.1c1.8-14.6,12.6-9.1,18.2-1.3s7,16.7,10.3,18c3.2,1.3,1.7,6.3-4.1,7.7c-12.8,3.2-12.4-5-12.4-5
			s5.1-3.5,0-6.6C604.7,191.5,594.5,195.7,596.5,181.1z"/>
		<path class="st13" d="M619.3,180.5c2.6,5.3,1.4,11.2,1.4,11.2s-0.9,0.4-4.2,0s-3.5-3.6-3.5-3.6s1.9,0.5,2.3-2.4
			c0.4-2.9-2.3-3-4.5-2.2c-2.2,0.9-4.7-3.7-14.7-5.9s-6.5-3.8,3.5-3C609.9,175.5,617,175.3,619.3,180.5z"/>
		<path class="st7" d="M614.8,172.4c4.9,2.6,5.4,9.8,5.4,9.8s-1.5,2.6-9.5-0.9c-6.2-2.7-6.6-2.9-13.3-6.9
			C597.4,174.4,603.9,166.6,614.8,172.4z"/>
		<path class="st7" d="M598.7,173.5c0,0-6.5-1.5-11.2-3.8c-2.5-1.2-6.1,0-5.1,0.6c3.5,2.3,4.1,2.4,7,3.7c2.1,1,13.7,3.8,13.7,3.8
			L598.7,173.5z"/>
		<polygon class="st3" points="600.3,473.2 600.7,477.1 596.4,481.9 592.1,479.5 592.1,477.6 591.4,473.5 		"/>
		<path class="st3" d="M644,473.7l0.6,3.8l-4.6,4.1c0,0-3.3-1.7-3.7-1.9c-0.3-0.2-2.2-6.1-2.2-6.1L644,473.7z"/>
		<path class="st5" d="M652.4,299.6c-4,45.9-9.5,58.4-14.2,91.8c-2.5,18,1.2,42.9,6.4,82.2c0.4,3.4-12.4,3.5-13.5,0.3
			c-9.3-29.6-21.2-68.3-23.6-83.2c-3.1-19-2-56.2-2-56.2l10.7-41.7L652.4,299.6z"/>
		<path class="st5" d="M601,285.8c-18.1,42.4-20.4,75.3-22,93.4c-2.4,25.9,4.9,48.1,10.4,94c0.4,2.9,11.6,2.6,11.6-0.3
			c0.2-42-0.8-86.7,5.4-103.4c5.3-14.2,16.9-34.2,16.9-34.2l12.8-38.2L601,285.8z"/>
		<path class="st14" d="M593,486.2c4.7-1,8.8-1.7,8.2-5.5c-0.1-1.2-0.6-3.8-0.6-3.8c-1.9,1.5-8.4,2-8.7,0.7c0,0-23,8.1-23.7,10.4
			c0,0.1,0.1,0.8,0.1,1C569,491.2,588.3,487.2,593,486.2z"/>
		<path class="st14" d="M635.5,490.4c1.7-0.5,10.1-4.9,9.6-8.7c-0.1-1.1-0.6-4.7-0.6-4.7c-1.2,2.7-7.9,2.7-8.2,2.6
			c0,0-11.4,7.3-12,9.7c0,0.1,0.1,0.8,0.1,1C625,492.6,631.2,492.2,635.5,490.4z"/>
	</g>
	<path class="st12" d="M639.9,276c4.6-0.7,11.1-2.2,18.6-5.3c0.1,6.7-1.4,16.3-3,24.2c-1,4.9-2,9.7-3.2,14.1
		c-24.3,4.8-44.7-0.1-50.7-12.3c-1.1-2.2-2-5.2-1.9-9.1c4.5-5.4,6.3-17,6.3-17c0.2,0.2,0.5,0.6,1,1C615.9,280,630.7,277.6,639.9,276
		z"/>
	<path class="st11" d="M638.3,264.6c-2.2-13.6-15.7-53.4-12.3-53.7c0.3-0.1,0.8,0,1.4,0c10.9,0.8,20.2,2.9,21,13.8
		c0.8,11.4,1.3,31.9,1.8,38.1c1.1,13.8-4.4,50.9-3,55.1c1.4,4.2-1.4,10.3-4.6,13.8s-3.5,0.3-2.2-1.3c1.3-1.7,1.3-9.4-0.3-7.4
		c-1.6,2-3.1,2-3.2,1.4c-0.1-0.6,0.9-2.5,3.3-5.7C640.2,318.7,640.6,277.9,638.3,264.6z"/>
	<path class="st12" d="M647.8,219.1c1.5,2.8,1.7,7.4,2.1,16.4c0.1,3.8,0.1,6.8,0.1,8.9c-4.9-5.2-16.7,1.5-16.7,1.5
		s-9.3-25.1-8.4-35.7c0.1-0.2,0.1-0.7,0.5-1.2C628,205.9,643.1,209.8,647.8,219.1z"/>
</g>
<g>
	<g>
		<g>
			<path class="st15" d="M160.8,302.2c-1.8-2.6-15.6-12.4-24.8-19.8l6-7.4l21.9,24.4c0,0,4.8,1.4,6.9,0.9c2.1-0.5,1.9,1.4,0.3,1.9
				c-1.5,0.4-4.1,0.6-4.1,0.6l7.2,8C174.3,310.8,170.9,316.5,160.8,302.2z"/>
			<path class="st16" d="M141.4,274.4l-6,7.4c-3.8-3.5-16.5-12.8-17.4-14.5c-4.6-8.2-21-39.3-21.3-53.4
				c-0.4-20.2,23.2-15.9,24.8-8.3c3.5,15.7,13.3,60.3,13.3,60.3L141.4,274.4z"/>
			<polygon class="st16" points="142.6,275.5 136.6,282.8 128.6,276.3 135.9,267.5 			"/>
		</g>
		<g>
			<polygon class="st3" points="120.7,475 119.8,479.4 119.7,481.4 114.9,483.8 110.5,478.4 111.1,474.3 			"/>
			<path class="st3" d="M74.8,473.2c0,0-2.3,6.3-2.6,6.4c-0.4,0.2-4.1,1.9-4.1,1.9l-4.8-4.6l0.8-4L74.8,473.2z"/>
			<path class="st7" d="M102,279.9l9.7,45.2c0,0-0.5,40-4.6,60.2c-3.2,15.9-17.7,56.9-29,88.3c-1.3,3.4-15.1,2.7-14.5-0.9
				c7.3-42,12.4-68.5,10.5-87.9c-3.6-36.1-8.9-49.7-11.2-99.2L102,279.9z"/>
			<path class="st7" d="M80.5,283.7l12.1,41.6c0,0,11.6,22,16.6,37.5c5.9,18.2,2.9,66.1,1.2,111.2c-0.1,3.1,11.9,3.9,12.4,0.8
				c7.9-49,16.7-72.5,15.3-100.4c-0.9-19.5-1.9-54.9-19.5-101.2L80.5,283.7z"/>
			<path class="st3" d="M92.4,211l-1.8-9.4c0,0,8.3,6,14.2,5.8c6-0.1,6-3.7,6-7.1c0.1-3.5,7.4,4.8,7.2,5c-0.3,0.2,3.2,28.9,3.2,28.9
				l-3.3,58.4c0,0-4.7,7.5-26.7,6.1L92.4,211z"/>
			<path class="st2" d="M111.4,195.8l4.6-0.6c0,0,2.7,2.6,5.3,7.5c2.6,5,7.6,24.5,6.1,37.7c-5.4,50.1,13.8,77.2,13.2,86
				c-0.4,7.2-11.2,11.4-11.2,11.4s-13.9-42-14.5-49.9c-1.3-14.8-0.9-36.3-0.5-44.9c0.5-8.6-1.4-34.8-3.8-39.6L111.4,195.8z"/>
			<path class="st2" d="M92,208.2l-3.1-11.7c0,0-3.2,1.8-16.8,11.7C57,219.1,41.4,287.9,50.3,326.1c2.5,10.9,43.1,20.6,43.1,20.6
				c-3.4-14.4,5-137.4,5-137.4L92,208.2z"/>
			<path class="st17" d="M107.7,192.9c4.1,1.8,8.9,12,8.9,12c-2.5-0.3-5.3,1-5.3,1s-0.7-2-4.8-8.8
				C106.5,197.1,103.5,191.1,107.7,192.9z"/>
			<path class="st1" d="M90.4,202.8l4,1.8c2.8,1.3,5.8,1.9,8.8,1.8l0,0c3.7-0.1,4.8-1.2,5.3-4.9c0.2-0.6,0.2-5.4,0.3-6
				c0.9-4.3,7-0.4,9-4.8c2.1-4.5-2.5-28.9-18.8-23.9s5.9,23.6-8.4,27.8L90.4,202.8z"/>
			<path class="st17" d="M90.6,194.6c0,0,0,2.3,1.9,5.7c3,5.5,6,9,6,9c-1-0.2-5.7,1.5-5.7,1.5c-5.1-6.2-5.5-8.4-6.6-14.1L90.6,194.6
				z"/>
			<path class="st14" d="M110.3,165.5c-3.7-1.3-9.2-3.1-16.6,1c-7.3,4.1-7.1,12.3-5.4,16.9c1.6,4.5,4.5,6.9,8.4,8.5s4.9-3.8,4.9-3.8
				s-4.1-1.4-3.8-3.9c0.2-2.5,2.3-1.2,3.8-1.6c1.3-0.4-0.8-8.2,1.2-9.8s4.8,0.3,5.3-1c0.5-1.4,3.2-0.9,5.4,0.3
				C113.5,172.1,113.7,166.6,110.3,165.5z"/>
			<path class="st14" d="M144.8,492.6c0-0.2,0.1-1,0.1-1.1c-0.6-2.5-25-12.2-25-12.2c-0.4,1.4-7.3,0.6-9.3-1.1c0,0-0.6,2.8-0.8,4
				c-0.8,4.1,3.6,5,8.6,6.3S143.9,495,144.8,492.6z"/>
			<path class="st14" d="M84.5,491.6c0-0.2,0.1-1,0.1-1.1c-0.5-2.6-12.5-10.9-12.5-10.9c-0.3,0.1-7.5-0.2-8.7-3.2c0,0-0.7,3.8-0.9,5
				c-0.7,4.1,8.1,9.1,9.9,9.8C77.1,493.3,83.8,494,84.5,491.6z"/>
		</g>
		<g>
			<path class="st16" d="M74.5,296.1l-9,3.2c-1.6-5.1-7.8-19.5-7.7-21.4c0.2-9.4,2-44.5,8.9-56.8c9.8-17.6,27.9-1.9,25.5,5.5
				c-5,15.4-19.3,58.7-19.3,58.7L74.5,296.1z"/>
			<path class="st1" d="M76.5,328.9c-0.3-3.2-7.1-18.5-11.3-29.6l9-3.2l6.5,32.1c0,0,3.5,3.7,5.5,4.3c2,0.6,0.8,2.1-0.7,1.8
				s-3.8-1.5-3.8-1.5l2.1,10.5C83.8,343.3,77.9,346.4,76.5,328.9z"/>
			<polygon class="st17" points="74.8,297.6 65.9,300.8 62.3,291.2 73.1,287.3 			"/>
		</g>
	</g>
	<g>
		<circle class="st3" cx="153.2" cy="346.2" r="13.5"/>
		<g>
			<path class="st18" d="M157.6,335.4c6.1,2.2,9.4,8.9,7.2,15.1s-8.9,9.4-15.1,7.2c-6.2-2.1-9.4-8.9-7.2-15.1
				C144.6,336.4,151.4,333.2,157.6,335.4z M147.5,346.8l10.6,3.7c1.5,0.5,3.3-3.7,1.5-4.3l-10.6-3.7
				C147.3,341.9,146,346.2,147.5,346.8z M147.3,313.4l-13.6,38.6c-1,2.9,0.9,7,3.8,8l20.2,7.2c2.9,1,7-0.9,8-3.8l7.2-20.3
				c0.9-2.6-0.1-5.5-2.1-7.3c-4-3.4-10.2-6-14-9.9c-3.7-3.8-1.8-9.6,2-12.3c5.5-3.9,12.7,0.6,12.2,6.9c-0.1,1.7-0.6,2.3-0.1,3.9
				c1.5,4.7,10.6,5.4,9.1-6.5c-0.8-5.9-4.8-11.6-10.5-13.6C160.8,301.2,150.6,304.4,147.3,313.4z"/>
		</g>
		<circle class="st3" cx="180.8" cy="343" r="13.5"/>
		<g>
			<g>
				<path class="st19" d="M175.9,332.6c5.7-2.7,12.6-0.4,15.3,5.4c2.7,5.7,0.4,12.6-5.4,15.3s-12.6,0.4-15.3-5.4
					C167.8,342.2,170.2,335.4,175.9,332.6z M153.8,324.7l17.2,35.8c1.3,2.7,5.3,4.1,8,2.8l18.8-9c2.7-1.3,4.1-5.3,2.8-8l-9.1-18.8
					c-1.1-2.4-3.8-3.8-6.4-3.5c-5.1,0.3-11.1,2.9-16.4,2.8c-5.1-0.1-7.8-5.4-7-9.8c1.1-6.5,9.2-8.3,13.2-3.6c1.1,1.3,1.1,2,2.6,2.8
					c4.2,2.1,11-3.7,1.7-10.8c-4.5-3.5-11.3-4.7-16.5-2.1C154.7,307,149.9,316.3,153.8,324.7z"/>
			</g>
			<path class="st20" d="M180.6,345.9c0-0.2,0.1-0.4,0.1-0.6c0.6-2.8,1.3-5.6,1.9-8.4c0.1-0.1,0.1-0.3,0.2-0.5
				c0.2-0.4,0.5-0.6,0.9-0.5c0.3,0.1,0.6,0.5,0.6,0.8c0,0.1,0,0.2-0.1,0.3c-0.7,3.4-1.5,6.6-2.2,10c-0.1,0.6-0.6,0.8-1.1,0.5
				c-1.3-0.6-2.7-1.3-4.1-2c-0.5-0.3-0.6-0.6-0.4-1c0.2-0.4,0.5-0.6,1.1-0.3c0.9,0.5,1.8,0.8,2.7,1.3
				C180.2,345.7,180.3,345.8,180.6,345.9z"/>
		</g>
	</g>
</g>
<g>
	<g>
		<path class="st21" d="M699.7,520.5c-0.8-1.5-0.6-3.2,0.3-4.5l61.7-85.7l27.4,2.1l-61.5,84.3c-2.9,3.9-7.4,6.2-12.2,6.2h-12
			C701.8,522.9,700.3,522,699.7,520.5z M762.5,432.5l-61,84.8c-0.5,0.7-0.6,1.6-0.2,2.4c0.5,0.8,1.2,1.3,2.1,1.3h12
			c4.2,0,8.2-2,10.6-5.4l59.3-81.4L762.5,432.5z"/>
		<path class="st21" d="M766.9,516.8l-61.5-84.3l27.4-2.1l61.7,85.7c0.9,1.3,1,3.1,0.3,4.5s-2.2,2.3-3.8,2.3h-12
			C774.2,522.9,769.6,520.6,766.9,516.8z M709,434.2l59.3,81.4c2.5,3.4,6.4,5.4,10.6,5.4h12c0.9,0,1.7-0.5,2.1-1.3s0.3-1.7-0.2-2.4
			l-61-84.8L709,434.2z"/>
		<rect x="702.5" y="427.6" class="st21" width="28.6" height="11.5"/>
		<rect x="731.1" y="427.6" class="st21" width="62" height="11.5"/>
	</g>
	<g>
		<path class="st1" d="M715.9,352l-24.3,37.4c0,0-22.2,28.6-23.7,30.5c-2,2.4-3,2-9.7,7.4c-6.6,5.3-4.3,7.8-4.3,7.8s2.4-2,4.3-3.5
			c2.2-1.8,4.2-3.1,3.6,0.6c-0.6,3.6,3.1,0.5,4-1.4c1.8-4.3,5.3-6,5.3-6c28.2-21.1,56.9-64.2,56.9-64.2
			C726.5,354.1,716,352,715.9,352z"/>
		<path class="st3" d="M725.9,363.3l3.6-5c-2.1-3.2-5.3-9-6.3-16.8c-0.5-4.1-0.3-7.7,0.1-10.5c-1.3,4.4-3,9.1-5.1,14.1
			c-1.8,4.4-3.8,8.5-5.7,12.1C715.2,353.1,726.7,361.1,725.9,363.3z"/>
		<path class="st1" d="M656.8,478l-0.5,6.5c0,0-0.2,2.9-0.5,4c-0.4,1.2-3.7,3.5-3.7,3.5l0.7,4l9.6-3.8c0,0,0.6-0.7,0.2-1.9
			s0.1-4.6,0.1-4.6l1.1-5.3L656.8,478z"/>
		<path class="st2" d="M631.4,499.4c0-0.1,0-0.9,0-1c0.4-2.3,20.8-6.2,20.8-6.2c0.3,0.7,7.8,1.2,10.4-2c0,0,0.5,3.1,0.8,4.5
			c0.7,4-4.8,6.1-10.1,6.3C648.7,501.1,632.1,501.7,631.4,499.4z"/>
		<path class="st1" d="M654.6,502.2c0,0-2.3,4.6-3.3,6c-4.1,6.1-7.6,11.3-7.6,11.3l10.7-1.3c0,0,0.9-0.7,1.1-2
			c0.3-1.3,4.6-7.7,4.6-7.7L654.6,502.2z"/>
		<path class="st2" d="M622.1,518.1c0-0.1,0.3-0.9,0.4-1c1.4-2,24.2-1.7,24.2-1.7c-0.2,1.5,6.8,2.7,8.9,0.6c0,0-0.8,3.5-1.1,4.7
			c-0.9,3.9-5.2,4.1-10.1,3.3C639.4,523.3,621.7,520.6,622.1,518.1z"/>
		<path class="st22" d="M730.1,423.8c0,0-39.7-12.3-59.4-10c-10.1,1.2-4.9,66.8-7,72.2c-2.4,1.7-8.7-0.3-8.7-0.3s-9.9-73-5.1-84.6
			c7.3-17.4,56.6-16.4,89.2-11L730.1,423.8z"/>
		<path class="st23" d="M750.7,390.6c0,0-13.5,7.5-18.2,9.9c-14,7.1-37,28.7-43.9,35.7c-4.1,4.2-35.6,69.1-35.6,69.1
			c-1.1,1.9,5,4.5,7.1,3c0,0,33-43.2,41.4-53.6c5.2-6.3,57.4-16.2,67.4-34.1C785.2,391.5,750.7,390.6,750.7,390.6z"/>
		<path class="st5" d="M754.1,409.8c-3,11.9-7.8,14.1-9.7,14.7c-11.6,3.7-32.3-17.7-30.1-32.5c0.5-3.2,1.4-6.8,4.1-16.8
			c1.3-4.8,1.4-8.6,1.6-9.9c4.2-30.5,6.8-49.8,14.6-52.1c7-2.1,16.4,9.8,20.6,15.2c24.2,30.7,27.4,77.7,11.3,91.3
			c-2,1.7-9.5,7.3-12,5.4c-0.6-0.5-0.8-1.4-0.8-5.6C753.8,415.6,754,412.2,754.1,409.8z"/>
		<path class="st1" d="M724.4,293.2c0.6,0.5,0.5,0.4,0.8,0.6c1.1,0.9,2,2.2,6.3,6.9c1.6,1.8,2.2,2.5,3.3,3.3
			c2.2,1.8,3.2,1.6,3.8,2.9c1.1,2.1,0.3,4.6,0.3,7.6c-0.2,4.5-5.8,10.7-7.5,8.3c-2.3-3.5-1.1-7-4.9-8.2c-3.8-1.4-5.3,0.4-8.5-1.1
			c-0.1-0.1-1.2-0.6-2.1-1.5c-2.9-3-1.7-8.2,0.9-18.2c0.6-2.3,1.2-4.3,2.3-4.5C719.8,289.1,720.4,290,724.4,293.2z"/>
		<path class="st2" d="M752.5,305.1c3.9,7.6,30.6,12.4,26.9,26.1c-3.6,13.7-5.5,19.7,1.8,28.7c8.7,10.7,6.1,28.9-4.9,35.5
			c-1.6,0.9-2.8,1.1-3.8,0.9c-3.4-0.8-5.5-4-5.8-4.5c-4.5-8.1,7.4-18.4,3-26.6c-1.4-2.6-2.5-1.5-5.2-4.6c-8.2-9.5,0.1-22.5-7.2-29.3
			c-3-2.8-7.1-3.2-8.1-3.3c-7.1-0.8-11.7,4-14.1,2.1c-1.4-1.2-2.1-3.3-0.5-7.8c3.3-9.4-7.8-13.6-4.6-13.5c2.1,0.1,4.7-7.4-2.7-5.7
			c0,0-3.4-5.4-7.4-7.9c-2.8-1.7-7.4-8.1,3-9.5C737.1,283.6,740.8,281.8,752.5,305.1z"/>
		<path class="st1" d="M743.3,364.7l-11-0.1c0,0-10.4,15.7-16.3,22.9c-8.4,10.2-36.8,2.1-39.6,0.9c-4.6-2.2-7.6-1.1-7.6-1.1
			c-3.3,0.6-8.7,5-9.4,5.7c-0.7,0.6-4,4.8,2.2,1.6s15.1,3.7,38.4,6.2c23.2,2.4,29-7.1,45.1-26.5L743.3,364.7z"/>
		<path class="st3" d="M757.9,355.8c-2,7.7-12.9,18.4-12.9,18.4c0-6.9-12.7-9.8-12.7-9.8s9.9-23.6,17.4-30.4
			C754.1,330.2,759.9,348.2,757.9,355.8z"/>
	</g>
</g>
</svg>
