<?xml version="1.0" encoding="utf-8"?>
<!-- Generator: Adobe Illustrator 22.1.0, SVG Export Plug-In . SVG Version: 6.00 Build 0)  -->
<svg version="1.1" id="Layer_1" xmlns="http://www.w3.org/2000/svg" xmlns:xlink="http://www.w3.org/1999/xlink" x="0px" y="0px"
	 viewBox="0 0 667 515" style="enable-background:new 0 0 667 515;" xml:space="preserve">
<style type="text/css">
	.st0{opacity:0.2;fill:url(#SVGID_1_);enable-background:new    ;}
	.st1{fill:#FDD4C6;}
	.st2{fill:#2708A0;}
	.st3{fill:#FFC950;}
	.st4{fill:#FFFFFF;}
	.st5{fill:#F94110;}
	.st6{fill:#FFBA0A;}
	.st7{fill:#161303;}
	.st8{fill:#FAFAFA;}
	.st9{fill:#6FC911;}
	.st10{fill:#5BB702;}
	.st11{fill:#FFAF94;}
	.st12{fill:#F6511D;}
	.st13{fill:#F0EDF3;}
	.st14{fill:#E7E6E8;}
	.st15{fill:#F1D2C4;}
	.st16{fill:#FF4F2C;}
	.st17{fill:#D3DCE5;stroke:#FAFAFA;stroke-width:3;stroke-miterlimit:10;}
</style>
<linearGradient id="SVGID_1_" gradientUnits="userSpaceOnUse" x1="335.4518" y1="424.3242" x2="335.4518" y2="922.8535" gradientTransform="matrix(1 0 0 -1 0 930)">
	<stop  offset="0" style="stop-color:#FFFFFF;stop-opacity:0"/>
	<stop  offset="2.168840e-02" style="stop-color:#F6FCFE;stop-opacity:2.168840e-02"/>
	<stop  offset="0.1827" style="stop-color:#B6E5FA;stop-opacity:0.1827"/>
	<stop  offset="0.3416" style="stop-color:#7ED2F6;stop-opacity:0.3416"/>
	<stop  offset="0.4944" style="stop-color:#51C2F3;stop-opacity:0.4944"/>
	<stop  offset="0.64" style="stop-color:#2EB6F0;stop-opacity:0.64"/>
	<stop  offset="0.7764" style="stop-color:#15ADEE;stop-opacity:0.7764"/>
	<stop  offset="0.9001" style="stop-color:#05A8ED;stop-opacity:0.9001"/>
	<stop  offset="1" style="stop-color:#00A6ED"/>
</linearGradient>
<path class="st0" d="M33.3,385C-19.9,258.1,111,9,194.6,7.2c97.4-2.1,38.1,177,233.4,181.1c119.5,2.6,231.9,149.7,221.2,208
	C628.7,507.7,114.1,577.6,33.3,385z"/>
<g>
	<g>
		<polygon class="st1" points="134.5,468.3 134.2,472.1 138.8,477.1 143.3,474.6 143.2,472.6 143.8,468.3 		"/>
		<path class="st1" d="M89.2,469.8l-0.5,3.9l4.9,4.1c0,0,3.5-1.9,3.8-2.1c0.3-0.1,2.1-6.4,2.1-6.4L89.2,469.8z"/>
		<path class="st1" d="M137.3,128.7l3.4-18.9c0,0-3.6-10.1,2.4-13.5c6-3.3,11.3-0.2,12.1,1.6c0.8,1.8-12.5,34.3-12.5,34.3
			L137.3,128.7z"/>
		<path class="st2" d="M76.5,289.5c5.3,47.5,11.2,60.3,16.9,94.8c3,18.6-0.3,44.4-4.7,85.3c-0.4,3.5,13,3.3,14,0
			c9-30.9,20.4-71.3,22.5-86.8c2.7-19.7,0.7-58.2,0.7-58.2l-12.1-42.9L76.5,289.5z"/>
		<path class="st2" d="M129.4,274.2c19.8,43.5,22.9,77.5,25,96.2c3.1,26.8-4,49.9-8.6,97.6c-0.3,3-11.9,3-12,0
			c-1.1-43.5-1.2-89.8-8-107c-5.8-14.6-18.3-35.1-18.3-35.1l-14.2-39.3L129.4,274.2z"/>
		<polygon class="st3" points="114.6,199.1 133.7,148.3 137.3,128.7 149.2,136.5 143.1,191.6 130.1,226.9 		"/>
		<path class="st4" d="M104.6,300.4c21.3,0,25.3-7.5,25.3-7.5l-0.4-56.4c0,0-5.1-27.4-4.9-27.6c0.2-0.2-7.4-7.7-7.2-4.4
			c0.2,3.4,0.4,6.7-5.3,7.2c-5.7,0.6-14-4.7-14-4.7l2.3,8.9L104.6,300.4z"/>
		<polygon class="st5" points="137.3,128.7 135.7,137.8 148.3,145 149.2,136.5 		"/>
		<path class="st6" d="M117.4,207.5c2.6,4.5,6,29.6,6.1,37.9c0.1,8.3,1.1,29,3.2,43.2c1.1,7.6,17,47.2,17,47.2s10.1-4.7,10.1-11.7
			c0-8.5-20.1-33.4-18-82c0.6-12.8-5.4-31.3-8.2-35.9c-2.8-4.6-5.6-6.9-5.6-6.9l-4.4,0.9L117.4,207.5z"/>
		<path class="st6" d="M106,213.9c0,0-0.5,118.9,3.6,132.6c0,0-39.7-6.8-42.8-17.2C56,293.2,66.8,225.9,80.5,214.5
			c12.5-10.4,15.5-12.3,15.5-12.3l3.7,11.1L106,213.9z"/>
		<path class="st5" d="M113.1,201.6c4.4,6.3,5.2,8.2,5.2,8.2s2.6-1.4,5-1.3c0,0-5.2-9.5-9.3-11C109.8,195.9,113.1,201.6,113.1,201.6
			z"/>
		<path class="st1" d="M97.6,200.2c13.5-4.9-9-21.5,6.4-27.3c15.4-5.8,21.3,17.4,19.6,21.9c-1.7,4.4-7.8,1-8.4,5.2
			c-0.1,0.6,0.2,5.2,0.1,5.8c-0.3,3.6-1.2,4.7-4.8,5l0,0c-2.9,0.3-5.8-0.1-8.6-1.2l-4-1.5L97.6,200.2z"/>
		<path class="st5" d="M93.5,202.5c1.4,5.4,1.9,7.5,7.2,13.2c0,0,4.4-1.9,5.4-1.8c0,0-3.1-3.2-6.3-8.3c-2-3.2-2.2-5.4-2.2-5.4
			L93.5,202.5z"/>
		<path class="st5" d="M75.7,299.8l-1.1,5c0,0,6.4,4.1,24.8,7.7v-5.5C99.5,307.1,82.2,303.6,75.7,299.8z"/>
		<polygon class="st5" points="142.8,294.4 139.8,300.4 145,302.9 146.7,297.4 		"/>
		<path class="st7" d="M118.3,177.1c-2.2-1-4.8-1.3-5.2,0c-0.4,1.3-3.2-0.4-5,1.3c-1.8,1.7,0.7,9-0.6,9.5c-1.4,0.5-3.5-0.6-3.6,1.8
			c-0.1,2.4,3.9,3.5,3.9,3.5s-0.6,5.3-4.5,4c-3.9-1.3-6.8-3.4-8.6-7.7c-1.9-4.3-2.6-12.2,4.2-16.6c6.9-4.4,12.3-3,15.9-2
			C118.1,171.8,118.3,177.1,118.3,177.1z"/>
		<path class="st1" d="M145.2,107c3.4-3.5,4.1-4.3,5-3.2c0.9,1-5,8.2-5,8.2V107z"/>
		<path class="st7" d="M142.4,481.5c-4.9-0.9-9.2-1.5-8.7-5.5c0.1-1.2,0.5-3.9,0.5-3.9c2,1.5,8.7,1.9,9,0.5c0,0,24.1,7.8,24.8,10.2
			c0,0.1,0,0.9,0,1.1C167.4,486.2,147.3,482.4,142.4,481.5z"/>
		<path class="st7" d="M98.3,486.9c-1.8-0.6-10.6-4.8-10.1-8.8c0.1-1.2,0.6-4.9,0.6-4.9c1.3,2.8,8.3,2.7,8.6,2.5
			c0,0,12.1,7.3,12.7,9.7c0,0.1,0,0.9,0,1.1C109.5,488.9,103,488.6,98.3,486.9z"/>
	</g>
	<path class="st8" d="M467.9,144.8c-106.7-15.9-213.4-31.7-320.1-47.6l-22.6,152.3C231.6,265.4,338,281.2,444.5,297
		C452.3,246.3,460.1,195.5,467.9,144.8z"/>
	<path class="st3" d="M146.6,252.1c0,0-34.7-27.1-47-36.6c-5.9-4.6-26.1,6.7-13.3,21.4c8.9,10.3,40.2,23.3,48.7,26.6
		c1.7,0.7,16.8-0.2,21.9,0v-9.2L146.6,252.1z"/>
	<path class="st1" d="M202.8,261.1l-10.2-1.5c0,0,1.8-1.7,2.6-3c0.8-1.3-0.2-2.8-1.4-1.2c-1.2,1.6-5.7,3.6-5.7,3.6l-31.3-4.6v9.2
		c11.4-0.2,27.6-1.4,30.6-0.6C203.7,267.4,202.8,261.1,202.8,261.1z"/>
	<polygon class="st5" points="148.5,252.5 148.5,263.6 158.4,263.5 158.4,254.3 	"/>
	<g>
		<path class="st1" d="M507.5,207.8c0,0-16.9,14.8-24,16.3c-5.2,1.1-15.4-18.7-15.1-21.5c0.3-2.8,1.4-5,1.5-8.4c0.1-3.4-3-5.6-3-5.6
			s-0.6,3.9-0.8,5.2c-0.2,1.3-0.8,2.6-2.4,1.6c-1.6-1-5.4-3.9-5.8-2.9c-0.7,1.9,2.6,2.7,3.2,7.8c0.2,2.1,1.8,3.5,1.8,3.5
			s4.2,31.1,15.5,34.1c11.4,2.9,31.8-12.1,31.8-12.1L507.5,207.8z"/>
		<path class="st9" d="M514.8,227.4c-2.1,2-6,3.4-13.7,6.1c-3.2,1.1-5.8,1.9-7.6,2.4c3.3-5.6-5.6-14.1-5.6-14.1
			c4.8-2.9,8.4-5.6,10.8-7.6c6.1-4.9,10.6-9.7,16.5-9.6c0.9,0,1.4,0.1,1.8,0.3C521.3,207.2,521.4,221,514.8,227.4z"/>
		<g>
			<path class="st1" d="M504,437c1,1.7,2,3.4,3,5.1c-0.9,1.7-1.7,3.3-2.6,5l-4.8-0.7l-0.7-1.9l-2.4-3.8L504,437z"/>
			<polygon class="st1" points="536.1,438.4 537.1,442.4 533.6,448.3 528.9,446.4 528.7,444.4 527.3,440.1 			"/>
			<path class="st2" d="M488.1,397c0,0,15.8,38.4,16,39.7c0.3,1.3-0.3,2.3-0.3,2.3l-6.4,3.7l-1.9-3.5l-23.4-38.3L488.1,397z"/>
			<path class="st6" d="M501.4,453.5c4.6-1.9,9.2-4.6,7.9-8.4c-0.4-1.1-2.7-4.3-2.7-4.3c-0.7,3-7.3,5.6-7.9,4.2
				c0,0-19.5,11.8-19.7,14.2c0,0.1,0.1,0.9,0.2,1.1C480.3,462.4,496.8,455.4,501.4,453.5z"/>
			<path class="st2" d="M534.2,309.1c-3.2,20.2-44.5,42-48.3,57.1c-3.2,12.9,2.2,30.9,2.2,30.9c0.2,1.7-14.9,6-16,3.9
				c0,0-14.8-28.7-14.8-41.9c0-20.1,25.1-45,35.8-56.5c3.6-3.9,13.7-15.6,13.7-15.6S539.5,276,534.2,309.1z"/>
			<path class="st2" d="M529.6,398.1c0,0,6.2,38.5,6.4,39.8c0.3,1.3-0.3,2.3-0.3,2.3c-0.5,0.4-2.4,1.7-5,1.4
				c-1.6-0.2-2.7-0.8-3.3-1.2c-4.3-12.7-8.5-25.4-12.8-38.2L529.6,398.1z"/>
			<path class="st6" d="M527.5,455.5c1.8-0.6,10.6-4.8,10.1-8.8c-0.1-1.2-0.6-4.9-0.6-4.9c-1.3,2.8-8.3,2.7-8.6,2.5
				c0,0-8.9,7.2-9.5,9.5c0,0.1,0,0.9,0,1.1C519.5,457.4,522.8,457.2,527.5,455.5z"/>
			<path class="st2" d="M559.5,304.9c-3.2,20.2-23.6,50.3-27.3,65.3c-3.2,12.9-2.5,27.8-2.5,27.8c0.2,1.7-13.9,6.3-15,4.1
				c0,0-11.1-25.9-11.1-39.1c0-20.1,14.5-45.2,25.1-56.8c3.6-3.9,12.3-19.4,12.3-19.4S564.7,271.8,559.5,304.9z"/>
			<path class="st10" d="M506.7,286.9c12.8-17.8,2.3-45.3-0.4-71.6c-2.1-19.7,35.1-30,51.2,3.2s1.9,86.4,1.9,86.4l-46.2-2.8
				L506.7,286.9z"/>
			<path class="st1" d="M515.1,193.4c5.1,3.1,0,6.6,0,6.6s-0.4,8.2,12.4,5c5.8-1.4,7.3-6.4,4.1-7.7c-3.3-1.3-4.7-10.2-10.3-18
				c-5.6-7.8-16.4-13.3-18.2,1.3C501.1,195.2,511.3,191.1,515.1,193.4z"/>
			<path class="st11" d="M506.2,174.1c-10-0.8-13.5,0.8-3.5,3c10,2.2,12.5,6.8,14.7,5.9c2.2-0.8,4.9-0.7,4.5,2.2
				c-0.4,2.9-2.3,2.4-2.3,2.4s0.2,3.2,3.5,3.6c3.3,0.4,4.2,0,4.2,0s1.2-5.9-1.4-11.2S516.5,175,506.2,174.1z"/>
			<path class="st12" d="M504,173.9c6.7,4,7.1,4.2,13.3,6.9c8,3.5,9.5,0.9,9.5,0.9s-0.5-7.2-5.4-9.8
				C510.5,166.2,504,173.9,504,173.9z"/>
			<path class="st12" d="M509.7,177.3c0,0-11.6-2.8-13.7-3.8c-2.9-1.3-3.5-1.4-7-3.7c-1-0.6,2.6-1.8,5.1-0.6
				c4.7,2.3,11.2,3.8,11.2,3.8L509.7,177.3z"/>
		</g>
		<path class="st9" d="M513.6,271.2c-0.5-0.4-0.8-0.8-1-1c0,0-1.8,11.6-6.3,17c-0.1,3.9,0.8,6.9,1.9,9.1c6,12.2,26.4,17.1,50.7,12.3
			c1.2-4.4,2.2-9.2,3.2-14.1c1.6-7.9,3.1-17.5,3-24.2c-7.5,3.1-14,4.6-18.6,5.3C537.3,277.1,522.6,279.5,513.6,271.2z"/>
		<path class="st1" d="M452.9,282.5c-4-0.5-6.2-0.4-6.6,0c-0.4,0.4,0.3,1.7,2.9,2.1s-4.2,4.3-6.2,4c-2.1-0.3-4.6,1.5,0,2.5
			c4.6,1,11.4,0.4,14.3-2.9c2.9-3.3,37.9-17.1,49.2-24.9c5.1-3.5,22.7-14.2,32.1-20.6c9.1-6.2,6.3-15.2,1.5-25.1
			c-0.3-0.5-0.5-0.9-0.7-1.2c-2-2.8-29.7,28.8-40.4,37.6C488.5,262.4,452.9,282.5,452.9,282.5z"/>
		<path class="st9" d="M543,239.3c-1.7,2.7-5.6,5.1-13.2,10c-3.1,2-5.8,3.6-7.6,4.6c2.1-6.9-9.6-13.8-9.6-13.8s17.1-20.7,26.7-25.2
			c0.2-0.1,0.6-0.3,1.2-0.2C544.6,215.5,548.7,230.5,543,239.3z"/>
	</g>
	<g>
		<path class="st13" d="M181.8,243.4c-0.5-0.1-0.8-0.8-0.7-1.7l7.5-48.3c0.1-0.9,0.7-1.5,1.2-1.4c0.5,0.1,0.8,0.8,0.7,1.7L183,242
			C182.9,242.9,182.4,243.5,181.8,243.4z"/>
		<path class="st13" d="M224.5,250.1c-0.5-0.1-0.9-0.6-0.8-1.2l12.2-78.2c0.1-0.6,0.6-1,1.1-0.9c0.5,0.1,0.9,0.6,0.8,1.2l-12.2,78.2
			C225.5,249.8,225,250.2,224.5,250.1z"/>
		<path class="st13" d="M267.2,256.8c-0.5-0.1-0.8-1-0.6-2.1l9.5-60.9c0.2-1.1,0.7-1.9,1.3-1.8c0.5,0.1,0.8,1,0.6,2.1l-9.5,60.9
			C268.3,256,267.7,256.8,267.2,256.8z"/>
		<path class="st13" d="M309.9,263.4c-0.5-0.1-0.8-0.8-0.7-1.7l18.7-119.6c0.1-0.9,0.7-1.5,1.2-1.4c0.5,0.1,0.8,0.8,0.7,1.7
			L311.1,262C311,262.9,310.4,263.5,309.9,263.4z"/>
	</g>
	<g>
		<g>
			<path class="st13" d="M358.6,451.3h-46.1c-9.2,0-16.7-7.5-16.7-16.7V305.2h79.4v129.5C375.2,443.9,367.8,451.3,358.6,451.3z
				 M297.8,307.2v127.5c0,8.1,6.6,14.7,14.7,14.7h46.1c8.1,0,14.7-6.6,14.7-14.7V307.2H297.8z"/>
			<path class="st13" d="M616.5,451.3h-46.1c-9.2,0-16.7-7.5-16.7-16.7V305.2h79.4v129.5C633.2,443.9,625.7,451.3,616.5,451.3z
				 M555.7,307.2v127.5c0,8.1,6.6,14.7,14.7,14.7h46.1c8.1,0,14.7-6.6,14.7-14.7V307.2H555.7z"/>
			<rect x="578.3" y="300.4" class="st14" width="65.8" height="11.5"/>
			<rect x="283.9" y="300.4" class="st13" width="294.4" height="11.5"/>
		</g>
		<g>
			<g>
				<path class="st14" d="M309.9,458.5h-12c-4.8,0-9.3-2.3-12.2-6.2L224.2,368l27.4-2.1l61.7,85.7c0.9,1.3,1.1,3,0.3,4.5
					C313,457.6,311.5,458.5,309.9,458.5z M228,369.8l59.3,81.4c2.4,3.4,6.4,5.4,10.6,5.4h12c0.9,0,1.6-0.5,2.1-1.3
					c0.4-0.8,0.3-1.7-0.2-2.4l-61-84.8L228,369.8z"/>
				<path class="st14" d="M234.3,458.5h-12c-1.6,0-3.1-0.9-3.8-2.3s-0.6-3.2,0.3-4.5l61.7-85.7l27.4,2.1l-61.5,84.3
					C243.7,456.2,239.1,458.5,234.3,458.5z M281.5,368.1l-61,84.8c-0.5,0.7-0.6,1.6-0.2,2.4c0.4,0.8,1.2,1.3,2.1,1.3h12
					c4.2,0,8.1-2,10.6-5.4l59.3-81.4L281.5,368.1z"/>
				<rect x="282.2" y="363.2" class="st14" width="28.6" height="11.5"/>
				<rect x="220.2" y="363.2" class="st14" width="62" height="11.5"/>
			</g>
			<g>
				<g>
					<path class="st15" d="M294.5,289.2c0,0,49.4,15.5,84.6,14.2c0,0,3.8-0.9,7.9,1.4c1.9,1,6.8,1.1,4-1.4c-2.8-2.4-0.4-2.7,2.4-2.7
						c2.5,0,5.6,0,5.6,0s0.2-3.4-8.3-3.4c-8.6,0-9.1,0.9-12.2,0.3c-2.4-0.5-37.6-8.9-37.6-8.9L298.5,275
						C298.5,275.1,291.6,283.4,294.5,289.2z"/>
					<path class="st4" d="M304.4,277c-3.8-1.6-7.8-3.6-12.1-5.9c-4.8-2.6-9-5.3-12.8-7.8c2.1,1.9,4.5,4.6,6.7,8.1
						c4.1,6.7,5.3,13.2,5.6,17.1l6,1.6C295.8,288.9,299.8,275.4,304.4,277z"/>
				</g>
				<path class="st15" d="M349.4,416.1l1.1,5.3c0,0,0.5,3.3,0.1,4.6c-0.4,1.3,0.2,1.9,0.2,1.9l9.6,3.8l0.7-4c0,0-3.3-2.4-3.7-3.5
					c-0.3-1.1-0.5-4-0.5-4l-0.5-6.5L349.4,416.1z"/>
				<path class="st6" d="M360,436.6c-5.2-0.2-10.8-2.2-10.1-6.3c0.3-1.5,0.8-4.5,0.8-4.5c2.6,3.2,10.1,2.7,10.4,2
					c0,0,20.4,3.9,20.8,6.2c0,0.1,0,0.9,0,1C381.2,437.3,364.6,436.7,360,436.6z"/>
				<path class="st15" d="M353.2,444c0,0,4.4,6.4,4.6,7.7c0.2,1.3,1.1,2,1.1,2l10.7,1.3c0,0-3.6-5.2-7.6-11.3c-1-1.4-3.3-6-3.3-6
					L353.2,444z"/>
				<path class="st6" d="M368.9,459.7c-4.9,0.8-9.2,0.6-10.1-3.3c-0.3-1.2-1.1-4.7-1.1-4.7c2.2,2.1,9.1,0.9,8.9-0.6
					c0,0,22.8-0.4,24.2,1.7c0.1,0.1,0.4,0.9,0.4,1C391.5,456.2,373.8,458.9,368.9,459.7z"/>
				<path class="st16" d="M274.3,325.7c32.6-5.4,82-6.4,89.2,11c4.8,11.5-5.1,84.6-5.1,84.6s-6.3,2-8.7,0.3c-2.1-5.3,3.1-71-7-72.2
					c-19.8-2.2-59.4,10-59.4,10L274.3,325.7z"/>
				<path class="st5" d="M244.4,356.4c10,17.8,62.3,27.7,67.4,34.1c8.4,10.4,41.4,53.6,41.4,53.6c2.1,1.4,8.1-1.1,7.1-3
					c0,0-31.5-64.9-35.6-69.1c-6.9-7.1-29.9-28.6-43.9-35.7c-4.6-2.4-18.2-9.9-18.2-9.9S228,327.1,244.4,356.4z"/>
				<path class="st2" d="M259.5,355.1c0,4.2-0.2,5.1-0.8,5.6c-2.5,1.9-10-3.7-12-5.4c-16.1-13.7-12.8-60.7,11.3-91.3
					c4.2-5.3,13.6-17.3,20.6-15.2c7.8,2.4,10.4,21.7,14.6,52.1c0.2,1.3,0.3,5.1,1.6,9.9c2.7,10,3.6,13.5,4.1,16.8
					c2.2,14.8-18.5,36.2-30.1,32.5c-1.9-0.6-6.7-2.9-9.7-14.7C259.3,347.8,259.5,351.2,259.5,355.1z"/>
				<path class="st15" d="M294.3,224.8c1.1,0.2,1.7,2.1,2.3,4.5c2.6,10.1,3.8,15.2,0.9,18.2c-0.9,0.9-1.9,1.4-2.1,1.5
					c-3.2,1.5-4.7-0.2-8.5,1.1c-3.8,1.3-2.6,4.7-4.9,8.2c-1.6,2.4-7.3-3.7-7.5-8.3c0-3-0.8-5.5,0.3-7.6c0.7-1.2,1.6-1,3.8-2.9
					c1-0.9,1.7-1.6,3.3-3.3c4.2-4.7,5.2-6,6.3-6.9c0.3-0.2,0.2-0.1,0.8-0.6C292.9,225.6,293.5,224.7,294.3,224.8z"/>
				<path class="st6" d="M290.3,221.3c10.3,1.4,5.8,7.7,3,9.5c-4,2.5-7.4,7.9-7.4,7.9c-7.4-1.7-4.9,5.8-2.7,5.7
					c3.2-0.1-7.9,4.1-4.6,13.5c1.6,4.5,0.9,6.6-0.5,7.8c-2.4,2-7-2.8-14.1-2.1c-1,0.1-5.1,0.6-8.1,3.3c-7.3,6.8,0.9,19.8-7.2,29.3
					c-2.6,3.1-3.8,2-5.2,4.6c-4.4,8.3,7.5,18.6,3,26.6c-0.3,0.5-2.4,3.7-5.8,4.5c-1,0.2-2.2,0-3.8-0.9c-11-6.6-13.6-24.8-4.9-35.5
					c7.3-9.1,5.4-15,1.8-28.7c-3.6-13.7,23.1-18.5,26.9-26.1C272.5,217.4,276.2,219.2,290.3,221.3z"/>
				<path class="st15" d="M268.3,309.8c16.1,19.4,21.9,28.9,45.1,26.5c23.2-2.4,32.1-9.3,38.4-6.2s3-1,2.2-1.6
					c-0.7-0.7-6.1-5-9.4-5.7c0,0-3-1.1-7.6,1.1c-2.8,1.2-31.2,9.4-39.6-0.9c-5.9-7.1-16.3-22.9-16.3-22.9l-11,0.1L268.3,309.8z"/>
				<path class="st4" d="M263.5,269.6c7.6,6.8,17.4,30.4,17.4,30.4s-12.7,2.9-12.7,9.8c0,0-10.9-10.6-12.9-18.4
					C253.4,283.8,259.2,265.8,263.5,269.6z"/>
			</g>
		</g>
	</g>
	<path class="st17" d="M296.4,144c-3.1-0.1-5.6,2.3-5.7,5.4c-0.1,2.6,1.7,4.9,4.2,5.5l35.9,6.5L259.1,214l-25.4-36.6
		c-1.7-2.4-4.9-3-7.4-1.5l-44.7,27.8c-2.6,1.6-3.4,5.1-1.8,7.7c1.6,2.6,5.1,3.4,7.7,1.8l0,0l40.1-25.1l25.6,36.7
		c1.8,2.5,5.2,3.1,7.7,1.4c0,0,0.1,0,0.1-0.1l75.7-55.3l-6.4,35.2c-0.5,3,1.5,5.9,4.5,6.5s5.9-1.5,6.5-4.5l8.8-48.7
		c0.6-3-1.4-5.9-4.4-6.5c0,0,0,0,0,0l-48.8-8.8C296.7,144.1,296.5,144,296.4,144L296.4,144z"/>
	<g>
		<g>
			<path class="st13" d="M433.9,187.6l-62.3-9.1c-1.1-0.2-1.8-1.2-1.7-2.3l0,0c0.2-1.1,1.2-1.8,2.3-1.7l62.3,9.1
				c1.1,0.2,1.8,1.2,1.7,2.3l0,0C436,187,435,187.8,433.9,187.6z"/>
			<path class="st13" d="M412.5,194.6l-42.4-6.2c-1.1-0.2-1.8-1.2-1.7-2.3v0c0.2-1.1,1.2-1.8,2.3-1.7l42.4,6.2
				c1.1,0.2,1.8,1.2,1.7,2.3h0C414.6,194,413.6,194.8,412.5,194.6z"/>
			<path class="st13" d="M381.5,200.2l-12.8-1.9c-1.1-0.2-1.8-1.2-1.7-2.3l0,0c0.2-1.1,1.2-1.8,2.3-1.7l12.8,1.9
				c1.1,0.2,1.8,1.2,1.7,2.3l0,0C383.6,199.6,382.6,200.4,381.5,200.2z"/>
			<path class="st13" d="M415.2,215.2l-48-7c-1.1-0.2-1.8-1.2-1.7-2.3l0,0c0.2-1.1,1.2-1.8,2.3-1.7l48,7c1.1,0.2,1.8,1.2,1.7,2.3
				l0,0C417.3,214.6,416.3,215.4,415.2,215.2z"/>
		</g>
		<g>
			<path class="st13" d="M428.2,227.2l-62.3-9.1c-1.1-0.2-1.8-1.2-1.7-2.3l0,0c0.2-1.1,1.2-1.8,2.3-1.7l62.3,9.1
				c1.1,0.2,1.8,1.2,1.7,2.3l0,0C430.3,226.6,429.2,227.4,428.2,227.2z"/>
			<path class="st13" d="M406.7,234.2l-42.4-6.2c-1.1-0.2-1.8-1.2-1.7-2.3v0c0.2-1.1,1.2-1.8,2.3-1.7l42.4,6.2
				c1.1,0.2,1.8,1.2,1.7,2.3l0,0C408.9,233.6,407.8,234.3,406.7,234.2z"/>
			<path class="st13" d="M375.8,239.8l-12.8-1.9c-1.1-0.2-1.8-1.2-1.7-2.3l0,0c0.2-1.1,1.2-1.8,2.3-1.7l12.8,1.9
				c1.1,0.2,1.8,1.2,1.7,2.3l0,0C377.9,239.2,376.8,239.9,375.8,239.8z"/>
			<path class="st13" d="M409.5,254.8l-48-7c-1.1-0.2-1.8-1.2-1.7-2.3l0,0c0.2-1.1,1.2-1.8,2.3-1.7l48,7c1.1,0.2,1.8,1.2,1.7,2.3
				l0,0C411.6,254.2,410.5,254.9,409.5,254.8z"/>
		</g>
	</g>
</g>
</svg>
