<?xml version="1.0" encoding="utf-8"?>
<!-- Generator: Adobe Illustrator 22.1.0, SVG Export Plug-In . SVG Version: 6.00 Build 0)  -->
<svg version="1.1" id="Layer_1" xmlns="http://www.w3.org/2000/svg" xmlns:xlink="http://www.w3.org/1999/xlink" x="0px" y="0px"
	 viewBox="0 0 573 418" style="enable-background:new 0 0 573 418;" xml:space="preserve">
<style type="text/css">
	.st0{opacity:0.3;fill:url(#SVGID_1_);enable-background:new    ;}
	.st1{fill:#FFFFFF;}
	.st2{fill:#F0EDF3;}
	.st3{fill:#CDCCCE;}
	.st4{fill:#E7E6E8;}
	.st5{fill:#D25D60;}
	.st6{fill:#E5A866;}
	.st7{fill:#9FC768;}
	.st8{clip-path:url(#SVGID_3_);}
	.st9{fill:url(#SVGID_4_);}
	.st10{fill:#161303;}
	.st11{fill:#5BB702;}
	.st12{fill-rule:evenodd;clip-rule:evenodd;fill:#FFFFFF;}
	.st13{fill:#F1D2C4;}
	.st14{fill:#FFBA0A;}
	.st15{fill:#2708A0;}
	.st16{fill:#00A6ED;}
</style>
<linearGradient id="SVGID_1_" gradientUnits="userSpaceOnUse" x1="310.5324" y1="37.7424" x2="310.5324" y2="-347.1784" gradientTransform="matrix(1 0 0 1 -30.6739 354)">
	<stop  offset="0" style="stop-color:#FFFFFF;stop-opacity:0"/>
	<stop  offset="2.168840e-02" style="stop-color:#F6FCFE;stop-opacity:2.168840e-02"/>
	<stop  offset="0.1827" style="stop-color:#B6E5FA;stop-opacity:0.1827"/>
	<stop  offset="0.3416" style="stop-color:#7ED2F6;stop-opacity:0.3416"/>
	<stop  offset="0.4944" style="stop-color:#51C2F3;stop-opacity:0.4944"/>
	<stop  offset="0.64" style="stop-color:#2EB6F0;stop-opacity:0.64"/>
	<stop  offset="0.7764" style="stop-color:#15ADEE;stop-opacity:0.7764"/>
	<stop  offset="0.9001" style="stop-color:#05A8ED;stop-opacity:0.9001"/>
	<stop  offset="1" style="stop-color:#00A6ED"/>
</linearGradient>
<path class="st0" d="M28.8,298.5c-44.2-98,64.5-290.4,134-291.7c80.9-1.6,31.6,136.7,193.9,139.9c99.3,2,192.7,115.6,183.8,160.6
	C523.5,393.3,95.9,447.2,28.8,298.5z"/>
<g>
	<g>
		<rect x="306.7" y="222" class="st1" width="61.1" height="28.5"/>
	</g>
	<rect x="306.7" y="222" class="st2" width="61.1" height="28.5"/>
	<g>
		<polygon class="st3" points="306.7,230.9 367.8,230.9 367.8,224.1 364.4,221.1 310.1,221.1 306.7,224.1 		"/>
	</g>
	<g>
		<rect x="298.1" y="246.5" class="st4" width="78.3" height="5.7"/>
	</g>
	<g>
		<path class="st4" d="M218.5,209.3v9.9c0,3.3,2.7,5.9,5.9,5.9h225.7c3.3,0,5.9-2.7,5.9-5.9v-9.9H218.5z"/>
	</g>
	<g>
		<path class="st2" d="M450.1,77.6H224.4c-3.3,0-5.9,2.7-5.9,5.9v126H456v-126C456,80.2,453.3,77.6,450.1,77.6z"/>
	</g>
	<g>
		<polygon class="st2" points="227.4,131 227.4,86.3 447.1,86.3 447.1,113.8 		"/>
	</g>
	<g>
		<rect x="227.4" y="86.3" class="st2" width="219.8" height="5.6"/>
	</g>
	<g>
		<path class="st5" d="M232.8,89.1c0,0.8-0.7,1.5-1.5,1.5s-1.5-0.7-1.5-1.5s0.7-1.5,1.5-1.5S232.8,88.3,232.8,89.1z"/>
	</g>
	<g>
		<path class="st6" d="M238.1,89.1c0,0.8-0.7,1.5-1.5,1.5s-1.5-0.7-1.5-1.5s0.7-1.5,1.5-1.5S238.1,88.3,238.1,89.1z"/>
	</g>
	<g>
		<path class="st7" d="M243.5,89.1c0,0.8-0.7,1.5-1.5,1.5s-1.5-0.7-1.5-1.5s0.7-1.5,1.5-1.5C242.9,87.6,243.5,88.3,243.5,89.1z"/>
	</g>
	<rect x="227.8" y="97.6" class="st1" width="219.1" height="103.6"/>
	<g>
		<g>
			<defs>
				<rect id="SVGID_2_" x="227.8" y="97.6" width="219.1" height="103.6"/>
			</defs>
			<clipPath id="SVGID_3_">
				<use xlink:href="#SVGID_2_"  style="overflow:visible;"/>
			</clipPath>
			<g class="st8">
				
					<linearGradient id="SVGID_4_" gradientUnits="userSpaceOnUse" x1="830.2289" y1="-124.7009" x2="830.2289" y2="-255.2648" gradientTransform="matrix(-0.9988 4.948876e-02 4.948876e-02 0.9988 1138.8905 332.9909)">
					<stop  offset="0" style="stop-color:#FFFFFF;stop-opacity:0"/>
					<stop  offset="2.168840e-02" style="stop-color:#F6FCFE;stop-opacity:2.168840e-02"/>
					<stop  offset="1" style="stop-color:#7DB52B"/>
				</linearGradient>
				<path class="st9" d="M151,213.3c-5.9-21.8,29.6-71.8,59.5-68.7c0.3,0,0.6,0.1,0.9,0.1c42.7,5.6,52.9,64.2,78.8,63.7
					c30.9-0.5,33.6-48.8,55-50.3c50.6-3.5,33.2-43.5,58.5-44.3c20.4-0.6,55.4,53.9,46.1,84.1C429.2,264.8,164.7,263.8,151,213.3z"/>
			</g>
		</g>
	</g>
	<g>
		<g id="Line_6_">
			<g>
				<path class="st3" d="M378.8,182.3h-78.6c-3.1,0-5.6,2.5-5.6,5.6c0,3.1,2.5,5.6,5.6,5.6h78.6c3.1,0,5.6-2.5,5.6-5.6
					C384.4,184.8,381.9,182.3,378.8,182.3z"/>
			</g>
		</g>
		<g id="Dot_1_">
			<g>
				
					<ellipse transform="matrix(0.9732 -0.2298 0.2298 0.9732 -34.1007 83.0158)" class="st10" cx="339.4" cy="187.9" rx="8.4" ry="8.4"/>
			</g>
		</g>
		<g id="Shield_1_">
			<g>
				<path class="st11" d="M355.8,116.1c-6.7,0-12.5-4.7-16.4-9.6c-3.9,5-9.7,9.6-16.4,9.6c-4.3,0-8.4-2.5-11.7-4.8v33.8
					c0,13.3,18.7,28.8,27.9,28.8c9.8,0,28.3-15.5,28.3-28.8v-33.8C364.2,113.6,360.2,116.1,355.8,116.1z"/>
			</g>
		</g>
		<g id="Ok">
			<g>
				<path class="st12" d="M352.6,132.6c-1.1-1.1-2.9-1.1-4,0l-12,12l-6.3-6.3c-1.1-1.1-3-1.1-4.1,0c-1.1,1.1-1.1,3,0,4.1l8.2,8.2
					c0.3,0.3,0.6,0.5,1,0.6c1,0.5,2.3,0.3,3.2-0.6l14-14C353.7,135.5,353.7,133.7,352.6,132.6z"/>
			</g>
		</g>
	</g>
</g>
<g>
	<path class="st2" d="M371.7,386.6V257.1h79.4v129.4c0,9.2-7.5,16.7-16.7,16.7h-46.1C379.1,403.2,371.7,395.8,371.7,386.6z
		 M373.6,259.1v127.5c0,8.1,6.6,14.7,14.7,14.7h46.1c8.1,0,14.7-6.6,14.7-14.7V259.1H373.6z"/>
	<path class="st2" d="M113.8,386.6V257.1h79.4v129.4c0,9.2-7.5,16.7-16.7,16.7h-46.1C121.2,403.2,113.7,395.8,113.8,386.6z
		 M115.7,259.1v127.5c0,8.1,6.6,14.7,14.7,14.7h46.1c8.1,0,14.7-6.6,14.7-14.7V259.1H115.7z"/>
	<rect x="102.8" y="252.3" class="st4" width="65.8" height="11.5"/>
	<rect x="168.6" y="252.3" class="st2" width="294.4" height="11.5"/>
</g>
<g>
	<g>
		<path class="st4" d="M268.8,401h-12c-4.8,0-9.3-2.3-12.2-6.2l-61.5-84.3l27.4-2.1l61.7,85.7c0.9,1.3,1.1,3,0.3,4.5
			C271.9,400.1,270.4,401,268.8,401z M186.9,312.3l59.3,81.4c2.4,3.4,6.4,5.4,10.6,5.4h12c0.9,0,1.6-0.5,2.1-1.3
			c0.4-0.8,0.3-1.7-0.2-2.4l-61-84.8L186.9,312.3z"/>
		<path class="st4" d="M193.2,401h-12c-1.6,0-3.1-0.9-3.8-2.3s-0.6-3.2,0.3-4.5l61.7-85.7l27.4,2.1l-61.5,84.3
			C202.6,398.7,198,401,193.2,401z M240.4,310.6l-61,84.8c-0.5,0.7-0.6,1.6-0.2,2.4c0.4,0.8,1.2,1.3,2.1,1.3h12
			c4.2,0,8.1-2,10.6-5.4l59.3-81.4L240.4,310.6z"/>
		<rect x="241.1" y="305.7" class="st4" width="28.6" height="11.5"/>
		<rect x="179.1" y="305.7" class="st4" width="62" height="11.5"/>
	</g>
	<g>
		<g>
			<path class="st13" d="M251.2,233.4c0,0,48.1,19.1,83.3,20.4c0,0,3.9-0.6,7.8,1.9c1.8,1.2,6.7,1.5,4.1-1.1s-0.2-2.7,2.6-2.5
				c2.5,0.2,5.6,0.5,5.6,0.5s0.5-3.4-8-4c-8.6-0.6-9.2,0.3-12.2-0.6c-2.4-0.7-36.9-11.6-36.9-11.6l-41.3-16.9
				C256.2,219.7,248.7,227.4,251.2,233.4z"/>
			<path class="st1" d="M261.9,222c-3.7-1.9-7.6-4.1-11.6-6.7c-4.6-2.9-8.6-5.9-12.2-8.8c1.9,2.1,4.1,4.9,6,8.6
				c3.6,7,4.3,13.6,4.4,17.4l5.9,2.1C252.5,233.2,257.5,220.1,261.9,222z"/>
		</g>
		<path class="st13" d="M308.3,358.6l1.1,5.3c0,0,0.5,3.3,0.1,4.6c-0.4,1.3,0.2,1.9,0.2,1.9l9.6,3.8l0.7-4c0,0-3.3-2.4-3.7-3.5
			c-0.3-1.1-0.5-4-0.5-4l-0.5-6.5L308.3,358.6z"/>
		<path class="st14" d="M318.9,379.1c-5.2-0.2-10.8-2.2-10.1-6.3c0.3-1.5,0.8-4.5,0.8-4.5c2.6,3.2,10.1,2.7,10.4,2
			c0,0,20.4,3.9,20.8,6.2c0,0.1,0,0.9,0,1C340.1,379.8,323.5,379.2,318.9,379.1z"/>
		<path class="st13" d="M312.1,386.5c0,0,4.4,6.4,4.6,7.7c0.2,1.3,1.1,2,1.1,2l10.7,1.3c0,0-3.6-5.2-7.6-11.3c-1-1.4-3.3-6-3.3-6
			L312.1,386.5z"/>
		<path class="st14" d="M327.9,402.3c-4.9,0.8-9.2,0.6-10.1-3.3c-0.3-1.2-1.1-4.7-1.1-4.7c2.2,2.1,9.1,0.9,8.9-0.6
			c0,0,22.8-0.4,24.2,1.7c0.1,0.1,0.4,0.9,0.4,1C350.4,398.7,332.8,401.4,327.9,402.3z"/>
		<path class="st15" d="M233.2,268.2c32.6-5.4,82-6.4,89.2,11c4.8,11.5-5.1,84.6-5.1,84.6s-6.3,2-8.7,0.3c-2.1-5.3,3.1-71-7-72.2
			c-19.8-2.2-59.4,10-59.4,10L233.2,268.2z"/>
		<path class="st15" d="M203.3,298.9c10,17.8,62.3,27.7,67.4,34.1c8.4,10.4,41.4,53.6,41.4,53.6c2.1,1.4,8.1-1.1,7.1-3
			c0,0-31.5-64.9-35.6-69.1c-6.9-7.1-29.9-28.6-43.9-35.7c-4.6-2.4-18.2-9.9-18.2-9.9S187,269.6,203.3,298.9z"/>
		<path class="st16" d="M218.4,297.7c0,4.2-0.2,5.1-0.8,5.6c-2.5,1.9-10-3.7-12-5.4c-16.1-13.7-12.8-60.7,11.3-91.3
			c4.2-5.3,13.6-17.3,20.6-15.2c7.8,2.4,10.4,21.7,14.6,52.1c0.2,1.3,0.3,5.1,1.6,9.9c2.7,10,3.6,13.5,4.1,16.8
			c2.2,14.8-18.5,36.2-30.1,32.5c-1.9-0.6-6.7-2.9-9.7-14.7C218.2,290.4,218.4,293.7,218.4,297.7z"/>
		<path class="st13" d="M253.2,167.4c1.1,0.2,1.7,2.1,2.3,4.5c2.6,10.1,3.8,15.2,0.9,18.2c-0.9,0.9-1.9,1.4-2.1,1.5
			c-3.2,1.5-4.7-0.2-8.5,1.1c-3.8,1.3-2.6,4.7-4.9,8.2c-1.6,2.4-7.3-3.7-7.5-8.3c0-3-0.8-5.5,0.3-7.6c0.7-1.2,1.6-1,3.8-2.9
			c1-0.9,1.7-1.6,3.3-3.3c4.2-4.7,5.2-6,6.3-6.9c0.3-0.2,0.2-0.1,0.8-0.6C251.8,168.1,252.4,167.3,253.2,167.4z"/>
		<path class="st10" d="M249.2,163.8c10.3,1.4,5.8,7.7,3,9.5c-4,2.5-7.4,7.9-7.4,7.9c-7.4-1.7-4.9,5.8-2.7,5.7
			c3.2-0.1-7.9,4.1-4.6,13.5c1.6,4.5,0.9,6.6-0.5,7.8c-2.4,2-7-2.8-14.1-2.1c-1,0.1-5.1,0.6-8.1,3.3c-7.3,6.8,0.9,19.8-7.2,29.3
			c-2.6,3.1-3.8,2-5.2,4.6c-4.4,8.3,7.5,18.6,3,26.6c-0.3,0.5-2.4,3.7-5.8,4.5c-1,0.2-2.2,0-3.8-0.9c-11-6.6-13.6-24.8-4.9-35.5
			c7.3-9.1,5.4-15,1.8-28.7c-3.6-13.7,23.1-18.5,26.9-26.1C231.4,159.9,235.1,161.8,249.2,163.8z"/>
		<path class="st13" d="M227.2,252.3c16.1,19.4,21.9,28.9,45.1,26.5s32.1-9.3,38.4-6.2c6.2,3.2,3-1,2.2-1.6c-0.7-0.7-6.1-5-9.4-5.7
			c0,0-3-1.1-7.6,1.1c-2.8,1.2-31.2,9.4-39.6-0.9c-5.9-7.1-16.3-22.9-16.3-22.9l-11,0.1L227.2,252.3z"/>
		<path class="st1" d="M222.5,212.1c7.6,6.8,17.4,30.4,17.4,30.4s-12.7,2.9-12.7,9.8c0,0-10.9-10.6-12.9-18.4
			C212.3,226.3,218.1,208.3,222.5,212.1z"/>
	</g>
</g>
</svg>
