<?xml version="1.0" encoding="utf-8"?>
<!-- Generator: Adobe Illustrator 22.1.0, SVG Export Plug-In . SVG Version: 6.00 Build 0)  -->
<svg version="1.1" id="Layer_1" xmlns="http://www.w3.org/2000/svg" xmlns:xlink="http://www.w3.org/1999/xlink" x="0px" y="0px"
	 viewBox="0 0 438 361" style="enable-background:new 0 0 438 361;" xml:space="preserve">
<style type="text/css">
	.st0{opacity:0.3;fill:url(#SVGID_1_);enable-background:new    ;}
	.st1{fill:#2C15B7;}
	.st2{fill:#F1D2C4;}
	.st3{fill:#FFBA0A;}
	.st4{fill:#FFFFFF;}
	.st5{fill:#5BB702;}
	.st6{fill:#2708A0;}
	.st7{fill:#FFB400;}
	.st8{fill:#F6511D;}
	.st9{fill:#100B00;}
	.st10{fill:#FBD2C4;}
</style>
<linearGradient id="SVGID_1_" gradientUnits="userSpaceOnUse" x1="221.0617" y1="414.5502" x2="221.0617" y2="731.9618" gradientTransform="matrix(1 0 0 -1 0 762)">
	<stop  offset="0" style="stop-color:#FFFFFF;stop-opacity:0"/>
	<stop  offset="2.168840e-02" style="stop-color:#F6FCFE;stop-opacity:2.168840e-02"/>
	<stop  offset="0.1827" style="stop-color:#B6E5FA;stop-opacity:0.1827"/>
	<stop  offset="0.3416" style="stop-color:#7ED2F6;stop-opacity:0.3416"/>
	<stop  offset="0.4944" style="stop-color:#51C2F3;stop-opacity:0.4944"/>
	<stop  offset="0.64" style="stop-color:#2EB6F0;stop-opacity:0.64"/>
	<stop  offset="0.7764" style="stop-color:#15ADEE;stop-opacity:0.7764"/>
	<stop  offset="0.9001" style="stop-color:#05A8ED;stop-opacity:0.9001"/>
	<stop  offset="1" style="stop-color:#00A6ED"/>
</linearGradient>
<path class="st0" d="M28.7,270.6C-5.2,189.8,78.1,31.2,131.4,30c62-1.3,24.2,112.7,148.6,115.3c76.1,1.6,147.7,95.3,140.9,132.4
	C407.7,348.7,80.2,393.2,28.7,270.6z"/>
<g>
	<path class="st1" d="M120.6,108.5c0,0,30.5-34,41.2-46c5.2-5.7,27.8,2,17.5,19.4c-7.2,12.2-36.8,31.1-44.8,36.1
		c-1.6,1.1-17.2,2.9-22.3,4.1l-1.6-9.4L120.6,108.5z"/>
	<path class="st2" d="M65,128l10.2-3.4c0,0-2.2-1.4-3.2-2.5c-1-1.1-0.3-2.9,1.2-1.5c1.5,1.5,6.5,2.7,6.5,2.7l31.1-10.5l1.6,9.4
		c-11.7,1.9-28.4,3.7-31.4,5C65.2,134.7,65,128,65,128z"/>
	<polygon class="st3" points="118.8,109.3 120.9,120.6 110.7,122.3 109,113 	"/>
</g>
<g>
	<g>
		<g>
			<polygon class="st4" points="175.3,325.1 175.9,329.2 171.4,334.6 166.6,332.2 166.6,330.2 165.7,325.8 			"/>
			<path class="st4" d="M222.3,323.7l0.8,4l-4.8,4.6c0,0-3.8-1.7-4.1-1.9c-0.3-0.1-2.6-6.4-2.6-6.4L222.3,323.7z"/>
			<path class="st5" d="M223.5,136.5c-2.3,49.5-7.6,63.1-11.2,99.2c-1.9,19.4,3.3,45.9,10.5,87.9c0.6,3.6-13.2,4.2-14.5,0.9
				c-11.3-31.4-25.8-72.4-29-88.3c-4.1-20.2-4.6-60.2-4.6-60.2l9.7-45.2L223.5,136.5z"/>
			<path class="st5" d="M167.8,124c-17.6,46.3-18.6,81.7-19.5,101.2c-1.5,27.9,7.4,51.4,15.3,100.4c0.5,3.1,12.5,2.3,12.4-0.8
				c-1.7-45.1-4.7-93,1.2-111.2c5-15.5,16.6-37.5,16.6-37.5l12.1-41.6L167.8,124z"/>
			<path class="st4" d="M195.1,149.5c-22.1,1.4-26.7-6.1-26.7-6.1L165.1,85c0,0,3.4-28.7,3.2-28.9c-0.2-0.2,7.2-8.4,7.2-5
				c0.1,3.4,0.1,7,6,7.1c6,0.2,14.2-5.8,14.2-5.8l-1.8,9.4L195.1,149.5z"/>
			<path class="st6" d="M175.9,54.3c-2.4,4.8-4.2,31-3.8,39.6c0.4,8.6,0.7,30.1-0.5,44.9c-0.7,7.9-14.5,49.9-14.5,49.9
				s-10.7-4.2-11.2-11.4c-0.6-8.8,18.6-35.9,13.2-86c-1.5-13.2,3.5-32.8,6.1-37.7c2.6-4.9,5.3-7.5,5.3-7.5l4.6,0.6L175.9,54.3z"/>
			<path class="st6" d="M188.1,60.1c0,0,8.3,123,5,137.4c0,0,40.6-9.6,43.1-20.6C245,138.8,229.4,70,214.4,59
				c-13.6-9.9-16.8-11.7-16.8-11.7L194.5,59L188.1,60.1z"/>
			<path class="st7" d="M179.8,47.9c-4.1,6.8-4.8,8.8-4.8,8.8s-2.8-1.3-5.3-1c0,0,4.8-10.2,8.9-12C182.9,41.9,179.8,47.9,179.8,47.9
				z"/>
			<path class="st2" d="M195.8,45.4c-14.3-4.2,7.9-22.8-8.4-27.8S166.5,37,168.6,41.5c2,4.4,8.1,0.5,9,4.8c0.2,0.6,0.2,5.4,0.3,6
				c0.6,3.7,1.6,4.8,5.3,4.9l0,0c3,0.1,6-0.5,8.8-1.8l4-1.8L195.8,45.4z"/>
			<path class="st7" d="M200.2,47.5c-1.1,5.6-1.5,7.9-6.6,14.1c0,0-4.7-1.7-5.7-1.5c0,0,3-3.5,6-9c1.8-3.4,1.9-5.7,1.9-5.7
				L200.2,47.5z"/>
			<path class="st8" d="M172.9,22.8c2.2-1.1,4.9-1.6,5.4-0.3s3.3-0.6,5.3,1c1.9,1.7-0.2,9.4,1.2,9.8c1.4,0.4,3.5-0.9,3.8,1.6
				c0.3,2.5-3.8,3.9-3.8,3.9s1,5.4,4.9,3.8c4-1.6,6.8-3.9,8.4-8.5c1.7-4.6,1.9-12.8-5.4-16.9c-7.4-4.1-12.9-2.3-16.6-1
				C172.7,17.4,172.9,22.9,172.9,22.8z"/>
			<path class="st9" d="M168.1,339.4c5-1.3,9.4-2.2,8.6-6.3c-0.2-1.2-0.8-4-0.8-4c-2,1.7-8.9,2.5-9.3,1.1c0,0-24.4,9.7-25,12.2
				c0,0.1,0.1,0.9,0.1,1.1C142.5,345.8,163.1,340.7,168.1,339.4z"/>
			<path class="st9" d="M213.8,342c1.9-0.8,10.7-5.7,9.9-9.8c-0.1-1.2-0.9-5-0.9-5c-1.1,3-8.4,3.4-8.7,3.2c0,0-12,8.4-12.5,10.9
				c0,0.1,0.1,0.9,0.1,1.1C202.5,344.8,209.2,344.1,213.8,342z"/>
		</g>
		<g>
			<path class="st1" d="M213.6,136.1c0,0-14.3-43.4-19.3-58.7c-2.5-7.4,15.6-23.1,25.5-5.5c6.9,12.3,8.7,47.4,8.9,56.8
				c0.1,1.9-6.1,16.4-7.7,21.4l-9-3.2L213.6,136.1z"/>
			<path class="st10" d="M202.5,194.1l2.1-10.5c0,0-2.3,1.2-3.8,1.5c-1.6,0.3-2.7-1.2-0.7-1.8c2-0.6,5.5-4.3,5.5-4.3l6.5-32.1l9,3.2
				c-4.2,11-11,26.4-11.3,29.6C208.4,197.2,202.6,194.1,202.5,194.1z"/>
			<polygon class="st3" points="213.2,138.1 224.1,142 220.5,151.6 211.5,148.4 			"/>
		</g>
	</g>
</g>
<g id="Settings_1_">
	<g>
		<path class="st8" d="M115.5,64.6l-3.7-1.2c-0.7-2.6-1.7-5-3-7.3l1.8-3.5c2-2,2-5.1,0-7.1l-3.6-3.6c-2-2-5.1-2-7.1,0l-3.5,1.8
			c-2.3-1.3-4.7-2.3-7.3-3l-1.2-3.7c0-2.8-2.3-5-5-5h-5c-2.8,0-5,2.3-5,5l-1.2,3.7c-2.6,0.7-5,1.7-7.3,3l-3.5-1.8c-2-2-5.1-2-7.1,0
			L50,45.4c-2,2-2,5.1,0,7.1l1.8,3.5c-1.3,2.3-2.3,4.7-3,7.2l-3.7,1.3c-2.8,0-5,2.3-5,5v5c0,2.8,2.3,5,5,5l3.7,1.3
			c0.7,2.5,1.7,5,3,7.2L50,91.7c-2,2-2,5.1,0,7.1l3.6,3.6c2,2,5.1,2,7.1,0l3.5-1.8c2.3,1.3,4.7,2.3,7.2,3l1.3,3.8c0,2.8,2.3,5,5,5h5
			c2.8,0,5-2.3,5-5l1.3-3.8c2.6-0.7,5-1.7,7.3-3l3.5,1.8c2,2,5.1,2,7.1,0l3.6-3.6c2-2,2-5.2,0-7.1l-1.8-3.5c1.3-2.3,2.3-4.7,3-7.3
			l3.7-1.2c2.8,0,5-2.3,5-5v-5C120.5,66.8,118.3,64.6,115.5,64.6z"/>
	</g>
</g>
<g id="Elipse_12_">
	<g>
		<path class="st4" d="M80.3,49.4c-12.5,0-22.7,10.2-22.7,22.7c0,12.5,10.2,22.7,22.7,22.7c12.5,0,22.7-10.2,22.7-22.7
			C103,59.6,92.8,49.4,80.3,49.4z"/>
	</g>
</g>
<g id="Elipse_13_">
	<g>
		<circle class="st3" cx="80.3" cy="72.1" r="10.1"/>
	</g>
</g>
</svg>
