<?xml version="1.0" encoding="utf-8"?>
<!-- Generator: Adobe Illustrator 22.1.0, SVG Export Plug-In . SVG Version: 6.00 Build 0)  -->
<svg version="1.1" id="Layer_1" xmlns="http://www.w3.org/2000/svg" xmlns:xlink="http://www.w3.org/1999/xlink" x="0px" y="0px"
	 viewBox="0 0 56 40" style="enable-background:new 0 0 56 40;" xml:space="preserve">
<style type="text/css">
	.st0{fill:#9B7CAB;}
	.st1{fill:#6D5778;}
	.st2{fill:#DBB59A;}
	.st3{fill:#F6CBAD;}
	.st4{fill:#4D4D4D;}
	.st5{fill:#C69444;}
	.st6{fill:#48A0DC;}
	.st7{fill:#FFFFFF;}
	.st8{fill-rule:evenodd;clip-rule:evenodd;fill:#F6CBAD;}
	.st9{fill-rule:evenodd;clip-rule:evenodd;fill:#4D4D4D;}
	.st10{fill:#754D2D;}
	.st11{fill:#F06EAA;}
	.st12{fill:#BD5786;}
</style>
<g>
	<g id="T-Shirt_1_">
		<g>
			<path class="st0" d="M31,32c-0.9-0.9-9-5-9-5H12c0,0-8.1,4.1-9,5c-1.9,1.9-2,8-2,8h32C33,40,32.9,33.9,31,32z"/>
		</g>
	</g>
	<g id="Shirt_2_">
		<g>
			<path class="st1" d="M21,26h-8l-1,1c0,0,1.7,3,5,3c3.3,0,5-3,5-3L21,26z"/>
		</g>
	</g>
	<g id="Neck_4_">
		<g>
			<path class="st2" d="M20,23h-6l-1,3c0,0.6,2.4,2,3,2h2c0.6,0,3-1.4,3-2L20,23z"/>
		</g>
	</g>
	<g id="Head_5_">
		<g>
			<path class="st3" d="M17,9c-3.9,0-7,2-7,6c0,3,1,5,2,7s3,4,5,4s4-2,5-4s2-4,2-7C24,11,20.9,9,17,9z"/>
		</g>
	</g>
	<g id="Hair_4_">
		<g>
			<path class="st4" d="M17,8c-2.3,0-5,0.9-5,2c-1.5,0-2,3.3-2,6c0,0.4,0,0.9,0.1,1.4c0.3-1.3,1.1-3.4,2.9-3.4c1.7,0,1.1,0,4,0
				c1.5,0,4-0.7,4-2c1.3,0,3,1.8,3,4C24,12.1,23.4,8,17,8z"/>
		</g>
	</g>
</g>
<g>
	<g id="Hair_8_">
		<g>
			<path class="st5" d="M42,10c-5.5,0-8,3-8,8v14h16V18C50,13,46.7,10,42,10z"/>
		</g>
	</g>
	<g id="Neck_8_">
		<g>
			<polygon class="st2" points="44,25 40,25 39,29 39,42 45,42 45,29 			"/>
		</g>
	</g>
	<g id="Suit_7_">
		<g>
			<path class="st6" d="M30,34c-1.9,1.9-2,8-2,8h14l-4-12C38,30,30.9,33.1,30,34z M54,34c-0.9-0.9-8-4-8-4l-4,12h14
				C56,42,55.9,35.9,54,34z"/>
		</g>
	</g>
	<g id="Collar_6_">
		<g>
			<path class="st7" d="M33,34l5,1l3,7h1l-3-13L33,34z M45,29l-3,13h1l3-7l5-1L45,29z"/>
		</g>
	</g>
	<g id="Head_9_">
		<g>
			<path class="st8" d="M44.8,16c-0.8,1.7-3.5,3-6.8,3c0,0-1,0-2,0c0,2,0.2,3.5,1,5c1,2,3,4,5,4s4-2,5-4c0.9-1.8,1-3.5,1-6
				C48,16.8,45.8,16,44.8,16z"/>
		</g>
	</g>
	<g id="Headphones">
		<g>
			<path class="st9" d="M50.8,16.5C49.9,13.4,46.3,11,42,11s-7.9,2.4-8.8,5.5C32.5,16.9,32,17.4,32,18v2c0,1.1,1.9,2,3,2v-4
				c0-2.8,3.1-5,7-5s7,2.2,7,5v2c0,2.1-1.4,4-3.3,4.7C45.5,24.3,45,24,44.5,24h-2c-0.8,0-1.5,0.7-1.5,1.5c0,0.8,0.7,1.5,1.5,1.5h2
				c0.1,0,0.3,0,0.4-0.1c3-0.4,5.3-2.6,5.9-5.5c0.6-0.4,1.2-0.9,1.2-1.4v-2C52,17.4,51.5,16.9,50.8,16.5z"/>
		</g>
	</g>
</g>
<g>
	<g id="Hair">
		<g>
			<path class="st10" d="M27,14c-5.5,0-8,3-8,8v14h16V22C35,17,31.7,14,27,14z"/>
		</g>
	</g>
	<g id="T-Shirt">
		<g>
			<path class="st11" d="M39,38c-0.9-0.9-8-4-8-4h-8c0,0-7.1,3.1-8,4c-1.9,1.9-2,8-2,8h28C41,46,40.9,39.9,39,38z"/>
		</g>
	</g>
	<g id="Shirt_3_">
		<g>
			<path class="st12" d="M30,33h-6l-1,1c0,0,1,2,4,2s4-2,4-2L30,33z"/>
		</g>
	</g>
	<g id="Neck">
		<g>
			<path class="st2" d="M29,29h-4l-1,4c0,0,1,1,3,1c2,0,3-1,3-1L29,29z"/>
		</g>
	</g>
	<g id="Head_2_">
		<g>
			<path class="st8" d="M29.8,20c-0.8,1.7-3.5,3-6.8,3c0,0-1,0-2,0c0,2,0.2,3.5,1,5c1,2,3,4,5,4s4-2,5-4c0.9-1.8,1-3.5,1-6
				C33,20.8,30.8,20,29.8,20z"/>
		</g>
	</g>
</g>
</svg>
