<?xml version="1.0" encoding="utf-8"?>
<!-- Generator: Adobe Illustrator 22.1.0, SVG Export Plug-In . SVG Version: 6.00 Build 0)  -->
<svg version="1.1" id="_x2014_ÎÓÈ_x5F_1" xmlns="http://www.w3.org/2000/svg" xmlns:xlink="http://www.w3.org/1999/xlink"
	 x="0px" y="0px" viewBox="0 0 1243.4 593" style="enable-background:new 0 0 1243.4 593;" xml:space="preserve">
<style type="text/css">
	.st0{opacity:0.3;fill:url(#SVGID_1_);enable-background:new    ;}
	.st1{fill:#FFFFFF;}
	.st2{fill:#F0EDF3;}
	.st3{fill:#CDCCCE;}
	.st4{fill:#E7E6E8;}
	.st5{fill:#D25D60;}
	.st6{fill:#E5A866;}
	.st7{fill:#9FC768;}
	.st8{fill:#EFFFD2;}
	.st9{fill:#FFF7E9;}
	.st10{fill:#2A2E38;}
	.st11{fill:#EFFFD2;stroke:#F1F2F3;stroke-width:4;stroke-miterlimit:10;}
	.st12{fill:#737D80;}
	.st13{fill:#F1D2C4;}
	.st14{fill:#7DB52B;}
	.st15{fill:#161303;}
	.st16{fill:#2708A0;}
	.st17{fill:#F6511D;}
	.st18{fill:#FFBA0A;}
	.st19{fill:#FBD2C4;}
	.st20{fill:#00A6ED;}
	.st21{fill:url(#SVGID_2_);}
	.st22{fill:#FF4949;}
	.st23{fill:#FFC950;}
</style>
<g>
	
		<linearGradient id="SVGID_1_" gradientUnits="userSpaceOnUse" x1="621.7189" y1="-3.9618" x2="621.7189" y2="529.239" gradientTransform="matrix(1 0 0 -1 0 577.7903)">
		<stop  offset="0" style="stop-color:#FFFFFF;stop-opacity:0"/>
		<stop  offset="2.168840e-02" style="stop-color:#F6FCFE;stop-opacity:2.168840e-02"/>
		<stop  offset="0.1827" style="stop-color:#B6E5FA;stop-opacity:0.1827"/>
		<stop  offset="0.3416" style="stop-color:#7ED2F6;stop-opacity:0.3416"/>
		<stop  offset="0.4944" style="stop-color:#51C2F3;stop-opacity:0.4944"/>
		<stop  offset="0.64" style="stop-color:#2EB6F0;stop-opacity:0.64"/>
		<stop  offset="0.7764" style="stop-color:#15ADEE;stop-opacity:0.7764"/>
		<stop  offset="0.9001" style="stop-color:#05A8ED;stop-opacity:0.9001"/>
		<stop  offset="1" style="stop-color:#00A6ED"/>
	</linearGradient>
	<path class="st0" d="M26.2,393.5C-16.8,274.5,112,50.1,193.6,48.6C294.6,46.7,233,210.2,435.8,214
		c85.6,1.6,106.1,193.8,229.5,189.9c103.4-3.3,132.3-239,301.8-269.9c9.6-1.8,67.5-12.2,125.2,16.2
		c59.8,29.4,154.2,161.3,129.6,245.6C1153.3,629.8,122,658.1,26.2,393.5z"/>
	<g>
		<g>
			<g>
				<rect x="632.1" y="383.5" class="st1" width="157.6" height="73.5"/>
			</g>
			<rect x="632.1" y="383.5" class="st2" width="157.6" height="73.5"/>
			<g>
				<polygon class="st3" points="632.1,406.4 789.7,406.4 789.7,388.9 780.9,381.2 640.8,381.2 632.1,388.9 				"/>
			</g>
			<g>
				<rect x="609.9" y="446.7" class="st4" width="202" height="14.6"/>
			</g>
			<g>
				<path class="st4" d="M404.5,350.7v25.5c0,8.4,6.9,15.3,15.3,15.3h582.1c8.4,0,15.3-6.9,15.3-15.3v-25.5H404.5z"/>
			</g>
			<g>
				<path class="st2" d="M1001.9,11H419.8c-8.4,0-15.3,6.9-15.3,15.3v324.9h612.7v-325C1017.2,17.8,1010.3,11,1001.9,11z"/>
			</g>
			<g>
				<polygon class="st2" points="427.5,148.8 427.5,33.5 994.3,33.5 994.3,104.3 				"/>
			</g>
			<g>
				<rect x="427.5" y="33.5" class="st2" width="566.8" height="14.4"/>
			</g>
			<g>
				<path class="st5" d="M441.4,40.7c0,2.1-1.7,3.9-3.9,3.9c-2.1,0-3.9-1.7-3.9-3.9c0-2.1,1.7-3.9,3.9-3.9
					C439.7,36.8,441.4,38.5,441.4,40.7z"/>
			</g>
			<g>
				<path class="st6" d="M455.3,40.7c0,2.1-1.7,3.9-3.9,3.9c-2.1,0-3.9-1.7-3.9-3.9c0-2.1,1.7-3.9,3.9-3.9
					C453.6,36.8,455.3,38.5,455.3,40.7z"/>
			</g>
			<g>
				<path class="st7" d="M469.2,40.7c0,2.1-1.7,3.9-3.9,3.9c-2.1,0-3.9-1.7-3.9-3.9c0-2.1,1.7-3.9,3.9-3.9
					C467.4,36.8,469.2,38.5,469.2,40.7z"/>
			</g>
			<rect x="428.5" y="62.6" class="st1" width="565" height="267.1"/>
			<rect x="491.4" y="76.4" class="st2" width="477.8" height="10.6"/>
			<g>
				<rect x="452.6" y="102.3" class="st2" width="15.4" height="3.6"/>
				<rect x="452.6" y="125.8" class="st2" width="15.4" height="3.6"/>
				<rect x="452.6" y="149.3" class="st2" width="15.4" height="3.6"/>
				<rect x="452.6" y="172.8" class="st2" width="15.4" height="3.6"/>
				<rect x="452.6" y="196.3" class="st2" width="15.4" height="3.6"/>
				<rect x="452.6" y="219.9" class="st2" width="15.4" height="3.6"/>
				<rect x="452.6" y="243.4" class="st2" width="15.4" height="3.6"/>
				<rect x="452.6" y="266.9" class="st2" width="15.4" height="3.6"/>
				<rect x="452.6" y="290.4" class="st2" width="15.4" height="3.6"/>
				<rect x="452.6" y="76.4" class="st2" width="15.4" height="10.6"/>
			</g>
			<rect x="491.4" y="129.4" class="st8" width="62.9" height="70.6"/>
			<rect x="617.2" y="176.4" class="st8" width="69.9" height="115.8"/>
			<rect x="620.8" y="102.3" class="st8" width="68.2" height="50.6"/>
			<rect x="758.3" y="151.1" class="st8" width="143.5" height="24.1"/>
			<rect x="487.8" y="243.4" class="st9" width="131.1" height="25.3"/>
			<rect x="758.3" y="175.2" class="st9" width="68.2" height="71.8"/>
			<rect x="828.3" y="198.1" class="st8" width="73.5" height="95.9"/>
			<rect x="556.1" y="174.6" class="st1" width="62.9" height="47"/>
			<rect x="687.2" y="245.2" class="st9" width="282" height="25.3"/>
			<rect x="826.5" y="247" class="st8" width="75.3" height="22.9"/>
			<g>
				<rect x="487.8" y="102.3" class="st2" width="3.6" height="191.7"/>
				<rect x="487.8" y="102.3" class="st2" width="481.4" height="3.6"/>
				<rect x="487.8" y="125.8" class="st2" width="481.4" height="3.6"/>
				<rect x="487.8" y="149.3" class="st2" width="481.4" height="3.6"/>
				<rect x="487.8" y="172.8" class="st2" width="481.4" height="3.6"/>
				<rect x="487.8" y="196.3" class="st2" width="481.4" height="3.6"/>
				<rect x="487.8" y="219.9" class="st2" width="481.4" height="3.6"/>
				<rect x="487.8" y="243.4" class="st2" width="481.4" height="3.6"/>
				<rect x="487.8" y="266.9" class="st2" width="481.4" height="3.6"/>
				<rect x="487.8" y="290.4" class="st2" width="481.4" height="3.6"/>
				<rect x="552.5" y="102.3" class="st2" width="3.6" height="191.7"/>
				<rect x="617.2" y="102.3" class="st2" width="3.6" height="191.7"/>
				<rect x="685.4" y="102.3" class="st2" width="3.6" height="191.7"/>
				<rect x="754.8" y="102.3" class="st2" width="3.6" height="191.7"/>
				<rect x="826.5" y="102.3" class="st2" width="3.6" height="191.7"/>
				<rect x="898.2" y="102.3" class="st2" width="3.6" height="191.7"/>
				<rect x="965.6" y="102.3" class="st2" width="3.6" height="191.7"/>
			</g>
		</g>
		<g>
			<g>
				<g>
					<path class="st2" d="M495.6,421.7c0,8.6-7,15.6-15.6,15.6H264.3c-8.6,0-15.6-7-15.6-15.6V134.8c0-8.6,7-15.6,15.6-15.6H480
						c8.6,0,15.6,7,15.6,15.6V421.7z"/>
					<rect x="273.2" y="145.7" class="st1" width="197.7" height="259.5"/>
					<g>
						<g>
							<path class="st3" d="M385.8,131.9c0,2.1-1.7,3.8-3.8,3.8h-32.1c-2.1,0-3.8-1.7-3.8-3.8l0,0c0-2.1,1.7-3.8,3.8-3.8H382
								C384.1,128.1,385.8,129.8,385.8,131.9L385.8,131.9z"/>
						</g>
						<g>
							<path class="st3" d="M398.2,131.9c0,2.1-1.7,3.8-3.8,3.8c-2.1,0-3.8-1.7-3.8-3.8s1.7-3.8,3.8-3.8
								C396.4,128.1,398.2,129.8,398.2,131.9z"/>
						</g>
					</g>
					<rect x="365.1" y="414.3" class="st2" width="14.1" height="14.1"/>
					<path class="st3" d="M379.2,429.9h-14.1c-0.8,0-1.4-0.6-1.4-1.4v-14.1c0-0.8,0.6-1.4,1.4-1.4h14.1c0.8,0,1.4,0.6,1.4,1.4v14.1
						C380.6,429.2,380,429.9,379.2,429.9z M366.5,427h11.3v-11.3h-11.3V427z"/>
					<rect x="368.1" y="204.3" class="st9" width="76.8" height="27.1"/>
					<rect x="342.9" y="229.1" class="st8" width="25.2" height="101.3"/>
					<rect x="393.3" y="304.8" class="st8" width="48.5" height="76.8"/>
					<g>
						<rect x="315.7" y="177.1" class="st2" width="3.8" height="205.6"/>
						<rect x="315.7" y="177.1" class="st2" width="129.1" height="3.8"/>
						<rect x="315.7" y="164.5" class="st2" width="129.1" height="3.8"/>
						<rect x="315.7" y="202.4" class="st2" width="129.1" height="3.8"/>
						<rect x="315.7" y="227.6" class="st2" width="129.1" height="3.8"/>
						<rect x="315.7" y="252.8" class="st2" width="129.1" height="3.8"/>
						<rect x="315.7" y="278" class="st2" width="129.1" height="3.8"/>
						<rect x="315.7" y="303.3" class="st2" width="129.1" height="3.8"/>
						<rect x="315.7" y="328.5" class="st2" width="129.1" height="3.8"/>
						<rect x="315.7" y="353.7" class="st2" width="129.1" height="3.8"/>
						<rect x="315.7" y="378.9" class="st2" width="129.1" height="3.8"/>
						<rect x="293" y="177.1" class="st2" width="11.9" height="3.8"/>
						<rect x="293" y="164.5" class="st2" width="11.9" height="3.8"/>
						<rect x="293" y="202.4" class="st2" width="11.9" height="3.8"/>
						<rect x="293" y="227.6" class="st2" width="11.9" height="3.8"/>
						<rect x="293" y="252.8" class="st2" width="11.9" height="3.8"/>
						<rect x="293" y="278" class="st2" width="11.9" height="3.8"/>
						<rect x="293" y="303.3" class="st2" width="11.9" height="3.8"/>
						<rect x="293" y="328.5" class="st2" width="11.9" height="3.8"/>
						<rect x="293" y="353.7" class="st2" width="11.9" height="3.8"/>
						<rect x="293" y="378.9" class="st2" width="11.9" height="3.8"/>
						<rect x="340.9" y="177.1" class="st2" width="3.8" height="205.6"/>
						<rect x="366.2" y="177.1" class="st2" width="3.8" height="205.6"/>
						<rect x="391.4" y="177.1" class="st2" width="3.8" height="205.6"/>
						<rect x="416.6" y="177.1" class="st2" width="3.8" height="205.6"/>
						<rect x="441.8" y="177.1" class="st2" width="3.8" height="205.6"/>
					</g>
				</g>
				<g>
					<g>
						<g>
							<path class="st10" d="M367,303.7L367,303.7L367,303.7L367,303.7z"/>
						</g>
					</g>
				</g>
			</g>
		</g>
	</g>
	<g>
		
			<rect x="915.7" y="285.4" transform="matrix(0.9591 -0.2832 0.2832 0.9591 -45.5818 282.1726)" class="st11" width="75.1" height="26.6"/>
		<path class="st12" d="M998.3,296.4c0.2,2.6,17.2,12.2,20.7,12.2s18.4-21.8,18.4-21.8l-8.8-5.3l-12,11.1l-15.5,0.3L998.3,296.4z"/>
		<polygon class="st1" points="1050.9,439.4 1054.8,447.4 1059.8,440.1 1058.8,435.8 1054.7,433.8 		"/>
		<path class="st13" d="M985.3,289.3c-1.5,2.4-1.3,6.1-0.2,6.7c0.6,0.3,0.8,0.1,1.4-1.1c0.3-0.6,0.9-2,0.6-3.2
			C986.7,290.3,985.3,289.3,985.3,289.3z"/>
		<polygon class="st1" points="1000.2,455.4 1007.2,451.7 1007.5,447.2 998.4,445.2 		"/>
		<path class="st14" d="M1050,347c-6.6,20.4-20.9,12.2-24,21.1c-5,14.5,25.5,72.6,25.5,72.6c4.2-5.1,5.6-5.4,7.2-4.9
			c0,0-2.3-58.3-0.2-64.8c2.4-7.3,38.9-1.1,39.6-6.4c1.3-10.4-1.5-19.1-1.5-19.1l-31.8-29.3L1050,347z"/>
		<path class="st13" d="M998.3,298c-5.7-1.5-11.9-2.4-11.7-3.8c0.1-1,0.5-1.1,1.8-0.8c2.9,0.5-0.6-1.1-0.6-1.1l-1.1,0.1
			c-1.2-1.9-3.3-2.2,0.4-4.9c1.8-1.4,3.7,0,6,1c3.4,1.5,4.1,3.3,5.6,4.7C1000.1,294.5,998.3,298,998.3,298z"/>
		<path class="st1" d="M1000.6,298.9c-0.9-0.3-2.5-0.6-4.5-1.2c-2.3-0.7,0.1-5.3,2.4-4.8l4.2,2.4L1000.6,298.9z"/>
		<path class="st15" d="M1060.1,439.6c-2-1-4.1,3.1-9.3,9.6c-3.9,4.9-12.6,10.2-10.8,11.3c2,1.3,23.5-8.2,23.5-15.2
			C1063.5,444.5,1061.2,440.1,1060.1,439.6z"/>
		<path class="st14" d="M1035,328.3c-36.6,7-60.6,23.8-54.8,55.9c2.4,13.4,18.1,64.7,18.1,64.7c3.8-1.1,6.2-1.1,9.2-1.1
			c0,0-2.9-53,1.8-68.6c4.6-15.3,35.5-12.5,53.9-13c0,0,15.8-20.6,14.3-37.2C1076.1,312.5,1035,328.3,1035,328.3z"/>
		<path class="st13" d="M1019.8,232.7c0.3,7.7,4.3,20.6,11.1,20.1c7.2-0.6,6,3.4,6,3.4s15.1-2.1,12.8-5.8c-2.8-4.4-4.7-6.8-5.4-9.8
			c-1.6-7.3-3.8-13.3-9.2-14.7C1027.5,223.8,1019.6,227.8,1019.8,232.7z"/>
		<path class="st1" d="M1039.2,253.4l-3.6,2.9c0,0,8.8-0.8,13.6-2.8c2.8-1.1,3.7-2,4-3c0,0-6-0.7-8.2,0.9
			C1042.8,252.9,1039.2,253.4,1039.2,253.4z"/>
		<path class="st15" d="M1018.7,227.7c-2.2,3.6,0.8,9.6,7.7,14c0,0,1.9-4.3,5.6-1.6c4.5,3.3,1.3,5.1,2,5.5c6.8,3.5,4.3,4.1,6.1,3.7
			c2.9-0.7,7.2-2.8,7.5-5.2c0.2-2.4-2.4-5-2.9-10c-0.5-5.1-2.7-11.1-7.9-12.5C1031.5,220.3,1021.4,223.1,1018.7,227.7z"/>
		<path class="st13" d="M989.4,295.8c-2.5-0.6-4.5-1.4-4.1-2.4c0.4-0.9,3.6,0,3.6,0L989.4,295.8z"/>
		<path class="st15" d="M978.7,459.8c21,0.1,28.4,0.2,29.4,0.1c0.9,0,0.6-5.3-0.8-8.3c0,0-6.9,1.6-12,2.8
			c-5.1,1.2-14.7,2.3-16.5,2.4C977,457,977.2,459.8,978.7,459.8z"/>
		<path class="st13" d="M967.1,309c-4.8-3.9-4.8-2.9-6.3-1.8c-1,0.8-2.7-0.9-0.6-4c2.8-4.2,8.7-2.1,9.6-1.3c0.9,0.9,2.9,5.1,2.9,5.1
			L967.1,309z"/>
		<path class="st16" d="M1083.2,298.9c-7.3-22.5-5.7-27-13.4-41.3c-7.8-14.4-32.2-2.9-32.2-2.9s-1.4,1.4-2,1.6
			c-21.2,8.3-26.7,26.5-34.8,35.4c-4.7,5.1-16.9,8.3-26.1,8.9c-6.5,0.4-8.7,3-7.6,7.9c0,0,20,0,27.5,0c10.9,0,31.6-12.8,31.6-12.8
			s5.6,33.1,2.4,58.8c0,0,6.8-2.7,19.9-4.5c10.3-1.5,25.5-2.7,25.5-2.7l-1.9-21.1l7.7,20.4c0,0,9.6-1.2,16.8-1.3
			C1096.7,345.5,1090.4,321.2,1083.2,298.9z"/>
	</g>
	<g>
		<path class="st2" d="M1123.5,462.7h-12c-4.8,0-9.3-2.3-12.2-6.2l-61.5-84.3l27.4-2.1l61.7,85.7c0.9,1.3,1.1,3,0.3,4.5
			C1126.6,461.8,1125.1,462.7,1123.5,462.7z M1041.6,373.9l59.3,81.4c2.4,3.4,6.4,5.4,10.6,5.4h12c0.9,0,1.6-0.5,2.1-1.3
			c0.4-0.8,0.3-1.7-0.2-2.4l-61-84.8L1041.6,373.9z"/>
		<path class="st2" d="M1047.9,462.7h-12c-1.6,0-3.1-0.9-3.8-2.3c-0.7-1.4-0.6-3.2,0.3-4.5l61.7-85.7l27.4,2.1l-61.5,84.3
			C1057.3,460.3,1052.7,462.7,1047.9,462.7z M1095.1,372.2l-61,84.8c-0.5,0.7-0.6,1.6-0.2,2.4c0.4,0.8,1.2,1.3,2.1,1.3h12
			c4.2,0,8.1-2,10.6-5.4l59.3-81.4L1095.1,372.2z"/>
		<rect x="1095.8" y="367.3" class="st2" width="28.6" height="11.5"/>
		<rect x="1033.8" y="367.3" class="st2" width="62" height="11.5"/>
	</g>
	<g>
		<path class="st15" d="M246.9,497.2c-0.1,1-2.3,4.5-0.7,7.5c1.6,3.1,6.5,5.2,12.7,5.5c6.2,0.2,8.4,0.1,9.4,0s1.7-3.4-0.4-4.3
			c-2.1-0.9-9.4-6.3-9.6-8.7C258.2,494.8,246.9,497.2,246.9,497.2z"/>
		<path class="st15" d="M289.8,497.2c-0.2,1-3.4,4.5-1,7.5c2.4,3.1,9.7,5.2,19,5.5c9.3,0.2,12.5,0.1,14,0s2.5-1.8-0.7-2.7
			s-19-7.3-19.2-9.7C301.6,495.4,289.8,497.2,289.8,497.2z"/>
		<path class="st17" d="M240.3,332.5c0,0,11.3,52.6,12.9,77.6c1.6,25-7.7,87.1-7.7,87.1h14.3c0,0,17.1-60,19-81.2s-4-70.6-4-70.6
			L240.3,332.5z"/>
		<path class="st17" d="M262.2,332.5c0,0,15.4,76.9,17,101.9s9.4,62.7,9.4,62.7h14.3c0,0,1.5-62.1,3.4-83.3
			c1.9-21.2-10.5-75.1-10.5-75.1L262.2,332.5z"/>
		<path class="st18" d="M253.1,139.5c0,0,0.4,33.1,3.2,57.4c2.2,19.1,8.6,27.9,14.4,31.6c5.8,3.8,24.3,12.9,33.8,15.5
			s17.5,39.2,26.2,35.2c8.7-3.9,16.9-41.7,16.9-41.7h8.7c0,0-6.2,60.8-25.4,65.7s-27-8.5-27-8.5l-3.5,56.2c0,0-6.6,7.5-25.1,0.8
			c-15.2-5.5-23.2,4.8-38.6-6.4c0,0,2.3-54.2,3.7-74.7c1.4-20.4-11.2-53.8-8.8-75.1c2.1-18.3,14.5-56.1,14.5-56.1h7V139.5z"/>
		<path class="st13" d="M253.1,131.1c0,0,2.4-5.3,4-4.6s-1.8,5.4-2,8.1c-0.2,2.7-2,4.9-2,4.9h-6.8c0,0-1.8-10.6-0.6-13
			s7.4-5.1,7.4-5.1L253.1,131.1L253.1,131.1z"/>
		<path class="st13" d="M347.8,237.5c-0.4-1.6-4.7-1.3-5.7-4h5.4c0,0,1.2-3.1,3.3-6.5c2.1-3.4,8.5-5.5,7.5,0.6
			c-0.7,4.6-1.8,9.9-1.8,9.9H347.8z"/>
		<path class="st16" d="M267.4,225.8c-13.5,10.4-26.4,39.3-26.8,44.9c-0.4,5.7-4.2,35.5-4.4,51.4C236,333.9,243.8,344,258,344
			c8.7,0,49.6,5.9,46.4-13.1c-1.4-8.5-0.2-36.2-0.2-36.2s-9.6-14.1-6.3-29.1c3.3-15,7.7-21.3,7.7-21.3L267.4,225.8z"/>
		<path class="st18" d="M272.2,228.1c-0.1,8.9,9.8,14.8,19.5,15.2c9.7,0.4,8.9-1.4,8.9-1.4s-8.5-3.9-8.3-6.9c0.2-3,0.9-4.6,0.9-4.6
			l-10-4.7c0,0-3.1,4.4-5.4,4.2C275.6,229.9,272.2,228.1,272.2,228.1z"/>
		<path class="st13" d="M293.3,230.5c4-2.3,11.8-3.4,12-9c0.3-8.4-3.8-20.6-7.7-21.1c-3.9-0.4-15.1,6.2-14.7,11.7
			c0.3,5.6,0.4,13.6,0.4,13.6L293.3,230.5z"/>
		<path class="st17" d="M256.2,254.8c-8.3,10.1,1.7,16.9,11.2,15.7s12.3,12.9,20,8.3c7.6-4.6,7-10.3,4.1-19.5s-4.9-13.2-2.2-21.2
			c2.8-8.1,7.6-10.1,8.3-17c0,0-2.6-1.6-1.8-4c0.8-2.4,3.1-3.4,3.1-3.4s5.3-5.3,4.5-8.5c-0.8-3.2-0.6-8-5.6-8.3c0,0-1.3-3.5-5.1-3
			c-3.8,0.6-8.3-2.5-16.3,9.6c-8,12,0.3,13.9-3.3,20.3c-3.6,6.4-7.3,1.5-11.2,9.6C257.8,241.5,262.2,247.5,256.2,254.8z"/>
	</g>
	<g>
		<path class="st13" d="M809.5,138.4l-3.3-5.7c0,0-4.3-8.4-10-5.5s-4.5,12.3-0.5,11.1c5-1.5,6.8,1.6,6.8,1.6s0.7,1.4,1.9,3.6
			C808.5,151.3,809.5,138.4,809.5,138.4z"/>
		<path class="st13" d="M807.5,135.1c-0.9-4-1.6-9.6-2.4-9.6c-3.7,0.2-0.5,7.5-1.4,9.7c-1,2.2,1.5,1,1.5,1L807.5,135.1z"/>
		<path class="st16" d="M877.5,307.1c-1,10.5-10.4,86.8-11,95.5c-0.9,14.3,9.3,81,9.3,81c-0.9,2.6-5.6,5-8.6,2.3
			c0,0-25.6-82.8-24.6-89c1.7-10.5-1.5-83.1-1.5-83.1l11.4-14.4L877.5,307.1z"/>
		<path class="st16" d="M821.3,304.2c-10.7,30.6,1.2,78.9,1.6,113.7c0.1,8.3,10.3,69.2,10.3,69.2s6.3,5.4,7.8-4
			c-1.9-13.4,1.1-52.8,2.7-64.3c5.3-38.7,19.4-102,19.4-102L821.3,304.2z"/>
		<path class="st17" d="M818,310.8l-3.7,24c0,0,19.1,2.6,36,0.7c17-1.9,30.1-17,30.1-17L877,299L818,310.8z"/>
		<path class="st18" d="M875.9,296.8c-13.3-22-4.6-14.9-9.8-45.2c-6.9-39.9-24.6-29.5-24.6-29.5c-4.7,3.8,1,1.9-8.2,8.6
			c-2.7,1-6.1,0.6-9.8-0.5c-9.2-2.8-17.6,5.3-11.3,21.2c3.9,9.7,3.5,24.4,0.7,40.8c-4.6,27-1.1,27.2,5,30.7
			C837.8,334.1,888.7,317.9,875.9,296.8z"/>
		<path class="st17" d="M838.9,229.7c8.6-6.4,22.8,10.7,27.9,25.7c0,0,0.6-21.9-5-31.2s-26.2-46.7-27.7-49.1
			c-1.6-2.4-24.4-38.4-24.4-38.4l-7.8,6.5l22.4,47.6L838.9,229.7z"/>
		<path class="st13" d="M844.5,197.1c-17.9,6.6-17.7,11.2-17.2,15.1c0.4,3.8,2.9,4.1,4,8.4c1.1,4.3-0.3,6.8-2.1,10.9
			c-1.2,2.9,5.2,2.8,9.4,0.2c4.2-2.5,5.6-2.9,4.2-9.7c-1.4-6.8,5.7-7.7,6.7-15.7C850.5,198.2,844.5,197.1,844.5,197.1z"/>
		<path class="st15" d="M842.7,195.9c-4.4,0.9-2.2,14.1-2.9,14.5c0,0,3.9,0.3,1.8,3c-2.1,2.7-4,0.6-4,0.6s-0.7,3.6,1.8,5.2
			c2.5,1.6,3.2,1.2,3.2,1.2s6.4,0.9,11.1-3.8C859.4,210.7,852.4,193.8,842.7,195.9z"/>
		<path class="st15" d="M853.6,210.1c-1.9,0.4-1.5,3.9-0.8,4.5s6.4,3.8,6.1,10.2c-0.3,6.3-4.9,5.3-5.8,15.4
			c-0.9,10.1,25.8,18.6,22.4,26.9c-3.4,8.3-13.8,2.1-15.7,10.2c-0.9,3.6,0.3,8,16,5.5c15.7-2.6,18-17.2,8.1-31.8
			c-9.9-14.6-3.8-21.7-6.1-28.8C875.5,215,862.6,208.2,853.6,210.1z"/>
		<path class="st18" d="M840.8,481.4c-1.8-1.4-5.7-1.5-9.9,3.6c-3,3.7-8.7,17.3-13.6,19.9c-3.4,1.8-5.2,4.9-0.3,5.1
			c5.9,0.2,26.6-19.2,26-22.2c0-0.2-0.1-0.3-0.1-0.5C842.4,484.4,841.8,482.2,840.8,481.4z"/>
		<path class="st17" d="M817.1,510c0,0,4.5,1,9.3-3.2c6.6-5.8,14.7-13.7,15.4-14.7c1.2-1.6,2-3,1.4-4.4s-4-1.5-7.1,1.2
			c-1,0.9-7.9,12.2-13.9,18.4C819.7,510,817.1,510,817.1,510z"/>
		<path class="st18" d="M875.2,482.5c-1.9-0.9-4.3-0.6-7.3,2.5c-3.4,3.5-5.1,17.4-10.9,19.3c-4,1.4-5.8,4.5,0.7,5.7
			c7.8,1.5,21.9-17.1,20.5-20.8C878.1,489.1,877.6,483.6,875.2,482.5z"/>
		<path class="st17" d="M857.7,510c0,0,5.4,0.8,9-1.8c3.5-2.6,7.6-7.7,9.1-11.4c1.2-2.8,3.1-5.4,2.3-7.6c-0.7-1.9-3.5-2.9-6.6,0
			c-2.6,2.5-2.2,12-8.7,17.9C860.2,509.6,857.7,510,857.7,510z"/>
		<rect x="741.8" y="134.2" class="st11" width="75.1" height="26.6"/>
		<g>
			<path class="st13" d="M771.8,156.6c-0.2-4.5,1.9-6.8,1.8-9.1c-0.1-2.3-1.6,0.7-2.2,1.8c-0.6,1.1-0.3-4.1-1.9-6.8
				c-1.7-2.7-6,0.3-5.8,4.8s0.9,6.5,1.4,8.4s0.5,3.3,0.5,3.3L771.8,156.6z"/>
			<path class="st17" d="M822.1,229.7c3.5,7.9-1.4,61-7.4,47.6c0,0-4.6-24.8-10.7-33.7c-6.1-8.9-25-23.6-30.6-30.8
				c-5.6-7.3-8.9-55-8.9-55l8.3-1.8c0,0,11.3,42.8,14.1,46.6C789.7,206.4,822.1,229.7,822.1,229.7z"/>
		</g>
	</g>
	<g>
		<rect x="364.6" y="364.7" class="st11" width="29.2" height="29.2"/>
		<g>
			<g>
				<path class="st19" d="M457.5,306.5L422,333.3c0,0-30.7,19.3-32.7,20.5c-2.7,1.6-3.5,0.9-11.6,3.6c-8.1,2.7-6.8,5.8-6.8,5.8
					s2.9-1,5.3-1.9c2.6-0.9,5-1.4,3.1,1.8c-1.9,3.2,2.7,1.6,4.2,0c3.1-3.4,7-3.8,7-3.8c33.7-10.2,75.4-40.7,75.4-40.7
					C466.7,312.2,457.5,306.5,457.5,306.5z"/>
				<path class="st1" d="M439.9,337l5.1-3.5c-0.7-6.7-6.3-34.4-6.3-34.4s-1.2,8.4-1.5,15.9c-0.2,7.5-7.9,11.6-7.9,11.6
					C433.2,323.7,441.4,335.2,439.9,337z"/>
			</g>
			<g>
				<path class="st19" d="M460,496.3l0.7,6.5c0,0,0.3,2.8,0.3,4s-2.9,4.1-2.9,4.1l1.4,3.8l8.7-5.3c0,0,0.4-0.8-0.1-1.9
					c-0.4-1.2-0.6-4.5-0.6-4.5l0.1-2.3L460,496.3z"/>
				<path class="st15" d="M437.6,517.7c-0.1-0.1-0.1-0.9-0.1-1c0.3-2.3,20.5-6.8,20.5-6.8c0.4,0.7,7.7,1.1,10.1-2.1
					c0,0,1,2.8,1.3,4.3c0.9,3.9-4.6,6.2-9.8,6.6C455.1,519,438.5,520,437.6,517.7z"/>
				<path class="st19" d="M509.8,490.4c0,0,2.9,4.1,3.7,5.6c3.5,6.4,6.4,12.1,6.4,12.1l3.7-11.2c0,0-2.1-2.6-2.9-3.7
					c-1.5-2-3.1-4.6-3.1-4.6L509.8,490.4z"/>
				<path class="st15" d="M495.8,515.4c-0.1-0.2-0.2-1-0.2-1.1c0.2-2.4,20.7-13.2,20.7-13.2c3.7-0.7,6-2.9,7.4-4.4
					c0,0,2.1,3.2,2.5,4.3c1.1,3.8-3.5,6.5-8.1,8.2C513.4,511.2,496.8,517.6,495.8,515.4z"/>
				<path class="st16" d="M470.9,361.2c0,0-3.9,26.7-9.3,60.4c-1.6,10.1,5.1,69.6,5.9,78.8c-2.4,0.1-7.1-0.9-7.1-0.9
					s-13-44-17.6-55.6c-6.9-17.5-8.2-50.5,4.9-88.2L470.9,361.2z"/>
				<path class="st16" d="M454.5,353.9c0,0,0.4,15.4,0.3,20.7c0,15.7,8.2,46,11.3,55.4c1.7,5.5,45.6,63.3,45.6,63.3l6.6-3.8
					c0,0-24.4-50-29.8-62.3c-3.2-7.5,12.4-58.2,1.2-75.4C471.4,323.7,454.5,353.9,454.5,353.9z"/>
				<path class="st20" d="M483.4,363.4l-3.8,19.3c0,0,0,0,0,0c-19.2-3.3-34.9-6-39.1-14.9c-1.1-2.4,0.5-1.3,0.2-15.1
					c-0.1-5.3-0.5-10.2-2.6-15.8c-0.7-1.9-1.4-3.2-1.7-3.9c-2.8-5.6-9.7-19.8-9.9-33.5c-0.1-5.2-0.3-16.7,6.2-20.5
					c7.4-4.3,19.3,3.9,25.3,8.1c1.9,1.3,8.6,6.1,19.7,20.6c11.1,14.5,16.6,25.7,23.4,39.8c7.9,16.4,8.1,20.3,6.8,23.6
					c-3.9,10.4-19.8,12.8-23.1,13.2L483.4,363.4z"/>
				<path class="st19" d="M414.9,265.4c6.8,3.3,6.3,7.2,12.6,8c6.4,0.7,5.5,4.6,6.5,9c1,4.5-3.1,11.8-5.2,9.9
					c-3.2-2.9-2.7-6.5-6.8-6.8c-4.1-0.3-5.1,1.7-8.6,1c-3.6-0.8-6-2-6.5-19.8C407.1,266.8,408,262,414.9,265.4z"/>
				<g>
					<path class="st19" d="M453.5,330.1l-10.4,3.4c0,0-3.9,17.5-6.7,26.3c-1.6,4.8-27.8,18.4-30.5,19.7c-7.4,3.5-11.6,5.8-11.6,5.8
						c-3,1.7-7.3,2.8-8.1,3.4c-2.9,2,2.5,12.7,7.4,7.6s7.1-7.3,28.9-15.7c21.7-8.5,26.8-18.4,35.7-42L453.5,330.1z"/>
					<path class="st1" d="M464.3,317c0.6,7.9-6.2,21.5-6.2,21.5c-2.2-6.4-15.2-5.1-15.2-5.1s1.5-25.4,6.5-34.3
						C452.4,294,463.8,309.2,464.3,317z"/>
				</g>
				<path class="st15" d="M443.5,268.2c5.9,6.2,32.9,3,33.4,17.2c0.3,7.9-0.4,19,3.2,20.2c1,0.3,2.6-0.1,3.5,1
					c0.6,0.8,0.8,2.1,0.3,2.9c-1.2,1.7-5.9,1.2-9.6-0.7c-4.4-2.3-3.8-5.4-9.7-10.2c-0.6-0.5-2.7-2.2-5.9-3.8
					c-3.6-1.8-8-4.2-12.5-3.4c-6.4,1.1-9,7.1-11.8,5.9c-1.7-0.7-3-2.7-2.8-7.4c0.4-10-11.4-10.7-8.3-11.6c2-0.5,2.3-8.3-4.3-4.6
					c0,0-4.9-4.1-9.4-5.3c-3.3-0.9-9.4-5.6,0.1-10C422.6,252.4,425.7,249.5,443.5,268.2z"/>
			</g>
		</g>
	</g>
	<linearGradient id="SVGID_2_" gradientUnits="userSpaceOnUse" x1="1194.2167" y1="-199.851" x2="1194.2167" y2="-199.851">
		<stop  offset="0" style="stop-color:#FFFFFF;stop-opacity:0"/>
		<stop  offset="2.168840e-02" style="stop-color:#F6FCFE;stop-opacity:2.168840e-02"/>
		<stop  offset="0.1827" style="stop-color:#B6E5FA;stop-opacity:0.1827"/>
		<stop  offset="0.3416" style="stop-color:#7ED2F6;stop-opacity:0.3416"/>
		<stop  offset="0.4944" style="stop-color:#51C2F3;stop-opacity:0.4944"/>
		<stop  offset="0.64" style="stop-color:#2EB6F0;stop-opacity:0.64"/>
		<stop  offset="0.7764" style="stop-color:#15ADEE;stop-opacity:0.7764"/>
		<stop  offset="0.9001" style="stop-color:#05A8ED;stop-opacity:0.9001"/>
		<stop  offset="1" style="stop-color:#00A6ED"/>
	</linearGradient>
	<path class="st21" d="M1194.2-199.9"/>
</g>
<g>
	<g>
		<polygon class="st1" points="601.9,501.4 601.5,505.2 606.2,510.2 610.6,507.7 610.6,505.7 611.1,501.4 		"/>
		<path class="st1" d="M556.5,502.9l-0.5,3.9l4.9,4.1c0,0,3.5-1.9,3.8-2.1c0.3-0.1,2.1-6.4,2.1-6.4L556.5,502.9z"/>
		<path class="st13" d="M605.7,168.8l3.4-18.9c0,0-3.6-10.1,2.3-13.5c6-3.3,11.3-0.2,12.1,1.6S611,172.3,611,172.3L605.7,168.8z"/>
		<path class="st14" d="M543.9,322.6c5.3,47.5,11.2,60.3,16.9,94.8c3,18.6-0.3,44.4-4.7,85.3c-0.4,3.5,13,3.3,14,0
			c9-30.9,20.4-71.3,22.5-86.8c2.7-19.7,0.7-58.2,0.7-58.2l-12.1-42.9L543.9,322.6z"/>
		<path class="st14" d="M596.7,307.3c19.8,43.5,22.9,77.5,25,96.2c3.1,26.8-4,49.9-8.6,97.6c-0.3,3-11.9,3-12,0
			c-1.1-43.5-1.2-89.8-8-107c-5.8-14.6-18.3-35.1-18.3-35.1l-14.2-39.3L596.7,307.3z"/>
		<polygon class="st18" points="581.9,232.2 601.1,181.4 604.7,161.8 616.6,169.6 610.4,224.7 597.4,259.9 		"/>
		<path class="st1" d="M571.9,333.5c21.3,0,25.3-7.5,25.3-7.5l-0.4-56.4c0,0-5.1-27.4-4.9-27.6c0.2-0.2-7.4-7.7-7.2-4.4
			c0.2,3.3,0.4,6.7-5.3,7.2c-5.7,0.6-14-4.7-14-4.7l2.3,8.9L571.9,333.5z"/>
		<polygon class="st22" points="604.7,161.8 603,170.9 615.6,178.1 616.6,169.6 		"/>
		<path class="st18" d="M584.7,240.6c2.6,4.5,6,29.6,6.1,37.9s1.1,29,3.2,43.2c1.1,7.6,17,47.2,17,47.2s10.1-4.7,10.1-11.7
			c0-8.5-20.1-33.4-18-82c0.6-12.8-5.4-31.3-8.2-35.9s-5.6-6.9-5.6-6.9l-4.4,0.9L584.7,240.6z"/>
		<path class="st18" d="M573.4,247c0,0-0.5,118.9,3.6,132.6c0,0-39.7-6.8-42.8-17.2c-10.9-36.2-0.1-103.4,13.7-114.9
			c12.5-10.4,15.5-12.3,15.5-12.3l3.7,11.1L573.4,247z"/>
		<path class="st22" d="M580.5,234.7c4.4,6.3,5.2,8.2,5.2,8.2s2.6-1.4,5-1.3c0,0-5.2-9.5-9.3-11C577.1,229,580.5,234.7,580.5,234.7z
			"/>
		<path class="st13" d="M564.9,233.3c13.5-4.9-9-21.5,6.4-27.3s21.3,17.4,19.6,21.9c-1.7,4.4-7.8,1-8.4,5.2
			c-0.1,0.6,0.2,5.2,0.1,5.8c-0.3,3.6-1.2,4.7-4.8,5l0,0c-2.9,0.3-5.8-0.1-8.6-1.2l-4-1.5L564.9,233.3z"/>
		<path class="st22" d="M560.8,235.6c1.4,5.4,1.9,7.5,7.2,13.2c0,0,4.4-1.9,5.4-1.8c0,0-3.1-3.2-6.3-8.3c-2-3.2-2.2-5.4-2.2-5.4
			L560.8,235.6z"/>
		<path class="st22" d="M543.1,332.9l-1.1,5c0,0,6.4,4.1,24.8,7.7v-5.5C566.8,340.1,549.6,336.7,543.1,332.9z"/>
		<polygon class="st22" points="610.1,327.5 607.2,333.5 612.3,335.9 614.1,330.5 		"/>
		<path class="st15" d="M585.7,210.2c-2.2-1-4.8-1.3-5.2,0s-3.2-0.4-5,1.3s0.7,9-0.6,9.5s-3.5-0.6-3.6,1.8c-0.1,2.4,3.9,3.5,3.9,3.5
			s-0.6,5.3-4.5,4s-6.8-3.4-8.6-7.7c-1.9-4.3-2.6-12.2,4.2-16.6c6.9-4.4,12.3-3,15.9-2C585.5,204.9,585.7,210.2,585.7,210.2z"/>
		<path class="st13" d="M619.7,147.7c4-2.8,4.8-3.5,5.5-2.3c0.7,1.1-6.4,7.2-6.4,7.2L619.7,147.7z"/>
		<path class="st15" d="M609.7,514.6c-4.9-0.9-9.2-1.5-8.7-5.5c0.1-1.2,0.5-3.9,0.5-3.9c2,1.5,8.7,1.9,9,0.5c0,0,24.1,7.8,24.8,10.2
			c0,0.1,0,0.9,0,1.1C634.8,519.3,614.6,515.5,609.7,514.6z"/>
		<path class="st15" d="M565.6,520c-1.8-0.6-10.6-4.8-10.1-8.8c0.1-1.2,0.6-4.9,0.6-4.9c1.3,2.8,8.3,2.7,8.6,2.5
			c0,0,12.1,7.3,12.7,9.7c0,0.1,0,0.9,0,1.1C576.9,522,570.3,521.7,565.6,520z"/>
	</g>
	<path class="st23" d="M614,285.2c0,0-34.7-27.1-47-36.6c-5.9-4.6-26.1,6.7-13.3,21.4c8.9,10.3,40.2,23.3,48.7,26.6
		c1.7,0.7,16.8-0.2,21.9,0v-9.2L614,285.2z"/>
	<path class="st13" d="M670.2,294.2l-10.2-1.5c0,0,1.8-1.7,2.6-3s-0.2-2.8-1.4-1.2c-1.2,1.6-5.7,3.6-5.7,3.6l-31.3-4.6v9.2
		c11.4-0.2,27.6-1.4,30.6-0.6C671,300.5,670.2,294.2,670.2,294.2z"/>
	<polygon class="st22" points="615.8,285.6 615.8,296.7 625.7,296.5 625.7,287.4 	"/>
</g>
</svg>
