<?xml version="1.0" encoding="utf-8"?>
<!-- Generator: Adobe Illustrator 22.1.0, SVG Export Plug-In . SVG Version: 6.00 Build 0)  -->
<svg version="1.1" id="Layer_1" xmlns="http://www.w3.org/2000/svg" xmlns:xlink="http://www.w3.org/1999/xlink" x="0px" y="0px"
	 viewBox="0 0 594 408" style="enable-background:new 0 0 594 408;" xml:space="preserve">
<style type="text/css">
	.st0{opacity:0.62;fill:url(#SVGID_1_);enable-background:new    ;}
	.st1{opacity:0.77;fill:url(#SVGID_2_);enable-background:new    ;}
	.st2{fill:#FBD2C4;}
	.st3{fill:#FFBA0A;}
	.st4{fill:#FFFFFF;}
	.st5{fill:#5BB702;}
	.st6{fill:#2708A0;}
	.st7{fill:#FFB400;}
	.st8{fill:#F1D2C4;}
	.st9{fill:#F6511D;}
	.st10{fill:#100B00;}
	.st11{fill:#2C15B7;}
	.st12{fill:#E7E6E8;}
	.st13{fill:#FF4F2C;}
	.st14{fill:#F94110;}
</style>
<linearGradient id="SVGID_1_" gradientUnits="userSpaceOnUse" x1="-266.8983" y1="-690.6354" x2="-266.8983" y2="-405.6407" gradientTransform="matrix(-6.123234e-17 1 -1 -6.123234e-17 -388.6264 510.6264)">
	<stop  offset="0" style="stop-color:#FFFFFF;stop-opacity:0"/>
	<stop  offset="2.168840e-02" style="stop-color:#F6FCFE;stop-opacity:2.168840e-02"/>
	<stop  offset="0.1018" style="stop-color:#F7F2D9;stop-opacity:0.1018"/>
	<stop  offset="0.2339" style="stop-color:#F9E3A3;stop-opacity:0.2339"/>
	<stop  offset="0.3673" style="stop-color:#FBD774;stop-opacity:0.3673"/>
	<stop  offset="0.4992" style="stop-color:#FCCC4E;stop-opacity:0.4992"/>
	<stop  offset="0.6295" style="stop-color:#FEC430;stop-opacity:0.6295"/>
	<stop  offset="0.7575" style="stop-color:#FEBF1B;stop-opacity:0.7575"/>
	<stop  offset="0.8822" style="stop-color:#FFBB0E;stop-opacity:0.8822"/>
	<stop  offset="1" style="stop-color:#FFBA0A"/>
</linearGradient>
<path class="st0" d="M234.4,392.7c-28.3,2.6-33-85.5-106.4-111.1c-42.3-14.8-89.8-2.7-106.2-32.3c-5.2-9.5-4.9-18.8-4.7-22.5
	c2.4-63.6,169.8-169.4,245-118.9C345.7,164.1,278.9,388.6,234.4,392.7z"/>
<linearGradient id="SVGID_2_" gradientUnits="userSpaceOnUse" x1="422.3799" y1="429.6075" x2="422.3799" y2="725.1781" gradientTransform="matrix(1 0 0 -1 0 762)">
	<stop  offset="0" style="stop-color:#FFFFFF;stop-opacity:0"/>
	<stop  offset="2.168840e-02" style="stop-color:#F6FCFE;stop-opacity:2.168840e-02"/>
	<stop  offset="7.573584e-02" style="stop-color:#E2E4F5;stop-opacity:7.573584e-02"/>
	<stop  offset="0.2177" style="stop-color:#B1AADF;stop-opacity:0.2177"/>
	<stop  offset="0.3598" style="stop-color:#8779CB;stop-opacity:0.3598"/>
	<stop  offset="0.4989" style="stop-color:#6450BC;stop-opacity:0.4989"/>
	<stop  offset="0.6344" style="stop-color:#4A31B0;stop-opacity:0.6344"/>
	<stop  offset="0.7653" style="stop-color:#361AA7;stop-opacity:0.7653"/>
	<stop  offset="0.8895" style="stop-color:#2B0DA2;stop-opacity:0.8895"/>
	<stop  offset="1" style="stop-color:#2708A0"/>
</linearGradient>
<path class="st1" d="M281.5,291c-52.4-78,57.4-251.6,123.3-254.1c3.8-0.1,13.5-0.5,23.3,4.9c30.8,17,18.2,66.3,33.5,110.1
	c26.6,76.1,118,81,115.2,110.3C572.6,308.4,339.7,377.7,281.5,291z"/>
<g>
	<g>
		<g>
			<path class="st2" d="M346.1,214.2l2.8-10.3c0,0-2.3,1-3.9,1.2s-2.6-1.3-0.6-1.8s5.8-3.9,5.8-3.9l8.7-31.6l8.7,3.8
				c-4.9,10.8-12.8,25.6-13.3,28.8C351.6,217.7,346,214.2,346.1,214.2z"/>
			<polygon class="st3" points="360.5,159.1 371.1,163.7 366.8,173.1 358.1,169.2 			"/>
		</g>
		<g>
			<polygon class="st4" points="376,372.8 376.6,376.9 372.1,382.3 367.3,379.9 367.3,377.9 366.4,373.5 			"/>
			<path class="st4" d="M423,371.4l0.8,4L419,380c0,0-3.8-1.7-4.1-1.9c-0.3-0.1-2.6-6.4-2.6-6.4L423,371.4z"/>
			<path class="st5" d="M424.2,184.2c-2.3,49.5-7.6,63.1-11.2,99.2c-1.9,19.4,3.3,45.9,10.5,87.9c0.6,3.6-13.2,4.2-14.5,0.9
				c-11.3-31.4-25.8-72.4-29-88.3c-4.1-20.2-4.6-60.2-4.6-60.2l9.7-45.2L424.2,184.2z"/>
			<path class="st5" d="M368.5,171.7c-17.6,46.3-18.6,81.7-19.5,101.2c-1.5,27.9,7.4,51.4,15.3,100.4c0.5,3.1,12.5,2.3,12.4-0.8
				c-1.7-45.1-4.7-93,1.2-111.2c5-15.5,16.6-37.5,16.6-37.5l12.1-41.6L368.5,171.7z"/>
			<path class="st4" d="M395.8,197.2c-22.1,1.4-26.7-6.1-26.7-6.1l-3.3-58.4c0,0,3.4-28.7,3.2-28.9c-0.2-0.2,7.2-8.4,7.2-5
				c0.1,3.4,0.1,7,6,7.1c6,0.2,14.2-5.8,14.2-5.8l-1.8,9.4L395.8,197.2z"/>
			<path class="st6" d="M376.6,102c-2.4,4.8-4.2,31-3.8,39.6c0.4,8.6,0.7,30.1-0.5,44.9c-0.7,7.9-14.5,49.9-14.5,49.9
				s-10.7-4.2-11.2-11.4c-0.6-8.8,18.6-35.9,13.2-86c-1.5-13.2,3.5-32.8,6.1-37.7s5.3-7.5,5.3-7.5l4.6,0.6L376.6,102z"/>
			<path class="st6" d="M388.8,107.8c0,0,8.3,123,5,137.4c0,0,40.6-9.6,43.1-20.6c8.8-38.1-6.8-106.9-21.8-117.9
				C401.5,96.8,398.3,95,398.3,95l-3.1,11.7L388.8,107.8z"/>
			<path class="st7" d="M380.5,95.6c-4.1,6.8-4.8,8.8-4.8,8.8s-2.8-1.3-5.3-1c0,0,4.8-10.2,8.9-12C383.6,89.6,380.5,95.6,380.5,95.6
				z"/>
			<path class="st8" d="M396.5,93.1c-14.3-4.2,7.9-22.8-8.4-27.8c-16.3-5-20.9,19.4-18.8,23.9c2,4.4,8.1,0.5,9,4.8
				c0.2,0.6,0.2,5.4,0.3,6c0.6,3.7,1.6,4.8,5.3,4.9l0,0c3,0.1,6-0.5,8.8-1.8l4-1.8L396.5,93.1z"/>
			<path class="st7" d="M400.9,95.2c-1.1,5.6-1.5,7.9-6.6,14.1c0,0-4.7-1.7-5.7-1.5c0,0,3-3.5,6-9c1.8-3.4,1.9-5.7,1.9-5.7
				L400.9,95.2z"/>
			<path class="st9" d="M373.6,70.5c2.2-1.1,4.9-1.6,5.4-0.3s3.3-0.6,5.3,1c1.9,1.7-0.2,9.4,1.2,9.8s3.5-0.9,3.8,1.6
				c0.3,2.5-3.8,3.9-3.8,3.9s1,5.4,4.9,3.8c4-1.6,6.8-3.9,8.4-8.5c1.7-4.6,1.9-12.8-5.4-16.9c-7.4-4.1-12.9-2.3-16.6-1
				C373.4,65.1,373.6,70.6,373.6,70.5z"/>
			<path class="st10" d="M368.8,387.1c5-1.3,9.4-2.2,8.6-6.3c-0.2-1.2-0.8-4-0.8-4c-2,1.7-8.9,2.5-9.3,1.1c0,0-24.4,9.7-25,12.2
				c0,0.1,0.1,0.9,0.1,1.1C343.2,393.5,363.8,388.4,368.8,387.1z"/>
			<path class="st10" d="M414.5,389.7c1.9-0.8,10.7-5.7,9.9-9.8c-0.1-1.2-0.9-5-0.9-5c-1.1,3-8.4,3.4-8.7,3.2c0,0-12,8.4-12.5,10.9
				c0,0.1,0.1,0.9,0.1,1.1C403.2,392.5,409.9,391.8,414.5,389.7z"/>
		</g>
		<g>
			<path class="st11" d="M414.3,183.8c0,0-14.3-43.4-19.3-58.7c-2.5-7.4,15.6-23.1,25.5-5.5c6.9,12.3,8.7,47.4,8.9,56.8
				c0.1,1.9-6.1,16.4-7.7,21.4l-9-3.2L414.3,183.8z"/>
			<path class="st2" d="M403.2,241.8l2.1-10.5c0,0-2.3,1.2-3.8,1.5c-1.6,0.3-2.7-1.2-0.7-1.8c2-0.6,5.5-4.3,5.5-4.3l6.5-32.1l9,3.2
				c-4.2,11-11,26.4-11.3,29.6C409.1,244.9,403.3,241.8,403.2,241.8z"/>
			<polygon class="st3" points="413.9,185.8 424.8,189.7 421.2,199.3 412.2,196.1 			"/>
		</g>
	</g>
</g>
<path class="st3" d="M89,143c-2.4-11.2,18-10.8,12.9,3.4c-3.5,9.7-23.9,8.9-21.7-6.2c2-13.4,21.5-16.7,28.4-5.8
	c5.4,8.5,0.1,22.1-10.6,25.2c-10.2,3-30.3-1.3-26.6-22c1.9-10.7,12-16.1,21.5-16.5c4.8-0.2,3.9,2.8,2.3,3
	c-12.2,1.1-18.6,6.5-20.1,14.7c-2.8,16.3,14.5,19.7,22.1,17.3c7.6-2.4,12.6-12.3,8.7-18.8c-4.8-8-19.1-8.3-22,3.3
	c-2,8.1,11.8,11.4,14.7,5.2c4.3-9.2-8-9.8-6.6-3.3C92.3,144.1,89.4,144.9,89,143z M115,108.9c-1.1,1.1-4.6,5.1-5.7,6.1
	c-1.3,1.2-6.4,3.9-7.7,5.1c-0.8,0.8,0.5,2.3,1.5,2.3c2.9,0,5.7-2.5,6.9-3.5c0.9-0.7,2.1-2,3-2.9c1.2-1.3,3.7-3.7,3.8-5.4
	C116.9,108.6,115.3,108.6,115,108.9z M130.4,140.8c-5.4-1-3.6-0.4-8.5-0.4c-1.2,0-6.6-0.8-8.1,1.4c-0.7,0.9-1.3,3.1,4.4,2.7
	c6-0.4,6.7-0.6,9.8-0.3C130.4,144.5,132.3,141.1,130.4,140.8z M118.7,173.5c1.1-2.7-3-3.8-5.4-5.7c-2.5-2-4.1-4.3-5.3-4.7
	c-2.7-0.7-4.4,0.3-3.5,1.7c1.4,2.1,7.7,7.1,8.9,7.7S117.9,175.4,118.7,173.5z M83.9,177.3c0.4-1.2,5.8-11.2,3.2-12.1
	c-1.3-0.5-1.2-0.3-1.7,0.1c-0.9,0.7-2.1,2-2.5,2.8c-1.1,2-1.5,4.5-2.6,6.7c-0.6,1.3-2.9,6-1.4,6.2C82.3,181.4,83.5,178.7,83.9,177.3
	z M61.8,157c-1.4,0.7-2.6,1.4-3.9,2.1c-1.5,0.8-2.7,2.1-4.1,3c-0.5,0.3-1,0.6-1.5,1c-2.1,1.8,0.7,2,2.8,1.9
	c2.1-0.2,9.8-4.9,12.2-7.1c2.4-2.2-1.2-2.2-1.9-2.1C64.6,155.9,62.7,156.6,61.8,157z M65.4,138.8c-0.9-0.2-2.5-1.2-3.4-1.4
	c-1.9-0.4-2.5-0.5-5.1-1c-1.3-0.3-4.9-1.5-6.1,0.2c-0.6,0.9,0.5,3,2.9,3.3c2.4,0.2,6.1,0.6,9.2,2.1
	C66.9,143.7,67.6,139.4,65.4,138.8z M60.9,109.9c-0.6-0.5-3.5,0.6-1.9,3.2c1.6,2.6,4.9,6.9,7.6,9.4c2.7,2.5,4,3.1,4.8,1.5
	c0.4-0.8-1.1-2-1.6-2.7c-1.7-2.2-3.5-4.5-5.3-6.5c-1.4-1.6-1.3-1.9-1.4-1.8C63.2,112.9,61.7,110.5,60.9,109.9z M89.2,115.4
	c0.5-0.8,0.1-6.5,0.1-9.5c0-1.3,0.7-4,0.2-4.6c-0.4-0.5-2.1-3-2.9,0.5c-0.8,4-1,6.4-0.8,11.2C85.9,114,87.2,118.4,89.2,115.4z"/>
<path class="st6" d="M459.2,49.2l-3.8,1.2l2.4,3.3c0.6,0.8,0.4,2-0.4,2.6c-0.3,0.2-0.7,0.4-1.1,0.4c-0.6,0-1.1-0.3-1.5-0.8l-2.4-3.3
	l-2.4,3.3c-0.4,0.5-0.9,0.8-1.5,0.8c-0.4,0-0.8-0.1-1.1-0.4c-0.8-0.6-1-1.8-0.4-2.6l2.4-3.3l-3.8-1.2c-1-0.3-1.5-1.4-1.2-2.4
	c0.3-1,1.4-1.5,2.4-1.2l3.8,1.2v-4c0-1,0.8-1.9,1.9-1.9c1,0,1.9,0.8,1.9,1.9v4l3.8-1.2c1-0.3,2,0.2,2.4,1.2
	C460.7,47.8,460.1,48.9,459.2,49.2z M439.6,74.2c0.3,1-0.2,2.1-1.3,2.5l-3.4,1.1l2.1,2.9c0.6,0.9,0.4,2.1-0.4,2.7
	c-0.3,0.3-0.7,0.4-1.2,0.4c-0.6,0-1.2-0.3-1.6-0.8l-2.1-2.9l-2.1,2.9c-0.4,0.5-1,0.8-1.6,0.8c-0.4,0-0.8-0.1-1.2-0.4
	c-0.9-0.6-1.1-1.9-0.4-2.7l2.1-2.9l-3.4-1.1c-1-0.3-1.6-1.4-1.3-2.5c0.3-1,1.4-1.6,2.5-1.3l3.4,1.1v-3.6c0-1.1,0.9-2,2-2
	c1.1,0,2,0.9,2,2v3.6l3.4-1.1C438.2,72.6,439.3,73.2,439.6,74.2z"/>
<g>
	<path class="st12" d="M176.1,342.7c-0.8-1.5-0.6-3.2,0.3-4.5l61.7-85.7l27.4,2.1L204,338.9c-2.9,3.9-7.4,6.2-12.2,6.2h-12
		C178.2,345.1,176.7,344.2,176.1,342.7z M238.9,254.7l-61,84.8c-0.5,0.7-0.6,1.6-0.2,2.4c0.5,0.8,1.2,1.3,2.1,1.3h12
		c4.2,0,8.2-2,10.6-5.4l59.3-81.4L238.9,254.7z"/>
	<path class="st12" d="M243.3,339l-61.5-84.3l27.4-2.1l61.7,85.7c0.9,1.3,1,3.1,0.3,4.5c-0.7,1.4-2.2,2.3-3.8,2.3h-12
		C250.6,345.1,246,342.8,243.3,339z M185.4,256.4l59.3,81.4c2.5,3.4,6.4,5.4,10.6,5.4h12c0.9,0,1.7-0.5,2.1-1.3s0.3-1.7-0.2-2.4
		l-61-84.8L185.4,256.4z"/>
	<rect x="178.9" y="249.8" class="st12" width="28.6" height="11.5"/>
	<rect x="207.5" y="249.8" class="st12" width="62" height="11.5"/>
</g>
<g>
	<path class="st8" d="M192.4,174.2L168,211.5c0,0-22.2,28.6-23.7,30.5c-2,2.4-3,2-9.7,7.4c-6.6,5.3-4.3,7.8-4.3,7.8s2.4-2,4.3-3.5
		c2.2-1.8,4.2-3.1,3.6,0.6c-0.6,3.6,3.1,0.5,4-1.4c1.8-4.3,5.3-6,5.3-6c28.2-21.1,56.9-64.2,56.9-64.2
		C203,176.4,192.4,174.3,192.4,174.2z"/>
	<path class="st4" d="M202.4,185.5l3.6-5c-2.1-3.2-5.3-9-6.3-16.8c-0.5-4.1-0.3-7.7,0.1-10.5c-1.3,4.4-3,9.1-5,14.1
		c-1.8,4.4-3.8,8.5-5.7,12.1C191.6,175.3,203.2,183.3,202.4,185.5z"/>
	<path class="st8" d="M133.3,300.3l-0.5,6.5c0,0-0.2,2.9-0.5,4c-0.4,1.2-3.7,3.5-3.7,3.5l0.7,4l9.6-3.8c0,0,0.6-0.7,0.2-1.9
		c-0.4-1.3,0.1-4.6,0.1-4.6l1.1-5.3L133.3,300.3z"/>
	<path class="st3" d="M107.9,321.6c0-0.1,0-0.9,0-1c0.4-2.3,20.8-6.2,20.8-6.2c0.3,0.7,7.8,1.2,10.4-2c0,0,0.5,3.1,0.8,4.5
		c0.7,4-4.8,6.1-10.1,6.3C125.1,323.3,108.6,323.9,107.9,321.6z"/>
	<path class="st8" d="M131.1,324.4c0,0-2.3,4.6-3.3,6c-4.1,6.1-7.6,11.3-7.6,11.3l10.7-1.3c0,0,0.9-0.7,1.1-2
		c0.3-1.3,4.6-7.7,4.6-7.7L131.1,324.4z"/>
	<path class="st3" d="M98.6,340.4c0-0.1,0.3-0.9,0.4-1c1.4-2,24.2-1.7,24.2-1.7c-0.2,1.5,6.8,2.7,8.9,0.6c0,0-0.8,3.5-1.1,4.7
		c-0.9,3.9-5.2,4.1-10.1,3.3C115.9,345.5,98.2,342.8,98.6,340.4z"/>
	<path class="st13" d="M206.5,246c0,0-39.7-12.3-59.4-10c-10.1,1.2-4.9,66.8-7,72.2c-2.4,1.7-8.7-0.3-8.7-0.3s-9.9-73-5.1-84.6
		c7.3-17.4,56.6-16.4,89.2-11L206.5,246z"/>
	<path class="st14" d="M227.2,212.8c0,0-13.5,7.5-18.2,9.9c-14,7.1-37,28.7-43.9,35.7c-4.1,4.2-35.6,69.1-35.6,69.1
		c-1.1,1.9,5,4.5,7.1,3c0,0,33-43.2,41.4-53.6c5.2-6.3,57.4-16.2,67.4-34.1C261.7,213.7,227.2,212.8,227.2,212.8z"/>
	<path class="st6" d="M230.6,232.1c-3,11.9-7.8,14.1-9.7,14.7c-11.6,3.7-32.3-17.7-30.1-32.5c0.5-3.2,1.4-6.8,4.1-16.8
		c1.3-4.8,1.4-8.6,1.6-9.9c4.2-30.5,6.8-49.8,14.6-52.1c7-2.1,16.4,9.8,20.6,15.2c24.2,30.7,27.4,77.7,11.3,91.3
		c-2,1.7-9.5,7.3-12,5.4c-0.6-0.5-0.8-1.4-0.8-5.6C230.3,237.8,230.4,234.5,230.6,232.1z"/>
	<path class="st8" d="M200.8,115.4c0.6,0.5,0.5,0.4,0.8,0.6c1.1,0.9,2,2.2,6.3,6.9c1.6,1.8,2.2,2.5,3.3,3.3c2.2,1.8,3.2,1.6,3.8,2.9
		c1.1,2.1,0.3,4.6,0.3,7.6c-0.2,4.5-5.8,10.7-7.5,8.3c-2.3-3.5-1.1-7-4.9-8.2c-3.8-1.4-5.3,0.4-8.5-1.1c-0.1-0.1-1.2-0.6-2.1-1.5
		c-2.9-3-1.7-8.2,0.9-18.2c0.6-2.3,1.2-4.3,2.3-4.5C196.3,111.3,196.8,112.2,200.8,115.4z"/>
	<path class="st3" d="M229,127.3c3.9,7.6,30.6,12.4,26.9,26.1c-3.6,13.7-5.5,19.7,1.8,28.7c8.7,10.7,6.1,28.9-4.9,35.5
		c-1.6,0.9-2.8,1.1-3.8,0.9c-3.4-0.8-5.5-4-5.8-4.5c-4.5-8.1,7.4-18.4,3-26.6c-1.4-2.6-2.5-1.5-5.2-4.6c-8.2-9.5,0.1-22.5-7.2-29.3
		c-3-2.8-7.1-3.2-8.1-3.3c-7.1-0.8-11.7,4-14.1,2.1c-1.4-1.2-2.1-3.3-0.5-7.8c3.3-9.4-7.8-13.6-4.6-13.5c2.1,0.1,4.7-7.4-2.7-5.7
		c0,0-3.4-5.4-7.4-7.9c-2.8-1.7-7.4-8.1,3-9.5C213.6,105.9,217.3,104,229,127.3z"/>
	<path class="st8" d="M219.8,186.9l-11-0.1c0,0-10.4,15.7-16.3,22.9c-8.4,10.2-36.8,2.1-39.6,0.9c-4.6-2.2-7.6-1.1-7.6-1.1
		c-3.3,0.6-8.7,5-9.4,5.7c-0.7,0.6-4,4.8,2.2,1.6s15.1,3.7,38.4,6.2s29-7.1,45.1-26.5L219.8,186.9z"/>
	<path class="st4" d="M234.4,178c-2,7.7-12.9,18.4-12.9,18.4c0-6.9-12.7-9.8-12.7-9.8s9.9-23.6,17.4-30.4
		C230.5,152.4,236.4,170.4,234.4,178z"/>
</g>
</svg>
