<?xml version="1.0" encoding="utf-8"?>
<!-- Generator: Adobe Illustrator 22.1.0, SVG Export Plug-In . SVG Version: 6.00 Build 0)  -->
<svg version="1.1" id="Layer_1" xmlns="http://www.w3.org/2000/svg" xmlns:xlink="http://www.w3.org/1999/xlink" x="0px" y="0px"
	 viewBox="0 0 157 45" style="enable-background:new 0 0 157 45;" xml:space="preserve">
<style type="text/css">
	.st0{fill:#FFFFFF;}
</style>
<g>
	<path class="st0" d="M130.5,33.3c0.4-1.8,0.7-3.4,0.7-5c0-6.3-4.2-11.3-11.4-11.3c-7.8,0-14.1,5.8-15.3,13.5
		c-1.3,8.1,3.7,13.5,11.4,13.5c6.1,0,11.2-3.4,13.8-8.6h-9.3c-1.2,1.2-2.7,1.5-4,1.5c-2.7-0.1-3.9-1.6-4-3.6H130.5z M119.3,23.8
		c2.4,0,3.9,1.5,3.9,3.7h-9.5C114.5,25.4,116.7,23.8,119.3,23.8z"/>
	<path class="st0" d="M150.2,17.1c-3.2,0-5.8,2.6-5.8,5.8c0,3.2,2.6,5.9,5.8,5.9c3.2,0,5.9-2.6,5.8-5.9
		C156,19.8,153.4,17.1,150.2,17.1z"/>
	<path class="st0" d="M95.2,17c-2.9,0-6.5,1.8-8.2,4.1l1-3.4h-8.3l-4.5,25.7H84l2.6-14.5c0.4-2.4,2.3-4.1,4.6-4.1
		c2.2,0,3.2,1.8,2.8,4.1l-2.6,14.5h8.9l2.8-15.8C104.2,21.1,101.1,17,95.2,17z"/>
	<polygon class="st0" points="3,17.7 26.5,17.7 25,25.9 17.9,25.9 14.8,43.4 5.9,43.4 9,25.9 1.5,25.9 	"/>
	<path class="st0" d="M28.6,17.7h8.9L35,32c-0.4,2.5,0.7,3.9,2.9,3.9c2.2,0,4-1.5,4.4-3.9l2.5-14.3h8.9l-2.4,13.7
		C49.8,40,44.2,44,36.7,44c-7.6,0-12-4.2-10.5-12.6L28.6,17.7z"/>
	<polygon class="st0" points="51.5,43.4 60.4,43.4 64.9,17.7 56,17.7 	"/>
	<path class="st0" d="M70.9,17.1c-3.2,0-5.8,2.6-5.8,5.8c0,3.2,2.6,5.9,5.8,5.9c3.2,0,5.9-2.6,5.8-5.9
		C76.8,19.8,74.1,17.1,70.9,17.1z"/>
	<polygon class="st0" points="130.7,43.4 139.7,43.4 144.2,17.7 135.3,17.7 	"/>
</g>
</svg>
