<?xml version="1.0" encoding="utf-8"?>
<!-- Generator: Adobe Illustrator 22.1.0, SVG Export Plug-In . SVG Version: 6.00 Build 0)  -->
<svg version="1.1" id="_x2014_ÎÓÈ_x5F_1" xmlns="http://www.w3.org/2000/svg" xmlns:xlink="http://www.w3.org/1999/xlink"
	 x="0px" y="0px" viewBox="0 0 574 454" style="enable-background:new 0 0 574 454;" xml:space="preserve">
<style type="text/css">
	.st0{opacity:0.3;fill:url(#SVGID_1_);enable-background:new    ;}
	.st1{fill:#FFFFFF;}
	.st2{fill:#F0EDF3;}
	.st3{fill:#CDCCCE;}
	.st4{fill:#E7E6E8;}
	.st5{fill:#D25D60;}
	.st6{fill:#E5A866;}
	.st7{fill:#9FC768;}
	.st8{clip-path:url(#SVGID_3_);}
	.st9{fill:url(#SVGID_4_);}
	.st10{fill:#F1D2C4;}
	.st11{fill:#F6511D;}
	.st12{fill:#FFBA0A;}
	.st13{fill:#FF4949;}
	.st14{fill:#161303;}
	.st15{fill:#FFC950;}
	.st16{fill:#2708A0;}
	.st17{fill:#00A6ED;}
</style>
<linearGradient id="SVGID_1_" gradientUnits="userSpaceOnUse" x1="306.9882" y1="60.607" x2="306.9882" y2="-324.3138" gradientTransform="matrix(1 0 0 1 -30.6739 354)">
	<stop  offset="0" style="stop-color:#FFFFFF;stop-opacity:0"/>
	<stop  offset="2.168840e-02" style="stop-color:#F6FCFE;stop-opacity:2.168840e-02"/>
	<stop  offset="0.1827" style="stop-color:#B6E5FA;stop-opacity:0.1827"/>
	<stop  offset="0.3416" style="stop-color:#7ED2F6;stop-opacity:0.3416"/>
	<stop  offset="0.4944" style="stop-color:#51C2F3;stop-opacity:0.4944"/>
	<stop  offset="0.64" style="stop-color:#2EB6F0;stop-opacity:0.64"/>
	<stop  offset="0.7764" style="stop-color:#15ADEE;stop-opacity:0.7764"/>
	<stop  offset="0.9001" style="stop-color:#05A8ED;stop-opacity:0.9001"/>
	<stop  offset="1" style="stop-color:#00A6ED"/>
</linearGradient>
<path class="st0" d="M25.3,321.4c-44.2-98,64.5-290.4,134-291.7c80.9-1.6,31.6,136.7,193.9,139.9c99.3,2,192.7,115.6,183.8,160.6
	C520,416.2,92.4,470.1,25.3,321.4z"/>
<g>
	<g>
		<rect x="303.2" y="244.9" class="st1" width="61.1" height="28.5"/>
	</g>
	<rect x="303.2" y="244.9" class="st2" width="61.1" height="28.5"/>
	<g>
		<polygon class="st3" points="303.2,253.8 364.3,253.8 364.3,247 360.9,244 306.6,244 303.2,247 		"/>
	</g>
	<g>
		<rect x="294.6" y="269.4" class="st4" width="78.3" height="5.7"/>
	</g>
	<g>
		<path class="st4" d="M215,232.2v9.9c0,3.3,2.7,5.9,5.9,5.9h225.7c3.3,0,5.9-2.7,5.9-5.9v-9.9H215z"/>
	</g>
	<g>
		<path class="st2" d="M446.6,100.5H220.9c-3.3,0-5.9,2.7-5.9,5.9v126h237.5v-126C452.5,103.1,449.8,100.5,446.6,100.5z"/>
	</g>
	<g>
		<polygon class="st2" points="223.9,153.9 223.9,109.2 443.6,109.2 443.6,136.7 		"/>
	</g>
	<g>
		<rect x="223.9" y="109.2" class="st2" width="219.8" height="5.6"/>
	</g>
	<g>
		<path class="st5" d="M229.3,112c0,0.8-0.7,1.5-1.5,1.5s-1.5-0.7-1.5-1.5s0.7-1.5,1.5-1.5S229.3,111.2,229.3,112z"/>
	</g>
	<g>
		<path class="st6" d="M234.6,112c0,0.8-0.7,1.5-1.5,1.5s-1.5-0.7-1.5-1.5s0.7-1.5,1.5-1.5S234.6,111.2,234.6,112z"/>
	</g>
	<g>
		<path class="st7" d="M240,112c0,0.8-0.7,1.5-1.5,1.5s-1.5-0.7-1.5-1.5s0.7-1.5,1.5-1.5C239.4,110.5,240,111.2,240,112z"/>
	</g>
	<rect x="224.3" y="120.5" class="st1" width="219.1" height="103.6"/>
	<g>
		<g>
			<defs>
				<rect id="SVGID_2_" x="224.3" y="120.5" width="219.1" height="103.6"/>
			</defs>
			<clipPath id="SVGID_3_">
				<use xlink:href="#SVGID_2_"  style="overflow:visible;"/>
			</clipPath>
			<g class="st8">
				
					<linearGradient id="SVGID_4_" gradientUnits="userSpaceOnUse" x1="838.5512" y1="-102.1305" x2="838.5512" y2="-232.6944" gradientTransform="matrix(-0.9988 4.948876e-02 4.948876e-02 0.9988 1142.5416 332.9003)">
					<stop  offset="0" style="stop-color:#FFFFFF;stop-opacity:0"/>
					<stop  offset="2.168840e-02" style="stop-color:#F6FCFE;stop-opacity:2.168840e-02"/>
					<stop  offset="1" style="stop-color:#7DB52B"/>
				</linearGradient>
				<path class="st9" d="M147.5,236.2c-5.9-21.8,29.6-71.8,59.5-68.7c0.3,0,0.6,0.1,0.9,0.1c42.7,5.6,52.9,64.2,78.8,63.7
					c30.9-0.5,33.6-48.8,55-50.3c50.6-3.5,33.2-43.5,58.5-44.3c20.4-0.6,55.4,53.9,46.1,84.1C425.7,287.7,161.2,286.7,147.5,236.2z"
					/>
				<g>
					<g>
						<polygon class="st1" points="313.4,453.8 313.7,457.8 309,463 304.3,460.3 304.4,458.2 303.8,453.8 						"/>
						<path class="st1" d="M360.4,455.3l0.5,4l-5.1,4.2c0,0-3.6-2-3.9-2.2c-0.3-0.1-2.2-6.5-2.2-6.5L360.4,455.3z"/>
						<path class="st10" d="M300.5,250.8l-9.3,17.6c0,0-9.4,5.9-6.7,12.5c2.7,6.5,9.1,7.5,10.9,6.4c1.8-1,11.7-36,11.7-36
							L300.5,250.8z"/>
						<path class="st11" d="M373.5,268.4c-5.5,49.2-11.6,62.5-17.5,98.3c-3.1,19.3,0.3,46,4.9,88.4c0.4,3.6-13.5,3.4-14.5,0
							c-9.3-32-21.1-73.9-23.3-90c-2.8-20.4-0.7-60.3-0.7-60.3l12.5-44.5L373.5,268.4z"/>
						<path class="st11" d="M318.7,252.6c-20.5,45.1-23.7,80.3-25.9,99.7c-3.2,27.8,4.1,51.7,8.9,101.2c0.3,3.1,12.3,3.1,12.4,0
							c1.1-45.1,1.2-93.1,8.3-110.9c6-15.1,19-36.4,19-36.4l14.7-40.7L318.7,252.6z"/>
						<polygon class="st12" points="318.6,189.2 301.7,242.8 292.2,261.2 306.8,262.4 337.1,213.5 349,176.5 						"/>
						<path class="st1" d="M344.4,279.7c-22.1,0-26.2-7.8-26.2-7.8l0.4-58.5c0,0,5.3-28.4,5.1-28.6c-0.2-0.2,7.7-8,7.5-4.6
							s-0.4,6.9,5.5,7.5s14.5-4.9,14.5-4.9l-2.4,9.2L344.4,279.7z"/>
						<polygon class="st13" points="292.2,261.2 296.6,252.6 311.4,254.9 306.8,262.4 						"/>
						<path class="st12" d="M331.1,183.4c-2.7,4.7-6.2,30.7-6.3,39.3c-0.1,8.6-1.1,30.1-3.3,44.8c-1.1,7.9-17.6,48.9-17.6,48.9
							s-10.5-4.9-10.5-12.1c0-8.8,20.8-34.6,18.7-85c-0.6-13.3,5.6-32.4,8.5-37.2s5.8-7.2,5.8-7.2l4.6,0.9L331.1,183.4z"/>
						<path class="st12" d="M343,190.1c0,0,0.5,123.2-3.7,137.4c0,0,41.1-7,44.4-17.8c11.3-37.5,0.1-107.2-14.2-119.1
							c-13-10.8-16.1-12.7-16.1-12.7l-3.8,11.5L343,190.1z"/>
						<path class="st13" d="M335.6,177.3c-4.6,6.5-5.4,8.5-5.4,8.5s-2.7-1.5-5.2-1.3c0,0,5.4-9.8,9.6-11.4
							C339,171.5,335.6,177.3,335.6,177.3z"/>
						<path class="st10" d="M351.7,175.9c-14-5.1,9.3-22.3-6.6-28.3c-16-6-22.1,18-20.3,22.7c1.8,4.6,8.1,1,8.7,5.4
							c0.1,0.6-0.2,5.4-0.1,6c0.3,3.7,1.2,4.9,5,5.2l0,0c3,0.3,6-0.1,8.9-1.2l4.1-1.6L351.7,175.9z"/>
						<path class="st13" d="M355.9,178.3c-1.5,5.6-2,7.8-7.5,13.7c0,0-4.6-2-5.6-1.9c0,0,3.2-3.3,6.5-8.6c2.1-3.3,2.3-5.6,2.3-5.6
							L355.9,178.3z"/>
						<path class="st13" d="M374.4,279.1l1.1,5.2c0,0-6.6,4.2-25.7,8v-5.7C349.7,286.7,367.6,283.1,374.4,279.1z"/>
						<polygon class="st13" points="304.8,273.5 307.9,279.7 302.5,282.3 300.8,276.6 						"/>
						<path class="st14" d="M330.2,151.9c2.3-1,5-1.3,5.4,0s3.3-0.4,5.2,1.3c1.9,1.8-0.7,9.3,0.6,9.8c1.5,0.5,3.6-0.6,3.7,1.9
							s-4,3.6-4,3.6s0.6,5.5,4.7,4.1c4-1.3,7-3.5,8.9-8c2-4.5,2.7-12.6-4.4-17.2c-7.2-4.6-12.7-3.1-16.5-2.1
							C330.4,146.4,330.2,151.9,330.2,151.9z"/>
						<path class="st10" d="M284.2,280c0.5,5.1,0.5,6.1,2,5.8c1.5-0.3,1.2-9.8,1.2-9.8L284.2,280z"/>
						<path class="st14" d="M305.2,467.4c5.1-0.9,9.5-1.6,9-5.7c-0.1-1.2-0.5-4-0.5-4c-2.1,1.6-9,2-9.3,0.5c0,0-25,8.1-25.7,10.6
							c0,0.1,0,0.9,0,1.1C279.3,472.3,300.2,468.4,305.2,467.4z"/>
						<path class="st14" d="M350.9,473c1.9-0.6,11-5,10.5-9.1c-0.1-1.2-0.6-5.1-0.6-5.1c-1.3,2.9-8.6,2.8-8.9,2.6
							c0,0-12.5,7.6-13.2,10.1c0,0.1,0,0.9,0,1.1C339.3,475.1,346.1,474.8,350.9,473z"/>
					</g>
					<g>
						<path class="st15" d="M340.5,269.7c0,0,5.6-45.3,7.6-61.3c1-7.7,24-14.2,25.4,5.9c1,14.1-12.4,46.5-16.2,55.2
							c-0.7,1.8-12.5,12.2-16.1,16.1l-6.7-6.7L340.5,269.7z"/>
						<path class="st10" d="M305.9,317.5l6.4-8.6c0,0-2.6,0.1-4.1-0.3s-1.9-2.2,0.1-1.9c2.1,0.3,6.8-1.5,6.8-1.5l19.6-26.3l6.7,6.7
							c-8.5,8.2-21.3,19.2-22.9,22C309.9,322.7,305.9,317.5,305.9,317.5z"/>
						<polygon class="st13" points="339.4,271.4 347.5,279.5 340.2,286.7 333.5,279.9 						"/>
					</g>
				</g>
			</g>
		</g>
	</g>
</g>
<g>
	<path class="st2" d="M368.2,409.5V280h79.4v129.4c0,9.2-7.5,16.7-16.7,16.7h-46.1C375.6,426.1,368.2,418.7,368.2,409.5z M370.1,282
		v127.5c0,8.1,6.6,14.7,14.7,14.7h46.1c8.1,0,14.7-6.6,14.7-14.7V282H370.1z"/>
	<path class="st2" d="M110.3,409.5V280h79.4v129.4c0,9.2-7.5,16.7-16.7,16.7h-46.1C117.7,426.1,110.2,418.7,110.3,409.5z M112.2,282
		v127.5c0,8.1,6.6,14.7,14.7,14.7H173c8.1,0,14.7-6.6,14.7-14.7V282H112.2z"/>
	<rect x="99.3" y="275.2" class="st4" width="65.8" height="11.5"/>
	<rect x="165.1" y="275.2" class="st2" width="294.4" height="11.5"/>
</g>
<g>
	<g>
		<g>
			<path class="st16" d="M297.7,256.4l-15.5-0.3l-12-11.1l-8.8,5.3c0,0,15,21.8,18.4,21.8c3.5,0,20.5-9.6,20.7-12.2L297.7,256.4z"/>
			<polygon class="st1" points="244.1,397.3 240.1,399.3 239,403.6 244,410.9 247.9,402.9 			"/>
			<path class="st10" d="M311.7,255.2c-0.3,1.2,0.3,2.6,0.6,3.2c0.6,1.2,0.8,1.4,1.4,1.1c1.1-0.6,1.3-4.3-0.2-6.7
				C313.5,252.8,312.1,253.8,311.7,255.2z"/>
			<polygon class="st1" points="300.4,408.7 291.3,410.7 291.6,415.2 298.6,418.9 			"/>
			<path class="st17" d="M234,279.7L202.2,309c0,0-2.8,8.7-1.5,19.1c0.7,5.3,37.2-0.9,39.6,6.4c2.1,6.5-0.2,64.8-0.2,64.8
				c1.6-0.5,3-0.2,7.2,4.9c0,0,30.5-58.1,25.5-72.6c-3.1-8.9-17.4-0.7-24-21.1L234,279.7z"/>
			<path class="st10" d="M300.1,256.7c1.5-1.4,2.2-3.2,5.6-4.7c2.3-1,4.2-2.4,6-1c3.7,2.7,1.6,3,0.4,4.9l-1.1-0.1
				c0,0-3.5,1.6-0.6,1.1c1.3-0.3,1.7-0.2,1.8,0.8c0.2,1.4-6,2.3-11.7,3.8C300.5,261.5,298.7,258,300.1,256.7z"/>
			<path class="st1" d="M296.1,258.8l4.2-2.4c2.3-0.5,4.7,4.1,2.4,4.8c-2,0.6-3.6,0.9-4.5,1.2L296.1,258.8z"/>
			<path class="st14" d="M235.3,408.8c0,7,21.5,16.5,23.5,15.2c1.8-1.1-6.9-6.4-10.8-11.3c-5.2-6.5-7.3-10.6-9.3-9.6
				C237.6,403.6,235.3,408,235.3,408.8z"/>
			<path class="st17" d="M221.3,292.5c-1.5,16.6,14.3,37.2,14.3,37.2c18.4,0.5,49.3-2.3,53.9,13c4.7,15.6,1.8,68.6,1.8,68.6
				c3,0,5.4,0,9.2,1.1c0,0,15.7-51.3,18.1-64.7c5.8-32.1-18.2-48.9-54.8-55.9C263.8,291.8,222.7,276,221.3,292.5z"/>
			<path class="st10" d="M263.7,189.4c-5.4,1.4-7.6,7.4-9.2,14.7c-0.7,3-2.6,5.4-5.4,9.8c-2.3,3.7,12.8,5.8,12.8,5.8s-1.2-4,6-3.4
				c6.8,0.5,10.8-12.4,11.1-20.1C279.2,191.3,271.3,187.3,263.7,189.4z"/>
			<path class="st1" d="M253.9,214.9c-2.2-1.6-8.2-0.9-8.2-0.9c0.3,1,1.2,1.9,4,3c4.8,2,13.6,2.8,13.6,2.8l-3.6-2.9
				C259.7,216.9,256,216.4,253.9,214.9z"/>
			<path class="st12" d="M262.1,185.1c-5.2,1.4-7.4,7.4-7.9,12.5c-0.5,5-3.1,7.6-2.9,10c0.3,2.4,4.6,4.5,7.5,5.2
				c1.8,0.4-0.7-0.2,6.1-3.7c0.7-0.4-2.5-2.2,2-5.5c3.7-2.7,5.6,1.6,5.6,1.6c6.9-4.4,9.9-10.4,7.7-14
				C277.4,186.6,267.3,183.8,262.1,185.1z"/>
			<path class="st10" d="M309.9,256.9c0,0,3.2-0.9,3.6,0c0.4,1-1.6,1.8-4.1,2.4L309.9,256.9z"/>
			<path class="st14" d="M320,420.3c-1.8-0.1-11.4-1.2-16.5-2.4c-5.1-1.2-12-2.8-12-2.8c-1.4,3-1.7,8.3-0.8,8.3
				c1,0.1,8.4,0,29.4-0.1C321.6,423.3,321.8,420.5,320,420.3z"/>
			<path class="st10" d="M326.1,270.5c0,0,2-4.2,2.9-5.1c0.9-0.8,6.8-2.9,9.6,1.3c2.1,3.1,0.4,4.8-0.6,4c-1.5-1.1-1.5-2.1-6.3,1.8
				L326.1,270.5z"/>
			<path class="st16" d="M202.2,308.8c7.2,0.1,16.8,1.3,16.8,1.3l7.7-20.4l-1.9,21.1c0,0,15.2,1.2,25.5,2.7
				c13.1,1.8,19.9,4.5,19.9,4.5c-3.2-25.7,2.4-58.8,2.4-58.8s20.7,12.8,31.6,12.8c7.5,0,27.5,0,27.5,0c1.1-4.9-1.1-7.5-7.6-7.9
				c-9.2-0.6-21.4-3.8-26.1-8.9c-8.1-8.9-13.6-27.1-34.8-35.4c-0.6-0.2-2-1.6-2-1.6s-24.4-11.5-32.2,2.9
				c-7.7,14.3-6.1,18.8-13.4,41.3C208.4,284.7,202.1,309,202.2,308.8z"/>
		</g>
	</g>
	<g>
		<path class="st2" d="M171.6,423.8c-0.8-1.5-0.6-3.2,0.3-4.5l61.7-85.7l27.4,2.1L199.5,420c-2.9,3.9-7.4,6.2-12.2,6.2h-12
			C173.7,426.2,172.2,425.3,171.6,423.8z M234.4,335.7l-61,84.8c-0.5,0.7-0.6,1.6-0.2,2.4c0.5,0.8,1.2,1.3,2.1,1.3h12
			c4.2,0,8.2-2,10.6-5.4l59.3-81.4L234.4,335.7z"/>
		<path class="st2" d="M238.7,420l-61.4-84.2l27.4-2.1l61.7,85.7c0.9,1.3,1,3.1,0.3,4.5s-2.2,2.3-3.8,2.3h-12
			C246.1,426.2,241.5,423.8,238.7,420z M180.9,337.4l59.3,81.4c2.5,3.4,6.4,5.4,10.6,5.4h12c0.9,0,1.7-0.5,2.1-1.3s0.3-1.7-0.2-2.4
			l-61-84.8L180.9,337.4z"/>
		<rect x="174.4" y="330.8" class="st4" width="28.6" height="11.5"/>
		<rect x="203" y="330.8" class="st2" width="62" height="11.5"/>
	</g>
</g>
</svg>
