<?xml version="1.0" encoding="utf-8"?>
<!-- Generator: Adobe Illustrator 22.1.0, SVG Export Plug-In . SVG Version: 6.00 Build 0)  -->
<svg version="1.1" id="_x2014_ÎÓÈ_x5F_1" xmlns="http://www.w3.org/2000/svg" xmlns:xlink="http://www.w3.org/1999/xlink"
	 x="0px" y="0px" viewBox="0 0 574 423" style="enable-background:new 0 0 574 423;" xml:space="preserve">
<style type="text/css">
	.st0{opacity:0.3;fill:url(#SVGID_1_);enable-background:new    ;}
	.st1{fill:#FFFFFF;}
	.st2{fill:#F0EDF3;}
	.st3{fill:#CDCCCE;}
	.st4{fill:#E7E6E8;}
	.st5{fill:#D25D60;}
	.st6{fill:#E5A866;}
	.st7{fill:#9FC768;}
	.st8{clip-path:url(#SVGID_3_);}
	.st9{fill:url(#SVGID_4_);}
	.st10{fill:#F1D2C4;}
	.st11{fill:#F6511D;}
	.st12{fill:#FFBA0A;}
	.st13{fill:#FF4949;}
	.st14{fill:#161303;}
	.st15{fill:#FFC950;}
	.st16{fill:#2708A0;}
	.st17{fill:#00A6ED;}
</style>
<linearGradient id="SVGID_1_" gradientUnits="userSpaceOnUse" x1="317.6739" y1="45.6139" x2="317.6739" y2="-339.3069" gradientTransform="matrix(1 0 0 1 -30.6739 354)">
	<stop  offset="0" style="stop-color:#FFFFFF;stop-opacity:0"/>
	<stop  offset="2.168840e-02" style="stop-color:#F6FCFE;stop-opacity:2.168840e-02"/>
	<stop  offset="0.1827" style="stop-color:#B6E5FA;stop-opacity:0.1827"/>
	<stop  offset="0.3416" style="stop-color:#7ED2F6;stop-opacity:0.3416"/>
	<stop  offset="0.4944" style="stop-color:#51C2F3;stop-opacity:0.4944"/>
	<stop  offset="0.64" style="stop-color:#2EB6F0;stop-opacity:0.64"/>
	<stop  offset="0.7764" style="stop-color:#15ADEE;stop-opacity:0.7764"/>
	<stop  offset="0.9001" style="stop-color:#05A8ED;stop-opacity:0.9001"/>
	<stop  offset="1" style="stop-color:#00A6ED"/>
</linearGradient>
<path class="st0" d="M36,306.4C-8.2,208.4,100.5,16,170,14.7c80.9-1.6,31.6,136.7,193.9,139.9c99.3,2,192.7,115.6,183.8,160.6
	C530.7,401.2,103.1,455.1,36,306.4z"/>
<g>
	<g>
		<rect x="313.9" y="229.9" class="st1" width="61.1" height="28.5"/>
	</g>
	<rect x="313.9" y="229.9" class="st2" width="61.1" height="28.5"/>
	<g>
		<polygon class="st3" points="313.9,238.8 375,238.8 375,232 371.6,229 317.3,229 313.9,232 		"/>
	</g>
	<g>
		<rect x="305.3" y="254.4" class="st4" width="78.3" height="5.7"/>
	</g>
	<g>
		<path class="st4" d="M225.7,217.2v9.9c0,3.3,2.7,5.9,5.9,5.9h225.7c3.3,0,5.9-2.7,5.9-5.9v-9.9H225.7z"/>
	</g>
	<g>
		<path class="st2" d="M457.3,85.5H231.6c-3.3,0-5.9,2.7-5.9,5.9v126h237.5v-126C463.2,88.1,460.5,85.5,457.3,85.5z"/>
	</g>
	<g>
		<polygon class="st2" points="234.6,138.9 234.6,94.2 454.3,94.2 454.3,121.7 		"/>
	</g>
	<g>
		<rect x="234.6" y="94.2" class="st2" width="219.8" height="5.6"/>
	</g>
	<g>
		<path class="st5" d="M240,97c0,0.8-0.7,1.5-1.5,1.5S237,97.8,237,97s0.7-1.5,1.5-1.5S240,96.2,240,97z"/>
	</g>
	<g>
		<path class="st6" d="M245.3,97c0,0.8-0.7,1.5-1.5,1.5s-1.5-0.7-1.5-1.5s0.7-1.5,1.5-1.5S245.3,96.2,245.3,97z"/>
	</g>
	<g>
		<path class="st7" d="M250.7,97c0,0.8-0.7,1.5-1.5,1.5s-1.5-0.7-1.5-1.5s0.7-1.5,1.5-1.5C250.1,95.5,250.7,96.2,250.7,97z"/>
	</g>
	<rect x="235" y="105.5" class="st1" width="219.1" height="103.6"/>
	<g>
		<g>
			<defs>
				<rect id="SVGID_2_" x="235" y="105.5" width="219.1" height="103.6"/>
			</defs>
			<clipPath id="SVGID_3_">
				<use xlink:href="#SVGID_2_"  style="overflow:visible;"/>
			</clipPath>
			<g class="st8">
				
					<linearGradient id="SVGID_4_" gradientUnits="userSpaceOnUse" x1="828.671" y1="-116.6148" x2="828.671" y2="-247.1788" gradientTransform="matrix(-0.9988 4.948876e-02 4.948876e-02 0.9988 1144.0758 332.8631)">
					<stop  offset="0" style="stop-color:#FFFFFF;stop-opacity:0"/>
					<stop  offset="2.168840e-02" style="stop-color:#F6FCFE;stop-opacity:2.168840e-02"/>
					<stop  offset="1" style="stop-color:#7DB52B"/>
				</linearGradient>
				<path class="st9" d="M158.2,221.2c-5.9-21.8,29.6-71.8,59.5-68.7c0.3,0,0.6,0.1,0.9,0.1c42.7,5.6,52.9,64.2,78.8,63.7
					c30.9-0.5,33.6-48.8,55-50.3c50.6-3.5,33.2-43.5,58.5-44.3c20.4-0.6,55.4,53.9,46.1,84.1C436.4,272.7,171.9,271.7,158.2,221.2z"
					/>
				<g>
					<g>
						<polygon class="st1" points="324.1,438.8 324.4,442.8 319.7,448 315,445.3 315.1,443.2 314.5,438.8 						"/>
						<path class="st1" d="M371.1,440.3l0.5,4l-5.1,4.2c0,0-3.6-2-3.9-2.2c-0.3-0.1-2.2-6.5-2.2-6.5L371.1,440.3z"/>
						<path class="st10" d="M311.2,235.8l-9.3,17.6c0,0-9.4,5.9-6.7,12.5c2.7,6.5,9.1,7.5,10.9,6.4c1.8-1,11.7-36,11.7-36
							L311.2,235.8z"/>
						<path class="st11" d="M384.2,253.4c-5.5,49.2-11.6,62.5-17.5,98.3c-3.1,19.3,0.3,46,4.9,88.4c0.4,3.6-13.5,3.4-14.5,0
							c-9.3-32-21.1-73.9-23.3-90c-2.8-20.4-0.7-60.3-0.7-60.3l12.5-44.5L384.2,253.4z"/>
						<path class="st11" d="M329.4,237.6c-20.5,45.1-23.7,80.3-25.9,99.7c-3.2,27.8,4.1,51.7,8.9,101.2c0.3,3.1,12.3,3.1,12.4,0
							c1.1-45.1,1.2-93.1,8.3-110.9c6-15.1,19-36.4,19-36.4l14.7-40.7L329.4,237.6z"/>
						<polygon class="st12" points="329.3,174.2 312.4,227.8 302.9,246.2 317.5,247.4 347.8,198.5 359.7,161.5 						"/>
						<path class="st1" d="M355.1,264.7c-22.1,0-26.2-7.8-26.2-7.8l0.4-58.5c0,0,5.3-28.4,5.1-28.6c-0.2-0.2,7.7-8,7.5-4.6
							s-0.4,6.9,5.5,7.5s14.5-4.9,14.5-4.9l-2.4,9.2L355.1,264.7z"/>
						<polygon class="st13" points="302.9,246.2 307.3,237.6 322.1,239.9 317.5,247.4 						"/>
						<path class="st12" d="M341.8,168.4c-2.7,4.7-6.2,30.7-6.3,39.3c-0.1,8.6-1.1,30.1-3.3,44.8c-1.1,7.9-17.6,48.9-17.6,48.9
							s-10.5-4.9-10.5-12.1c0-8.8,20.8-34.6,18.7-85c-0.6-13.3,5.6-32.4,8.5-37.2s5.8-7.2,5.8-7.2l4.6,0.9L341.8,168.4z"/>
						<path class="st12" d="M353.7,175.1c0,0,0.5,123.2-3.7,137.4c0,0,41.1-7,44.4-17.8c11.3-37.5,0.1-107.2-14.2-119.1
							c-13-10.8-16.1-12.7-16.1-12.7l-3.8,11.5L353.7,175.1z"/>
						<path class="st13" d="M346.3,162.3c-4.6,6.5-5.4,8.5-5.4,8.5s-2.7-1.5-5.2-1.3c0,0,5.4-9.8,9.6-11.4
							C349.7,156.5,346.3,162.3,346.3,162.3z"/>
						<path class="st10" d="M362.4,160.9c-14-5.1,9.3-22.3-6.6-28.3c-16-6-22.1,18-20.3,22.7c1.8,4.6,8.1,1,8.7,5.4
							c0.1,0.6-0.2,5.4-0.1,6c0.3,3.7,1.2,4.9,5,5.2l0,0c3,0.3,6-0.1,8.9-1.2l4.1-1.6L362.4,160.9z"/>
						<path class="st13" d="M366.6,163.3c-1.5,5.6-2,7.8-7.5,13.7c0,0-4.6-2-5.6-1.9c0,0,3.2-3.3,6.5-8.6c2.1-3.3,2.3-5.6,2.3-5.6
							L366.6,163.3z"/>
						<path class="st13" d="M385.1,264.1l1.1,5.2c0,0-6.6,4.2-25.7,8v-5.7C360.4,271.7,378.3,268.1,385.1,264.1z"/>
						<polygon class="st13" points="315.5,258.5 318.6,264.7 313.2,267.3 311.5,261.6 						"/>
						<path class="st14" d="M340.9,136.9c2.3-1,5-1.3,5.4,0s3.3-0.4,5.2,1.3c1.9,1.8-0.7,9.3,0.6,9.8c1.5,0.5,3.6-0.6,3.7,1.9
							s-4,3.6-4,3.6s0.6,5.5,4.7,4.1c4-1.3,7-3.5,8.9-8c2-4.5,2.7-12.6-4.4-17.2c-7.2-4.6-12.7-3.1-16.5-2.1
							C341.1,131.4,340.9,136.9,340.9,136.9z"/>
						<path class="st10" d="M294.9,265c0.5,5.1,0.5,6.1,2,5.8c1.5-0.3,1.2-9.8,1.2-9.8L294.9,265z"/>
						<path class="st14" d="M315.9,452.4c5.1-0.9,9.5-1.6,9-5.7c-0.1-1.2-0.5-4-0.5-4c-2.1,1.6-9,2-9.3,0.5c0,0-25,8.1-25.7,10.6
							c0,0.1,0,0.9,0,1.1C290,457.3,310.9,453.4,315.9,452.4z"/>
						<path class="st14" d="M361.6,458c1.9-0.6,11-5,10.5-9.1c-0.1-1.2-0.6-5.1-0.6-5.1c-1.3,2.9-8.6,2.8-8.9,2.6
							c0,0-12.5,7.6-13.2,10.1c0,0.1,0,0.9,0,1.1C350,460.1,356.8,459.8,361.6,458z"/>
					</g>
					<g>
						<path class="st15" d="M351.2,254.7c0,0,5.6-45.3,7.6-61.3c1-7.7,24-14.2,25.4,5.9c1,14.1-12.4,46.5-16.2,55.2
							c-0.7,1.8-12.5,12.2-16.1,16.1l-6.7-6.7L351.2,254.7z"/>
						<path class="st10" d="M316.6,302.5l6.4-8.6c0,0-2.6,0.1-4.1-0.3s-1.9-2.2,0.1-1.9c2.1,0.3,6.8-1.5,6.8-1.5l19.6-26.3l6.7,6.7
							c-8.5,8.2-21.3,19.2-22.9,22C320.6,307.7,316.6,302.5,316.6,302.5z"/>
						<polygon class="st13" points="350.1,256.4 358.2,264.5 350.9,271.7 344.2,264.9 						"/>
					</g>
				</g>
			</g>
		</g>
	</g>
</g>
<g>
	<path class="st2" d="M378.9,394.5V265h79.4v129.4c0,9.2-7.5,16.7-16.7,16.7h-46.1C386.3,411.1,378.9,403.7,378.9,394.5z M380.8,267
		v127.5c0,8.1,6.6,14.7,14.7,14.7h46.1c8.1,0,14.7-6.6,14.7-14.7V267H380.8z"/>
	<path class="st2" d="M121,394.5V265h79.4v129.4c0,9.2-7.5,16.7-16.7,16.7h-46.1C128.4,411.1,120.9,403.7,121,394.5z M122.9,267
		v127.5c0,8.1,6.6,14.7,14.7,14.7h46.1c8.1,0,14.7-6.6,14.7-14.7V267H122.9z"/>
	<rect x="110" y="260.2" class="st4" width="65.8" height="11.5"/>
	<rect x="175.8" y="260.2" class="st2" width="294.4" height="11.5"/>
</g>
<g>
	<g>
		<path class="st4" d="M276,408.9h-12c-4.8,0-9.3-2.3-12.2-6.2l-61.5-84.3l27.4-2.1l61.7,85.7c0.9,1.3,1.1,3,0.3,4.5
			C279.1,408,277.6,408.9,276,408.9z M194.1,320.2l59.3,81.4c2.4,3.4,6.4,5.4,10.6,5.4h12c0.9,0,1.6-0.5,2.1-1.3
			c0.4-0.8,0.3-1.7-0.2-2.4l-61-84.8L194.1,320.2z"/>
		<path class="st4" d="M200.4,408.9h-12c-1.6,0-3.1-0.9-3.8-2.3s-0.6-3.2,0.3-4.5l61.7-85.7l27.4,2.1l-61.5,84.3
			C209.8,406.6,205.2,408.9,200.4,408.9z M247.6,318.5l-61,84.8c-0.5,0.7-0.6,1.6-0.2,2.4c0.4,0.8,1.2,1.3,2.1,1.3h12
			c4.2,0,8.1-2,10.6-5.4l59.3-81.4L247.6,318.5z"/>
		<rect x="248.3" y="313.6" class="st4" width="28.6" height="11.5"/>
		<rect x="186.3" y="313.6" class="st4" width="62" height="11.5"/>
	</g>
	<g>
		<g>
			<path class="st10" d="M258.3,241.3c0,0,48.1,19.1,83.3,20.4c0,0,3.9-0.6,7.8,1.9c1.8,1.2,6.7,1.5,4.1-1.1
				c-2.6-2.6-0.2-2.7,2.6-2.5c2.5,0.2,5.6,0.5,5.6,0.5s0.5-3.4-8-4c-8.6-0.6-9.2,0.3-12.2-0.6c-2.4-0.7-36.9-11.6-36.9-11.6
				l-41.3-16.9C263.3,227.6,255.9,235.3,258.3,241.3z"/>
			<path class="st1" d="M269.1,229.8c-3.7-1.9-7.6-4.1-11.6-6.7c-4.6-2.9-8.6-5.9-12.2-8.8c1.9,2.1,4.1,4.9,6,8.6
				c3.6,7,4.3,13.6,4.4,17.4l5.9,2.1C259.6,241.1,264.6,228,269.1,229.8z"/>
		</g>
		<path class="st10" d="M315.5,366.5l1.1,5.3c0,0,0.5,3.3,0.1,4.6c-0.4,1.3,0.2,1.9,0.2,1.9l9.6,3.8l0.7-4c0,0-3.3-2.4-3.7-3.5
			c-0.3-1.1-0.5-4-0.5-4l-0.5-6.5L315.5,366.5z"/>
		<path class="st12" d="M326,387c-5.2-0.2-10.8-2.2-10.1-6.3c0.3-1.5,0.8-4.5,0.8-4.5c2.6,3.2,10.1,2.7,10.4,2
			c0,0,20.4,3.9,20.8,6.2c0,0.1,0,0.9,0,1C347.2,387.7,330.7,387.1,326,387z"/>
		<path class="st10" d="M319.3,394.4c0,0,4.4,6.4,4.6,7.7c0.2,1.3,1.1,2,1.1,2l10.7,1.3c0,0-3.6-5.2-7.6-11.3c-1-1.4-3.3-6-3.3-6
			L319.3,394.4z"/>
		<path class="st12" d="M335,410.1c-4.9,0.8-9.2,0.6-10.1-3.3c-0.3-1.2-1.1-4.7-1.1-4.7c2.2,2.1,9.1,0.9,8.9-0.6
			c0,0,22.8-0.4,24.2,1.7c0.1,0.1,0.4,0.9,0.4,1C357.6,406.6,339.9,409.3,335,410.1z"/>
		<path class="st16" d="M240.4,276.1c32.6-5.4,82-6.4,89.2,11c4.8,11.5-5.1,84.6-5.1,84.6s-6.3,2-8.7,0.3c-2.1-5.3,3.1-71-7-72.2
			c-19.8-2.2-59.4,10-59.4,10L240.4,276.1z"/>
		<path class="st16" d="M210.4,306.8c10,17.8,62.3,27.7,67.4,34.1c8.4,10.4,41.4,53.6,41.4,53.6c2.1,1.4,8.1-1.1,7.1-3
			c0,0-31.5-64.9-35.6-69.1c-6.9-7.1-29.9-28.6-43.9-35.7c-4.6-2.4-18.2-9.9-18.2-9.9S194.1,277.5,210.4,306.8z"/>
		<path class="st17" d="M225.6,305.5c0,4.2-0.2,5.1-0.8,5.6c-2.5,1.9-10-3.7-12-5.4c-16.1-13.7-12.8-60.7,11.3-91.3
			c4.2-5.3,13.6-17.3,20.6-15.2c7.8,2.4,10.4,21.7,14.6,52.1c0.2,1.3,0.3,5.1,1.6,9.9c2.7,10,3.6,13.5,4.1,16.8
			c2.2,14.8-18.5,36.2-30.1,32.5c-1.9-0.6-6.7-2.9-9.7-14.7C225.4,298.3,225.5,301.6,225.6,305.5z"/>
		<path class="st10" d="M260.3,175.2c1.1,0.2,1.7,2.1,2.3,4.5c2.6,10.1,3.8,15.2,0.9,18.2c-0.9,0.9-1.9,1.4-2.1,1.5
			c-3.2,1.5-4.7-0.2-8.5,1.1c-3.8,1.3-2.6,4.7-4.9,8.2c-1.6,2.4-7.3-3.7-7.5-8.3c0-3-0.8-5.5,0.3-7.6c0.7-1.2,1.6-1,3.8-2.9
			c1-0.9,1.7-1.6,3.3-3.3c4.2-4.7,5.2-6,6.3-6.9c0.3-0.2,0.2-0.1,0.8-0.6C259,176,259.5,175.1,260.3,175.2z"/>
		<path class="st14" d="M256.4,171.7c10.3,1.4,5.8,7.7,3,9.5c-4,2.5-7.4,7.9-7.4,7.9c-7.4-1.7-4.9,5.8-2.7,5.7
			c3.2-0.1-7.9,4.1-4.6,13.5c1.6,4.5,0.9,6.6-0.5,7.8c-2.4,2-7-2.8-14.1-2.1c-1,0.1-5.1,0.6-8.1,3.3c-7.3,6.8,0.9,19.8-7.2,29.3
			c-2.6,3.1-3.8,2-5.2,4.6c-4.4,8.3,7.5,18.6,3,26.6c-0.3,0.5-2.4,3.7-5.8,4.5c-1,0.2-2.2,0-3.8-0.9c-11-6.6-13.6-24.8-4.9-35.5
			c7.3-9.1,5.4-15,1.8-28.7c-3.6-13.7,23.1-18.5,26.9-26.1C238.5,167.8,242.2,169.6,256.4,171.7z"/>
		<path class="st10" d="M234.3,260.2c16.1,19.4,21.9,28.9,45.1,26.5c23.2-2.4,32.1-9.3,38.4-6.2s3-1,2.2-1.6c-0.7-0.7-6.1-5-9.4-5.7
			c0,0-3-1.1-7.6,1.1c-2.8,1.2-31.2,9.4-39.6-0.9c-5.9-7.1-16.3-22.9-16.3-22.9l-11,0.1L234.3,260.2z"/>
		<path class="st1" d="M229.6,220c7.6,6.8,17.4,30.4,17.4,30.4s-12.7,2.9-12.7,9.8c0,0-10.9-10.6-12.9-18.4
			C219.4,234.2,225.3,216.2,229.6,220z"/>
	</g>
</g>
</svg>
