<?xml version="1.0" encoding="utf-8"?>
<!-- Generator: Adobe Illustrator 22.1.0, SVG Export Plug-In . SVG Version: 6.00 Build 0)  -->
<svg version="1.1" id="_x2014_ÎÓÈ_x5F_1" xmlns="http://www.w3.org/2000/svg" xmlns:xlink="http://www.w3.org/1999/xlink"
	 x="0px" y="0px" viewBox="0 0 574 454" style="enable-background:new 0 0 574 454;" xml:space="preserve">
<style type="text/css">
	.st0{opacity:0.3;fill:url(#SVGID_1_);enable-background:new    ;}
	.st1{fill:#FFFFFF;}
	.st2{fill:#F0EDF3;}
	.st3{fill:#CDCCCE;}
	.st4{fill:#E7E6E8;}
	.st5{fill:#D25D60;}
	.st6{fill:#E5A866;}
	.st7{fill:#9FC768;}
	.st8{fill:#FFFFFF;enable-background:new    ;}
	.st9{clip-path:url(#SVGID_3_);}
	.st10{fill:url(#SVGID_4_);}
	.st11{fill:#FFC950;}
	.st12{fill:#F1D2C4;}
	.st13{fill:#FF4949;}
	.st14{fill:#F6511D;}
	.st15{fill:#FFBA0A;}
	.st16{fill:#161303;}
	.st17{fill:#FBD2C4;}
	.st18{fill:#2708A0;}
	.st19{fill:#00A6ED;}
	.st20{fill:#100B00;}
</style>
<linearGradient id="SVGID_1_" gradientUnits="userSpaceOnUse" x1="307.0488" y1="39.3806" x2="307.0488" y2="424.3334" gradientTransform="matrix(1 0 0 -1 -30.6739 454)">
	<stop  offset="0" style="stop-color:#FFFFFF;stop-opacity:0"/>
	<stop  offset="2.168840e-02" style="stop-color:#F6FCFE;stop-opacity:2.168840e-02"/>
	<stop  offset="0.1827" style="stop-color:#B6E5FA;stop-opacity:0.1827"/>
	<stop  offset="0.3416" style="stop-color:#7ED2F6;stop-opacity:0.3416"/>
	<stop  offset="0.4944" style="stop-color:#51C2F3;stop-opacity:0.4944"/>
	<stop  offset="0.64" style="stop-color:#2EB6F0;stop-opacity:0.64"/>
	<stop  offset="0.7764" style="stop-color:#15ADEE;stop-opacity:0.7764"/>
	<stop  offset="0.9001" style="stop-color:#05A8ED;stop-opacity:0.9001"/>
	<stop  offset="1" style="stop-color:#00A6ED"/>
</linearGradient>
<path class="st0" d="M25.3,321.4c-44.2-98,64.5-290.4,134-291.7c80.9-1.6,31.6,136.7,193.9,139.9c99.3,2,192.7,115.6,183.8,160.6
	C520,416.2,92.4,470.1,25.3,321.4z"/>
<g>
	<g>
		<rect x="303.2" y="244.9" class="st1" width="61.1" height="28.5"/>
	</g>
	<rect x="303.2" y="244.9" class="st2" width="61.1" height="28.5"/>
	<g>
		<polygon class="st3" points="303.2,253.8 364.3,253.8 364.3,247 360.9,244 306.6,244 303.2,247 		"/>
	</g>
	<g>
		<rect x="294.6" y="269.4" class="st4" width="78.3" height="5.7"/>
	</g>
	<g>
		<path class="st4" d="M215,232.2v9.9c0,3.3,2.7,5.9,5.9,5.9h225.7c3.3,0,5.9-2.7,5.9-5.9v-9.9H215z"/>
	</g>
	<g>
		<path class="st2" d="M446.6,100.5H220.9c-3.3,0-5.9,2.7-5.9,5.9v126h237.5v-126C452.5,103.1,449.8,100.5,446.6,100.5z"/>
	</g>
	<g>
		<polygon class="st2" points="223.9,153.9 223.9,109.2 443.6,109.2 443.6,136.7 		"/>
	</g>
	<g>
		<rect x="223.9" y="109.2" class="st2" width="219.8" height="5.6"/>
	</g>
	<g>
		<path class="st5" d="M229.3,112c0,0.8-0.7,1.5-1.5,1.5s-1.5-0.7-1.5-1.5s0.7-1.5,1.5-1.5S229.3,111.2,229.3,112z"/>
	</g>
	<g>
		<path class="st6" d="M234.6,112c0,0.8-0.7,1.5-1.5,1.5s-1.5-0.7-1.5-1.5s0.7-1.5,1.5-1.5S234.6,111.2,234.6,112z"/>
	</g>
	<g>
		<path class="st7" d="M240,112c0,0.8-0.7,1.5-1.5,1.5s-1.5-0.7-1.5-1.5s0.7-1.5,1.5-1.5C239.4,110.5,240,111.2,240,112z"/>
	</g>
	<rect x="224.3" y="120.5" class="st8" width="219.1" height="103.6"/>
	<g>
		<defs>
			<rect id="SVGID_2_" x="224.3" y="120.5" width="219.1" height="103.6"/>
		</defs>
		<clipPath id="SVGID_3_">
			<use xlink:href="#SVGID_2_"  style="overflow:visible;"/>
		</clipPath>
		<g class="st9">
			
				<linearGradient id="SVGID_4_" gradientUnits="userSpaceOnUse" x1="473.6044" y1="193.1027" x2="473.6044" y2="323.7159" gradientTransform="matrix(-0.9988 4.948876e-02 -4.948876e-02 -0.9988 782.4744 441.8223)">
				<stop  offset="0" style="stop-color:#FFFFFF;stop-opacity:0"/>
				<stop  offset="2.168840e-02" style="stop-color:#F6FCFE;stop-opacity:2.168840e-02"/>
				<stop  offset="1" style="stop-color:#7DB52B"/>
			</linearGradient>
			<path class="st10" d="M147.5,236.2c-5.9-21.8,29.6-71.8,59.5-68.7c0.3,0,0.6,0.1,0.9,0.1c42.7,5.6,52.9,64.2,78.8,63.7
				c30.9-0.5,33.6-48.8,55-50.3c50.6-3.5,33.2-43.5,58.5-44.3c20.4-0.6,55.4,53.9,46.1,84.1C425.7,287.7,161.2,286.7,147.5,236.2z"
				/>
			<g>
				<g>
					<g>
						<path class="st11" d="M288,238.6c0,0,3.5-31.7,4.8-42.9c0.6-5.4,16.7-10.2,17.9,3.9c0.8,9.8-8.2,32.7-10.8,38.8
							c-0.5,1.2-8.6,8.6-11.1,11.4l-4.8-4.7L288,238.6z"/>
						<path class="st12" d="M264.2,272.3l4.4-6.1c0,0-1.8,0.1-2.9-0.2c-1.1-0.2-1.4-1.5,0.1-1.3c1.4,0.2,4.8-1.1,4.8-1.1L284,245
							l4.8,4.7c-5.9,5.8-14.7,13.6-15.8,15.6C267,276,264.2,272.3,264.2,272.3z"/>
						<polygon class="st13" points="287.2,239.8 293,245.4 287.9,250.5 283.1,245.8 						"/>
					</g>
					<g>
						<polygon class="st1" points="303,382 303.4,384.8 300.3,388.6 296.9,387 296.9,385.5 296.2,382.4 						"/>
						<path class="st1" d="M335.8,381l0.5,2.8L333,387c0,0-2.6-1.2-2.8-1.3c-0.2-0.1-1.8-4.5-1.8-4.5L335.8,381z"/>
						<path class="st14" d="M336.7,249.9c-1.6,34.6-5.3,44.2-7.9,69.4c-1.3,13.6,2.3,32.1,7.3,61.5c0.5,2.5-9.3,3-10.1,0.6
							c-7.9-22-18.1-50.7-20.3-61.8c-2.9-14.1-3.2-42.1-3.2-42.1l6.8-31.6L336.7,249.9z"/>
						<path class="st14" d="M297.7,241.3c-12.3,32.4-13,57.2-13.7,70.8c-1,19.5,5.2,35.9,10.7,70.3c0.4,2.2,8.8,1.6,8.7-0.6
							c-1.2-31.5-3.3-65.1,0.9-77.8c3.5-10.8,11.6-26.3,11.6-26.3l8.5-29.1L297.7,241.3z"/>
						<path class="st1" d="M316.9,259.1c-15.4,1-18.7-4.3-18.7-4.3l-2.3-40.8c0,0,2.4-20.1,2.3-20.2c-0.2-0.1,5-5.9,5-3.5
							c0,2.4,0,4.9,4.2,5c4.2,0.2,9.9-4,9.9-4l-1.3,6.5L316.9,259.1z"/>
						<path class="st15" d="M303.3,192.4c-1.7,3.4-3,21.7-2.7,27.7c0.3,6,0.5,21-0.3,31.4c-0.4,5.6-10.1,35-10.1,35s-7.5-2.9-7.9-8
							c-0.4-6.2,13-25.1,9.2-60.2c-1-9.2,2.5-22.9,4.3-26.4c1.8-3.5,3.7-5.3,3.7-5.3l3.2,0.4L303.3,192.4z"/>
						<path class="st15" d="M311.9,196.5c0,0,5.9,86,3.5,96.2c0,0,28.4-6.8,30.2-14.4c6.2-26.7-4.7-74.9-15.2-82.5
							c-9.5-7-11.8-8.2-11.8-8.2l-2.2,8.2L311.9,196.5z"/>
						<path class="st13" d="M306.2,188c-2.9,4.8-3.4,6.2-3.4,6.2s-1.9-0.9-3.7-0.7c0,0,3.3-7.1,6.2-8.4
							C308.3,183.7,306.2,188,306.2,188z"/>
						<path class="st12" d="M317.3,186.2c-10-2.9,5.5-16-5.9-19.5c-11.4-3.5-14.6,13.6-13.2,16.8c1.4,3.1,5.7,0.4,6.3,3.4
							c0.1,0.4,0.1,3.8,0.2,4.2c0.4,2.6,1.1,3.3,3.7,3.4l0,0c2.1,0.1,4.2-0.3,6.2-1.3l2.8-1.3L317.3,186.2z"/>
						<path class="st13" d="M320.4,187.7c-0.8,4-1,5.5-4.6,9.9c0,0-3.3-1.2-4-1.1c0,0,2.1-2.5,4.2-6.3c1.3-2.4,1.3-4,1.3-4
							L320.4,187.7z"/>
						<path class="st16" d="M301.3,170.5c1.5-0.8,3.4-1.2,3.8-0.2c0.3,0.9,2.3-0.4,3.7,0.7s-0.1,6.5,0.9,6.8c1,0.3,2.5-0.6,2.7,1.1
							c0.2,1.7-2.7,2.7-2.7,2.7s0.7,3.8,3.4,2.7c2.8-1.1,4.8-2.8,5.9-6c1.2-3.2,1.3-9-3.8-11.8c-5.2-2.9-9-1.6-11.6-0.7
							C301.2,166.6,301.3,170.5,301.3,170.5z"/>
						<path class="st16" d="M297.9,391.9c3.5-0.9,6.6-1.5,6-4.4c-0.1-0.9-0.5-2.8-0.5-2.8c-1.4,1.2-6.2,1.8-6.5,0.8
							c0,0-17.1,6.8-17.5,8.5c0,0.1,0,0.7,0.1,0.8C280,396.5,294.4,392.8,297.9,391.9z"/>
						<path class="st16" d="M330,393.8c1.3-0.5,7.5-4,6.9-6.8c-0.1-0.9-0.7-3.5-0.7-3.5c-0.8,2.1-5.9,2.3-6.1,2.2
							c0,0-8.4,5.8-8.7,7.6c0,0.1,0,0.7,0.1,0.8C322,395.8,326.7,395.2,330,393.8z"/>
					</g>
					<g>
						<path class="st11" d="M318.1,251.5c0,0-1.6-31.9-2.1-43.2c-0.3-5.4,14.9-12.7,18.2,1c2.4,9.6-3,33.6-4.6,40
							c-0.3,1.3-7.1,9.9-9.1,13l-5.5-3.8L318.1,251.5z"/>
						<path class="st12" d="M299.9,288.6l3.4-6.7c0,0-1.8,0.4-2.9,0.3c-1.1-0.1-1.6-1.3-0.1-1.3s4.5-1.9,4.5-1.9l10.3-20.5l5.5,3.8
							c-4.9,6.7-12.4,15.8-13.1,17.9C303.3,291.8,299.9,288.6,299.9,288.6z"/>
						<polygon class="st13" points="317.5,252.8 324.1,257.4 319.9,263.3 314.4,259.4 						"/>
					</g>
				</g>
			</g>
			<g>
				<path class="st2" d="M297.1,367.1c-0.6-1-0.4-2.2,0.2-3.1l43.2-60l19.2,1.5l-43,59c-2,2.7-5.2,4.3-8.5,4.3h-8.4
					C298.6,368.8,297.6,368.2,297.1,367.1z M341.1,305.5l-42.7,59.3c-0.3,0.5-0.4,1.1-0.1,1.7c0.3,0.6,0.8,0.9,1.5,0.9h8.4
					c2.9,0,5.7-1.4,7.4-3.8l41.5-57L341.1,305.5z"/>
				<path class="st2" d="M344.1,364.5l-43-58.9l19.2-1.5l43.2,60c0.6,0.9,0.7,2.2,0.2,3.1c-0.5,1-1.5,1.6-2.7,1.6h-8.4
					C349.3,368.8,346.1,367.1,344.1,364.5z M303.6,306.7l41.5,57c1.7,2.4,4.5,3.8,7.4,3.8h8.4c0.6,0,1.2-0.3,1.5-0.9
					c0.3-0.6,0.2-1.2-0.1-1.7l-42.7-59.3L303.6,306.7z"/>
				<rect x="299.1" y="302.1" class="st4" width="20" height="8"/>
				<rect x="319.1" y="302.1" class="st2" width="43.4" height="8"/>
			</g>
			<g>
				<g>
					<path class="st17" d="M363.1,202.2c0,0-19.6,30.4-39.1,45.5c0,0-2.4,1.2-3.7,4.3c-0.6,1.4-3.2,3.6-2.8,1.1
						c0.4-2.5-1-1.6-2.5-0.4c-1.3,1.1-3,2.5-3,2.5s-1.6-1.7,3-5.5c4.6-3.8,5.3-3.6,6.7-5.3c1.1-1.3,16.2-21.6,16.2-21.6l16.6-26.4
						C354.6,196.5,362,197.8,363.1,202.2z"/>
				</g>
				<path class="st17" d="M296.7,324.1l-0.9,1.3c0,0-1.2,2-1.3,2.9c-0.1,0.9-0.7,1.2-0.7,1.2l-7.2-0.2l0.6-2.8c0,0,2.8-0.6,3.3-1.3
					c0.5-0.7,1.4-2.4,1.4-2.4l2.1-4.1L296.7,324.1z"/>
				<path class="st15" d="M285.2,331.7c3.2,1.7,7.3,2.5,8.3-0.1c0.4-1,0.9-3,0.9-3c-2.7,0.9-6.8-2.1-6.8-2.6c0,0-13.6-5-14.7-3.8
					c-0.1,0.1-0.3,0.6-0.3,0.7C272.2,324.5,282.4,330.2,285.2,331.7z"/>
				<path class="st17" d="M317.6,333.2c0,0-0.6,2-0.8,3.8c-0.1,0.9-0.4,3.2-0.4,3.2l-7.4,3.7c0,0,1.4-4.2,2.8-9.1
					c0.3-1.1,0.9-4.6,0.9-4.6L317.6,333.2z"/>
				<path class="st15" d="M307.4,343.6c3.2,1.5,6.8,2.5,8.1,0c0.4-0.7,0.9-3.4,0.9-3.4c-1.4,0-3.7,0-5.8-1.5c0,0-15.5-4.9-16.8-3.8
					c-0.1,0.1-0.4,0.5-0.4,0.6C292.8,337.1,304.2,342.1,307.4,343.6z"/>
				<path class="st18" d="M339.9,231.4c-22,17.2-33.7,37.1-36.3,50c-1.7,8.6-10.8,39.4-10.8,39.4s2.4,2.4,3.8,3.2
					c3.1-5.7,21.7-43.3,26.4-48.6c15.9-17.8,28.4-32,28.4-32L339.9,231.4z"/>
				<path class="st18" d="M371.9,252.1c-3,14-36,31.2-38.2,36.5c-3.5,8.6-16.4,45.4-16.4,45.4l-5.1-1.4c0,0,7.2-50.2,9.1-53.9
					c3.2-6.1,14.2-25.2,22.1-32.8c2.6-2.6,10.2-10.3,10.2-10.3S376.9,229.2,371.9,252.1z"/>
				<path class="st19" d="M357.7,261.8c0,0,11.1,7.7,21.9-17.7c9-21.1,5-33.7-7-53.9c-11.2-18.8-22.7-8.5-25.7-0.6
					c-0.3,0.8-0.2,12.4-2.8,24.7c-1.3,6.2-3,13.2-6.4,18c-4,5.6,17.4,26.8,17.4,26.8l8.6-10.8L357.7,261.8z"/>
				<path class="st17" d="M335.6,175c-0.6,12.4,1,13.4,3.4,14.1c2.4,0.7,3.2-0.7,6-0.2c2.8,0.4,2.3,3,4.3,5.1
					c1.4,1.5,4.6-3.5,4.2-6.6c-0.5-3.1,0.3-5.8-4.1-6.7c-4.4-0.9-3.8-3.6-8.4-6.3C336.5,171.7,335.6,175,335.6,175z"/>
				<path class="st14" d="M337.9,169.3c-6.8,2.5-2.8,6.1-0.6,7c3.1,1.1,6.2,4.3,6.2,4.3c4.8-2.3,4.2,3.2,2.8,3.5
					c-2.2,0.4,6,1.6,5.2,8.5c-0.8,6.9,5.1,7.7,9.8,3.6c4.3-3.7,9.4-7.9,12.7-3c3.3,4.9,8.3,16.1,9.4,22.1c1.7,9.9-0.9,20.9-0.9,20.9
					c2.7-3.2,4.2,4.1,8.4,0.2c6.5-6.1,5.5-19-2-24.9c-6.4-5.1-6-9.4-5.5-19.4c0.4-10-18.6-9.2-22.3-13.8
					C349.5,164,347.2,165.8,337.9,169.3z"/>
				<g>
					<path class="st17" d="M374.6,225.6c-5.1,16.9-8.1,24.1-22.9,31c-14.8,6.9-16.3,8.6-19.5,12.3c-3.2,3.7-7.5-3.4-5.5-5
						c0.5-0.4,3.5-1.4,5.5-2.8c0,0,2.8-1.8,7.8-4.5c1.9-1,19.5-11.7,20.4-15.2c1.6-6.3,3.5-18.7,3.5-18.7l7.2-2.9L374.6,225.6z"/>
					<path class="st18" d="M366.8,198.5c-3.1,6.4-3,24.3-3,24.3s9-1.5,10.8,2.8c0,0,4.1-9.8,3.3-15.3
						C377.2,204.9,368.5,194.8,366.8,198.5z"/>
				</g>
			</g>
			<g>
				<g>
					<g>
						<path class="st11" d="M383.7,227.5c0,0,5.7-29.2,7.7-39.6c1-5,16.3-8.2,16.3,5c0,9.2-10.2,29.7-13,35.2
							c-0.6,1.1-8.7,7.4-11.2,9.7l-4.1-4.7L383.7,227.5z"/>
						<path class="st17" d="M359,257l4.5-5.3c0,0-1.7-0.1-2.7-0.4c-1-0.3-1.1-1.5,0.2-1.2c1.3,0.3,4.5-0.7,4.5-0.7l13.9-16.2
							l4.1,4.7c-5.9,5-14.7,11.5-15.9,13.3C361.3,260.7,359,257,359,257z"/>
						<polygon class="st18" points="382.9,228.5 387.8,234.2 382.7,238.6 378.6,233.9 						"/>
					</g>
					<g>
						<polygon class="st1" points="396.6,364.2 397,366.9 394.1,370.4 391,368.9 390.9,367.5 390.3,364.6 						"/>
						<path class="st1" d="M427.3,363.3l0.5,2.6l-3.1,3c0,0-2.4-1.1-2.7-1.3c-0.2-0.1-1.7-4.2-1.7-4.2L427.3,363.3z"/>
						<path class="st18" d="M424.1,243.2c2.3,9.5,2.4,17.1,2.2,22.3c-0.4,7.1-1.6,10.3-3.6,24.6c-0.9,6.3-1.6,12.7-1.9,15.7
							c-2.6,29.8,14.2,51.1,6.8,57.4c-3.2,2.8-9,0.8-9.5,0.6c-12-4.3-13.9-26.3-16.5-58.3c-0.9-10.9-1.5-23.9-1.4-38.5
							c0.8-9.9,1.5-19.7,2.3-29.6C409.7,239.3,416.9,241.2,424.1,243.2z"/>
						<path class="st18" d="M391.7,233c-3.2,7.9-7.1,19.1-9.3,33c-1.2,7.4-1.7,13.7-1.7,33.9c-0.1,55.6,3.4,62.7,8.3,64.7
							c2.3,0.9,5.6,1,8.1-0.5c9.5-6-5.7-29,0.4-61.4c2.9-15.7,11.3-35.7,11.3-35.7l0,0l7.9-27.1L391.7,233z"/>
						<path class="st1" d="M409.6,249.6c-14.4,0.9-17.4-4-17.4-4l-2.2-38.1c0,0,2.3-18.7,2.1-18.8c-0.1-0.1,4.7-5.5,4.7-3.3
							c0,2.2,0,4.5,3.9,4.6c3.9,0.2,9.3-3.8,9.3-3.8l-1.2,6.1L409.6,249.6z"/>
						<path class="st15" d="M396.9,187.4c-1.6,3.2-2.8,20.2-2.5,25.9c0.6,11.6,0.4,16.1-0.3,29.3c-0.8,15.5-2.9,27-8.6,30
							c-0.6,0.3-3.1,1.6-4.4,0.7c-1.5-1.1-0.7-4.4-0.5-5.6c2.1-9.7,3-19.6,4.8-29.4c1.1-5.8,2.1-12.9,0.6-26.7
							c-1-8.6,2.3-21.4,4-24.6s3.5-4.9,3.5-4.9l3,0.4L396.9,187.4z"/>
						<path class="st15" d="M404.9,191.2c0.4,13.1,1.2,26.9,2.5,41.3c0.7,7.3-1.5,18.1,3.4,30.2c1.1,2.8,4.8,11.9,9.8,11.9
							c3.3,0,5.8-4.1,6.3-4.9c3.6-6,1.9-13.2,1.4-15.4c-5.9-26.6,8.4-47.9-6.1-63.9c-2-2.2-5.4-5.2-11-7.6l-2,7.7L404.9,191.2z"/>
						<path class="st20" d="M391.9,373.5c3.3-0.8,6.1-1.4,5.6-4.1c-0.1-0.8-0.5-2.6-0.5-2.6c-1.3,1.1-5.8,1.7-6.1,0.7
							c0,0-15.9,6.3-16.3,8c0,0.1,0,0.6,0,0.7C375.2,377.7,388.6,374.3,391.9,373.5z"/>
						<path class="st20" d="M421.9,375.2c1.2-0.5,7-3.7,6.4-6.4c-0.1-0.8-0.6-3.3-0.6-3.3c-0.8,1.9-5.5,2.2-5.7,2.1
							c0,0-7.9,5.4-8.2,7.1c0,0.1,0,0.6,0,0.7C414.4,377.1,418.8,376.6,421.9,375.2z"/>
					</g>
					<g>
						<path class="st11" d="M426.8,241c0,0-14-26.3-18.8-35.6c-2.4-4.5,7.5-16.6,15.8-6.3c5.8,7.1,10.8,29.5,12,35.6
							c0.3,1.2-2.1,11.2-2.6,14.6l-6.1-1.1L426.8,241z"/>
						<path class="st17" d="M426.2,279.5l0.2-7c0,0-1.3,1-2.3,1.4s-1.8-0.5-0.6-1.1c1.2-0.6,3.1-3.4,3.1-3.4l0.6-21.4l6.1,1.1
							c-1.5,7.6-4.2,18.2-4,20.3C430.3,280.8,426.2,279.5,426.2,279.5z"/>
						<polygon class="st18" points="426.9,242.3 434.3,243.6 433,250.2 426.9,249.1 						"/>
					</g>
				</g>
				<g>
					<path class="st17" d="M388.4,165.7c-3.9,12.3-2.6,13.8-0.4,15.2c2.2,1.4,3.4,0.2,6.1,1.4c2.7,1.2,1.6,3.6,3,6.3
						c1,1.9,5.6-2.2,6-5.5c0.4-3.3,1.9-5.8-2.3-7.9c-4.2-2.1-2.9-4.7-6.8-8.6C390.3,162.6,388.4,165.7,388.4,165.7z"/>
					<path class="st20" d="M392.3,160.5c-7.6,0.7-4.5,5.4-2.5,6.9c2.8,1.9,5.1,6,5.1,6c5.5-1,3.4,4.4,1.8,4.3
						c-2.3-0.2,5.6,3.2,2.9,10c-1,2.5-0.8,4.5,0.1,5.7c1.6,2.2,6.6-1.5,8.8,0.5c1.6,1.5,0.9,5.1,0.5,7.3c-0.6,3-1.5,3.2-1.4,4.9
						c0.1,3.3,3.4,4.1,5.6,7.7c2.4,4.1-0.3,5.5,1.4,13.3c1.2,5.6,2.9,4.2,6.1,12.4c0.4,1,1,2.6,2.3,3c2.1,0.6,4.5-2.4,4.9-2.8
						c5.7-6.8-1-15.4,4.4-23c2.6-3.7,5.1-3.1,6.1-6.4c0.9-2.8,0-6.4-6.5-14.7c-9.8-12.6-14.5-10.3-18.8-20
						C405.4,158.3,402.6,159.6,392.3,160.5z"/>
				</g>
			</g>
		</g>
	</g>
</g>
<g>
	<path class="st2" d="M368.2,409.5V280h79.4v129.4c0,9.2-7.5,16.7-16.7,16.7h-46.1C375.6,426.1,368.2,418.7,368.2,409.5z M370.1,282
		v127.5c0,8.1,6.6,14.7,14.7,14.7h46.1c8.1,0,14.7-6.6,14.7-14.7V282H370.1z"/>
	<path class="st2" d="M110.3,409.5V280h79.4v129.4c0,9.2-7.5,16.7-16.7,16.7h-46.1C117.7,426.1,110.2,418.7,110.3,409.5z M112.2,282
		v127.5c0,8.1,6.6,14.7,14.7,14.7H173c8.1,0,14.7-6.6,14.7-14.7V282H112.2z"/>
	<rect x="99.3" y="275.2" class="st4" width="65.8" height="11.5"/>
	<rect x="165.1" y="275.2" class="st2" width="294.4" height="11.5"/>
</g>
<g>
	<g>
		<g>
			<path class="st18" d="M287.7,255.4l-15.5-0.3l-12-11.1l-8.8,5.3c0,0,15,21.8,18.4,21.8c3.5,0,20.5-9.6,20.7-12.2L287.7,255.4z"/>
			<polygon class="st1" points="234.1,396.3 230.1,398.3 229,402.6 234,409.9 237.9,401.9 			"/>
			<path class="st12" d="M301.7,254.2c-0.3,1.2,0.3,2.6,0.6,3.2c0.6,1.2,0.8,1.4,1.4,1.1c1.1-0.6,1.3-4.3-0.2-6.7
				C303.5,251.8,302.1,252.8,301.7,254.2z"/>
			<polygon class="st1" points="290.4,407.7 281.3,409.7 281.6,414.2 288.6,417.9 			"/>
			<path class="st19" d="M224,278.7L192.2,308c0,0-2.8,8.7-1.5,19.1c0.7,5.3,37.2-0.9,39.6,6.4c2.1,6.5-0.2,64.8-0.2,64.8
				c1.6-0.5,3-0.2,7.2,4.9c0,0,30.5-58.1,25.5-72.6c-3.1-8.9-17.4-0.7-24-21.1L224,278.7z"/>
			<path class="st12" d="M290.1,255.7c1.5-1.4,2.2-3.2,5.6-4.7c2.3-1,4.2-2.4,6-1c3.7,2.7,1.6,3,0.4,4.9l-1.1-0.1
				c0,0-3.5,1.6-0.6,1.1c1.3-0.3,1.7-0.2,1.8,0.8c0.2,1.4-6,2.3-11.7,3.8C290.5,260.5,288.7,257,290.1,255.7z"/>
			<path class="st1" d="M286.1,257.8l4.2-2.4c2.3-0.5,4.7,4.1,2.4,4.8c-2,0.6-3.6,0.9-4.5,1.2L286.1,257.8z"/>
			<path class="st16" d="M225.3,407.8c0,7,21.5,16.5,23.5,15.2c1.8-1.1-6.9-6.4-10.8-11.3c-5.2-6.5-7.3-10.6-9.3-9.6
				C227.6,402.6,225.3,407,225.3,407.8z"/>
			<path class="st19" d="M211.3,291.5c-1.5,16.6,14.3,37.2,14.3,37.2c18.4,0.5,49.3-2.3,53.9,13c4.7,15.6,1.8,68.6,1.8,68.6
				c3,0,5.4,0,9.2,1.1c0,0,15.7-51.3,18.1-64.7c5.8-32.1-18.2-48.9-54.8-55.9C253.8,290.8,212.7,275,211.3,291.5z"/>
			<path class="st12" d="M253.7,188.4c-5.4,1.4-7.6,7.4-9.2,14.7c-0.7,3-2.6,5.4-5.4,9.8c-2.3,3.7,12.8,5.8,12.8,5.8s-1.2-4,6-3.4
				c6.8,0.5,10.8-12.4,11.1-20.1C269.2,190.3,261.3,186.3,253.7,188.4z"/>
			<path class="st1" d="M243.9,213.9c-2.2-1.6-8.2-0.9-8.2-0.9c0.3,1,1.2,1.9,4,3c4.8,2,13.6,2.8,13.6,2.8l-3.6-2.9
				C249.7,215.9,246,215.4,243.9,213.9z"/>
			<path class="st15" d="M252.1,184.1c-5.2,1.4-7.4,7.4-7.9,12.5c-0.5,5-3.1,7.6-2.9,10c0.3,2.4,4.6,4.5,7.5,5.2
				c1.8,0.4-0.7-0.2,6.1-3.7c0.7-0.4-2.5-2.2,2-5.5c3.7-2.7,5.6,1.6,5.6,1.6c6.9-4.4,9.9-10.4,7.7-14
				C267.4,185.6,257.3,182.8,252.1,184.1z"/>
			<path class="st12" d="M299.9,255.9c0,0,3.2-0.9,3.6,0c0.4,1-1.6,1.8-4.1,2.4L299.9,255.9z"/>
			<path class="st16" d="M310,419.3c-1.8-0.1-11.4-1.2-16.5-2.4c-5.1-1.2-12-2.8-12-2.8c-1.4,3-1.7,8.3-0.8,8.3
				c1,0.1,8.4,0,29.4-0.1C311.6,422.3,311.8,419.5,310,419.3z"/>
			<path class="st12" d="M316.1,269.5c0,0,2-4.2,2.9-5.1c0.9-0.8,6.8-2.9,9.6,1.3c2.1,3.1,0.4,4.8-0.6,4c-1.5-1.1-1.5-2.1-6.3,1.8
				L316.1,269.5z"/>
			<path class="st18" d="M192.2,307.8c7.2,0.1,16.8,1.3,16.8,1.3l7.7-20.4l-1.9,21.1c0,0,15.2,1.2,25.5,2.7
				c13.1,1.8,19.9,4.5,19.9,4.5c-3.2-25.7,2.4-58.8,2.4-58.8s20.7,12.8,31.6,12.8c7.5,0,27.5,0,27.5,0c1.1-4.9-1.1-7.5-7.6-7.9
				c-9.2-0.6-21.4-3.8-26.1-8.9c-8.1-8.9-13.6-27.1-34.8-35.4c-0.6-0.2-2-1.6-2-1.6s-24.4-11.5-32.2,2.9
				c-7.7,14.3-6.1,18.8-13.4,41.3C198.4,283.7,192.1,308,192.2,307.8z"/>
		</g>
		<path d="M271.5,215.3c0.3,0,0.5,0.1,0.7,0.4c0.7,1,2,1.4,3.1,1c1-0.4,1.8-1.6,1.7-2.6c-0.1-1.3-1-2.2-2.2-2.5
			c-1.2-0.2-2.3,0.3-2.9,1.4c-0.2,0.3-0.4,0.4-0.7,0.4c-2.8-0.1-5.2-1.2-7.3-2.8l0,0c0,0,0,0,0,0c-0.8-0.7-1.6-1.4-2.4-2.2
			c-0.3-0.3-0.3-0.5-0.1-0.8c1.3-2.2,1.2-4.4-0.1-6.6c-1-1.7-2.6-2.7-4.6-2.9c-0.2,0-0.3-0.1-0.5-0.1c-0.3,0-0.4-0.1-0.4-0.4
			c-0.5-2.6-1.1-5.2-1.6-7.7c0-0.2-0.1-0.5-0.2-0.7l0,0c-0.3-1.5-0.6-2.9-0.9-4.4c0,0,0-0.1,0-0.1c-0.1-0.4-0.2-0.8-0.2-1.2
			c0-0.2-0.1-0.4-0.3-0.4c-1.2,0.4-2.2,1-3.2,1.6c0.3,1.3,0.6,2.7,0.9,4l0,0c0.1,0.3,0.1,0.5,0.2,0.8c0.4,1.9,0.8,3.9,1.2,5.8
			c0.2,1.1,0.4,2.2,0.7,3.3c0.1,0.3,0,0.5-0.3,0.7c-3.6,2.9-3.2,8.3,0.9,10.6c0.9,0.5,1.9,0.8,2.8,0.8c1.5,0,2.7-0.4,3.8-1.1
			c0.3-0.2,0.4-0.1,0.6,0.1c0.1,0.2,0.3,0.3,0.4,0.4c0,0,0,0,0,0c0.1,0.1,0.3,0.3,0.4,0.4l0,0c0.1,0.1,0.3,0.3,0.4,0.4c0,0,0,0,0,0
			c0.1,0.1,0.3,0.3,0.5,0.4c0,0,0,0,0,0l0,0c1.8,1.6,3.9,2.9,6.3,3.5C269.4,215.1,270.4,215.3,271.5,215.3z"/>
	</g>
	<g>
		<path class="st2" d="M161.6,422.8c-0.8-1.5-0.6-3.2,0.3-4.5l61.7-85.7l27.4,2.1L189.5,419c-2.9,3.9-7.4,6.2-12.2,6.2h-12
			C163.7,425.2,162.2,424.3,161.6,422.8z M224.4,334.7l-61,84.8c-0.5,0.7-0.6,1.6-0.2,2.4c0.5,0.8,1.2,1.3,2.1,1.3h12
			c4.2,0,8.2-2,10.6-5.4l59.3-81.4L224.4,334.7z"/>
		<path class="st2" d="M228.7,419l-61.4-84.2l27.4-2.1l61.7,85.7c0.9,1.3,1,3.1,0.3,4.5c-0.7,1.4-2.2,2.3-3.8,2.3h-12
			C236.1,425.2,231.5,422.8,228.7,419z M170.9,336.4l59.3,81.4c2.5,3.4,6.4,5.4,10.6,5.4h12c0.9,0,1.7-0.5,2.1-1.3s0.3-1.7-0.2-2.4
			l-61-84.8L170.9,336.4z"/>
		<rect x="164.4" y="329.8" class="st4" width="28.6" height="11.5"/>
		<rect x="193" y="329.8" class="st2" width="62" height="11.5"/>
	</g>
</g>
</svg>
