<?xml version="1.0" encoding="utf-8"?>
<!-- Generator: Adobe Illustrator 22.1.0, SVG Export Plug-In . SVG Version: 6.00 Build 0)  -->
<svg version="1.1" id="Layer_1" xmlns="http://www.w3.org/2000/svg" xmlns:xlink="http://www.w3.org/1999/xlink" x="0px" y="0px"
	 viewBox="0 0 1725.7 632" style="enable-background:new 0 0 1725.7 632;" xml:space="preserve">
<style type="text/css">
	.st0{fill:#86C555;}
	.st1{fill:#0993D1;}
</style>
<path d="M189.4,136.2c0,19.2-14.6,72.1-76.7,72.1c-54.3,0-88.6-36.1-88.6-94.3c0-55,35.1-94.4,88.6-94.4c61.8,0,75.9,46.7,76.2,63.6
	h-26c-1-16.9-14.9-43.4-50.2-43.4c-41.7,0-62.3,33.8-62.3,74.2c0,42.9,22.7,74.2,62.3,74.2c38.1,0,49.9-33.1,51-52H189.4z"/>
<path d="M251.6,48.6h-24.5V23.9h24.5V48.6z M227.4,73.6h24.2V204h-24.2V73.6z"/>
<path d="M397.6,111.7h-24.2c0-11.6-9.3-22.2-29.8-22.2c-16.9,0-26.7,5.6-26.7,15.9c0,11.6,14.6,16.2,33.8,21.5
	c21.7,6.1,51,12.9,51,40.4c0,21.4-15.2,40.4-58,40.4c-39.6,0-56.3-20.7-56.3-45.9h24.5c0,14.4,11.9,26.2,32.3,26.2
	c24,0,32.6-7.8,32.6-17.4c0-10.9-11.1-16.4-35.1-23.2c-24.7-7.1-50-14.2-50-42.6c0-17.9,15.7-34.6,50.2-34.6
	C388.3,70,396.6,95.3,397.6,111.7"/>
<path d="M545.5,161.6c-1.8,10.8-10.4,45.9-56.2,45.9c-37.1,0-64.1-26.7-64.1-68.6c0-42.1,27.3-68.9,64.1-68.9
	c44.6,0,54.7,31.5,55.7,41.6h-24.2c-3.8-11.3-13.4-21.4-31.3-21.4c-25,0-39.4,21.2-39.4,48.7c0,23.5,11.9,48.4,39.1,48.4
	c25.2,0,31-18.9,32.5-25.7H545.5z"/>
<path d="M570.5,138.9c0-42.1,27.2-68.9,64.1-68.9c37.1,0,64.3,26.5,64.3,68.9c0,42.9-28,68.6-64.3,68.6
	C597.5,207.5,570.5,180.8,570.5,138.9 M634.5,187.4c26,0,39.1-22.7,39.1-48.4c0-26.3-13.4-48.7-38.8-48.7c-25,0-39.4,21.2-39.4,48.7
	C595.4,162.4,607.3,187.4,634.5,187.4"/>
<polygon class="st0" points="404.4,286.9 333.9,546.5 333.4,546.5 259,286.9 213,286.9 144.5,546 70,286.9 21.9,286.9 22.6,289.2 
	119.6,606.9 169.4,606.9 235.4,359.9 308.8,606.9 353.3,606.9 448.8,286.9 "/>
<path class="st0" d="M708.7,325.4c-29.5-31.4-67.4-47.1-113.1-47.1c-45.8,0-83.7,15.7-113.2,47.1c-29.6,31.4-44.3,72.1-44.3,121.8
	c0,49.3,14.8,89.8,44.3,121.2c29.6,31.4,67.4,47.1,113.2,47.1c53.3,0,93.6-17.1,120.3-51.5c13.3-16.9,22.3-37.4,27.1-61.3l0.4-2.1
	h-42.4l-0.3,1.4c-3.4,17.3-11.4,32.8-24.4,46.9c-19.6,20.8-46.3,31.2-80.7,31.2c-33.9,0-61.1-12.4-82-37.3
	c-18.1-22.1-28.3-49.9-30.6-83.5h270.1v-12.1h0C753.1,397.5,738.3,356.8,708.7,325.4 M484.2,424.7c2.4-31.1,13.7-57.1,34.1-78.2
	c20.7-21.5,46.3-32.2,77.3-32.2c32.2,0,58.8,11.4,80.1,34.3c19.2,20.9,29.8,46.1,31.9,76.1H484.2z"/>
<path class="st0" d="M1049.3,324.8c-29.5-31-67.4-46.5-113.2-46.5c-50.8,0-88.6,18.8-112.7,56.2V166.3h-41.7v328.1
	c0,43.2-1,80.1-3.2,110.7l-0.1,1.9h39.1l3.3-51.3c26.8,39.8,65.7,59.9,116,59.9c46,0,83.8-15.7,113-46.8
	c29.2-31.2,43.9-71.7,43.8-121.5C1093.7,396.7,1078.9,355.7,1049.3,324.8 M1050.1,447.2c0,36.4-9.7,67-29,92
	c-21,27.4-49,40.9-84.7,40.9c-34,0-61.2-12.8-82.2-38.5c-20.6-24.6-30.8-56-30.8-94.4c0-36.4,9.4-67,28.4-92
	c20.9-27.8,49-41.5,84.7-41.5c34.8,0,62.7,13.2,84.1,39.7C1040.2,378.4,1050.1,409.6,1050.1,447.2"/>
<path class="st1" d="M1388.2,325.4c-29.5-31.3-67.4-47.1-113.2-47c-45.8,0-83.6,15.7-113.2,47c-29.6,31.4-44.3,72.1-44.3,121.8
	c0,49.3,14.8,89.8,44.3,121.2c29.6,31.4,67.4,47.1,113.2,47.1h0.1c53.3,0,93.5-17.2,120.2-51.5c13.3-17,22.3-37.5,27.1-61.3l0.4-2.1
	h-42.4l-0.3,1.4c-3.4,17.3-11.4,32.8-24.4,46.9c-19.6,20.8-46.3,31.2-80.7,31.3c-33.9,0-61.1-12.4-82-37.3
	c-18.1-22.1-28.3-49.9-30.6-83.5h270.1v-12.1h0C1432.6,397.5,1417.8,356.8,1388.2,325.4 M1163.7,424.7c2.5-31.1,13.7-57.1,34.1-78.2
	c20.7-21.5,46.3-32.2,77.3-32.2c32.2,0,58.8,11.4,80.1,34.3c19.3,20.9,29.9,46.2,31.9,76.1H1163.7z"/>
<polygon class="st1" points="1590.7,440.6 1704.9,286.9 1659.2,286.9 1568,410.5 1474.6,286.9 1473.8,286.9 1427.9,286.9 
	1543,441.5 1418.1,606.9 1465,606.9 1565.6,470.4 1668,606.9 1716.4,606.9 "/>
</svg>
