<?xml version="1.0" encoding="utf-8"?>
<!-- Generator: Adobe Illustrator 22.1.0, SVG Export Plug-In . SVG Version: 6.00 Build 0)  -->
<svg version="1.1" id="Layer_1" xmlns="http://www.w3.org/2000/svg" xmlns:xlink="http://www.w3.org/1999/xlink" x="0px" y="0px"
	 viewBox="0 0 100 100" style="enable-background:new 0 0 100 100;" xml:space="preserve">
<style type="text/css">
	.st0{fill-rule:evenodd;clip-rule:evenodd;fill:#8A2A8F;}
	.st1{fill-rule:evenodd;clip-rule:evenodd;fill:#FFFFFF;}
</style>
<g>
	<path class="st0" d="M64.5,70.3c-5.7,4.2-12.8,6.7-21.2,7.5H32.5c-8.5-0.7-15.6-3.2-21.2-7.5c-6.9-5.1-10.3-11.8-10.3-20
		c0-8.1,3.4-14.7,10.3-19.8c6.8-5.2,15.7-7.8,26.6-7.8c10.8,0,19.7,2.6,26.6,7.8c6.8,5.1,10.2,11.7,10.2,19.8
		C74.7,58.5,71.2,65.2,64.5,70.3L64.5,70.3z"/>
	<polygon class="st0" points="88.9,76.9 78.9,75.7 80,66.9 90,68.1 88.9,76.9 	"/>
	<polygon class="st0" points="98.9,23.6 81.8,21.5 81.9,61.2 89.4,62.2 98.9,23.6 	"/>
	<path class="st0" d="M59.3,43.5l-5.2,1.1c-0.8,0.2-2.9,1.8-6.6,4.8c-3.9,3.1-5.9,5.1-6.2,6.1l-0.2,2.8L41,60l0.4,4.2l6.9,0.1
		l-0.1,2.1H37l-10,0.1l0.3-2l3.2-0.1c1.7-0.1,2.7-0.3,3-0.7c0.2-0.2,0.3-1.6,0.3-3.9v-1.4l-0.1-2.9c-0.2-0.7-2-3.1-5.4-7.3
		c-3.6-4.3-5.9-6.9-7-7.8l-6.5-0.9v-1.9c0.3-0.2,3.9-0.2,10.5-0.1c4.6-0.1,8.3-0.1,11.3,0.1l-0.2,1.6l-6.8,0.7
		c2.1,3.1,5.3,7.5,9.7,12.9c5.7-4.3,8.7-7.1,8.8-8.3l-5.8-0.9l-0.4-2h9.7l9.1,0.1L59.3,43.5L59.3,43.5z"/>
	<polygon class="st0" points="92.7,68.1 91.9,68.1 91.9,67.6 94.1,67.6 94.1,68.1 93.3,68.1 93.3,70.2 92.7,70.2 92.7,68.1 	"/>
	<polygon class="st0" points="95.2,68.3 95.2,70.2 94.6,70.2 94.6,67.6 95.3,67.6 96.1,68.9 96.8,67.6 97.4,67.6 97.4,70.2 
		96.8,70.2 96.8,68.3 96.1,69.7 95.9,69.7 95.2,68.3 	"/>
	<path class="st0" d="M64.5,70.3c-5.7,4.2-12.8,6.7-21.2,7.5H32.5c-8.5-0.7-15.6-3.2-21.2-7.5c-6.9-5.1-10.3-11.8-10.3-20
		c0-8.1,3.4-14.7,10.3-19.8c6.8-5.2,15.7-7.8,26.6-7.8c10.8,0,19.7,2.6,26.6,7.8c6.8,5.1,10.2,11.7,10.2,19.8
		C74.7,58.5,71.2,65.2,64.5,70.3L64.5,70.3z"/>
	<polygon class="st0" points="88.9,76.9 78.9,75.7 80,66.9 90,68.1 88.9,76.9 	"/>
	<polygon class="st0" points="98.9,23.6 81.8,21.5 81.9,61.2 89.4,62.2 98.9,23.6 	"/>
	<path class="st1" d="M59.3,43.5l-5.2,1.1c-0.8,0.2-2.9,1.8-6.6,4.8c-3.9,3.1-5.9,5.1-6.2,6.1l-0.2,2.8L41,60l0.4,4.2l6.9,0.1
		l-0.1,2.1H37l-10,0.1l0.3-2l3.2-0.1c1.7-0.1,2.7-0.3,3-0.7c0.2-0.2,0.3-1.6,0.3-3.9v-1.4l-0.1-2.9c-0.2-0.7-2-3.1-5.4-7.3
		c-3.6-4.3-5.9-6.9-7-7.8l-6.5-0.9v-1.9c0.3-0.2,3.9-0.2,10.5-0.1c4.6-0.1,8.3-0.1,11.3,0.1l-0.2,1.6l-6.8,0.7
		c2.1,3.1,5.3,7.5,9.7,12.9c5.7-4.3,8.7-7.1,8.8-8.3l-5.8-0.9l-0.4-2h9.7l9.1,0.1L59.3,43.5L59.3,43.5z"/>
	<polygon class="st0" points="92.7,68.1 91.9,68.1 91.9,67.6 94.1,67.6 94.1,68.1 93.3,68.1 93.3,70.2 92.7,70.2 92.7,68.1 	"/>
	<polygon class="st0" points="95.2,68.3 95.2,70.2 94.6,70.2 94.6,67.6 95.3,67.6 96.1,68.9 96.8,67.6 97.4,67.6 97.4,70.2 
		96.8,70.2 96.8,68.3 96.1,69.7 95.9,69.7 95.2,68.3 	"/>
</g>
</svg>
