<?xml version="1.0" encoding="utf-8"?>
<!-- Generator: Adobe Illustrator 22.1.0, SVG Export Plug-In . SVG Version: 6.00 Build 0)  -->
<svg version="1.1" id="Layer_1" xmlns="http://www.w3.org/2000/svg" xmlns:xlink="http://www.w3.org/1999/xlink" x="0px" y="0px"
	 viewBox="0 0 100 100" style="enable-background:new 0 0 100 100;" xml:space="preserve">
<style type="text/css">
	.st0{fill:#E79225;}
	.st1{fill:#FFF16D;}
	.st2{fill:url(#SVGID_1_);}
	.st3{fill:#FFFFFF;}
	.st4{fill:#009ADA;}
	.st5{fill:#91C9ED;}
	.st6{fill:url(#SVGID_2_);}
	.st7{fill:#66BF6B;}
	.st8{fill:#98D0A0;}
	.st9{fill:url(#SVGID_3_);}
	.st10{fill:#760D16;}
	.st11{fill:#EF463E;}
	.st12{fill:url(#SVGID_4_);}
</style>
<g>
	<polygon class="st0" points="99,40.3 99,63.6 95.8,66.7 95.8,44 	"/>
	<polygon class="st1" points="77.9,40.3 74.6,44 74.8,44.2 95.7,44.1 95.8,44 99,40.3 	"/>
	
		<linearGradient id="SVGID_1_" gradientUnits="userSpaceOnUse" x1="-199.7863" y1="-198.5977" x2="-199.5949" y2="-198.5977" gradientTransform="matrix(0 113.6089 -106.0605 0 -20978.1523 22741.7793)">
		<stop  offset="0" style="stop-color:#FFE513"/>
		<stop  offset="5.618000e-03" style="stop-color:#FFE513"/>
		<stop  offset="1" style="stop-color:#FDB924"/>
	</linearGradient>
	<rect x="74.6" y="44" class="st2" width="21.2" height="22.8"/>
	<path class="st3" d="M92.6,52.1c-0.4-1.1-1.1-2-1.9-2.8c-0.8-0.8-1.7-1.4-2.7-1.8c-1-0.4-2-0.6-3.2-0.6c-1.1,0-2.2,0.2-3.2,0.6
		c-1,0.4-1.9,1-2.7,1.8c-0.8,0.8-1.4,1.8-1.9,2.8c-0.4,1.1-0.6,2.2-0.6,3.5c0,1.2,0.2,2.4,0.6,3.4c0.4,1.1,1,2,1.9,2.9
		c0.8,0.8,1.6,1.4,2.6,1.8c1,0.4,2.1,0.6,3.2,0.6c1.1,0,2.2-0.2,3.2-0.6c1-0.4,1.9-1,2.7-1.8c0.8-0.8,1.5-1.8,1.9-2.9
		c0.4-1.1,0.6-2.2,0.6-3.4C93.2,54.3,93,53.2,92.6,52.1z M88.2,59.6c-0.8,1-1.9,1.5-3.3,1.5c-1.4,0-2.5-0.5-3.3-1.5
		c-0.8-1-1.2-2.3-1.2-4.1c0-1.8,0.4-3.1,1.2-4.1c0.8-1,1.9-1.5,3.3-1.5c1.4,0,2.5,0.5,3.3,1.5c0.8,1,1.2,2.4,1.2,4.1
		C89.4,57.3,89,58.7,88.2,59.6z"/>
	<polygon class="st4" points="72.5,38.4 72.5,38.5 75.2,59.4 73.6,63.8 73.4,63.7 70.6,43.6 70.7,43.4 72.4,38.5 	"/>
	<polygon class="st5" points="51.6,41.3 72.5,38.4 70.7,43.4 70.5,43.7 50.9,46.6 51,43 	"/>
	
		<linearGradient id="SVGID_2_" gradientUnits="userSpaceOnUse" x1="-199.9687" y1="-199.8984" x2="-199.7773" y2="-199.8984" gradientTransform="matrix(111.3975 89.4611 -89.9025 110.8506 4355.9551 40094.8516)">
		<stop  offset="0" style="stop-color:#008CD2"/>
		<stop  offset="5.618000e-03" style="stop-color:#008CD2"/>
		<stop  offset="1" style="stop-color:#00649D"/>
	</linearGradient>
	<polygon class="st6" points="70.7,43.4 73.6,63.8 53,66.7 50.2,47 51.5,46.1 	"/>
	<path class="st3" d="M67.2,47.3c-0.1-0.6-0.3-1.1-0.7-1.4c-0.3-0.2-0.6-0.4-1-0.4c-0.1,0-0.2,0-0.3,0c-0.5,0.1-0.9,0.3-1.2,0.7
		c-0.2,0.3-0.3,0.7-0.3,1.1c0,0.2,0,0.3,0,0.5l0.7,5.3L58.6,54l-0.7-5.3c-0.1-0.6-0.3-1.1-0.7-1.4c-0.3-0.3-0.6-0.4-1-0.4
		c-0.1,0-0.2,0-0.3,0c-0.6,0.1-1,0.3-1.2,0.7c-0.2,0.3-0.3,0.7-0.3,1.1c0,0.2,0,0.3,0,0.5l2,13.8c0.1,0.6,0.3,1.1,0.7,1.4
		c0.3,0.2,0.6,0.4,1.1,0.4c0.1,0,0.2,0,0.3,0c0.5-0.1,0.9-0.3,1.1-0.7c0.2-0.3,0.2-0.6,0.2-1c0-0.2,0-0.3,0-0.5l-0.8-5.5l5.9-0.9
		l0.8,5.5c0.1,0.6,0.3,1.1,0.7,1.4c0.3,0.2,0.6,0.4,1,0.4c0.1,0,0.2,0,0.3,0c0.5-0.1,0.9-0.3,1.2-0.7c0.2-0.3,0.3-0.6,0.3-1.1
		c0-0.2,0-0.3,0-0.5L67.2,47.3z"/>
	<polygon class="st7" points="32,33.1 24.6,50.8 25.6,58.6 25.6,58.5 34,39.7 34,39.3 32.2,33.3 	"/>
	<polygon class="st8" points="32,33.1 33.9,39.6 34,39.7 52.4,48 52.5,47.9 50.9,41.7 	"/>
	
		<linearGradient id="SVGID_3_" gradientUnits="userSpaceOnUse" x1="-199.8866" y1="-200.4733" x2="-199.6952" y2="-200.4733" gradientTransform="matrix(0 99.5333 -97.929 0 -19593.1328 19942.5449)">
		<stop  offset="0" style="stop-color:#26A146"/>
		<stop  offset="1" style="stop-color:#008A52"/>
	</linearGradient>
	<polygon class="st9" points="33.9,39.6 52.5,47.9 44.1,66.9 25.6,58.6 	"/>
	<path class="st3" d="M46.8,49.5c-0.4-1.1-1-2-1.7-2.8c-0.7-0.8-1.6-1.4-2.6-1.8c-1-0.4-2.1-0.7-3.1-0.7h-0.1
		c-1.1,0-2.1,0.2-3.2,0.7c-1.1,0.5-2,1.1-2.8,2c-0.8,0.8-1.5,1.9-2,3.1c-0.5,1.2-0.8,2.4-0.8,3.5v0.4c0,1,0.2,2,0.5,3
		c0.4,1.1,0.9,2,1.7,2.7c0.7,0.8,1.6,1.4,2.7,1.8c1,0.4,2,0.7,3.1,0.7h0c1.1,0,2.1-0.2,3.1-0.7c1.1-0.5,2-1.1,2.9-2
		c0.8-0.8,1.5-1.9,2-3c0.5-1.2,0.8-2.4,0.8-3.5v-0.3C47.4,51.5,47.2,50.5,46.8,49.5z M43.1,55c-0.7,1.6-1.6,2.8-2.8,3.4
		c-0.6,0.3-1.2,0.5-1.9,0.5c-0.6,0-1.1-0.1-1.7-0.4c-1.3-0.6-2.1-1.4-2.5-2.7c-0.1-0.4-0.2-0.9-0.2-1.3c0-0.9,0.2-1.9,0.7-3
		c0.7-1.7,1.6-2.8,2.8-3.5c0.6-0.3,1.2-0.5,1.9-0.5c0.6,0,1.1,0.1,1.8,0.4c1.3,0.6,2.1,1.4,2.4,2.7c0.1,0.4,0.2,0.8,0.2,1.3
		C43.9,52.8,43.6,53.8,43.1,55z"/>
	<polygon class="st10" points="23.1,36.1 26.1,56.4 24.7,63.5 24.5,63.2 21.6,43.7 21.6,43.3 22.9,36.4 	"/>
	<polygon class="st11" points="1,46.6 2.4,39.4 23.1,36.1 21.7,43.4 21.7,43.9 1.2,46.8 	"/>
	
		<linearGradient id="SVGID_4_" gradientUnits="userSpaceOnUse" x1="-199.5705" y1="-201.4788" x2="-199.3791" y2="-201.4788" gradientTransform="matrix(17.1244 103.3478 -105.3876 16.793 -17804.4648 24053.916)">
		<stop  offset="0" style="stop-color:#D92231"/>
		<stop  offset="1" style="stop-color:#BA2234"/>
	</linearGradient>
	<polygon class="st12" points="21.7,43.4 24.7,63.5 4.3,66.7 1,46.6 	"/>
	<path class="st3" d="M19.5,60.3c-0.2-0.2-0.4-0.3-0.7-0.4c-0.3-0.1-0.6-0.1-1-0.1c-0.4,0-0.8,0-1.2,0.1l-5.4,0.9
		c0.1-0.4,0.3-1,0.6-1.6c0.4-0.7,1-1.6,1.8-2.7c0.3-0.4,0.5-0.6,0.6-0.8c0.1-0.1,0.2-0.3,0.4-0.6c1.2-1.6,2-2.9,2.3-4
		c0.2-0.6,0.3-1.2,0.3-1.8c0-0.2,0-0.3,0-0.5c0-0.4,0-0.8-0.1-1.3c-0.1-0.4-0.2-0.7-0.3-0.9c-0.1-0.2-0.3-0.4-0.5-0.6
		c-0.2-0.1-0.5-0.2-0.9-0.2c-0.3,0-0.7,0-1.2,0.1l-6.2,1.1c-0.7,0.1-1.3,0.3-1.7,0.7C6.1,48,6,48.4,6,48.8c0,0.1,0,0.2,0,0.3
		c0.1,0.5,0.4,0.9,0.8,1.1c0.3,0.1,0.6,0.2,1,0.2c0.2,0,0.5,0,0.8-0.1l5.2-0.9c0,0.1,0,0.2,0,0.3c0,0.3-0.1,0.7-0.2,1
		c-0.2,0.4-0.5,1.1-1.2,1.8c-0.2,0.2-0.4,0.6-0.8,1c-1.4,1.7-2.4,3.2-3,4.4c-0.4,0.8-0.7,1.6-0.9,2.5c-0.1,0.5-0.2,0.9-0.2,1.4
		c0,0.3,0,0.6,0.1,0.9c0.1,0.4,0.2,0.8,0.3,1c0.1,0.3,0.3,0.5,0.5,0.6c0.2,0.1,0.5,0.2,0.9,0.2c0.5,0,1.2-0.1,2.1-0.2l5.7-1
		c1-0.2,1.7-0.4,2.1-0.7c0.3-0.3,0.5-0.6,0.5-1.1c0-0.1,0-0.2,0-0.3C19.8,60.7,19.7,60.5,19.5,60.3z"/>
</g>
</svg>
